G04 #@! TF.GenerationSoftware,KiCad,Pcbnew,7.0.7*
G04 #@! TF.CreationDate,2023-10-11T15:24:29+07:00*
G04 #@! TF.ProjectId,panel,70616e65-6c2e-46b6-9963-61645f706362,rev?*
G04 #@! TF.SameCoordinates,Original*
G04 #@! TF.FileFunction,Profile,NP*
%FSLAX46Y46*%
G04 Gerber Fmt 4.6, Leading zero omitted, Abs format (unit mm)*
G04 Created by KiCad (PCBNEW 7.0.7) date 2023-10-11 15:24:29*
%MOMM*%
%LPD*%
G01*
G04 APERTURE LIST*
G04 #@! TA.AperFunction,Profile*
%ADD10C,0.100000*%
G04 #@! TD*
G04 APERTURE END LIST*
D10*
X135500000Y-27000000D02*
X126500000Y-27000000D01*
X147500000Y-78000000D02*
X147500000Y-78000000D01*
X158500000Y-78000000D02*
X158500000Y-80000000D01*
X135500000Y-25000000D02*
X135500000Y-27000000D01*
X161500000Y-78000000D02*
X170500000Y-78000000D01*
X170500000Y-85000000D02*
X170500000Y-80000000D01*
X126500000Y-20000000D02*
X126500000Y-25000000D01*
X158500000Y-80000000D02*
X138500000Y-80000000D01*
X138500000Y-80000000D02*
X138500000Y-78000000D01*
X138500000Y-25000000D02*
X158500000Y-25000000D01*
X170500000Y-25000000D02*
X170500000Y-20000000D01*
X170500000Y-80000000D02*
X161500000Y-80000000D01*
X126500000Y-27000000D02*
X126500000Y-78000000D01*
X126500000Y-78000000D02*
X135500000Y-78000000D01*
X158500000Y-25000000D02*
X158500000Y-25000000D01*
X158500000Y-27000000D02*
X149500000Y-27000000D01*
X170500000Y-27000000D02*
X161500000Y-27000000D01*
X135500000Y-78000000D02*
X135500000Y-80000000D01*
X135500000Y-80000000D02*
X126500000Y-80000000D01*
X149500000Y-27000000D02*
X149500000Y-78000000D01*
X138500000Y-27000000D02*
X138500000Y-25000000D01*
X170500000Y-78000000D02*
X170500000Y-27000000D01*
X149500000Y-78000000D02*
X158500000Y-78000000D01*
X126500000Y-25000000D02*
X135500000Y-25000000D01*
X170500000Y-20000000D02*
X126500000Y-20000000D01*
X147500000Y-27000000D02*
X138500000Y-27000000D01*
X138500000Y-78000000D02*
X147500000Y-78000000D01*
X161500000Y-80000000D02*
X161500000Y-78000000D01*
X126500000Y-80000000D02*
X126500000Y-85000000D01*
X126500000Y-85000000D02*
X170500000Y-85000000D01*
X147500000Y-78000000D02*
X147500000Y-27000000D01*
X161500000Y-27000000D02*
X161500000Y-25000000D01*
X170500000Y-20000000D02*
X170500000Y-20000000D01*
X161500000Y-25000000D02*
X170500000Y-25000000D01*
X158500000Y-25000000D02*
X158500000Y-27000000D01*
M02*
