M48
INCH,TZ
T1C0.0197
T2C0.0827
%
G90
G05
T1
X53346Y-10630
X53346Y-30709
X53740Y-10630
X53740Y-30709
X54134Y-10630
X54134Y-30709
X54528Y-10630
X54528Y-30709
X58071Y-14055
X58071Y-15236
X58071Y-18071
X58071Y-19252
X58071Y-22087
X58071Y-23268
X58071Y-26102
X58071Y-27283
X58858Y-14055
X58858Y-15236
X58858Y-18071
X58858Y-19252
X58858Y-22087
X58858Y-23268
X58858Y-26102
X58858Y-27283
X62402Y-10630
X62402Y-30709
X62795Y-10630
X62795Y-30709
X63189Y-10630
X63189Y-30709
X63583Y-10630
X63583Y-30709
T2
X51614Y-29843
X51654Y-11457
X56260Y-11457
X56260Y-29843
X60669Y-29843
X60709Y-11457
X65315Y-11457
X65315Y-29843
T0
M30
