G04 #@! TF.GenerationSoftware,KiCad,Pcbnew,7.0.7*
G04 #@! TF.CreationDate,2023-10-11T15:24:27+07:00*
G04 #@! TF.ProjectId,panel,70616e65-6c2e-46b6-9963-61645f706362,rev?*
G04 #@! TF.SameCoordinates,Original*
G04 #@! TF.FileFunction,Paste,Top*
G04 #@! TF.FilePolarity,Positive*
%FSLAX46Y46*%
G04 Gerber Fmt 4.6, Leading zero omitted, Abs format (unit mm)*
G04 Created by KiCad (PCBNEW 7.0.7) date 2023-10-11 15:24:27*
%MOMM*%
%LPD*%
G01*
G04 APERTURE LIST*
G04 Aperture macros list*
%AMRoundRect*
0 Rectangle with rounded corners*
0 $1 Rounding radius*
0 $2 $3 $4 $5 $6 $7 $8 $9 X,Y pos of 4 corners*
0 Add a 4 corners polygon primitive as box body*
4,1,4,$2,$3,$4,$5,$6,$7,$8,$9,$2,$3,0*
0 Add four circle primitives for the rounded corners*
1,1,$1+$1,$2,$3*
1,1,$1+$1,$4,$5*
1,1,$1+$1,$6,$7*
1,1,$1+$1,$8,$9*
0 Add four rect primitives between the rounded corners*
20,1,$1+$1,$2,$3,$4,$5,0*
20,1,$1+$1,$4,$5,$6,$7,0*
20,1,$1+$1,$6,$7,$8,$9,0*
20,1,$1+$1,$8,$9,$2,$3,0*%
G04 Aperture macros list end*
%ADD10C,0.010000*%
%ADD11RoundRect,0.079500X0.100500X-0.079500X0.100500X0.079500X-0.100500X0.079500X-0.100500X-0.079500X0*%
%ADD12RoundRect,0.079500X0.079500X0.100500X-0.079500X0.100500X-0.079500X-0.100500X0.079500X-0.100500X0*%
%ADD13RoundRect,0.079500X-0.100500X0.079500X-0.100500X-0.079500X0.100500X-0.079500X0.100500X0.079500X0*%
%ADD14RoundRect,0.150000X-0.150000X0.512500X-0.150000X-0.512500X0.150000X-0.512500X0.150000X0.512500X0*%
%ADD15RoundRect,0.079500X-0.079500X-0.100500X0.079500X-0.100500X0.079500X0.100500X-0.079500X0.100500X0*%
%ADD16RoundRect,0.014000X0.161000X-0.231000X0.161000X0.231000X-0.161000X0.231000X-0.161000X-0.231000X0*%
%ADD17R,0.900000X0.800000*%
%ADD18R,0.400000X1.650000*%
%ADD19R,1.825000X0.700000*%
%ADD20R,2.000000X1.500000*%
%ADD21R,1.350000X2.000000*%
%ADD22R,1.430000X2.500000*%
%ADD23R,0.650000X1.050000*%
%ADD24RoundRect,0.232500X0.232500X0.232500X-0.232500X0.232500X-0.232500X-0.232500X0.232500X-0.232500X0*%
%ADD25RoundRect,0.062500X0.375000X0.062500X-0.375000X0.062500X-0.375000X-0.062500X0.375000X-0.062500X0*%
%ADD26RoundRect,0.062500X0.062500X0.375000X-0.062500X0.375000X-0.062500X-0.375000X0.062500X-0.375000X0*%
%ADD27R,1.150000X1.000000*%
%ADD28R,0.200000X0.400000*%
%ADD29RoundRect,0.249999X-0.395001X-0.395001X0.395001X-0.395001X0.395001X0.395001X-0.395001X0.395001X0*%
%ADD30RoundRect,0.050000X-0.387500X-0.050000X0.387500X-0.050000X0.387500X0.050000X-0.387500X0.050000X0*%
%ADD31RoundRect,0.050000X-0.050000X-0.387500X0.050000X-0.387500X0.050000X0.387500X-0.050000X0.387500X0*%
G04 APERTURE END LIST*
G04 #@! TO.C,U5*
D10*
X140460000Y-65980000D02*
X139440000Y-65980000D01*
X139440000Y-65860000D01*
X140460000Y-65860000D01*
X140460000Y-65980000D01*
G36*
X140460000Y-65980000D02*
G01*
X139440000Y-65980000D01*
X139440000Y-65860000D01*
X140460000Y-65860000D01*
X140460000Y-65980000D01*
G37*
G04 #@! TO.C,U3*
X134460000Y-40380000D02*
X133440000Y-40380000D01*
X133440000Y-40260000D01*
X134460000Y-40260000D01*
X134460000Y-40380000D01*
G36*
X134460000Y-40380000D02*
G01*
X133440000Y-40380000D01*
X133440000Y-40260000D01*
X134460000Y-40260000D01*
X134460000Y-40380000D01*
G37*
X157460000Y-40380000D02*
X156440000Y-40380000D01*
X156440000Y-40260000D01*
X157460000Y-40260000D01*
X157460000Y-40380000D01*
G36*
X157460000Y-40380000D02*
G01*
X156440000Y-40380000D01*
X156440000Y-40260000D01*
X157460000Y-40260000D01*
X157460000Y-40380000D01*
G37*
G04 #@! TO.C,U5*
X163460000Y-65980000D02*
X162440000Y-65980000D01*
X162440000Y-65860000D01*
X163460000Y-65860000D01*
X163460000Y-65980000D01*
G36*
X163460000Y-65980000D02*
G01*
X162440000Y-65980000D01*
X162440000Y-65860000D01*
X163460000Y-65860000D01*
X163460000Y-65980000D01*
G37*
G04 #@! TD*
D11*
G04 #@! TO.C,C1*
X161300000Y-42845000D03*
X161300000Y-42155000D03*
G04 #@! TD*
D12*
G04 #@! TO.C,D1*
X142900000Y-30900000D03*
X142210000Y-30900000D03*
G04 #@! TD*
D11*
G04 #@! TO.C,C9*
X159500000Y-42890000D03*
X159500000Y-42200000D03*
G04 #@! TD*
G04 #@! TO.C,D2*
X155300000Y-31065000D03*
X155300000Y-30375000D03*
G04 #@! TD*
D13*
G04 #@! TO.C,C16*
X163300000Y-68955000D03*
X163300000Y-69645000D03*
G04 #@! TD*
D14*
G04 #@! TO.C,U2*
X166000000Y-34425000D03*
X165050000Y-34425000D03*
X164100000Y-34425000D03*
X164100000Y-36700000D03*
X166000000Y-36700000D03*
G04 #@! TD*
D13*
G04 #@! TO.C,R1*
X160100000Y-40210000D03*
X160100000Y-40900000D03*
G04 #@! TD*
D15*
G04 #@! TO.C,C7*
X142635000Y-48900000D03*
X143325000Y-48900000D03*
G04 #@! TD*
D16*
G04 #@! TO.C,U5*
X139200000Y-67140000D03*
X139700000Y-67140000D03*
X140200000Y-67140000D03*
X140700000Y-67140000D03*
X140700000Y-64700000D03*
X140200000Y-64700000D03*
X139700000Y-64700000D03*
X139200000Y-64700000D03*
G04 #@! TD*
D11*
G04 #@! TO.C,C10*
X135800000Y-42890000D03*
X135800000Y-42200000D03*
G04 #@! TD*
D16*
G04 #@! TO.C,U3*
X133200000Y-41540000D03*
X133700000Y-41540000D03*
X134200000Y-41540000D03*
X134700000Y-41540000D03*
X134700000Y-39100000D03*
X134200000Y-39100000D03*
X133700000Y-39100000D03*
X133200000Y-39100000D03*
G04 #@! TD*
D11*
G04 #@! TO.C,R7*
X136900000Y-67390000D03*
X136900000Y-66700000D03*
G04 #@! TD*
D17*
G04 #@! TO.C,Y2*
X160700000Y-70000000D03*
X162100000Y-70000000D03*
X162100000Y-68900000D03*
X160700000Y-68900000D03*
G04 #@! TD*
D15*
G04 #@! TO.C,C7*
X165635000Y-48900000D03*
X166325000Y-48900000D03*
G04 #@! TD*
D11*
G04 #@! TO.C,C1*
X138300000Y-42845000D03*
X138300000Y-42155000D03*
G04 #@! TD*
D13*
G04 #@! TO.C,R5*
X155300000Y-42010000D03*
X155300000Y-42700000D03*
G04 #@! TD*
D18*
G04 #@! TO.C,J1*
X161360000Y-31650000D03*
X160710000Y-31650000D03*
X160060000Y-31650000D03*
X159410000Y-31650000D03*
X158760000Y-31650000D03*
D19*
X163010000Y-30450000D03*
D20*
X162910000Y-31750000D03*
D21*
X162790000Y-29700000D03*
D22*
X161020000Y-28500000D03*
X159100000Y-28500000D03*
D21*
X157310000Y-29700000D03*
D20*
X157160000Y-31770000D03*
D19*
X157060000Y-30450000D03*
G04 #@! TD*
D13*
G04 #@! TO.C,C16*
X140300000Y-68955000D03*
X140300000Y-69645000D03*
G04 #@! TD*
D15*
G04 #@! TO.C,C17*
X160910000Y-71100000D03*
X161600000Y-71100000D03*
G04 #@! TD*
D17*
G04 #@! TO.C,Y2*
X137700000Y-70000000D03*
X139100000Y-70000000D03*
X139100000Y-68900000D03*
X137700000Y-68900000D03*
G04 #@! TD*
D23*
G04 #@! TO.C,SW1*
X156850000Y-37725000D03*
X156850000Y-33575000D03*
X159000000Y-37725000D03*
X159000000Y-33600000D03*
G04 #@! TD*
D24*
G04 #@! TO.C,U4*
X136612500Y-64200000D03*
X136612500Y-63050000D03*
X136612500Y-61900000D03*
X135462500Y-64200000D03*
X135462500Y-63050000D03*
X135462500Y-61900000D03*
X134312500Y-64200000D03*
X134312500Y-63050000D03*
X134312500Y-61900000D03*
D25*
X137900000Y-64800000D03*
X137900000Y-64300000D03*
X137900000Y-63800000D03*
X137900000Y-63300000D03*
X137900000Y-62800000D03*
X137900000Y-62300000D03*
X137900000Y-61800000D03*
X137900000Y-61300000D03*
D26*
X137212500Y-60612500D03*
X136712500Y-60612500D03*
X136212500Y-60612500D03*
X135712500Y-60612500D03*
X135212500Y-60612500D03*
X134712500Y-60612500D03*
X134212500Y-60612500D03*
X133712500Y-60612500D03*
D25*
X133025000Y-61300000D03*
X133025000Y-61800000D03*
X133025000Y-62300000D03*
X133025000Y-62800000D03*
X133025000Y-63300000D03*
X133025000Y-63800000D03*
X133025000Y-64300000D03*
X133025000Y-64800000D03*
D26*
X133712500Y-65487500D03*
X134212500Y-65487500D03*
X134712500Y-65487500D03*
X135212500Y-65487500D03*
X135712500Y-65487500D03*
X136212500Y-65487500D03*
X136712500Y-65487500D03*
X137212500Y-65487500D03*
G04 #@! TD*
D11*
G04 #@! TO.C,C18*
X134390000Y-72140000D03*
X134390000Y-71450000D03*
G04 #@! TD*
D12*
G04 #@! TO.C,D1*
X165900000Y-30900000D03*
X165210000Y-30900000D03*
G04 #@! TD*
D27*
G04 #@! TO.C,Y1*
X156550000Y-57100000D03*
X158300000Y-57100000D03*
X158300000Y-55700000D03*
X156550000Y-55700000D03*
G04 #@! TD*
D13*
G04 #@! TO.C,C14*
X159600000Y-56310000D03*
X159600000Y-57000000D03*
G04 #@! TD*
D28*
G04 #@! TO.C,AE1*
X133765000Y-73940000D03*
X134480000Y-73940000D03*
G04 #@! TD*
D15*
G04 #@! TO.C,C11*
X163810000Y-41600000D03*
X164500000Y-41600000D03*
G04 #@! TD*
D27*
G04 #@! TO.C,Y1*
X133550000Y-57100000D03*
X135300000Y-57100000D03*
X135300000Y-55700000D03*
X133550000Y-55700000D03*
G04 #@! TD*
D28*
G04 #@! TO.C,AE1*
X156765000Y-73940000D03*
X157480000Y-73940000D03*
G04 #@! TD*
D11*
G04 #@! TO.C,R7*
X159900000Y-67390000D03*
X159900000Y-66700000D03*
G04 #@! TD*
G04 #@! TO.C,C4*
X155900000Y-44545000D03*
X155900000Y-43855000D03*
G04 #@! TD*
G04 #@! TO.C,C4*
X132900000Y-44545000D03*
X132900000Y-43855000D03*
G04 #@! TD*
G04 #@! TO.C,C3*
X139800000Y-42845000D03*
X139800000Y-42155000D03*
G04 #@! TD*
D13*
G04 #@! TO.C,C6*
X137000000Y-54010000D03*
X137000000Y-54700000D03*
G04 #@! TD*
D15*
G04 #@! TO.C,R3*
X141010000Y-38000000D03*
X141700000Y-38000000D03*
G04 #@! TD*
G04 #@! TO.C,C5*
X162010000Y-39800000D03*
X162700000Y-39800000D03*
G04 #@! TD*
D16*
G04 #@! TO.C,U3*
X156200000Y-41540000D03*
X156700000Y-41540000D03*
X157200000Y-41540000D03*
X157700000Y-41540000D03*
X157700000Y-39100000D03*
X157200000Y-39100000D03*
X156700000Y-39100000D03*
X156200000Y-39100000D03*
G04 #@! TD*
D13*
G04 #@! TO.C,R1*
X137100000Y-40210000D03*
X137100000Y-40900000D03*
G04 #@! TD*
D23*
G04 #@! TO.C,SW1*
X133850000Y-37725000D03*
X133850000Y-33575000D03*
X136000000Y-37725000D03*
X136000000Y-33600000D03*
G04 #@! TD*
D11*
G04 #@! TO.C,R4*
X139700000Y-37990000D03*
X139700000Y-37300000D03*
G04 #@! TD*
D13*
G04 #@! TO.C,C6*
X160000000Y-54010000D03*
X160000000Y-54700000D03*
G04 #@! TD*
G04 #@! TO.C,R2*
X160800000Y-40210000D03*
X160800000Y-40900000D03*
G04 #@! TD*
D11*
G04 #@! TO.C,C3*
X162800000Y-42845000D03*
X162800000Y-42155000D03*
G04 #@! TD*
D29*
G04 #@! TO.C,U1*
X136062500Y-48000000D03*
X136062500Y-49600000D03*
X137662500Y-48000000D03*
X137662500Y-49600000D03*
D30*
X133425000Y-46200000D03*
X133425000Y-46600000D03*
X133425000Y-47000000D03*
X133425000Y-47400000D03*
X133425000Y-47800000D03*
X133425000Y-48200000D03*
X133425000Y-48600000D03*
X133425000Y-49000000D03*
X133425000Y-49400000D03*
X133425000Y-49800000D03*
X133425000Y-50200000D03*
X133425000Y-50600000D03*
X133425000Y-51000000D03*
X133425000Y-51400000D03*
D31*
X134262500Y-52237500D03*
X134662500Y-52237500D03*
X135062500Y-52237500D03*
X135462500Y-52237500D03*
X135862500Y-52237500D03*
X136262500Y-52237500D03*
X136662500Y-52237500D03*
X137062500Y-52237500D03*
X137462500Y-52237500D03*
X137862500Y-52237500D03*
X138262500Y-52237500D03*
X138662500Y-52237500D03*
X139062500Y-52237500D03*
X139462500Y-52237500D03*
D30*
X140300000Y-51400000D03*
X140300000Y-51000000D03*
X140300000Y-50600000D03*
X140300000Y-50200000D03*
X140300000Y-49800000D03*
X140300000Y-49400000D03*
X140300000Y-49000000D03*
X140300000Y-48600000D03*
X140300000Y-48200000D03*
X140300000Y-47800000D03*
X140300000Y-47400000D03*
X140300000Y-47000000D03*
X140300000Y-46600000D03*
X140300000Y-46200000D03*
D31*
X139462500Y-45362500D03*
X139062500Y-45362500D03*
X138662500Y-45362500D03*
X138262500Y-45362500D03*
X137862500Y-45362500D03*
X137462500Y-45362500D03*
X137062500Y-45362500D03*
X136662500Y-45362500D03*
X136262500Y-45362500D03*
X135862500Y-45362500D03*
X135462500Y-45362500D03*
X135062500Y-45362500D03*
X134662500Y-45362500D03*
X134262500Y-45362500D03*
G04 #@! TD*
D16*
G04 #@! TO.C,U5*
X162200000Y-67140000D03*
X162700000Y-67140000D03*
X163200000Y-67140000D03*
X163700000Y-67140000D03*
X163700000Y-64700000D03*
X163200000Y-64700000D03*
X162700000Y-64700000D03*
X162200000Y-64700000D03*
G04 #@! TD*
D15*
G04 #@! TO.C,C12*
X165510000Y-32400000D03*
X166200000Y-32400000D03*
G04 #@! TD*
D11*
G04 #@! TO.C,C10*
X158800000Y-42890000D03*
X158800000Y-42200000D03*
G04 #@! TD*
G04 #@! TO.C,D2*
X132300000Y-31065000D03*
X132300000Y-30375000D03*
G04 #@! TD*
G04 #@! TO.C,C18*
X157390000Y-72140000D03*
X157390000Y-71450000D03*
G04 #@! TD*
D13*
G04 #@! TO.C,C14*
X136600000Y-56310000D03*
X136600000Y-57000000D03*
G04 #@! TD*
D11*
G04 #@! TO.C,C9*
X136500000Y-42890000D03*
X136500000Y-42200000D03*
G04 #@! TD*
D18*
G04 #@! TO.C,J1*
X138360000Y-31650000D03*
X137710000Y-31650000D03*
X137060000Y-31650000D03*
X136410000Y-31650000D03*
X135760000Y-31650000D03*
D19*
X140010000Y-30450000D03*
D20*
X139910000Y-31750000D03*
D21*
X139790000Y-29700000D03*
D22*
X138020000Y-28500000D03*
X136100000Y-28500000D03*
D21*
X134310000Y-29700000D03*
D20*
X134160000Y-31770000D03*
D19*
X134060000Y-30450000D03*
G04 #@! TD*
D13*
G04 #@! TO.C,R5*
X132300000Y-42010000D03*
X132300000Y-42700000D03*
G04 #@! TD*
D15*
G04 #@! TO.C,R3*
X164010000Y-38000000D03*
X164700000Y-38000000D03*
G04 #@! TD*
G04 #@! TO.C,C11*
X140810000Y-41600000D03*
X141500000Y-41600000D03*
G04 #@! TD*
D11*
G04 #@! TO.C,C8*
X140800000Y-44190000D03*
X140800000Y-43500000D03*
G04 #@! TD*
D15*
G04 #@! TO.C,C12*
X142510000Y-32400000D03*
X143200000Y-32400000D03*
G04 #@! TD*
D11*
G04 #@! TO.C,R4*
X162700000Y-37990000D03*
X162700000Y-37300000D03*
G04 #@! TD*
D14*
G04 #@! TO.C,U2*
X143000000Y-34425000D03*
X142050000Y-34425000D03*
X141100000Y-34425000D03*
X141100000Y-36700000D03*
X143000000Y-36700000D03*
G04 #@! TD*
D15*
G04 #@! TO.C,C15*
X133410000Y-58400000D03*
X134100000Y-58400000D03*
G04 #@! TD*
G04 #@! TO.C,C13*
X166110000Y-38100000D03*
X166800000Y-38100000D03*
G04 #@! TD*
D24*
G04 #@! TO.C,U4*
X159612500Y-64200000D03*
X159612500Y-63050000D03*
X159612500Y-61900000D03*
X158462500Y-64200000D03*
X158462500Y-63050000D03*
X158462500Y-61900000D03*
X157312500Y-64200000D03*
X157312500Y-63050000D03*
X157312500Y-61900000D03*
D25*
X160900000Y-64800000D03*
X160900000Y-64300000D03*
X160900000Y-63800000D03*
X160900000Y-63300000D03*
X160900000Y-62800000D03*
X160900000Y-62300000D03*
X160900000Y-61800000D03*
X160900000Y-61300000D03*
D26*
X160212500Y-60612500D03*
X159712500Y-60612500D03*
X159212500Y-60612500D03*
X158712500Y-60612500D03*
X158212500Y-60612500D03*
X157712500Y-60612500D03*
X157212500Y-60612500D03*
X156712500Y-60612500D03*
D25*
X156025000Y-61300000D03*
X156025000Y-61800000D03*
X156025000Y-62300000D03*
X156025000Y-62800000D03*
X156025000Y-63300000D03*
X156025000Y-63800000D03*
X156025000Y-64300000D03*
X156025000Y-64800000D03*
D26*
X156712500Y-65487500D03*
X157212500Y-65487500D03*
X157712500Y-65487500D03*
X158212500Y-65487500D03*
X158712500Y-65487500D03*
X159212500Y-65487500D03*
X159712500Y-65487500D03*
X160212500Y-65487500D03*
G04 #@! TD*
D11*
G04 #@! TO.C,C2*
X162080000Y-42845000D03*
X162080000Y-42155000D03*
G04 #@! TD*
G04 #@! TO.C,C8*
X163800000Y-44190000D03*
X163800000Y-43500000D03*
G04 #@! TD*
D15*
G04 #@! TO.C,C13*
X143110000Y-38100000D03*
X143800000Y-38100000D03*
G04 #@! TD*
G04 #@! TO.C,C17*
X137910000Y-71100000D03*
X138600000Y-71100000D03*
G04 #@! TD*
D13*
G04 #@! TO.C,R2*
X137800000Y-40210000D03*
X137800000Y-40900000D03*
G04 #@! TD*
G04 #@! TO.C,R6*
X132700000Y-37010000D03*
X132700000Y-37700000D03*
G04 #@! TD*
D15*
G04 #@! TO.C,C15*
X156410000Y-58400000D03*
X157100000Y-58400000D03*
G04 #@! TD*
G04 #@! TO.C,C5*
X139010000Y-39800000D03*
X139700000Y-39800000D03*
G04 #@! TD*
D13*
G04 #@! TO.C,R6*
X155700000Y-37010000D03*
X155700000Y-37700000D03*
G04 #@! TD*
D29*
G04 #@! TO.C,U1*
X159062500Y-48000000D03*
X159062500Y-49600000D03*
X160662500Y-48000000D03*
X160662500Y-49600000D03*
D30*
X156425000Y-46200000D03*
X156425000Y-46600000D03*
X156425000Y-47000000D03*
X156425000Y-47400000D03*
X156425000Y-47800000D03*
X156425000Y-48200000D03*
X156425000Y-48600000D03*
X156425000Y-49000000D03*
X156425000Y-49400000D03*
X156425000Y-49800000D03*
X156425000Y-50200000D03*
X156425000Y-50600000D03*
X156425000Y-51000000D03*
X156425000Y-51400000D03*
D31*
X157262500Y-52237500D03*
X157662500Y-52237500D03*
X158062500Y-52237500D03*
X158462500Y-52237500D03*
X158862500Y-52237500D03*
X159262500Y-52237500D03*
X159662500Y-52237500D03*
X160062500Y-52237500D03*
X160462500Y-52237500D03*
X160862500Y-52237500D03*
X161262500Y-52237500D03*
X161662500Y-52237500D03*
X162062500Y-52237500D03*
X162462500Y-52237500D03*
D30*
X163300000Y-51400000D03*
X163300000Y-51000000D03*
X163300000Y-50600000D03*
X163300000Y-50200000D03*
X163300000Y-49800000D03*
X163300000Y-49400000D03*
X163300000Y-49000000D03*
X163300000Y-48600000D03*
X163300000Y-48200000D03*
X163300000Y-47800000D03*
X163300000Y-47400000D03*
X163300000Y-47000000D03*
X163300000Y-46600000D03*
X163300000Y-46200000D03*
D31*
X162462500Y-45362500D03*
X162062500Y-45362500D03*
X161662500Y-45362500D03*
X161262500Y-45362500D03*
X160862500Y-45362500D03*
X160462500Y-45362500D03*
X160062500Y-45362500D03*
X159662500Y-45362500D03*
X159262500Y-45362500D03*
X158862500Y-45362500D03*
X158462500Y-45362500D03*
X158062500Y-45362500D03*
X157662500Y-45362500D03*
X157262500Y-45362500D03*
G04 #@! TD*
D11*
G04 #@! TO.C,C2*
X139080000Y-42845000D03*
X139080000Y-42155000D03*
G04 #@! TD*
M02*
