M48
INCH,TZ
T1C0.0079
T2C0.0118
T3C0.0157
T4C0.0256
T5C0.0276
T6C0.0394
%
G90
G05
T1
X52047Y-12520
X52126Y-24291
X52126Y-24488
X52126Y-24685
X52126Y-24882
X52126Y-25079
X52126Y-25276
X52165Y-17148
X52283Y-12047
X52374Y-20571
X52480Y-16024
X52515Y-26186
X52559Y-21929
X52634Y-28917
X52677Y-13228
X52677Y-15157
X52717Y-14843
X52717Y-26299
X52874Y-15157
X52938Y-24429
X52938Y-24823
X52938Y-25217
X52949Y-27933
X52953Y-14764
X52953Y-22913
X53110Y-15157
X53110Y-16142
X53110Y-21378
X53110Y-26417
X53146Y-28839
X53150Y-15906
X53228Y-23622
X53268Y-12087
X53268Y-17480
X53268Y-22480
X53312Y-26378
X53332Y-24429
X53332Y-24823
X53332Y-25217
X53425Y-17323
X53425Y-23622
X53504Y-16417
X53504Y-18819
X53504Y-19213
X53504Y-19606
X53583Y-17205
X53701Y-16417
X53701Y-27441
X53725Y-24429
X53725Y-24823
X53725Y-25217
X53780Y-17520
X53780Y-23622
X53858Y-22598
X53898Y-18819
X53898Y-19213
X53898Y-19606
X53898Y-21732
X53976Y-23622
X54094Y-20906
X54134Y-26654
X54213Y-27126
X54291Y-18819
X54291Y-19213
X54291Y-19606
X54441Y-16321
X54441Y-17069
X54567Y-25236
X54592Y-20866
X54606Y-14606
X54606Y-17520
X54606Y-26850
X54685Y-13071
X54717Y-17069
X54764Y-26260
X54764Y-27559
X54764Y-27953
X54882Y-25000
X54911Y-15512
X54953Y-17069
X54961Y-26260
X55039Y-14409
X55157Y-25197
X55157Y-26220
X55236Y-13307
X55354Y-25197
X55354Y-27559
X55433Y-16929
X55512Y-25945
X55512Y-26299
X55559Y-19276
X55579Y-19094
X55587Y-19453
X55750Y-19023
X55787Y-16181
X55787Y-17205
X55827Y-12205
X55827Y-13071
X56024Y-12598
X56181Y-13150
X56339Y-12520
X56535Y-12283
X56663Y-19173
X56693Y-14764
X61102Y-12520
X61181Y-24291
X61181Y-24488
X61181Y-24685
X61181Y-24882
X61181Y-25079
X61181Y-25276
X61220Y-17148
X61339Y-12047
X61429Y-20571
X61535Y-16024
X61570Y-26186
X61614Y-21929
X61689Y-28917
X61732Y-13228
X61732Y-15157
X61772Y-14843
X61772Y-26299
X61929Y-15157
X61993Y-24429
X61993Y-24823
X61993Y-25217
X62004Y-27933
X62008Y-14764
X62008Y-22913
X62165Y-15157
X62165Y-16142
X62165Y-21378
X62165Y-26417
X62201Y-28839
X62205Y-15906
X62283Y-23622
X62323Y-12087
X62323Y-17480
X62323Y-22480
X62367Y-26378
X62387Y-24429
X62387Y-24823
X62387Y-25217
X62480Y-17323
X62480Y-23622
X62559Y-16417
X62559Y-18819
X62559Y-19213
X62559Y-19606
X62638Y-17205
X62756Y-16417
X62756Y-27441
X62781Y-24429
X62781Y-24823
X62781Y-25217
X62835Y-17520
X62835Y-23622
X62913Y-22598
X62953Y-18819
X62953Y-19213
X62953Y-19606
X62953Y-21732
X63031Y-23622
X63150Y-20906
X63189Y-26654
X63268Y-27126
X63346Y-18819
X63346Y-19213
X63346Y-19606
X63496Y-16321
X63496Y-17069
X63622Y-25236
X63647Y-20866
X63661Y-14606
X63661Y-17520
X63661Y-26850
X63740Y-13071
X63772Y-17069
X63819Y-26260
X63819Y-27559
X63819Y-27953
X63937Y-25000
X63967Y-15512
X64008Y-17069
X64016Y-26260
X64094Y-14409
X64213Y-25197
X64213Y-26220
X64291Y-13307
X64409Y-25197
X64409Y-27559
X64488Y-16929
X64567Y-25945
X64567Y-26299
X64614Y-19276
X64634Y-19094
X64642Y-19453
X64805Y-19023
X64843Y-16181
X64843Y-17205
X64882Y-12205
X64882Y-13071
X65079Y-12598
X65236Y-13150
X65394Y-12520
X65591Y-12283
X65719Y-19173
X65748Y-14764
T2
X53307Y-14016
X53937Y-12047
X54213Y-12087
X62362Y-14016
X62992Y-12047
X63268Y-12087
T3
X53583Y-11220
X54331Y-11220
X62638Y-11220
X63386Y-11220
T6
X49799Y-11142
X49799Y-12142
X49799Y-13142
X49799Y-14142
X49799Y-15142
X49799Y-16142
X49799Y-17142
X49799Y-18142
X49799Y-19142
X49799Y-20142
X49799Y-21142
X49799Y-22142
X49799Y-23142
X49799Y-24142
X49799Y-25142
X49799Y-26142
X49799Y-27142
X49799Y-28142
X49799Y-29142
X49799Y-30142
X50433Y-11142
X50433Y-12142
X50433Y-13142
X50433Y-14142
X50433Y-15142
X50433Y-16142
X50433Y-17142
X50433Y-18142
X50433Y-19142
X50433Y-20142
X50433Y-21142
X50433Y-22142
X50433Y-23142
X50433Y-24142
X50433Y-25142
X50433Y-26142
X50433Y-27142
X50433Y-28142
X50433Y-29142
X50433Y-30142
X55634Y-22083
X55634Y-23083
X55634Y-24083
X57437Y-11142
X57437Y-12142
X57437Y-13142
X57437Y-14142
X57437Y-15142
X57437Y-16142
X57437Y-17142
X57437Y-18142
X57437Y-19142
X57437Y-20142
X57437Y-21142
X57437Y-22142
X57437Y-23142
X57437Y-24142
X57437Y-25142
X57437Y-26142
X57437Y-27142
X57437Y-28142
X57437Y-29142
X57437Y-30142
X58071Y-11142
X58071Y-12142
X58071Y-13142
X58071Y-14142
X58071Y-15142
X58071Y-16142
X58071Y-17142
X58071Y-18142
X58071Y-19142
X58071Y-20142
X58071Y-21142
X58071Y-22142
X58071Y-23142
X58071Y-24142
X58071Y-25142
X58071Y-26142
X58071Y-27142
X58071Y-28142
X58071Y-29142
X58071Y-30142
X58854Y-11142
X58854Y-12142
X58854Y-13142
X58854Y-14142
X58854Y-15142
X58854Y-16142
X58854Y-17142
X58854Y-18142
X58854Y-19142
X58854Y-20142
X58854Y-21142
X58854Y-22142
X58854Y-23142
X58854Y-24142
X58854Y-25142
X58854Y-26142
X58854Y-27142
X58854Y-28142
X58854Y-29142
X58854Y-30142
X59488Y-11142
X59488Y-12142
X59488Y-13142
X59488Y-14142
X59488Y-15142
X59488Y-16142
X59488Y-17142
X59488Y-18142
X59488Y-19142
X59488Y-20142
X59488Y-21142
X59488Y-22142
X59488Y-23142
X59488Y-24142
X59488Y-25142
X59488Y-26142
X59488Y-27142
X59488Y-28142
X59488Y-29142
X59488Y-30142
X64689Y-22083
X64689Y-23083
X64689Y-24083
X66492Y-11142
X66492Y-12142
X66492Y-13142
X66492Y-14142
X66492Y-15142
X66492Y-16142
X66492Y-17142
X66492Y-18142
X66492Y-19142
X66492Y-20142
X66492Y-21142
X66492Y-22142
X66492Y-23142
X66492Y-24142
X66492Y-25142
X66492Y-26142
X66492Y-27142
X66492Y-28142
X66492Y-29142
X66492Y-30142
X67126Y-11142
X67126Y-12142
X67126Y-13142
X67126Y-14142
X67126Y-15142
X67126Y-16142
X67126Y-17142
X67126Y-18142
X67126Y-19142
X67126Y-20142
X67126Y-21142
X67126Y-22142
X67126Y-23142
X67126Y-24142
X67126Y-25142
X67126Y-26142
X67126Y-27142
X67126Y-28142
X67126Y-29142
X67126Y-30142
T4
G00X53008Y-12429
M15
G01X53008Y-12587
M16
G05
G00X54913Y-12429
M15
G01X54913Y-12587
M16
G05
G00X62063Y-12429
M15
G01X62063Y-12587
M16
G05
G00X63969Y-12429
M15
G01X63969Y-12587
M16
G05
T5
G00X52886Y-11228
M15
G01X52886Y-11425
M16
G05
G00X55035Y-11228
M15
G01X55035Y-11425
M16
G05
G00X61941Y-11228
M15
G01X61941Y-11425
M16
G05
G00X64091Y-11228
M15
G01X64091Y-11425
M16
G05
T0
M30
