%TF.GenerationSoftware,KiCad,Pcbnew,7.0.6*%
%TF.CreationDate,2023-08-25T07:23:27+07:00*%
%TF.ProjectId,Pico2040-Modular-Rev2-MP,5069636f-3230-4343-902d-4d6f64756c61,rev?*%
%TF.SameCoordinates,Original*%
%TF.FileFunction,Paste,Top*%
%TF.FilePolarity,Positive*%
%FSLAX46Y46*%
G04 Gerber Fmt 4.6, Leading zero omitted, Abs format (unit mm)*
G04 Created by KiCad (PCBNEW 7.0.6) date 2023-08-25 07:23:27*
%MOMM*%
%LPD*%
G01*
G04 APERTURE LIST*
G04 Aperture macros list*
%AMRoundRect*
0 Rectangle with rounded corners*
0 $1 Rounding radius*
0 $2 $3 $4 $5 $6 $7 $8 $9 X,Y pos of 4 corners*
0 Add a 4 corners polygon primitive as box body*
4,1,4,$2,$3,$4,$5,$6,$7,$8,$9,$2,$3,0*
0 Add four circle primitives for the rounded corners*
1,1,$1+$1,$2,$3*
1,1,$1+$1,$4,$5*
1,1,$1+$1,$6,$7*
1,1,$1+$1,$8,$9*
0 Add four rect primitives between the rounded corners*
20,1,$1+$1,$2,$3,$4,$5,0*
20,1,$1+$1,$4,$5,$6,$7,0*
20,1,$1+$1,$6,$7,$8,$9,0*
20,1,$1+$1,$8,$9,$2,$3,0*%
G04 Aperture macros list end*
%ADD10C,0.010000*%
%ADD11RoundRect,0.079500X-0.079500X-0.100500X0.079500X-0.100500X0.079500X0.100500X-0.079500X0.100500X0*%
%ADD12RoundRect,0.079500X-0.100500X0.079500X-0.100500X-0.079500X0.100500X-0.079500X0.100500X0.079500X0*%
%ADD13RoundRect,0.079500X0.100500X-0.079500X0.100500X0.079500X-0.100500X0.079500X-0.100500X-0.079500X0*%
%ADD14RoundRect,0.249999X-0.395001X-0.395001X0.395001X-0.395001X0.395001X0.395001X-0.395001X0.395001X0*%
%ADD15RoundRect,0.050000X-0.387500X-0.050000X0.387500X-0.050000X0.387500X0.050000X-0.387500X0.050000X0*%
%ADD16RoundRect,0.050000X-0.050000X-0.387500X0.050000X-0.387500X0.050000X0.387500X-0.050000X0.387500X0*%
%ADD17R,1.150000X1.000000*%
%ADD18RoundRect,0.014000X0.161000X-0.231000X0.161000X0.231000X-0.161000X0.231000X-0.161000X-0.231000X0*%
%ADD19RoundRect,0.150000X-0.150000X0.512500X-0.150000X-0.512500X0.150000X-0.512500X0.150000X0.512500X0*%
%ADD20R,0.400000X1.650000*%
%ADD21R,1.825000X0.700000*%
%ADD22R,2.000000X1.500000*%
%ADD23R,1.350000X2.000000*%
%ADD24R,1.430000X2.500000*%
%ADD25R,0.750000X1.000000*%
G04 APERTURE END LIST*
%TO.C,U3*%
D10*
X90860000Y-41290000D02*
X89840000Y-41290000D01*
X89840000Y-41170000D01*
X90860000Y-41170000D01*
X90860000Y-41290000D01*
G36*
X90860000Y-41290000D02*
G01*
X89840000Y-41290000D01*
X89840000Y-41170000D01*
X90860000Y-41170000D01*
X90860000Y-41290000D01*
G37*
X67860000Y-41290000D02*
X66840000Y-41290000D01*
X66840000Y-41170000D01*
X67860000Y-41170000D01*
X67860000Y-41290000D01*
G36*
X67860000Y-41290000D02*
G01*
X66840000Y-41290000D01*
X66840000Y-41170000D01*
X67860000Y-41170000D01*
X67860000Y-41290000D01*
G37*
X113860000Y-41290000D02*
X112840000Y-41290000D01*
X112840000Y-41170000D01*
X113860000Y-41170000D01*
X113860000Y-41290000D01*
G36*
X113860000Y-41290000D02*
G01*
X112840000Y-41290000D01*
X112840000Y-41170000D01*
X113860000Y-41170000D01*
X113860000Y-41290000D01*
G37*
X136860000Y-41290000D02*
X135840000Y-41290000D01*
X135840000Y-41170000D01*
X136860000Y-41170000D01*
X136860000Y-41290000D01*
G36*
X136860000Y-41290000D02*
G01*
X135840000Y-41290000D01*
X135840000Y-41170000D01*
X136860000Y-41170000D01*
X136860000Y-41290000D01*
G37*
%TD*%
D11*
%TO.C,C7*%
X120035000Y-42450000D03*
X120725000Y-42450000D03*
%TD*%
%TO.C,C13*%
X76385000Y-39850000D03*
X77075000Y-39850000D03*
%TD*%
D12*
%TO.C,C2*%
X118700000Y-53450000D03*
X118700000Y-54140000D03*
%TD*%
D11*
%TO.C,C11*%
X121690000Y-43300000D03*
X122380000Y-43300000D03*
%TD*%
%TO.C,R3*%
X74415000Y-39150000D03*
X75105000Y-39150000D03*
%TD*%
D13*
%TO.C,C4*%
X65650000Y-43690000D03*
X65650000Y-43000000D03*
%TD*%
D11*
%TO.C,C8*%
X121685000Y-40750000D03*
X122375000Y-40750000D03*
%TD*%
%TO.C,C10*%
X121685000Y-42450000D03*
X122375000Y-42450000D03*
%TD*%
D12*
%TO.C,D2*%
X88025000Y-29397500D03*
X88025000Y-30087500D03*
%TD*%
D13*
%TO.C,C12*%
X144375000Y-32075000D03*
X144375000Y-31385000D03*
%TD*%
D12*
%TO.C,R1*%
X117475000Y-41605000D03*
X117475000Y-42295000D03*
%TD*%
%TO.C,R2*%
X118525000Y-41610000D03*
X118525000Y-42300000D03*
%TD*%
D14*
%TO.C,U1*%
X69462500Y-46900000D03*
X69462500Y-48500000D03*
X71062500Y-46900000D03*
X71062500Y-48500000D03*
D15*
X66825000Y-45100000D03*
X66825000Y-45500000D03*
X66825000Y-45900000D03*
X66825000Y-46300000D03*
X66825000Y-46700000D03*
X66825000Y-47100000D03*
X66825000Y-47500000D03*
X66825000Y-47900000D03*
X66825000Y-48300000D03*
X66825000Y-48700000D03*
X66825000Y-49100000D03*
X66825000Y-49500000D03*
X66825000Y-49900000D03*
X66825000Y-50300000D03*
D16*
X67662500Y-51137500D03*
X68062500Y-51137500D03*
X68462500Y-51137500D03*
X68862500Y-51137500D03*
X69262500Y-51137500D03*
X69662500Y-51137500D03*
X70062500Y-51137500D03*
X70462500Y-51137500D03*
X70862500Y-51137500D03*
X71262500Y-51137500D03*
X71662500Y-51137500D03*
X72062500Y-51137500D03*
X72462500Y-51137500D03*
X72862500Y-51137500D03*
D15*
X73700000Y-50300000D03*
X73700000Y-49900000D03*
X73700000Y-49500000D03*
X73700000Y-49100000D03*
X73700000Y-48700000D03*
X73700000Y-48300000D03*
X73700000Y-47900000D03*
X73700000Y-47500000D03*
X73700000Y-47100000D03*
X73700000Y-46700000D03*
X73700000Y-46300000D03*
X73700000Y-45900000D03*
X73700000Y-45500000D03*
X73700000Y-45100000D03*
D16*
X72862500Y-44262500D03*
X72462500Y-44262500D03*
X72062500Y-44262500D03*
X71662500Y-44262500D03*
X71262500Y-44262500D03*
X70862500Y-44262500D03*
X70462500Y-44262500D03*
X70062500Y-44262500D03*
X69662500Y-44262500D03*
X69262500Y-44262500D03*
X68862500Y-44262500D03*
X68462500Y-44262500D03*
X68062500Y-44262500D03*
X67662500Y-44262500D03*
%TD*%
D11*
%TO.C,C9*%
X98685000Y-41600000D03*
X99375000Y-41600000D03*
%TD*%
D12*
%TO.C,R6*%
X111450000Y-41205000D03*
X111450000Y-41895000D03*
%TD*%
D13*
%TO.C,C15*%
X114100000Y-56690000D03*
X114100000Y-56000000D03*
%TD*%
D12*
%TO.C,R1*%
X71475000Y-41605000D03*
X71475000Y-42295000D03*
%TD*%
D11*
%TO.C,C13*%
X99385000Y-39850000D03*
X100075000Y-39850000D03*
%TD*%
D13*
%TO.C,C1*%
X116400000Y-42265000D03*
X116400000Y-41575000D03*
%TD*%
D12*
%TO.C,D2*%
X134025000Y-29397500D03*
X134025000Y-30087500D03*
%TD*%
%TO.C,C14*%
X118950000Y-55405000D03*
X118950000Y-56095000D03*
%TD*%
D13*
%TO.C,R4*%
X142200000Y-38650000D03*
X142200000Y-37960000D03*
%TD*%
D11*
%TO.C,C5*%
X143035000Y-40775000D03*
X143725000Y-40775000D03*
%TD*%
D12*
%TO.C,R1*%
X140475000Y-41605000D03*
X140475000Y-42295000D03*
%TD*%
D11*
%TO.C,R3*%
X143415000Y-39150000D03*
X144105000Y-39150000D03*
%TD*%
%TO.C,C6*%
X74035000Y-41600000D03*
X74725000Y-41600000D03*
%TD*%
D14*
%TO.C,U1*%
X115462500Y-46900000D03*
X115462500Y-48500000D03*
X117062500Y-46900000D03*
X117062500Y-48500000D03*
D15*
X112825000Y-45100000D03*
X112825000Y-45500000D03*
X112825000Y-45900000D03*
X112825000Y-46300000D03*
X112825000Y-46700000D03*
X112825000Y-47100000D03*
X112825000Y-47500000D03*
X112825000Y-47900000D03*
X112825000Y-48300000D03*
X112825000Y-48700000D03*
X112825000Y-49100000D03*
X112825000Y-49500000D03*
X112825000Y-49900000D03*
X112825000Y-50300000D03*
D16*
X113662500Y-51137500D03*
X114062500Y-51137500D03*
X114462500Y-51137500D03*
X114862500Y-51137500D03*
X115262500Y-51137500D03*
X115662500Y-51137500D03*
X116062500Y-51137500D03*
X116462500Y-51137500D03*
X116862500Y-51137500D03*
X117262500Y-51137500D03*
X117662500Y-51137500D03*
X118062500Y-51137500D03*
X118462500Y-51137500D03*
X118862500Y-51137500D03*
D15*
X119700000Y-50300000D03*
X119700000Y-49900000D03*
X119700000Y-49500000D03*
X119700000Y-49100000D03*
X119700000Y-48700000D03*
X119700000Y-48300000D03*
X119700000Y-47900000D03*
X119700000Y-47500000D03*
X119700000Y-47100000D03*
X119700000Y-46700000D03*
X119700000Y-46300000D03*
X119700000Y-45900000D03*
X119700000Y-45500000D03*
X119700000Y-45100000D03*
D16*
X118862500Y-44262500D03*
X118462500Y-44262500D03*
X118062500Y-44262500D03*
X117662500Y-44262500D03*
X117262500Y-44262500D03*
X116862500Y-44262500D03*
X116462500Y-44262500D03*
X116062500Y-44262500D03*
X115662500Y-44262500D03*
X115262500Y-44262500D03*
X114862500Y-44262500D03*
X114462500Y-44262500D03*
X114062500Y-44262500D03*
X113662500Y-44262500D03*
%TD*%
D12*
%TO.C,C3*%
X73950000Y-54450000D03*
X73950000Y-55140000D03*
%TD*%
D11*
%TO.C,C7*%
X74035000Y-42450000D03*
X74725000Y-42450000D03*
%TD*%
D13*
%TO.C,C4*%
X134650000Y-43690000D03*
X134650000Y-43000000D03*
%TD*%
D17*
%TO.C,Y1*%
X138600000Y-56400000D03*
X140350000Y-56400000D03*
X140350000Y-55000000D03*
X138600000Y-55000000D03*
%TD*%
D12*
%TO.C,R6*%
X134450000Y-41205000D03*
X134450000Y-41895000D03*
%TD*%
%TO.C,R2*%
X141525000Y-41610000D03*
X141525000Y-42300000D03*
%TD*%
D11*
%TO.C,C11*%
X75690000Y-43300000D03*
X76380000Y-43300000D03*
%TD*%
D12*
%TO.C,R2*%
X72525000Y-41610000D03*
X72525000Y-42300000D03*
%TD*%
D13*
%TO.C,C12*%
X98375000Y-32075000D03*
X98375000Y-31385000D03*
%TD*%
D18*
%TO.C,U3*%
X89600000Y-42450000D03*
X90100000Y-42450000D03*
X90600000Y-42450000D03*
X91100000Y-42450000D03*
X91100000Y-40010000D03*
X90600000Y-40010000D03*
X90100000Y-40010000D03*
X89600000Y-40010000D03*
%TD*%
D13*
%TO.C,C4*%
X111650000Y-43690000D03*
X111650000Y-43000000D03*
%TD*%
D11*
%TO.C,C13*%
X145385000Y-39850000D03*
X146075000Y-39850000D03*
%TD*%
D12*
%TO.C,C14*%
X95950000Y-55405000D03*
X95950000Y-56095000D03*
%TD*%
%TO.C,R2*%
X95525000Y-41610000D03*
X95525000Y-42300000D03*
%TD*%
D11*
%TO.C,R3*%
X120415000Y-39150000D03*
X121105000Y-39150000D03*
%TD*%
%TO.C,C8*%
X98685000Y-40750000D03*
X99375000Y-40750000D03*
%TD*%
%TO.C,C9*%
X75685000Y-41600000D03*
X76375000Y-41600000D03*
%TD*%
%TO.C,C13*%
X122385000Y-39850000D03*
X123075000Y-39850000D03*
%TD*%
D13*
%TO.C,C15*%
X68100000Y-56690000D03*
X68100000Y-56000000D03*
%TD*%
%TO.C,C1*%
X93400000Y-42265000D03*
X93400000Y-41575000D03*
%TD*%
D14*
%TO.C,U1*%
X138462500Y-46900000D03*
X138462500Y-48500000D03*
X140062500Y-46900000D03*
X140062500Y-48500000D03*
D15*
X135825000Y-45100000D03*
X135825000Y-45500000D03*
X135825000Y-45900000D03*
X135825000Y-46300000D03*
X135825000Y-46700000D03*
X135825000Y-47100000D03*
X135825000Y-47500000D03*
X135825000Y-47900000D03*
X135825000Y-48300000D03*
X135825000Y-48700000D03*
X135825000Y-49100000D03*
X135825000Y-49500000D03*
X135825000Y-49900000D03*
X135825000Y-50300000D03*
D16*
X136662500Y-51137500D03*
X137062500Y-51137500D03*
X137462500Y-51137500D03*
X137862500Y-51137500D03*
X138262500Y-51137500D03*
X138662500Y-51137500D03*
X139062500Y-51137500D03*
X139462500Y-51137500D03*
X139862500Y-51137500D03*
X140262500Y-51137500D03*
X140662500Y-51137500D03*
X141062500Y-51137500D03*
X141462500Y-51137500D03*
X141862500Y-51137500D03*
D15*
X142700000Y-50300000D03*
X142700000Y-49900000D03*
X142700000Y-49500000D03*
X142700000Y-49100000D03*
X142700000Y-48700000D03*
X142700000Y-48300000D03*
X142700000Y-47900000D03*
X142700000Y-47500000D03*
X142700000Y-47100000D03*
X142700000Y-46700000D03*
X142700000Y-46300000D03*
X142700000Y-45900000D03*
X142700000Y-45500000D03*
X142700000Y-45100000D03*
D16*
X141862500Y-44262500D03*
X141462500Y-44262500D03*
X141062500Y-44262500D03*
X140662500Y-44262500D03*
X140262500Y-44262500D03*
X139862500Y-44262500D03*
X139462500Y-44262500D03*
X139062500Y-44262500D03*
X138662500Y-44262500D03*
X138262500Y-44262500D03*
X137862500Y-44262500D03*
X137462500Y-44262500D03*
X137062500Y-44262500D03*
X136662500Y-44262500D03*
%TD*%
D12*
%TO.C,C3*%
X96950000Y-54450000D03*
X96950000Y-55140000D03*
%TD*%
D18*
%TO.C,U3*%
X66600000Y-42450000D03*
X67100000Y-42450000D03*
X67600000Y-42450000D03*
X68100000Y-42450000D03*
X68100000Y-40010000D03*
X67600000Y-40010000D03*
X67100000Y-40010000D03*
X66600000Y-40010000D03*
%TD*%
D11*
%TO.C,R3*%
X97415000Y-39150000D03*
X98105000Y-39150000D03*
%TD*%
D12*
%TO.C,R1*%
X94475000Y-41605000D03*
X94475000Y-42295000D03*
%TD*%
%TO.C,C2*%
X95700000Y-53450000D03*
X95700000Y-54140000D03*
%TD*%
%TO.C,D1*%
X121475000Y-28722500D03*
X121475000Y-29412500D03*
%TD*%
%TO.C,D1*%
X98475000Y-28722500D03*
X98475000Y-29412500D03*
%TD*%
D11*
%TO.C,C11*%
X144690000Y-43300000D03*
X145380000Y-43300000D03*
%TD*%
D13*
%TO.C,R4*%
X119200000Y-38650000D03*
X119200000Y-37960000D03*
%TD*%
D19*
%TO.C,U2*%
X145350000Y-35375000D03*
X144400000Y-35375000D03*
X143450000Y-35375000D03*
X143450000Y-37650000D03*
X145350000Y-37650000D03*
%TD*%
%TO.C,U2*%
X99350000Y-35375000D03*
X98400000Y-35375000D03*
X97450000Y-35375000D03*
X97450000Y-37650000D03*
X99350000Y-37650000D03*
%TD*%
D11*
%TO.C,C10*%
X75685000Y-42450000D03*
X76375000Y-42450000D03*
%TD*%
D13*
%TO.C,C15*%
X91100000Y-56690000D03*
X91100000Y-56000000D03*
%TD*%
D12*
%TO.C,R6*%
X88450000Y-41205000D03*
X88450000Y-41895000D03*
%TD*%
D20*
%TO.C,J1*%
X140730000Y-31580000D03*
X140080000Y-31580000D03*
X139430000Y-31580000D03*
X138780000Y-31580000D03*
X138130000Y-31580000D03*
D21*
X142380000Y-30380000D03*
D22*
X142280000Y-31680000D03*
D23*
X142160000Y-29630000D03*
D24*
X140390000Y-28430000D03*
X138470000Y-28430000D03*
D23*
X136680000Y-29630000D03*
D22*
X136530000Y-31700000D03*
D21*
X136430000Y-30380000D03*
%TD*%
D12*
%TO.C,R5*%
X88050000Y-35755000D03*
X88050000Y-36445000D03*
%TD*%
%TO.C,C14*%
X141950000Y-55405000D03*
X141950000Y-56095000D03*
%TD*%
D11*
%TO.C,C8*%
X144685000Y-40750000D03*
X145375000Y-40750000D03*
%TD*%
%TO.C,C8*%
X75685000Y-40750000D03*
X76375000Y-40750000D03*
%TD*%
%TO.C,C7*%
X143035000Y-42450000D03*
X143725000Y-42450000D03*
%TD*%
D12*
%TO.C,R6*%
X65450000Y-41205000D03*
X65450000Y-41895000D03*
%TD*%
D13*
%TO.C,C12*%
X75375000Y-32075000D03*
X75375000Y-31385000D03*
%TD*%
D11*
%TO.C,C5*%
X97035000Y-40775000D03*
X97725000Y-40775000D03*
%TD*%
D12*
%TO.C,C3*%
X142950000Y-54450000D03*
X142950000Y-55140000D03*
%TD*%
D11*
%TO.C,C6*%
X120035000Y-41600000D03*
X120725000Y-41600000D03*
%TD*%
D13*
%TO.C,C4*%
X88650000Y-43690000D03*
X88650000Y-43000000D03*
%TD*%
%TO.C,R4*%
X73200000Y-38650000D03*
X73200000Y-37960000D03*
%TD*%
D20*
%TO.C,J1*%
X94730000Y-31580000D03*
X94080000Y-31580000D03*
X93430000Y-31580000D03*
X92780000Y-31580000D03*
X92130000Y-31580000D03*
D21*
X96380000Y-30380000D03*
D22*
X96280000Y-31680000D03*
D23*
X96160000Y-29630000D03*
D24*
X94390000Y-28430000D03*
X92470000Y-28430000D03*
D23*
X90680000Y-29630000D03*
D22*
X90530000Y-31700000D03*
D21*
X90430000Y-30380000D03*
%TD*%
D20*
%TO.C,J1*%
X117730000Y-31580000D03*
X117080000Y-31580000D03*
X116430000Y-31580000D03*
X115780000Y-31580000D03*
X115130000Y-31580000D03*
D21*
X119380000Y-30380000D03*
D22*
X119280000Y-31680000D03*
D23*
X119160000Y-29630000D03*
D24*
X117390000Y-28430000D03*
X115470000Y-28430000D03*
D23*
X113680000Y-29630000D03*
D22*
X113530000Y-31700000D03*
D21*
X113430000Y-30380000D03*
%TD*%
D25*
%TO.C,S1*%
X137650000Y-38000000D03*
X137650000Y-33500000D03*
X135500000Y-38000000D03*
X135500000Y-33500000D03*
%TD*%
D11*
%TO.C,C11*%
X98690000Y-43300000D03*
X99380000Y-43300000D03*
%TD*%
D12*
%TO.C,R5*%
X65050000Y-35755000D03*
X65050000Y-36445000D03*
%TD*%
%TO.C,R5*%
X111050000Y-35755000D03*
X111050000Y-36445000D03*
%TD*%
%TO.C,D1*%
X144475000Y-28722500D03*
X144475000Y-29412500D03*
%TD*%
D25*
%TO.C,S1*%
X114650000Y-38000000D03*
X114650000Y-33500000D03*
X112500000Y-38000000D03*
X112500000Y-33500000D03*
%TD*%
D12*
%TO.C,C14*%
X72950000Y-55405000D03*
X72950000Y-56095000D03*
%TD*%
D11*
%TO.C,C5*%
X74035000Y-40775000D03*
X74725000Y-40775000D03*
%TD*%
%TO.C,C10*%
X144685000Y-42450000D03*
X145375000Y-42450000D03*
%TD*%
D13*
%TO.C,C1*%
X139400000Y-42265000D03*
X139400000Y-41575000D03*
%TD*%
D17*
%TO.C,Y1*%
X69600000Y-56400000D03*
X71350000Y-56400000D03*
X71350000Y-55000000D03*
X69600000Y-55000000D03*
%TD*%
D13*
%TO.C,C1*%
X70400000Y-42265000D03*
X70400000Y-41575000D03*
%TD*%
D20*
%TO.C,J1*%
X71730000Y-31580000D03*
X71080000Y-31580000D03*
X70430000Y-31580000D03*
X69780000Y-31580000D03*
X69130000Y-31580000D03*
D21*
X73380000Y-30380000D03*
D22*
X73280000Y-31680000D03*
D23*
X73160000Y-29630000D03*
D24*
X71390000Y-28430000D03*
X69470000Y-28430000D03*
D23*
X67680000Y-29630000D03*
D22*
X67530000Y-31700000D03*
D21*
X67430000Y-30380000D03*
%TD*%
D17*
%TO.C,Y1*%
X92600000Y-56400000D03*
X94350000Y-56400000D03*
X94350000Y-55000000D03*
X92600000Y-55000000D03*
%TD*%
D12*
%TO.C,D2*%
X111025000Y-29397500D03*
X111025000Y-30087500D03*
%TD*%
D11*
%TO.C,C5*%
X120035000Y-40775000D03*
X120725000Y-40775000D03*
%TD*%
D13*
%TO.C,R4*%
X96200000Y-38650000D03*
X96200000Y-37960000D03*
%TD*%
D11*
%TO.C,C6*%
X97035000Y-41600000D03*
X97725000Y-41600000D03*
%TD*%
D12*
%TO.C,D1*%
X75475000Y-28722500D03*
X75475000Y-29412500D03*
%TD*%
%TO.C,C3*%
X119950000Y-54450000D03*
X119950000Y-55140000D03*
%TD*%
%TO.C,R5*%
X134050000Y-35755000D03*
X134050000Y-36445000D03*
%TD*%
%TO.C,C2*%
X72700000Y-53450000D03*
X72700000Y-54140000D03*
%TD*%
%TO.C,D2*%
X65025000Y-29397500D03*
X65025000Y-30087500D03*
%TD*%
D13*
%TO.C,C12*%
X121375000Y-32075000D03*
X121375000Y-31385000D03*
%TD*%
D11*
%TO.C,C10*%
X98685000Y-42450000D03*
X99375000Y-42450000D03*
%TD*%
D12*
%TO.C,C2*%
X141700000Y-53450000D03*
X141700000Y-54140000D03*
%TD*%
D25*
%TO.C,S1*%
X91650000Y-38000000D03*
X91650000Y-33500000D03*
X89500000Y-38000000D03*
X89500000Y-33500000D03*
%TD*%
D19*
%TO.C,U2*%
X122350000Y-35375000D03*
X121400000Y-35375000D03*
X120450000Y-35375000D03*
X120450000Y-37650000D03*
X122350000Y-37650000D03*
%TD*%
D11*
%TO.C,C7*%
X97035000Y-42450000D03*
X97725000Y-42450000D03*
%TD*%
%TO.C,C9*%
X121685000Y-41600000D03*
X122375000Y-41600000D03*
%TD*%
D18*
%TO.C,U3*%
X112600000Y-42450000D03*
X113100000Y-42450000D03*
X113600000Y-42450000D03*
X114100000Y-42450000D03*
X114100000Y-40010000D03*
X113600000Y-40010000D03*
X113100000Y-40010000D03*
X112600000Y-40010000D03*
%TD*%
D17*
%TO.C,Y1*%
X115600000Y-56400000D03*
X117350000Y-56400000D03*
X117350000Y-55000000D03*
X115600000Y-55000000D03*
%TD*%
D25*
%TO.C,S1*%
X68650000Y-38000000D03*
X68650000Y-33500000D03*
X66500000Y-38000000D03*
X66500000Y-33500000D03*
%TD*%
D11*
%TO.C,C6*%
X143035000Y-41600000D03*
X143725000Y-41600000D03*
%TD*%
D18*
%TO.C,U3*%
X135600000Y-42450000D03*
X136100000Y-42450000D03*
X136600000Y-42450000D03*
X137100000Y-42450000D03*
X137100000Y-40010000D03*
X136600000Y-40010000D03*
X136100000Y-40010000D03*
X135600000Y-40010000D03*
%TD*%
D13*
%TO.C,C15*%
X137100000Y-56690000D03*
X137100000Y-56000000D03*
%TD*%
D14*
%TO.C,U1*%
X92462500Y-46900000D03*
X92462500Y-48500000D03*
X94062500Y-46900000D03*
X94062500Y-48500000D03*
D15*
X89825000Y-45100000D03*
X89825000Y-45500000D03*
X89825000Y-45900000D03*
X89825000Y-46300000D03*
X89825000Y-46700000D03*
X89825000Y-47100000D03*
X89825000Y-47500000D03*
X89825000Y-47900000D03*
X89825000Y-48300000D03*
X89825000Y-48700000D03*
X89825000Y-49100000D03*
X89825000Y-49500000D03*
X89825000Y-49900000D03*
X89825000Y-50300000D03*
D16*
X90662500Y-51137500D03*
X91062500Y-51137500D03*
X91462500Y-51137500D03*
X91862500Y-51137500D03*
X92262500Y-51137500D03*
X92662500Y-51137500D03*
X93062500Y-51137500D03*
X93462500Y-51137500D03*
X93862500Y-51137500D03*
X94262500Y-51137500D03*
X94662500Y-51137500D03*
X95062500Y-51137500D03*
X95462500Y-51137500D03*
X95862500Y-51137500D03*
D15*
X96700000Y-50300000D03*
X96700000Y-49900000D03*
X96700000Y-49500000D03*
X96700000Y-49100000D03*
X96700000Y-48700000D03*
X96700000Y-48300000D03*
X96700000Y-47900000D03*
X96700000Y-47500000D03*
X96700000Y-47100000D03*
X96700000Y-46700000D03*
X96700000Y-46300000D03*
X96700000Y-45900000D03*
X96700000Y-45500000D03*
X96700000Y-45100000D03*
D16*
X95862500Y-44262500D03*
X95462500Y-44262500D03*
X95062500Y-44262500D03*
X94662500Y-44262500D03*
X94262500Y-44262500D03*
X93862500Y-44262500D03*
X93462500Y-44262500D03*
X93062500Y-44262500D03*
X92662500Y-44262500D03*
X92262500Y-44262500D03*
X91862500Y-44262500D03*
X91462500Y-44262500D03*
X91062500Y-44262500D03*
X90662500Y-44262500D03*
%TD*%
D19*
%TO.C,U2*%
X76350000Y-35375000D03*
X75400000Y-35375000D03*
X74450000Y-35375000D03*
X74450000Y-37650000D03*
X76350000Y-37650000D03*
%TD*%
D11*
%TO.C,C9*%
X144685000Y-41600000D03*
X145375000Y-41600000D03*
%TD*%
M02*
