%TF.GenerationSoftware,KiCad,Pcbnew,7.0.6*%
%TF.CreationDate,2023-08-25T07:23:32+07:00*%
%TF.ProjectId,Pico2040-Modular-Rev2-MP,5069636f-3230-4343-902d-4d6f64756c61,rev?*%
%TF.SameCoordinates,Original*%
%TF.FileFunction,Soldermask,Bot*%
%TF.FilePolarity,Negative*%
%FSLAX46Y46*%
G04 Gerber Fmt 4.6, Leading zero omitted, Abs format (unit mm)*
G04 Created by KiCad (PCBNEW 7.0.6) date 2023-08-25 07:23:32*
%MOMM*%
%LPD*%
G01*
G04 APERTURE LIST*
%ADD10C,1.000000*%
%ADD11R,3.200000X1.600000*%
%ADD12O,1.700000X1.600000*%
%ADD13C,0.500000*%
%ADD14R,1.700000X1.700000*%
%ADD15O,1.700000X1.700000*%
%ADD16O,1.350000X1.700000*%
%ADD17O,1.100000X1.500000*%
G04 APERTURE END LIST*
D10*
%TO.C,TP3*%
X119600000Y-47100000D03*
%TD*%
%TO.C,TP1*%
X69300000Y-29900000D03*
%TD*%
%TO.C,TP2*%
X117300000Y-29900000D03*
%TD*%
%TO.C,TP3*%
X96600000Y-47100000D03*
%TD*%
%TO.C,TP4*%
X113950000Y-41925000D03*
%TD*%
%TO.C,TP4*%
X67950000Y-41925000D03*
%TD*%
D11*
%TO.C,J3*%
X104010000Y-28300000D03*
D12*
X102400000Y-28300000D03*
D11*
X104010000Y-30840000D03*
D12*
X102400000Y-30840000D03*
D11*
X104010000Y-33380000D03*
D12*
X102400000Y-33380000D03*
D11*
X104010000Y-35920000D03*
D12*
X102400000Y-35920000D03*
D11*
X104010000Y-38460000D03*
D12*
X102400000Y-38460000D03*
D11*
X104010000Y-41000000D03*
D12*
X102400000Y-41000000D03*
D11*
X104010000Y-43540000D03*
D12*
X102400000Y-43540000D03*
D11*
X104010000Y-46080000D03*
D12*
X102400000Y-46080000D03*
D11*
X104010000Y-48620000D03*
D12*
X102400000Y-48620000D03*
D11*
X104010000Y-51160000D03*
D12*
X102400000Y-51160000D03*
D11*
X104010000Y-53700000D03*
D12*
X102400000Y-53700000D03*
D11*
X104010000Y-56240000D03*
D12*
X102400000Y-56240000D03*
D11*
X104010000Y-58780000D03*
D12*
X102400000Y-58780000D03*
D11*
X104010000Y-61320000D03*
D12*
X102400000Y-61320000D03*
D11*
X104010000Y-63860000D03*
D12*
X102400000Y-63860000D03*
D11*
X104010000Y-66400000D03*
D12*
X102400000Y-66400000D03*
D11*
X104010000Y-68940000D03*
D12*
X102400000Y-68940000D03*
D11*
X104010000Y-71480000D03*
D12*
X102400000Y-71480000D03*
D11*
X104010000Y-74020000D03*
D12*
X102400000Y-74020000D03*
D11*
X104010000Y-76560000D03*
D12*
X102400000Y-76560000D03*
%TD*%
D10*
%TO.C,TP4*%
X90950000Y-41925000D03*
%TD*%
%TO.C,TP4*%
X136950000Y-41925000D03*
%TD*%
D11*
%TO.C,J3*%
X81010000Y-28300000D03*
D12*
X79400000Y-28300000D03*
D11*
X81010000Y-30840000D03*
D12*
X79400000Y-30840000D03*
D11*
X81010000Y-33380000D03*
D12*
X79400000Y-33380000D03*
D11*
X81010000Y-35920000D03*
D12*
X79400000Y-35920000D03*
D11*
X81010000Y-38460000D03*
D12*
X79400000Y-38460000D03*
D11*
X81010000Y-41000000D03*
D12*
X79400000Y-41000000D03*
D11*
X81010000Y-43540000D03*
D12*
X79400000Y-43540000D03*
D11*
X81010000Y-46080000D03*
D12*
X79400000Y-46080000D03*
D11*
X81010000Y-48620000D03*
D12*
X79400000Y-48620000D03*
D11*
X81010000Y-51160000D03*
D12*
X79400000Y-51160000D03*
D11*
X81010000Y-53700000D03*
D12*
X79400000Y-53700000D03*
D11*
X81010000Y-56240000D03*
D12*
X79400000Y-56240000D03*
D11*
X81010000Y-58780000D03*
D12*
X79400000Y-58780000D03*
D11*
X81010000Y-61320000D03*
D12*
X79400000Y-61320000D03*
D11*
X81010000Y-63860000D03*
D12*
X79400000Y-63860000D03*
D11*
X81010000Y-66400000D03*
D12*
X79400000Y-66400000D03*
D11*
X81010000Y-68940000D03*
D12*
X79400000Y-68940000D03*
D11*
X81010000Y-71480000D03*
D12*
X79400000Y-71480000D03*
D11*
X81010000Y-74020000D03*
D12*
X79400000Y-74020000D03*
D11*
X81010000Y-76560000D03*
D12*
X79400000Y-76560000D03*
%TD*%
D10*
%TO.C,TP1*%
X115300000Y-29900000D03*
%TD*%
%TO.C,TP3*%
X73600000Y-47100000D03*
%TD*%
%TO.C,TP1*%
X92300000Y-29900000D03*
%TD*%
D11*
%TO.C,J3*%
X127010000Y-28300000D03*
D12*
X125400000Y-28300000D03*
D11*
X127010000Y-30840000D03*
D12*
X125400000Y-30840000D03*
D11*
X127010000Y-33380000D03*
D12*
X125400000Y-33380000D03*
D11*
X127010000Y-35920000D03*
D12*
X125400000Y-35920000D03*
D11*
X127010000Y-38460000D03*
D12*
X125400000Y-38460000D03*
D11*
X127010000Y-41000000D03*
D12*
X125400000Y-41000000D03*
D11*
X127010000Y-43540000D03*
D12*
X125400000Y-43540000D03*
D11*
X127010000Y-46080000D03*
D12*
X125400000Y-46080000D03*
D11*
X127010000Y-48620000D03*
D12*
X125400000Y-48620000D03*
D11*
X127010000Y-51160000D03*
D12*
X125400000Y-51160000D03*
D11*
X127010000Y-53700000D03*
D12*
X125400000Y-53700000D03*
D11*
X127010000Y-56240000D03*
D12*
X125400000Y-56240000D03*
D11*
X127010000Y-58780000D03*
D12*
X125400000Y-58780000D03*
D11*
X127010000Y-61320000D03*
D12*
X125400000Y-61320000D03*
D11*
X127010000Y-63860000D03*
D12*
X125400000Y-63860000D03*
D11*
X127010000Y-66400000D03*
D12*
X125400000Y-66400000D03*
D11*
X127010000Y-68940000D03*
D12*
X125400000Y-68940000D03*
D11*
X127010000Y-71480000D03*
D12*
X125400000Y-71480000D03*
D11*
X127010000Y-74020000D03*
D12*
X125400000Y-74020000D03*
D11*
X127010000Y-76560000D03*
D12*
X125400000Y-76560000D03*
%TD*%
D10*
%TO.C,TP3*%
X142600000Y-47100000D03*
%TD*%
%TO.C,TP2*%
X140300000Y-29900000D03*
%TD*%
%TO.C,TP2*%
X71300000Y-29900000D03*
%TD*%
%TO.C,TP1*%
X138300000Y-29900000D03*
%TD*%
%TO.C,TP2*%
X94300000Y-29900000D03*
%TD*%
D11*
%TO.C,J3*%
X150010000Y-28300000D03*
D12*
X148400000Y-28300000D03*
D11*
X150010000Y-30840000D03*
D12*
X148400000Y-30840000D03*
D11*
X150010000Y-33380000D03*
D12*
X148400000Y-33380000D03*
D11*
X150010000Y-35920000D03*
D12*
X148400000Y-35920000D03*
D11*
X150010000Y-38460000D03*
D12*
X148400000Y-38460000D03*
D11*
X150010000Y-41000000D03*
D12*
X148400000Y-41000000D03*
D11*
X150010000Y-43540000D03*
D12*
X148400000Y-43540000D03*
D11*
X150010000Y-46080000D03*
D12*
X148400000Y-46080000D03*
D11*
X150010000Y-48620000D03*
D12*
X148400000Y-48620000D03*
D11*
X150010000Y-51160000D03*
D12*
X148400000Y-51160000D03*
D11*
X150010000Y-53700000D03*
D12*
X148400000Y-53700000D03*
D11*
X150010000Y-56240000D03*
D12*
X148400000Y-56240000D03*
D11*
X150010000Y-58780000D03*
D12*
X148400000Y-58780000D03*
D11*
X150010000Y-61320000D03*
D12*
X148400000Y-61320000D03*
D11*
X150010000Y-63860000D03*
D12*
X148400000Y-63860000D03*
D11*
X150010000Y-66400000D03*
D12*
X148400000Y-66400000D03*
D11*
X150010000Y-68940000D03*
D12*
X148400000Y-68940000D03*
D11*
X150010000Y-71480000D03*
D12*
X148400000Y-71480000D03*
D11*
X150010000Y-74020000D03*
D12*
X148400000Y-74020000D03*
D11*
X150010000Y-76560000D03*
D12*
X148400000Y-76560000D03*
%TD*%
D13*
%TO.C,REF\u002A\u002A*%
X138000000Y-27000000D03*
%TD*%
%TO.C,REF\u002A\u002A*%
X106000000Y-56100000D03*
%TD*%
%TO.C,REF\u002A\u002A*%
X141000000Y-78000000D03*
%TD*%
%TO.C,REF\u002A\u002A*%
X95000000Y-78000000D03*
%TD*%
%TO.C,REF\u002A\u002A*%
X140000000Y-27000000D03*
%TD*%
%TO.C,REF\u002A\u002A*%
X69000000Y-27000000D03*
%TD*%
%TO.C,REF\u002A\u002A*%
X129000000Y-66300000D03*
%TD*%
%TO.C,REF\u002A\u002A*%
X83000000Y-56100000D03*
%TD*%
%TO.C,REF\u002A\u002A*%
X72000000Y-27000000D03*
%TD*%
%TO.C,REF\u002A\u002A*%
X81000000Y-66300000D03*
%TD*%
%TO.C,REF\u002A\u002A*%
X72000000Y-78000000D03*
%TD*%
D14*
%TO.C,J4*%
X137325000Y-76125000D03*
D15*
X139865000Y-76125000D03*
X142405000Y-76125000D03*
%TD*%
D13*
%TO.C,REF\u002A\u002A*%
X115000000Y-27000000D03*
%TD*%
%TO.C,REF\u002A\u002A*%
X116000000Y-78000000D03*
%TD*%
%TO.C,REF\u002A\u002A*%
X83000000Y-66300000D03*
%TD*%
%TO.C,REF\u002A\u002A*%
X104000000Y-66300000D03*
%TD*%
D11*
%TO.C,J2*%
X59990000Y-28300000D03*
D12*
X61600000Y-28300000D03*
D11*
X59990000Y-30840000D03*
D12*
X61600000Y-30840000D03*
D11*
X59990000Y-33380000D03*
D12*
X61600000Y-33380000D03*
D11*
X59990000Y-35920000D03*
D12*
X61600000Y-35920000D03*
D11*
X59990000Y-38460000D03*
D12*
X61600000Y-38460000D03*
D11*
X59990000Y-41000000D03*
D12*
X61600000Y-41000000D03*
D11*
X59990000Y-43540000D03*
D12*
X61600000Y-43540000D03*
D11*
X59990000Y-46080000D03*
D12*
X61600000Y-46080000D03*
D11*
X59990000Y-48620000D03*
D12*
X61600000Y-48620000D03*
D11*
X59990000Y-51160000D03*
D12*
X61600000Y-51160000D03*
D11*
X59990000Y-53700000D03*
D12*
X61600000Y-53700000D03*
D11*
X59990000Y-56240000D03*
D12*
X61600000Y-56240000D03*
D11*
X59990000Y-58780000D03*
D12*
X61600000Y-58780000D03*
D11*
X59990000Y-61320000D03*
D12*
X61600000Y-61320000D03*
D11*
X59990000Y-63860000D03*
D12*
X61600000Y-63860000D03*
D11*
X59990000Y-66400000D03*
D12*
X61600000Y-66400000D03*
D11*
X59990000Y-68940000D03*
D12*
X61600000Y-68940000D03*
D11*
X59990000Y-71480000D03*
D12*
X61600000Y-71480000D03*
D11*
X59990000Y-74020000D03*
D12*
X61600000Y-74020000D03*
D11*
X59990000Y-76560000D03*
D12*
X61600000Y-76560000D03*
%TD*%
D14*
%TO.C,J4*%
X68325000Y-76125000D03*
D15*
X70865000Y-76125000D03*
X73405000Y-76125000D03*
%TD*%
D13*
%TO.C,REF\u002A\u002A*%
X117000000Y-27000000D03*
%TD*%
%TO.C,REF\u002A\u002A*%
X138000000Y-78000000D03*
%TD*%
%TO.C,REF\u002A\u002A*%
X127000000Y-56100000D03*
%TD*%
%TO.C,REF\u002A\u002A*%
X127000000Y-66300000D03*
%TD*%
%TO.C,REF\u002A\u002A*%
X104000000Y-56100000D03*
%TD*%
%TO.C,REF\u002A\u002A*%
X139000000Y-27000000D03*
%TD*%
%TO.C,REF\u002A\u002A*%
X81000000Y-56100000D03*
%TD*%
%TO.C,REF\u002A\u002A*%
X71000000Y-27000000D03*
%TD*%
D14*
%TO.C,J4*%
X114325000Y-76125000D03*
D15*
X116865000Y-76125000D03*
X119405000Y-76125000D03*
%TD*%
D13*
%TO.C,REF\u002A\u002A*%
X70000000Y-27000000D03*
%TD*%
%TO.C,REF\u002A\u002A*%
X118000000Y-78000000D03*
%TD*%
%TO.C,REF\u002A\u002A*%
X104000000Y-45900000D03*
%TD*%
%TO.C,REF\u002A\u002A*%
X106000000Y-35700000D03*
%TD*%
%TO.C,REF\u002A\u002A*%
X94000000Y-78000000D03*
%TD*%
%TO.C,REF\u002A\u002A*%
X139000000Y-78000000D03*
%TD*%
%TO.C,REF\u002A\u002A*%
X70000000Y-78000000D03*
%TD*%
%TO.C,REF\u002A\u002A*%
X69000000Y-78000000D03*
%TD*%
%TO.C,REF\u002A\u002A*%
X116000000Y-27000000D03*
%TD*%
D16*
%TO.C,J1*%
X142160000Y-28700000D03*
D17*
X141850000Y-31700000D03*
X137010000Y-31700000D03*
D16*
X136700000Y-28700000D03*
%TD*%
D11*
%TO.C,J2*%
X128990000Y-28300000D03*
D12*
X130600000Y-28300000D03*
D11*
X128990000Y-30840000D03*
D12*
X130600000Y-30840000D03*
D11*
X128990000Y-33380000D03*
D12*
X130600000Y-33380000D03*
D11*
X128990000Y-35920000D03*
D12*
X130600000Y-35920000D03*
D11*
X128990000Y-38460000D03*
D12*
X130600000Y-38460000D03*
D11*
X128990000Y-41000000D03*
D12*
X130600000Y-41000000D03*
D11*
X128990000Y-43540000D03*
D12*
X130600000Y-43540000D03*
D11*
X128990000Y-46080000D03*
D12*
X130600000Y-46080000D03*
D11*
X128990000Y-48620000D03*
D12*
X130600000Y-48620000D03*
D11*
X128990000Y-51160000D03*
D12*
X130600000Y-51160000D03*
D11*
X128990000Y-53700000D03*
D12*
X130600000Y-53700000D03*
D11*
X128990000Y-56240000D03*
D12*
X130600000Y-56240000D03*
D11*
X128990000Y-58780000D03*
D12*
X130600000Y-58780000D03*
D11*
X128990000Y-61320000D03*
D12*
X130600000Y-61320000D03*
D11*
X128990000Y-63860000D03*
D12*
X130600000Y-63860000D03*
D11*
X128990000Y-66400000D03*
D12*
X130600000Y-66400000D03*
D11*
X128990000Y-68940000D03*
D12*
X130600000Y-68940000D03*
D11*
X128990000Y-71480000D03*
D12*
X130600000Y-71480000D03*
D11*
X128990000Y-74020000D03*
D12*
X130600000Y-74020000D03*
D11*
X128990000Y-76560000D03*
D12*
X130600000Y-76560000D03*
%TD*%
D13*
%TO.C,REF\u002A\u002A*%
X104000000Y-35700000D03*
%TD*%
%TO.C,REF\u002A\u002A*%
X129000000Y-56100000D03*
%TD*%
%TO.C,REF\u002A\u002A*%
X141000000Y-27000000D03*
%TD*%
%TO.C,REF\u002A\u002A*%
X95000000Y-27000000D03*
%TD*%
%TO.C,REF\u002A\u002A*%
X127000000Y-45900000D03*
%TD*%
%TO.C,REF\u002A\u002A*%
X93000000Y-78000000D03*
%TD*%
%TO.C,REF\u002A\u002A*%
X127000000Y-35700000D03*
%TD*%
%TO.C,REF\u002A\u002A*%
X127000000Y-57100000D03*
%TD*%
D16*
%TO.C,J1*%
X96160000Y-28700000D03*
D17*
X95850000Y-31700000D03*
X91010000Y-31700000D03*
D16*
X90700000Y-28700000D03*
%TD*%
%TO.C,J1*%
X119160000Y-28700000D03*
D17*
X118850000Y-31700000D03*
X114010000Y-31700000D03*
D16*
X113700000Y-28700000D03*
%TD*%
D11*
%TO.C,J2*%
X82990000Y-28300000D03*
D12*
X84600000Y-28300000D03*
D11*
X82990000Y-30840000D03*
D12*
X84600000Y-30840000D03*
D11*
X82990000Y-33380000D03*
D12*
X84600000Y-33380000D03*
D11*
X82990000Y-35920000D03*
D12*
X84600000Y-35920000D03*
D11*
X82990000Y-38460000D03*
D12*
X84600000Y-38460000D03*
D11*
X82990000Y-41000000D03*
D12*
X84600000Y-41000000D03*
D11*
X82990000Y-43540000D03*
D12*
X84600000Y-43540000D03*
D11*
X82990000Y-46080000D03*
D12*
X84600000Y-46080000D03*
D11*
X82990000Y-48620000D03*
D12*
X84600000Y-48620000D03*
D11*
X82990000Y-51160000D03*
D12*
X84600000Y-51160000D03*
D11*
X82990000Y-53700000D03*
D12*
X84600000Y-53700000D03*
D11*
X82990000Y-56240000D03*
D12*
X84600000Y-56240000D03*
D11*
X82990000Y-58780000D03*
D12*
X84600000Y-58780000D03*
D11*
X82990000Y-61320000D03*
D12*
X84600000Y-61320000D03*
D11*
X82990000Y-63860000D03*
D12*
X84600000Y-63860000D03*
D11*
X82990000Y-66400000D03*
D12*
X84600000Y-66400000D03*
D11*
X82990000Y-68940000D03*
D12*
X84600000Y-68940000D03*
D11*
X82990000Y-71480000D03*
D12*
X84600000Y-71480000D03*
D11*
X82990000Y-74020000D03*
D12*
X84600000Y-74020000D03*
D11*
X82990000Y-76560000D03*
D12*
X84600000Y-76560000D03*
%TD*%
D11*
%TO.C,J2*%
X105990000Y-28300000D03*
D12*
X107600000Y-28300000D03*
D11*
X105990000Y-30840000D03*
D12*
X107600000Y-30840000D03*
D11*
X105990000Y-33380000D03*
D12*
X107600000Y-33380000D03*
D11*
X105990000Y-35920000D03*
D12*
X107600000Y-35920000D03*
D11*
X105990000Y-38460000D03*
D12*
X107600000Y-38460000D03*
D11*
X105990000Y-41000000D03*
D12*
X107600000Y-41000000D03*
D11*
X105990000Y-43540000D03*
D12*
X107600000Y-43540000D03*
D11*
X105990000Y-46080000D03*
D12*
X107600000Y-46080000D03*
D11*
X105990000Y-48620000D03*
D12*
X107600000Y-48620000D03*
D11*
X105990000Y-51160000D03*
D12*
X107600000Y-51160000D03*
D11*
X105990000Y-53700000D03*
D12*
X107600000Y-53700000D03*
D11*
X105990000Y-56240000D03*
D12*
X107600000Y-56240000D03*
D11*
X105990000Y-58780000D03*
D12*
X107600000Y-58780000D03*
D11*
X105990000Y-61320000D03*
D12*
X107600000Y-61320000D03*
D11*
X105990000Y-63860000D03*
D12*
X107600000Y-63860000D03*
D11*
X105990000Y-66400000D03*
D12*
X107600000Y-66400000D03*
D11*
X105990000Y-68940000D03*
D12*
X107600000Y-68940000D03*
D11*
X105990000Y-71480000D03*
D12*
X107600000Y-71480000D03*
D11*
X105990000Y-74020000D03*
D12*
X107600000Y-74020000D03*
D11*
X105990000Y-76560000D03*
D12*
X107600000Y-76560000D03*
%TD*%
D16*
%TO.C,J1*%
X73160000Y-28700000D03*
D17*
X72850000Y-31700000D03*
X68010000Y-31700000D03*
D16*
X67700000Y-28700000D03*
%TD*%
D13*
%TO.C,REF\u002A\u002A*%
X93000000Y-27000000D03*
%TD*%
%TO.C,REF\u002A\u002A*%
X71000000Y-78000000D03*
%TD*%
%TO.C,REF\u002A\u002A*%
X115000000Y-78000000D03*
%TD*%
%TO.C,REF\u002A\u002A*%
X81000000Y-45900000D03*
%TD*%
%TO.C,REF\u002A\u002A*%
X118000000Y-27000000D03*
%TD*%
%TO.C,REF\u002A\u002A*%
X81000000Y-35700000D03*
%TD*%
%TO.C,REF\u002A\u002A*%
X117000000Y-78000000D03*
%TD*%
%TO.C,REF\u002A\u002A*%
X92000000Y-27000000D03*
%TD*%
%TO.C,REF\u002A\u002A*%
X83000000Y-45900000D03*
%TD*%
D14*
%TO.C,J4*%
X91325000Y-76125000D03*
D15*
X93865000Y-76125000D03*
X96405000Y-76125000D03*
%TD*%
D13*
%TO.C,REF\u002A\u002A*%
X94000000Y-27000000D03*
%TD*%
%TO.C,REF\u002A\u002A*%
X129000000Y-45900000D03*
%TD*%
%TO.C,REF\u002A\u002A*%
X140000000Y-78000000D03*
%TD*%
%TO.C,REF\u002A\u002A*%
X129000000Y-35700000D03*
%TD*%
%TO.C,REF\u002A\u002A*%
X106000000Y-66300000D03*
%TD*%
%TO.C,REF\u002A\u002A*%
X106000000Y-45900000D03*
%TD*%
%TO.C,REF\u002A\u002A*%
X92000000Y-78000000D03*
%TD*%
%TO.C,REF\u002A\u002A*%
X83000000Y-35700000D03*
%TD*%
M02*
