M48
INCH,TZ
T1C0.0197
%
G90
G05
T1
X27165Y-10630
X27165Y-30709
X27559Y-10630
X27559Y-30709
X27953Y-10630
X27953Y-30709
X28346Y-10630
X28346Y-30709
X31890Y-14055
X31890Y-18071
X31890Y-22087
X31890Y-26102
X32677Y-14055
X32677Y-18071
X32677Y-22087
X32677Y-26102
X36220Y-10630
X36220Y-30709
X36614Y-10630
X36614Y-30709
X37008Y-10630
X37008Y-30709
X37402Y-10630
X37402Y-30709
X40945Y-14055
X40945Y-18071
X40945Y-22087
X40945Y-26102
X41732Y-14055
X41732Y-18071
X41732Y-22087
X41732Y-26102
X45276Y-10630
X45276Y-30709
X45669Y-10630
X45669Y-30709
X46063Y-10630
X46063Y-30709
X46457Y-10630
X46457Y-30709
X50000Y-14055
X50000Y-18071
X50000Y-22087
X50000Y-22480
X50000Y-26102
X50787Y-14055
X50787Y-18071
X50787Y-22087
X50787Y-26102
X54331Y-10630
X54331Y-30709
X54724Y-10630
X54724Y-30709
X55118Y-10630
X55118Y-30709
X55512Y-10630
X55512Y-30709
T0
M30
