M48
INCH,TZ
T1C0.0118
T2C0.0256
T3C0.0276
T4C0.0394
%
G90
G05
T1
X25134Y-11039
X25610Y-13858
X25669Y-12559
X25669Y-16850
X25709Y-14646
X25929Y-11028
X25953Y-30169
X26102Y-15492
X26116Y-16449
X26339Y-27992
X26358Y-16063
X26378Y-24094
X26421Y-23469
X26673Y-14331
X27165Y-18287
X27165Y-18799
X27165Y-19272
X27175Y-20827
X27283Y-11862
X27390Y-11232
X27402Y-21673
X27528Y-23850
X27677Y-16339
X27697Y-18287
X27697Y-18799
X27697Y-19272
X27795Y-16772
X27913Y-21043
X28055Y-11220
X28071Y-11862
X28140Y-28199
X28228Y-20866
X28313Y-20520
X28450Y-17064
X28651Y-19738
X28819Y-14734
X28829Y-15856
X28874Y-16827
X29429Y-23350
X29445Y-27319
X29528Y-15906
X29695Y-14035
X29764Y-18819
X30059Y-15354
X30472Y-15039
X30669Y-16476
X34189Y-11039
X34665Y-13858
X34724Y-12559
X34724Y-16850
X34764Y-14646
X34984Y-11028
X35008Y-30169
X35157Y-15492
X35171Y-16449
X35394Y-27992
X35413Y-16063
X35433Y-24094
X35476Y-23469
X35728Y-14331
X36220Y-18287
X36220Y-18799
X36220Y-19272
X36230Y-20827
X36339Y-11862
X36445Y-11232
X36457Y-21673
X36583Y-23850
X36732Y-16339
X36752Y-18287
X36752Y-18799
X36752Y-19272
X36850Y-16772
X36969Y-21043
X37110Y-11220
X37126Y-11862
X37195Y-28199
X37283Y-20866
X37368Y-20520
X37505Y-17064
X37706Y-19738
X37874Y-14734
X37884Y-15856
X37929Y-16827
X38484Y-23350
X38500Y-27319
X38583Y-15906
X38750Y-14035
X38819Y-18819
X39114Y-15354
X39528Y-15039
X39724Y-16476
X43244Y-11039
X43720Y-13858
X43780Y-12559
X43780Y-16850
X43819Y-14646
X44039Y-11028
X44063Y-30169
X44213Y-15492
X44226Y-16449
X44449Y-27992
X44469Y-16063
X44488Y-24094
X44531Y-23469
X44783Y-14331
X45276Y-18287
X45276Y-18799
X45276Y-19272
X45285Y-20827
X45394Y-11862
X45500Y-11232
X45512Y-21673
X45638Y-23850
X45787Y-16339
X45807Y-18287
X45807Y-18799
X45807Y-19272
X45906Y-16772
X46024Y-21043
X46165Y-11220
X46181Y-11862
X46250Y-28199
X46339Y-20866
X46423Y-20520
X46560Y-17064
X46762Y-19738
X46929Y-14734
X46939Y-15856
X46984Y-16827
X47539Y-23350
X47555Y-27319
X47638Y-15906
X47805Y-14035
X47874Y-18819
X48169Y-15354
X48583Y-15039
X48780Y-16476
X52299Y-11039
X52776Y-13858
X52835Y-12559
X52835Y-16850
X52874Y-14646
X53094Y-11028
X53118Y-30169
X53268Y-15492
X53281Y-16449
X53504Y-27992
X53524Y-16063
X53543Y-24094
X53587Y-23469
X53839Y-14331
X54331Y-18287
X54331Y-18799
X54331Y-19272
X54341Y-20827
X54449Y-11862
X54555Y-11232
X54567Y-21673
X54693Y-23850
X54843Y-16339
X54862Y-18287
X54862Y-18799
X54862Y-19272
X54961Y-16772
X55079Y-21043
X55220Y-11220
X55236Y-11862
X55305Y-28199
X55394Y-20866
X55478Y-20520
X55615Y-17064
X55817Y-19738
X55984Y-14734
X55994Y-15856
X56039Y-16827
X56594Y-23350
X56610Y-27319
X56693Y-15906
X56860Y-14035
X56929Y-18819
X57224Y-15354
X57638Y-15039
X57835Y-16476
T4
X23618Y-11142
X23618Y-12142
X23618Y-13142
X23618Y-14142
X23618Y-15142
X23618Y-16142
X23618Y-17142
X23618Y-18142
X23618Y-19142
X23618Y-20142
X23618Y-21142
X23618Y-22142
X23618Y-23142
X23618Y-24142
X23618Y-25142
X23618Y-26142
X23618Y-27142
X23618Y-28142
X23618Y-29142
X23618Y-30142
X24252Y-11142
X24252Y-12142
X24252Y-13142
X24252Y-14142
X24252Y-15142
X24252Y-16142
X24252Y-17142
X24252Y-18142
X24252Y-19142
X24252Y-20142
X24252Y-21142
X24252Y-22142
X24252Y-23142
X24252Y-24142
X24252Y-25142
X24252Y-26142
X24252Y-27142
X24252Y-28142
X24252Y-29142
X24252Y-30142
X26900Y-29970
X27900Y-29970
X28900Y-29970
X31260Y-11142
X31260Y-12142
X31260Y-13142
X31260Y-14142
X31260Y-15142
X31260Y-16142
X31260Y-17142
X31260Y-18142
X31260Y-19142
X31260Y-20142
X31260Y-21142
X31260Y-22142
X31260Y-23142
X31260Y-24142
X31260Y-25142
X31260Y-26142
X31260Y-27142
X31260Y-28142
X31260Y-29142
X31260Y-30142
X31894Y-11142
X31894Y-12142
X31894Y-13142
X31894Y-14142
X31894Y-15142
X31894Y-16142
X31894Y-17142
X31894Y-18142
X31894Y-19142
X31894Y-20142
X31894Y-21142
X31894Y-22142
X31894Y-23142
X31894Y-24142
X31894Y-25142
X31894Y-26142
X31894Y-27142
X31894Y-28142
X31894Y-29142
X31894Y-30142
X32673Y-11142
X32673Y-12142
X32673Y-13142
X32673Y-14142
X32673Y-15142
X32673Y-16142
X32673Y-17142
X32673Y-18142
X32673Y-19142
X32673Y-20142
X32673Y-21142
X32673Y-22142
X32673Y-23142
X32673Y-24142
X32673Y-25142
X32673Y-26142
X32673Y-27142
X32673Y-28142
X32673Y-29142
X32673Y-30142
X33307Y-11142
X33307Y-12142
X33307Y-13142
X33307Y-14142
X33307Y-15142
X33307Y-16142
X33307Y-17142
X33307Y-18142
X33307Y-19142
X33307Y-20142
X33307Y-21142
X33307Y-22142
X33307Y-23142
X33307Y-24142
X33307Y-25142
X33307Y-26142
X33307Y-27142
X33307Y-28142
X33307Y-29142
X33307Y-30142
X35955Y-29970
X36955Y-29970
X37955Y-29970
X40315Y-11142
X40315Y-12142
X40315Y-13142
X40315Y-14142
X40315Y-15142
X40315Y-16142
X40315Y-17142
X40315Y-18142
X40315Y-19142
X40315Y-20142
X40315Y-21142
X40315Y-22142
X40315Y-23142
X40315Y-24142
X40315Y-25142
X40315Y-26142
X40315Y-27142
X40315Y-28142
X40315Y-29142
X40315Y-30142
X40949Y-11142
X40949Y-12142
X40949Y-13142
X40949Y-14142
X40949Y-15142
X40949Y-16142
X40949Y-17142
X40949Y-18142
X40949Y-19142
X40949Y-20142
X40949Y-21142
X40949Y-22142
X40949Y-23142
X40949Y-24142
X40949Y-25142
X40949Y-26142
X40949Y-27142
X40949Y-28142
X40949Y-29142
X40949Y-30142
X41728Y-11142
X41728Y-12142
X41728Y-13142
X41728Y-14142
X41728Y-15142
X41728Y-16142
X41728Y-17142
X41728Y-18142
X41728Y-19142
X41728Y-20142
X41728Y-21142
X41728Y-22142
X41728Y-23142
X41728Y-24142
X41728Y-25142
X41728Y-26142
X41728Y-27142
X41728Y-28142
X41728Y-29142
X41728Y-30142
X42362Y-11142
X42362Y-12142
X42362Y-13142
X42362Y-14142
X42362Y-15142
X42362Y-16142
X42362Y-17142
X42362Y-18142
X42362Y-19142
X42362Y-20142
X42362Y-21142
X42362Y-22142
X42362Y-23142
X42362Y-24142
X42362Y-25142
X42362Y-26142
X42362Y-27142
X42362Y-28142
X42362Y-29142
X42362Y-30142
X45010Y-29970
X46010Y-29970
X47010Y-29970
X49370Y-11142
X49370Y-12142
X49370Y-13142
X49370Y-14142
X49370Y-15142
X49370Y-16142
X49370Y-17142
X49370Y-18142
X49370Y-19142
X49370Y-20142
X49370Y-21142
X49370Y-22142
X49370Y-23142
X49370Y-24142
X49370Y-25142
X49370Y-26142
X49370Y-27142
X49370Y-28142
X49370Y-29142
X49370Y-30142
X50004Y-11142
X50004Y-12142
X50004Y-13142
X50004Y-14142
X50004Y-15142
X50004Y-16142
X50004Y-17142
X50004Y-18142
X50004Y-19142
X50004Y-20142
X50004Y-21142
X50004Y-22142
X50004Y-23142
X50004Y-24142
X50004Y-25142
X50004Y-26142
X50004Y-27142
X50004Y-28142
X50004Y-29142
X50004Y-30142
X50783Y-11142
X50783Y-12142
X50783Y-13142
X50783Y-14142
X50783Y-15142
X50783Y-16142
X50783Y-17142
X50783Y-18142
X50783Y-19142
X50783Y-20142
X50783Y-21142
X50783Y-22142
X50783Y-23142
X50783Y-24142
X50783Y-25142
X50783Y-26142
X50783Y-27142
X50783Y-28142
X50783Y-29142
X50783Y-30142
X51417Y-11142
X51417Y-12142
X51417Y-13142
X51417Y-14142
X51417Y-15142
X51417Y-16142
X51417Y-17142
X51417Y-18142
X51417Y-19142
X51417Y-20142
X51417Y-21142
X51417Y-22142
X51417Y-23142
X51417Y-24142
X51417Y-25142
X51417Y-26142
X51417Y-27142
X51417Y-28142
X51417Y-29142
X51417Y-30142
X54065Y-29970
X55065Y-29970
X56065Y-29970
X58425Y-11142
X58425Y-12142
X58425Y-13142
X58425Y-14142
X58425Y-15142
X58425Y-16142
X58425Y-17142
X58425Y-18142
X58425Y-19142
X58425Y-20142
X58425Y-21142
X58425Y-22142
X58425Y-23142
X58425Y-24142
X58425Y-25142
X58425Y-26142
X58425Y-27142
X58425Y-28142
X58425Y-29142
X58425Y-30142
X59059Y-11142
X59059Y-12142
X59059Y-13142
X59059Y-14142
X59059Y-15142
X59059Y-16142
X59059Y-17142
X59059Y-18142
X59059Y-19142
X59059Y-20142
X59059Y-21142
X59059Y-22142
X59059Y-23142
X59059Y-24142
X59059Y-25142
X59059Y-26142
X59059Y-27142
X59059Y-28142
X59059Y-29142
X59059Y-30142
T2
G00X26776Y-12402
M15
G01X26776Y-12559
M16
G05
G00X28681Y-12402
M15
G01X28681Y-12559
M16
G05
G00X35831Y-12402
M15
G01X35831Y-12559
M16
G05
G00X37736Y-12402
M15
G01X37736Y-12559
M16
G05
G00X44886Y-12402
M15
G01X44886Y-12559
M16
G05
G00X46791Y-12402
M15
G01X46791Y-12559
M16
G05
G00X53941Y-12402
M15
G01X53941Y-12559
M16
G05
G00X55846Y-12402
M15
G01X55846Y-12559
M16
G05
T3
G00X26654Y-11201
M15
G01X26654Y-11398
M16
G05
G00X28803Y-11201
M15
G01X28803Y-11398
M16
G05
G00X35709Y-11201
M15
G01X35709Y-11398
M16
G05
G00X37858Y-11201
M15
G01X37858Y-11398
M16
G05
G00X44764Y-11201
M15
G01X44764Y-11398
M16
G05
G00X46913Y-11201
M15
G01X46913Y-11398
M16
G05
G00X53819Y-11201
M15
G01X53819Y-11398
M16
G05
G00X55969Y-11201
M15
G01X55969Y-11398
M16
G05
T0
M30
