G04 #@! TF.GenerationSoftware,KiCad,Pcbnew,7.0.6*
G04 #@! TF.CreationDate,2023-08-06T12:05:31+07:00*
G04 #@! TF.ProjectId,RP2040-Test-MassProduction,52503230-3430-42d5-9465-73742d4d6173,rev?*
G04 #@! TF.SameCoordinates,Original*
G04 #@! TF.FileFunction,Paste,Top*
G04 #@! TF.FilePolarity,Positive*
%FSLAX46Y46*%
G04 Gerber Fmt 4.6, Leading zero omitted, Abs format (unit mm)*
G04 Created by KiCad (PCBNEW 7.0.6) date 2023-08-06 12:05:31*
%MOMM*%
%LPD*%
G01*
G04 APERTURE LIST*
G04 Aperture macros list*
%AMRoundRect*
0 Rectangle with rounded corners*
0 $1 Rounding radius*
0 $2 $3 $4 $5 $6 $7 $8 $9 X,Y pos of 4 corners*
0 Add a 4 corners polygon primitive as box body*
4,1,4,$2,$3,$4,$5,$6,$7,$8,$9,$2,$3,0*
0 Add four circle primitives for the rounded corners*
1,1,$1+$1,$2,$3*
1,1,$1+$1,$4,$5*
1,1,$1+$1,$6,$7*
1,1,$1+$1,$8,$9*
0 Add four rect primitives between the rounded corners*
20,1,$1+$1,$2,$3,$4,$5,0*
20,1,$1+$1,$4,$5,$6,$7,0*
20,1,$1+$1,$6,$7,$8,$9,0*
20,1,$1+$1,$8,$9,$2,$3,0*%
G04 Aperture macros list end*
%ADD10RoundRect,0.249999X-0.395001X-0.395001X0.395001X-0.395001X0.395001X0.395001X-0.395001X0.395001X0*%
%ADD11RoundRect,0.050000X-0.387500X-0.050000X0.387500X-0.050000X0.387500X0.050000X-0.387500X0.050000X0*%
%ADD12RoundRect,0.050000X-0.050000X-0.387500X0.050000X-0.387500X0.050000X0.387500X-0.050000X0.387500X0*%
%ADD13RoundRect,0.079500X0.100500X-0.079500X0.100500X0.079500X-0.100500X0.079500X-0.100500X-0.079500X0*%
%ADD14R,0.400000X1.650000*%
%ADD15R,1.825000X0.700000*%
%ADD16R,2.000000X1.500000*%
%ADD17R,1.350000X2.000000*%
%ADD18R,1.430000X2.500000*%
%ADD19RoundRect,0.079500X0.079500X0.100500X-0.079500X0.100500X-0.079500X-0.100500X0.079500X-0.100500X0*%
%ADD20RoundRect,0.079500X-0.100500X0.079500X-0.100500X-0.079500X0.100500X-0.079500X0.100500X0.079500X0*%
%ADD21R,1.000000X0.750000*%
%ADD22R,0.750000X1.000000*%
%ADD23R,1.200000X1.000000*%
G04 #@! TA.AperFunction,Profile*
%ADD24C,0.100000*%
G04 #@! TD*
%ADD25C,0.150000*%
G04 #@! TA.AperFunction,Profile*
%ADD26C,0.050000*%
G04 #@! TD*
G04 APERTURE END LIST*
D10*
G04 #@! TO.C,U23*
X129412988Y-123716279D03*
X129412988Y-125316279D03*
X131012988Y-123716279D03*
X131012988Y-125316279D03*
D11*
X126775488Y-121916279D03*
X126775488Y-122316279D03*
X126775488Y-122716279D03*
X126775488Y-123116279D03*
X126775488Y-123516279D03*
X126775488Y-123916279D03*
X126775488Y-124316279D03*
X126775488Y-124716279D03*
X126775488Y-125116279D03*
X126775488Y-125516279D03*
X126775488Y-125916279D03*
X126775488Y-126316279D03*
X126775488Y-126716279D03*
X126775488Y-127116279D03*
D12*
X127612988Y-127953779D03*
X128012988Y-127953779D03*
X128412988Y-127953779D03*
X128812988Y-127953779D03*
X129212988Y-127953779D03*
X129612988Y-127953779D03*
X130012988Y-127953779D03*
X130412988Y-127953779D03*
X130812988Y-127953779D03*
X131212988Y-127953779D03*
X131612988Y-127953779D03*
X132012988Y-127953779D03*
X132412988Y-127953779D03*
X132812988Y-127953779D03*
D11*
X133650488Y-127116279D03*
X133650488Y-126716279D03*
X133650488Y-126316279D03*
X133650488Y-125916279D03*
X133650488Y-125516279D03*
X133650488Y-125116279D03*
X133650488Y-124716279D03*
X133650488Y-124316279D03*
X133650488Y-123916279D03*
X133650488Y-123516279D03*
X133650488Y-123116279D03*
X133650488Y-122716279D03*
X133650488Y-122316279D03*
X133650488Y-121916279D03*
D12*
X132812988Y-121078779D03*
X132412988Y-121078779D03*
X132012988Y-121078779D03*
X131612988Y-121078779D03*
X131212988Y-121078779D03*
X130812988Y-121078779D03*
X130412988Y-121078779D03*
X130012988Y-121078779D03*
X129612988Y-121078779D03*
X129212988Y-121078779D03*
X128812988Y-121078779D03*
X128412988Y-121078779D03*
X128012988Y-121078779D03*
X127612988Y-121078779D03*
G04 #@! TD*
D13*
G04 #@! TO.C,D29*
X176150488Y-107806279D03*
X176150488Y-107116279D03*
G04 #@! TD*
D14*
G04 #@! TO.C,J21*
X90660488Y-108166279D03*
X90010488Y-108166279D03*
X89360488Y-108166279D03*
X88710488Y-108166279D03*
X88060488Y-108166279D03*
D15*
X92310488Y-106966279D03*
D16*
X92210488Y-108266279D03*
D17*
X92090488Y-106216279D03*
D18*
X90320488Y-105016279D03*
X88400488Y-105016279D03*
D17*
X86610488Y-106216279D03*
D16*
X86460488Y-108286279D03*
D15*
X86360488Y-106966279D03*
G04 #@! TD*
D19*
G04 #@! TO.C,D18*
X87152988Y-110051279D03*
X86462988Y-110051279D03*
G04 #@! TD*
D10*
G04 #@! TO.C,U17*
X88712988Y-123716279D03*
X88712988Y-125316279D03*
X90312988Y-123716279D03*
X90312988Y-125316279D03*
D11*
X86075488Y-121916279D03*
X86075488Y-122316279D03*
X86075488Y-122716279D03*
X86075488Y-123116279D03*
X86075488Y-123516279D03*
X86075488Y-123916279D03*
X86075488Y-124316279D03*
X86075488Y-124716279D03*
X86075488Y-125116279D03*
X86075488Y-125516279D03*
X86075488Y-125916279D03*
X86075488Y-126316279D03*
X86075488Y-126716279D03*
X86075488Y-127116279D03*
D12*
X86912988Y-127953779D03*
X87312988Y-127953779D03*
X87712988Y-127953779D03*
X88112988Y-127953779D03*
X88512988Y-127953779D03*
X88912988Y-127953779D03*
X89312988Y-127953779D03*
X89712988Y-127953779D03*
X90112988Y-127953779D03*
X90512988Y-127953779D03*
X90912988Y-127953779D03*
X91312988Y-127953779D03*
X91712988Y-127953779D03*
X92112988Y-127953779D03*
D11*
X92950488Y-127116279D03*
X92950488Y-126716279D03*
X92950488Y-126316279D03*
X92950488Y-125916279D03*
X92950488Y-125516279D03*
X92950488Y-125116279D03*
X92950488Y-124716279D03*
X92950488Y-124316279D03*
X92950488Y-123916279D03*
X92950488Y-123516279D03*
X92950488Y-123116279D03*
X92950488Y-122716279D03*
X92950488Y-122316279D03*
X92950488Y-121916279D03*
D12*
X92112988Y-121078779D03*
X91712988Y-121078779D03*
X91312988Y-121078779D03*
X90912988Y-121078779D03*
X90512988Y-121078779D03*
X90112988Y-121078779D03*
X89712988Y-121078779D03*
X89312988Y-121078779D03*
X88912988Y-121078779D03*
X88512988Y-121078779D03*
X88112988Y-121078779D03*
X87712988Y-121078779D03*
X87312988Y-121078779D03*
X86912988Y-121078779D03*
G04 #@! TD*
D20*
G04 #@! TO.C,C42*
X128275488Y-90151279D03*
X128275488Y-90841279D03*
G04 #@! TD*
G04 #@! TO.C,R8*
X132175488Y-75243779D03*
X132175488Y-75933779D03*
G04 #@! TD*
G04 #@! TO.C,C111*
X132075488Y-133256279D03*
X132075488Y-133946279D03*
G04 #@! TD*
D21*
G04 #@! TO.C,S20*
X168625488Y-138376279D03*
X173125488Y-138376279D03*
X168625488Y-136226279D03*
X173125488Y-136226279D03*
G04 #@! TD*
D13*
G04 #@! TO.C,D10*
X145155488Y-66291279D03*
X145155488Y-65601279D03*
G04 #@! TD*
D22*
G04 #@! TO.C,S3*
X107300488Y-72921279D03*
X107300488Y-68421279D03*
X105150488Y-72921279D03*
X105150488Y-68421279D03*
G04 #@! TD*
D20*
G04 #@! TO.C,R17*
X91475488Y-118373779D03*
X91475488Y-119063779D03*
G04 #@! TD*
D22*
G04 #@! TO.C,S17*
X148000488Y-116051279D03*
X148000488Y-111551279D03*
X145850488Y-116051279D03*
X145850488Y-111551279D03*
G04 #@! TD*
D14*
G04 #@! TO.C,J37*
X172060488Y-108166279D03*
X171410488Y-108166279D03*
X170760488Y-108166279D03*
X170110488Y-108166279D03*
X169460488Y-108166279D03*
D15*
X173710488Y-106966279D03*
D16*
X173610488Y-108266279D03*
D17*
X173490488Y-106216279D03*
D18*
X171720488Y-105016279D03*
X169800488Y-105016279D03*
D17*
X168010488Y-106216279D03*
D16*
X167860488Y-108286279D03*
D15*
X167760488Y-106966279D03*
G04 #@! TD*
D14*
G04 #@! TO.C,J1*
X90660488Y-65036279D03*
X90010488Y-65036279D03*
X89360488Y-65036279D03*
X88710488Y-65036279D03*
X88060488Y-65036279D03*
D15*
X92310488Y-63836279D03*
D16*
X92210488Y-65136279D03*
D17*
X92090488Y-63086279D03*
D18*
X90320488Y-61886279D03*
X88400488Y-61886279D03*
D17*
X86610488Y-63086279D03*
D16*
X86460488Y-65156279D03*
D15*
X86360488Y-63836279D03*
G04 #@! TD*
D19*
G04 #@! TO.C,D6*
X107502988Y-66921279D03*
X106812988Y-66921279D03*
G04 #@! TD*
D20*
G04 #@! TO.C,R1*
X90400488Y-75218779D03*
X90400488Y-75908779D03*
G04 #@! TD*
D14*
G04 #@! TO.C,J33*
X151710488Y-108166279D03*
X151060488Y-108166279D03*
X150410488Y-108166279D03*
X149760488Y-108166279D03*
X149110488Y-108166279D03*
D15*
X153360488Y-106966279D03*
D16*
X153260488Y-108266279D03*
D17*
X153140488Y-106216279D03*
D18*
X151370488Y-105016279D03*
X149450488Y-105016279D03*
D17*
X147660488Y-106216279D03*
D16*
X147510488Y-108286279D03*
D15*
X147410488Y-106966279D03*
G04 #@! TD*
D10*
G04 #@! TO.C,U20*
X109062988Y-123716279D03*
X109062988Y-125316279D03*
X110662988Y-123716279D03*
X110662988Y-125316279D03*
D11*
X106425488Y-121916279D03*
X106425488Y-122316279D03*
X106425488Y-122716279D03*
X106425488Y-123116279D03*
X106425488Y-123516279D03*
X106425488Y-123916279D03*
X106425488Y-124316279D03*
X106425488Y-124716279D03*
X106425488Y-125116279D03*
X106425488Y-125516279D03*
X106425488Y-125916279D03*
X106425488Y-126316279D03*
X106425488Y-126716279D03*
X106425488Y-127116279D03*
D12*
X107262988Y-127953779D03*
X107662988Y-127953779D03*
X108062988Y-127953779D03*
X108462988Y-127953779D03*
X108862988Y-127953779D03*
X109262988Y-127953779D03*
X109662988Y-127953779D03*
X110062988Y-127953779D03*
X110462988Y-127953779D03*
X110862988Y-127953779D03*
X111262988Y-127953779D03*
X111662988Y-127953779D03*
X112062988Y-127953779D03*
X112462988Y-127953779D03*
D11*
X113300488Y-127116279D03*
X113300488Y-126716279D03*
X113300488Y-126316279D03*
X113300488Y-125916279D03*
X113300488Y-125516279D03*
X113300488Y-125116279D03*
X113300488Y-124716279D03*
X113300488Y-124316279D03*
X113300488Y-123916279D03*
X113300488Y-123516279D03*
X113300488Y-123116279D03*
X113300488Y-122716279D03*
X113300488Y-122316279D03*
X113300488Y-121916279D03*
D12*
X112462988Y-121078779D03*
X112062988Y-121078779D03*
X111662988Y-121078779D03*
X111262988Y-121078779D03*
X110862988Y-121078779D03*
X110462988Y-121078779D03*
X110062988Y-121078779D03*
X109662988Y-121078779D03*
X109262988Y-121078779D03*
X108862988Y-121078779D03*
X108462988Y-121078779D03*
X108062988Y-121078779D03*
X107662988Y-121078779D03*
X107262988Y-121078779D03*
G04 #@! TD*
D21*
G04 #@! TO.C,S6*
X127925488Y-95246279D03*
X132425488Y-95246279D03*
X127925488Y-93096279D03*
X132425488Y-93096279D03*
G04 #@! TD*
D14*
G04 #@! TO.C,J9*
X131360488Y-65036279D03*
X130710488Y-65036279D03*
X130060488Y-65036279D03*
X129410488Y-65036279D03*
X128760488Y-65036279D03*
D15*
X133010488Y-63836279D03*
D16*
X132910488Y-65136279D03*
D17*
X132790488Y-63086279D03*
D18*
X131020488Y-61886279D03*
X129100488Y-61886279D03*
D17*
X127310488Y-63086279D03*
D16*
X127160488Y-65156279D03*
D15*
X127060488Y-63836279D03*
G04 #@! TD*
D19*
G04 #@! TO.C,D24*
X127852988Y-110051279D03*
X127162988Y-110051279D03*
G04 #@! TD*
D22*
G04 #@! TO.C,S19*
X168350488Y-116051279D03*
X168350488Y-111551279D03*
X166200488Y-116051279D03*
X166200488Y-111551279D03*
G04 #@! TD*
D19*
G04 #@! TO.C,D30*
X168552988Y-110051279D03*
X167862988Y-110051279D03*
G04 #@! TD*
D13*
G04 #@! TO.C,D8*
X135450488Y-64676279D03*
X135450488Y-63986279D03*
G04 #@! TD*
D20*
G04 #@! TO.C,C41*
X132075488Y-90126279D03*
X132075488Y-90816279D03*
G04 #@! TD*
G04 #@! TO.C,C84*
X87575488Y-133281279D03*
X87575488Y-133971279D03*
G04 #@! TD*
D10*
G04 #@! TO.C,U8*
X129412988Y-80586279D03*
X129412988Y-82186279D03*
X131012988Y-80586279D03*
X131012988Y-82186279D03*
D11*
X126775488Y-78786279D03*
X126775488Y-79186279D03*
X126775488Y-79586279D03*
X126775488Y-79986279D03*
X126775488Y-80386279D03*
X126775488Y-80786279D03*
X126775488Y-81186279D03*
X126775488Y-81586279D03*
X126775488Y-81986279D03*
X126775488Y-82386279D03*
X126775488Y-82786279D03*
X126775488Y-83186279D03*
X126775488Y-83586279D03*
X126775488Y-83986279D03*
D12*
X127612988Y-84823779D03*
X128012988Y-84823779D03*
X128412988Y-84823779D03*
X128812988Y-84823779D03*
X129212988Y-84823779D03*
X129612988Y-84823779D03*
X130012988Y-84823779D03*
X130412988Y-84823779D03*
X130812988Y-84823779D03*
X131212988Y-84823779D03*
X131612988Y-84823779D03*
X132012988Y-84823779D03*
X132412988Y-84823779D03*
X132812988Y-84823779D03*
D11*
X133650488Y-83986279D03*
X133650488Y-83586279D03*
X133650488Y-83186279D03*
X133650488Y-82786279D03*
X133650488Y-82386279D03*
X133650488Y-81986279D03*
X133650488Y-81586279D03*
X133650488Y-81186279D03*
X133650488Y-80786279D03*
X133650488Y-80386279D03*
X133650488Y-79986279D03*
X133650488Y-79586279D03*
X133650488Y-79186279D03*
X133650488Y-78786279D03*
D12*
X132812988Y-77948779D03*
X132412988Y-77948779D03*
X132012988Y-77948779D03*
X131612988Y-77948779D03*
X131212988Y-77948779D03*
X130812988Y-77948779D03*
X130412988Y-77948779D03*
X130012988Y-77948779D03*
X129612988Y-77948779D03*
X129212988Y-77948779D03*
X128812988Y-77948779D03*
X128412988Y-77948779D03*
X128012988Y-77948779D03*
X127612988Y-77948779D03*
G04 #@! TD*
D23*
G04 #@! TO.C,Y10*
X171650488Y-130576279D03*
X170050488Y-130576279D03*
X170050488Y-131776279D03*
X171650488Y-131776279D03*
G04 #@! TD*
D19*
G04 #@! TO.C,D9*
X127852988Y-66921279D03*
X127162988Y-66921279D03*
G04 #@! TD*
D23*
G04 #@! TO.C,Y8*
X130950488Y-130576279D03*
X129350488Y-130576279D03*
X129350488Y-131776279D03*
X130950488Y-131776279D03*
G04 #@! TD*
D20*
G04 #@! TO.C,R28*
X171800488Y-118348779D03*
X171800488Y-119038779D03*
G04 #@! TD*
G04 #@! TO.C,R2*
X91475488Y-75243779D03*
X91475488Y-75933779D03*
G04 #@! TD*
D23*
G04 #@! TO.C,Y3*
X130950488Y-87446279D03*
X129350488Y-87446279D03*
X129350488Y-88646279D03*
X130950488Y-88646279D03*
G04 #@! TD*
D13*
G04 #@! TO.C,D25*
X145155488Y-109421279D03*
X145155488Y-108731279D03*
G04 #@! TD*
G04 #@! TO.C,D1*
X84105488Y-66291279D03*
X84105488Y-65601279D03*
G04 #@! TD*
D20*
G04 #@! TO.C,R10*
X151450488Y-75218779D03*
X151450488Y-75908779D03*
G04 #@! TD*
G04 #@! TO.C,R7*
X131100488Y-75218779D03*
X131100488Y-75908779D03*
G04 #@! TD*
G04 #@! TO.C,R29*
X172875488Y-118373779D03*
X172875488Y-119063779D03*
G04 #@! TD*
D21*
G04 #@! TO.C,S16*
X127925488Y-138376279D03*
X132425488Y-138376279D03*
X127925488Y-136226279D03*
X132425488Y-136226279D03*
G04 #@! TD*
D10*
G04 #@! TO.C,U14*
X170112988Y-80586279D03*
X170112988Y-82186279D03*
X171712988Y-80586279D03*
X171712988Y-82186279D03*
D11*
X167475488Y-78786279D03*
X167475488Y-79186279D03*
X167475488Y-79586279D03*
X167475488Y-79986279D03*
X167475488Y-80386279D03*
X167475488Y-80786279D03*
X167475488Y-81186279D03*
X167475488Y-81586279D03*
X167475488Y-81986279D03*
X167475488Y-82386279D03*
X167475488Y-82786279D03*
X167475488Y-83186279D03*
X167475488Y-83586279D03*
X167475488Y-83986279D03*
D12*
X168312988Y-84823779D03*
X168712988Y-84823779D03*
X169112988Y-84823779D03*
X169512988Y-84823779D03*
X169912988Y-84823779D03*
X170312988Y-84823779D03*
X170712988Y-84823779D03*
X171112988Y-84823779D03*
X171512988Y-84823779D03*
X171912988Y-84823779D03*
X172312988Y-84823779D03*
X172712988Y-84823779D03*
X173112988Y-84823779D03*
X173512988Y-84823779D03*
D11*
X174350488Y-83986279D03*
X174350488Y-83586279D03*
X174350488Y-83186279D03*
X174350488Y-82786279D03*
X174350488Y-82386279D03*
X174350488Y-81986279D03*
X174350488Y-81586279D03*
X174350488Y-81186279D03*
X174350488Y-80786279D03*
X174350488Y-80386279D03*
X174350488Y-79986279D03*
X174350488Y-79586279D03*
X174350488Y-79186279D03*
X174350488Y-78786279D03*
D12*
X173512988Y-77948779D03*
X173112988Y-77948779D03*
X172712988Y-77948779D03*
X172312988Y-77948779D03*
X171912988Y-77948779D03*
X171512988Y-77948779D03*
X171112988Y-77948779D03*
X170712988Y-77948779D03*
X170312988Y-77948779D03*
X169912988Y-77948779D03*
X169512988Y-77948779D03*
X169112988Y-77948779D03*
X168712988Y-77948779D03*
X168312988Y-77948779D03*
G04 #@! TD*
D10*
G04 #@! TO.C,U29*
X170112988Y-123716279D03*
X170112988Y-125316279D03*
X171712988Y-123716279D03*
X171712988Y-125316279D03*
D11*
X167475488Y-121916279D03*
X167475488Y-122316279D03*
X167475488Y-122716279D03*
X167475488Y-123116279D03*
X167475488Y-123516279D03*
X167475488Y-123916279D03*
X167475488Y-124316279D03*
X167475488Y-124716279D03*
X167475488Y-125116279D03*
X167475488Y-125516279D03*
X167475488Y-125916279D03*
X167475488Y-126316279D03*
X167475488Y-126716279D03*
X167475488Y-127116279D03*
D12*
X168312988Y-127953779D03*
X168712988Y-127953779D03*
X169112988Y-127953779D03*
X169512988Y-127953779D03*
X169912988Y-127953779D03*
X170312988Y-127953779D03*
X170712988Y-127953779D03*
X171112988Y-127953779D03*
X171512988Y-127953779D03*
X171912988Y-127953779D03*
X172312988Y-127953779D03*
X172712988Y-127953779D03*
X173112988Y-127953779D03*
X173512988Y-127953779D03*
D11*
X174350488Y-127116279D03*
X174350488Y-126716279D03*
X174350488Y-126316279D03*
X174350488Y-125916279D03*
X174350488Y-125516279D03*
X174350488Y-125116279D03*
X174350488Y-124716279D03*
X174350488Y-124316279D03*
X174350488Y-123916279D03*
X174350488Y-123516279D03*
X174350488Y-123116279D03*
X174350488Y-122716279D03*
X174350488Y-122316279D03*
X174350488Y-121916279D03*
D12*
X173512988Y-121078779D03*
X173112988Y-121078779D03*
X172712988Y-121078779D03*
X172312988Y-121078779D03*
X171912988Y-121078779D03*
X171512988Y-121078779D03*
X171112988Y-121078779D03*
X170712988Y-121078779D03*
X170312988Y-121078779D03*
X169912988Y-121078779D03*
X169512988Y-121078779D03*
X169112988Y-121078779D03*
X168712988Y-121078779D03*
X168312988Y-121078779D03*
G04 #@! TD*
D20*
G04 #@! TO.C,C83*
X91375488Y-133256279D03*
X91375488Y-133946279D03*
G04 #@! TD*
G04 #@! TO.C,C139*
X172775488Y-133256279D03*
X172775488Y-133946279D03*
G04 #@! TD*
D13*
G04 #@! TO.C,D28*
X165505488Y-109421279D03*
X165505488Y-108731279D03*
G04 #@! TD*
G04 #@! TO.C,D16*
X84105488Y-109421279D03*
X84105488Y-108731279D03*
G04 #@! TD*
D10*
G04 #@! TO.C,U26*
X149762988Y-123716279D03*
X149762988Y-125316279D03*
X151362988Y-123716279D03*
X151362988Y-125316279D03*
D11*
X147125488Y-121916279D03*
X147125488Y-122316279D03*
X147125488Y-122716279D03*
X147125488Y-123116279D03*
X147125488Y-123516279D03*
X147125488Y-123916279D03*
X147125488Y-124316279D03*
X147125488Y-124716279D03*
X147125488Y-125116279D03*
X147125488Y-125516279D03*
X147125488Y-125916279D03*
X147125488Y-126316279D03*
X147125488Y-126716279D03*
X147125488Y-127116279D03*
D12*
X147962988Y-127953779D03*
X148362988Y-127953779D03*
X148762988Y-127953779D03*
X149162988Y-127953779D03*
X149562988Y-127953779D03*
X149962988Y-127953779D03*
X150362988Y-127953779D03*
X150762988Y-127953779D03*
X151162988Y-127953779D03*
X151562988Y-127953779D03*
X151962988Y-127953779D03*
X152362988Y-127953779D03*
X152762988Y-127953779D03*
X153162988Y-127953779D03*
D11*
X154000488Y-127116279D03*
X154000488Y-126716279D03*
X154000488Y-126316279D03*
X154000488Y-125916279D03*
X154000488Y-125516279D03*
X154000488Y-125116279D03*
X154000488Y-124716279D03*
X154000488Y-124316279D03*
X154000488Y-123916279D03*
X154000488Y-123516279D03*
X154000488Y-123116279D03*
X154000488Y-122716279D03*
X154000488Y-122316279D03*
X154000488Y-121916279D03*
D12*
X153162988Y-121078779D03*
X152762988Y-121078779D03*
X152362988Y-121078779D03*
X151962988Y-121078779D03*
X151562988Y-121078779D03*
X151162988Y-121078779D03*
X150762988Y-121078779D03*
X150362988Y-121078779D03*
X149962988Y-121078779D03*
X149562988Y-121078779D03*
X149162988Y-121078779D03*
X148762988Y-121078779D03*
X148362988Y-121078779D03*
X147962988Y-121078779D03*
G04 #@! TD*
D13*
G04 #@! TO.C,D20*
X115100488Y-107806279D03*
X115100488Y-107116279D03*
G04 #@! TD*
D22*
G04 #@! TO.C,S13*
X107300488Y-116051279D03*
X107300488Y-111551279D03*
X105150488Y-116051279D03*
X105150488Y-111551279D03*
G04 #@! TD*
D20*
G04 #@! TO.C,R11*
X152525488Y-75243779D03*
X152525488Y-75933779D03*
G04 #@! TD*
D14*
G04 #@! TO.C,J29*
X131360488Y-108166279D03*
X130710488Y-108166279D03*
X130060488Y-108166279D03*
X129410488Y-108166279D03*
X128760488Y-108166279D03*
D15*
X133010488Y-106966279D03*
D16*
X132910488Y-108266279D03*
D17*
X132790488Y-106216279D03*
D18*
X131020488Y-105016279D03*
X129100488Y-105016279D03*
D17*
X127310488Y-106216279D03*
D16*
X127160488Y-108286279D03*
D15*
X127060488Y-106966279D03*
G04 #@! TD*
D13*
G04 #@! TO.C,D22*
X124805488Y-109421279D03*
X124805488Y-108731279D03*
G04 #@! TD*
D20*
G04 #@! TO.C,C140*
X168975488Y-133281279D03*
X168975488Y-133971279D03*
G04 #@! TD*
D13*
G04 #@! TO.C,D19*
X104455488Y-109421279D03*
X104455488Y-108731279D03*
G04 #@! TD*
D23*
G04 #@! TO.C,Y2*
X110600488Y-87446279D03*
X109000488Y-87446279D03*
X109000488Y-88646279D03*
X110600488Y-88646279D03*
G04 #@! TD*
D20*
G04 #@! TO.C,R4*
X110750488Y-75218779D03*
X110750488Y-75908779D03*
G04 #@! TD*
G04 #@! TO.C,R14*
X172875488Y-75243779D03*
X172875488Y-75933779D03*
G04 #@! TD*
G04 #@! TO.C,R25*
X151450488Y-118348779D03*
X151450488Y-119038779D03*
G04 #@! TD*
D14*
G04 #@! TO.C,J17*
X172060488Y-65036279D03*
X171410488Y-65036279D03*
X170760488Y-65036279D03*
X170110488Y-65036279D03*
X169460488Y-65036279D03*
D15*
X173710488Y-63836279D03*
D16*
X173610488Y-65136279D03*
D17*
X173490488Y-63086279D03*
D18*
X171720488Y-61886279D03*
X169800488Y-61886279D03*
D17*
X168010488Y-63086279D03*
D16*
X167860488Y-65156279D03*
D15*
X167760488Y-63836279D03*
G04 #@! TD*
D23*
G04 #@! TO.C,Y7*
X110600488Y-130576279D03*
X109000488Y-130576279D03*
X109000488Y-131776279D03*
X110600488Y-131776279D03*
G04 #@! TD*
D13*
G04 #@! TO.C,D17*
X94750488Y-107806279D03*
X94750488Y-107116279D03*
G04 #@! TD*
D20*
G04 #@! TO.C,C13*
X91375488Y-90126279D03*
X91375488Y-90816279D03*
G04 #@! TD*
D23*
G04 #@! TO.C,Y6*
X90250488Y-130576279D03*
X88650488Y-130576279D03*
X88650488Y-131776279D03*
X90250488Y-131776279D03*
G04 #@! TD*
D10*
G04 #@! TO.C,U5*
X109062988Y-80586279D03*
X109062988Y-82186279D03*
X110662988Y-80586279D03*
X110662988Y-82186279D03*
D11*
X106425488Y-78786279D03*
X106425488Y-79186279D03*
X106425488Y-79586279D03*
X106425488Y-79986279D03*
X106425488Y-80386279D03*
X106425488Y-80786279D03*
X106425488Y-81186279D03*
X106425488Y-81586279D03*
X106425488Y-81986279D03*
X106425488Y-82386279D03*
X106425488Y-82786279D03*
X106425488Y-83186279D03*
X106425488Y-83586279D03*
X106425488Y-83986279D03*
D12*
X107262988Y-84823779D03*
X107662988Y-84823779D03*
X108062988Y-84823779D03*
X108462988Y-84823779D03*
X108862988Y-84823779D03*
X109262988Y-84823779D03*
X109662988Y-84823779D03*
X110062988Y-84823779D03*
X110462988Y-84823779D03*
X110862988Y-84823779D03*
X111262988Y-84823779D03*
X111662988Y-84823779D03*
X112062988Y-84823779D03*
X112462988Y-84823779D03*
D11*
X113300488Y-83986279D03*
X113300488Y-83586279D03*
X113300488Y-83186279D03*
X113300488Y-82786279D03*
X113300488Y-82386279D03*
X113300488Y-81986279D03*
X113300488Y-81586279D03*
X113300488Y-81186279D03*
X113300488Y-80786279D03*
X113300488Y-80386279D03*
X113300488Y-79986279D03*
X113300488Y-79586279D03*
X113300488Y-79186279D03*
X113300488Y-78786279D03*
D12*
X112462988Y-77948779D03*
X112062988Y-77948779D03*
X111662988Y-77948779D03*
X111262988Y-77948779D03*
X110862988Y-77948779D03*
X110462988Y-77948779D03*
X110062988Y-77948779D03*
X109662988Y-77948779D03*
X109262988Y-77948779D03*
X108862988Y-77948779D03*
X108462988Y-77948779D03*
X108062988Y-77948779D03*
X107662988Y-77948779D03*
X107262988Y-77948779D03*
G04 #@! TD*
D14*
G04 #@! TO.C,J13*
X151710488Y-65036279D03*
X151060488Y-65036279D03*
X150410488Y-65036279D03*
X149760488Y-65036279D03*
X149110488Y-65036279D03*
D15*
X153360488Y-63836279D03*
D16*
X153260488Y-65136279D03*
D17*
X153140488Y-63086279D03*
D18*
X151370488Y-61886279D03*
X149450488Y-61886279D03*
D17*
X147660488Y-63086279D03*
D16*
X147510488Y-65156279D03*
D15*
X147410488Y-63836279D03*
G04 #@! TD*
D21*
G04 #@! TO.C,S12*
X87225488Y-138376279D03*
X91725488Y-138376279D03*
X87225488Y-136226279D03*
X91725488Y-136226279D03*
G04 #@! TD*
D13*
G04 #@! TO.C,D26*
X155800488Y-107806279D03*
X155800488Y-107116279D03*
G04 #@! TD*
D21*
G04 #@! TO.C,S2*
X87225488Y-95246279D03*
X91725488Y-95246279D03*
X87225488Y-93096279D03*
X91725488Y-93096279D03*
G04 #@! TD*
D23*
G04 #@! TO.C,Y9*
X151300488Y-130576279D03*
X149700488Y-130576279D03*
X149700488Y-131776279D03*
X151300488Y-131776279D03*
G04 #@! TD*
D20*
G04 #@! TO.C,R19*
X110750488Y-118348779D03*
X110750488Y-119038779D03*
G04 #@! TD*
D19*
G04 #@! TO.C,D21*
X107502988Y-110051279D03*
X106812988Y-110051279D03*
G04 #@! TD*
D20*
G04 #@! TO.C,C125*
X152425488Y-133256279D03*
X152425488Y-133946279D03*
G04 #@! TD*
D14*
G04 #@! TO.C,J25*
X111010488Y-108166279D03*
X110360488Y-108166279D03*
X109710488Y-108166279D03*
X109060488Y-108166279D03*
X108410488Y-108166279D03*
D15*
X112660488Y-106966279D03*
D16*
X112560488Y-108266279D03*
D17*
X112440488Y-106216279D03*
D18*
X110670488Y-105016279D03*
X108750488Y-105016279D03*
D17*
X106960488Y-106216279D03*
D16*
X106810488Y-108286279D03*
D15*
X106710488Y-106966279D03*
G04 #@! TD*
D22*
G04 #@! TO.C,S5*
X127650488Y-72921279D03*
X127650488Y-68421279D03*
X125500488Y-72921279D03*
X125500488Y-68421279D03*
G04 #@! TD*
D20*
G04 #@! TO.C,R26*
X152525488Y-118373779D03*
X152525488Y-119063779D03*
G04 #@! TD*
D21*
G04 #@! TO.C,S10*
X168625488Y-95246279D03*
X173125488Y-95246279D03*
X168625488Y-93096279D03*
X173125488Y-93096279D03*
G04 #@! TD*
D20*
G04 #@! TO.C,C55*
X152425488Y-90126279D03*
X152425488Y-90816279D03*
G04 #@! TD*
D14*
G04 #@! TO.C,J5*
X111010488Y-65036279D03*
X110360488Y-65036279D03*
X109710488Y-65036279D03*
X109060488Y-65036279D03*
X108410488Y-65036279D03*
D15*
X112660488Y-63836279D03*
D16*
X112560488Y-65136279D03*
D17*
X112440488Y-63086279D03*
D18*
X110670488Y-61886279D03*
X108750488Y-61886279D03*
D17*
X106960488Y-63086279D03*
D16*
X106810488Y-65156279D03*
D15*
X106710488Y-63836279D03*
G04 #@! TD*
D20*
G04 #@! TO.C,C28*
X107925488Y-90151279D03*
X107925488Y-90841279D03*
G04 #@! TD*
D21*
G04 #@! TO.C,S18*
X148275488Y-138376279D03*
X152775488Y-138376279D03*
X148275488Y-136226279D03*
X152775488Y-136226279D03*
G04 #@! TD*
D13*
G04 #@! TO.C,D2*
X94750488Y-64676279D03*
X94750488Y-63986279D03*
G04 #@! TD*
D20*
G04 #@! TO.C,C126*
X148625488Y-133281279D03*
X148625488Y-133971279D03*
G04 #@! TD*
G04 #@! TO.C,R23*
X132175488Y-118373779D03*
X132175488Y-119063779D03*
G04 #@! TD*
D19*
G04 #@! TO.C,D15*
X168552988Y-66921279D03*
X167862988Y-66921279D03*
G04 #@! TD*
D20*
G04 #@! TO.C,C69*
X172775488Y-90126279D03*
X172775488Y-90816279D03*
G04 #@! TD*
D13*
G04 #@! TO.C,D11*
X155800488Y-64676279D03*
X155800488Y-63986279D03*
G04 #@! TD*
D20*
G04 #@! TO.C,C97*
X111725488Y-133256279D03*
X111725488Y-133946279D03*
G04 #@! TD*
G04 #@! TO.C,C27*
X111725488Y-90126279D03*
X111725488Y-90816279D03*
G04 #@! TD*
G04 #@! TO.C,C56*
X148625488Y-90151279D03*
X148625488Y-90841279D03*
G04 #@! TD*
D21*
G04 #@! TO.C,S4*
X107575488Y-95246279D03*
X112075488Y-95246279D03*
X107575488Y-93096279D03*
X112075488Y-93096279D03*
G04 #@! TD*
D19*
G04 #@! TO.C,D27*
X148202988Y-110051279D03*
X147512988Y-110051279D03*
G04 #@! TD*
D20*
G04 #@! TO.C,R16*
X90400488Y-118348779D03*
X90400488Y-119038779D03*
G04 #@! TD*
G04 #@! TO.C,C98*
X107925488Y-133281279D03*
X107925488Y-133971279D03*
G04 #@! TD*
G04 #@! TO.C,C14*
X87575488Y-90151279D03*
X87575488Y-90841279D03*
G04 #@! TD*
D13*
G04 #@! TO.C,D5*
X115100488Y-64676279D03*
X115100488Y-63986279D03*
G04 #@! TD*
D20*
G04 #@! TO.C,R22*
X131100488Y-118348779D03*
X131100488Y-119038779D03*
G04 #@! TD*
G04 #@! TO.C,R5*
X111825488Y-75243779D03*
X111825488Y-75933779D03*
G04 #@! TD*
G04 #@! TO.C,R20*
X111825488Y-118373779D03*
X111825488Y-119063779D03*
G04 #@! TD*
D23*
G04 #@! TO.C,Y1*
X90250488Y-87446279D03*
X88650488Y-87446279D03*
X88650488Y-88646279D03*
X90250488Y-88646279D03*
G04 #@! TD*
D21*
G04 #@! TO.C,S14*
X107575488Y-138376279D03*
X112075488Y-138376279D03*
X107575488Y-136226279D03*
X112075488Y-136226279D03*
G04 #@! TD*
D23*
G04 #@! TO.C,Y5*
X171650488Y-87446279D03*
X170050488Y-87446279D03*
X170050488Y-88646279D03*
X171650488Y-88646279D03*
G04 #@! TD*
D20*
G04 #@! TO.C,C112*
X128275488Y-133281279D03*
X128275488Y-133971279D03*
G04 #@! TD*
D13*
G04 #@! TO.C,D23*
X135450488Y-107806279D03*
X135450488Y-107116279D03*
G04 #@! TD*
G04 #@! TO.C,D14*
X176150488Y-64676279D03*
X176150488Y-63986279D03*
G04 #@! TD*
D10*
G04 #@! TO.C,U11*
X149762988Y-80586279D03*
X149762988Y-82186279D03*
X151362988Y-80586279D03*
X151362988Y-82186279D03*
D11*
X147125488Y-78786279D03*
X147125488Y-79186279D03*
X147125488Y-79586279D03*
X147125488Y-79986279D03*
X147125488Y-80386279D03*
X147125488Y-80786279D03*
X147125488Y-81186279D03*
X147125488Y-81586279D03*
X147125488Y-81986279D03*
X147125488Y-82386279D03*
X147125488Y-82786279D03*
X147125488Y-83186279D03*
X147125488Y-83586279D03*
X147125488Y-83986279D03*
D12*
X147962988Y-84823779D03*
X148362988Y-84823779D03*
X148762988Y-84823779D03*
X149162988Y-84823779D03*
X149562988Y-84823779D03*
X149962988Y-84823779D03*
X150362988Y-84823779D03*
X150762988Y-84823779D03*
X151162988Y-84823779D03*
X151562988Y-84823779D03*
X151962988Y-84823779D03*
X152362988Y-84823779D03*
X152762988Y-84823779D03*
X153162988Y-84823779D03*
D11*
X154000488Y-83986279D03*
X154000488Y-83586279D03*
X154000488Y-83186279D03*
X154000488Y-82786279D03*
X154000488Y-82386279D03*
X154000488Y-81986279D03*
X154000488Y-81586279D03*
X154000488Y-81186279D03*
X154000488Y-80786279D03*
X154000488Y-80386279D03*
X154000488Y-79986279D03*
X154000488Y-79586279D03*
X154000488Y-79186279D03*
X154000488Y-78786279D03*
D12*
X153162988Y-77948779D03*
X152762988Y-77948779D03*
X152362988Y-77948779D03*
X151962988Y-77948779D03*
X151562988Y-77948779D03*
X151162988Y-77948779D03*
X150762988Y-77948779D03*
X150362988Y-77948779D03*
X149962988Y-77948779D03*
X149562988Y-77948779D03*
X149162988Y-77948779D03*
X148762988Y-77948779D03*
X148362988Y-77948779D03*
X147962988Y-77948779D03*
G04 #@! TD*
D13*
G04 #@! TO.C,D13*
X165505488Y-66291279D03*
X165505488Y-65601279D03*
G04 #@! TD*
D20*
G04 #@! TO.C,R13*
X171800488Y-75218779D03*
X171800488Y-75908779D03*
G04 #@! TD*
D13*
G04 #@! TO.C,D4*
X104455488Y-66291279D03*
X104455488Y-65601279D03*
G04 #@! TD*
D22*
G04 #@! TO.C,S1*
X86950488Y-72921279D03*
X86950488Y-68421279D03*
X84800488Y-72921279D03*
X84800488Y-68421279D03*
G04 #@! TD*
D20*
G04 #@! TO.C,C70*
X168975488Y-90151279D03*
X168975488Y-90841279D03*
G04 #@! TD*
D21*
G04 #@! TO.C,S8*
X148275488Y-95246279D03*
X152775488Y-95246279D03*
X148275488Y-93096279D03*
X152775488Y-93096279D03*
G04 #@! TD*
D19*
G04 #@! TO.C,D12*
X148202988Y-66921279D03*
X147512988Y-66921279D03*
G04 #@! TD*
D22*
G04 #@! TO.C,S7*
X148000488Y-72921279D03*
X148000488Y-68421279D03*
X145850488Y-72921279D03*
X145850488Y-68421279D03*
G04 #@! TD*
G04 #@! TO.C,S11*
X86950488Y-116051279D03*
X86950488Y-111551279D03*
X84800488Y-116051279D03*
X84800488Y-111551279D03*
G04 #@! TD*
D13*
G04 #@! TO.C,D7*
X124805488Y-66291279D03*
X124805488Y-65601279D03*
G04 #@! TD*
D10*
G04 #@! TO.C,U2*
X88712988Y-80586279D03*
X88712988Y-82186279D03*
X90312988Y-80586279D03*
X90312988Y-82186279D03*
D11*
X86075488Y-78786279D03*
X86075488Y-79186279D03*
X86075488Y-79586279D03*
X86075488Y-79986279D03*
X86075488Y-80386279D03*
X86075488Y-80786279D03*
X86075488Y-81186279D03*
X86075488Y-81586279D03*
X86075488Y-81986279D03*
X86075488Y-82386279D03*
X86075488Y-82786279D03*
X86075488Y-83186279D03*
X86075488Y-83586279D03*
X86075488Y-83986279D03*
D12*
X86912988Y-84823779D03*
X87312988Y-84823779D03*
X87712988Y-84823779D03*
X88112988Y-84823779D03*
X88512988Y-84823779D03*
X88912988Y-84823779D03*
X89312988Y-84823779D03*
X89712988Y-84823779D03*
X90112988Y-84823779D03*
X90512988Y-84823779D03*
X90912988Y-84823779D03*
X91312988Y-84823779D03*
X91712988Y-84823779D03*
X92112988Y-84823779D03*
D11*
X92950488Y-83986279D03*
X92950488Y-83586279D03*
X92950488Y-83186279D03*
X92950488Y-82786279D03*
X92950488Y-82386279D03*
X92950488Y-81986279D03*
X92950488Y-81586279D03*
X92950488Y-81186279D03*
X92950488Y-80786279D03*
X92950488Y-80386279D03*
X92950488Y-79986279D03*
X92950488Y-79586279D03*
X92950488Y-79186279D03*
X92950488Y-78786279D03*
D12*
X92112988Y-77948779D03*
X91712988Y-77948779D03*
X91312988Y-77948779D03*
X90912988Y-77948779D03*
X90512988Y-77948779D03*
X90112988Y-77948779D03*
X89712988Y-77948779D03*
X89312988Y-77948779D03*
X88912988Y-77948779D03*
X88512988Y-77948779D03*
X88112988Y-77948779D03*
X87712988Y-77948779D03*
X87312988Y-77948779D03*
X86912988Y-77948779D03*
G04 #@! TD*
D23*
G04 #@! TO.C,Y4*
X151300488Y-87446279D03*
X149700488Y-87446279D03*
X149700488Y-88646279D03*
X151300488Y-88646279D03*
G04 #@! TD*
D22*
G04 #@! TO.C,S9*
X168350488Y-72921279D03*
X168350488Y-68421279D03*
X166200488Y-72921279D03*
X166200488Y-68421279D03*
G04 #@! TD*
D19*
G04 #@! TO.C,D3*
X87152988Y-66921279D03*
X86462988Y-66921279D03*
G04 #@! TD*
D22*
G04 #@! TO.C,S15*
X127650488Y-116051279D03*
X127650488Y-111551279D03*
X125500488Y-116051279D03*
X125500488Y-111551279D03*
G04 #@! TD*
D24*
X174330000Y-146700000D02*
X167570000Y-146700000D01*
X163570000Y-146700000D02*
X157910000Y-146700000D01*
X153910000Y-146700000D02*
X147190000Y-146700000D01*
X137600000Y-146700000D02*
X143190000Y-146700000D01*
X133600000Y-146700000D02*
X126850000Y-146700000D01*
X122850000Y-146700000D02*
X117200000Y-146700000D01*
X113200000Y-146700000D02*
X106500000Y-146700000D01*
X96900000Y-146700000D02*
X102500000Y-146700000D01*
X92900000Y-146700000D02*
X86100000Y-146700000D01*
X180150000Y-146700000D02*
X180150000Y-148600000D01*
X80450000Y-148650000D02*
X180150000Y-148600000D01*
X178330000Y-146700000D02*
X180150000Y-146700000D01*
X80400000Y-146700000D02*
X80400000Y-148650000D01*
D25*
X76404819Y-151246428D02*
X76404819Y-151817856D01*
X76404819Y-151532142D02*
X75404819Y-151532142D01*
X75404819Y-151532142D02*
X75547676Y-151627380D01*
X75547676Y-151627380D02*
X75642914Y-151722618D01*
X75642914Y-151722618D02*
X75690533Y-151817856D01*
X76357200Y-150770237D02*
X76404819Y-150770237D01*
X76404819Y-150770237D02*
X76500057Y-150817856D01*
X76500057Y-150817856D02*
X76547676Y-150865475D01*
X76404819Y-150294047D02*
X76404819Y-150103571D01*
X76404819Y-150103571D02*
X76357200Y-150008333D01*
X76357200Y-150008333D02*
X76309580Y-149960714D01*
X76309580Y-149960714D02*
X76166723Y-149865476D01*
X76166723Y-149865476D02*
X75976247Y-149817857D01*
X75976247Y-149817857D02*
X75595295Y-149817857D01*
X75595295Y-149817857D02*
X75500057Y-149865476D01*
X75500057Y-149865476D02*
X75452438Y-149913095D01*
X75452438Y-149913095D02*
X75404819Y-150008333D01*
X75404819Y-150008333D02*
X75404819Y-150198809D01*
X75404819Y-150198809D02*
X75452438Y-150294047D01*
X75452438Y-150294047D02*
X75500057Y-150341666D01*
X75500057Y-150341666D02*
X75595295Y-150389285D01*
X75595295Y-150389285D02*
X75833390Y-150389285D01*
X75833390Y-150389285D02*
X75928628Y-150341666D01*
X75928628Y-150341666D02*
X75976247Y-150294047D01*
X75976247Y-150294047D02*
X76023866Y-150198809D01*
X76023866Y-150198809D02*
X76023866Y-150008333D01*
X76023866Y-150008333D02*
X75976247Y-149913095D01*
X75976247Y-149913095D02*
X75928628Y-149865476D01*
X75928628Y-149865476D02*
X75833390Y-149817857D01*
X75404819Y-148913095D02*
X75404819Y-149389285D01*
X75404819Y-149389285D02*
X75881009Y-149436904D01*
X75881009Y-149436904D02*
X75833390Y-149389285D01*
X75833390Y-149389285D02*
X75785771Y-149294047D01*
X75785771Y-149294047D02*
X75785771Y-149055952D01*
X75785771Y-149055952D02*
X75833390Y-148960714D01*
X75833390Y-148960714D02*
X75881009Y-148913095D01*
X75881009Y-148913095D02*
X75976247Y-148865476D01*
X75976247Y-148865476D02*
X76214342Y-148865476D01*
X76214342Y-148865476D02*
X76309580Y-148913095D01*
X76309580Y-148913095D02*
X76357200Y-148960714D01*
X76357200Y-148960714D02*
X76404819Y-149055952D01*
X76404819Y-149055952D02*
X76404819Y-149294047D01*
X76404819Y-149294047D02*
X76357200Y-149389285D01*
X76357200Y-149389285D02*
X76309580Y-149436904D01*
X75404819Y-148246428D02*
X75404819Y-148151190D01*
X75404819Y-148151190D02*
X75452438Y-148055952D01*
X75452438Y-148055952D02*
X75500057Y-148008333D01*
X75500057Y-148008333D02*
X75595295Y-147960714D01*
X75595295Y-147960714D02*
X75785771Y-147913095D01*
X75785771Y-147913095D02*
X76023866Y-147913095D01*
X76023866Y-147913095D02*
X76214342Y-147960714D01*
X76214342Y-147960714D02*
X76309580Y-148008333D01*
X76309580Y-148008333D02*
X76357200Y-148055952D01*
X76357200Y-148055952D02*
X76404819Y-148151190D01*
X76404819Y-148151190D02*
X76404819Y-148246428D01*
X76404819Y-148246428D02*
X76357200Y-148341666D01*
X76357200Y-148341666D02*
X76309580Y-148389285D01*
X76309580Y-148389285D02*
X76214342Y-148436904D01*
X76214342Y-148436904D02*
X76023866Y-148484523D01*
X76023866Y-148484523D02*
X75785771Y-148484523D01*
X75785771Y-148484523D02*
X75595295Y-148436904D01*
X75595295Y-148436904D02*
X75500057Y-148389285D01*
X75500057Y-148389285D02*
X75452438Y-148341666D01*
X75452438Y-148341666D02*
X75404819Y-148246428D01*
X75404819Y-147294047D02*
X75404819Y-147198809D01*
X75404819Y-147198809D02*
X75452438Y-147103571D01*
X75452438Y-147103571D02*
X75500057Y-147055952D01*
X75500057Y-147055952D02*
X75595295Y-147008333D01*
X75595295Y-147008333D02*
X75785771Y-146960714D01*
X75785771Y-146960714D02*
X76023866Y-146960714D01*
X76023866Y-146960714D02*
X76214342Y-147008333D01*
X76214342Y-147008333D02*
X76309580Y-147055952D01*
X76309580Y-147055952D02*
X76357200Y-147103571D01*
X76357200Y-147103571D02*
X76404819Y-147198809D01*
X76404819Y-147198809D02*
X76404819Y-147294047D01*
X76404819Y-147294047D02*
X76357200Y-147389285D01*
X76357200Y-147389285D02*
X76309580Y-147436904D01*
X76309580Y-147436904D02*
X76214342Y-147484523D01*
X76214342Y-147484523D02*
X76023866Y-147532142D01*
X76023866Y-147532142D02*
X75785771Y-147532142D01*
X75785771Y-147532142D02*
X75595295Y-147484523D01*
X75595295Y-147484523D02*
X75500057Y-147436904D01*
X75500057Y-147436904D02*
X75452438Y-147389285D01*
X75452438Y-147389285D02*
X75404819Y-147294047D01*
X76404819Y-145770237D02*
X75738152Y-145770237D01*
X75833390Y-145770237D02*
X75785771Y-145722618D01*
X75785771Y-145722618D02*
X75738152Y-145627380D01*
X75738152Y-145627380D02*
X75738152Y-145484523D01*
X75738152Y-145484523D02*
X75785771Y-145389285D01*
X75785771Y-145389285D02*
X75881009Y-145341666D01*
X75881009Y-145341666D02*
X76404819Y-145341666D01*
X75881009Y-145341666D02*
X75785771Y-145294047D01*
X75785771Y-145294047D02*
X75738152Y-145198809D01*
X75738152Y-145198809D02*
X75738152Y-145055952D01*
X75738152Y-145055952D02*
X75785771Y-144960713D01*
X75785771Y-144960713D02*
X75881009Y-144913094D01*
X75881009Y-144913094D02*
X76404819Y-144913094D01*
X76404819Y-144436904D02*
X75738152Y-144436904D01*
X75833390Y-144436904D02*
X75785771Y-144389285D01*
X75785771Y-144389285D02*
X75738152Y-144294047D01*
X75738152Y-144294047D02*
X75738152Y-144151190D01*
X75738152Y-144151190D02*
X75785771Y-144055952D01*
X75785771Y-144055952D02*
X75881009Y-144008333D01*
X75881009Y-144008333D02*
X76404819Y-144008333D01*
X75881009Y-144008333D02*
X75785771Y-143960714D01*
X75785771Y-143960714D02*
X75738152Y-143865476D01*
X75738152Y-143865476D02*
X75738152Y-143722619D01*
X75738152Y-143722619D02*
X75785771Y-143627380D01*
X75785771Y-143627380D02*
X75881009Y-143579761D01*
X75881009Y-143579761D02*
X76404819Y-143579761D01*
D26*
X79900000Y-146700000D02*
X76513580Y-146700000D01*
X76513580Y-148650000D02*
X79950000Y-148650000D01*
X77100000Y-146700000D02*
X77100000Y-148650000D01*
X77100000Y-146700000D02*
X77100000Y-148650000D01*
X77100000Y-146700000D02*
X77686421Y-147826504D01*
X77100000Y-146700000D02*
X76513579Y-147826504D01*
X77100000Y-148650000D02*
X76513579Y-147523496D01*
X77100000Y-148650000D02*
X77686421Y-147523496D01*
D24*
X82100000Y-146700000D02*
X80400000Y-146700000D01*
X98740488Y-144706279D02*
X98740488Y-140090000D01*
X159805000Y-92940000D02*
X159795000Y-69710000D01*
X119105000Y-136070000D02*
X119095000Y-112840000D01*
X180155000Y-136070000D02*
X180155000Y-140090000D01*
X180155000Y-92940000D02*
X180145000Y-69710000D01*
X121110000Y-144700000D02*
X121110000Y-140090000D01*
X102500000Y-101576279D02*
X100760000Y-101576279D01*
X180165488Y-103581279D02*
X178300000Y-103580000D01*
X139450000Y-60450000D02*
X139450000Y-65710000D01*
X113250000Y-58450000D02*
X106500000Y-58450000D01*
X92900000Y-103580000D02*
X86150000Y-103580000D01*
X80250000Y-58450000D02*
X80250000Y-56500000D01*
X119100000Y-103580000D02*
X119100000Y-108840000D01*
X98750000Y-60450000D02*
X98750000Y-65710000D01*
X141460000Y-136070000D02*
X141450000Y-112840000D01*
X161800000Y-60450000D02*
X161800000Y-65710000D01*
X174300000Y-144700000D02*
X167540000Y-144700000D01*
X139450000Y-103580000D02*
X139450000Y-108840000D01*
X141450000Y-103580000D02*
X141450000Y-108840000D01*
X143200000Y-60450000D02*
X141450000Y-60450000D01*
X139440488Y-144700000D02*
X139440488Y-140090000D01*
X113250000Y-103580000D02*
X106500000Y-103580000D01*
X139450000Y-60450000D02*
X137600000Y-60450000D01*
X122850000Y-103580000D02*
X121100000Y-103580000D01*
X102500000Y-60450000D02*
X100750000Y-60450000D01*
X180250000Y-58450000D02*
X178300000Y-58450000D01*
X139450000Y-103580000D02*
X137600000Y-103580000D01*
X159805000Y-136070000D02*
X159795000Y-112840000D01*
X133600000Y-101580000D02*
X126850000Y-101580000D01*
X141460000Y-92940000D02*
X141450000Y-69710000D01*
X180140488Y-101576279D02*
X178300000Y-101575000D01*
X92900000Y-60450000D02*
X86150000Y-60450000D01*
X98740488Y-144706279D02*
X96900000Y-144705000D01*
X98750000Y-103580000D02*
X98750000Y-108840000D01*
X113250000Y-60450000D02*
X106500000Y-60450000D01*
X159790488Y-144700000D02*
X159790488Y-140090000D01*
X82150000Y-58450000D02*
X80250000Y-58450000D01*
X139440488Y-144700000D02*
X137600000Y-144700000D01*
X98740488Y-101576279D02*
X98740488Y-96960000D01*
X121110000Y-101576279D02*
X121110000Y-96960000D01*
X153950000Y-101580000D02*
X147200000Y-101580000D01*
X139440488Y-101576279D02*
X139440488Y-96960000D01*
X159800000Y-103580000D02*
X159800000Y-108840000D01*
X113240000Y-144700000D02*
X106500000Y-144700000D01*
X180150000Y-60450000D02*
X178300000Y-60450000D01*
X143200000Y-58450000D02*
X137600000Y-58450000D01*
X119090488Y-101576279D02*
X119090488Y-96960000D01*
X159800000Y-103580000D02*
X157950000Y-103580000D01*
X100750000Y-103580000D02*
X100750000Y-108840000D01*
X163550000Y-58450000D02*
X157950000Y-58450000D01*
X122850000Y-144700000D02*
X121110000Y-144700000D01*
X98755000Y-136070000D02*
X98745000Y-112840000D01*
X174300000Y-101580000D02*
X167550000Y-101580000D01*
X161810000Y-92940000D02*
X161800000Y-69710000D01*
X143200000Y-103580000D02*
X141450000Y-103580000D01*
X153950000Y-103580000D02*
X147200000Y-103580000D01*
X133600000Y-103580000D02*
X126850000Y-103580000D01*
X80400000Y-108790000D02*
X80400000Y-112810000D01*
X133600000Y-144700000D02*
X126850000Y-144700000D01*
X159800000Y-60451279D02*
X159800000Y-65710000D01*
X159790488Y-144700000D02*
X157910000Y-144700000D01*
X119100000Y-103580000D02*
X117250000Y-103580000D01*
X163550000Y-103580000D02*
X161800000Y-103580000D01*
X180140488Y-144700000D02*
X178290000Y-144700000D01*
X133600000Y-60450000D02*
X126850000Y-60450000D01*
X161810000Y-136070000D02*
X161800000Y-112840000D01*
X98750000Y-60450000D02*
X96900000Y-60450000D01*
X180165488Y-108840000D02*
X180145000Y-112840000D01*
X98740488Y-101576279D02*
X96900000Y-101575000D01*
X119100000Y-60451279D02*
X119100000Y-65710000D01*
X98755000Y-92940000D02*
X98745000Y-69710000D01*
X153950000Y-58450000D02*
X147200000Y-58450000D01*
X92900000Y-58450000D02*
X86150000Y-58450000D01*
X100750000Y-60450000D02*
X100750000Y-65710000D01*
X113250000Y-101580000D02*
X106500000Y-101580000D01*
X139455000Y-92940000D02*
X139445000Y-69710000D01*
X139440488Y-101576279D02*
X137600000Y-101575000D01*
X143210000Y-144700000D02*
X141460000Y-144700000D01*
X119100000Y-60451279D02*
X117250000Y-60450000D01*
X119090000Y-144700000D02*
X119090488Y-140090000D01*
X80400000Y-65710000D02*
X80400000Y-69730000D01*
X82100000Y-144700000D02*
X80410000Y-144700000D01*
X141460000Y-144700000D02*
X141460000Y-140090000D01*
X100760000Y-144700000D02*
X100760000Y-140090000D01*
X153950000Y-144700000D02*
X147190000Y-144700000D01*
X80410000Y-92940000D02*
X80400000Y-69710000D01*
X180155000Y-136070000D02*
X180145000Y-112840000D01*
X180250000Y-56500000D02*
X180250000Y-58450000D01*
X174300000Y-58450000D02*
X167550000Y-58450000D01*
X121100000Y-60450000D02*
X121100000Y-65710000D01*
X82150000Y-60450000D02*
X80400000Y-60450000D01*
X180165488Y-103580000D02*
X180165488Y-108840000D01*
X102500000Y-144700000D02*
X100760000Y-144700000D01*
X143200000Y-101576279D02*
X141460000Y-101576279D01*
X80410000Y-144700000D02*
X80410000Y-140090000D01*
X119090488Y-101576279D02*
X117250000Y-101575000D01*
X180140488Y-144700000D02*
X180140488Y-140090000D01*
X100760000Y-101576279D02*
X100760000Y-96960000D01*
X92900000Y-101580000D02*
X86150000Y-101580000D01*
X80410000Y-136070000D02*
X80410000Y-140090000D01*
X121110000Y-136070000D02*
X121100000Y-112840000D01*
X141460000Y-101576279D02*
X141460000Y-96960000D01*
X80250000Y-56500000D02*
X180250000Y-56500000D01*
X80410000Y-136070000D02*
X80400000Y-112840000D01*
X80410000Y-101576279D02*
X80410000Y-96960000D01*
X80400000Y-60450000D02*
X80400000Y-65710000D01*
X159790488Y-101576279D02*
X159790488Y-96960000D01*
X121100000Y-103580000D02*
X121100000Y-108840000D01*
X80410000Y-92940000D02*
X80410000Y-96960000D01*
X180165488Y-60450000D02*
X180165488Y-65710000D01*
X133600000Y-58450000D02*
X126850000Y-58450000D01*
X174300000Y-103580000D02*
X167550000Y-103580000D01*
X122850000Y-58450000D02*
X117250000Y-58450000D01*
X159800000Y-60451279D02*
X157950000Y-60450000D01*
X122850000Y-60450000D02*
X121100000Y-60450000D01*
X119090000Y-144700000D02*
X117200000Y-144700000D01*
X141450000Y-60450000D02*
X141450000Y-65710000D01*
X100760000Y-136070000D02*
X100750000Y-112840000D01*
X174300000Y-60450000D02*
X167550000Y-60450000D01*
X161810000Y-144700000D02*
X161810000Y-140090000D01*
X139455000Y-136070000D02*
X139445000Y-112840000D01*
X98750000Y-103580000D02*
X96900000Y-103580000D01*
X161810000Y-101576279D02*
X161810000Y-96960000D01*
X119105000Y-92940000D02*
X119095000Y-69710000D01*
X180155000Y-92940000D02*
X180140488Y-96960000D01*
X102500000Y-103580000D02*
X100750000Y-103580000D01*
X163550000Y-101576279D02*
X161810000Y-101576279D01*
X180140488Y-101576279D02*
X180140488Y-96960000D01*
X80400000Y-103580000D02*
X80400000Y-108840000D01*
X122850000Y-101576279D02*
X121110000Y-101576279D01*
X161800000Y-103580000D02*
X161800000Y-108840000D01*
X153950000Y-60450000D02*
X147200000Y-60450000D01*
X100760000Y-92940000D02*
X100750000Y-69710000D01*
X163550000Y-60450000D02*
X161800000Y-60450000D01*
X82150000Y-103580000D02*
X80400000Y-103580000D01*
X159790488Y-101576279D02*
X157950000Y-101575000D01*
X121110000Y-92940000D02*
X121100000Y-69710000D01*
X102500000Y-58450000D02*
X96900000Y-58450000D01*
X163550000Y-144700000D02*
X161810000Y-144700000D01*
X92900000Y-144700000D02*
X86100000Y-144700000D01*
X82150000Y-101576279D02*
X80410000Y-101576279D01*
X180165488Y-65710000D02*
X180145000Y-69710000D01*
G04 #@! TO.C,mouse-bite-2mm-slot*
X174330000Y-146700000D02*
G75*
G03*
X174330000Y-144700000I0J1000000D01*
G01*
X178330000Y-144700000D02*
G75*
G03*
X178330000Y-146700000I0J-1000000D01*
G01*
X163570000Y-146700000D02*
G75*
G03*
X163570000Y-144700000I0J1000000D01*
G01*
X167570000Y-144700000D02*
G75*
G03*
X167570000Y-146700000I0J-1000000D01*
G01*
X153910000Y-146700000D02*
G75*
G03*
X153910000Y-144700000I0J1000000D01*
G01*
X157910000Y-144700000D02*
G75*
G03*
X157910000Y-146700000I0J-1000000D01*
G01*
X143190000Y-146700000D02*
G75*
G03*
X143190000Y-144700000I0J1000000D01*
G01*
X147190000Y-144700000D02*
G75*
G03*
X147190000Y-146700000I0J-1000000D01*
G01*
X133600000Y-146700000D02*
G75*
G03*
X133600000Y-144700000I0J1000000D01*
G01*
X137600000Y-144700000D02*
G75*
G03*
X137600000Y-146700000I0J-1000000D01*
G01*
X122850000Y-146700000D02*
G75*
G03*
X122850000Y-144700000I0J1000000D01*
G01*
X126850000Y-144700000D02*
G75*
G03*
X126850000Y-146700000I0J-1000000D01*
G01*
X113200000Y-146700000D02*
G75*
G03*
X113200000Y-144700000I0J1000000D01*
G01*
X117200000Y-144700000D02*
G75*
G03*
X117200000Y-146700000I0J-1000000D01*
G01*
X102500000Y-146700000D02*
G75*
G03*
X102500000Y-144700000I0J1000000D01*
G01*
X106500000Y-144700000D02*
G75*
G03*
X106500000Y-146700000I0J-1000000D01*
G01*
X92900000Y-146700000D02*
G75*
G03*
X92900000Y-144700000I0J1000000D01*
G01*
X96900000Y-144700000D02*
G75*
G03*
X96900000Y-146700000I0J-1000000D01*
G01*
X82100000Y-146700000D02*
G75*
G03*
X82100000Y-144700000I0J1000000D01*
G01*
X86100000Y-144700000D02*
G75*
G03*
X86100000Y-146700000I0J-1000000D01*
G01*
G04 #@! TO.C,mouse-bite-2mm-slot20*
X92900000Y-103580000D02*
G75*
G03*
X92900000Y-101580000I0J1000000D01*
G01*
X96900000Y-101580000D02*
G75*
G03*
X96900000Y-103580000I0J-1000000D01*
G01*
G04 #@! TO.C,mouse-bite-2mm-slot4*
X113250000Y-60450000D02*
G75*
G03*
X113250000Y-58450000I0J1000000D01*
G01*
X117250000Y-58450000D02*
G75*
G03*
X117250000Y-60450000I0J-1000000D01*
G01*
G04 #@! TO.C,mouse-bite-2mm-slot3*
X102500000Y-60450000D02*
G75*
G03*
X102500000Y-58450000I0J1000000D01*
G01*
X106500000Y-58450000D02*
G75*
G03*
X106500000Y-60450000I0J-1000000D01*
G01*
G04 #@! TO.C,mouse-bite-2mm-slot6*
X121100000Y-69710000D02*
G75*
G03*
X119100000Y-69710000I-1000000J0D01*
G01*
X119100000Y-65710000D02*
G75*
G03*
X121100000Y-65710000I1000000J0D01*
G01*
G04 #@! TO.C,mouse-bite-2mm-slot23*
X102500000Y-103580000D02*
G75*
G03*
X102500000Y-101580000I0J1000000D01*
G01*
X106500000Y-101580000D02*
G75*
G03*
X106500000Y-103580000I0J-1000000D01*
G01*
G04 #@! TO.C,mouse-bite-2mm-slot2*
X100750000Y-69710000D02*
G75*
G03*
X98750000Y-69710000I-1000000J0D01*
G01*
X98750000Y-65710000D02*
G75*
G03*
X100750000Y-65710000I1000000J0D01*
G01*
G04 #@! TO.C,mouse-bite-2mm-slot24*
X113250000Y-103580000D02*
G75*
G03*
X113250000Y-101580000I0J1000000D01*
G01*
X117250000Y-101580000D02*
G75*
G03*
X117250000Y-103580000I0J-1000000D01*
G01*
G04 #@! TO.C,mouse-bite-2mm-slot35*
X163550000Y-103580000D02*
G75*
G03*
X163550000Y-101580000I0J1000000D01*
G01*
X167550000Y-101580000D02*
G75*
G03*
X167550000Y-103580000I0J-1000000D01*
G01*
G04 #@! TO.C,mouse-bite-2mm-slot36*
X174300000Y-103580000D02*
G75*
G03*
X174300000Y-101580000I0J1000000D01*
G01*
X178300000Y-101580000D02*
G75*
G03*
X178300000Y-103580000I0J-1000000D01*
G01*
G04 #@! TO.C,mouse-bite-2mm-slot15*
X163550000Y-60450000D02*
G75*
G03*
X163550000Y-58450000I0J1000000D01*
G01*
X167550000Y-58450000D02*
G75*
G03*
X167550000Y-60450000I0J-1000000D01*
G01*
G04 #@! TO.C,mouse-bite-2mm-slot13*
X161810000Y-96960000D02*
G75*
G03*
X159810000Y-96960000I-1000000J0D01*
G01*
X159810000Y-92960000D02*
G75*
G03*
X161810000Y-92960000I1000000J0D01*
G01*
G04 #@! TO.C,mouse-bite-2mm-slot1*
X100760000Y-96960000D02*
G75*
G03*
X98760000Y-96960000I-1000000J0D01*
G01*
X98760000Y-92960000D02*
G75*
G03*
X100760000Y-92960000I1000000J0D01*
G01*
G04 #@! TO.C,mouse-bite-2mm-slot30*
X141450000Y-112840000D02*
G75*
G03*
X139450000Y-112840000I-1000000J0D01*
G01*
X139450000Y-108840000D02*
G75*
G03*
X141450000Y-108840000I1000000J0D01*
G01*
G04 #@! TO.C,mouse-bite-2mm-slot7*
X122850000Y-60450000D02*
G75*
G03*
X122850000Y-58450000I0J1000000D01*
G01*
X126850000Y-58450000D02*
G75*
G03*
X126850000Y-60450000I0J-1000000D01*
G01*
G04 #@! TO.C,mouse-bite-2mm-slot14*
X161800000Y-69710000D02*
G75*
G03*
X159800000Y-69710000I-1000000J0D01*
G01*
X159800000Y-65710000D02*
G75*
G03*
X161800000Y-65710000I1000000J0D01*
G01*
G04 #@! TO.C,mouse-bite-2mm-slot*
X82150000Y-60450000D02*
G75*
G03*
X82150000Y-58450000I0J1000000D01*
G01*
X86150000Y-58450000D02*
G75*
G03*
X86150000Y-60450000I0J-1000000D01*
G01*
G04 #@! TO.C,mouse-bite-2mm-slot16*
X174300000Y-60450000D02*
G75*
G03*
X174300000Y-58450000I0J1000000D01*
G01*
X178300000Y-58450000D02*
G75*
G03*
X178300000Y-60450000I0J-1000000D01*
G01*
G04 #@! TO.C,mouse-bite-2mm-slot9*
X141460000Y-96960000D02*
G75*
G03*
X139460000Y-96960000I-1000000J0D01*
G01*
X139460000Y-92960000D02*
G75*
G03*
X141460000Y-92960000I1000000J0D01*
G01*
G04 #@! TO.C,mouse-bite-2mm-slot12*
X153950000Y-60450000D02*
G75*
G03*
X153950000Y-58450000I0J1000000D01*
G01*
X157950000Y-58450000D02*
G75*
G03*
X157950000Y-60450000I0J-1000000D01*
G01*
G04 #@! TO.C,mouse-bite-2mm-slot5*
X121110000Y-96960000D02*
G75*
G03*
X119110000Y-96960000I-1000000J0D01*
G01*
X119110000Y-92960000D02*
G75*
G03*
X121110000Y-92960000I1000000J0D01*
G01*
G04 #@! TO.C,mouse-bite-2mm-slot28*
X133600000Y-103580000D02*
G75*
G03*
X133600000Y-101580000I0J1000000D01*
G01*
X137600000Y-101580000D02*
G75*
G03*
X137600000Y-103580000I0J-1000000D01*
G01*
G04 #@! TO.C,mouse-bite-2mm-slot8*
X133600000Y-60450000D02*
G75*
G03*
X133600000Y-58450000I0J1000000D01*
G01*
X137600000Y-58450000D02*
G75*
G03*
X137600000Y-60450000I0J-1000000D01*
G01*
G04 #@! TO.C,mouse-bite-2mm-slot26*
X121100000Y-112840000D02*
G75*
G03*
X119100000Y-112840000I-1000000J0D01*
G01*
X119100000Y-108840000D02*
G75*
G03*
X121100000Y-108840000I1000000J0D01*
G01*
G04 #@! TO.C,mouse-bite-2mm-slot*
X92900000Y-60450000D02*
G75*
G03*
X92900000Y-58450000I0J1000000D01*
G01*
X96900000Y-58450000D02*
G75*
G03*
X96900000Y-60450000I0J-1000000D01*
G01*
G04 #@! TO.C,mouse-bite-2mm-slot19*
X82150000Y-103580000D02*
G75*
G03*
X82150000Y-101580000I0J1000000D01*
G01*
X86150000Y-101580000D02*
G75*
G03*
X86150000Y-103580000I0J-1000000D01*
G01*
G04 #@! TO.C,mouse-bite-2mm-slot32*
X153950000Y-103580000D02*
G75*
G03*
X153950000Y-101580000I0J1000000D01*
G01*
X157950000Y-101580000D02*
G75*
G03*
X157950000Y-103580000I0J-1000000D01*
G01*
G04 #@! TO.C,mouse-bite-2mm-slot34*
X161800000Y-112840000D02*
G75*
G03*
X159800000Y-112840000I-1000000J0D01*
G01*
X159800000Y-108840000D02*
G75*
G03*
X161800000Y-108840000I1000000J0D01*
G01*
G04 #@! TO.C,mouse-bite-2mm-slot25*
X121110000Y-140090000D02*
G75*
G03*
X119110000Y-140090000I-1000000J0D01*
G01*
X119110000Y-136090000D02*
G75*
G03*
X121110000Y-136090000I1000000J0D01*
G01*
G04 #@! TO.C,mouse-bite-2mm-slot10*
X141450000Y-69710000D02*
G75*
G03*
X139450000Y-69710000I-1000000J0D01*
G01*
X139450000Y-65710000D02*
G75*
G03*
X141450000Y-65710000I1000000J0D01*
G01*
G04 #@! TO.C,mouse-bite-2mm-slot21*
X100760000Y-140090000D02*
G75*
G03*
X98760000Y-140090000I-1000000J0D01*
G01*
X98760000Y-136090000D02*
G75*
G03*
X100760000Y-136090000I1000000J0D01*
G01*
G04 #@! TO.C,mouse-bite-2mm-slot27*
X122850000Y-103580000D02*
G75*
G03*
X122850000Y-101580000I0J1000000D01*
G01*
X126850000Y-101580000D02*
G75*
G03*
X126850000Y-103580000I0J-1000000D01*
G01*
G04 #@! TO.C,mouse-bite-2mm-slot11*
X143200000Y-60450000D02*
G75*
G03*
X143200000Y-58450000I0J1000000D01*
G01*
X147200000Y-58450000D02*
G75*
G03*
X147200000Y-60450000I0J-1000000D01*
G01*
G04 #@! TO.C,mouse-bite-2mm-slot31*
X143200000Y-103580000D02*
G75*
G03*
X143200000Y-101580000I0J1000000D01*
G01*
X147200000Y-101580000D02*
G75*
G03*
X147200000Y-103580000I0J-1000000D01*
G01*
G04 #@! TO.C,mouse-bite-2mm-slot22*
X100750000Y-112840000D02*
G75*
G03*
X98750000Y-112840000I-1000000J0D01*
G01*
X98750000Y-108840000D02*
G75*
G03*
X100750000Y-108840000I1000000J0D01*
G01*
G04 #@! TO.C,mouse-bite-2mm-slot33*
X161810000Y-140090000D02*
G75*
G03*
X159810000Y-140090000I-1000000J0D01*
G01*
X159810000Y-136090000D02*
G75*
G03*
X161810000Y-136090000I1000000J0D01*
G01*
G04 #@! TO.C,mouse-bite-2mm-slot29*
X141460000Y-140090000D02*
G75*
G03*
X139460000Y-140090000I-1000000J0D01*
G01*
X139460000Y-136090000D02*
G75*
G03*
X141460000Y-136090000I1000000J0D01*
G01*
G04 #@! TD*
M02*
