M48
INCH,TZ
T1C0.0118
T2C0.0157
T3C0.0256
T4C0.0276
T5C0.0315
%
G90
G05
T1
X32827Y-26306
X32827Y-43286
X32854Y-27129
X32854Y-44098
X33042Y-25432
X33042Y-42412
X33382Y-32392
X33382Y-49373
X33396Y-28069
X33396Y-45050
X33425Y-24010
X33425Y-40991
X33583Y-27548
X33583Y-44528
X33595Y-24499
X33595Y-41479
X33691Y-30766
X33691Y-47747
X33697Y-27176
X33697Y-44156
X33744Y-25676
X33744Y-42656
X33858Y-34547
X33898Y-51476
X34164Y-36111
X34164Y-53091
X34262Y-30304
X34262Y-47284
X34567Y-26603
X34567Y-43583
X34595Y-31128
X34595Y-48109
X34712Y-30185
X34712Y-47166
X34790Y-29713
X34790Y-46693
X34811Y-26254
X34811Y-43235
X34839Y-30384
X34839Y-47365
X34862Y-27390
X34862Y-44371
X34965Y-35384
X34965Y-52365
X34973Y-34073
X34973Y-51054
X34977Y-31487
X34977Y-48467
X34981Y-35656
X34981Y-52636
X35036Y-29282
X35036Y-46262
X35128Y-25038
X35128Y-42018
X35248Y-31113
X35248Y-48093
X35311Y-29715
X35311Y-46695
X35355Y-35404
X35355Y-52384
X35374Y-30223
X35374Y-30223
X35374Y-47203
X35374Y-47203
X35461Y-36349
X35461Y-53329
X35488Y-30995
X35488Y-33790
X35488Y-47975
X35488Y-50770
X35542Y-25038
X35542Y-42018
X35646Y-36191
X35646Y-53172
X35705Y-33042
X35705Y-50022
X35744Y-31054
X35744Y-48034
X35764Y-31546
X35764Y-32176
X35764Y-48526
X35764Y-49156
X35858Y-36306
X35858Y-53286
X36020Y-31034
X36020Y-48014
X36083Y-34664
X36083Y-51644
X36138Y-31851
X36138Y-48831
X36197Y-31290
X36197Y-48270
X36319Y-30382
X36319Y-47363
X36339Y-29587
X36358Y-46555
X36433Y-34676
X36433Y-51656
X36654Y-30688
X36654Y-47668
X36811Y-27126
X36850Y-44114
X36910Y-29004
X36910Y-45985
X36945Y-32432
X36945Y-49412
X37303Y-29900
X37303Y-30294
X37303Y-46880
X37303Y-47274
X37392Y-31908
X37392Y-48888
X37677Y-39154
X37677Y-56122
X40839Y-26306
X40839Y-43286
X40866Y-27129
X40878Y-44114
X41053Y-25432
X41053Y-42412
X41394Y-32392
X41394Y-49373
X41408Y-28069
X41408Y-45050
X41437Y-24010
X41437Y-40991
X41595Y-27548
X41595Y-44528
X41606Y-24499
X41606Y-41479
X41703Y-30766
X41703Y-47747
X41709Y-27176
X41709Y-44156
X41756Y-25676
X41756Y-42656
X41870Y-51496
X41909Y-34547
X42175Y-36111
X42175Y-53091
X42274Y-30304
X42274Y-47284
X42579Y-26603
X42579Y-43583
X42606Y-31128
X42606Y-48109
X42724Y-30185
X42724Y-47166
X42801Y-29713
X42801Y-46693
X42823Y-26254
X42823Y-43235
X42851Y-30384
X42851Y-47365
X42874Y-27390
X42874Y-44371
X42977Y-35384
X42977Y-52365
X42984Y-34073
X42984Y-51054
X42988Y-31487
X42988Y-48467
X42992Y-35656
X42992Y-52636
X43047Y-29282
X43047Y-46262
X43140Y-25038
X43140Y-42018
X43260Y-31113
X43260Y-48093
X43323Y-29715
X43323Y-46695
X43366Y-35404
X43366Y-52384
X43386Y-30223
X43386Y-30223
X43386Y-47203
X43386Y-47203
X43473Y-36349
X43473Y-53329
X43500Y-30995
X43500Y-33790
X43500Y-47975
X43500Y-50770
X43553Y-25038
X43553Y-42018
X43658Y-36191
X43658Y-53172
X43717Y-33042
X43717Y-50022
X43756Y-31054
X43756Y-48034
X43776Y-31546
X43776Y-32176
X43776Y-48526
X43776Y-49156
X43870Y-36306
X43870Y-53286
X44032Y-31034
X44032Y-48014
X44095Y-34664
X44095Y-51644
X44150Y-31851
X44150Y-48831
X44209Y-31290
X44209Y-48270
X44331Y-29606
X44331Y-30382
X44331Y-47363
X44350Y-46575
X44445Y-34676
X44445Y-51656
X44666Y-30688
X44666Y-47668
X44823Y-44094
X44843Y-27106
X44921Y-29004
X44921Y-45985
X44957Y-32432
X44957Y-49412
X45315Y-29900
X45315Y-30294
X45315Y-46880
X45315Y-47274
X45404Y-31908
X45404Y-48888
X45689Y-39134
X45689Y-56319
X48851Y-26306
X48851Y-43286
X48870Y-44114
X48878Y-27129
X49065Y-25432
X49065Y-42412
X49406Y-32392
X49406Y-49373
X49419Y-28069
X49419Y-45050
X49449Y-24010
X49449Y-40991
X49606Y-27548
X49606Y-44528
X49618Y-24499
X49618Y-41479
X49715Y-30766
X49715Y-47747
X49721Y-27176
X49721Y-44156
X49768Y-25676
X49768Y-42656
X49862Y-51516
X49921Y-34528
X50187Y-36111
X50187Y-53091
X50286Y-30304
X50286Y-47284
X50591Y-26603
X50591Y-43583
X50618Y-31128
X50618Y-48109
X50736Y-30185
X50736Y-47166
X50813Y-29713
X50813Y-46693
X50835Y-26254
X50835Y-43235
X50862Y-30384
X50862Y-47365
X50886Y-27390
X50886Y-44371
X50988Y-35384
X50988Y-52365
X50996Y-34073
X50996Y-51054
X51000Y-31487
X51000Y-48467
X51004Y-35656
X51004Y-52636
X51059Y-29282
X51059Y-46262
X51152Y-25038
X51152Y-42018
X51272Y-31113
X51272Y-48093
X51335Y-29715
X51335Y-46695
X51378Y-35404
X51378Y-52384
X51398Y-30223
X51398Y-30223
X51398Y-47203
X51398Y-47203
X51484Y-36349
X51484Y-53329
X51512Y-30995
X51512Y-33790
X51512Y-47975
X51512Y-50770
X51565Y-25038
X51565Y-42018
X51669Y-36191
X51669Y-53172
X51729Y-33042
X51729Y-50022
X51768Y-31054
X51768Y-48034
X51788Y-31546
X51788Y-32176
X51788Y-48526
X51788Y-49156
X51882Y-36306
X51882Y-53286
X52043Y-31034
X52043Y-48014
X52106Y-34664
X52106Y-51644
X52162Y-31851
X52162Y-48831
X52221Y-31290
X52221Y-48270
X52343Y-29606
X52343Y-30382
X52343Y-47363
X52362Y-46555
X52457Y-34676
X52457Y-51656
X52677Y-30688
X52677Y-47668
X52815Y-27146
X52815Y-44094
X52933Y-29004
X52933Y-45985
X52969Y-32432
X52969Y-49412
X53327Y-29900
X53327Y-30294
X53327Y-46880
X53327Y-47274
X53416Y-31908
X53416Y-48888
X53701Y-39114
X53701Y-56280
X56862Y-26306
X56862Y-43286
X56882Y-44114
X56890Y-27129
X57077Y-25432
X57077Y-42412
X57418Y-32392
X57418Y-49373
X57431Y-28069
X57431Y-45050
X57461Y-24010
X57461Y-40991
X57618Y-27548
X57618Y-44528
X57630Y-24499
X57630Y-41479
X57727Y-30766
X57727Y-47747
X57732Y-27176
X57732Y-44156
X57780Y-25676
X57780Y-42656
X57913Y-51516
X57933Y-34528
X58199Y-36111
X58199Y-53091
X58297Y-30304
X58297Y-47284
X58603Y-26603
X58603Y-43583
X58630Y-31128
X58630Y-48109
X58747Y-30185
X58747Y-47166
X58825Y-29713
X58825Y-46693
X58847Y-26254
X58847Y-43235
X58874Y-30384
X58874Y-47365
X58898Y-27390
X58898Y-44371
X59000Y-35384
X59000Y-52365
X59008Y-34073
X59008Y-51054
X59012Y-31487
X59012Y-48467
X59016Y-35656
X59016Y-52636
X59071Y-29282
X59071Y-46262
X59164Y-25038
X59164Y-42018
X59284Y-31113
X59284Y-48093
X59347Y-29715
X59347Y-46695
X59390Y-35404
X59390Y-52384
X59410Y-30223
X59410Y-30223
X59410Y-47203
X59410Y-47203
X59496Y-36349
X59496Y-53329
X59524Y-30995
X59524Y-33790
X59524Y-47975
X59524Y-50770
X59577Y-25038
X59577Y-42018
X59681Y-36191
X59681Y-53172
X59740Y-33042
X59740Y-50022
X59780Y-31054
X59780Y-48034
X59799Y-31546
X59799Y-32176
X59799Y-48526
X59799Y-49156
X59894Y-36306
X59894Y-53286
X60055Y-31034
X60055Y-48014
X60118Y-34664
X60118Y-51644
X60173Y-31851
X60173Y-48831
X60232Y-31290
X60232Y-48270
X60355Y-30382
X60355Y-47363
X60374Y-29587
X60374Y-46575
X60469Y-34676
X60469Y-51656
X60689Y-30688
X60689Y-47668
X60807Y-27126
X60827Y-44094
X60945Y-29004
X60945Y-45985
X60981Y-32432
X60981Y-49412
X61339Y-29900
X61339Y-30294
X61339Y-46880
X61339Y-47274
X61427Y-31908
X61427Y-48888
X61693Y-39134
X61713Y-56142
X63811Y-29857
X64874Y-26306
X64874Y-43286
X64893Y-44114
X64902Y-27126
X65089Y-25432
X65089Y-42412
X65429Y-32392
X65429Y-49373
X65443Y-28069
X65443Y-45050
X65473Y-24010
X65473Y-40991
X65630Y-27548
X65630Y-44528
X65642Y-24499
X65642Y-41479
X65738Y-30766
X65738Y-47747
X65744Y-27176
X65744Y-44156
X65792Y-25676
X65792Y-42656
X65965Y-34528
X65965Y-51535
X66211Y-36111
X66211Y-53091
X66309Y-30304
X66309Y-47284
X66614Y-26603
X66614Y-43583
X66642Y-31128
X66642Y-48109
X66759Y-30185
X66759Y-47166
X66837Y-29713
X66837Y-46693
X66858Y-26254
X66858Y-43235
X66886Y-30384
X66886Y-47365
X66910Y-27390
X66910Y-44371
X67012Y-35384
X67012Y-52365
X67020Y-34073
X67020Y-51054
X67024Y-31487
X67024Y-48467
X67028Y-35656
X67028Y-52636
X67083Y-29282
X67083Y-46262
X67175Y-25038
X67175Y-42018
X67295Y-31113
X67295Y-48093
X67358Y-29715
X67358Y-46695
X67402Y-35404
X67402Y-52384
X67421Y-30223
X67421Y-30223
X67421Y-47203
X67421Y-47203
X67508Y-36349
X67508Y-53329
X67536Y-30995
X67536Y-33790
X67536Y-47975
X67536Y-50770
X67589Y-25038
X67589Y-42018
X67693Y-36191
X67693Y-53172
X67752Y-33042
X67752Y-50022
X67792Y-31054
X67792Y-48034
X67811Y-31546
X67811Y-32176
X67811Y-48526
X67811Y-49156
X67906Y-36306
X67906Y-53286
X68067Y-31034
X68067Y-48014
X68130Y-34664
X68130Y-51644
X68185Y-31851
X68185Y-48831
X68244Y-31290
X68244Y-48270
X68366Y-46555
X68366Y-30382
X68366Y-47363
X68425Y-29567
X68481Y-34676
X68481Y-51656
X68701Y-30688
X68701Y-47668
X68839Y-44094
X68858Y-27106
X68957Y-29004
X68957Y-45985
X68992Y-32432
X68992Y-49412
X69350Y-29370
X69351Y-29900
X69351Y-30294
X69351Y-46880
X69351Y-47274
X69439Y-31908
X69439Y-48888
X69685Y-39094
X69724Y-56142
T2
X33760Y-30353
X33760Y-47333
X36112Y-26249
X36112Y-43229
X41772Y-30353
X41772Y-47333
X44124Y-26249
X44124Y-43229
X49784Y-30353
X49784Y-47333
X52136Y-26249
X52136Y-43229
X57795Y-30353
X57795Y-47333
X60148Y-26249
X60148Y-43229
X65807Y-30353
X65807Y-47333
X68160Y-26249
X68160Y-43229
T5
X32283Y-24406
X32283Y-25194
X32283Y-25981
X32283Y-26768
X32283Y-27556
X32283Y-28343
X32283Y-29131
X32283Y-29918
X32283Y-30705
X32283Y-31493
X32283Y-32280
X32283Y-33068
X32283Y-33855
X32283Y-34642
X32283Y-35430
X32283Y-36217
X32283Y-37005
X32283Y-37792
X32283Y-38579
X32283Y-39367
X32283Y-41387
X32283Y-42174
X32283Y-42961
X32283Y-43749
X32283Y-44536
X32283Y-45324
X32283Y-46111
X32283Y-46898
X32283Y-47686
X32283Y-48473
X32283Y-49261
X32283Y-50048
X32283Y-50835
X32283Y-51623
X32283Y-52410
X32283Y-53198
X32283Y-53985
X32283Y-54772
X32283Y-55560
X32283Y-56347
X34488Y-39359
X34488Y-56339
X35276Y-39359
X35276Y-56339
X36063Y-39359
X36063Y-56339
X38264Y-24400
X38264Y-25188
X38264Y-25975
X38264Y-26762
X38264Y-27550
X38264Y-28337
X38264Y-29125
X38264Y-29912
X38264Y-30699
X38264Y-31487
X38264Y-32274
X38264Y-33062
X38264Y-33849
X38264Y-34636
X38264Y-35424
X38264Y-36211
X38264Y-36999
X38264Y-37786
X38264Y-38573
X38264Y-39361
X38264Y-41380
X38264Y-42168
X38264Y-42955
X38264Y-43743
X38264Y-44530
X38264Y-45317
X38264Y-46105
X38264Y-46892
X38264Y-47680
X38264Y-48467
X38264Y-49254
X38264Y-50042
X38264Y-50829
X38264Y-51617
X38264Y-52404
X38264Y-53191
X38264Y-53979
X38264Y-54766
X38264Y-55554
X38264Y-56341
X40295Y-24406
X40295Y-25194
X40295Y-25981
X40295Y-26768
X40295Y-27556
X40295Y-28343
X40295Y-29131
X40295Y-29918
X40295Y-30705
X40295Y-31493
X40295Y-32280
X40295Y-33068
X40295Y-33855
X40295Y-34642
X40295Y-35430
X40295Y-36217
X40295Y-37005
X40295Y-37792
X40295Y-38579
X40295Y-39367
X40295Y-41387
X40295Y-42174
X40295Y-42961
X40295Y-43749
X40295Y-44536
X40295Y-45324
X40295Y-46111
X40295Y-46898
X40295Y-47686
X40295Y-48473
X40295Y-49261
X40295Y-50048
X40295Y-50835
X40295Y-51623
X40295Y-52410
X40295Y-53198
X40295Y-53985
X40295Y-54772
X40295Y-55560
X40295Y-56347
X42500Y-39359
X42500Y-56339
X43288Y-39359
X43288Y-56339
X44075Y-39359
X44075Y-56339
X46276Y-24400
X46276Y-25188
X46276Y-25975
X46276Y-26762
X46276Y-27550
X46276Y-28337
X46276Y-29125
X46276Y-29912
X46276Y-30699
X46276Y-31487
X46276Y-32274
X46276Y-33062
X46276Y-33849
X46276Y-34636
X46276Y-35424
X46276Y-36211
X46276Y-36999
X46276Y-37786
X46276Y-38573
X46276Y-39361
X46276Y-41380
X46276Y-42168
X46276Y-42955
X46276Y-43743
X46276Y-44530
X46276Y-45317
X46276Y-46105
X46276Y-46892
X46276Y-47680
X46276Y-48467
X46276Y-49254
X46276Y-50042
X46276Y-50829
X46276Y-51617
X46276Y-52404
X46276Y-53191
X46276Y-53979
X46276Y-54766
X46276Y-55554
X46276Y-56341
X48307Y-24406
X48307Y-25194
X48307Y-25981
X48307Y-26768
X48307Y-27556
X48307Y-28343
X48307Y-29131
X48307Y-29918
X48307Y-30705
X48307Y-31493
X48307Y-32280
X48307Y-33068
X48307Y-33855
X48307Y-34642
X48307Y-35430
X48307Y-36217
X48307Y-37005
X48307Y-37792
X48307Y-38579
X48307Y-39367
X48307Y-41387
X48307Y-42174
X48307Y-42961
X48307Y-43749
X48307Y-44536
X48307Y-45324
X48307Y-46111
X48307Y-46898
X48307Y-47686
X48307Y-48473
X48307Y-49261
X48307Y-50048
X48307Y-50835
X48307Y-51623
X48307Y-52410
X48307Y-53198
X48307Y-53985
X48307Y-54772
X48307Y-55560
X48307Y-56347
X50512Y-39359
X50512Y-56339
X51299Y-39359
X51299Y-56339
X52087Y-39359
X52087Y-56339
X54288Y-24400
X54288Y-25188
X54288Y-25975
X54288Y-26762
X54288Y-27550
X54288Y-28337
X54288Y-29125
X54288Y-29912
X54288Y-30699
X54288Y-31487
X54288Y-32274
X54288Y-33062
X54288Y-33849
X54288Y-34636
X54288Y-35424
X54288Y-36211
X54288Y-36999
X54288Y-37786
X54288Y-38573
X54288Y-39361
X54288Y-41380
X54288Y-42168
X54288Y-42955
X54288Y-43743
X54288Y-44530
X54288Y-45317
X54288Y-46105
X54288Y-46892
X54288Y-47680
X54288Y-48467
X54288Y-49254
X54288Y-50042
X54288Y-50829
X54288Y-51617
X54288Y-52404
X54288Y-53191
X54288Y-53979
X54288Y-54766
X54288Y-55554
X54288Y-56341
X56319Y-24406
X56319Y-25194
X56319Y-25981
X56319Y-26768
X56319Y-27556
X56319Y-28343
X56319Y-29131
X56319Y-29918
X56319Y-30705
X56319Y-31493
X56319Y-32280
X56319Y-33068
X56319Y-33855
X56319Y-34642
X56319Y-35430
X56319Y-36217
X56319Y-37005
X56319Y-37792
X56319Y-38579
X56319Y-39367
X56319Y-41387
X56319Y-42174
X56319Y-42961
X56319Y-43749
X56319Y-44536
X56319Y-45324
X56319Y-46111
X56319Y-46898
X56319Y-47686
X56319Y-48473
X56319Y-49261
X56319Y-50048
X56319Y-50835
X56319Y-51623
X56319Y-52410
X56319Y-53198
X56319Y-53985
X56319Y-54772
X56319Y-55560
X56319Y-56347
X58524Y-39359
X58524Y-56339
X59311Y-39359
X59311Y-56339
X60099Y-39359
X60099Y-56339
X62299Y-24400
X62299Y-25188
X62299Y-25975
X62299Y-26762
X62299Y-27550
X62299Y-28337
X62299Y-29125
X62299Y-29912
X62299Y-30699
X62299Y-31487
X62299Y-32274
X62299Y-33062
X62299Y-33849
X62299Y-34636
X62299Y-35424
X62299Y-36211
X62299Y-36999
X62299Y-37786
X62299Y-38573
X62299Y-39361
X62299Y-41380
X62299Y-42168
X62299Y-42955
X62299Y-43743
X62299Y-44530
X62299Y-45317
X62299Y-46105
X62299Y-46892
X62299Y-47680
X62299Y-48467
X62299Y-49254
X62299Y-50042
X62299Y-50829
X62299Y-51617
X62299Y-52404
X62299Y-53191
X62299Y-53979
X62299Y-54766
X62299Y-55554
X62299Y-56341
X64331Y-24406
X64331Y-25194
X64331Y-25981
X64331Y-26768
X64331Y-27556
X64331Y-28343
X64331Y-29131
X64331Y-29918
X64331Y-30705
X64331Y-31493
X64331Y-32280
X64331Y-33068
X64331Y-33855
X64331Y-34642
X64331Y-35430
X64331Y-36217
X64331Y-37005
X64331Y-37792
X64331Y-38579
X64331Y-39367
X64331Y-41387
X64331Y-42174
X64331Y-42961
X64331Y-43749
X64331Y-44536
X64331Y-45324
X64331Y-46111
X64331Y-46898
X64331Y-47686
X64331Y-48473
X64331Y-49261
X64331Y-50048
X64331Y-50835
X64331Y-51623
X64331Y-52410
X64331Y-53198
X64331Y-53985
X64331Y-54772
X64331Y-55560
X64331Y-56347
X66536Y-39359
X66536Y-56339
X67323Y-39359
X67323Y-56339
X68110Y-39359
X68110Y-56339
X70311Y-24400
X70311Y-25188
X70311Y-25975
X70311Y-26762
X70311Y-27550
X70311Y-28337
X70311Y-29125
X70311Y-29912
X70311Y-30699
X70311Y-31487
X70311Y-32274
X70311Y-33062
X70311Y-33849
X70311Y-34636
X70311Y-35424
X70311Y-36211
X70311Y-36999
X70311Y-37786
X70311Y-38573
X70311Y-39361
X70311Y-41380
X70311Y-42168
X70311Y-42955
X70311Y-43743
X70311Y-44530
X70311Y-45317
X70311Y-46105
X70311Y-46892
X70311Y-47680
X70311Y-48467
X70311Y-49254
X70311Y-50042
X70311Y-50829
X70311Y-51617
X70311Y-52404
X70311Y-53191
X70311Y-53979
X70311Y-54766
X70311Y-55554
X70311Y-56341
T3
G00X34229Y-25573
M15
G01X34229Y-25731
M16
G05
G00X34229Y-42554
M15
G01X34229Y-42711
M16
G05
G00X36134Y-25573
M15
G01X36134Y-25731
M16
G05
G00X36134Y-42554
M15
G01X36134Y-42711
M16
G05
G00X42240Y-25573
M15
G01X42240Y-25731
M16
G05
G00X42240Y-42554
M15
G01X42240Y-42711
M16
G05
G00X44146Y-25573
M15
G01X44146Y-25731
M16
G05
G00X44146Y-42554
M15
G01X44146Y-42711
M16
G05
G00X50252Y-25573
M15
G01X50252Y-25731
M16
G05
G00X50252Y-42554
M15
G01X50252Y-42711
M16
G05
G00X52158Y-25573
M15
G01X52158Y-25731
M16
G05
G00X52158Y-42554
M15
G01X52158Y-42711
M16
G05
G00X58264Y-25573
M15
G01X58264Y-25731
M16
G05
G00X58264Y-42554
M15
G01X58264Y-42711
M16
G05
G00X60169Y-25573
M15
G01X60169Y-25731
M16
G05
G00X60169Y-42554
M15
G01X60169Y-42711
M16
G05
G00X66276Y-25573
M15
G01X66276Y-25731
M16
G05
G00X66276Y-42554
M15
G01X66276Y-42711
M16
G05
G00X68181Y-25573
M15
G01X68181Y-25731
M16
G05
G00X68181Y-42554
M15
G01X68181Y-42711
M16
G05
T4
G00X34106Y-24373
M15
G01X34106Y-24569
M16
G05
G00X34106Y-41353
M15
G01X34106Y-41550
M16
G05
G00X36256Y-24373
M15
G01X36256Y-24569
M16
G05
G00X36256Y-41353
M15
G01X36256Y-41550
M16
G05
G00X42118Y-24373
M15
G01X42118Y-24569
M16
G05
G00X42118Y-41353
M15
G01X42118Y-41550
M16
G05
G00X44268Y-24373
M15
G01X44268Y-24569
M16
G05
G00X44268Y-41353
M15
G01X44268Y-41550
M16
G05
G00X50130Y-24373
M15
G01X50130Y-24569
M16
G05
G00X50130Y-41353
M15
G01X50130Y-41550
M16
G05
G00X52280Y-24373
M15
G01X52280Y-24569
M16
G05
G00X52280Y-41353
M15
G01X52280Y-41550
M16
G05
G00X58142Y-24373
M15
G01X58142Y-24569
M16
G05
G00X58142Y-41353
M15
G01X58142Y-41550
M16
G05
G00X60292Y-24373
M15
G01X60292Y-24569
M16
G05
G00X60292Y-41353
M15
G01X60292Y-41550
M16
G05
G00X66154Y-24373
M15
G01X66154Y-24569
M16
G05
G00X66154Y-41353
M15
G01X66154Y-41550
M16
G05
G00X68303Y-24373
M15
G01X68303Y-24569
M16
G05
G00X68303Y-41353
M15
G01X68303Y-41550
M16
G05
T0
M30
