M48
INCH,TZ
T1C0.0197
%
G90
G05
T1
X32815Y-57067
X32815Y-57657
X32835Y-23110
X32835Y-23701
X32835Y-40091
X32835Y-40681
X33110Y-57067
X33110Y-57657
X33130Y-23110
X33130Y-23701
X33130Y-40091
X33130Y-40681
X33406Y-57067
X33406Y-57657
X33425Y-23110
X33425Y-23701
X33425Y-40091
X33425Y-40681
X37067Y-23110
X37067Y-23701
X37067Y-40091
X37067Y-40681
X37067Y-57067
X37067Y-57657
X37362Y-23110
X37362Y-23701
X37362Y-40091
X37362Y-40681
X37362Y-57067
X37362Y-57657
X37657Y-23110
X37657Y-23701
X37657Y-40091
X37657Y-40681
X37657Y-57067
X37657Y-57657
X38976Y-26362
X38976Y-26657
X38976Y-26953
X38976Y-43343
X38976Y-43638
X38976Y-43933
X38980Y-37091
X38980Y-37386
X38980Y-37681
X38980Y-54071
X38980Y-54366
X38980Y-54661
X39567Y-26362
X39567Y-26657
X39567Y-26953
X39567Y-43343
X39567Y-43638
X39567Y-43933
X39571Y-37091
X39571Y-37386
X39571Y-37681
X39571Y-54071
X39571Y-54366
X39571Y-54661
X40846Y-23110
X40846Y-23701
X40846Y-40091
X40846Y-40681
X40846Y-57067
X40846Y-57657
X41142Y-23110
X41142Y-23701
X41142Y-40091
X41142Y-40681
X41142Y-57067
X41142Y-57657
X41437Y-23110
X41437Y-23701
X41437Y-40091
X41437Y-40681
X41437Y-57067
X41437Y-57657
X45059Y-57067
X45059Y-57657
X45079Y-23110
X45079Y-23701
X45079Y-40091
X45079Y-40681
X45354Y-57067
X45354Y-57657
X45374Y-23110
X45374Y-23701
X45374Y-40091
X45374Y-40681
X45650Y-57067
X45650Y-57657
X45669Y-23110
X45669Y-23701
X45669Y-40091
X45669Y-40681
X46988Y-26362
X46988Y-26657
X46988Y-26953
X46988Y-43343
X46988Y-43638
X46988Y-43933
X46992Y-37091
X46992Y-37386
X46992Y-37681
X46992Y-54071
X46992Y-54366
X46992Y-54661
X47579Y-26362
X47579Y-26657
X47579Y-26953
X47579Y-43343
X47579Y-43638
X47579Y-43933
X47583Y-37091
X47583Y-37386
X47583Y-37681
X47583Y-54071
X47583Y-54366
X47583Y-54661
X48858Y-23110
X48858Y-23701
X48858Y-40091
X48858Y-40681
X48858Y-57067
X48858Y-57657
X49154Y-23110
X49154Y-23701
X49154Y-40091
X49154Y-40681
X49154Y-57067
X49154Y-57657
X49449Y-23110
X49449Y-23701
X49449Y-40091
X49449Y-40681
X49449Y-57067
X49449Y-57657
X53091Y-23110
X53091Y-23701
X53091Y-40091
X53091Y-40681
X53091Y-57067
X53091Y-57657
X53386Y-23110
X53386Y-23701
X53386Y-40091
X53386Y-40681
X53386Y-57067
X53386Y-57657
X53681Y-23110
X53681Y-23701
X53681Y-40091
X53681Y-40681
X53681Y-57067
X53681Y-57657
X55000Y-26362
X55000Y-26657
X55000Y-26953
X55000Y-43343
X55000Y-43638
X55000Y-43933
X55004Y-37091
X55004Y-37386
X55004Y-37681
X55004Y-54071
X55004Y-54366
X55004Y-54661
X55591Y-26362
X55591Y-26657
X55591Y-26953
X55591Y-43343
X55591Y-43638
X55591Y-43933
X55594Y-37091
X55594Y-37386
X55594Y-37681
X55594Y-54071
X55594Y-54366
X55594Y-54661
X56866Y-57067
X56866Y-57657
X56870Y-23110
X56870Y-23701
X56870Y-40091
X56870Y-40681
X57161Y-57067
X57161Y-57657
X57165Y-23110
X57165Y-23701
X57165Y-40091
X57165Y-40681
X57457Y-57067
X57457Y-57657
X57461Y-23110
X57461Y-23701
X57461Y-40091
X57461Y-40681
X61087Y-57067
X61087Y-57657
X61102Y-23110
X61102Y-23701
X61102Y-40091
X61102Y-40681
X61382Y-57067
X61382Y-57657
X61398Y-23110
X61398Y-23701
X61398Y-40091
X61398Y-40681
X61677Y-57067
X61677Y-57657
X61693Y-23110
X61693Y-23701
X61693Y-40091
X61693Y-40681
X63012Y-26362
X63012Y-26657
X63012Y-26953
X63012Y-43343
X63012Y-43638
X63012Y-43933
X63016Y-37091
X63016Y-37386
X63016Y-37681
X63016Y-54071
X63016Y-54366
X63016Y-54661
X63602Y-26362
X63602Y-26657
X63602Y-26953
X63602Y-43343
X63602Y-43638
X63602Y-43933
X63606Y-37091
X63606Y-37386
X63606Y-37681
X63606Y-54071
X63606Y-54366
X63606Y-54661
X64882Y-23110
X64882Y-23701
X64882Y-40091
X64882Y-40681
X64890Y-57067
X64890Y-57657
X65177Y-23110
X65177Y-23701
X65177Y-40091
X65177Y-40681
X65185Y-57067
X65185Y-57657
X65472Y-23110
X65472Y-23701
X65472Y-40091
X65472Y-40681
X65480Y-57067
X65480Y-57657
X69114Y-23110
X69114Y-23701
X69114Y-40091
X69114Y-40681
X69126Y-57067
X69126Y-57657
X69409Y-23110
X69409Y-23701
X69409Y-40091
X69409Y-40681
X69421Y-57067
X69421Y-57657
X69705Y-23110
X69705Y-23701
X69705Y-40091
X69705Y-40681
X69717Y-57067
X69717Y-57657
T0
M30
