G04 #@! TF.GenerationSoftware,KiCad,Pcbnew,7.0.6*
G04 #@! TF.CreationDate,2023-08-06T12:05:31+07:00*
G04 #@! TF.ProjectId,RP2040-Test-MassProduction,52503230-3430-42d5-9465-73742d4d6173,rev?*
G04 #@! TF.SameCoordinates,Original*
G04 #@! TF.FileFunction,Paste,Bot*
G04 #@! TF.FilePolarity,Positive*
%FSLAX46Y46*%
G04 Gerber Fmt 4.6, Leading zero omitted, Abs format (unit mm)*
G04 Created by KiCad (PCBNEW 7.0.6) date 2023-08-06 12:05:31*
%MOMM*%
%LPD*%
G01*
G04 APERTURE LIST*
G04 Aperture macros list*
%AMRoundRect*
0 Rectangle with rounded corners*
0 $1 Rounding radius*
0 $2 $3 $4 $5 $6 $7 $8 $9 X,Y pos of 4 corners*
0 Add a 4 corners polygon primitive as box body*
4,1,4,$2,$3,$4,$5,$6,$7,$8,$9,$2,$3,0*
0 Add four circle primitives for the rounded corners*
1,1,$1+$1,$2,$3*
1,1,$1+$1,$4,$5*
1,1,$1+$1,$6,$7*
1,1,$1+$1,$8,$9*
0 Add four rect primitives between the rounded corners*
20,1,$1+$1,$2,$3,$4,$5,0*
20,1,$1+$1,$4,$5,$6,$7,0*
20,1,$1+$1,$6,$7,$8,$9,0*
20,1,$1+$1,$8,$9,$2,$3,0*%
G04 Aperture macros list end*
%ADD10RoundRect,0.079500X-0.079500X-0.100500X0.079500X-0.100500X0.079500X0.100500X-0.079500X0.100500X0*%
%ADD11RoundRect,0.150000X-0.150000X0.512500X-0.150000X-0.512500X0.150000X-0.512500X0.150000X0.512500X0*%
%ADD12RoundRect,0.079500X0.079500X0.100500X-0.079500X0.100500X-0.079500X-0.100500X0.079500X-0.100500X0*%
%ADD13RoundRect,0.079500X-0.100500X0.079500X-0.100500X-0.079500X0.100500X-0.079500X0.100500X0.079500X0*%
%ADD14RoundRect,0.150000X-0.150000X0.650000X-0.150000X-0.650000X0.150000X-0.650000X0.150000X0.650000X0*%
%ADD15RoundRect,0.079500X0.100500X-0.079500X0.100500X0.079500X-0.100500X0.079500X-0.100500X-0.079500X0*%
G04 #@! TA.AperFunction,Profile*
%ADD16C,0.100000*%
G04 #@! TD*
%ADD17C,0.150000*%
G04 #@! TA.AperFunction,Profile*
%ADD18C,0.050000*%
G04 #@! TD*
G04 APERTURE END LIST*
D10*
G04 #@! TO.C,C105*
X133587988Y-119476279D03*
X134277988Y-119476279D03*
G04 #@! TD*
G04 #@! TO.C,C87*
X111937988Y-129476279D03*
X112627988Y-129476279D03*
G04 #@! TD*
D11*
G04 #@! TO.C,U10*
X152975488Y-67896279D03*
X153925488Y-67896279D03*
X154875488Y-67896279D03*
X154875488Y-70171279D03*
X152975488Y-70171279D03*
G04 #@! TD*
D12*
G04 #@! TO.C,C43*
X151512988Y-67071279D03*
X150822988Y-67071279D03*
G04 #@! TD*
D13*
G04 #@! TO.C,C39*
X133275488Y-81658779D03*
X133275488Y-82348779D03*
G04 #@! TD*
G04 #@! TO.C,C123*
X153625488Y-124788779D03*
X153625488Y-125478779D03*
G04 #@! TD*
G04 #@! TO.C,C130*
X173225488Y-126613779D03*
X173225488Y-127303779D03*
G04 #@! TD*
D12*
G04 #@! TO.C,C113*
X151512988Y-110201279D03*
X150822988Y-110201279D03*
G04 #@! TD*
D10*
G04 #@! TO.C,C31*
X132287988Y-86346279D03*
X132977988Y-86346279D03*
G04 #@! TD*
D13*
G04 #@! TO.C,C68*
X174700488Y-84583779D03*
X174700488Y-85273779D03*
G04 #@! TD*
G04 #@! TO.C,C16*
X105125488Y-84433779D03*
X105125488Y-85123779D03*
G04 #@! TD*
D12*
G04 #@! TO.C,C120*
X150337988Y-129176279D03*
X149647988Y-129176279D03*
G04 #@! TD*
G04 #@! TO.C,C36*
X129987988Y-86046279D03*
X129297988Y-86046279D03*
G04 #@! TD*
D10*
G04 #@! TO.C,C101*
X132287988Y-129476279D03*
X132977988Y-129476279D03*
G04 #@! TD*
D12*
G04 #@! TO.C,C52*
X147562988Y-86246279D03*
X146872988Y-86246279D03*
G04 #@! TD*
D13*
G04 #@! TO.C,C95*
X112925488Y-124788779D03*
X112925488Y-125478779D03*
G04 #@! TD*
D10*
G04 #@! TO.C,C129*
X172987988Y-129476279D03*
X173677988Y-129476279D03*
G04 #@! TD*
D13*
G04 #@! TO.C,C124*
X154350488Y-127713779D03*
X154350488Y-128403779D03*
G04 #@! TD*
D10*
G04 #@! TO.C,C3*
X91587988Y-86346279D03*
X92277988Y-86346279D03*
G04 #@! TD*
G04 #@! TO.C,C35*
X133587988Y-76346279D03*
X134277988Y-76346279D03*
G04 #@! TD*
G04 #@! TO.C,C77*
X92887988Y-119476279D03*
X93577988Y-119476279D03*
G04 #@! TD*
D12*
G04 #@! TO.C,C80*
X86512988Y-129376279D03*
X85822988Y-129376279D03*
G04 #@! TD*
D14*
G04 #@! TO.C,U24*
X126525488Y-118601279D03*
X127795488Y-118601279D03*
X129065488Y-118601279D03*
X130335488Y-118601279D03*
X130335488Y-125801279D03*
X129065488Y-125801279D03*
X127795488Y-125801279D03*
X126525488Y-125801279D03*
G04 #@! TD*
D12*
G04 #@! TO.C,C8*
X89287988Y-86046279D03*
X88597988Y-86046279D03*
G04 #@! TD*
D15*
G04 #@! TO.C,C65*
X172600488Y-76498779D03*
X172600488Y-75808779D03*
G04 #@! TD*
D13*
G04 #@! TO.C,C74*
X91825488Y-126613779D03*
X91825488Y-127303779D03*
G04 #@! TD*
D11*
G04 #@! TO.C,U25*
X152975488Y-111026279D03*
X153925488Y-111026279D03*
X154875488Y-111026279D03*
X154875488Y-113301279D03*
X152975488Y-113301279D03*
G04 #@! TD*
D13*
G04 #@! TO.C,C60*
X173225488Y-83483779D03*
X173225488Y-84173779D03*
G04 #@! TD*
D12*
G04 #@! TO.C,C134*
X170687988Y-129176279D03*
X169997988Y-129176279D03*
G04 #@! TD*
D11*
G04 #@! TO.C,U7*
X132625488Y-67896279D03*
X133575488Y-67896279D03*
X134525488Y-67896279D03*
X134525488Y-70171279D03*
X132625488Y-70171279D03*
G04 #@! TD*
D14*
G04 #@! TO.C,U15*
X167225488Y-75471279D03*
X168495488Y-75471279D03*
X169765488Y-75471279D03*
X171035488Y-75471279D03*
X171035488Y-82671279D03*
X169765488Y-82671279D03*
X168495488Y-82671279D03*
X167225488Y-82671279D03*
G04 #@! TD*
D13*
G04 #@! TO.C,C11*
X92575488Y-81658779D03*
X92575488Y-82348779D03*
G04 #@! TD*
D12*
G04 #@! TO.C,R27*
X149562988Y-116451279D03*
X148872988Y-116451279D03*
G04 #@! TD*
D15*
G04 #@! TO.C,C23*
X111550488Y-76498779D03*
X111550488Y-75808779D03*
G04 #@! TD*
D12*
G04 #@! TO.C,C127*
X171862988Y-110201279D03*
X171172988Y-110201279D03*
G04 #@! TD*
D13*
G04 #@! TO.C,C6*
X91490488Y-79513779D03*
X91490488Y-80203779D03*
G04 #@! TD*
D10*
G04 #@! TO.C,C49*
X153937988Y-76346279D03*
X154627988Y-76346279D03*
G04 #@! TD*
G04 #@! TO.C,C21*
X113237988Y-76346279D03*
X113927988Y-76346279D03*
G04 #@! TD*
D13*
G04 #@! TO.C,C75*
X92700488Y-122613779D03*
X92700488Y-123303779D03*
G04 #@! TD*
G04 #@! TO.C,C47*
X153750488Y-79483779D03*
X153750488Y-80173779D03*
G04 #@! TD*
D12*
G04 #@! TO.C,C136*
X167912988Y-129376279D03*
X167222988Y-129376279D03*
G04 #@! TD*
D13*
G04 #@! TO.C,C132*
X172890488Y-122643779D03*
X172890488Y-123333779D03*
G04 #@! TD*
G04 #@! TO.C,C4*
X91825488Y-83483779D03*
X91825488Y-84173779D03*
G04 #@! TD*
D12*
G04 #@! TO.C,C85*
X110812988Y-110201279D03*
X110122988Y-110201279D03*
G04 #@! TD*
D13*
G04 #@! TO.C,C30*
X125475488Y-84433779D03*
X125475488Y-85123779D03*
G04 #@! TD*
D12*
G04 #@! TO.C,R30*
X169912988Y-116451279D03*
X169222988Y-116451279D03*
G04 #@! TD*
D13*
G04 #@! TO.C,C89*
X113050488Y-122613779D03*
X113050488Y-123303779D03*
G04 #@! TD*
G04 #@! TO.C,C114*
X145825488Y-127563779D03*
X145825488Y-128253779D03*
G04 #@! TD*
D10*
G04 #@! TO.C,C63*
X174287988Y-76346279D03*
X174977988Y-76346279D03*
G04 #@! TD*
D12*
G04 #@! TO.C,R18*
X88512988Y-116451279D03*
X87822988Y-116451279D03*
G04 #@! TD*
D14*
G04 #@! TO.C,U21*
X106175488Y-118601279D03*
X107445488Y-118601279D03*
X108715488Y-118601279D03*
X109985488Y-118601279D03*
X109985488Y-125801279D03*
X108715488Y-125801279D03*
X107445488Y-125801279D03*
X106175488Y-125801279D03*
G04 #@! TD*
D13*
G04 #@! TO.C,C25*
X112925488Y-81658779D03*
X112925488Y-82348779D03*
G04 #@! TD*
D10*
G04 #@! TO.C,C59*
X172987988Y-86346279D03*
X173677988Y-86346279D03*
G04 #@! TD*
D13*
G04 #@! TO.C,C34*
X132190488Y-79513779D03*
X132190488Y-80203779D03*
G04 #@! TD*
D15*
G04 #@! TO.C,C51*
X152250488Y-76498779D03*
X152250488Y-75808779D03*
G04 #@! TD*
D12*
G04 #@! TO.C,R9*
X129212988Y-73321279D03*
X128522988Y-73321279D03*
G04 #@! TD*
D13*
G04 #@! TO.C,C5*
X92700488Y-79483779D03*
X92700488Y-80173779D03*
G04 #@! TD*
D12*
G04 #@! TO.C,C99*
X131162988Y-110201279D03*
X130472988Y-110201279D03*
G04 #@! TD*
D14*
G04 #@! TO.C,U9*
X126525488Y-75471279D03*
X127795488Y-75471279D03*
X129065488Y-75471279D03*
X130335488Y-75471279D03*
X130335488Y-82671279D03*
X129065488Y-82671279D03*
X127795488Y-82671279D03*
X126525488Y-82671279D03*
G04 #@! TD*
D12*
G04 #@! TO.C,R12*
X149562988Y-73321279D03*
X148872988Y-73321279D03*
G04 #@! TD*
D13*
G04 #@! TO.C,C33*
X133400488Y-79483779D03*
X133400488Y-80173779D03*
G04 #@! TD*
G04 #@! TO.C,C128*
X166175488Y-127563779D03*
X166175488Y-128253779D03*
G04 #@! TD*
D12*
G04 #@! TO.C,C122*
X147562988Y-129376279D03*
X146872988Y-129376279D03*
G04 #@! TD*
D13*
G04 #@! TO.C,C54*
X154350488Y-84583779D03*
X154350488Y-85273779D03*
G04 #@! TD*
D10*
G04 #@! TO.C,C119*
X153937988Y-119476279D03*
X154627988Y-119476279D03*
G04 #@! TD*
D13*
G04 #@! TO.C,C61*
X174100488Y-79483779D03*
X174100488Y-80173779D03*
G04 #@! TD*
D14*
G04 #@! TO.C,U3*
X85825488Y-75471279D03*
X87095488Y-75471279D03*
X88365488Y-75471279D03*
X89635488Y-75471279D03*
X89635488Y-82671279D03*
X88365488Y-82671279D03*
X87095488Y-82671279D03*
X85825488Y-82671279D03*
G04 #@! TD*
D15*
G04 #@! TO.C,C79*
X91200488Y-119628779D03*
X91200488Y-118938779D03*
G04 #@! TD*
D13*
G04 #@! TO.C,C88*
X112175488Y-126613779D03*
X112175488Y-127303779D03*
G04 #@! TD*
D14*
G04 #@! TO.C,U27*
X146875488Y-118601279D03*
X148145488Y-118601279D03*
X149415488Y-118601279D03*
X150685488Y-118601279D03*
X150685488Y-125801279D03*
X149415488Y-125801279D03*
X148145488Y-125801279D03*
X146875488Y-125801279D03*
G04 #@! TD*
D13*
G04 #@! TO.C,C118*
X152540488Y-122643779D03*
X152540488Y-123333779D03*
G04 #@! TD*
G04 #@! TO.C,C131*
X174100488Y-122613779D03*
X174100488Y-123303779D03*
G04 #@! TD*
G04 #@! TO.C,C40*
X134000488Y-84583779D03*
X134000488Y-85273779D03*
G04 #@! TD*
D12*
G04 #@! TO.C,C94*
X106862988Y-129376279D03*
X106172988Y-129376279D03*
G04 #@! TD*
G04 #@! TO.C,R6*
X108862988Y-73321279D03*
X108172988Y-73321279D03*
G04 #@! TD*
D10*
G04 #@! TO.C,C115*
X152637988Y-129476279D03*
X153327988Y-129476279D03*
G04 #@! TD*
D12*
G04 #@! TO.C,C108*
X127212988Y-129376279D03*
X126522988Y-129376279D03*
G04 #@! TD*
D10*
G04 #@! TO.C,C17*
X111937988Y-86346279D03*
X112627988Y-86346279D03*
G04 #@! TD*
D13*
G04 #@! TO.C,C86*
X105125488Y-127563779D03*
X105125488Y-128253779D03*
G04 #@! TD*
G04 #@! TO.C,C72*
X84775488Y-127563779D03*
X84775488Y-128253779D03*
G04 #@! TD*
D12*
G04 #@! TO.C,C92*
X109637988Y-129176279D03*
X108947988Y-129176279D03*
G04 #@! TD*
D13*
G04 #@! TO.C,C19*
X113050488Y-79483779D03*
X113050488Y-80173779D03*
G04 #@! TD*
D12*
G04 #@! TO.C,C50*
X150337988Y-86046279D03*
X149647988Y-86046279D03*
G04 #@! TD*
D13*
G04 #@! TO.C,C100*
X125475488Y-127563779D03*
X125475488Y-128253779D03*
G04 #@! TD*
D10*
G04 #@! TO.C,C7*
X92887988Y-76346279D03*
X93577988Y-76346279D03*
G04 #@! TD*
D13*
G04 #@! TO.C,C96*
X113650488Y-127713779D03*
X113650488Y-128403779D03*
G04 #@! TD*
D11*
G04 #@! TO.C,U22*
X132625488Y-111026279D03*
X133575488Y-111026279D03*
X134525488Y-111026279D03*
X134525488Y-113301279D03*
X132625488Y-113301279D03*
G04 #@! TD*
D12*
G04 #@! TO.C,C10*
X86512988Y-86246279D03*
X85822988Y-86246279D03*
G04 #@! TD*
D13*
G04 #@! TO.C,C76*
X91490488Y-122643779D03*
X91490488Y-123333779D03*
G04 #@! TD*
G04 #@! TO.C,C2*
X84775488Y-84433779D03*
X84775488Y-85123779D03*
G04 #@! TD*
D14*
G04 #@! TO.C,U30*
X167225488Y-118601279D03*
X168495488Y-118601279D03*
X169765488Y-118601279D03*
X171035488Y-118601279D03*
X171035488Y-125801279D03*
X169765488Y-125801279D03*
X168495488Y-125801279D03*
X167225488Y-125801279D03*
G04 #@! TD*
D12*
G04 #@! TO.C,C15*
X110812988Y-67071279D03*
X110122988Y-67071279D03*
G04 #@! TD*
D14*
G04 #@! TO.C,U12*
X146875488Y-75471279D03*
X148145488Y-75471279D03*
X149415488Y-75471279D03*
X150685488Y-75471279D03*
X150685488Y-82671279D03*
X149415488Y-82671279D03*
X148145488Y-82671279D03*
X146875488Y-82671279D03*
G04 #@! TD*
D13*
G04 #@! TO.C,C81*
X92575488Y-124788779D03*
X92575488Y-125478779D03*
G04 #@! TD*
D11*
G04 #@! TO.C,U4*
X112275488Y-67896279D03*
X113225488Y-67896279D03*
X114175488Y-67896279D03*
X114175488Y-70171279D03*
X112275488Y-70171279D03*
G04 #@! TD*
D13*
G04 #@! TO.C,C46*
X152875488Y-83483779D03*
X152875488Y-84173779D03*
G04 #@! TD*
D11*
G04 #@! TO.C,U28*
X173325488Y-111026279D03*
X174275488Y-111026279D03*
X175225488Y-111026279D03*
X175225488Y-113301279D03*
X173325488Y-113301279D03*
G04 #@! TD*
G04 #@! TO.C,U1*
X91925488Y-67896279D03*
X92875488Y-67896279D03*
X93825488Y-67896279D03*
X93825488Y-70171279D03*
X91925488Y-70171279D03*
G04 #@! TD*
D13*
G04 #@! TO.C,C117*
X153750488Y-122613779D03*
X153750488Y-123303779D03*
G04 #@! TD*
D15*
G04 #@! TO.C,C9*
X91200488Y-76498779D03*
X91200488Y-75808779D03*
G04 #@! TD*
G04 #@! TO.C,C37*
X131900488Y-76498779D03*
X131900488Y-75808779D03*
G04 #@! TD*
D12*
G04 #@! TO.C,C106*
X129987988Y-129176279D03*
X129297988Y-129176279D03*
G04 #@! TD*
D13*
G04 #@! TO.C,C62*
X172890488Y-79513779D03*
X172890488Y-80203779D03*
G04 #@! TD*
G04 #@! TO.C,C18*
X112175488Y-83483779D03*
X112175488Y-84173779D03*
G04 #@! TD*
G04 #@! TO.C,C58*
X166175488Y-84433779D03*
X166175488Y-85123779D03*
G04 #@! TD*
G04 #@! TO.C,C48*
X152540488Y-79513779D03*
X152540488Y-80203779D03*
G04 #@! TD*
G04 #@! TO.C,C116*
X152875488Y-126613779D03*
X152875488Y-127303779D03*
G04 #@! TD*
D14*
G04 #@! TO.C,U6*
X106175488Y-75471279D03*
X107445488Y-75471279D03*
X108715488Y-75471279D03*
X109985488Y-75471279D03*
X109985488Y-82671279D03*
X108715488Y-82671279D03*
X107445488Y-82671279D03*
X106175488Y-82671279D03*
G04 #@! TD*
D12*
G04 #@! TO.C,R3*
X88512988Y-73321279D03*
X87822988Y-73321279D03*
G04 #@! TD*
G04 #@! TO.C,C1*
X90462988Y-67071279D03*
X89772988Y-67071279D03*
G04 #@! TD*
D13*
G04 #@! TO.C,C102*
X132525488Y-126613779D03*
X132525488Y-127303779D03*
G04 #@! TD*
D11*
G04 #@! TO.C,U19*
X112275488Y-111026279D03*
X113225488Y-111026279D03*
X114175488Y-111026279D03*
X114175488Y-113301279D03*
X112275488Y-113301279D03*
G04 #@! TD*
D12*
G04 #@! TO.C,C57*
X171862988Y-67071279D03*
X171172988Y-67071279D03*
G04 #@! TD*
G04 #@! TO.C,C78*
X89287988Y-129176279D03*
X88597988Y-129176279D03*
G04 #@! TD*
D14*
G04 #@! TO.C,U18*
X85825488Y-118601279D03*
X87095488Y-118601279D03*
X88365488Y-118601279D03*
X89635488Y-118601279D03*
X89635488Y-125801279D03*
X88365488Y-125801279D03*
X87095488Y-125801279D03*
X85825488Y-125801279D03*
G04 #@! TD*
D12*
G04 #@! TO.C,C38*
X127212988Y-86246279D03*
X126522988Y-86246279D03*
G04 #@! TD*
D13*
G04 #@! TO.C,C44*
X145825488Y-84433779D03*
X145825488Y-85123779D03*
G04 #@! TD*
D12*
G04 #@! TO.C,R24*
X129212988Y-116451279D03*
X128522988Y-116451279D03*
G04 #@! TD*
D13*
G04 #@! TO.C,C26*
X113650488Y-84583779D03*
X113650488Y-85273779D03*
G04 #@! TD*
D10*
G04 #@! TO.C,C91*
X113237988Y-119476279D03*
X113927988Y-119476279D03*
G04 #@! TD*
D11*
G04 #@! TO.C,U13*
X173325488Y-67896279D03*
X174275488Y-67896279D03*
X175225488Y-67896279D03*
X175225488Y-70171279D03*
X173325488Y-70171279D03*
G04 #@! TD*
D12*
G04 #@! TO.C,C64*
X170687988Y-86046279D03*
X169997988Y-86046279D03*
G04 #@! TD*
D13*
G04 #@! TO.C,C104*
X132190488Y-122643779D03*
X132190488Y-123333779D03*
G04 #@! TD*
D12*
G04 #@! TO.C,R15*
X169912988Y-73321279D03*
X169222988Y-73321279D03*
G04 #@! TD*
D15*
G04 #@! TO.C,C93*
X111550488Y-119628779D03*
X111550488Y-118938779D03*
G04 #@! TD*
D13*
G04 #@! TO.C,C110*
X134000488Y-127713779D03*
X134000488Y-128403779D03*
G04 #@! TD*
D15*
G04 #@! TO.C,C107*
X131900488Y-119628779D03*
X131900488Y-118938779D03*
G04 #@! TD*
D13*
G04 #@! TO.C,C90*
X111840488Y-122643779D03*
X111840488Y-123333779D03*
G04 #@! TD*
D12*
G04 #@! TO.C,C71*
X90462988Y-110201279D03*
X89772988Y-110201279D03*
G04 #@! TD*
D15*
G04 #@! TO.C,C135*
X172600488Y-119628779D03*
X172600488Y-118938779D03*
G04 #@! TD*
D12*
G04 #@! TO.C,C24*
X106862988Y-86246279D03*
X106172988Y-86246279D03*
G04 #@! TD*
D13*
G04 #@! TO.C,C82*
X93300488Y-127713779D03*
X93300488Y-128403779D03*
G04 #@! TD*
D10*
G04 #@! TO.C,C133*
X174287988Y-119476279D03*
X174977988Y-119476279D03*
G04 #@! TD*
D11*
G04 #@! TO.C,U16*
X91925488Y-111026279D03*
X92875488Y-111026279D03*
X93825488Y-111026279D03*
X93825488Y-113301279D03*
X91925488Y-113301279D03*
G04 #@! TD*
D13*
G04 #@! TO.C,C12*
X93300488Y-84583779D03*
X93300488Y-85273779D03*
G04 #@! TD*
D12*
G04 #@! TO.C,C29*
X131162988Y-67071279D03*
X130472988Y-67071279D03*
G04 #@! TD*
G04 #@! TO.C,C66*
X167912988Y-86246279D03*
X167222988Y-86246279D03*
G04 #@! TD*
D13*
G04 #@! TO.C,C53*
X153625488Y-81658779D03*
X153625488Y-82348779D03*
G04 #@! TD*
G04 #@! TO.C,C109*
X133275488Y-124788779D03*
X133275488Y-125478779D03*
G04 #@! TD*
G04 #@! TO.C,C137*
X173975488Y-124788779D03*
X173975488Y-125478779D03*
G04 #@! TD*
G04 #@! TO.C,C103*
X133400488Y-122613779D03*
X133400488Y-123303779D03*
G04 #@! TD*
D15*
G04 #@! TO.C,C121*
X152250488Y-119628779D03*
X152250488Y-118938779D03*
G04 #@! TD*
D13*
G04 #@! TO.C,C67*
X173975488Y-81658779D03*
X173975488Y-82348779D03*
G04 #@! TD*
G04 #@! TO.C,C32*
X132525488Y-83483779D03*
X132525488Y-84173779D03*
G04 #@! TD*
D12*
G04 #@! TO.C,C22*
X109637988Y-86046279D03*
X108947988Y-86046279D03*
G04 #@! TD*
D13*
G04 #@! TO.C,C20*
X111840488Y-79513779D03*
X111840488Y-80203779D03*
G04 #@! TD*
D10*
G04 #@! TO.C,C73*
X91587988Y-129476279D03*
X92277988Y-129476279D03*
G04 #@! TD*
G04 #@! TO.C,C45*
X152637988Y-86346279D03*
X153327988Y-86346279D03*
G04 #@! TD*
D13*
G04 #@! TO.C,C138*
X174700488Y-127713779D03*
X174700488Y-128403779D03*
G04 #@! TD*
D12*
G04 #@! TO.C,R21*
X108862988Y-116451279D03*
X108172988Y-116451279D03*
G04 #@! TD*
D16*
X174330000Y-146700000D02*
X167570000Y-146700000D01*
X163570000Y-146700000D02*
X157910000Y-146700000D01*
X153910000Y-146700000D02*
X147190000Y-146700000D01*
X137600000Y-146700000D02*
X143190000Y-146700000D01*
X133600000Y-146700000D02*
X126850000Y-146700000D01*
X122850000Y-146700000D02*
X117200000Y-146700000D01*
X113200000Y-146700000D02*
X106500000Y-146700000D01*
X96900000Y-146700000D02*
X102500000Y-146700000D01*
X92900000Y-146700000D02*
X86100000Y-146700000D01*
X180150000Y-146700000D02*
X180150000Y-148600000D01*
X80450000Y-148650000D02*
X180150000Y-148600000D01*
X178330000Y-146700000D02*
X180150000Y-146700000D01*
X80400000Y-146700000D02*
X80400000Y-148650000D01*
D17*
X76404819Y-151246428D02*
X76404819Y-151817856D01*
X76404819Y-151532142D02*
X75404819Y-151532142D01*
X75404819Y-151532142D02*
X75547676Y-151627380D01*
X75547676Y-151627380D02*
X75642914Y-151722618D01*
X75642914Y-151722618D02*
X75690533Y-151817856D01*
X76357200Y-150770237D02*
X76404819Y-150770237D01*
X76404819Y-150770237D02*
X76500057Y-150817856D01*
X76500057Y-150817856D02*
X76547676Y-150865475D01*
X76404819Y-150294047D02*
X76404819Y-150103571D01*
X76404819Y-150103571D02*
X76357200Y-150008333D01*
X76357200Y-150008333D02*
X76309580Y-149960714D01*
X76309580Y-149960714D02*
X76166723Y-149865476D01*
X76166723Y-149865476D02*
X75976247Y-149817857D01*
X75976247Y-149817857D02*
X75595295Y-149817857D01*
X75595295Y-149817857D02*
X75500057Y-149865476D01*
X75500057Y-149865476D02*
X75452438Y-149913095D01*
X75452438Y-149913095D02*
X75404819Y-150008333D01*
X75404819Y-150008333D02*
X75404819Y-150198809D01*
X75404819Y-150198809D02*
X75452438Y-150294047D01*
X75452438Y-150294047D02*
X75500057Y-150341666D01*
X75500057Y-150341666D02*
X75595295Y-150389285D01*
X75595295Y-150389285D02*
X75833390Y-150389285D01*
X75833390Y-150389285D02*
X75928628Y-150341666D01*
X75928628Y-150341666D02*
X75976247Y-150294047D01*
X75976247Y-150294047D02*
X76023866Y-150198809D01*
X76023866Y-150198809D02*
X76023866Y-150008333D01*
X76023866Y-150008333D02*
X75976247Y-149913095D01*
X75976247Y-149913095D02*
X75928628Y-149865476D01*
X75928628Y-149865476D02*
X75833390Y-149817857D01*
X75404819Y-148913095D02*
X75404819Y-149389285D01*
X75404819Y-149389285D02*
X75881009Y-149436904D01*
X75881009Y-149436904D02*
X75833390Y-149389285D01*
X75833390Y-149389285D02*
X75785771Y-149294047D01*
X75785771Y-149294047D02*
X75785771Y-149055952D01*
X75785771Y-149055952D02*
X75833390Y-148960714D01*
X75833390Y-148960714D02*
X75881009Y-148913095D01*
X75881009Y-148913095D02*
X75976247Y-148865476D01*
X75976247Y-148865476D02*
X76214342Y-148865476D01*
X76214342Y-148865476D02*
X76309580Y-148913095D01*
X76309580Y-148913095D02*
X76357200Y-148960714D01*
X76357200Y-148960714D02*
X76404819Y-149055952D01*
X76404819Y-149055952D02*
X76404819Y-149294047D01*
X76404819Y-149294047D02*
X76357200Y-149389285D01*
X76357200Y-149389285D02*
X76309580Y-149436904D01*
X75404819Y-148246428D02*
X75404819Y-148151190D01*
X75404819Y-148151190D02*
X75452438Y-148055952D01*
X75452438Y-148055952D02*
X75500057Y-148008333D01*
X75500057Y-148008333D02*
X75595295Y-147960714D01*
X75595295Y-147960714D02*
X75785771Y-147913095D01*
X75785771Y-147913095D02*
X76023866Y-147913095D01*
X76023866Y-147913095D02*
X76214342Y-147960714D01*
X76214342Y-147960714D02*
X76309580Y-148008333D01*
X76309580Y-148008333D02*
X76357200Y-148055952D01*
X76357200Y-148055952D02*
X76404819Y-148151190D01*
X76404819Y-148151190D02*
X76404819Y-148246428D01*
X76404819Y-148246428D02*
X76357200Y-148341666D01*
X76357200Y-148341666D02*
X76309580Y-148389285D01*
X76309580Y-148389285D02*
X76214342Y-148436904D01*
X76214342Y-148436904D02*
X76023866Y-148484523D01*
X76023866Y-148484523D02*
X75785771Y-148484523D01*
X75785771Y-148484523D02*
X75595295Y-148436904D01*
X75595295Y-148436904D02*
X75500057Y-148389285D01*
X75500057Y-148389285D02*
X75452438Y-148341666D01*
X75452438Y-148341666D02*
X75404819Y-148246428D01*
X75404819Y-147294047D02*
X75404819Y-147198809D01*
X75404819Y-147198809D02*
X75452438Y-147103571D01*
X75452438Y-147103571D02*
X75500057Y-147055952D01*
X75500057Y-147055952D02*
X75595295Y-147008333D01*
X75595295Y-147008333D02*
X75785771Y-146960714D01*
X75785771Y-146960714D02*
X76023866Y-146960714D01*
X76023866Y-146960714D02*
X76214342Y-147008333D01*
X76214342Y-147008333D02*
X76309580Y-147055952D01*
X76309580Y-147055952D02*
X76357200Y-147103571D01*
X76357200Y-147103571D02*
X76404819Y-147198809D01*
X76404819Y-147198809D02*
X76404819Y-147294047D01*
X76404819Y-147294047D02*
X76357200Y-147389285D01*
X76357200Y-147389285D02*
X76309580Y-147436904D01*
X76309580Y-147436904D02*
X76214342Y-147484523D01*
X76214342Y-147484523D02*
X76023866Y-147532142D01*
X76023866Y-147532142D02*
X75785771Y-147532142D01*
X75785771Y-147532142D02*
X75595295Y-147484523D01*
X75595295Y-147484523D02*
X75500057Y-147436904D01*
X75500057Y-147436904D02*
X75452438Y-147389285D01*
X75452438Y-147389285D02*
X75404819Y-147294047D01*
X76404819Y-145770237D02*
X75738152Y-145770237D01*
X75833390Y-145770237D02*
X75785771Y-145722618D01*
X75785771Y-145722618D02*
X75738152Y-145627380D01*
X75738152Y-145627380D02*
X75738152Y-145484523D01*
X75738152Y-145484523D02*
X75785771Y-145389285D01*
X75785771Y-145389285D02*
X75881009Y-145341666D01*
X75881009Y-145341666D02*
X76404819Y-145341666D01*
X75881009Y-145341666D02*
X75785771Y-145294047D01*
X75785771Y-145294047D02*
X75738152Y-145198809D01*
X75738152Y-145198809D02*
X75738152Y-145055952D01*
X75738152Y-145055952D02*
X75785771Y-144960713D01*
X75785771Y-144960713D02*
X75881009Y-144913094D01*
X75881009Y-144913094D02*
X76404819Y-144913094D01*
X76404819Y-144436904D02*
X75738152Y-144436904D01*
X75833390Y-144436904D02*
X75785771Y-144389285D01*
X75785771Y-144389285D02*
X75738152Y-144294047D01*
X75738152Y-144294047D02*
X75738152Y-144151190D01*
X75738152Y-144151190D02*
X75785771Y-144055952D01*
X75785771Y-144055952D02*
X75881009Y-144008333D01*
X75881009Y-144008333D02*
X76404819Y-144008333D01*
X75881009Y-144008333D02*
X75785771Y-143960714D01*
X75785771Y-143960714D02*
X75738152Y-143865476D01*
X75738152Y-143865476D02*
X75738152Y-143722619D01*
X75738152Y-143722619D02*
X75785771Y-143627380D01*
X75785771Y-143627380D02*
X75881009Y-143579761D01*
X75881009Y-143579761D02*
X76404819Y-143579761D01*
D18*
X79900000Y-146700000D02*
X76513580Y-146700000D01*
X76513580Y-148650000D02*
X79950000Y-148650000D01*
X77100000Y-146700000D02*
X77100000Y-148650000D01*
X77100000Y-146700000D02*
X77100000Y-148650000D01*
X77100000Y-146700000D02*
X77686421Y-147826504D01*
X77100000Y-146700000D02*
X76513579Y-147826504D01*
X77100000Y-148650000D02*
X76513579Y-147523496D01*
X77100000Y-148650000D02*
X77686421Y-147523496D01*
D16*
X82100000Y-146700000D02*
X80400000Y-146700000D01*
X98740488Y-144706279D02*
X98740488Y-140090000D01*
X159805000Y-92940000D02*
X159795000Y-69710000D01*
X119105000Y-136070000D02*
X119095000Y-112840000D01*
X180155000Y-136070000D02*
X180155000Y-140090000D01*
X180155000Y-92940000D02*
X180145000Y-69710000D01*
X121110000Y-144700000D02*
X121110000Y-140090000D01*
X102500000Y-101576279D02*
X100760000Y-101576279D01*
X180165488Y-103581279D02*
X178300000Y-103580000D01*
X139450000Y-60450000D02*
X139450000Y-65710000D01*
X113250000Y-58450000D02*
X106500000Y-58450000D01*
X92900000Y-103580000D02*
X86150000Y-103580000D01*
X80250000Y-58450000D02*
X80250000Y-56500000D01*
X119100000Y-103580000D02*
X119100000Y-108840000D01*
X98750000Y-60450000D02*
X98750000Y-65710000D01*
X141460000Y-136070000D02*
X141450000Y-112840000D01*
X161800000Y-60450000D02*
X161800000Y-65710000D01*
X174300000Y-144700000D02*
X167540000Y-144700000D01*
X139450000Y-103580000D02*
X139450000Y-108840000D01*
X141450000Y-103580000D02*
X141450000Y-108840000D01*
X143200000Y-60450000D02*
X141450000Y-60450000D01*
X139440488Y-144700000D02*
X139440488Y-140090000D01*
X113250000Y-103580000D02*
X106500000Y-103580000D01*
X139450000Y-60450000D02*
X137600000Y-60450000D01*
X122850000Y-103580000D02*
X121100000Y-103580000D01*
X102500000Y-60450000D02*
X100750000Y-60450000D01*
X180250000Y-58450000D02*
X178300000Y-58450000D01*
X139450000Y-103580000D02*
X137600000Y-103580000D01*
X159805000Y-136070000D02*
X159795000Y-112840000D01*
X133600000Y-101580000D02*
X126850000Y-101580000D01*
X141460000Y-92940000D02*
X141450000Y-69710000D01*
X180140488Y-101576279D02*
X178300000Y-101575000D01*
X92900000Y-60450000D02*
X86150000Y-60450000D01*
X98740488Y-144706279D02*
X96900000Y-144705000D01*
X98750000Y-103580000D02*
X98750000Y-108840000D01*
X113250000Y-60450000D02*
X106500000Y-60450000D01*
X159790488Y-144700000D02*
X159790488Y-140090000D01*
X82150000Y-58450000D02*
X80250000Y-58450000D01*
X139440488Y-144700000D02*
X137600000Y-144700000D01*
X98740488Y-101576279D02*
X98740488Y-96960000D01*
X121110000Y-101576279D02*
X121110000Y-96960000D01*
X153950000Y-101580000D02*
X147200000Y-101580000D01*
X139440488Y-101576279D02*
X139440488Y-96960000D01*
X159800000Y-103580000D02*
X159800000Y-108840000D01*
X113240000Y-144700000D02*
X106500000Y-144700000D01*
X180150000Y-60450000D02*
X178300000Y-60450000D01*
X143200000Y-58450000D02*
X137600000Y-58450000D01*
X119090488Y-101576279D02*
X119090488Y-96960000D01*
X159800000Y-103580000D02*
X157950000Y-103580000D01*
X100750000Y-103580000D02*
X100750000Y-108840000D01*
X163550000Y-58450000D02*
X157950000Y-58450000D01*
X122850000Y-144700000D02*
X121110000Y-144700000D01*
X98755000Y-136070000D02*
X98745000Y-112840000D01*
X174300000Y-101580000D02*
X167550000Y-101580000D01*
X161810000Y-92940000D02*
X161800000Y-69710000D01*
X143200000Y-103580000D02*
X141450000Y-103580000D01*
X153950000Y-103580000D02*
X147200000Y-103580000D01*
X133600000Y-103580000D02*
X126850000Y-103580000D01*
X80400000Y-108790000D02*
X80400000Y-112810000D01*
X133600000Y-144700000D02*
X126850000Y-144700000D01*
X159800000Y-60451279D02*
X159800000Y-65710000D01*
X159790488Y-144700000D02*
X157910000Y-144700000D01*
X119100000Y-103580000D02*
X117250000Y-103580000D01*
X163550000Y-103580000D02*
X161800000Y-103580000D01*
X180140488Y-144700000D02*
X178290000Y-144700000D01*
X133600000Y-60450000D02*
X126850000Y-60450000D01*
X161810000Y-136070000D02*
X161800000Y-112840000D01*
X98750000Y-60450000D02*
X96900000Y-60450000D01*
X180165488Y-108840000D02*
X180145000Y-112840000D01*
X98740488Y-101576279D02*
X96900000Y-101575000D01*
X119100000Y-60451279D02*
X119100000Y-65710000D01*
X98755000Y-92940000D02*
X98745000Y-69710000D01*
X153950000Y-58450000D02*
X147200000Y-58450000D01*
X92900000Y-58450000D02*
X86150000Y-58450000D01*
X100750000Y-60450000D02*
X100750000Y-65710000D01*
X113250000Y-101580000D02*
X106500000Y-101580000D01*
X139455000Y-92940000D02*
X139445000Y-69710000D01*
X139440488Y-101576279D02*
X137600000Y-101575000D01*
X143210000Y-144700000D02*
X141460000Y-144700000D01*
X119100000Y-60451279D02*
X117250000Y-60450000D01*
X119090000Y-144700000D02*
X119090488Y-140090000D01*
X80400000Y-65710000D02*
X80400000Y-69730000D01*
X82100000Y-144700000D02*
X80410000Y-144700000D01*
X141460000Y-144700000D02*
X141460000Y-140090000D01*
X100760000Y-144700000D02*
X100760000Y-140090000D01*
X153950000Y-144700000D02*
X147190000Y-144700000D01*
X80410000Y-92940000D02*
X80400000Y-69710000D01*
X180155000Y-136070000D02*
X180145000Y-112840000D01*
X180250000Y-56500000D02*
X180250000Y-58450000D01*
X174300000Y-58450000D02*
X167550000Y-58450000D01*
X121100000Y-60450000D02*
X121100000Y-65710000D01*
X82150000Y-60450000D02*
X80400000Y-60450000D01*
X180165488Y-103580000D02*
X180165488Y-108840000D01*
X102500000Y-144700000D02*
X100760000Y-144700000D01*
X143200000Y-101576279D02*
X141460000Y-101576279D01*
X80410000Y-144700000D02*
X80410000Y-140090000D01*
X119090488Y-101576279D02*
X117250000Y-101575000D01*
X180140488Y-144700000D02*
X180140488Y-140090000D01*
X100760000Y-101576279D02*
X100760000Y-96960000D01*
X92900000Y-101580000D02*
X86150000Y-101580000D01*
X80410000Y-136070000D02*
X80410000Y-140090000D01*
X121110000Y-136070000D02*
X121100000Y-112840000D01*
X141460000Y-101576279D02*
X141460000Y-96960000D01*
X80250000Y-56500000D02*
X180250000Y-56500000D01*
X80410000Y-136070000D02*
X80400000Y-112840000D01*
X80410000Y-101576279D02*
X80410000Y-96960000D01*
X80400000Y-60450000D02*
X80400000Y-65710000D01*
X159790488Y-101576279D02*
X159790488Y-96960000D01*
X121100000Y-103580000D02*
X121100000Y-108840000D01*
X80410000Y-92940000D02*
X80410000Y-96960000D01*
X180165488Y-60450000D02*
X180165488Y-65710000D01*
X133600000Y-58450000D02*
X126850000Y-58450000D01*
X174300000Y-103580000D02*
X167550000Y-103580000D01*
X122850000Y-58450000D02*
X117250000Y-58450000D01*
X159800000Y-60451279D02*
X157950000Y-60450000D01*
X122850000Y-60450000D02*
X121100000Y-60450000D01*
X119090000Y-144700000D02*
X117200000Y-144700000D01*
X141450000Y-60450000D02*
X141450000Y-65710000D01*
X100760000Y-136070000D02*
X100750000Y-112840000D01*
X174300000Y-60450000D02*
X167550000Y-60450000D01*
X161810000Y-144700000D02*
X161810000Y-140090000D01*
X139455000Y-136070000D02*
X139445000Y-112840000D01*
X98750000Y-103580000D02*
X96900000Y-103580000D01*
X161810000Y-101576279D02*
X161810000Y-96960000D01*
X119105000Y-92940000D02*
X119095000Y-69710000D01*
X180155000Y-92940000D02*
X180140488Y-96960000D01*
X102500000Y-103580000D02*
X100750000Y-103580000D01*
X163550000Y-101576279D02*
X161810000Y-101576279D01*
X180140488Y-101576279D02*
X180140488Y-96960000D01*
X80400000Y-103580000D02*
X80400000Y-108840000D01*
X122850000Y-101576279D02*
X121110000Y-101576279D01*
X161800000Y-103580000D02*
X161800000Y-108840000D01*
X153950000Y-60450000D02*
X147200000Y-60450000D01*
X100760000Y-92940000D02*
X100750000Y-69710000D01*
X163550000Y-60450000D02*
X161800000Y-60450000D01*
X82150000Y-103580000D02*
X80400000Y-103580000D01*
X159790488Y-101576279D02*
X157950000Y-101575000D01*
X121110000Y-92940000D02*
X121100000Y-69710000D01*
X102500000Y-58450000D02*
X96900000Y-58450000D01*
X163550000Y-144700000D02*
X161810000Y-144700000D01*
X92900000Y-144700000D02*
X86100000Y-144700000D01*
X82150000Y-101576279D02*
X80410000Y-101576279D01*
X180165488Y-65710000D02*
X180145000Y-69710000D01*
G04 #@! TO.C,mouse-bite-2mm-slot*
X174330000Y-146700000D02*
G75*
G03*
X174330000Y-144700000I0J1000000D01*
G01*
X178330000Y-144700000D02*
G75*
G03*
X178330000Y-146700000I0J-1000000D01*
G01*
X163570000Y-146700000D02*
G75*
G03*
X163570000Y-144700000I0J1000000D01*
G01*
X167570000Y-144700000D02*
G75*
G03*
X167570000Y-146700000I0J-1000000D01*
G01*
X153910000Y-146700000D02*
G75*
G03*
X153910000Y-144700000I0J1000000D01*
G01*
X157910000Y-144700000D02*
G75*
G03*
X157910000Y-146700000I0J-1000000D01*
G01*
X143190000Y-146700000D02*
G75*
G03*
X143190000Y-144700000I0J1000000D01*
G01*
X147190000Y-144700000D02*
G75*
G03*
X147190000Y-146700000I0J-1000000D01*
G01*
X133600000Y-146700000D02*
G75*
G03*
X133600000Y-144700000I0J1000000D01*
G01*
X137600000Y-144700000D02*
G75*
G03*
X137600000Y-146700000I0J-1000000D01*
G01*
X122850000Y-146700000D02*
G75*
G03*
X122850000Y-144700000I0J1000000D01*
G01*
X126850000Y-144700000D02*
G75*
G03*
X126850000Y-146700000I0J-1000000D01*
G01*
X113200000Y-146700000D02*
G75*
G03*
X113200000Y-144700000I0J1000000D01*
G01*
X117200000Y-144700000D02*
G75*
G03*
X117200000Y-146700000I0J-1000000D01*
G01*
X102500000Y-146700000D02*
G75*
G03*
X102500000Y-144700000I0J1000000D01*
G01*
X106500000Y-144700000D02*
G75*
G03*
X106500000Y-146700000I0J-1000000D01*
G01*
X92900000Y-146700000D02*
G75*
G03*
X92900000Y-144700000I0J1000000D01*
G01*
X96900000Y-144700000D02*
G75*
G03*
X96900000Y-146700000I0J-1000000D01*
G01*
X82100000Y-146700000D02*
G75*
G03*
X82100000Y-144700000I0J1000000D01*
G01*
X86100000Y-144700000D02*
G75*
G03*
X86100000Y-146700000I0J-1000000D01*
G01*
G04 #@! TO.C,mouse-bite-2mm-slot20*
X92900000Y-103580000D02*
G75*
G03*
X92900000Y-101580000I0J1000000D01*
G01*
X96900000Y-101580000D02*
G75*
G03*
X96900000Y-103580000I0J-1000000D01*
G01*
G04 #@! TO.C,mouse-bite-2mm-slot4*
X113250000Y-60450000D02*
G75*
G03*
X113250000Y-58450000I0J1000000D01*
G01*
X117250000Y-58450000D02*
G75*
G03*
X117250000Y-60450000I0J-1000000D01*
G01*
G04 #@! TO.C,mouse-bite-2mm-slot3*
X102500000Y-60450000D02*
G75*
G03*
X102500000Y-58450000I0J1000000D01*
G01*
X106500000Y-58450000D02*
G75*
G03*
X106500000Y-60450000I0J-1000000D01*
G01*
G04 #@! TO.C,mouse-bite-2mm-slot6*
X121100000Y-69710000D02*
G75*
G03*
X119100000Y-69710000I-1000000J0D01*
G01*
X119100000Y-65710000D02*
G75*
G03*
X121100000Y-65710000I1000000J0D01*
G01*
G04 #@! TO.C,mouse-bite-2mm-slot23*
X102500000Y-103580000D02*
G75*
G03*
X102500000Y-101580000I0J1000000D01*
G01*
X106500000Y-101580000D02*
G75*
G03*
X106500000Y-103580000I0J-1000000D01*
G01*
G04 #@! TO.C,mouse-bite-2mm-slot2*
X100750000Y-69710000D02*
G75*
G03*
X98750000Y-69710000I-1000000J0D01*
G01*
X98750000Y-65710000D02*
G75*
G03*
X100750000Y-65710000I1000000J0D01*
G01*
G04 #@! TO.C,mouse-bite-2mm-slot24*
X113250000Y-103580000D02*
G75*
G03*
X113250000Y-101580000I0J1000000D01*
G01*
X117250000Y-101580000D02*
G75*
G03*
X117250000Y-103580000I0J-1000000D01*
G01*
G04 #@! TO.C,mouse-bite-2mm-slot35*
X163550000Y-103580000D02*
G75*
G03*
X163550000Y-101580000I0J1000000D01*
G01*
X167550000Y-101580000D02*
G75*
G03*
X167550000Y-103580000I0J-1000000D01*
G01*
G04 #@! TO.C,mouse-bite-2mm-slot36*
X174300000Y-103580000D02*
G75*
G03*
X174300000Y-101580000I0J1000000D01*
G01*
X178300000Y-101580000D02*
G75*
G03*
X178300000Y-103580000I0J-1000000D01*
G01*
G04 #@! TO.C,mouse-bite-2mm-slot15*
X163550000Y-60450000D02*
G75*
G03*
X163550000Y-58450000I0J1000000D01*
G01*
X167550000Y-58450000D02*
G75*
G03*
X167550000Y-60450000I0J-1000000D01*
G01*
G04 #@! TO.C,mouse-bite-2mm-slot13*
X161810000Y-96960000D02*
G75*
G03*
X159810000Y-96960000I-1000000J0D01*
G01*
X159810000Y-92960000D02*
G75*
G03*
X161810000Y-92960000I1000000J0D01*
G01*
G04 #@! TO.C,mouse-bite-2mm-slot1*
X100760000Y-96960000D02*
G75*
G03*
X98760000Y-96960000I-1000000J0D01*
G01*
X98760000Y-92960000D02*
G75*
G03*
X100760000Y-92960000I1000000J0D01*
G01*
G04 #@! TO.C,mouse-bite-2mm-slot30*
X141450000Y-112840000D02*
G75*
G03*
X139450000Y-112840000I-1000000J0D01*
G01*
X139450000Y-108840000D02*
G75*
G03*
X141450000Y-108840000I1000000J0D01*
G01*
G04 #@! TO.C,mouse-bite-2mm-slot7*
X122850000Y-60450000D02*
G75*
G03*
X122850000Y-58450000I0J1000000D01*
G01*
X126850000Y-58450000D02*
G75*
G03*
X126850000Y-60450000I0J-1000000D01*
G01*
G04 #@! TO.C,mouse-bite-2mm-slot14*
X161800000Y-69710000D02*
G75*
G03*
X159800000Y-69710000I-1000000J0D01*
G01*
X159800000Y-65710000D02*
G75*
G03*
X161800000Y-65710000I1000000J0D01*
G01*
G04 #@! TO.C,mouse-bite-2mm-slot*
X82150000Y-60450000D02*
G75*
G03*
X82150000Y-58450000I0J1000000D01*
G01*
X86150000Y-58450000D02*
G75*
G03*
X86150000Y-60450000I0J-1000000D01*
G01*
G04 #@! TO.C,mouse-bite-2mm-slot16*
X174300000Y-60450000D02*
G75*
G03*
X174300000Y-58450000I0J1000000D01*
G01*
X178300000Y-58450000D02*
G75*
G03*
X178300000Y-60450000I0J-1000000D01*
G01*
G04 #@! TO.C,mouse-bite-2mm-slot9*
X141460000Y-96960000D02*
G75*
G03*
X139460000Y-96960000I-1000000J0D01*
G01*
X139460000Y-92960000D02*
G75*
G03*
X141460000Y-92960000I1000000J0D01*
G01*
G04 #@! TO.C,mouse-bite-2mm-slot12*
X153950000Y-60450000D02*
G75*
G03*
X153950000Y-58450000I0J1000000D01*
G01*
X157950000Y-58450000D02*
G75*
G03*
X157950000Y-60450000I0J-1000000D01*
G01*
G04 #@! TO.C,mouse-bite-2mm-slot5*
X121110000Y-96960000D02*
G75*
G03*
X119110000Y-96960000I-1000000J0D01*
G01*
X119110000Y-92960000D02*
G75*
G03*
X121110000Y-92960000I1000000J0D01*
G01*
G04 #@! TO.C,mouse-bite-2mm-slot28*
X133600000Y-103580000D02*
G75*
G03*
X133600000Y-101580000I0J1000000D01*
G01*
X137600000Y-101580000D02*
G75*
G03*
X137600000Y-103580000I0J-1000000D01*
G01*
G04 #@! TO.C,mouse-bite-2mm-slot8*
X133600000Y-60450000D02*
G75*
G03*
X133600000Y-58450000I0J1000000D01*
G01*
X137600000Y-58450000D02*
G75*
G03*
X137600000Y-60450000I0J-1000000D01*
G01*
G04 #@! TO.C,mouse-bite-2mm-slot26*
X121100000Y-112840000D02*
G75*
G03*
X119100000Y-112840000I-1000000J0D01*
G01*
X119100000Y-108840000D02*
G75*
G03*
X121100000Y-108840000I1000000J0D01*
G01*
G04 #@! TO.C,mouse-bite-2mm-slot*
X92900000Y-60450000D02*
G75*
G03*
X92900000Y-58450000I0J1000000D01*
G01*
X96900000Y-58450000D02*
G75*
G03*
X96900000Y-60450000I0J-1000000D01*
G01*
G04 #@! TO.C,mouse-bite-2mm-slot19*
X82150000Y-103580000D02*
G75*
G03*
X82150000Y-101580000I0J1000000D01*
G01*
X86150000Y-101580000D02*
G75*
G03*
X86150000Y-103580000I0J-1000000D01*
G01*
G04 #@! TO.C,mouse-bite-2mm-slot32*
X153950000Y-103580000D02*
G75*
G03*
X153950000Y-101580000I0J1000000D01*
G01*
X157950000Y-101580000D02*
G75*
G03*
X157950000Y-103580000I0J-1000000D01*
G01*
G04 #@! TO.C,mouse-bite-2mm-slot34*
X161800000Y-112840000D02*
G75*
G03*
X159800000Y-112840000I-1000000J0D01*
G01*
X159800000Y-108840000D02*
G75*
G03*
X161800000Y-108840000I1000000J0D01*
G01*
G04 #@! TO.C,mouse-bite-2mm-slot25*
X121110000Y-140090000D02*
G75*
G03*
X119110000Y-140090000I-1000000J0D01*
G01*
X119110000Y-136090000D02*
G75*
G03*
X121110000Y-136090000I1000000J0D01*
G01*
G04 #@! TO.C,mouse-bite-2mm-slot10*
X141450000Y-69710000D02*
G75*
G03*
X139450000Y-69710000I-1000000J0D01*
G01*
X139450000Y-65710000D02*
G75*
G03*
X141450000Y-65710000I1000000J0D01*
G01*
G04 #@! TO.C,mouse-bite-2mm-slot21*
X100760000Y-140090000D02*
G75*
G03*
X98760000Y-140090000I-1000000J0D01*
G01*
X98760000Y-136090000D02*
G75*
G03*
X100760000Y-136090000I1000000J0D01*
G01*
G04 #@! TO.C,mouse-bite-2mm-slot27*
X122850000Y-103580000D02*
G75*
G03*
X122850000Y-101580000I0J1000000D01*
G01*
X126850000Y-101580000D02*
G75*
G03*
X126850000Y-103580000I0J-1000000D01*
G01*
G04 #@! TO.C,mouse-bite-2mm-slot11*
X143200000Y-60450000D02*
G75*
G03*
X143200000Y-58450000I0J1000000D01*
G01*
X147200000Y-58450000D02*
G75*
G03*
X147200000Y-60450000I0J-1000000D01*
G01*
G04 #@! TO.C,mouse-bite-2mm-slot31*
X143200000Y-103580000D02*
G75*
G03*
X143200000Y-101580000I0J1000000D01*
G01*
X147200000Y-101580000D02*
G75*
G03*
X147200000Y-103580000I0J-1000000D01*
G01*
G04 #@! TO.C,mouse-bite-2mm-slot22*
X100750000Y-112840000D02*
G75*
G03*
X98750000Y-112840000I-1000000J0D01*
G01*
X98750000Y-108840000D02*
G75*
G03*
X100750000Y-108840000I1000000J0D01*
G01*
G04 #@! TO.C,mouse-bite-2mm-slot33*
X161810000Y-140090000D02*
G75*
G03*
X159810000Y-140090000I-1000000J0D01*
G01*
X159810000Y-136090000D02*
G75*
G03*
X161810000Y-136090000I1000000J0D01*
G01*
G04 #@! TO.C,mouse-bite-2mm-slot29*
X141460000Y-140090000D02*
G75*
G03*
X139460000Y-140090000I-1000000J0D01*
G01*
X139460000Y-136090000D02*
G75*
G03*
X141460000Y-136090000I1000000J0D01*
G01*
G04 #@! TD*
M02*
