%TF.GenerationSoftware,KiCad,Pcbnew,7.0.6*%
%TF.CreationDate,2023-08-11T11:38:20+07:00*%
%TF.ProjectId,Pico2040-Modular-Rev2,5069636f-3230-4343-902d-4d6f64756c61,rev?*%
%TF.SameCoordinates,Original*%
%TF.FileFunction,Paste,Top*%
%TF.FilePolarity,Positive*%
%FSLAX46Y46*%
G04 Gerber Fmt 4.6, Leading zero omitted, Abs format (unit mm)*
G04 Created by KiCad (PCBNEW 7.0.6) date 2023-08-11 11:38:20*
%MOMM*%
%LPD*%
G01*
G04 APERTURE LIST*
G04 Aperture macros list*
%AMRoundRect*
0 Rectangle with rounded corners*
0 $1 Rounding radius*
0 $2 $3 $4 $5 $6 $7 $8 $9 X,Y pos of 4 corners*
0 Add a 4 corners polygon primitive as box body*
4,1,4,$2,$3,$4,$5,$6,$7,$8,$9,$2,$3,0*
0 Add four circle primitives for the rounded corners*
1,1,$1+$1,$2,$3*
1,1,$1+$1,$4,$5*
1,1,$1+$1,$6,$7*
1,1,$1+$1,$8,$9*
0 Add four rect primitives between the rounded corners*
20,1,$1+$1,$2,$3,$4,$5,0*
20,1,$1+$1,$4,$5,$6,$7,0*
20,1,$1+$1,$6,$7,$8,$9,0*
20,1,$1+$1,$8,$9,$2,$3,0*%
G04 Aperture macros list end*
%ADD10C,0.010000*%
%ADD11RoundRect,0.079500X-0.079500X-0.100500X0.079500X-0.100500X0.079500X0.100500X-0.079500X0.100500X0*%
%ADD12R,0.400000X1.650000*%
%ADD13R,1.825000X0.700000*%
%ADD14R,2.000000X1.500000*%
%ADD15R,1.350000X2.000000*%
%ADD16R,1.430000X2.500000*%
%ADD17RoundRect,0.079500X-0.100500X0.079500X-0.100500X-0.079500X0.100500X-0.079500X0.100500X0.079500X0*%
%ADD18R,0.750000X1.000000*%
%ADD19RoundRect,0.150000X-0.150000X0.512500X-0.150000X-0.512500X0.150000X-0.512500X0.150000X0.512500X0*%
%ADD20RoundRect,0.249999X-0.395001X-0.395001X0.395001X-0.395001X0.395001X0.395001X-0.395001X0.395001X0*%
%ADD21RoundRect,0.050000X-0.387500X-0.050000X0.387500X-0.050000X0.387500X0.050000X-0.387500X0.050000X0*%
%ADD22RoundRect,0.050000X-0.050000X-0.387500X0.050000X-0.387500X0.050000X0.387500X-0.050000X0.387500X0*%
%ADD23RoundRect,0.079500X0.100500X-0.079500X0.100500X0.079500X-0.100500X0.079500X-0.100500X-0.079500X0*%
%ADD24R,1.150000X1.000000*%
%ADD25RoundRect,0.014000X0.161000X-0.231000X0.161000X0.231000X-0.161000X0.231000X-0.161000X-0.231000X0*%
G04 APERTURE END LIST*
%TO.C,U3*%
D10*
X87860000Y-54290000D02*
X86840000Y-54290000D01*
X86840000Y-54170000D01*
X87860000Y-54170000D01*
X87860000Y-54290000D01*
G36*
X87860000Y-54290000D02*
G01*
X86840000Y-54290000D01*
X86840000Y-54170000D01*
X87860000Y-54170000D01*
X87860000Y-54290000D01*
G37*
%TD*%
D11*
%TO.C,R3*%
X94415000Y-52150000D03*
X95105000Y-52150000D03*
%TD*%
D12*
%TO.C,J1*%
X91730000Y-44580000D03*
X91080000Y-44580000D03*
X90430000Y-44580000D03*
X89780000Y-44580000D03*
X89130000Y-44580000D03*
D13*
X93380000Y-43380000D03*
D14*
X93280000Y-44680000D03*
D15*
X93160000Y-42630000D03*
D16*
X91390000Y-41430000D03*
X89470000Y-41430000D03*
D15*
X87680000Y-42630000D03*
D14*
X87530000Y-44700000D03*
D13*
X87430000Y-43380000D03*
%TD*%
D17*
%TO.C,C3*%
X93950000Y-67450000D03*
X93950000Y-68140000D03*
%TD*%
D18*
%TO.C,S1*%
X88650000Y-51000000D03*
X88650000Y-46500000D03*
X86500000Y-51000000D03*
X86500000Y-46500000D03*
%TD*%
D19*
%TO.C,U2*%
X96350000Y-48375000D03*
X95400000Y-48375000D03*
X94450000Y-48375000D03*
X94450000Y-50650000D03*
X96350000Y-50650000D03*
%TD*%
D20*
%TO.C,U1*%
X89462500Y-59900000D03*
X89462500Y-61500000D03*
X91062500Y-59900000D03*
X91062500Y-61500000D03*
D21*
X86825000Y-58100000D03*
X86825000Y-58500000D03*
X86825000Y-58900000D03*
X86825000Y-59300000D03*
X86825000Y-59700000D03*
X86825000Y-60100000D03*
X86825000Y-60500000D03*
X86825000Y-60900000D03*
X86825000Y-61300000D03*
X86825000Y-61700000D03*
X86825000Y-62100000D03*
X86825000Y-62500000D03*
X86825000Y-62900000D03*
X86825000Y-63300000D03*
D22*
X87662500Y-64137500D03*
X88062500Y-64137500D03*
X88462500Y-64137500D03*
X88862500Y-64137500D03*
X89262500Y-64137500D03*
X89662500Y-64137500D03*
X90062500Y-64137500D03*
X90462500Y-64137500D03*
X90862500Y-64137500D03*
X91262500Y-64137500D03*
X91662500Y-64137500D03*
X92062500Y-64137500D03*
X92462500Y-64137500D03*
X92862500Y-64137500D03*
D21*
X93700000Y-63300000D03*
X93700000Y-62900000D03*
X93700000Y-62500000D03*
X93700000Y-62100000D03*
X93700000Y-61700000D03*
X93700000Y-61300000D03*
X93700000Y-60900000D03*
X93700000Y-60500000D03*
X93700000Y-60100000D03*
X93700000Y-59700000D03*
X93700000Y-59300000D03*
X93700000Y-58900000D03*
X93700000Y-58500000D03*
X93700000Y-58100000D03*
D22*
X92862500Y-57262500D03*
X92462500Y-57262500D03*
X92062500Y-57262500D03*
X91662500Y-57262500D03*
X91262500Y-57262500D03*
X90862500Y-57262500D03*
X90462500Y-57262500D03*
X90062500Y-57262500D03*
X89662500Y-57262500D03*
X89262500Y-57262500D03*
X88862500Y-57262500D03*
X88462500Y-57262500D03*
X88062500Y-57262500D03*
X87662500Y-57262500D03*
%TD*%
D23*
%TO.C,C1*%
X90400000Y-55265000D03*
X90400000Y-54575000D03*
%TD*%
D17*
%TO.C,R5*%
X85050000Y-48755000D03*
X85050000Y-49445000D03*
%TD*%
%TO.C,R1*%
X91475000Y-54605000D03*
X91475000Y-55295000D03*
%TD*%
D24*
%TO.C,Y1*%
X89600000Y-69400000D03*
X91350000Y-69400000D03*
X91350000Y-68000000D03*
X89600000Y-68000000D03*
%TD*%
D17*
%TO.C,C2*%
X92700000Y-66450000D03*
X92700000Y-67140000D03*
%TD*%
D11*
%TO.C,C10*%
X95685000Y-55450000D03*
X96375000Y-55450000D03*
%TD*%
%TO.C,C11*%
X95690000Y-56300000D03*
X96380000Y-56300000D03*
%TD*%
%TO.C,C9*%
X95685000Y-54600000D03*
X96375000Y-54600000D03*
%TD*%
D17*
%TO.C,R2*%
X92525000Y-54610000D03*
X92525000Y-55300000D03*
%TD*%
D11*
%TO.C,C6*%
X94035000Y-54600000D03*
X94725000Y-54600000D03*
%TD*%
D23*
%TO.C,C15*%
X88100000Y-69690000D03*
X88100000Y-69000000D03*
%TD*%
D11*
%TO.C,C5*%
X94035000Y-53775000D03*
X94725000Y-53775000D03*
%TD*%
%TO.C,C8*%
X95685000Y-53750000D03*
X96375000Y-53750000D03*
%TD*%
D17*
%TO.C,D2*%
X85025000Y-42397500D03*
X85025000Y-43087500D03*
%TD*%
D23*
%TO.C,C12*%
X95375000Y-45075000D03*
X95375000Y-44385000D03*
%TD*%
D17*
%TO.C,D1*%
X95475000Y-41722500D03*
X95475000Y-42412500D03*
%TD*%
D23*
%TO.C,R4*%
X93200000Y-51650000D03*
X93200000Y-50960000D03*
%TD*%
D17*
%TO.C,C14*%
X92950000Y-68405000D03*
X92950000Y-69095000D03*
%TD*%
D11*
%TO.C,C13*%
X96385000Y-52850000D03*
X97075000Y-52850000D03*
%TD*%
D17*
%TO.C,R6*%
X85450000Y-54205000D03*
X85450000Y-54895000D03*
%TD*%
D25*
%TO.C,U3*%
X86600000Y-55450000D03*
X87100000Y-55450000D03*
X87600000Y-55450000D03*
X88100000Y-55450000D03*
X88100000Y-53010000D03*
X87600000Y-53010000D03*
X87100000Y-53010000D03*
X86600000Y-53010000D03*
%TD*%
D11*
%TO.C,C7*%
X94035000Y-55450000D03*
X94725000Y-55450000D03*
%TD*%
D23*
%TO.C,C4*%
X85650000Y-56690000D03*
X85650000Y-56000000D03*
%TD*%
M02*
