%TF.GenerationSoftware,KiCad,Pcbnew,7.0.6*%
%TF.CreationDate,2023-08-11T11:38:24+07:00*%
%TF.ProjectId,Pico2040-Modular-Rev2,5069636f-3230-4343-902d-4d6f64756c61,rev?*%
%TF.SameCoordinates,Original*%
%TF.FileFunction,Soldermask,Bot*%
%TF.FilePolarity,Negative*%
%FSLAX46Y46*%
G04 Gerber Fmt 4.6, Leading zero omitted, Abs format (unit mm)*
G04 Created by KiCad (PCBNEW 7.0.6) date 2023-08-11 11:38:24*
%MOMM*%
%LPD*%
G01*
G04 APERTURE LIST*
%ADD10R,1.700000X1.700000*%
%ADD11O,1.700000X1.700000*%
%ADD12O,1.350000X1.700000*%
%ADD13O,1.100000X1.500000*%
%ADD14R,3.200000X1.600000*%
%ADD15O,1.700000X1.600000*%
%ADD16C,1.000000*%
G04 APERTURE END LIST*
D10*
%TO.C,J4*%
X88325000Y-89125000D03*
D11*
X90865000Y-89125000D03*
X93405000Y-89125000D03*
%TD*%
D12*
%TO.C,J1*%
X93160000Y-41700000D03*
D13*
X92850000Y-44700000D03*
X88010000Y-44700000D03*
D12*
X87700000Y-41700000D03*
%TD*%
D14*
%TO.C,J2*%
X79990000Y-41300000D03*
D15*
X81600000Y-41300000D03*
D14*
X79990000Y-43840000D03*
D15*
X81600000Y-43840000D03*
D14*
X79990000Y-46380000D03*
D15*
X81600000Y-46380000D03*
D14*
X79990000Y-48920000D03*
D15*
X81600000Y-48920000D03*
D14*
X79990000Y-51460000D03*
D15*
X81600000Y-51460000D03*
D14*
X79990000Y-54000000D03*
D15*
X81600000Y-54000000D03*
D14*
X79990000Y-56540000D03*
D15*
X81600000Y-56540000D03*
D14*
X79990000Y-59080000D03*
D15*
X81600000Y-59080000D03*
D14*
X79990000Y-61620000D03*
D15*
X81600000Y-61620000D03*
D14*
X79990000Y-64160000D03*
D15*
X81600000Y-64160000D03*
D14*
X79990000Y-66700000D03*
D15*
X81600000Y-66700000D03*
D14*
X79990000Y-69240000D03*
D15*
X81600000Y-69240000D03*
D14*
X79990000Y-71780000D03*
D15*
X81600000Y-71780000D03*
D14*
X79990000Y-74320000D03*
D15*
X81600000Y-74320000D03*
D14*
X79990000Y-76860000D03*
D15*
X81600000Y-76860000D03*
D14*
X79990000Y-79400000D03*
D15*
X81600000Y-79400000D03*
D14*
X79990000Y-81940000D03*
D15*
X81600000Y-81940000D03*
D14*
X79990000Y-84480000D03*
D15*
X81600000Y-84480000D03*
D14*
X79990000Y-87020000D03*
D15*
X81600000Y-87020000D03*
D14*
X79990000Y-89560000D03*
D15*
X81600000Y-89560000D03*
%TD*%
D16*
%TO.C,TP2*%
X92450000Y-48025000D03*
%TD*%
%TO.C,TP1*%
X89175000Y-48075000D03*
%TD*%
%TO.C,TP4*%
X87950000Y-54925000D03*
%TD*%
D14*
%TO.C,J3*%
X101010000Y-41300000D03*
D15*
X99400000Y-41300000D03*
D14*
X101010000Y-43840000D03*
D15*
X99400000Y-43840000D03*
D14*
X101010000Y-46380000D03*
D15*
X99400000Y-46380000D03*
D14*
X101010000Y-48920000D03*
D15*
X99400000Y-48920000D03*
D14*
X101010000Y-51460000D03*
D15*
X99400000Y-51460000D03*
D14*
X101010000Y-54000000D03*
D15*
X99400000Y-54000000D03*
D14*
X101010000Y-56540000D03*
D15*
X99400000Y-56540000D03*
D14*
X101010000Y-59080000D03*
D15*
X99400000Y-59080000D03*
D14*
X101010000Y-61620000D03*
D15*
X99400000Y-61620000D03*
D14*
X101010000Y-64160000D03*
D15*
X99400000Y-64160000D03*
D14*
X101010000Y-66700000D03*
D15*
X99400000Y-66700000D03*
D14*
X101010000Y-69240000D03*
D15*
X99400000Y-69240000D03*
D14*
X101010000Y-71780000D03*
D15*
X99400000Y-71780000D03*
D14*
X101010000Y-74320000D03*
D15*
X99400000Y-74320000D03*
D14*
X101010000Y-76860000D03*
D15*
X99400000Y-76860000D03*
D14*
X101010000Y-79400000D03*
D15*
X99400000Y-79400000D03*
D14*
X101010000Y-81940000D03*
D15*
X99400000Y-81940000D03*
D14*
X101010000Y-84480000D03*
D15*
X99400000Y-84480000D03*
D14*
X101010000Y-87020000D03*
D15*
X99400000Y-87020000D03*
D14*
X101010000Y-89560000D03*
D15*
X99400000Y-89560000D03*
%TD*%
D16*
%TO.C,TP3*%
X93600000Y-60100000D03*
%TD*%
M02*
