%TF.GenerationSoftware,KiCad,Pcbnew,7.0.6*%
%TF.CreationDate,2023-08-11T11:38:20+07:00*%
%TF.ProjectId,Pico2040-Modular-Rev2,5069636f-3230-4343-902d-4d6f64756c61,rev?*%
%TF.SameCoordinates,Original*%
%TF.FileFunction,Legend,Top*%
%TF.FilePolarity,Positive*%
%FSLAX46Y46*%
G04 Gerber Fmt 4.6, Leading zero omitted, Abs format (unit mm)*
G04 Created by KiCad (PCBNEW 7.0.6) date 2023-08-11 11:38:20*
%MOMM*%
%LPD*%
G01*
G04 APERTURE LIST*
%ADD10C,0.150000*%
%ADD11C,0.050000*%
%ADD12C,0.200000*%
%ADD13C,0.125000*%
%ADD14C,0.120000*%
%ADD15C,0.127000*%
%ADD16C,0.100000*%
G04 APERTURE END LIST*
D10*
X94850000Y-86350000D02*
X86750000Y-86350000D01*
D11*
X92047179Y-87345400D02*
X92132894Y-87373971D01*
X92132894Y-87373971D02*
X92275751Y-87373971D01*
X92275751Y-87373971D02*
X92332894Y-87345400D01*
X92332894Y-87345400D02*
X92361465Y-87316828D01*
X92361465Y-87316828D02*
X92390036Y-87259685D01*
X92390036Y-87259685D02*
X92390036Y-87202542D01*
X92390036Y-87202542D02*
X92361465Y-87145400D01*
X92361465Y-87145400D02*
X92332894Y-87116828D01*
X92332894Y-87116828D02*
X92275751Y-87088257D01*
X92275751Y-87088257D02*
X92161465Y-87059685D01*
X92161465Y-87059685D02*
X92104322Y-87031114D01*
X92104322Y-87031114D02*
X92075751Y-87002542D01*
X92075751Y-87002542D02*
X92047179Y-86945400D01*
X92047179Y-86945400D02*
X92047179Y-86888257D01*
X92047179Y-86888257D02*
X92075751Y-86831114D01*
X92075751Y-86831114D02*
X92104322Y-86802542D01*
X92104322Y-86802542D02*
X92161465Y-86773971D01*
X92161465Y-86773971D02*
X92304322Y-86773971D01*
X92304322Y-86773971D02*
X92390036Y-86802542D01*
X92590037Y-86773971D02*
X92732894Y-87373971D01*
X92732894Y-87373971D02*
X92847180Y-86945400D01*
X92847180Y-86945400D02*
X92961465Y-87373971D01*
X92961465Y-87373971D02*
X93104323Y-86773971D01*
X93675751Y-87316828D02*
X93647179Y-87345400D01*
X93647179Y-87345400D02*
X93561465Y-87373971D01*
X93561465Y-87373971D02*
X93504322Y-87373971D01*
X93504322Y-87373971D02*
X93418608Y-87345400D01*
X93418608Y-87345400D02*
X93361465Y-87288257D01*
X93361465Y-87288257D02*
X93332894Y-87231114D01*
X93332894Y-87231114D02*
X93304322Y-87116828D01*
X93304322Y-87116828D02*
X93304322Y-87031114D01*
X93304322Y-87031114D02*
X93332894Y-86916828D01*
X93332894Y-86916828D02*
X93361465Y-86859685D01*
X93361465Y-86859685D02*
X93418608Y-86802542D01*
X93418608Y-86802542D02*
X93504322Y-86773971D01*
X93504322Y-86773971D02*
X93561465Y-86773971D01*
X93561465Y-86773971D02*
X93647179Y-86802542D01*
X93647179Y-86802542D02*
X93675751Y-86831114D01*
X94218608Y-87373971D02*
X93932894Y-87373971D01*
X93932894Y-87373971D02*
X93932894Y-86773971D01*
X94418608Y-87373971D02*
X94418608Y-86773971D01*
X94761465Y-87373971D02*
X94504322Y-87031114D01*
X94761465Y-86773971D02*
X94418608Y-87116828D01*
X86897179Y-87345400D02*
X86982894Y-87373971D01*
X86982894Y-87373971D02*
X87125751Y-87373971D01*
X87125751Y-87373971D02*
X87182894Y-87345400D01*
X87182894Y-87345400D02*
X87211465Y-87316828D01*
X87211465Y-87316828D02*
X87240036Y-87259685D01*
X87240036Y-87259685D02*
X87240036Y-87202542D01*
X87240036Y-87202542D02*
X87211465Y-87145400D01*
X87211465Y-87145400D02*
X87182894Y-87116828D01*
X87182894Y-87116828D02*
X87125751Y-87088257D01*
X87125751Y-87088257D02*
X87011465Y-87059685D01*
X87011465Y-87059685D02*
X86954322Y-87031114D01*
X86954322Y-87031114D02*
X86925751Y-87002542D01*
X86925751Y-87002542D02*
X86897179Y-86945400D01*
X86897179Y-86945400D02*
X86897179Y-86888257D01*
X86897179Y-86888257D02*
X86925751Y-86831114D01*
X86925751Y-86831114D02*
X86954322Y-86802542D01*
X86954322Y-86802542D02*
X87011465Y-86773971D01*
X87011465Y-86773971D02*
X87154322Y-86773971D01*
X87154322Y-86773971D02*
X87240036Y-86802542D01*
X87440037Y-86773971D02*
X87582894Y-87373971D01*
X87582894Y-87373971D02*
X87697180Y-86945400D01*
X87697180Y-86945400D02*
X87811465Y-87373971D01*
X87811465Y-87373971D02*
X87954323Y-86773971D01*
X88182894Y-87373971D02*
X88182894Y-86773971D01*
X88182894Y-86773971D02*
X88325751Y-86773971D01*
X88325751Y-86773971D02*
X88411465Y-86802542D01*
X88411465Y-86802542D02*
X88468608Y-86859685D01*
X88468608Y-86859685D02*
X88497179Y-86916828D01*
X88497179Y-86916828D02*
X88525751Y-87031114D01*
X88525751Y-87031114D02*
X88525751Y-87116828D01*
X88525751Y-87116828D02*
X88497179Y-87231114D01*
X88497179Y-87231114D02*
X88468608Y-87288257D01*
X88468608Y-87288257D02*
X88411465Y-87345400D01*
X88411465Y-87345400D02*
X88325751Y-87373971D01*
X88325751Y-87373971D02*
X88182894Y-87373971D01*
X88782894Y-87373971D02*
X88782894Y-86773971D01*
X89182893Y-86773971D02*
X89297179Y-86773971D01*
X89297179Y-86773971D02*
X89354322Y-86802542D01*
X89354322Y-86802542D02*
X89411465Y-86859685D01*
X89411465Y-86859685D02*
X89440036Y-86973971D01*
X89440036Y-86973971D02*
X89440036Y-87173971D01*
X89440036Y-87173971D02*
X89411465Y-87288257D01*
X89411465Y-87288257D02*
X89354322Y-87345400D01*
X89354322Y-87345400D02*
X89297179Y-87373971D01*
X89297179Y-87373971D02*
X89182893Y-87373971D01*
X89182893Y-87373971D02*
X89125751Y-87345400D01*
X89125751Y-87345400D02*
X89068608Y-87288257D01*
X89068608Y-87288257D02*
X89040036Y-87173971D01*
X89040036Y-87173971D02*
X89040036Y-86973971D01*
X89040036Y-86973971D02*
X89068608Y-86859685D01*
X89068608Y-86859685D02*
X89125751Y-86802542D01*
X89125751Y-86802542D02*
X89182893Y-86773971D01*
D12*
X84400552Y-88725564D02*
X84400552Y-88201755D01*
X84400552Y-88201755D02*
X85067219Y-88725564D01*
X85067219Y-88725564D02*
X85067219Y-88201755D01*
X85019600Y-87439850D02*
X85067219Y-87535088D01*
X85067219Y-87535088D02*
X85067219Y-87725564D01*
X85067219Y-87725564D02*
X85019600Y-87820802D01*
X85019600Y-87820802D02*
X84924361Y-87868421D01*
X84924361Y-87868421D02*
X84543409Y-87868421D01*
X84543409Y-87868421D02*
X84448171Y-87820802D01*
X84448171Y-87820802D02*
X84400552Y-87725564D01*
X84400552Y-87725564D02*
X84400552Y-87535088D01*
X84400552Y-87535088D02*
X84448171Y-87439850D01*
X84448171Y-87439850D02*
X84543409Y-87392231D01*
X84543409Y-87392231D02*
X84638647Y-87392231D01*
X84638647Y-87392231D02*
X84733885Y-87868421D01*
X85067219Y-86535088D02*
X84543409Y-86535088D01*
X84543409Y-86535088D02*
X84448171Y-86582707D01*
X84448171Y-86582707D02*
X84400552Y-86677945D01*
X84400552Y-86677945D02*
X84400552Y-86868421D01*
X84400552Y-86868421D02*
X84448171Y-86963659D01*
X85019600Y-86535088D02*
X85067219Y-86630326D01*
X85067219Y-86630326D02*
X85067219Y-86868421D01*
X85067219Y-86868421D02*
X85019600Y-86963659D01*
X85019600Y-86963659D02*
X84924361Y-87011278D01*
X84924361Y-87011278D02*
X84829123Y-87011278D01*
X84829123Y-87011278D02*
X84733885Y-86963659D01*
X84733885Y-86963659D02*
X84686266Y-86868421D01*
X84686266Y-86868421D02*
X84686266Y-86630326D01*
X84686266Y-86630326D02*
X84638647Y-86535088D01*
X84400552Y-86058897D02*
X85067219Y-86058897D01*
X84495790Y-86058897D02*
X84448171Y-86011278D01*
X84448171Y-86011278D02*
X84400552Y-85916040D01*
X84400552Y-85916040D02*
X84400552Y-85773183D01*
X84400552Y-85773183D02*
X84448171Y-85677945D01*
X84448171Y-85677945D02*
X84543409Y-85630326D01*
X84543409Y-85630326D02*
X85067219Y-85630326D01*
X85067219Y-85154135D02*
X84067219Y-85154135D01*
X84686266Y-85058897D02*
X85067219Y-84773183D01*
X84400552Y-84773183D02*
X84781504Y-85154135D01*
X84400552Y-83916040D02*
X85067219Y-83916040D01*
X84400552Y-84344611D02*
X84924361Y-84344611D01*
X84924361Y-84344611D02*
X85019600Y-84296992D01*
X85019600Y-84296992D02*
X85067219Y-84201754D01*
X85067219Y-84201754D02*
X85067219Y-84058897D01*
X85067219Y-84058897D02*
X85019600Y-83963659D01*
X85019600Y-83963659D02*
X84971980Y-83916040D01*
X84400552Y-83439849D02*
X85067219Y-83439849D01*
X84495790Y-83439849D02*
X84448171Y-83392230D01*
X84448171Y-83392230D02*
X84400552Y-83296992D01*
X84400552Y-83296992D02*
X84400552Y-83154135D01*
X84400552Y-83154135D02*
X84448171Y-83058897D01*
X84448171Y-83058897D02*
X84543409Y-83011278D01*
X84543409Y-83011278D02*
X85067219Y-83011278D01*
X84971980Y-82535087D02*
X85019600Y-82487468D01*
X85019600Y-82487468D02*
X85067219Y-82535087D01*
X85067219Y-82535087D02*
X85019600Y-82582706D01*
X85019600Y-82582706D02*
X84971980Y-82535087D01*
X84971980Y-82535087D02*
X85067219Y-82535087D01*
X85067219Y-81630326D02*
X84067219Y-81630326D01*
X85019600Y-81630326D02*
X85067219Y-81725564D01*
X85067219Y-81725564D02*
X85067219Y-81916040D01*
X85067219Y-81916040D02*
X85019600Y-82011278D01*
X85019600Y-82011278D02*
X84971980Y-82058897D01*
X84971980Y-82058897D02*
X84876742Y-82106516D01*
X84876742Y-82106516D02*
X84591028Y-82106516D01*
X84591028Y-82106516D02*
X84495790Y-82058897D01*
X84495790Y-82058897D02*
X84448171Y-82011278D01*
X84448171Y-82011278D02*
X84400552Y-81916040D01*
X84400552Y-81916040D02*
X84400552Y-81725564D01*
X84400552Y-81725564D02*
X84448171Y-81630326D01*
X85019600Y-80773183D02*
X85067219Y-80868421D01*
X85067219Y-80868421D02*
X85067219Y-81058897D01*
X85067219Y-81058897D02*
X85019600Y-81154135D01*
X85019600Y-81154135D02*
X84924361Y-81201754D01*
X84924361Y-81201754D02*
X84543409Y-81201754D01*
X84543409Y-81201754D02*
X84448171Y-81154135D01*
X84448171Y-81154135D02*
X84400552Y-81058897D01*
X84400552Y-81058897D02*
X84400552Y-80868421D01*
X84400552Y-80868421D02*
X84448171Y-80773183D01*
X84448171Y-80773183D02*
X84543409Y-80725564D01*
X84543409Y-80725564D02*
X84638647Y-80725564D01*
X84638647Y-80725564D02*
X84733885Y-81201754D01*
X84400552Y-80392230D02*
X85067219Y-80154135D01*
X85067219Y-80154135D02*
X84400552Y-79916040D01*
X84067219Y-79487468D02*
X84257695Y-79582706D01*
X85019600Y-79106516D02*
X85067219Y-79011278D01*
X85067219Y-79011278D02*
X85067219Y-78820802D01*
X85067219Y-78820802D02*
X85019600Y-78725564D01*
X85019600Y-78725564D02*
X84924361Y-78677945D01*
X84924361Y-78677945D02*
X84876742Y-78677945D01*
X84876742Y-78677945D02*
X84781504Y-78725564D01*
X84781504Y-78725564D02*
X84733885Y-78820802D01*
X84733885Y-78820802D02*
X84733885Y-78963659D01*
X84733885Y-78963659D02*
X84686266Y-79058897D01*
X84686266Y-79058897D02*
X84591028Y-79106516D01*
X84591028Y-79106516D02*
X84543409Y-79106516D01*
X84543409Y-79106516D02*
X84448171Y-79058897D01*
X84448171Y-79058897D02*
X84400552Y-78963659D01*
X84400552Y-78963659D02*
X84400552Y-78820802D01*
X84400552Y-78820802D02*
X84448171Y-78725564D01*
X85067219Y-77487468D02*
X84067219Y-77487468D01*
X84067219Y-77487468D02*
X84067219Y-77106516D01*
X84067219Y-77106516D02*
X84114838Y-77011278D01*
X84114838Y-77011278D02*
X84162457Y-76963659D01*
X84162457Y-76963659D02*
X84257695Y-76916040D01*
X84257695Y-76916040D02*
X84400552Y-76916040D01*
X84400552Y-76916040D02*
X84495790Y-76963659D01*
X84495790Y-76963659D02*
X84543409Y-77011278D01*
X84543409Y-77011278D02*
X84591028Y-77106516D01*
X84591028Y-77106516D02*
X84591028Y-77487468D01*
X85067219Y-76487468D02*
X84400552Y-76487468D01*
X84067219Y-76487468D02*
X84114838Y-76535087D01*
X84114838Y-76535087D02*
X84162457Y-76487468D01*
X84162457Y-76487468D02*
X84114838Y-76439849D01*
X84114838Y-76439849D02*
X84067219Y-76487468D01*
X84067219Y-76487468D02*
X84162457Y-76487468D01*
X85019600Y-75582707D02*
X85067219Y-75677945D01*
X85067219Y-75677945D02*
X85067219Y-75868421D01*
X85067219Y-75868421D02*
X85019600Y-75963659D01*
X85019600Y-75963659D02*
X84971980Y-76011278D01*
X84971980Y-76011278D02*
X84876742Y-76058897D01*
X84876742Y-76058897D02*
X84591028Y-76058897D01*
X84591028Y-76058897D02*
X84495790Y-76011278D01*
X84495790Y-76011278D02*
X84448171Y-75963659D01*
X84448171Y-75963659D02*
X84400552Y-75868421D01*
X84400552Y-75868421D02*
X84400552Y-75677945D01*
X84400552Y-75677945D02*
X84448171Y-75582707D01*
X85067219Y-75011278D02*
X85019600Y-75106516D01*
X85019600Y-75106516D02*
X84971980Y-75154135D01*
X84971980Y-75154135D02*
X84876742Y-75201754D01*
X84876742Y-75201754D02*
X84591028Y-75201754D01*
X84591028Y-75201754D02*
X84495790Y-75154135D01*
X84495790Y-75154135D02*
X84448171Y-75106516D01*
X84448171Y-75106516D02*
X84400552Y-75011278D01*
X84400552Y-75011278D02*
X84400552Y-74868421D01*
X84400552Y-74868421D02*
X84448171Y-74773183D01*
X84448171Y-74773183D02*
X84495790Y-74725564D01*
X84495790Y-74725564D02*
X84591028Y-74677945D01*
X84591028Y-74677945D02*
X84876742Y-74677945D01*
X84876742Y-74677945D02*
X84971980Y-74725564D01*
X84971980Y-74725564D02*
X85019600Y-74773183D01*
X85019600Y-74773183D02*
X85067219Y-74868421D01*
X85067219Y-74868421D02*
X85067219Y-75011278D01*
X84162457Y-74296992D02*
X84114838Y-74249373D01*
X84114838Y-74249373D02*
X84067219Y-74154135D01*
X84067219Y-74154135D02*
X84067219Y-73916040D01*
X84067219Y-73916040D02*
X84114838Y-73820802D01*
X84114838Y-73820802D02*
X84162457Y-73773183D01*
X84162457Y-73773183D02*
X84257695Y-73725564D01*
X84257695Y-73725564D02*
X84352933Y-73725564D01*
X84352933Y-73725564D02*
X84495790Y-73773183D01*
X84495790Y-73773183D02*
X85067219Y-74344611D01*
X85067219Y-74344611D02*
X85067219Y-73725564D01*
X84067219Y-73106516D02*
X84067219Y-73011278D01*
X84067219Y-73011278D02*
X84114838Y-72916040D01*
X84114838Y-72916040D02*
X84162457Y-72868421D01*
X84162457Y-72868421D02*
X84257695Y-72820802D01*
X84257695Y-72820802D02*
X84448171Y-72773183D01*
X84448171Y-72773183D02*
X84686266Y-72773183D01*
X84686266Y-72773183D02*
X84876742Y-72820802D01*
X84876742Y-72820802D02*
X84971980Y-72868421D01*
X84971980Y-72868421D02*
X85019600Y-72916040D01*
X85019600Y-72916040D02*
X85067219Y-73011278D01*
X85067219Y-73011278D02*
X85067219Y-73106516D01*
X85067219Y-73106516D02*
X85019600Y-73201754D01*
X85019600Y-73201754D02*
X84971980Y-73249373D01*
X84971980Y-73249373D02*
X84876742Y-73296992D01*
X84876742Y-73296992D02*
X84686266Y-73344611D01*
X84686266Y-73344611D02*
X84448171Y-73344611D01*
X84448171Y-73344611D02*
X84257695Y-73296992D01*
X84257695Y-73296992D02*
X84162457Y-73249373D01*
X84162457Y-73249373D02*
X84114838Y-73201754D01*
X84114838Y-73201754D02*
X84067219Y-73106516D01*
X84400552Y-71916040D02*
X85067219Y-71916040D01*
X84019600Y-72154135D02*
X84733885Y-72392230D01*
X84733885Y-72392230D02*
X84733885Y-71773183D01*
X84067219Y-71201754D02*
X84067219Y-71106516D01*
X84067219Y-71106516D02*
X84114838Y-71011278D01*
X84114838Y-71011278D02*
X84162457Y-70963659D01*
X84162457Y-70963659D02*
X84257695Y-70916040D01*
X84257695Y-70916040D02*
X84448171Y-70868421D01*
X84448171Y-70868421D02*
X84686266Y-70868421D01*
X84686266Y-70868421D02*
X84876742Y-70916040D01*
X84876742Y-70916040D02*
X84971980Y-70963659D01*
X84971980Y-70963659D02*
X85019600Y-71011278D01*
X85019600Y-71011278D02*
X85067219Y-71106516D01*
X85067219Y-71106516D02*
X85067219Y-71201754D01*
X85067219Y-71201754D02*
X85019600Y-71296992D01*
X85019600Y-71296992D02*
X84971980Y-71344611D01*
X84971980Y-71344611D02*
X84876742Y-71392230D01*
X84876742Y-71392230D02*
X84686266Y-71439849D01*
X84686266Y-71439849D02*
X84448171Y-71439849D01*
X84448171Y-71439849D02*
X84257695Y-71392230D01*
X84257695Y-71392230D02*
X84162457Y-71344611D01*
X84162457Y-71344611D02*
X84114838Y-71296992D01*
X84114838Y-71296992D02*
X84067219Y-71201754D01*
X85067219Y-69106516D02*
X84591028Y-69439849D01*
X85067219Y-69677944D02*
X84067219Y-69677944D01*
X84067219Y-69677944D02*
X84067219Y-69296992D01*
X84067219Y-69296992D02*
X84114838Y-69201754D01*
X84114838Y-69201754D02*
X84162457Y-69154135D01*
X84162457Y-69154135D02*
X84257695Y-69106516D01*
X84257695Y-69106516D02*
X84400552Y-69106516D01*
X84400552Y-69106516D02*
X84495790Y-69154135D01*
X84495790Y-69154135D02*
X84543409Y-69201754D01*
X84543409Y-69201754D02*
X84591028Y-69296992D01*
X84591028Y-69296992D02*
X84591028Y-69677944D01*
X85019600Y-68296992D02*
X85067219Y-68392230D01*
X85067219Y-68392230D02*
X85067219Y-68582706D01*
X85067219Y-68582706D02*
X85019600Y-68677944D01*
X85019600Y-68677944D02*
X84924361Y-68725563D01*
X84924361Y-68725563D02*
X84543409Y-68725563D01*
X84543409Y-68725563D02*
X84448171Y-68677944D01*
X84448171Y-68677944D02*
X84400552Y-68582706D01*
X84400552Y-68582706D02*
X84400552Y-68392230D01*
X84400552Y-68392230D02*
X84448171Y-68296992D01*
X84448171Y-68296992D02*
X84543409Y-68249373D01*
X84543409Y-68249373D02*
X84638647Y-68249373D01*
X84638647Y-68249373D02*
X84733885Y-68725563D01*
X84400552Y-67916039D02*
X85067219Y-67677944D01*
X85067219Y-67677944D02*
X84400552Y-67439849D01*
X84162457Y-67106515D02*
X84114838Y-67058896D01*
X84114838Y-67058896D02*
X84067219Y-66963658D01*
X84067219Y-66963658D02*
X84067219Y-66725563D01*
X84067219Y-66725563D02*
X84114838Y-66630325D01*
X84114838Y-66630325D02*
X84162457Y-66582706D01*
X84162457Y-66582706D02*
X84257695Y-66535087D01*
X84257695Y-66535087D02*
X84352933Y-66535087D01*
X84352933Y-66535087D02*
X84495790Y-66582706D01*
X84495790Y-66582706D02*
X85067219Y-67154134D01*
X85067219Y-67154134D02*
X85067219Y-66535087D01*
D10*
X96156533Y-43334649D02*
X96856533Y-43101316D01*
X96856533Y-43101316D02*
X96156533Y-42867982D01*
X96489866Y-42401316D02*
X96523200Y-42301316D01*
X96523200Y-42301316D02*
X96556533Y-42267982D01*
X96556533Y-42267982D02*
X96623200Y-42234649D01*
X96623200Y-42234649D02*
X96723200Y-42234649D01*
X96723200Y-42234649D02*
X96789866Y-42267982D01*
X96789866Y-42267982D02*
X96823200Y-42301316D01*
X96823200Y-42301316D02*
X96856533Y-42367982D01*
X96856533Y-42367982D02*
X96856533Y-42634649D01*
X96856533Y-42634649D02*
X96156533Y-42634649D01*
X96156533Y-42634649D02*
X96156533Y-42401316D01*
X96156533Y-42401316D02*
X96189866Y-42334649D01*
X96189866Y-42334649D02*
X96223200Y-42301316D01*
X96223200Y-42301316D02*
X96289866Y-42267982D01*
X96289866Y-42267982D02*
X96356533Y-42267982D01*
X96356533Y-42267982D02*
X96423200Y-42301316D01*
X96423200Y-42301316D02*
X96456533Y-42334649D01*
X96456533Y-42334649D02*
X96489866Y-42401316D01*
X96489866Y-42401316D02*
X96489866Y-42634649D01*
X96156533Y-41934649D02*
X96723200Y-41934649D01*
X96723200Y-41934649D02*
X96789866Y-41901316D01*
X96789866Y-41901316D02*
X96823200Y-41867982D01*
X96823200Y-41867982D02*
X96856533Y-41801316D01*
X96856533Y-41801316D02*
X96856533Y-41667982D01*
X96856533Y-41667982D02*
X96823200Y-41601316D01*
X96823200Y-41601316D02*
X96789866Y-41567982D01*
X96789866Y-41567982D02*
X96723200Y-41534649D01*
X96723200Y-41534649D02*
X96156533Y-41534649D01*
X96823200Y-41234649D02*
X96856533Y-41134649D01*
X96856533Y-41134649D02*
X96856533Y-40967983D01*
X96856533Y-40967983D02*
X96823200Y-40901316D01*
X96823200Y-40901316D02*
X96789866Y-40867983D01*
X96789866Y-40867983D02*
X96723200Y-40834649D01*
X96723200Y-40834649D02*
X96656533Y-40834649D01*
X96656533Y-40834649D02*
X96589866Y-40867983D01*
X96589866Y-40867983D02*
X96556533Y-40901316D01*
X96556533Y-40901316D02*
X96523200Y-40967983D01*
X96523200Y-40967983D02*
X96489866Y-41101316D01*
X96489866Y-41101316D02*
X96456533Y-41167983D01*
X96456533Y-41167983D02*
X96423200Y-41201316D01*
X96423200Y-41201316D02*
X96356533Y-41234649D01*
X96356533Y-41234649D02*
X96289866Y-41234649D01*
X96289866Y-41234649D02*
X96223200Y-41201316D01*
X96223200Y-41201316D02*
X96189866Y-41167983D01*
X96189866Y-41167983D02*
X96156533Y-41101316D01*
X96156533Y-41101316D02*
X96156533Y-40934649D01*
X96156533Y-40934649D02*
X96189866Y-40834649D01*
D11*
X90290036Y-86802542D02*
X90232894Y-86773971D01*
X90232894Y-86773971D02*
X90147179Y-86773971D01*
X90147179Y-86773971D02*
X90061465Y-86802542D01*
X90061465Y-86802542D02*
X90004322Y-86859685D01*
X90004322Y-86859685D02*
X89975751Y-86916828D01*
X89975751Y-86916828D02*
X89947179Y-87031114D01*
X89947179Y-87031114D02*
X89947179Y-87116828D01*
X89947179Y-87116828D02*
X89975751Y-87231114D01*
X89975751Y-87231114D02*
X90004322Y-87288257D01*
X90004322Y-87288257D02*
X90061465Y-87345400D01*
X90061465Y-87345400D02*
X90147179Y-87373971D01*
X90147179Y-87373971D02*
X90204322Y-87373971D01*
X90204322Y-87373971D02*
X90290036Y-87345400D01*
X90290036Y-87345400D02*
X90318608Y-87316828D01*
X90318608Y-87316828D02*
X90318608Y-87116828D01*
X90318608Y-87116828D02*
X90204322Y-87116828D01*
X90575751Y-87373971D02*
X90575751Y-86773971D01*
X90575751Y-86773971D02*
X90918608Y-87373971D01*
X90918608Y-87373971D02*
X90918608Y-86773971D01*
X91204322Y-87373971D02*
X91204322Y-86773971D01*
X91204322Y-86773971D02*
X91347179Y-86773971D01*
X91347179Y-86773971D02*
X91432893Y-86802542D01*
X91432893Y-86802542D02*
X91490036Y-86859685D01*
X91490036Y-86859685D02*
X91518607Y-86916828D01*
X91518607Y-86916828D02*
X91547179Y-87031114D01*
X91547179Y-87031114D02*
X91547179Y-87116828D01*
X91547179Y-87116828D02*
X91518607Y-87231114D01*
X91518607Y-87231114D02*
X91490036Y-87288257D01*
X91490036Y-87288257D02*
X91432893Y-87345400D01*
X91432893Y-87345400D02*
X91347179Y-87373971D01*
X91347179Y-87373971D02*
X91204322Y-87373971D01*
D13*
X95922309Y-75174906D02*
X95922309Y-75079668D01*
X95922309Y-75079668D02*
X95898500Y-75032049D01*
X95898500Y-75032049D02*
X95874690Y-75008240D01*
X95874690Y-75008240D02*
X95803261Y-74960621D01*
X95803261Y-74960621D02*
X95708023Y-74936811D01*
X95708023Y-74936811D02*
X95517547Y-74936811D01*
X95517547Y-74936811D02*
X95469928Y-74960621D01*
X95469928Y-74960621D02*
X95446119Y-74984430D01*
X95446119Y-74984430D02*
X95422309Y-75032049D01*
X95422309Y-75032049D02*
X95422309Y-75127287D01*
X95422309Y-75127287D02*
X95446119Y-75174906D01*
X95446119Y-75174906D02*
X95469928Y-75198716D01*
X95469928Y-75198716D02*
X95517547Y-75222525D01*
X95517547Y-75222525D02*
X95636595Y-75222525D01*
X95636595Y-75222525D02*
X95684214Y-75198716D01*
X95684214Y-75198716D02*
X95708023Y-75174906D01*
X95708023Y-75174906D02*
X95731833Y-75127287D01*
X95731833Y-75127287D02*
X95731833Y-75032049D01*
X95731833Y-75032049D02*
X95708023Y-74984430D01*
X95708023Y-74984430D02*
X95684214Y-74960621D01*
X95684214Y-74960621D02*
X95636595Y-74936811D01*
X95588976Y-74508240D02*
X95922309Y-74508240D01*
X95398500Y-74627288D02*
X95755642Y-74746335D01*
X95755642Y-74746335D02*
X95755642Y-74436812D01*
X95422309Y-74317764D02*
X95922309Y-74151098D01*
X95922309Y-74151098D02*
X95422309Y-73984431D01*
X95731833Y-73817765D02*
X95731833Y-73436813D01*
X95422309Y-73103479D02*
X95422309Y-73055860D01*
X95422309Y-73055860D02*
X95446119Y-73008241D01*
X95446119Y-73008241D02*
X95469928Y-72984431D01*
X95469928Y-72984431D02*
X95517547Y-72960622D01*
X95517547Y-72960622D02*
X95612785Y-72936812D01*
X95612785Y-72936812D02*
X95731833Y-72936812D01*
X95731833Y-72936812D02*
X95827071Y-72960622D01*
X95827071Y-72960622D02*
X95874690Y-72984431D01*
X95874690Y-72984431D02*
X95898500Y-73008241D01*
X95898500Y-73008241D02*
X95922309Y-73055860D01*
X95922309Y-73055860D02*
X95922309Y-73103479D01*
X95922309Y-73103479D02*
X95898500Y-73151098D01*
X95898500Y-73151098D02*
X95874690Y-73174907D01*
X95874690Y-73174907D02*
X95827071Y-73198717D01*
X95827071Y-73198717D02*
X95731833Y-73222526D01*
X95731833Y-73222526D02*
X95612785Y-73222526D01*
X95612785Y-73222526D02*
X95517547Y-73198717D01*
X95517547Y-73198717D02*
X95469928Y-73174907D01*
X95469928Y-73174907D02*
X95446119Y-73151098D01*
X95446119Y-73151098D02*
X95422309Y-73103479D01*
X96465404Y-75198716D02*
X96465404Y-75032049D01*
X96727309Y-74960621D02*
X96727309Y-75198716D01*
X96727309Y-75198716D02*
X96227309Y-75198716D01*
X96227309Y-75198716D02*
X96227309Y-74960621D01*
X96393976Y-74532049D02*
X96727309Y-74532049D01*
X96203500Y-74651097D02*
X96560642Y-74770144D01*
X96560642Y-74770144D02*
X96560642Y-74460621D01*
X96227309Y-74317764D02*
X96227309Y-73984431D01*
X96227309Y-73984431D02*
X96727309Y-74198716D01*
X96727309Y-73770145D02*
X96727309Y-73674907D01*
X96727309Y-73674907D02*
X96703500Y-73627288D01*
X96703500Y-73627288D02*
X96679690Y-73603479D01*
X96679690Y-73603479D02*
X96608261Y-73555860D01*
X96608261Y-73555860D02*
X96513023Y-73532050D01*
X96513023Y-73532050D02*
X96322547Y-73532050D01*
X96322547Y-73532050D02*
X96274928Y-73555860D01*
X96274928Y-73555860D02*
X96251119Y-73579669D01*
X96251119Y-73579669D02*
X96227309Y-73627288D01*
X96227309Y-73627288D02*
X96227309Y-73722526D01*
X96227309Y-73722526D02*
X96251119Y-73770145D01*
X96251119Y-73770145D02*
X96274928Y-73793955D01*
X96274928Y-73793955D02*
X96322547Y-73817764D01*
X96322547Y-73817764D02*
X96441595Y-73817764D01*
X96441595Y-73817764D02*
X96489214Y-73793955D01*
X96489214Y-73793955D02*
X96513023Y-73770145D01*
X96513023Y-73770145D02*
X96536833Y-73722526D01*
X96536833Y-73722526D02*
X96536833Y-73627288D01*
X96536833Y-73627288D02*
X96513023Y-73579669D01*
X96513023Y-73579669D02*
X96489214Y-73555860D01*
X96489214Y-73555860D02*
X96441595Y-73532050D01*
X96441595Y-73246336D02*
X96417785Y-73293955D01*
X96417785Y-73293955D02*
X96393976Y-73317765D01*
X96393976Y-73317765D02*
X96346357Y-73341574D01*
X96346357Y-73341574D02*
X96322547Y-73341574D01*
X96322547Y-73341574D02*
X96274928Y-73317765D01*
X96274928Y-73317765D02*
X96251119Y-73293955D01*
X96251119Y-73293955D02*
X96227309Y-73246336D01*
X96227309Y-73246336D02*
X96227309Y-73151098D01*
X96227309Y-73151098D02*
X96251119Y-73103479D01*
X96251119Y-73103479D02*
X96274928Y-73079670D01*
X96274928Y-73079670D02*
X96322547Y-73055860D01*
X96322547Y-73055860D02*
X96346357Y-73055860D01*
X96346357Y-73055860D02*
X96393976Y-73079670D01*
X96393976Y-73079670D02*
X96417785Y-73103479D01*
X96417785Y-73103479D02*
X96441595Y-73151098D01*
X96441595Y-73151098D02*
X96441595Y-73246336D01*
X96441595Y-73246336D02*
X96465404Y-73293955D01*
X96465404Y-73293955D02*
X96489214Y-73317765D01*
X96489214Y-73317765D02*
X96536833Y-73341574D01*
X96536833Y-73341574D02*
X96632071Y-73341574D01*
X96632071Y-73341574D02*
X96679690Y-73317765D01*
X96679690Y-73317765D02*
X96703500Y-73293955D01*
X96703500Y-73293955D02*
X96727309Y-73246336D01*
X96727309Y-73246336D02*
X96727309Y-73151098D01*
X96727309Y-73151098D02*
X96703500Y-73103479D01*
X96703500Y-73103479D02*
X96679690Y-73079670D01*
X96679690Y-73079670D02*
X96632071Y-73055860D01*
X96632071Y-73055860D02*
X96536833Y-73055860D01*
X96536833Y-73055860D02*
X96489214Y-73079670D01*
X96489214Y-73079670D02*
X96465404Y-73103479D01*
X96465404Y-73103479D02*
X96441595Y-73151098D01*
X96727309Y-72817765D02*
X96727309Y-72722527D01*
X96727309Y-72722527D02*
X96703500Y-72674908D01*
X96703500Y-72674908D02*
X96679690Y-72651099D01*
X96679690Y-72651099D02*
X96608261Y-72603480D01*
X96608261Y-72603480D02*
X96513023Y-72579670D01*
X96513023Y-72579670D02*
X96322547Y-72579670D01*
X96322547Y-72579670D02*
X96274928Y-72603480D01*
X96274928Y-72603480D02*
X96251119Y-72627289D01*
X96251119Y-72627289D02*
X96227309Y-72674908D01*
X96227309Y-72674908D02*
X96227309Y-72770146D01*
X96227309Y-72770146D02*
X96251119Y-72817765D01*
X96251119Y-72817765D02*
X96274928Y-72841575D01*
X96274928Y-72841575D02*
X96322547Y-72865384D01*
X96322547Y-72865384D02*
X96441595Y-72865384D01*
X96441595Y-72865384D02*
X96489214Y-72841575D01*
X96489214Y-72841575D02*
X96513023Y-72817765D01*
X96513023Y-72817765D02*
X96536833Y-72770146D01*
X96536833Y-72770146D02*
X96536833Y-72674908D01*
X96536833Y-72674908D02*
X96513023Y-72627289D01*
X96513023Y-72627289D02*
X96489214Y-72603480D01*
X96489214Y-72603480D02*
X96441595Y-72579670D01*
X96274928Y-72389194D02*
X96251119Y-72365385D01*
X96251119Y-72365385D02*
X96227309Y-72317766D01*
X96227309Y-72317766D02*
X96227309Y-72198718D01*
X96227309Y-72198718D02*
X96251119Y-72151099D01*
X96251119Y-72151099D02*
X96274928Y-72127290D01*
X96274928Y-72127290D02*
X96322547Y-72103480D01*
X96322547Y-72103480D02*
X96370166Y-72103480D01*
X96370166Y-72103480D02*
X96441595Y-72127290D01*
X96441595Y-72127290D02*
X96727309Y-72413004D01*
X96727309Y-72413004D02*
X96727309Y-72103480D01*
X97032309Y-75055859D02*
X97389452Y-75055859D01*
X97389452Y-75055859D02*
X97460880Y-75079668D01*
X97460880Y-75079668D02*
X97508500Y-75127287D01*
X97508500Y-75127287D02*
X97532309Y-75198716D01*
X97532309Y-75198716D02*
X97532309Y-75246335D01*
X97532309Y-74579669D02*
X97532309Y-74817764D01*
X97532309Y-74817764D02*
X97032309Y-74817764D01*
X97484690Y-74127288D02*
X97508500Y-74151097D01*
X97508500Y-74151097D02*
X97532309Y-74222526D01*
X97532309Y-74222526D02*
X97532309Y-74270145D01*
X97532309Y-74270145D02*
X97508500Y-74341573D01*
X97508500Y-74341573D02*
X97460880Y-74389192D01*
X97460880Y-74389192D02*
X97413261Y-74413002D01*
X97413261Y-74413002D02*
X97318023Y-74436811D01*
X97318023Y-74436811D02*
X97246595Y-74436811D01*
X97246595Y-74436811D02*
X97151357Y-74413002D01*
X97151357Y-74413002D02*
X97103738Y-74389192D01*
X97103738Y-74389192D02*
X97056119Y-74341573D01*
X97056119Y-74341573D02*
X97032309Y-74270145D01*
X97032309Y-74270145D02*
X97032309Y-74222526D01*
X97032309Y-74222526D02*
X97056119Y-74151097D01*
X97056119Y-74151097D02*
X97079928Y-74127288D01*
X97341833Y-73913002D02*
X97341833Y-73532050D01*
X97079928Y-73317763D02*
X97056119Y-73293954D01*
X97056119Y-73293954D02*
X97032309Y-73246335D01*
X97032309Y-73246335D02*
X97032309Y-73127287D01*
X97032309Y-73127287D02*
X97056119Y-73079668D01*
X97056119Y-73079668D02*
X97079928Y-73055859D01*
X97079928Y-73055859D02*
X97127547Y-73032049D01*
X97127547Y-73032049D02*
X97175166Y-73032049D01*
X97175166Y-73032049D02*
X97246595Y-73055859D01*
X97246595Y-73055859D02*
X97532309Y-73341573D01*
X97532309Y-73341573D02*
X97532309Y-73032049D01*
D10*
X89989866Y-50651316D02*
X90023200Y-50551316D01*
X90023200Y-50551316D02*
X90056533Y-50517982D01*
X90056533Y-50517982D02*
X90123200Y-50484649D01*
X90123200Y-50484649D02*
X90223200Y-50484649D01*
X90223200Y-50484649D02*
X90289866Y-50517982D01*
X90289866Y-50517982D02*
X90323200Y-50551316D01*
X90323200Y-50551316D02*
X90356533Y-50617982D01*
X90356533Y-50617982D02*
X90356533Y-50884649D01*
X90356533Y-50884649D02*
X89656533Y-50884649D01*
X89656533Y-50884649D02*
X89656533Y-50651316D01*
X89656533Y-50651316D02*
X89689866Y-50584649D01*
X89689866Y-50584649D02*
X89723200Y-50551316D01*
X89723200Y-50551316D02*
X89789866Y-50517982D01*
X89789866Y-50517982D02*
X89856533Y-50517982D01*
X89856533Y-50517982D02*
X89923200Y-50551316D01*
X89923200Y-50551316D02*
X89956533Y-50584649D01*
X89956533Y-50584649D02*
X89989866Y-50651316D01*
X89989866Y-50651316D02*
X89989866Y-50884649D01*
X89656533Y-50051316D02*
X89656533Y-49917982D01*
X89656533Y-49917982D02*
X89689866Y-49851316D01*
X89689866Y-49851316D02*
X89756533Y-49784649D01*
X89756533Y-49784649D02*
X89889866Y-49751316D01*
X89889866Y-49751316D02*
X90123200Y-49751316D01*
X90123200Y-49751316D02*
X90256533Y-49784649D01*
X90256533Y-49784649D02*
X90323200Y-49851316D01*
X90323200Y-49851316D02*
X90356533Y-49917982D01*
X90356533Y-49917982D02*
X90356533Y-50051316D01*
X90356533Y-50051316D02*
X90323200Y-50117982D01*
X90323200Y-50117982D02*
X90256533Y-50184649D01*
X90256533Y-50184649D02*
X90123200Y-50217982D01*
X90123200Y-50217982D02*
X89889866Y-50217982D01*
X89889866Y-50217982D02*
X89756533Y-50184649D01*
X89756533Y-50184649D02*
X89689866Y-50117982D01*
X89689866Y-50117982D02*
X89656533Y-50051316D01*
X89656533Y-49317983D02*
X89656533Y-49184649D01*
X89656533Y-49184649D02*
X89689866Y-49117983D01*
X89689866Y-49117983D02*
X89756533Y-49051316D01*
X89756533Y-49051316D02*
X89889866Y-49017983D01*
X89889866Y-49017983D02*
X90123200Y-49017983D01*
X90123200Y-49017983D02*
X90256533Y-49051316D01*
X90256533Y-49051316D02*
X90323200Y-49117983D01*
X90323200Y-49117983D02*
X90356533Y-49184649D01*
X90356533Y-49184649D02*
X90356533Y-49317983D01*
X90356533Y-49317983D02*
X90323200Y-49384649D01*
X90323200Y-49384649D02*
X90256533Y-49451316D01*
X90256533Y-49451316D02*
X90123200Y-49484649D01*
X90123200Y-49484649D02*
X89889866Y-49484649D01*
X89889866Y-49484649D02*
X89756533Y-49451316D01*
X89756533Y-49451316D02*
X89689866Y-49384649D01*
X89689866Y-49384649D02*
X89656533Y-49317983D01*
X89656533Y-48817983D02*
X89656533Y-48417983D01*
X90356533Y-48617983D02*
X89656533Y-48617983D01*
X90323200Y-48217983D02*
X90356533Y-48117983D01*
X90356533Y-48117983D02*
X90356533Y-47951317D01*
X90356533Y-47951317D02*
X90323200Y-47884650D01*
X90323200Y-47884650D02*
X90289866Y-47851317D01*
X90289866Y-47851317D02*
X90223200Y-47817983D01*
X90223200Y-47817983D02*
X90156533Y-47817983D01*
X90156533Y-47817983D02*
X90089866Y-47851317D01*
X90089866Y-47851317D02*
X90056533Y-47884650D01*
X90056533Y-47884650D02*
X90023200Y-47951317D01*
X90023200Y-47951317D02*
X89989866Y-48084650D01*
X89989866Y-48084650D02*
X89956533Y-48151317D01*
X89956533Y-48151317D02*
X89923200Y-48184650D01*
X89923200Y-48184650D02*
X89856533Y-48217983D01*
X89856533Y-48217983D02*
X89789866Y-48217983D01*
X89789866Y-48217983D02*
X89723200Y-48184650D01*
X89723200Y-48184650D02*
X89689866Y-48151317D01*
X89689866Y-48151317D02*
X89656533Y-48084650D01*
X89656533Y-48084650D02*
X89656533Y-47917983D01*
X89656533Y-47917983D02*
X89689866Y-47817983D01*
X89989866Y-47517983D02*
X89989866Y-47284650D01*
X90356533Y-47184650D02*
X90356533Y-47517983D01*
X90356533Y-47517983D02*
X89656533Y-47517983D01*
X89656533Y-47517983D02*
X89656533Y-47184650D01*
X90356533Y-46551317D02*
X90356533Y-46884650D01*
X90356533Y-46884650D02*
X89656533Y-46884650D01*
X87932017Y-85723200D02*
X88032017Y-85756533D01*
X88032017Y-85756533D02*
X88198684Y-85756533D01*
X88198684Y-85756533D02*
X88265350Y-85723200D01*
X88265350Y-85723200D02*
X88298684Y-85689866D01*
X88298684Y-85689866D02*
X88332017Y-85623200D01*
X88332017Y-85623200D02*
X88332017Y-85556533D01*
X88332017Y-85556533D02*
X88298684Y-85489866D01*
X88298684Y-85489866D02*
X88265350Y-85456533D01*
X88265350Y-85456533D02*
X88198684Y-85423200D01*
X88198684Y-85423200D02*
X88065350Y-85389866D01*
X88065350Y-85389866D02*
X87998684Y-85356533D01*
X87998684Y-85356533D02*
X87965350Y-85323200D01*
X87965350Y-85323200D02*
X87932017Y-85256533D01*
X87932017Y-85256533D02*
X87932017Y-85189866D01*
X87932017Y-85189866D02*
X87965350Y-85123200D01*
X87965350Y-85123200D02*
X87998684Y-85089866D01*
X87998684Y-85089866D02*
X88065350Y-85056533D01*
X88065350Y-85056533D02*
X88232017Y-85056533D01*
X88232017Y-85056533D02*
X88332017Y-85089866D01*
X88565351Y-85056533D02*
X88732017Y-85756533D01*
X88732017Y-85756533D02*
X88865351Y-85256533D01*
X88865351Y-85256533D02*
X88998684Y-85756533D01*
X88998684Y-85756533D02*
X89165351Y-85056533D01*
X89432017Y-85756533D02*
X89432017Y-85056533D01*
X89432017Y-85056533D02*
X89598684Y-85056533D01*
X89598684Y-85056533D02*
X89698684Y-85089866D01*
X89698684Y-85089866D02*
X89765351Y-85156533D01*
X89765351Y-85156533D02*
X89798684Y-85223200D01*
X89798684Y-85223200D02*
X89832017Y-85356533D01*
X89832017Y-85356533D02*
X89832017Y-85456533D01*
X89832017Y-85456533D02*
X89798684Y-85589866D01*
X89798684Y-85589866D02*
X89765351Y-85656533D01*
X89765351Y-85656533D02*
X89698684Y-85723200D01*
X89698684Y-85723200D02*
X89598684Y-85756533D01*
X89598684Y-85756533D02*
X89432017Y-85756533D01*
X90665350Y-85756533D02*
X90665350Y-85056533D01*
X90665350Y-85056533D02*
X90832017Y-85056533D01*
X90832017Y-85056533D02*
X90932017Y-85089866D01*
X90932017Y-85089866D02*
X90998684Y-85156533D01*
X90998684Y-85156533D02*
X91032017Y-85223200D01*
X91032017Y-85223200D02*
X91065350Y-85356533D01*
X91065350Y-85356533D02*
X91065350Y-85456533D01*
X91065350Y-85456533D02*
X91032017Y-85589866D01*
X91032017Y-85589866D02*
X90998684Y-85656533D01*
X90998684Y-85656533D02*
X90932017Y-85723200D01*
X90932017Y-85723200D02*
X90832017Y-85756533D01*
X90832017Y-85756533D02*
X90665350Y-85756533D01*
X91365350Y-85389866D02*
X91598684Y-85389866D01*
X91698684Y-85756533D02*
X91365350Y-85756533D01*
X91365350Y-85756533D02*
X91365350Y-85056533D01*
X91365350Y-85056533D02*
X91698684Y-85056533D01*
X92232017Y-85389866D02*
X92332017Y-85423200D01*
X92332017Y-85423200D02*
X92365350Y-85456533D01*
X92365350Y-85456533D02*
X92398683Y-85523200D01*
X92398683Y-85523200D02*
X92398683Y-85623200D01*
X92398683Y-85623200D02*
X92365350Y-85689866D01*
X92365350Y-85689866D02*
X92332017Y-85723200D01*
X92332017Y-85723200D02*
X92265350Y-85756533D01*
X92265350Y-85756533D02*
X91998683Y-85756533D01*
X91998683Y-85756533D02*
X91998683Y-85056533D01*
X91998683Y-85056533D02*
X92232017Y-85056533D01*
X92232017Y-85056533D02*
X92298683Y-85089866D01*
X92298683Y-85089866D02*
X92332017Y-85123200D01*
X92332017Y-85123200D02*
X92365350Y-85189866D01*
X92365350Y-85189866D02*
X92365350Y-85256533D01*
X92365350Y-85256533D02*
X92332017Y-85323200D01*
X92332017Y-85323200D02*
X92298683Y-85356533D01*
X92298683Y-85356533D02*
X92232017Y-85389866D01*
X92232017Y-85389866D02*
X91998683Y-85389866D01*
X92698683Y-85056533D02*
X92698683Y-85623200D01*
X92698683Y-85623200D02*
X92732017Y-85689866D01*
X92732017Y-85689866D02*
X92765350Y-85723200D01*
X92765350Y-85723200D02*
X92832017Y-85756533D01*
X92832017Y-85756533D02*
X92965350Y-85756533D01*
X92965350Y-85756533D02*
X93032017Y-85723200D01*
X93032017Y-85723200D02*
X93065350Y-85689866D01*
X93065350Y-85689866D02*
X93098683Y-85623200D01*
X93098683Y-85623200D02*
X93098683Y-85056533D01*
X93798683Y-85089866D02*
X93732016Y-85056533D01*
X93732016Y-85056533D02*
X93632016Y-85056533D01*
X93632016Y-85056533D02*
X93532016Y-85089866D01*
X93532016Y-85089866D02*
X93465350Y-85156533D01*
X93465350Y-85156533D02*
X93432016Y-85223200D01*
X93432016Y-85223200D02*
X93398683Y-85356533D01*
X93398683Y-85356533D02*
X93398683Y-85456533D01*
X93398683Y-85456533D02*
X93432016Y-85589866D01*
X93432016Y-85589866D02*
X93465350Y-85656533D01*
X93465350Y-85656533D02*
X93532016Y-85723200D01*
X93532016Y-85723200D02*
X93632016Y-85756533D01*
X93632016Y-85756533D02*
X93698683Y-85756533D01*
X93698683Y-85756533D02*
X93798683Y-85723200D01*
X93798683Y-85723200D02*
X93832016Y-85689866D01*
X93832016Y-85689866D02*
X93832016Y-85456533D01*
X93832016Y-85456533D02*
X93698683Y-85456533D01*
X83765350Y-44306533D02*
X83765350Y-43606533D01*
X83765350Y-43606533D02*
X84032017Y-43606533D01*
X84032017Y-43606533D02*
X84098684Y-43639866D01*
X84098684Y-43639866D02*
X84132017Y-43673200D01*
X84132017Y-43673200D02*
X84165350Y-43739866D01*
X84165350Y-43739866D02*
X84165350Y-43839866D01*
X84165350Y-43839866D02*
X84132017Y-43906533D01*
X84132017Y-43906533D02*
X84098684Y-43939866D01*
X84098684Y-43939866D02*
X84032017Y-43973200D01*
X84032017Y-43973200D02*
X83765350Y-43973200D01*
X84432017Y-43673200D02*
X84465350Y-43639866D01*
X84465350Y-43639866D02*
X84532017Y-43606533D01*
X84532017Y-43606533D02*
X84698684Y-43606533D01*
X84698684Y-43606533D02*
X84765350Y-43639866D01*
X84765350Y-43639866D02*
X84798684Y-43673200D01*
X84798684Y-43673200D02*
X84832017Y-43739866D01*
X84832017Y-43739866D02*
X84832017Y-43806533D01*
X84832017Y-43806533D02*
X84798684Y-43906533D01*
X84798684Y-43906533D02*
X84398684Y-44306533D01*
X84398684Y-44306533D02*
X84832017Y-44306533D01*
X85432017Y-43839866D02*
X85432017Y-44306533D01*
X85265351Y-43573200D02*
X85098684Y-44073200D01*
X85098684Y-44073200D02*
X85532017Y-44073200D01*
D14*
%TO.C,J4*%
X86995000Y-90455000D02*
X86995000Y-89125000D01*
X88325000Y-90455000D02*
X86995000Y-90455000D01*
X89595000Y-90455000D02*
X94735000Y-90455000D01*
X89595000Y-90455000D02*
X89595000Y-87795000D01*
X94735000Y-90455000D02*
X94735000Y-87795000D01*
X89595000Y-87795000D02*
X94735000Y-87795000D01*
%TO.C,J1*%
X94580000Y-42880000D02*
X94580000Y-44430000D01*
X94580000Y-42880000D02*
X94280000Y-42880000D01*
X94280000Y-40080000D02*
X94280000Y-42880000D01*
X92130000Y-46130000D02*
X91330000Y-46130000D01*
X91730000Y-45680000D02*
X92130000Y-46130000D01*
X91330000Y-46130000D02*
X91730000Y-45680000D01*
X86580000Y-42880000D02*
X86280000Y-42880000D01*
X86580000Y-40080000D02*
X86580000Y-42880000D01*
X86280000Y-42880000D02*
X86280000Y-44430000D01*
D15*
%TO.C,S1*%
X87188500Y-50850000D02*
X87961500Y-50850000D01*
X89175000Y-50186500D02*
X89175000Y-47313500D01*
X85975000Y-47313500D02*
X85975000Y-50186500D01*
X87961500Y-46650000D02*
X87188500Y-46650000D01*
D12*
X88750000Y-51980000D02*
G75*
G03*
X88750000Y-51980000I-100000J0D01*
G01*
D14*
%TO.C,U2*%
X96960000Y-49512500D02*
X96960000Y-47712500D01*
X96960000Y-49512500D02*
X96960000Y-50312500D01*
X93840000Y-49512500D02*
X93840000Y-48712500D01*
X93840000Y-49512500D02*
X93840000Y-50312500D01*
%TO.C,U1*%
X86652500Y-64310000D02*
X86652500Y-63660000D01*
X87302500Y-57090000D02*
X86652500Y-57090000D01*
X87302500Y-64310000D02*
X86652500Y-64310000D01*
X93222500Y-57090000D02*
X93872500Y-57090000D01*
X93222500Y-64310000D02*
X93872500Y-64310000D01*
X93872500Y-57090000D02*
X93872500Y-57740000D01*
X93872500Y-64310000D02*
X93872500Y-63660000D01*
%TO.C,G\u002A\u002A\u002A*%
G36*
X93571831Y-77676003D02*
G01*
X93671171Y-77706990D01*
X93799260Y-77766093D01*
X93800917Y-77766908D01*
X94004419Y-77892907D01*
X94170942Y-78057025D01*
X94312324Y-78272126D01*
X94368446Y-78383734D01*
X94409492Y-78476544D01*
X94437020Y-78558832D01*
X94453701Y-78648320D01*
X94462206Y-78762730D01*
X94465205Y-78919784D01*
X94465475Y-79027648D01*
X94464551Y-79212616D01*
X94459780Y-79345858D01*
X94448162Y-79445519D01*
X94426697Y-79529746D01*
X94392385Y-79616683D01*
X94354567Y-79698484D01*
X94225013Y-79918273D01*
X94063050Y-80109549D01*
X93884054Y-80255527D01*
X93801651Y-80302157D01*
X93668261Y-80346854D01*
X93496223Y-80376078D01*
X93417332Y-80382330D01*
X93271504Y-80385155D01*
X93163374Y-80371866D01*
X93061525Y-80336638D01*
X92992242Y-80303499D01*
X92765239Y-80151521D01*
X92580342Y-79952719D01*
X92439019Y-79717116D01*
X92342742Y-79454735D01*
X92292979Y-79175596D01*
X92291202Y-78889723D01*
X92338879Y-78607137D01*
X92437480Y-78337861D01*
X92588475Y-78091917D01*
X92656019Y-78010935D01*
X92842676Y-77840416D01*
X93043959Y-77732102D01*
X93275221Y-77678326D01*
X93332781Y-77672972D01*
X93469586Y-77666781D01*
X93571831Y-77676003D01*
G37*
G36*
X91312741Y-74144822D02*
G01*
X91539799Y-74168251D01*
X91630368Y-74185671D01*
X92043360Y-74313441D01*
X92450484Y-74499030D01*
X92577282Y-74570020D01*
X92735789Y-74678586D01*
X92921436Y-74830386D01*
X93120520Y-75011960D01*
X93319335Y-75209846D01*
X93504179Y-75410582D01*
X93661347Y-75600707D01*
X93746224Y-75718268D01*
X93893415Y-75953095D01*
X94017898Y-76179670D01*
X94114485Y-76386761D01*
X94177988Y-76563135D01*
X94203220Y-76697562D01*
X94203439Y-76708255D01*
X94203439Y-76855695D01*
X94024552Y-76894060D01*
X93659167Y-76962508D01*
X93313260Y-77008048D01*
X92997772Y-77029978D01*
X92723645Y-77027596D01*
X92501823Y-77000197D01*
X92473054Y-76993721D01*
X92380439Y-76962635D01*
X92322135Y-76911379D01*
X92273506Y-76817258D01*
X92268517Y-76805317D01*
X92205664Y-76700429D01*
X92099844Y-76571211D01*
X91966139Y-76432232D01*
X91819628Y-76298063D01*
X91675393Y-76183271D01*
X91548516Y-76102425D01*
X91532738Y-76094521D01*
X91375177Y-76031542D01*
X91158923Y-75963444D01*
X90894792Y-75892298D01*
X90593598Y-75820171D01*
X90266153Y-75749133D01*
X89923273Y-75681252D01*
X89575771Y-75618598D01*
X89234461Y-75563239D01*
X88910157Y-75517243D01*
X88613674Y-75482681D01*
X88355824Y-75461620D01*
X88194825Y-75455933D01*
X87898591Y-75453796D01*
X88124949Y-75245299D01*
X88493985Y-74946995D01*
X88912040Y-74682661D01*
X89362985Y-74460989D01*
X89830693Y-74290676D01*
X89967213Y-74252119D01*
X90200841Y-74203272D01*
X90471261Y-74167357D01*
X90759419Y-74145136D01*
X91046264Y-74137371D01*
X91312741Y-74144822D01*
G37*
G36*
X88434828Y-75786528D02*
G01*
X88674360Y-75809178D01*
X88953704Y-75844219D01*
X89261475Y-75889547D01*
X89586288Y-75943057D01*
X89916758Y-76002644D01*
X90241502Y-76066205D01*
X90549133Y-76131634D01*
X90828269Y-76196828D01*
X91067522Y-76259682D01*
X91255510Y-76318090D01*
X91338515Y-76349936D01*
X91446655Y-76411507D01*
X91579858Y-76508494D01*
X91718122Y-76623953D01*
X91841442Y-76740936D01*
X91929816Y-76842499D01*
X91943396Y-76862369D01*
X91990733Y-76998547D01*
X91989448Y-77168668D01*
X91943079Y-77360175D01*
X91855165Y-77560514D01*
X91729243Y-77757127D01*
X91670766Y-77829886D01*
X91559735Y-77933892D01*
X91416933Y-78018193D01*
X91231621Y-78087232D01*
X90993059Y-78145448D01*
X90839033Y-78173826D01*
X90661779Y-78196520D01*
X90431303Y-78215281D01*
X90164171Y-78229700D01*
X89876950Y-78239371D01*
X89586203Y-78243887D01*
X89308499Y-78242840D01*
X89060401Y-78235823D01*
X88859307Y-78222508D01*
X88420571Y-78164547D01*
X87986707Y-78073560D01*
X87539324Y-77944917D01*
X87060034Y-77773987D01*
X87026959Y-77761155D01*
X86827079Y-77677481D01*
X86685725Y-77601427D01*
X86593576Y-77523886D01*
X86541313Y-77435755D01*
X86519616Y-77327929D01*
X86517318Y-77263274D01*
X86521242Y-77193623D01*
X86536760Y-77127114D01*
X86569489Y-77056151D01*
X86625047Y-76973139D01*
X86709050Y-76870483D01*
X86827117Y-76740587D01*
X86984865Y-76575857D01*
X87151908Y-76405251D01*
X87348237Y-76208554D01*
X87508018Y-76057616D01*
X87641676Y-75946465D01*
X87759637Y-75869130D01*
X87872328Y-75819641D01*
X87990176Y-75792025D01*
X88123606Y-75780311D01*
X88246493Y-75778374D01*
X88434828Y-75786528D01*
G37*
G36*
X94082505Y-77218039D02*
G01*
X94093230Y-77258086D01*
X94104529Y-77345239D01*
X94115058Y-77459989D01*
X94123476Y-77582828D01*
X94128441Y-77694247D01*
X94128611Y-77774739D01*
X94122868Y-77804814D01*
X94084424Y-77786872D01*
X94008600Y-77740938D01*
X93951889Y-77703784D01*
X93718112Y-77583913D01*
X93478482Y-77529824D01*
X93239629Y-77538551D01*
X93008184Y-77607123D01*
X92790777Y-77732571D01*
X92594038Y-77911928D01*
X92424596Y-78142224D01*
X92289083Y-78420489D01*
X92276500Y-78453990D01*
X92226347Y-78652593D01*
X92200028Y-78891659D01*
X92197543Y-79145966D01*
X92218892Y-79390292D01*
X92264075Y-79599413D01*
X92276500Y-79636244D01*
X92415436Y-79934222D01*
X92595794Y-80186505D01*
X92730270Y-80319558D01*
X92812099Y-80393611D01*
X92863898Y-80448574D01*
X92874553Y-80470296D01*
X92588726Y-80679016D01*
X92257095Y-80871617D01*
X91903645Y-81035452D01*
X91592928Y-81145995D01*
X91461735Y-81182844D01*
X91340952Y-81209238D01*
X91213039Y-81227287D01*
X91060460Y-81239103D01*
X90865675Y-81246795D01*
X90727098Y-81250185D01*
X90451906Y-81252774D01*
X90234937Y-81247041D01*
X90064972Y-81232434D01*
X89944938Y-81211703D01*
X89519337Y-81089970D01*
X89112849Y-80924039D01*
X88745981Y-80722623D01*
X88659952Y-80665750D01*
X88372097Y-80437001D01*
X88092453Y-80157619D01*
X87835220Y-79845047D01*
X87614599Y-79516729D01*
X87444788Y-79190109D01*
X87429461Y-79154171D01*
X87359218Y-78970127D01*
X87294231Y-78772207D01*
X87239594Y-78578827D01*
X87200399Y-78408404D01*
X87181740Y-78279353D01*
X87180880Y-78255303D01*
X87180880Y-78157959D01*
X87381775Y-78227324D01*
X87576822Y-78288396D01*
X87814658Y-78353411D01*
X88068983Y-78415861D01*
X88313495Y-78469238D01*
X88494966Y-78502775D01*
X88743439Y-78543199D01*
X88765978Y-78811627D01*
X88798488Y-79075660D01*
X88846257Y-79272318D01*
X88909710Y-79402508D01*
X88989275Y-79467139D01*
X89075259Y-79469943D01*
X89159555Y-79427767D01*
X89187331Y-79353446D01*
X89160846Y-79239973D01*
X89154467Y-79224201D01*
X89133833Y-79155514D01*
X89109673Y-79047372D01*
X89085255Y-78918975D01*
X89063846Y-78789526D01*
X89048714Y-78678224D01*
X89043126Y-78604272D01*
X89045812Y-78585689D01*
X89080344Y-78583531D01*
X89174268Y-78580537D01*
X89317106Y-78576961D01*
X89498384Y-78573062D01*
X89707626Y-78569096D01*
X89757571Y-78568219D01*
X90465073Y-78555984D01*
X90465331Y-78678267D01*
X90474367Y-78824877D01*
X90497756Y-78995190D01*
X90530722Y-79163337D01*
X90568489Y-79303452D01*
X90592041Y-79364520D01*
X90661077Y-79467630D01*
X90739705Y-79502865D01*
X90812864Y-79482689D01*
X90886961Y-79411862D01*
X90896854Y-79314955D01*
X90870699Y-79243798D01*
X90838859Y-79154684D01*
X90810730Y-79031010D01*
X90799614Y-78957772D01*
X90782657Y-78821298D01*
X90765476Y-78690751D01*
X90758185Y-78638598D01*
X90739778Y-78511584D01*
X90971631Y-78471208D01*
X91209965Y-78417462D01*
X91437346Y-78343812D01*
X91633438Y-78257803D01*
X91765895Y-78176424D01*
X91898550Y-78048436D01*
X92032610Y-77871989D01*
X92154402Y-77666857D01*
X92229561Y-77505862D01*
X92285901Y-77383988D01*
X92333073Y-77320537D01*
X92376893Y-77305794D01*
X92441057Y-77313857D01*
X92551514Y-77327954D01*
X92685262Y-77345148D01*
X92695744Y-77346501D01*
X92900480Y-77357833D01*
X93155504Y-77347746D01*
X93445048Y-77317608D01*
X93753344Y-77268790D01*
X93883032Y-77243377D01*
X93988256Y-77224248D01*
X94061619Y-77215968D01*
X94082505Y-77218039D01*
G37*
%TO.C,Y1*%
X88825000Y-67300000D02*
X88825000Y-70100000D01*
X88825000Y-70100000D02*
X92125000Y-70100000D01*
%TO.C,G\u002A\u002A\u002A*%
G36*
X96075957Y-89521138D02*
G01*
X96163850Y-89540211D01*
X96281718Y-89567425D01*
X96319803Y-89576478D01*
X96474053Y-89619191D01*
X96577952Y-89663474D01*
X96646252Y-89715873D01*
X96654443Y-89724959D01*
X96716874Y-89841037D01*
X96720196Y-89965086D01*
X96677712Y-90061373D01*
X96624579Y-90115598D01*
X96581968Y-90133933D01*
X96535915Y-90106948D01*
X96512719Y-90045013D01*
X96519945Y-89976658D01*
X96533948Y-89952803D01*
X96555617Y-89898362D01*
X96520601Y-89852145D01*
X96426118Y-89812377D01*
X96269389Y-89777284D01*
X96254949Y-89774774D01*
X96010283Y-89732922D01*
X96010283Y-89623273D01*
X96016675Y-89549655D01*
X96032312Y-89514405D01*
X96034769Y-89513879D01*
X96075957Y-89521138D01*
G37*
G36*
X96867288Y-85319625D02*
G01*
X96947362Y-85339348D01*
X96996606Y-85356089D01*
X96997879Y-85356794D01*
X97006878Y-85392967D01*
X97014389Y-85481982D01*
X97019740Y-85611391D01*
X97022257Y-85768746D01*
X97022365Y-85810024D01*
X97021426Y-85989158D01*
X97017849Y-86112759D01*
X97010498Y-86190574D01*
X96998235Y-86232348D01*
X96979923Y-86247828D01*
X96971148Y-86248843D01*
X96918423Y-86240867D01*
X96816520Y-86219193D01*
X96679282Y-86187199D01*
X96520556Y-86148264D01*
X96354184Y-86105767D01*
X96194012Y-86063087D01*
X96083740Y-86032260D01*
X95912339Y-85983027D01*
X95912339Y-85821080D01*
X95921721Y-85704112D01*
X95949327Y-85646214D01*
X95956631Y-85642136D01*
X96004153Y-85643155D01*
X96100606Y-85658544D01*
X96231875Y-85685673D01*
X96381053Y-85721205D01*
X96761183Y-85817271D01*
X96761183Y-85557069D01*
X96761183Y-85296868D01*
X96867288Y-85319625D01*
G37*
G36*
X96094690Y-86265506D02*
G01*
X96221930Y-86291557D01*
X96367486Y-86327271D01*
X96516861Y-86368848D01*
X96655560Y-86412493D01*
X96769084Y-86454405D01*
X96842702Y-86490634D01*
X96911067Y-86556678D01*
X96975726Y-86652122D01*
X96991736Y-86683971D01*
X97027800Y-86798696D01*
X97048575Y-86936461D01*
X97052773Y-87073622D01*
X97039104Y-87186532D01*
X97021653Y-87233039D01*
X96990834Y-87265387D01*
X96939065Y-87270093D01*
X96858828Y-87253407D01*
X96727378Y-87220041D01*
X96748458Y-87061137D01*
X96755507Y-86945650D01*
X96732924Y-86867078D01*
X96670180Y-86812112D01*
X96556747Y-86767446D01*
X96503891Y-86751998D01*
X96393320Y-86721137D01*
X96302177Y-86695690D01*
X96263303Y-86684832D01*
X96217362Y-86690016D01*
X96206170Y-86736360D01*
X96181806Y-86790987D01*
X96110022Y-86802562D01*
X95996084Y-86772016D01*
X95951854Y-86750549D01*
X95926745Y-86717414D01*
X95915386Y-86656115D01*
X95912405Y-86550154D01*
X95912339Y-86514831D01*
X95918573Y-86375795D01*
X95936253Y-86285528D01*
X95953149Y-86257582D01*
X96000265Y-86252915D01*
X96094690Y-86265506D01*
G37*
G36*
X96367273Y-82862556D02*
G01*
X96446595Y-82899507D01*
X96516223Y-82961107D01*
X96623987Y-83114486D01*
X96683608Y-83308733D01*
X96695705Y-83462360D01*
X96695887Y-83597857D01*
X96859126Y-83637018D01*
X97022365Y-83676178D01*
X97022365Y-83871403D01*
X97022365Y-84066627D01*
X96931919Y-84046762D01*
X96868237Y-84031309D01*
X96755722Y-84002574D01*
X96608595Y-83964241D01*
X96442396Y-83920343D01*
X96441077Y-83919995D01*
X96385068Y-83905077D01*
X95928663Y-83783257D01*
X95917978Y-83620356D01*
X95915244Y-83396138D01*
X95917541Y-83374810D01*
X96206170Y-83374810D01*
X96208579Y-83444088D01*
X96214389Y-83473761D01*
X96214547Y-83473778D01*
X96248174Y-83481822D01*
X96319719Y-83501555D01*
X96332660Y-83505250D01*
X96442396Y-83536722D01*
X96421497Y-83432230D01*
X96392970Y-83344239D01*
X96354888Y-83282026D01*
X96291551Y-83249759D01*
X96237830Y-83273575D01*
X96208200Y-83344443D01*
X96206170Y-83374810D01*
X95917541Y-83374810D01*
X95936378Y-83199885D01*
X95979303Y-83043766D01*
X96032179Y-82950745D01*
X96098159Y-82886875D01*
X96171667Y-82858869D01*
X96261308Y-82853470D01*
X96367273Y-82862556D01*
G37*
G36*
X96126954Y-84006593D02*
G01*
X96215590Y-84031393D01*
X96292379Y-84062554D01*
X96334367Y-84091902D01*
X96336761Y-84098634D01*
X96318120Y-84146147D01*
X96273109Y-84213670D01*
X96271465Y-84215770D01*
X96223559Y-84319118D01*
X96206177Y-84449194D01*
X96221860Y-84573730D01*
X96239785Y-84618260D01*
X96306866Y-84690302D01*
X96409219Y-84744465D01*
X96525661Y-84775378D01*
X96635003Y-84777669D01*
X96716061Y-84745969D01*
X96722005Y-84740514D01*
X96754081Y-84668600D01*
X96758669Y-84560315D01*
X96737440Y-84437712D01*
X96692064Y-84322842D01*
X96690080Y-84319270D01*
X96651594Y-84238660D01*
X96637288Y-84182585D01*
X96640446Y-84171293D01*
X96682792Y-84164328D01*
X96763836Y-84172233D01*
X96800918Y-84179149D01*
X96904074Y-84212783D01*
X96966564Y-84269201D01*
X96987863Y-84306357D01*
X97022513Y-84417582D01*
X97042080Y-84563036D01*
X97045632Y-84716931D01*
X97032239Y-84853481D01*
X97010344Y-84929375D01*
X96922439Y-85061392D01*
X96799399Y-85140839D01*
X96635792Y-85170991D01*
X96608564Y-85171465D01*
X96400967Y-85142232D01*
X96223353Y-85058406D01*
X96080907Y-84925797D01*
X95978815Y-84750217D01*
X95922261Y-84537475D01*
X95912339Y-84391243D01*
X95922706Y-84261849D01*
X95950028Y-84142714D01*
X95988635Y-84050168D01*
X96032860Y-84000540D01*
X96049427Y-83996326D01*
X96126954Y-84006593D01*
G37*
G36*
X96126954Y-81655950D02*
G01*
X96215590Y-81680751D01*
X96292379Y-81711912D01*
X96334367Y-81741260D01*
X96336761Y-81747991D01*
X96318120Y-81795505D01*
X96273109Y-81863027D01*
X96271465Y-81865127D01*
X96223559Y-81968476D01*
X96206177Y-82098552D01*
X96221860Y-82223087D01*
X96239785Y-82267618D01*
X96306866Y-82339659D01*
X96409219Y-82393822D01*
X96525661Y-82424735D01*
X96635003Y-82427027D01*
X96716061Y-82395326D01*
X96722005Y-82389871D01*
X96754081Y-82317957D01*
X96758669Y-82209673D01*
X96737440Y-82087069D01*
X96692064Y-81972199D01*
X96690080Y-81968627D01*
X96651594Y-81888017D01*
X96637288Y-81831943D01*
X96640446Y-81820651D01*
X96682792Y-81813685D01*
X96763836Y-81821591D01*
X96800918Y-81828507D01*
X96904074Y-81862141D01*
X96966564Y-81918558D01*
X96987863Y-81955714D01*
X97022513Y-82066939D01*
X97042080Y-82212393D01*
X97045632Y-82366288D01*
X97032239Y-82502838D01*
X97010344Y-82578733D01*
X96922439Y-82710749D01*
X96799399Y-82790196D01*
X96635792Y-82820348D01*
X96608564Y-82820822D01*
X96400967Y-82791589D01*
X96223353Y-82707763D01*
X96080907Y-82575155D01*
X95978815Y-82399574D01*
X95922261Y-82186832D01*
X95912339Y-82040600D01*
X95922706Y-81911206D01*
X95950028Y-81792071D01*
X95988635Y-81699525D01*
X96032860Y-81649898D01*
X96049427Y-81645683D01*
X96126954Y-81655950D01*
G37*
G36*
X96259506Y-80533236D02*
G01*
X96365850Y-80583249D01*
X96381098Y-80596417D01*
X96437307Y-80642353D01*
X96472766Y-80643662D01*
X96499097Y-80618182D01*
X96576543Y-80570169D01*
X96676649Y-80569136D01*
X96784315Y-80608791D01*
X96884440Y-80682845D01*
X96961925Y-80785008D01*
X96977350Y-80817415D01*
X96993035Y-80884443D01*
X97006108Y-80994556D01*
X97016090Y-81132158D01*
X97022504Y-81281649D01*
X97024870Y-81427432D01*
X97022712Y-81553910D01*
X97015550Y-81645483D01*
X97003963Y-81685668D01*
X96967810Y-81684045D01*
X96879373Y-81667903D01*
X96749452Y-81639564D01*
X96731205Y-81635222D01*
X96588851Y-81601346D01*
X96457112Y-81568200D01*
X96271465Y-81520468D01*
X95928663Y-81432331D01*
X95918928Y-81208865D01*
X95920827Y-81021385D01*
X96206170Y-81021385D01*
X96223233Y-81100310D01*
X96271465Y-81132595D01*
X96323282Y-81124214D01*
X96333559Y-81086995D01*
X96597943Y-81086995D01*
X96613849Y-81190169D01*
X96665608Y-81242825D01*
X96731205Y-81253727D01*
X96754154Y-81225444D01*
X96759600Y-81153726D01*
X96746703Y-81058276D01*
X96740605Y-81033354D01*
X96700426Y-80973402D01*
X96659431Y-80959897D01*
X96618465Y-80972696D01*
X96600763Y-81022083D01*
X96597943Y-81086995D01*
X96333559Y-81086995D01*
X96338654Y-81068542D01*
X96316944Y-80978891D01*
X96278808Y-80929874D01*
X96236826Y-80935366D01*
X96209159Y-80988398D01*
X96206170Y-81021385D01*
X95920827Y-81021385D01*
X95920888Y-81015376D01*
X95942037Y-80839478D01*
X95979468Y-80695610D01*
X96030278Y-80598214D01*
X96044909Y-80582657D01*
X96144366Y-80532704D01*
X96259506Y-80533236D01*
G37*
G36*
X96389787Y-88754797D02*
G01*
X96444039Y-88777920D01*
X96534197Y-88839229D01*
X96603755Y-88917030D01*
X96605582Y-88920053D01*
X96639715Y-89016843D01*
X96657636Y-89146667D01*
X96656667Y-89278680D01*
X96643411Y-89355531D01*
X96601131Y-89416862D01*
X96581620Y-89421725D01*
X96531678Y-89434171D01*
X96514178Y-89430069D01*
X96448386Y-89414646D01*
X96364593Y-89365476D01*
X96293634Y-89293850D01*
X96248843Y-89206955D01*
X96241922Y-89151150D01*
X96336761Y-89151150D01*
X96365697Y-89219782D01*
X96437717Y-89269765D01*
X96514178Y-89285090D01*
X96557221Y-89262728D01*
X96560232Y-89212538D01*
X96524486Y-89162492D01*
X96460848Y-89126659D01*
X96410218Y-89107322D01*
X96354359Y-89100700D01*
X96337132Y-89137608D01*
X96336761Y-89151150D01*
X96241922Y-89151150D01*
X96240321Y-89138244D01*
X96242329Y-89043241D01*
X96240056Y-88974935D01*
X96233356Y-88935085D01*
X96218663Y-88951738D01*
X96202865Y-88989282D01*
X96184224Y-89116525D01*
X96216089Y-89249000D01*
X96289243Y-89365548D01*
X96394467Y-89445008D01*
X96403014Y-89448725D01*
X96524873Y-89474083D01*
X96621109Y-89445054D01*
X96686650Y-89369228D01*
X96716423Y-89254197D01*
X96705356Y-89107550D01*
X96684057Y-89028184D01*
X96646915Y-88906527D01*
X96632966Y-88834563D01*
X96641098Y-88801379D01*
X96660327Y-88795372D01*
X96690724Y-88822211D01*
X96734450Y-88890423D01*
X96758270Y-88936271D01*
X96805001Y-89075552D01*
X96823563Y-89226344D01*
X96810932Y-89358694D01*
X96803421Y-89383033D01*
X96732618Y-89493544D01*
X96625352Y-89562527D01*
X96535119Y-89578798D01*
X96396395Y-89552538D01*
X96277455Y-89481936D01*
X96182489Y-89378791D01*
X96115687Y-89254908D01*
X96081241Y-89122086D01*
X96083340Y-88992128D01*
X96126174Y-88876837D01*
X96133154Y-88869772D01*
X96288028Y-88869772D01*
X96295876Y-88895800D01*
X96362577Y-88936824D01*
X96451028Y-88976648D01*
X96581620Y-89030739D01*
X96502471Y-88945703D01*
X96422224Y-88885003D01*
X96340864Y-88860668D01*
X96288028Y-88869772D01*
X96133154Y-88869772D01*
X96213935Y-88788012D01*
X96247673Y-88769230D01*
X96320427Y-88744650D01*
X96389787Y-88754797D01*
G37*
G36*
X96142259Y-87509028D02*
G01*
X96178813Y-87567982D01*
X96188030Y-87671035D01*
X96184976Y-87700269D01*
X96177770Y-87793567D01*
X96194314Y-87849258D01*
X96242237Y-87893013D01*
X96242264Y-87893032D01*
X96347141Y-87941617D01*
X96441088Y-87943535D01*
X96511327Y-87905944D01*
X96545080Y-87836001D01*
X96529569Y-87740861D01*
X96526492Y-87733846D01*
X96504120Y-87666568D01*
X96520281Y-87628616D01*
X96534504Y-87618244D01*
X96596102Y-87597166D01*
X96646267Y-87627969D01*
X96693617Y-87711770D01*
X96736811Y-87781632D01*
X96780999Y-87815373D01*
X96786010Y-87815938D01*
X96841113Y-87840861D01*
X96922180Y-87907580D01*
X97018275Y-88004025D01*
X97118461Y-88118121D01*
X97211802Y-88237798D01*
X97287362Y-88350982D01*
X97313471Y-88398202D01*
X97438913Y-88707870D01*
X97507355Y-89022320D01*
X97516690Y-89330429D01*
X97507307Y-89422517D01*
X97447242Y-89667858D01*
X97340766Y-89872095D01*
X97191187Y-90031214D01*
X97001813Y-90141205D01*
X96883612Y-90178894D01*
X96813537Y-90187856D01*
X96799469Y-90170110D01*
X96839866Y-90129797D01*
X96921260Y-90077789D01*
X97056527Y-89963714D01*
X97152183Y-89800918D01*
X97206094Y-89594148D01*
X97217864Y-89417433D01*
X97192928Y-89106983D01*
X97118574Y-88837824D01*
X96993921Y-88607570D01*
X96861892Y-88454106D01*
X96728535Y-88325051D01*
X96728535Y-88527564D01*
X96727896Y-88620413D01*
X96719200Y-88682391D01*
X96692272Y-88716919D01*
X96636941Y-88727415D01*
X96543034Y-88717300D01*
X96400378Y-88689994D01*
X96304113Y-88670250D01*
X96170677Y-88642029D01*
X96088234Y-88619368D01*
X96043766Y-88594951D01*
X96024253Y-88561458D01*
X96016676Y-88511572D01*
X96016376Y-88508505D01*
X96012464Y-88459395D01*
X96018298Y-88427103D01*
X96043359Y-88411151D01*
X96097129Y-88411057D01*
X96189091Y-88426343D01*
X96328724Y-88456529D01*
X96459190Y-88486104D01*
X96506039Y-88490209D01*
X96527169Y-88463413D01*
X96532574Y-88389997D01*
X96532648Y-88370548D01*
X96547761Y-88267655D01*
X96588938Y-88215810D01*
X96649931Y-88220519D01*
X96679979Y-88240705D01*
X96707819Y-88255700D01*
X96721994Y-88233566D01*
X96726313Y-88163112D01*
X96725957Y-88105604D01*
X96721707Y-88018812D01*
X96713367Y-87975267D01*
X96705373Y-87979177D01*
X96635196Y-88090493D01*
X96529517Y-88149928D01*
X96394931Y-88155511D01*
X96255787Y-88113417D01*
X96147456Y-88052576D01*
X96077251Y-87973386D01*
X96042682Y-87907128D01*
X95979069Y-87766966D01*
X95978352Y-88030620D01*
X95976151Y-88164847D01*
X95967481Y-88251607D01*
X95947908Y-88308693D01*
X95912997Y-88353901D01*
X95892913Y-88373422D01*
X95796618Y-88482043D01*
X95737650Y-88601408D01*
X95709144Y-88750373D01*
X95703626Y-88893316D01*
X95720402Y-89123944D01*
X95772824Y-89369355D01*
X95835915Y-89569547D01*
X95846023Y-89608624D01*
X95824196Y-89595372D01*
X95807400Y-89578920D01*
X95771114Y-89524425D01*
X95723563Y-89429269D01*
X95676525Y-89317737D01*
X95572861Y-88989166D01*
X95526111Y-88688549D01*
X95536153Y-88416961D01*
X95602866Y-88175480D01*
X95726129Y-87965180D01*
X95843676Y-87839189D01*
X95922853Y-87756359D01*
X95980124Y-87675738D01*
X95996330Y-87638551D01*
X96038242Y-87540132D01*
X96091144Y-87498351D01*
X96142259Y-87509028D01*
G37*
D16*
%TO.C,D2*%
X85075000Y-41882500D02*
G75*
G03*
X85075000Y-41882500I-50000J0D01*
G01*
%TO.C,D1*%
X95525000Y-41207500D02*
G75*
G03*
X95525000Y-41207500I-50000J0D01*
G01*
%TO.C,G\u002A\u002A\u002A*%
G36*
X95812738Y-75970509D02*
G01*
X95813076Y-75975616D01*
X95812576Y-75982017D01*
X95810044Y-75986192D01*
X95803931Y-75988858D01*
X95792688Y-75990735D01*
X95777042Y-75992329D01*
X95757063Y-75995432D01*
X95743830Y-76001133D01*
X95736125Y-76010639D01*
X95732733Y-76025157D01*
X95732262Y-76036800D01*
X95732262Y-76058479D01*
X95772669Y-76058479D01*
X95813076Y-76058479D01*
X95813076Y-76068581D01*
X95813076Y-76078683D01*
X95724180Y-76078683D01*
X95651447Y-76078683D01*
X95635284Y-76078683D01*
X95635284Y-76058479D01*
X95651447Y-76058479D01*
X95683773Y-76058479D01*
X95716099Y-76058479D01*
X95716099Y-76034997D01*
X95715269Y-76019357D01*
X95712332Y-76009036D01*
X95707860Y-76002671D01*
X95696429Y-75995696D01*
X95681939Y-75993630D01*
X95667791Y-75996526D01*
X95659529Y-76001909D01*
X95654593Y-76008999D01*
X95652107Y-76019194D01*
X95651447Y-76034235D01*
X95651447Y-76058479D01*
X95635284Y-76058479D01*
X95635284Y-76042116D01*
X95636432Y-76016365D01*
X95640273Y-75997545D01*
X95647410Y-75984781D01*
X95658441Y-75977200D01*
X95673966Y-75973926D01*
X95682281Y-75973624D01*
X95699467Y-75976088D01*
X95711366Y-75984006D01*
X95718111Y-75995156D01*
X95723506Y-76007970D01*
X95726329Y-75996752D01*
X95730069Y-75987857D01*
X95737015Y-75981900D01*
X95748782Y-75978035D01*
X95766989Y-75975417D01*
X95767193Y-75975396D01*
X95782312Y-75973433D01*
X95795799Y-75971006D01*
X95801964Y-75969460D01*
X95809856Y-75967734D01*
X95812738Y-75970509D01*
G37*
G36*
X95778231Y-75861799D02*
G01*
X95809889Y-75872830D01*
X95839214Y-75889893D01*
X95865180Y-75912927D01*
X95886760Y-75941871D01*
X95887537Y-75943185D01*
X95899591Y-75970400D01*
X95907106Y-76001747D01*
X95909688Y-76034419D01*
X95906939Y-76065609D01*
X95905674Y-76071595D01*
X95893967Y-76104277D01*
X95875577Y-76133777D01*
X95851572Y-76159203D01*
X95823017Y-76179665D01*
X95790981Y-76194271D01*
X95756530Y-76202129D01*
X95748523Y-76202878D01*
X95728022Y-76202260D01*
X95711873Y-76201774D01*
X95678165Y-76193807D01*
X95647852Y-76179805D01*
X95621384Y-76160592D01*
X95599215Y-76136995D01*
X95581798Y-76109840D01*
X95569584Y-76079954D01*
X95563026Y-76048161D01*
X95562781Y-76030279D01*
X95588816Y-76030279D01*
X95589058Y-76049169D01*
X95590164Y-76062803D01*
X95592708Y-76074000D01*
X95597260Y-76085582D01*
X95602097Y-76095728D01*
X95620063Y-76123903D01*
X95642727Y-76146386D01*
X95669001Y-76163070D01*
X95697796Y-76173849D01*
X95728022Y-76178615D01*
X95758590Y-76177260D01*
X95788411Y-76169678D01*
X95816397Y-76155761D01*
X95841458Y-76135402D01*
X95854250Y-76120565D01*
X95872046Y-76090684D01*
X95882351Y-76058597D01*
X95884990Y-76025268D01*
X95879790Y-75991662D01*
X95878341Y-75986716D01*
X95864465Y-75954607D01*
X95844345Y-75927563D01*
X95817859Y-75905446D01*
X95792873Y-75891606D01*
X95781089Y-75887184D01*
X95767644Y-75884517D01*
X95750097Y-75883231D01*
X95736218Y-75882967D01*
X95717410Y-75883071D01*
X95703889Y-75884052D01*
X95692870Y-75886461D01*
X95681563Y-75890848D01*
X95671071Y-75895840D01*
X95641595Y-75914745D01*
X95617406Y-75939594D01*
X95599566Y-75968876D01*
X95594276Y-75981302D01*
X95591044Y-75992761D01*
X95589392Y-76005993D01*
X95588839Y-76023738D01*
X95588816Y-76030279D01*
X95562781Y-76030279D01*
X95562576Y-76015290D01*
X95568686Y-75982165D01*
X95581810Y-75949613D01*
X95596767Y-75925745D01*
X95620870Y-75899288D01*
X95648798Y-75879233D01*
X95679524Y-75865518D01*
X95712023Y-75858082D01*
X95745267Y-75856863D01*
X95778231Y-75861799D01*
G37*
G36*
X97266531Y-75845201D02*
G01*
X97305467Y-75856573D01*
X97324272Y-75864992D01*
X97354799Y-75884202D01*
X97382199Y-75909087D01*
X97405235Y-75938089D01*
X97422669Y-75969655D01*
X97433198Y-76001909D01*
X97433867Y-76007421D01*
X97434467Y-76017428D01*
X97434998Y-76032193D01*
X97435464Y-76051976D01*
X97435864Y-76077041D01*
X97436200Y-76107650D01*
X97436474Y-76144064D01*
X97436686Y-76186545D01*
X97436840Y-76235355D01*
X97436935Y-76290757D01*
X97436973Y-76353012D01*
X97436956Y-76422383D01*
X97436886Y-76499131D01*
X97436762Y-76583518D01*
X97436648Y-76646025D01*
X97435428Y-77267917D01*
X97081864Y-77395580D01*
X96728301Y-77523242D01*
X96728301Y-77579791D01*
X96728301Y-77636340D01*
X97085905Y-77717464D01*
X97443509Y-77798587D01*
X97443599Y-77846788D01*
X97443597Y-77859661D01*
X97443558Y-77879728D01*
X97443485Y-77906100D01*
X97443383Y-77937890D01*
X97443253Y-77974210D01*
X97443100Y-78014172D01*
X97442925Y-78056889D01*
X97442733Y-78101473D01*
X97442558Y-78140463D01*
X97442229Y-78198318D01*
X97441811Y-78248198D01*
X97441302Y-78290208D01*
X97440699Y-78324454D01*
X97440001Y-78351042D01*
X97439204Y-78370077D01*
X97438307Y-78381665D01*
X97437307Y-78385911D01*
X97437218Y-78385937D01*
X97432735Y-78385062D01*
X97420944Y-78382520D01*
X97402416Y-78378440D01*
X97377721Y-78372951D01*
X97347432Y-78366181D01*
X97312118Y-78358257D01*
X97272352Y-78349307D01*
X97228704Y-78339461D01*
X97181746Y-78328845D01*
X97132048Y-78317589D01*
X97086008Y-78307143D01*
X97034304Y-78295418D01*
X96984794Y-78284221D01*
X96938054Y-78273679D01*
X96894658Y-78263921D01*
X96855182Y-78255077D01*
X96820202Y-78247273D01*
X96790291Y-78240638D01*
X96766026Y-78235302D01*
X96747982Y-78231391D01*
X96736734Y-78229035D01*
X96732911Y-78228349D01*
X96731303Y-78229187D01*
X96729977Y-78232194D01*
X96728895Y-78238106D01*
X96728022Y-78247661D01*
X96727319Y-78261594D01*
X96726751Y-78280644D01*
X96726280Y-78305548D01*
X96725869Y-78337042D01*
X96725481Y-78375864D01*
X96725473Y-78376846D01*
X96725104Y-78415573D01*
X96724732Y-78447129D01*
X96724303Y-78472427D01*
X96723759Y-78492376D01*
X96723047Y-78507888D01*
X96722110Y-78519873D01*
X96720893Y-78529243D01*
X96719341Y-78536908D01*
X96717398Y-78543780D01*
X96715010Y-78550770D01*
X96714874Y-78551149D01*
X96696779Y-78589775D01*
X96671773Y-78624323D01*
X96659401Y-78637379D01*
X96643162Y-78650679D01*
X96622530Y-78663948D01*
X96600337Y-78675630D01*
X96579418Y-78684170D01*
X96568692Y-78687133D01*
X96563365Y-78688783D01*
X96551070Y-78692910D01*
X96532455Y-78699287D01*
X96508168Y-78707684D01*
X96478857Y-78717875D01*
X96445169Y-78729630D01*
X96407751Y-78742721D01*
X96367251Y-78756919D01*
X96324318Y-78771998D01*
X96279598Y-78787728D01*
X96233739Y-78803880D01*
X96187388Y-78820228D01*
X96141194Y-78836542D01*
X96095804Y-78852593D01*
X96051865Y-78868155D01*
X96010025Y-78882998D01*
X95982736Y-78892699D01*
X95970932Y-78896895D01*
X95935233Y-78909616D01*
X95903577Y-78920934D01*
X95876609Y-78930620D01*
X95854979Y-78938446D01*
X95839333Y-78944184D01*
X95836168Y-78945365D01*
X95797751Y-78955726D01*
X95759389Y-78958451D01*
X95721930Y-78953946D01*
X95686221Y-78942616D01*
X95653112Y-78924868D01*
X95623449Y-78901109D01*
X95598081Y-78871743D01*
X95577856Y-78837177D01*
X95569851Y-78817837D01*
X95560531Y-78792030D01*
X95559445Y-78076273D01*
X95559405Y-78049433D01*
X95978746Y-78049433D01*
X95978809Y-78106749D01*
X95978995Y-78157137D01*
X95979302Y-78200437D01*
X95979728Y-78236488D01*
X95980270Y-78265130D01*
X95980925Y-78286201D01*
X95981692Y-78299542D01*
X95982567Y-78304992D01*
X95982736Y-78305123D01*
X95987338Y-78303818D01*
X95998676Y-78300103D01*
X96015872Y-78294282D01*
X96038047Y-78286655D01*
X96064325Y-78277525D01*
X96093826Y-78267194D01*
X96125171Y-78256140D01*
X96157692Y-78244638D01*
X96188451Y-78233765D01*
X96216459Y-78223872D01*
X96240723Y-78215308D01*
X96260251Y-78208423D01*
X96274053Y-78203567D01*
X96280790Y-78201211D01*
X96297963Y-78195264D01*
X96297963Y-77936700D01*
X96297911Y-77891855D01*
X96297760Y-77849517D01*
X96297520Y-77810358D01*
X96297199Y-77775050D01*
X96296807Y-77744264D01*
X96296352Y-77718671D01*
X96295843Y-77698944D01*
X96295290Y-77685754D01*
X96294701Y-77679772D01*
X96294519Y-77679484D01*
X96290090Y-77681107D01*
X96278878Y-77685181D01*
X96261699Y-77691409D01*
X96239372Y-77699496D01*
X96212714Y-77709146D01*
X96182540Y-77720063D01*
X96149669Y-77731951D01*
X96134910Y-77737287D01*
X95978746Y-77793743D01*
X95978746Y-78049433D01*
X95559405Y-78049433D01*
X95559312Y-77986979D01*
X95559199Y-77905416D01*
X95559108Y-77831233D01*
X95559043Y-77764079D01*
X95559006Y-77703605D01*
X95559000Y-77649458D01*
X95559029Y-77601290D01*
X95559095Y-77558749D01*
X95559201Y-77521484D01*
X95559350Y-77489144D01*
X95559546Y-77461381D01*
X95559790Y-77437841D01*
X95560087Y-77418176D01*
X95560438Y-77402034D01*
X95560848Y-77389065D01*
X95561318Y-77378918D01*
X95561853Y-77371242D01*
X95562454Y-77365687D01*
X95563125Y-77361903D01*
X95563868Y-77359538D01*
X95564688Y-77358242D01*
X95565506Y-77357695D01*
X95569897Y-77356064D01*
X95581396Y-77351823D01*
X95599525Y-77345148D01*
X95623806Y-77336214D01*
X95653762Y-77325196D01*
X95688914Y-77312272D01*
X95728783Y-77297615D01*
X95772894Y-77281401D01*
X95820766Y-77263807D01*
X95871922Y-77245008D01*
X95925885Y-77225178D01*
X95982176Y-77204495D01*
X96040317Y-77183133D01*
X96099830Y-77161269D01*
X96160238Y-77139077D01*
X96221061Y-77116733D01*
X96281823Y-77094414D01*
X96342045Y-77072293D01*
X96401249Y-77050548D01*
X96458957Y-77029354D01*
X96514692Y-77008885D01*
X96567975Y-76989319D01*
X96618327Y-76970830D01*
X96665272Y-76953594D01*
X96708332Y-76937787D01*
X96747027Y-76923584D01*
X96780881Y-76911160D01*
X96809414Y-76900692D01*
X96832150Y-76892355D01*
X96848610Y-76886325D01*
X96858317Y-76882777D01*
X96860634Y-76881935D01*
X96871746Y-76877956D01*
X96871746Y-76712409D01*
X96871746Y-76546863D01*
X96863069Y-76549617D01*
X96858389Y-76551266D01*
X96846505Y-76555517D01*
X96827814Y-76562227D01*
X96802713Y-76571254D01*
X96771599Y-76582453D01*
X96734870Y-76595682D01*
X96692921Y-76610798D01*
X96646150Y-76627658D01*
X96594955Y-76646118D01*
X96539731Y-76666035D01*
X96480876Y-76687267D01*
X96418787Y-76709670D01*
X96353862Y-76733101D01*
X96286496Y-76757417D01*
X96217086Y-76782475D01*
X96207461Y-76785950D01*
X95560531Y-77019529D01*
X95559494Y-76728271D01*
X95559349Y-76680500D01*
X95559261Y-76635117D01*
X95559228Y-76592767D01*
X95559247Y-76554090D01*
X95559317Y-76519731D01*
X95559437Y-76490332D01*
X95559604Y-76466534D01*
X95559816Y-76448982D01*
X95560073Y-76438318D01*
X95560326Y-76435146D01*
X95564253Y-76433612D01*
X95575427Y-76429467D01*
X95593492Y-76422840D01*
X95618093Y-76413860D01*
X95648874Y-76402655D01*
X95685479Y-76389354D01*
X95727552Y-76374086D01*
X95774739Y-76356981D01*
X95826682Y-76338166D01*
X95883026Y-76317771D01*
X95943416Y-76295924D01*
X96007496Y-76272755D01*
X96074909Y-76248392D01*
X96145301Y-76222965D01*
X96218316Y-76196601D01*
X96293598Y-76169431D01*
X96345263Y-76150790D01*
X96422194Y-76123029D01*
X96497277Y-76095919D01*
X96570145Y-76069592D01*
X96640427Y-76044183D01*
X96707757Y-76019825D01*
X96771765Y-75996651D01*
X96832084Y-75974797D01*
X96888344Y-75954395D01*
X96940178Y-75935579D01*
X96987217Y-75918482D01*
X97029092Y-75903240D01*
X97065436Y-75889984D01*
X97095879Y-75878850D01*
X97120053Y-75869970D01*
X97137591Y-75863478D01*
X97148123Y-75859508D01*
X97150977Y-75858371D01*
X97188713Y-75846078D01*
X97227423Y-75841695D01*
X97266531Y-75845201D01*
G37*
D15*
%TO.C,U3*%
X86111000Y-55730000D02*
X86111000Y-52730000D01*
X88589000Y-55730000D02*
X88589000Y-52730000D01*
D12*
X86700000Y-56230000D02*
G75*
G03*
X86700000Y-56230000I-100000J0D01*
G01*
%TD*%
M02*
