M48
INCH,TZ
T1C0.0118
T2C0.0256
T3C0.0276
T4C0.0394
%
G90
G05
T1
X33008Y-16157
X33484Y-18976
X33543Y-17677
X33543Y-21969
X33583Y-19764
X33803Y-16146
X33827Y-35287
X33976Y-20610
X33990Y-21567
X34232Y-21181
X34295Y-28587
X34484Y-32480
X34547Y-19449
X34559Y-30193
X35039Y-23406
X35039Y-23917
X35039Y-24390
X35049Y-25945
X35264Y-16350
X35276Y-26791
X35358Y-31185
X35402Y-28969
X35413Y-19409
X35571Y-23406
X35571Y-23917
X35571Y-24390
X35669Y-21890
X35787Y-26161
X35929Y-16339
X36014Y-33317
X36187Y-25638
X36240Y-26025
X36324Y-22182
X36467Y-19439
X36525Y-24856
X36693Y-19852
X36703Y-20974
X36748Y-21945
X37303Y-28469
X37319Y-32437
X37402Y-21024
X37569Y-19154
X37638Y-23937
X37933Y-20472
X38346Y-20157
X38543Y-21594
T4
X31492Y-16260
X31492Y-17260
X31492Y-18260
X31492Y-19260
X31492Y-20260
X31492Y-21260
X31492Y-22260
X31492Y-23260
X31492Y-24260
X31492Y-25260
X31492Y-26260
X31492Y-27260
X31492Y-28260
X31492Y-29260
X31492Y-30260
X31492Y-31260
X31492Y-32260
X31492Y-33260
X31492Y-34260
X31492Y-35260
X32126Y-16260
X32126Y-17260
X32126Y-18260
X32126Y-19260
X32126Y-20260
X32126Y-21260
X32126Y-22260
X32126Y-23260
X32126Y-24260
X32126Y-25260
X32126Y-26260
X32126Y-27260
X32126Y-28260
X32126Y-29260
X32126Y-30260
X32126Y-31260
X32126Y-32260
X32126Y-33260
X32126Y-34260
X32126Y-35260
X34774Y-35089
X35774Y-35089
X36774Y-35089
X39134Y-16260
X39134Y-17260
X39134Y-18260
X39134Y-19260
X39134Y-20260
X39134Y-21260
X39134Y-22260
X39134Y-23260
X39134Y-24260
X39134Y-25260
X39134Y-26260
X39134Y-27260
X39134Y-28260
X39134Y-29260
X39134Y-30260
X39134Y-31260
X39134Y-32260
X39134Y-33260
X39134Y-34260
X39134Y-35260
X39768Y-16260
X39768Y-17260
X39768Y-18260
X39768Y-19260
X39768Y-20260
X39768Y-21260
X39768Y-22260
X39768Y-23260
X39768Y-24260
X39768Y-25260
X39768Y-26260
X39768Y-27260
X39768Y-28260
X39768Y-29260
X39768Y-30260
X39768Y-31260
X39768Y-32260
X39768Y-33260
X39768Y-34260
X39768Y-35260
T2
G00X34650Y-17520
M15
G01X34650Y-17677
M16
G05
G00X36555Y-17520
M15
G01X36555Y-17677
M16
G05
T3
G00X34528Y-16319
M15
G01X34528Y-16516
M16
G05
G00X36677Y-16319
M15
G01X36677Y-16516
M16
G05
T0
M30
