%TF.GenerationSoftware,KiCad,Pcbnew,7.0.6*%
%TF.CreationDate,2023-08-11T11:38:20+07:00*%
%TF.ProjectId,Pico2040-Modular-Rev2,5069636f-3230-4343-902d-4d6f64756c61,rev?*%
%TF.SameCoordinates,Original*%
%TF.FileFunction,Copper,L2,Bot*%
%TF.FilePolarity,Positive*%
%FSLAX46Y46*%
G04 Gerber Fmt 4.6, Leading zero omitted, Abs format (unit mm)*
G04 Created by KiCad (PCBNEW 7.0.6) date 2023-08-11 11:38:20*
%MOMM*%
%LPD*%
G01*
G04 APERTURE LIST*
%TA.AperFunction,ComponentPad*%
%ADD10R,1.700000X1.700000*%
%TD*%
%TA.AperFunction,ComponentPad*%
%ADD11O,1.700000X1.700000*%
%TD*%
%TA.AperFunction,ComponentPad*%
%ADD12O,1.350000X1.700000*%
%TD*%
%TA.AperFunction,ComponentPad*%
%ADD13O,1.100000X1.500000*%
%TD*%
%TA.AperFunction,ComponentPad*%
%ADD14R,3.200000X1.600000*%
%TD*%
%TA.AperFunction,ComponentPad*%
%ADD15O,1.700000X1.600000*%
%TD*%
%TA.AperFunction,SMDPad,CuDef*%
%ADD16C,1.000000*%
%TD*%
%TA.AperFunction,ViaPad*%
%ADD17C,0.600000*%
%TD*%
%TA.AperFunction,Conductor*%
%ADD18C,0.200000*%
%TD*%
%TA.AperFunction,Conductor*%
%ADD19C,0.400000*%
%TD*%
%TA.AperFunction,Conductor*%
%ADD20C,0.300000*%
%TD*%
G04 APERTURE END LIST*
D10*
%TO.P,J4,1,Pin_1*%
%TO.N,/SWDIO*%
X88325000Y-89125000D03*
D11*
%TO.P,J4,2,Pin_2*%
%TO.N,GND*%
X90865000Y-89125000D03*
%TO.P,J4,3,Pin_3*%
%TO.N,/SWCLK*%
X93405000Y-89125000D03*
%TD*%
D12*
%TO.P,J1,6,Shield*%
%TO.N,GND*%
X93160000Y-41700000D03*
D13*
X92850000Y-44700000D03*
X88010000Y-44700000D03*
D12*
X87700000Y-41700000D03*
%TD*%
D14*
%TO.P,J2,1,Pin_1*%
%TO.N,/P0*%
X79990000Y-41300000D03*
D15*
X81600000Y-41300000D03*
D14*
%TO.P,J2,2,Pin_2*%
%TO.N,/P1*%
X79990000Y-43840000D03*
D15*
X81600000Y-43840000D03*
D14*
%TO.P,J2,3,Pin_3*%
%TO.N,GND*%
X79990000Y-46380000D03*
D15*
X81600000Y-46380000D03*
D14*
%TO.P,J2,4,Pin_4*%
%TO.N,/P2*%
X79990000Y-48920000D03*
D15*
X81600000Y-48920000D03*
D14*
%TO.P,J2,5,Pin_5*%
%TO.N,/P3*%
X79990000Y-51460000D03*
D15*
X81600000Y-51460000D03*
D14*
%TO.P,J2,6,Pin_6*%
%TO.N,/P4*%
X79990000Y-54000000D03*
D15*
X81600000Y-54000000D03*
D14*
%TO.P,J2,7,Pin_7*%
%TO.N,/P5*%
X79990000Y-56540000D03*
D15*
X81600000Y-56540000D03*
D14*
%TO.P,J2,8,Pin_8*%
%TO.N,GND*%
X79990000Y-59080000D03*
D15*
X81600000Y-59080000D03*
D14*
%TO.P,J2,9,Pin_9*%
%TO.N,/P6*%
X79990000Y-61620000D03*
D15*
X81600000Y-61620000D03*
D14*
%TO.P,J2,10,Pin_10*%
%TO.N,/P7*%
X79990000Y-64160000D03*
D15*
X81600000Y-64160000D03*
D14*
%TO.P,J2,11,Pin_11*%
%TO.N,/P8*%
X79990000Y-66700000D03*
D15*
X81600000Y-66700000D03*
D14*
%TO.P,J2,12,Pin_12*%
%TO.N,/P9*%
X79990000Y-69240000D03*
D15*
X81600000Y-69240000D03*
D14*
%TO.P,J2,13,Pin_13*%
%TO.N,GND*%
X79990000Y-71780000D03*
D15*
X81600000Y-71780000D03*
D14*
%TO.P,J2,14,Pin_14*%
%TO.N,/P10*%
X79990000Y-74320000D03*
D15*
X81600000Y-74320000D03*
D14*
%TO.P,J2,15,Pin_15*%
%TO.N,/P11*%
X79990000Y-76860000D03*
D15*
X81600000Y-76860000D03*
D14*
%TO.P,J2,16,Pin_16*%
%TO.N,/P12*%
X79990000Y-79400000D03*
D15*
X81600000Y-79400000D03*
D14*
%TO.P,J2,17,Pin_17*%
%TO.N,/P13*%
X79990000Y-81940000D03*
D15*
X81600000Y-81940000D03*
D14*
%TO.P,J2,18,Pin_18*%
%TO.N,GND*%
X79990000Y-84480000D03*
D15*
X81600000Y-84480000D03*
D14*
%TO.P,J2,19,Pin_19*%
%TO.N,/P14*%
X79990000Y-87020000D03*
D15*
X81600000Y-87020000D03*
D14*
%TO.P,J2,20,Pin_20*%
%TO.N,/P15*%
X79990000Y-89560000D03*
D15*
X81600000Y-89560000D03*
%TD*%
D16*
%TO.P,TP2,1,1*%
%TO.N,/DM*%
X92450000Y-48025000D03*
%TD*%
%TO.P,TP1,1,1*%
%TO.N,/DP*%
X89175000Y-48075000D03*
%TD*%
%TO.P,TP4,1,1*%
%TO.N,/FLASH_SS*%
X87950000Y-54925000D03*
%TD*%
D14*
%TO.P,J3,1,Pin_1*%
%TO.N,VBUS*%
X101010000Y-41300000D03*
D15*
X99400000Y-41300000D03*
D14*
%TO.P,J3,2,Pin_2*%
%TO.N,+3.3V*%
X101010000Y-43840000D03*
D15*
X99400000Y-43840000D03*
D14*
%TO.P,J3,3,Pin_3*%
%TO.N,GND*%
X101010000Y-46380000D03*
D15*
X99400000Y-46380000D03*
D14*
%TO.P,J3,4,Pin_4*%
%TO.N,+1V1*%
X101010000Y-48920000D03*
D15*
X99400000Y-48920000D03*
D14*
%TO.P,J3,5,Pin_5*%
%TO.N,/RESET*%
X101010000Y-51460000D03*
D15*
X99400000Y-51460000D03*
D14*
%TO.P,J3,6,Pin_6*%
%TO.N,/P29*%
X101010000Y-54000000D03*
D15*
X99400000Y-54000000D03*
D14*
%TO.P,J3,7,Pin_7*%
%TO.N,/P28*%
X101010000Y-56540000D03*
D15*
X99400000Y-56540000D03*
D14*
%TO.P,J3,8,Pin_8*%
%TO.N,GND*%
X101010000Y-59080000D03*
D15*
X99400000Y-59080000D03*
D14*
%TO.P,J3,9,Pin_9*%
%TO.N,/P27*%
X101010000Y-61620000D03*
D15*
X99400000Y-61620000D03*
D14*
%TO.P,J3,10,Pin_10*%
%TO.N,/P26*%
X101010000Y-64160000D03*
D15*
X99400000Y-64160000D03*
D14*
%TO.P,J3,11,Pin_11*%
%TO.N,/P23*%
X101010000Y-66700000D03*
D15*
X99400000Y-66700000D03*
D14*
%TO.P,J3,12,Pin_12*%
%TO.N,/P22*%
X101010000Y-69240000D03*
D15*
X99400000Y-69240000D03*
D14*
%TO.P,J3,13,Pin_13*%
%TO.N,GND*%
X101010000Y-71780000D03*
D15*
X99400000Y-71780000D03*
D14*
%TO.P,J3,14,Pin_14*%
%TO.N,/P21*%
X101010000Y-74320000D03*
D15*
X99400000Y-74320000D03*
D14*
%TO.P,J3,15,Pin_15*%
%TO.N,/P20*%
X101010000Y-76860000D03*
D15*
X99400000Y-76860000D03*
D14*
%TO.P,J3,16,Pin_16*%
%TO.N,/P19*%
X101010000Y-79400000D03*
D15*
X99400000Y-79400000D03*
D14*
%TO.P,J3,17,Pin_17*%
%TO.N,/P18*%
X101010000Y-81940000D03*
D15*
X99400000Y-81940000D03*
D14*
%TO.P,J3,18,Pin_18*%
%TO.N,GND*%
X101010000Y-84480000D03*
D15*
X99400000Y-84480000D03*
D14*
%TO.P,J3,19,Pin_19*%
%TO.N,/P17*%
X101010000Y-87020000D03*
D15*
X99400000Y-87020000D03*
D14*
%TO.P,J3,20,Pin_20*%
%TO.N,/P16*%
X101010000Y-89560000D03*
D15*
X99400000Y-89560000D03*
%TD*%
D16*
%TO.P,TP3,1,1*%
%TO.N,/RESET*%
X93600000Y-60100000D03*
%TD*%
D17*
%TO.N,+1V1*%
X90600000Y-55600000D03*
X90900000Y-66450000D03*
X92263000Y-56341444D03*
%TO.N,GND*%
X87780000Y-76690000D03*
X85200000Y-55800000D03*
X94790000Y-82390000D03*
X87590000Y-82500000D03*
X89920000Y-73580000D03*
X85920000Y-89630000D03*
X87750000Y-49400000D03*
X95425000Y-48650000D03*
X89600000Y-68050000D03*
X89810000Y-79210000D03*
X85860000Y-41010000D03*
X89000000Y-60750000D03*
X93200000Y-50425000D03*
X90350000Y-59450000D03*
X86950000Y-53800000D03*
X83840000Y-41040000D03*
X95000000Y-53400000D03*
X90350000Y-60750000D03*
X91260000Y-41500000D03*
X94750000Y-72310000D03*
X89025000Y-65900000D03*
X90350000Y-61950000D03*
X89570000Y-41530000D03*
X93225000Y-53275000D03*
X89000000Y-61950000D03*
X87110000Y-72610000D03*
X89000000Y-59450000D03*
%TO.N,+3.3V*%
X93339998Y-55739998D03*
X85050000Y-48200000D03*
X96350000Y-52000000D03*
X86300000Y-52350000D03*
%TO.N,/USER_LED*%
X97400000Y-51200000D03*
X85200000Y-44900000D03*
X97900000Y-54850000D03*
X95600000Y-60800000D03*
%TO.N,/DM*%
X92625000Y-49375000D03*
%TO.N,/DP*%
X89950000Y-49300000D03*
%TO.N,/RESET*%
X91915180Y-65119822D03*
%TO.N,/SWDIO*%
X92774500Y-63135216D03*
%TO.N,/SWCLK*%
X91475000Y-84625000D03*
X92049856Y-66102321D03*
%TO.N,/FLASH_SS*%
X86333850Y-54780312D03*
X85300000Y-50200000D03*
%TD*%
D18*
%TO.N,+1V1*%
X90450000Y-66900000D02*
X87300000Y-66900000D01*
X92263000Y-56341444D02*
X92341444Y-56341444D01*
X92341444Y-56341444D02*
X92963909Y-56963909D01*
X90600000Y-55600000D02*
X90600000Y-56346040D01*
X90900000Y-66450000D02*
X90450000Y-66900000D01*
X87300000Y-63325000D02*
X88200000Y-62425000D01*
X88200000Y-62425000D02*
X88200000Y-59000000D01*
X89049500Y-58150500D02*
X91325000Y-58150500D01*
X91777318Y-58150500D02*
X92963909Y-56963909D01*
X88200000Y-59000000D02*
X89049500Y-58150500D01*
X91325000Y-58150500D02*
X91777318Y-58150500D01*
X91325000Y-57136034D02*
X90567503Y-56378537D01*
X92963909Y-56963909D02*
X98225000Y-51702818D01*
X91325000Y-58150500D02*
X91325000Y-57136034D01*
X90600000Y-56346040D02*
X90567503Y-56378537D01*
X98225000Y-51702818D02*
X98225000Y-50095000D01*
X98225000Y-50095000D02*
X99400000Y-48920000D01*
X87300000Y-66900000D02*
X87300000Y-63325000D01*
D19*
%TO.N,GND*%
X90325000Y-54800000D02*
X89300000Y-55825000D01*
X85625000Y-55825000D02*
X83625000Y-53825000D01*
X83750000Y-46750000D02*
X85725000Y-46750000D01*
X89300000Y-55825000D02*
X85625000Y-55825000D01*
X89400000Y-50425000D02*
X93200000Y-50425000D01*
X86950000Y-53800000D02*
X86975000Y-53775000D01*
X89300000Y-53775000D02*
X90325000Y-54800000D01*
X83625000Y-53825000D02*
X83625000Y-46875000D01*
X85725000Y-46750000D02*
X89400000Y-50425000D01*
X86975000Y-53775000D02*
X89300000Y-53775000D01*
X83625000Y-46875000D02*
X83750000Y-46750000D01*
%TO.N,+3.3V*%
X96000000Y-52350000D02*
X96350000Y-52000000D01*
X86300000Y-49450000D02*
X86300000Y-52350000D01*
X86300000Y-52350000D02*
X90075000Y-52350000D01*
X90075000Y-53175000D02*
X90075000Y-52350000D01*
X92639998Y-55739998D02*
X90075000Y-53175000D01*
X85050000Y-48200000D02*
X86300000Y-49450000D01*
X93339998Y-55739998D02*
X92639998Y-55739998D01*
X90075000Y-52350000D02*
X96000000Y-52350000D01*
D18*
%TO.N,/USER_LED*%
X86450000Y-46150000D02*
X85200000Y-44900000D01*
X95425000Y-46150000D02*
X86450000Y-46150000D01*
X97400000Y-48125000D02*
X95425000Y-46150000D01*
X95600000Y-57150000D02*
X97900000Y-54850000D01*
X95600000Y-60800000D02*
X95600000Y-57150000D01*
X97400000Y-51200000D02*
X97400000Y-48125000D01*
D19*
%TO.N,/DM*%
X92625000Y-49375000D02*
X92625000Y-48200000D01*
X92625000Y-48200000D02*
X92450000Y-48025000D01*
%TO.N,/DP*%
X89950000Y-49300000D02*
X89950000Y-48850000D01*
X89950000Y-48850000D02*
X89175000Y-48075000D01*
D20*
%TO.N,/RESET*%
X92150000Y-58710000D02*
X99400000Y-51460000D01*
X92150000Y-59400000D02*
X92150000Y-58710000D01*
X92850000Y-60100000D02*
X93600000Y-60100000D01*
X92125000Y-62880761D02*
X92150000Y-62855761D01*
X92150000Y-59400000D02*
X92850000Y-60100000D01*
X92150000Y-62855761D02*
X92150000Y-59400000D01*
X91915180Y-65119822D02*
X92150000Y-64885002D01*
X92150000Y-63444239D02*
X92125000Y-63419239D01*
X92125000Y-63419239D02*
X92125000Y-62880761D01*
X92150000Y-64885002D02*
X92150000Y-63444239D01*
D18*
%TO.N,/SWDIO*%
X93600000Y-83850000D02*
X93600000Y-63975000D01*
X93600000Y-63975000D02*
X92775000Y-63150000D01*
X88325000Y-89125000D02*
X93600000Y-83850000D01*
%TO.N,/SWCLK*%
X92049856Y-66102321D02*
X92049856Y-66148673D01*
X92049856Y-66148673D02*
X91475000Y-66723529D01*
X91475000Y-66723529D02*
X91475000Y-84625000D01*
%TO.N,/FLASH_SS*%
X86478538Y-54925000D02*
X87950000Y-54925000D01*
X86333850Y-54780312D02*
X86478538Y-54925000D01*
X86333850Y-54780312D02*
X85300000Y-53746462D01*
X85300000Y-53746462D02*
X85300000Y-50200000D01*
%TD*%
%TA.AperFunction,Conductor*%
%TO.N,GND*%
G36*
X98612287Y-40020185D02*
G01*
X98658042Y-40072989D01*
X98667986Y-40142147D01*
X98638961Y-40205703D01*
X98616371Y-40226075D01*
X98510858Y-40299954D01*
X98349954Y-40460858D01*
X98219432Y-40647265D01*
X98219431Y-40647267D01*
X98123261Y-40853502D01*
X98123258Y-40853511D01*
X98064366Y-41073302D01*
X98064364Y-41073313D01*
X98044532Y-41299998D01*
X98044532Y-41300001D01*
X98064364Y-41526686D01*
X98064366Y-41526697D01*
X98123258Y-41746488D01*
X98123261Y-41746497D01*
X98219431Y-41952732D01*
X98219432Y-41952734D01*
X98349954Y-42139141D01*
X98510858Y-42300045D01*
X98510861Y-42300047D01*
X98697266Y-42430568D01*
X98755275Y-42457618D01*
X98807714Y-42503791D01*
X98826866Y-42570984D01*
X98806650Y-42637865D01*
X98755275Y-42682381D01*
X98738272Y-42690310D01*
X98697267Y-42709431D01*
X98697265Y-42709432D01*
X98510858Y-42839954D01*
X98349954Y-43000858D01*
X98219432Y-43187265D01*
X98219431Y-43187267D01*
X98123261Y-43393502D01*
X98123258Y-43393511D01*
X98064366Y-43613302D01*
X98064364Y-43613313D01*
X98044532Y-43839998D01*
X98044532Y-43840001D01*
X98064364Y-44066686D01*
X98064366Y-44066697D01*
X98123258Y-44286488D01*
X98123261Y-44286497D01*
X98219431Y-44492732D01*
X98219432Y-44492734D01*
X98349954Y-44679141D01*
X98510858Y-44840045D01*
X98510861Y-44840047D01*
X98697266Y-44970568D01*
X98755865Y-44997893D01*
X98808305Y-45044065D01*
X98827457Y-45111258D01*
X98807242Y-45178139D01*
X98755867Y-45222657D01*
X98697515Y-45249867D01*
X98511179Y-45380342D01*
X98350342Y-45541179D01*
X98219865Y-45727517D01*
X98123734Y-45933673D01*
X98123730Y-45933682D01*
X98071127Y-46129999D01*
X98071128Y-46130000D01*
X98966314Y-46130000D01*
X98940507Y-46170156D01*
X98900000Y-46308111D01*
X98900000Y-46451889D01*
X98940507Y-46589844D01*
X98966314Y-46630000D01*
X98071128Y-46630000D01*
X98123730Y-46826317D01*
X98123734Y-46826326D01*
X98219865Y-47032482D01*
X98350342Y-47218820D01*
X98511179Y-47379657D01*
X98697518Y-47510134D01*
X98697520Y-47510135D01*
X98755865Y-47537342D01*
X98808305Y-47583514D01*
X98827457Y-47650707D01*
X98807242Y-47717589D01*
X98755867Y-47762105D01*
X98697268Y-47789431D01*
X98697264Y-47789433D01*
X98510858Y-47919954D01*
X98349954Y-48080858D01*
X98226075Y-48257779D01*
X98171499Y-48301404D01*
X98102000Y-48308598D01*
X98039645Y-48277076D01*
X98004231Y-48216846D01*
X98000500Y-48186656D01*
X98000500Y-48168428D01*
X98001031Y-48160326D01*
X98005682Y-48124999D01*
X98005682Y-48124998D01*
X97985044Y-47968239D01*
X97985042Y-47968234D01*
X97924538Y-47822163D01*
X97924535Y-47822158D01*
X97881037Y-47765470D01*
X97843027Y-47715934D01*
X97828282Y-47696718D01*
X97800005Y-47675020D01*
X97793904Y-47669669D01*
X95880328Y-45756093D01*
X95874974Y-45749988D01*
X95853286Y-45721722D01*
X95853283Y-45721720D01*
X95853282Y-45721718D01*
X95727841Y-45625464D01*
X95581762Y-45564956D01*
X95581760Y-45564955D01*
X95464361Y-45549500D01*
X95425000Y-45544318D01*
X95389670Y-45548969D01*
X95381572Y-45549500D01*
X93900300Y-45549500D01*
X93833261Y-45529815D01*
X93787506Y-45477011D01*
X93777562Y-45407853D01*
X93790942Y-45367047D01*
X93824766Y-45303766D01*
X93884808Y-45105834D01*
X93900000Y-44951584D01*
X93900000Y-44950000D01*
X93171198Y-44950000D01*
X93175000Y-44928436D01*
X93175000Y-44471564D01*
X93171198Y-44450000D01*
X93900000Y-44450000D01*
X93900000Y-44448415D01*
X93884808Y-44294165D01*
X93824766Y-44096233D01*
X93727271Y-43913833D01*
X93727267Y-43913826D01*
X93596055Y-43753944D01*
X93436173Y-43622732D01*
X93436166Y-43622728D01*
X93253763Y-43525232D01*
X93100000Y-43478587D01*
X93100000Y-44285517D01*
X93015007Y-44214199D01*
X92907306Y-44175000D01*
X92792694Y-44175000D01*
X92684993Y-44214199D01*
X92600000Y-44285517D01*
X92600000Y-43478587D01*
X92446236Y-43525232D01*
X92263833Y-43622728D01*
X92263826Y-43622732D01*
X92103944Y-43753944D01*
X91972732Y-43913826D01*
X91972728Y-43913833D01*
X91875233Y-44096233D01*
X91815191Y-44294165D01*
X91800000Y-44448415D01*
X91800000Y-44450000D01*
X92528802Y-44450000D01*
X92525000Y-44471564D01*
X92525000Y-44928436D01*
X92528802Y-44950000D01*
X91800000Y-44950000D01*
X91800000Y-44951584D01*
X91815191Y-45105834D01*
X91875233Y-45303766D01*
X91909058Y-45367047D01*
X91923300Y-45435449D01*
X91898300Y-45500693D01*
X91841995Y-45542064D01*
X91799700Y-45549500D01*
X89060300Y-45549500D01*
X88993261Y-45529815D01*
X88947506Y-45477011D01*
X88937562Y-45407853D01*
X88950942Y-45367047D01*
X88984766Y-45303766D01*
X89044808Y-45105834D01*
X89060000Y-44951584D01*
X89060000Y-44950000D01*
X88331198Y-44950000D01*
X88335000Y-44928436D01*
X88335000Y-44471564D01*
X88331198Y-44450000D01*
X89060000Y-44450000D01*
X89060000Y-44448415D01*
X89044808Y-44294165D01*
X88984766Y-44096233D01*
X88887271Y-43913833D01*
X88887267Y-43913826D01*
X88756055Y-43753944D01*
X88596173Y-43622732D01*
X88596166Y-43622728D01*
X88413763Y-43525232D01*
X88260000Y-43478587D01*
X88260000Y-44285517D01*
X88175007Y-44214199D01*
X88067306Y-44175000D01*
X87952694Y-44175000D01*
X87844993Y-44214199D01*
X87760000Y-44285517D01*
X87760000Y-43478587D01*
X87606236Y-43525232D01*
X87423833Y-43622728D01*
X87423826Y-43622732D01*
X87263944Y-43753944D01*
X87132732Y-43913826D01*
X87132728Y-43913833D01*
X87035233Y-44096233D01*
X86975191Y-44294165D01*
X86960000Y-44448415D01*
X86960000Y-44450000D01*
X87688802Y-44450000D01*
X87685000Y-44471564D01*
X87685000Y-44928436D01*
X87688802Y-44950000D01*
X86960000Y-44950000D01*
X86960000Y-44951584D01*
X86975191Y-45105834D01*
X87035233Y-45303766D01*
X87069058Y-45367047D01*
X87083300Y-45435449D01*
X87058300Y-45500693D01*
X87001995Y-45542064D01*
X86959700Y-45549500D01*
X86750097Y-45549500D01*
X86683058Y-45529815D01*
X86662416Y-45513181D01*
X86030700Y-44881465D01*
X85997215Y-44820142D01*
X85995163Y-44807686D01*
X85985368Y-44720745D01*
X85925789Y-44550478D01*
X85829816Y-44397738D01*
X85702262Y-44270184D01*
X85549523Y-44174211D01*
X85379254Y-44114631D01*
X85379249Y-44114630D01*
X85200004Y-44094435D01*
X85199996Y-44094435D01*
X85020750Y-44114630D01*
X85020745Y-44114631D01*
X84850476Y-44174211D01*
X84697737Y-44270184D01*
X84570184Y-44397737D01*
X84474211Y-44550476D01*
X84414631Y-44720745D01*
X84414630Y-44720750D01*
X84394435Y-44899996D01*
X84394435Y-44900003D01*
X84414630Y-45079249D01*
X84414631Y-45079254D01*
X84474211Y-45249523D01*
X84548057Y-45367047D01*
X84570184Y-45402262D01*
X84697738Y-45529816D01*
X84850478Y-45625789D01*
X85020745Y-45685368D01*
X85107669Y-45695161D01*
X85172080Y-45722226D01*
X85181465Y-45730700D01*
X85994669Y-46543904D01*
X86000020Y-46550005D01*
X86021718Y-46578282D01*
X86143937Y-46672063D01*
X86145466Y-46673405D01*
X86147158Y-46674535D01*
X86147159Y-46674536D01*
X86293238Y-46735044D01*
X86371619Y-46745363D01*
X86449999Y-46755682D01*
X86450000Y-46755682D01*
X86485329Y-46751030D01*
X86493428Y-46750500D01*
X95124903Y-46750500D01*
X95191942Y-46770185D01*
X95212584Y-46786819D01*
X96763180Y-48337415D01*
X96796665Y-48398738D01*
X96799499Y-48425096D01*
X96799499Y-50617587D01*
X96779814Y-50684626D01*
X96772455Y-50694889D01*
X96770187Y-50697733D01*
X96674211Y-50850476D01*
X96614631Y-51020745D01*
X96614631Y-51020749D01*
X96605872Y-51098481D01*
X96578805Y-51162894D01*
X96521210Y-51202449D01*
X96468769Y-51207816D01*
X96350004Y-51194435D01*
X96349996Y-51194435D01*
X96170750Y-51214630D01*
X96170745Y-51214631D01*
X96000476Y-51274211D01*
X95847737Y-51370184D01*
X95720184Y-51497737D01*
X95661287Y-51591472D01*
X95608952Y-51637763D01*
X95556293Y-51649500D01*
X87124500Y-51649500D01*
X87057461Y-51629815D01*
X87011706Y-51577011D01*
X87000500Y-51525500D01*
X87000500Y-49473047D01*
X87000613Y-49469302D01*
X87004358Y-49407394D01*
X86993175Y-49346371D01*
X86992613Y-49342674D01*
X86990618Y-49326251D01*
X86985140Y-49281128D01*
X86981548Y-49271656D01*
X86975521Y-49250034D01*
X86973695Y-49240071D01*
X86973695Y-49240069D01*
X86948223Y-49183474D01*
X86946812Y-49180065D01*
X86924818Y-49122070D01*
X86919063Y-49113733D01*
X86908036Y-49094182D01*
X86903879Y-49084946D01*
X86903878Y-49084943D01*
X86885139Y-49061024D01*
X86865630Y-49036122D01*
X86863410Y-49033106D01*
X86858146Y-49025480D01*
X86828183Y-48982071D01*
X86781750Y-48940935D01*
X86779056Y-48938399D01*
X85915657Y-48075000D01*
X88169659Y-48075000D01*
X88188975Y-48271129D01*
X88188976Y-48271132D01*
X88238581Y-48434658D01*
X88246188Y-48459733D01*
X88339086Y-48633532D01*
X88339090Y-48633539D01*
X88464116Y-48785883D01*
X88616460Y-48910909D01*
X88616467Y-48910913D01*
X88790266Y-49003811D01*
X88790269Y-49003811D01*
X88790273Y-49003814D01*
X88978868Y-49061024D01*
X89044102Y-49067448D01*
X89108888Y-49093608D01*
X89149248Y-49150642D01*
X89155168Y-49204734D01*
X89144435Y-49299996D01*
X89144435Y-49300003D01*
X89164630Y-49479249D01*
X89164631Y-49479254D01*
X89224211Y-49649523D01*
X89271337Y-49724523D01*
X89320184Y-49802262D01*
X89447738Y-49929816D01*
X89538080Y-49986582D01*
X89592450Y-50020745D01*
X89600478Y-50025789D01*
X89748391Y-50077546D01*
X89770745Y-50085368D01*
X89770750Y-50085369D01*
X89949996Y-50105565D01*
X89950000Y-50105565D01*
X89950004Y-50105565D01*
X90129249Y-50085369D01*
X90129252Y-50085368D01*
X90129255Y-50085368D01*
X90299522Y-50025789D01*
X90452262Y-49929816D01*
X90579816Y-49802262D01*
X90675789Y-49649522D01*
X90735368Y-49479255D01*
X90735369Y-49479249D01*
X90755565Y-49300003D01*
X90755565Y-49299996D01*
X90735369Y-49120750D01*
X90735366Y-49120737D01*
X90675790Y-48950479D01*
X90669530Y-48940517D01*
X90650528Y-48873281D01*
X90650746Y-48867088D01*
X90654358Y-48807394D01*
X90643175Y-48746371D01*
X90642613Y-48742674D01*
X90636619Y-48693313D01*
X90635140Y-48681128D01*
X90631548Y-48671656D01*
X90625521Y-48650034D01*
X90623695Y-48640071D01*
X90623695Y-48640069D01*
X90598224Y-48583476D01*
X90596817Y-48580079D01*
X90574818Y-48522070D01*
X90574816Y-48522068D01*
X90574816Y-48522066D01*
X90569062Y-48513731D01*
X90558034Y-48494177D01*
X90553881Y-48484949D01*
X90553878Y-48484945D01*
X90553878Y-48484944D01*
X90515626Y-48436120D01*
X90513416Y-48433115D01*
X90507881Y-48425096D01*
X90478183Y-48382071D01*
X90431742Y-48340928D01*
X90429048Y-48338392D01*
X90213318Y-48122662D01*
X90179833Y-48061339D01*
X90177596Y-48047134D01*
X90175416Y-48025000D01*
X91444659Y-48025000D01*
X91463975Y-48221129D01*
X91479143Y-48271132D01*
X91511942Y-48379255D01*
X91521188Y-48409733D01*
X91614086Y-48583532D01*
X91614090Y-48583539D01*
X91739116Y-48735883D01*
X91879165Y-48850818D01*
X91918499Y-48908563D01*
X91924500Y-48946671D01*
X91924500Y-48949507D01*
X91905494Y-49015478D01*
X91899209Y-49025479D01*
X91839633Y-49195737D01*
X91839630Y-49195750D01*
X91819435Y-49374996D01*
X91819435Y-49375003D01*
X91839630Y-49554249D01*
X91839631Y-49554254D01*
X91899211Y-49724523D01*
X91926450Y-49767873D01*
X91995184Y-49877262D01*
X92122738Y-50004816D01*
X92195550Y-50050567D01*
X92250935Y-50085368D01*
X92275478Y-50100789D01*
X92406796Y-50146739D01*
X92445745Y-50160368D01*
X92445750Y-50160369D01*
X92624996Y-50180565D01*
X92625000Y-50180565D01*
X92625004Y-50180565D01*
X92804249Y-50160369D01*
X92804252Y-50160368D01*
X92804255Y-50160368D01*
X92974522Y-50100789D01*
X93127262Y-50004816D01*
X93254816Y-49877262D01*
X93350789Y-49724522D01*
X93410368Y-49554255D01*
X93410369Y-49554249D01*
X93430565Y-49375003D01*
X93430565Y-49374996D01*
X93410369Y-49195750D01*
X93410366Y-49195737D01*
X93350790Y-49025480D01*
X93344506Y-49015479D01*
X93325499Y-48949509D01*
X93325499Y-48540530D01*
X93340141Y-48482077D01*
X93344720Y-48473511D01*
X93378814Y-48409727D01*
X93436024Y-48221132D01*
X93455341Y-48025000D01*
X93436024Y-47828868D01*
X93378814Y-47640273D01*
X93378811Y-47640269D01*
X93378811Y-47640266D01*
X93285913Y-47466467D01*
X93285909Y-47466460D01*
X93160883Y-47314116D01*
X93008539Y-47189090D01*
X93008532Y-47189086D01*
X92834733Y-47096188D01*
X92834727Y-47096186D01*
X92646132Y-47038976D01*
X92646129Y-47038975D01*
X92450000Y-47019659D01*
X92253870Y-47038975D01*
X92065266Y-47096188D01*
X91891467Y-47189086D01*
X91891460Y-47189090D01*
X91739116Y-47314116D01*
X91614090Y-47466460D01*
X91614086Y-47466467D01*
X91521188Y-47640266D01*
X91463975Y-47828870D01*
X91444659Y-48025000D01*
X90175416Y-48025000D01*
X90161024Y-47878868D01*
X90103814Y-47690273D01*
X90103811Y-47690269D01*
X90103811Y-47690266D01*
X90010913Y-47516467D01*
X90010909Y-47516460D01*
X89885883Y-47364116D01*
X89733539Y-47239090D01*
X89733532Y-47239086D01*
X89559733Y-47146188D01*
X89559727Y-47146186D01*
X89371132Y-47088976D01*
X89371129Y-47088975D01*
X89175000Y-47069659D01*
X88978870Y-47088975D01*
X88790266Y-47146188D01*
X88616467Y-47239086D01*
X88616460Y-47239090D01*
X88464116Y-47364116D01*
X88339090Y-47516460D01*
X88339086Y-47516467D01*
X88246188Y-47690266D01*
X88188975Y-47878870D01*
X88169659Y-48075000D01*
X85915657Y-48075000D01*
X85841367Y-48000710D01*
X85812006Y-47953983D01*
X85785723Y-47878870D01*
X85775789Y-47850478D01*
X85757997Y-47822163D01*
X85679815Y-47697737D01*
X85552262Y-47570184D01*
X85399523Y-47474211D01*
X85229254Y-47414631D01*
X85229249Y-47414630D01*
X85050004Y-47394435D01*
X85049996Y-47394435D01*
X84870750Y-47414630D01*
X84870745Y-47414631D01*
X84700476Y-47474211D01*
X84547737Y-47570184D01*
X84420184Y-47697737D01*
X84324211Y-47850476D01*
X84264631Y-48020745D01*
X84264630Y-48020750D01*
X84244435Y-48199996D01*
X84244435Y-48200003D01*
X84264630Y-48379249D01*
X84264631Y-48379254D01*
X84324211Y-48549523D01*
X84400953Y-48671656D01*
X84420184Y-48702262D01*
X84547738Y-48829816D01*
X84597224Y-48860910D01*
X84691261Y-48919998D01*
X84700478Y-48925789D01*
X84803984Y-48962007D01*
X84850710Y-48991367D01*
X85094712Y-49235369D01*
X85128197Y-49296692D01*
X85123213Y-49366384D01*
X85081341Y-49422317D01*
X85047985Y-49440092D01*
X84950478Y-49474210D01*
X84797737Y-49570184D01*
X84670184Y-49697737D01*
X84574211Y-49850476D01*
X84514631Y-50020745D01*
X84514630Y-50020750D01*
X84494435Y-50199996D01*
X84494435Y-50200003D01*
X84514630Y-50379249D01*
X84514631Y-50379254D01*
X84574211Y-50549523D01*
X84613548Y-50612127D01*
X84667341Y-50697738D01*
X84670185Y-50702263D01*
X84672445Y-50705097D01*
X84673334Y-50707275D01*
X84673889Y-50708158D01*
X84673734Y-50708255D01*
X84698855Y-50769783D01*
X84699500Y-50782412D01*
X84699500Y-53703033D01*
X84698969Y-53711135D01*
X84694318Y-53746461D01*
X84694318Y-53746462D01*
X84699500Y-53785822D01*
X84714955Y-53903222D01*
X84714956Y-53903224D01*
X84773447Y-54044435D01*
X84775464Y-54049303D01*
X84871718Y-54174744D01*
X84899995Y-54196442D01*
X84906085Y-54201782D01*
X85244569Y-54540266D01*
X85503148Y-54798845D01*
X85536633Y-54860168D01*
X85538687Y-54872642D01*
X85548480Y-54959561D01*
X85608060Y-55129833D01*
X85679668Y-55243796D01*
X85704034Y-55282574D01*
X85831588Y-55410128D01*
X85848485Y-55420745D01*
X85970908Y-55497669D01*
X85984328Y-55506101D01*
X86096024Y-55545185D01*
X86154595Y-55565680D01*
X86154600Y-55565681D01*
X86333846Y-55585877D01*
X86333850Y-55585877D01*
X86333854Y-55585877D01*
X86513099Y-55565681D01*
X86513102Y-55565680D01*
X86513105Y-55565680D01*
X86608048Y-55532457D01*
X86649003Y-55525500D01*
X87089880Y-55525500D01*
X87156919Y-55545185D01*
X87185733Y-55570835D01*
X87239116Y-55635883D01*
X87391460Y-55760909D01*
X87391467Y-55760913D01*
X87565266Y-55853811D01*
X87565269Y-55853811D01*
X87565273Y-55853814D01*
X87753868Y-55911024D01*
X87950000Y-55930341D01*
X88146132Y-55911024D01*
X88334727Y-55853814D01*
X88508538Y-55760910D01*
X88660883Y-55635883D01*
X88785910Y-55483538D01*
X88878814Y-55309727D01*
X88936024Y-55121132D01*
X88955341Y-54925000D01*
X88936024Y-54728868D01*
X88878814Y-54540273D01*
X88878811Y-54540269D01*
X88878811Y-54540266D01*
X88785913Y-54366467D01*
X88785909Y-54366460D01*
X88660883Y-54214116D01*
X88508539Y-54089090D01*
X88508532Y-54089086D01*
X88334733Y-53996188D01*
X88334727Y-53996186D01*
X88208996Y-53958045D01*
X88146129Y-53938975D01*
X87950000Y-53919659D01*
X87753870Y-53938975D01*
X87565266Y-53996188D01*
X87391467Y-54089086D01*
X87391460Y-54089090D01*
X87239116Y-54214116D01*
X87185733Y-54279165D01*
X87127988Y-54318499D01*
X87089880Y-54324500D01*
X87060424Y-54324500D01*
X86993385Y-54304815D01*
X86968875Y-54282688D01*
X86968590Y-54282974D01*
X86836112Y-54150496D01*
X86683371Y-54054522D01*
X86527554Y-54000000D01*
X86513105Y-53994944D01*
X86513104Y-53994943D01*
X86513099Y-53994942D01*
X86426180Y-53985149D01*
X86361766Y-53958082D01*
X86352383Y-53949610D01*
X85936818Y-53534045D01*
X85903333Y-53472722D01*
X85900500Y-53446372D01*
X85900500Y-53233060D01*
X85920185Y-53166022D01*
X85972989Y-53120267D01*
X86042148Y-53110324D01*
X86065448Y-53116018D01*
X86120745Y-53135368D01*
X86120748Y-53135368D01*
X86120750Y-53135369D01*
X86299996Y-53155565D01*
X86300000Y-53155565D01*
X86300004Y-53155565D01*
X86479249Y-53135369D01*
X86479252Y-53135368D01*
X86479255Y-53135368D01*
X86649522Y-53075789D01*
X86650488Y-53075181D01*
X86659523Y-53069506D01*
X86725494Y-53050500D01*
X89249023Y-53050500D01*
X89316062Y-53070185D01*
X89361817Y-53122989D01*
X89372797Y-53181989D01*
X89370642Y-53217604D01*
X89370642Y-53217605D01*
X89381821Y-53278612D01*
X89382384Y-53282313D01*
X89389859Y-53343870D01*
X89389860Y-53343874D01*
X89393451Y-53353343D01*
X89399474Y-53374946D01*
X89401304Y-53384930D01*
X89426759Y-53441490D01*
X89428189Y-53444941D01*
X89450182Y-53502930D01*
X89450183Y-53502931D01*
X89455936Y-53511266D01*
X89466961Y-53530813D01*
X89471120Y-53540055D01*
X89471124Y-53540060D01*
X89509371Y-53588878D01*
X89511591Y-53591896D01*
X89546812Y-53642924D01*
X89546816Y-53642928D01*
X89546817Y-53642929D01*
X89593250Y-53684064D01*
X89595941Y-53686598D01*
X90059839Y-54150496D01*
X90511196Y-54601853D01*
X90544681Y-54663176D01*
X90539697Y-54732868D01*
X90497825Y-54788801D01*
X90437404Y-54812754D01*
X90420747Y-54814631D01*
X90420745Y-54814631D01*
X90250476Y-54874211D01*
X90097737Y-54970184D01*
X89970184Y-55097737D01*
X89874211Y-55250476D01*
X89814631Y-55420745D01*
X89814630Y-55420750D01*
X89794435Y-55599996D01*
X89794435Y-55600003D01*
X89814630Y-55779249D01*
X89814631Y-55779254D01*
X89874211Y-55949523D01*
X89973335Y-56107278D01*
X89992335Y-56174515D01*
X89984303Y-56213854D01*
X89984563Y-56213924D01*
X89983414Y-56218208D01*
X89982909Y-56220687D01*
X89982460Y-56221769D01*
X89982458Y-56221776D01*
X89961821Y-56378535D01*
X89961821Y-56378538D01*
X89982458Y-56535297D01*
X89982459Y-56535299D01*
X90042967Y-56681378D01*
X90139221Y-56806819D01*
X90167498Y-56828517D01*
X90173588Y-56833857D01*
X90432279Y-57092548D01*
X90678050Y-57338319D01*
X90711535Y-57399642D01*
X90706551Y-57469334D01*
X90664679Y-57525267D01*
X90599215Y-57549684D01*
X90590369Y-57550000D01*
X89092928Y-57550000D01*
X89084829Y-57549469D01*
X89049500Y-57544818D01*
X89010139Y-57550000D01*
X88892739Y-57565455D01*
X88892737Y-57565456D01*
X88746660Y-57625963D01*
X88621214Y-57722221D01*
X88599524Y-57750490D01*
X88594171Y-57756594D01*
X87806096Y-58544668D01*
X87799994Y-58550019D01*
X87771716Y-58571719D01*
X87697014Y-58669074D01*
X87675464Y-58697158D01*
X87675461Y-58697163D01*
X87614957Y-58843234D01*
X87614955Y-58843239D01*
X87594318Y-58999998D01*
X87594318Y-58999999D01*
X87598969Y-59035326D01*
X87599500Y-59043428D01*
X87599500Y-62124901D01*
X87579815Y-62191940D01*
X87563181Y-62212582D01*
X86906096Y-62869668D01*
X86899994Y-62875019D01*
X86871716Y-62896718D01*
X86809043Y-62978398D01*
X86775464Y-63022158D01*
X86775461Y-63022163D01*
X86714957Y-63168234D01*
X86714955Y-63168239D01*
X86694863Y-63320858D01*
X86694318Y-63325000D01*
X86698601Y-63357535D01*
X86698969Y-63360326D01*
X86699500Y-63368428D01*
X86699500Y-66856571D01*
X86698969Y-66864673D01*
X86694318Y-66899999D01*
X86694318Y-66900000D01*
X86699500Y-66939360D01*
X86714955Y-67056760D01*
X86714956Y-67056762D01*
X86752125Y-67146497D01*
X86775464Y-67202841D01*
X86871718Y-67328282D01*
X86997159Y-67424536D01*
X87143238Y-67485044D01*
X87221619Y-67495363D01*
X87299999Y-67505682D01*
X87300000Y-67505682D01*
X87335329Y-67501030D01*
X87343428Y-67500500D01*
X90406572Y-67500500D01*
X90414670Y-67501030D01*
X90450000Y-67505682D01*
X90450001Y-67505682D01*
X90502254Y-67498802D01*
X90606762Y-67485044D01*
X90703048Y-67445160D01*
X90772516Y-67437692D01*
X90834996Y-67468967D01*
X90870648Y-67529056D01*
X90874500Y-67559722D01*
X90874500Y-84042587D01*
X90854815Y-84109626D01*
X90847450Y-84119896D01*
X90845186Y-84122734D01*
X90749211Y-84275476D01*
X90689631Y-84445745D01*
X90689630Y-84445750D01*
X90669435Y-84624996D01*
X90669435Y-84625003D01*
X90689630Y-84804249D01*
X90689631Y-84804254D01*
X90749211Y-84974523D01*
X90845184Y-85127261D01*
X90845184Y-85127262D01*
X90972738Y-85254816D01*
X91070276Y-85316103D01*
X91116567Y-85368438D01*
X91127215Y-85437491D01*
X91098840Y-85501340D01*
X91091985Y-85508778D01*
X88862582Y-87738181D01*
X88801259Y-87771666D01*
X88774901Y-87774500D01*
X87427129Y-87774500D01*
X87427123Y-87774501D01*
X87367516Y-87780908D01*
X87232671Y-87831202D01*
X87232664Y-87831206D01*
X87117455Y-87917452D01*
X87117452Y-87917455D01*
X87031206Y-88032664D01*
X87031202Y-88032671D01*
X86980908Y-88167517D01*
X86974501Y-88227116D01*
X86974500Y-88227135D01*
X86974500Y-90022870D01*
X86974501Y-90022876D01*
X86980908Y-90082483D01*
X87031202Y-90217328D01*
X87031206Y-90217335D01*
X87117452Y-90332544D01*
X87117455Y-90332547D01*
X87232664Y-90418793D01*
X87232671Y-90418797D01*
X87367517Y-90469091D01*
X87367516Y-90469091D01*
X87374444Y-90469835D01*
X87427127Y-90475500D01*
X89222872Y-90475499D01*
X89282483Y-90469091D01*
X89417331Y-90418796D01*
X89532546Y-90332546D01*
X89618796Y-90217331D01*
X89668002Y-90085401D01*
X89709872Y-90029468D01*
X89775337Y-90005050D01*
X89843610Y-90019901D01*
X89871865Y-90041053D01*
X89993917Y-90163105D01*
X90187421Y-90298600D01*
X90401507Y-90398429D01*
X90401516Y-90398433D01*
X90615000Y-90455634D01*
X90615000Y-89560501D01*
X90722685Y-89609680D01*
X90829237Y-89625000D01*
X90900763Y-89625000D01*
X91007315Y-89609680D01*
X91115000Y-89560501D01*
X91115000Y-90455633D01*
X91328483Y-90398433D01*
X91328492Y-90398429D01*
X91542578Y-90298600D01*
X91736082Y-90163105D01*
X91903105Y-89996082D01*
X92033119Y-89810405D01*
X92087696Y-89766781D01*
X92157195Y-89759588D01*
X92219549Y-89791110D01*
X92236269Y-89810405D01*
X92366505Y-89996401D01*
X92533599Y-90163495D01*
X92630384Y-90231265D01*
X92727165Y-90299032D01*
X92727167Y-90299033D01*
X92727170Y-90299035D01*
X92941337Y-90398903D01*
X92941343Y-90398904D01*
X92941344Y-90398905D01*
X92942225Y-90399141D01*
X93169592Y-90460063D01*
X93346034Y-90475500D01*
X93404999Y-90480659D01*
X93405000Y-90480659D01*
X93405001Y-90480659D01*
X93463966Y-90475500D01*
X93640408Y-90460063D01*
X93868663Y-90398903D01*
X94082830Y-90299035D01*
X94276401Y-90163495D01*
X94443495Y-89996401D01*
X94579035Y-89802830D01*
X94678903Y-89588663D01*
X94740063Y-89360408D01*
X94760659Y-89125000D01*
X94740063Y-88889592D01*
X94678903Y-88661337D01*
X94579035Y-88447171D01*
X94573731Y-88439595D01*
X94443494Y-88253597D01*
X94276402Y-88086506D01*
X94276395Y-88086501D01*
X94082834Y-87950967D01*
X94082830Y-87950965D01*
X94032473Y-87927483D01*
X93868663Y-87851097D01*
X93868659Y-87851096D01*
X93868655Y-87851094D01*
X93640413Y-87789938D01*
X93640403Y-87789936D01*
X93405001Y-87769341D01*
X93404999Y-87769341D01*
X93169596Y-87789936D01*
X93169586Y-87789938D01*
X92941344Y-87851094D01*
X92941335Y-87851098D01*
X92727171Y-87950964D01*
X92727169Y-87950965D01*
X92533597Y-88086505D01*
X92366508Y-88253594D01*
X92236269Y-88439595D01*
X92181692Y-88483219D01*
X92112193Y-88490412D01*
X92049839Y-88458890D01*
X92033119Y-88439594D01*
X91903113Y-88253926D01*
X91903108Y-88253920D01*
X91736082Y-88086894D01*
X91542578Y-87951399D01*
X91328492Y-87851570D01*
X91328486Y-87851567D01*
X91115000Y-87794364D01*
X91115000Y-88689498D01*
X91007315Y-88640320D01*
X90900763Y-88625000D01*
X90829237Y-88625000D01*
X90722685Y-88640320D01*
X90615000Y-88689498D01*
X90615000Y-87735595D01*
X90634685Y-87668556D01*
X90651314Y-87647919D01*
X93993922Y-84305311D01*
X93999999Y-84299983D01*
X94028282Y-84278282D01*
X94124536Y-84152841D01*
X94185044Y-84006762D01*
X94186568Y-83995184D01*
X94205683Y-83850000D01*
X94201031Y-83814665D01*
X94200500Y-83806563D01*
X94200500Y-64018428D01*
X94201031Y-64010326D01*
X94205682Y-63974999D01*
X94205682Y-63974998D01*
X94185044Y-63818239D01*
X94185044Y-63818238D01*
X94124536Y-63672159D01*
X94090684Y-63628042D01*
X94028282Y-63546718D01*
X94000005Y-63525020D01*
X93993904Y-63519669D01*
X93607014Y-63132779D01*
X93573529Y-63071456D01*
X93571475Y-63058980D01*
X93559869Y-62955966D01*
X93559868Y-62955961D01*
X93539138Y-62896718D01*
X93500289Y-62785694D01*
X93404316Y-62632954D01*
X93276762Y-62505400D01*
X93217037Y-62467872D01*
X93124021Y-62409426D01*
X92953749Y-62349846D01*
X92910615Y-62344986D01*
X92846201Y-62317918D01*
X92806647Y-62260323D01*
X92800500Y-62221766D01*
X92800500Y-61000333D01*
X92820185Y-60933294D01*
X92872989Y-60887539D01*
X92942147Y-60877595D01*
X93003166Y-60904481D01*
X93041459Y-60935908D01*
X93041467Y-60935913D01*
X93215266Y-61028811D01*
X93215269Y-61028811D01*
X93215273Y-61028814D01*
X93403868Y-61086024D01*
X93600000Y-61105341D01*
X93796132Y-61086024D01*
X93984727Y-61028814D01*
X94158538Y-60935910D01*
X94310883Y-60810883D01*
X94435910Y-60658538D01*
X94528814Y-60484727D01*
X94586024Y-60296132D01*
X94605341Y-60100000D01*
X94586024Y-59903868D01*
X94528814Y-59715273D01*
X94528811Y-59715269D01*
X94528811Y-59715266D01*
X94435913Y-59541467D01*
X94435909Y-59541460D01*
X94310883Y-59389116D01*
X94158539Y-59264090D01*
X94158532Y-59264086D01*
X93984733Y-59171188D01*
X93984727Y-59171186D01*
X93796132Y-59113976D01*
X93796129Y-59113975D01*
X93600000Y-59094659D01*
X93403870Y-59113975D01*
X93215266Y-59171188D01*
X93052560Y-59258157D01*
X92984157Y-59272399D01*
X92918913Y-59247399D01*
X92906436Y-59236489D01*
X92836817Y-59166870D01*
X92803334Y-59105548D01*
X92800500Y-59079191D01*
X92800500Y-59030807D01*
X92820185Y-58963768D01*
X92836819Y-58943126D01*
X93699603Y-58080342D01*
X94791263Y-56988681D01*
X94852584Y-56955198D01*
X94922276Y-56960182D01*
X94978209Y-57002054D01*
X95002626Y-57067518D01*
X95001881Y-57092548D01*
X94994318Y-57149997D01*
X94994318Y-57149999D01*
X94998969Y-57185326D01*
X94999500Y-57193428D01*
X94999499Y-60217587D01*
X94979814Y-60284626D01*
X94972455Y-60294889D01*
X94970187Y-60297733D01*
X94874211Y-60450476D01*
X94814631Y-60620745D01*
X94814630Y-60620750D01*
X94794435Y-60799996D01*
X94794435Y-60800003D01*
X94814630Y-60979249D01*
X94814631Y-60979254D01*
X94874211Y-61149523D01*
X94889284Y-61173511D01*
X94970184Y-61302262D01*
X95097738Y-61429816D01*
X95250478Y-61525789D01*
X95420745Y-61585367D01*
X95420745Y-61585368D01*
X95420750Y-61585369D01*
X95599996Y-61605565D01*
X95600000Y-61605565D01*
X95600004Y-61605565D01*
X95779249Y-61585369D01*
X95779252Y-61585368D01*
X95779255Y-61585368D01*
X95949522Y-61525789D01*
X96102262Y-61429816D01*
X96229816Y-61302262D01*
X96325789Y-61149522D01*
X96385368Y-60979255D01*
X96386719Y-60967265D01*
X96405565Y-60800003D01*
X96405565Y-60799996D01*
X96385369Y-60620750D01*
X96385368Y-60620745D01*
X96339420Y-60489433D01*
X96325789Y-60450478D01*
X96305123Y-60417589D01*
X96289837Y-60393261D01*
X96229816Y-60297738D01*
X96229814Y-60297736D01*
X96229813Y-60297734D01*
X96227550Y-60294896D01*
X96226659Y-60292715D01*
X96226111Y-60291842D01*
X96226264Y-60291745D01*
X96201144Y-60230209D01*
X96200500Y-60217587D01*
X96200500Y-57450096D01*
X96220185Y-57383057D01*
X96236814Y-57362420D01*
X97918535Y-55680698D01*
X97979856Y-55647215D01*
X97992311Y-55645163D01*
X98079255Y-55635368D01*
X98135245Y-55615775D01*
X98205024Y-55612213D01*
X98265652Y-55646942D01*
X98297879Y-55708935D01*
X98291475Y-55778511D01*
X98277777Y-55803939D01*
X98219431Y-55887267D01*
X98123261Y-56093502D01*
X98123258Y-56093511D01*
X98064366Y-56313302D01*
X98064364Y-56313313D01*
X98044532Y-56539998D01*
X98044532Y-56540001D01*
X98064364Y-56766686D01*
X98064366Y-56766697D01*
X98123258Y-56986488D01*
X98123261Y-56986497D01*
X98219431Y-57192732D01*
X98219432Y-57192734D01*
X98349954Y-57379141D01*
X98510858Y-57540045D01*
X98510861Y-57540047D01*
X98697266Y-57670568D01*
X98755865Y-57697893D01*
X98808305Y-57744065D01*
X98827457Y-57811258D01*
X98807242Y-57878139D01*
X98755867Y-57922657D01*
X98697515Y-57949867D01*
X98511179Y-58080342D01*
X98350342Y-58241179D01*
X98219865Y-58427517D01*
X98123734Y-58633673D01*
X98123730Y-58633682D01*
X98071127Y-58829999D01*
X98071128Y-58830000D01*
X98966314Y-58830000D01*
X98940507Y-58870156D01*
X98900000Y-59008111D01*
X98900000Y-59151889D01*
X98940507Y-59289844D01*
X98966314Y-59330000D01*
X98071128Y-59330000D01*
X98123730Y-59526317D01*
X98123734Y-59526326D01*
X98219865Y-59732482D01*
X98350342Y-59918820D01*
X98511179Y-60079657D01*
X98697518Y-60210134D01*
X98697520Y-60210135D01*
X98755865Y-60237342D01*
X98808305Y-60283514D01*
X98827457Y-60350707D01*
X98807242Y-60417589D01*
X98755867Y-60462105D01*
X98707356Y-60484727D01*
X98697264Y-60489433D01*
X98510858Y-60619954D01*
X98349954Y-60780858D01*
X98219432Y-60967265D01*
X98219431Y-60967267D01*
X98123261Y-61173502D01*
X98123258Y-61173511D01*
X98064366Y-61393302D01*
X98064364Y-61393313D01*
X98044532Y-61619998D01*
X98044532Y-61620001D01*
X98064364Y-61846686D01*
X98064366Y-61846697D01*
X98123258Y-62066488D01*
X98123261Y-62066497D01*
X98219431Y-62272732D01*
X98219432Y-62272734D01*
X98349954Y-62459141D01*
X98510858Y-62620045D01*
X98510861Y-62620047D01*
X98697266Y-62750568D01*
X98755275Y-62777618D01*
X98807714Y-62823791D01*
X98826866Y-62890984D01*
X98806650Y-62957865D01*
X98755275Y-63002381D01*
X98738272Y-63010310D01*
X98697267Y-63029431D01*
X98697265Y-63029432D01*
X98510858Y-63159954D01*
X98349954Y-63320858D01*
X98219432Y-63507265D01*
X98219431Y-63507267D01*
X98123261Y-63713502D01*
X98123258Y-63713511D01*
X98064366Y-63933302D01*
X98064364Y-63933313D01*
X98044532Y-64159998D01*
X98044532Y-64160001D01*
X98064364Y-64386686D01*
X98064366Y-64386697D01*
X98123258Y-64606488D01*
X98123261Y-64606497D01*
X98219431Y-64812732D01*
X98219432Y-64812734D01*
X98349954Y-64999141D01*
X98510858Y-65160045D01*
X98510861Y-65160047D01*
X98697266Y-65290568D01*
X98755275Y-65317618D01*
X98807714Y-65363791D01*
X98826866Y-65430984D01*
X98806650Y-65497865D01*
X98755275Y-65542381D01*
X98738272Y-65550310D01*
X98697267Y-65569431D01*
X98697265Y-65569432D01*
X98510858Y-65699954D01*
X98349954Y-65860858D01*
X98219432Y-66047265D01*
X98219431Y-66047267D01*
X98123261Y-66253502D01*
X98123258Y-66253511D01*
X98064366Y-66473302D01*
X98064364Y-66473313D01*
X98044532Y-66699998D01*
X98044532Y-66700001D01*
X98064364Y-66926686D01*
X98064366Y-66926697D01*
X98123258Y-67146488D01*
X98123261Y-67146497D01*
X98219431Y-67352732D01*
X98219432Y-67352734D01*
X98349954Y-67539141D01*
X98510858Y-67700045D01*
X98510861Y-67700047D01*
X98697266Y-67830568D01*
X98755275Y-67857618D01*
X98807714Y-67903791D01*
X98826866Y-67970984D01*
X98806650Y-68037865D01*
X98755275Y-68082381D01*
X98738272Y-68090310D01*
X98697267Y-68109431D01*
X98697265Y-68109432D01*
X98510858Y-68239954D01*
X98349954Y-68400858D01*
X98219432Y-68587265D01*
X98219431Y-68587267D01*
X98123261Y-68793502D01*
X98123258Y-68793511D01*
X98064366Y-69013302D01*
X98064364Y-69013313D01*
X98044532Y-69239998D01*
X98044532Y-69240001D01*
X98064364Y-69466686D01*
X98064366Y-69466697D01*
X98123258Y-69686488D01*
X98123261Y-69686497D01*
X98219431Y-69892732D01*
X98219432Y-69892734D01*
X98349954Y-70079141D01*
X98510858Y-70240045D01*
X98510861Y-70240047D01*
X98697266Y-70370568D01*
X98755865Y-70397893D01*
X98808305Y-70444065D01*
X98827457Y-70511258D01*
X98807242Y-70578139D01*
X98755867Y-70622657D01*
X98697515Y-70649867D01*
X98511179Y-70780342D01*
X98350342Y-70941179D01*
X98219865Y-71127517D01*
X98123734Y-71333673D01*
X98123730Y-71333682D01*
X98071127Y-71529999D01*
X98071128Y-71530000D01*
X98966314Y-71530000D01*
X98940507Y-71570156D01*
X98900000Y-71708111D01*
X98900000Y-71851889D01*
X98940507Y-71989844D01*
X98966314Y-72030000D01*
X98071128Y-72030000D01*
X98123730Y-72226317D01*
X98123734Y-72226326D01*
X98219865Y-72432482D01*
X98350342Y-72618820D01*
X98511179Y-72779657D01*
X98697518Y-72910134D01*
X98697520Y-72910135D01*
X98755865Y-72937342D01*
X98808305Y-72983514D01*
X98827457Y-73050707D01*
X98807242Y-73117589D01*
X98755867Y-73162105D01*
X98697268Y-73189431D01*
X98697264Y-73189433D01*
X98510858Y-73319954D01*
X98349954Y-73480858D01*
X98219432Y-73667265D01*
X98219431Y-73667267D01*
X98123261Y-73873502D01*
X98123258Y-73873511D01*
X98064366Y-74093302D01*
X98064364Y-74093313D01*
X98044532Y-74319998D01*
X98044532Y-74320001D01*
X98064364Y-74546686D01*
X98064366Y-74546697D01*
X98123258Y-74766488D01*
X98123261Y-74766497D01*
X98219431Y-74972732D01*
X98219432Y-74972734D01*
X98349954Y-75159141D01*
X98510858Y-75320045D01*
X98510861Y-75320047D01*
X98697266Y-75450568D01*
X98755275Y-75477618D01*
X98807714Y-75523791D01*
X98826866Y-75590984D01*
X98806650Y-75657865D01*
X98755275Y-75702381D01*
X98738272Y-75710310D01*
X98697267Y-75729431D01*
X98697265Y-75729432D01*
X98510858Y-75859954D01*
X98349954Y-76020858D01*
X98219432Y-76207265D01*
X98219431Y-76207267D01*
X98123261Y-76413502D01*
X98123258Y-76413511D01*
X98064366Y-76633302D01*
X98064364Y-76633313D01*
X98044532Y-76859998D01*
X98044532Y-76860001D01*
X98064364Y-77086686D01*
X98064366Y-77086697D01*
X98123258Y-77306488D01*
X98123261Y-77306497D01*
X98219431Y-77512732D01*
X98219432Y-77512734D01*
X98349954Y-77699141D01*
X98510858Y-77860045D01*
X98510861Y-77860047D01*
X98697266Y-77990568D01*
X98755275Y-78017618D01*
X98807714Y-78063791D01*
X98826866Y-78130984D01*
X98806650Y-78197865D01*
X98755275Y-78242381D01*
X98738272Y-78250310D01*
X98697267Y-78269431D01*
X98697265Y-78269432D01*
X98510858Y-78399954D01*
X98349954Y-78560858D01*
X98219432Y-78747265D01*
X98219431Y-78747267D01*
X98123261Y-78953502D01*
X98123258Y-78953511D01*
X98064366Y-79173302D01*
X98064364Y-79173313D01*
X98044532Y-79399998D01*
X98044532Y-79400001D01*
X98064364Y-79626686D01*
X98064366Y-79626697D01*
X98123258Y-79846488D01*
X98123261Y-79846497D01*
X98219431Y-80052732D01*
X98219432Y-80052734D01*
X98349954Y-80239141D01*
X98510858Y-80400045D01*
X98510861Y-80400047D01*
X98697266Y-80530568D01*
X98755275Y-80557618D01*
X98807714Y-80603791D01*
X98826866Y-80670984D01*
X98806650Y-80737865D01*
X98755275Y-80782381D01*
X98738272Y-80790310D01*
X98697267Y-80809431D01*
X98697265Y-80809432D01*
X98510858Y-80939954D01*
X98349954Y-81100858D01*
X98219432Y-81287265D01*
X98219431Y-81287267D01*
X98123261Y-81493502D01*
X98123258Y-81493511D01*
X98064366Y-81713302D01*
X98064364Y-81713313D01*
X98044532Y-81939998D01*
X98044532Y-81940001D01*
X98064364Y-82166686D01*
X98064366Y-82166697D01*
X98123258Y-82386488D01*
X98123261Y-82386497D01*
X98219431Y-82592732D01*
X98219432Y-82592734D01*
X98349954Y-82779141D01*
X98510858Y-82940045D01*
X98510861Y-82940047D01*
X98697266Y-83070568D01*
X98755865Y-83097893D01*
X98808305Y-83144065D01*
X98827457Y-83211258D01*
X98807242Y-83278139D01*
X98755867Y-83322657D01*
X98697515Y-83349867D01*
X98511179Y-83480342D01*
X98350342Y-83641179D01*
X98219865Y-83827517D01*
X98123734Y-84033673D01*
X98123730Y-84033682D01*
X98071127Y-84229999D01*
X98071128Y-84230000D01*
X98966314Y-84230000D01*
X98940507Y-84270156D01*
X98900000Y-84408111D01*
X98900000Y-84551889D01*
X98940507Y-84689844D01*
X98966314Y-84730000D01*
X98071128Y-84730000D01*
X98123730Y-84926317D01*
X98123734Y-84926326D01*
X98219865Y-85132482D01*
X98350342Y-85318820D01*
X98511179Y-85479657D01*
X98697518Y-85610134D01*
X98697520Y-85610135D01*
X98755865Y-85637342D01*
X98808305Y-85683514D01*
X98827457Y-85750707D01*
X98807242Y-85817589D01*
X98755867Y-85862105D01*
X98697268Y-85889431D01*
X98697264Y-85889433D01*
X98510858Y-86019954D01*
X98349954Y-86180858D01*
X98219432Y-86367265D01*
X98219431Y-86367267D01*
X98123261Y-86573502D01*
X98123258Y-86573511D01*
X98064366Y-86793302D01*
X98064364Y-86793313D01*
X98044532Y-87019998D01*
X98044532Y-87020001D01*
X98064364Y-87246686D01*
X98064366Y-87246697D01*
X98123258Y-87466488D01*
X98123261Y-87466497D01*
X98219431Y-87672732D01*
X98219432Y-87672734D01*
X98349954Y-87859141D01*
X98510858Y-88020045D01*
X98510861Y-88020047D01*
X98697266Y-88150568D01*
X98755275Y-88177618D01*
X98807714Y-88223791D01*
X98826866Y-88290984D01*
X98806650Y-88357865D01*
X98755275Y-88402381D01*
X98738272Y-88410310D01*
X98697267Y-88429431D01*
X98697265Y-88429432D01*
X98510858Y-88559954D01*
X98349954Y-88720858D01*
X98219432Y-88907265D01*
X98219431Y-88907267D01*
X98123261Y-89113502D01*
X98123258Y-89113511D01*
X98064366Y-89333302D01*
X98064364Y-89333313D01*
X98044532Y-89559998D01*
X98044532Y-89560001D01*
X98064364Y-89786686D01*
X98064366Y-89786697D01*
X98123258Y-90006488D01*
X98123261Y-90006497D01*
X98219431Y-90212732D01*
X98219432Y-90212734D01*
X98349954Y-90399141D01*
X98510858Y-90560045D01*
X98510861Y-90560047D01*
X98697266Y-90690568D01*
X98852849Y-90763118D01*
X98905288Y-90809291D01*
X98924440Y-90876484D01*
X98904224Y-90943365D01*
X98851059Y-90988700D01*
X98800444Y-90999500D01*
X82199556Y-90999500D01*
X82132517Y-90979815D01*
X82086762Y-90927011D01*
X82076818Y-90857853D01*
X82105843Y-90794297D01*
X82147151Y-90763118D01*
X82302734Y-90690568D01*
X82489139Y-90560047D01*
X82650047Y-90399139D01*
X82780568Y-90212734D01*
X82876739Y-90006496D01*
X82935635Y-89786692D01*
X82955468Y-89560000D01*
X82935635Y-89333308D01*
X82876739Y-89113504D01*
X82780568Y-88907266D01*
X82650047Y-88720861D01*
X82650045Y-88720858D01*
X82489141Y-88559954D01*
X82302734Y-88429432D01*
X82302728Y-88429429D01*
X82275038Y-88416517D01*
X82244724Y-88402381D01*
X82192285Y-88356210D01*
X82173133Y-88289017D01*
X82193348Y-88222135D01*
X82244725Y-88177618D01*
X82302734Y-88150568D01*
X82489139Y-88020047D01*
X82650047Y-87859139D01*
X82780568Y-87672734D01*
X82876739Y-87466496D01*
X82935635Y-87246692D01*
X82955468Y-87020000D01*
X82935635Y-86793308D01*
X82876739Y-86573504D01*
X82780568Y-86367266D01*
X82650047Y-86180861D01*
X82650045Y-86180858D01*
X82489141Y-86019954D01*
X82302734Y-85889432D01*
X82302732Y-85889431D01*
X82291275Y-85884088D01*
X82244132Y-85862105D01*
X82191694Y-85815934D01*
X82172542Y-85748740D01*
X82192758Y-85681859D01*
X82244134Y-85637341D01*
X82302484Y-85610132D01*
X82488820Y-85479657D01*
X82649657Y-85318820D01*
X82780134Y-85132482D01*
X82876265Y-84926326D01*
X82876269Y-84926317D01*
X82928872Y-84730000D01*
X82033686Y-84730000D01*
X82059493Y-84689844D01*
X82100000Y-84551889D01*
X82100000Y-84408111D01*
X82059493Y-84270156D01*
X82033686Y-84230000D01*
X82928872Y-84230000D01*
X82928872Y-84229999D01*
X82876269Y-84033682D01*
X82876265Y-84033673D01*
X82780134Y-83827517D01*
X82649657Y-83641179D01*
X82488820Y-83480342D01*
X82302482Y-83349865D01*
X82244133Y-83322657D01*
X82191694Y-83276484D01*
X82172542Y-83209291D01*
X82192758Y-83142410D01*
X82244129Y-83097895D01*
X82302734Y-83070568D01*
X82489139Y-82940047D01*
X82650047Y-82779139D01*
X82780568Y-82592734D01*
X82876739Y-82386496D01*
X82935635Y-82166692D01*
X82955468Y-81940000D01*
X82935635Y-81713308D01*
X82876739Y-81493504D01*
X82780568Y-81287266D01*
X82650047Y-81100861D01*
X82650045Y-81100858D01*
X82489141Y-80939954D01*
X82302734Y-80809432D01*
X82302728Y-80809429D01*
X82275038Y-80796517D01*
X82244724Y-80782381D01*
X82192285Y-80736210D01*
X82173133Y-80669017D01*
X82193348Y-80602135D01*
X82244725Y-80557618D01*
X82302734Y-80530568D01*
X82489139Y-80400047D01*
X82650047Y-80239139D01*
X82780568Y-80052734D01*
X82876739Y-79846496D01*
X82935635Y-79626692D01*
X82955468Y-79400000D01*
X82935635Y-79173308D01*
X82876739Y-78953504D01*
X82780568Y-78747266D01*
X82650047Y-78560861D01*
X82650045Y-78560858D01*
X82489141Y-78399954D01*
X82302734Y-78269432D01*
X82302728Y-78269429D01*
X82275038Y-78256517D01*
X82244724Y-78242381D01*
X82192285Y-78196210D01*
X82173133Y-78129017D01*
X82193348Y-78062135D01*
X82244725Y-78017618D01*
X82302734Y-77990568D01*
X82489139Y-77860047D01*
X82650047Y-77699139D01*
X82780568Y-77512734D01*
X82876739Y-77306496D01*
X82935635Y-77086692D01*
X82955468Y-76860000D01*
X82935635Y-76633308D01*
X82876739Y-76413504D01*
X82780568Y-76207266D01*
X82650047Y-76020861D01*
X82650045Y-76020858D01*
X82489141Y-75859954D01*
X82302734Y-75729432D01*
X82302728Y-75729429D01*
X82275038Y-75716517D01*
X82244724Y-75702381D01*
X82192285Y-75656210D01*
X82173133Y-75589017D01*
X82193348Y-75522135D01*
X82244725Y-75477618D01*
X82302734Y-75450568D01*
X82489139Y-75320047D01*
X82650047Y-75159139D01*
X82780568Y-74972734D01*
X82876739Y-74766496D01*
X82935635Y-74546692D01*
X82955468Y-74320000D01*
X82935635Y-74093308D01*
X82876739Y-73873504D01*
X82780568Y-73667266D01*
X82650047Y-73480861D01*
X82650045Y-73480858D01*
X82489141Y-73319954D01*
X82302734Y-73189432D01*
X82302732Y-73189431D01*
X82291275Y-73184088D01*
X82244132Y-73162105D01*
X82191694Y-73115934D01*
X82172542Y-73048740D01*
X82192758Y-72981859D01*
X82244134Y-72937341D01*
X82302484Y-72910132D01*
X82488820Y-72779657D01*
X82649657Y-72618820D01*
X82780134Y-72432482D01*
X82876265Y-72226326D01*
X82876269Y-72226317D01*
X82928872Y-72030000D01*
X82033686Y-72030000D01*
X82059493Y-71989844D01*
X82100000Y-71851889D01*
X82100000Y-71708111D01*
X82059493Y-71570156D01*
X82033686Y-71530000D01*
X82928872Y-71530000D01*
X82928872Y-71529999D01*
X82876269Y-71333682D01*
X82876265Y-71333673D01*
X82780134Y-71127517D01*
X82649657Y-70941179D01*
X82488820Y-70780342D01*
X82302482Y-70649865D01*
X82244133Y-70622657D01*
X82191694Y-70576484D01*
X82172542Y-70509291D01*
X82192758Y-70442410D01*
X82244129Y-70397895D01*
X82302734Y-70370568D01*
X82489139Y-70240047D01*
X82650047Y-70079139D01*
X82780568Y-69892734D01*
X82876739Y-69686496D01*
X82935635Y-69466692D01*
X82955468Y-69240000D01*
X82935635Y-69013308D01*
X82876739Y-68793504D01*
X82780568Y-68587266D01*
X82650047Y-68400861D01*
X82650045Y-68400858D01*
X82489141Y-68239954D01*
X82302735Y-68109433D01*
X82302736Y-68109433D01*
X82302734Y-68109432D01*
X82244722Y-68082380D01*
X82192284Y-68036208D01*
X82173133Y-67969014D01*
X82193349Y-67902133D01*
X82244721Y-67857619D01*
X82302734Y-67830568D01*
X82489139Y-67700047D01*
X82650047Y-67539139D01*
X82780568Y-67352734D01*
X82876739Y-67146496D01*
X82935635Y-66926692D01*
X82955468Y-66700000D01*
X82935635Y-66473308D01*
X82876739Y-66253504D01*
X82780568Y-66047266D01*
X82650047Y-65860861D01*
X82650045Y-65860858D01*
X82489141Y-65699954D01*
X82302734Y-65569432D01*
X82302728Y-65569429D01*
X82275038Y-65556517D01*
X82244724Y-65542381D01*
X82192285Y-65496210D01*
X82173133Y-65429017D01*
X82193348Y-65362135D01*
X82244725Y-65317618D01*
X82302734Y-65290568D01*
X82489139Y-65160047D01*
X82650047Y-64999139D01*
X82780568Y-64812734D01*
X82876739Y-64606496D01*
X82935635Y-64386692D01*
X82955468Y-64160000D01*
X82935635Y-63933308D01*
X82876739Y-63713504D01*
X82780568Y-63507266D01*
X82652945Y-63325000D01*
X82650045Y-63320858D01*
X82489141Y-63159954D01*
X82302734Y-63029432D01*
X82302728Y-63029429D01*
X82275038Y-63016517D01*
X82244724Y-63002381D01*
X82192285Y-62956210D01*
X82173133Y-62889017D01*
X82193348Y-62822135D01*
X82244725Y-62777618D01*
X82302734Y-62750568D01*
X82489139Y-62620047D01*
X82650047Y-62459139D01*
X82780568Y-62272734D01*
X82876739Y-62066496D01*
X82935635Y-61846692D01*
X82955468Y-61620000D01*
X82935635Y-61393308D01*
X82876739Y-61173504D01*
X82780568Y-60967266D01*
X82650047Y-60780861D01*
X82650045Y-60780858D01*
X82489141Y-60619954D01*
X82302734Y-60489432D01*
X82302732Y-60489431D01*
X82291275Y-60484088D01*
X82244132Y-60462105D01*
X82191694Y-60415934D01*
X82172542Y-60348740D01*
X82192758Y-60281859D01*
X82244134Y-60237341D01*
X82302484Y-60210132D01*
X82488820Y-60079657D01*
X82649657Y-59918820D01*
X82780134Y-59732482D01*
X82876265Y-59526326D01*
X82876269Y-59526317D01*
X82928872Y-59330000D01*
X82033686Y-59330000D01*
X82059493Y-59289844D01*
X82100000Y-59151889D01*
X82100000Y-59008111D01*
X82059493Y-58870156D01*
X82033686Y-58830000D01*
X82928872Y-58830000D01*
X82928872Y-58829999D01*
X82876269Y-58633682D01*
X82876265Y-58633673D01*
X82780134Y-58427517D01*
X82649657Y-58241179D01*
X82488820Y-58080342D01*
X82302482Y-57949865D01*
X82244133Y-57922657D01*
X82191694Y-57876484D01*
X82172542Y-57809291D01*
X82192758Y-57742410D01*
X82244129Y-57697895D01*
X82302734Y-57670568D01*
X82489139Y-57540047D01*
X82650047Y-57379139D01*
X82780568Y-57192734D01*
X82876739Y-56986496D01*
X82935635Y-56766692D01*
X82955468Y-56540000D01*
X82935635Y-56313308D01*
X82876739Y-56093504D01*
X82780568Y-55887266D01*
X82682839Y-55747693D01*
X82650045Y-55700858D01*
X82489141Y-55539954D01*
X82318898Y-55420750D01*
X82302734Y-55409432D01*
X82244722Y-55382380D01*
X82192284Y-55336208D01*
X82173133Y-55269014D01*
X82193349Y-55202133D01*
X82244721Y-55157619D01*
X82302734Y-55130568D01*
X82489139Y-55000047D01*
X82650047Y-54839139D01*
X82780568Y-54652734D01*
X82876739Y-54446496D01*
X82935635Y-54226692D01*
X82955468Y-54000000D01*
X82955134Y-53996188D01*
X82936730Y-53785823D01*
X82935635Y-53773308D01*
X82876739Y-53553504D01*
X82780568Y-53347266D01*
X82678053Y-53200858D01*
X82650045Y-53160858D01*
X82489141Y-52999954D01*
X82302734Y-52869432D01*
X82302728Y-52869429D01*
X82275038Y-52856517D01*
X82244724Y-52842381D01*
X82192285Y-52796210D01*
X82173133Y-52729017D01*
X82193348Y-52662135D01*
X82244725Y-52617618D01*
X82302734Y-52590568D01*
X82489139Y-52460047D01*
X82650047Y-52299139D01*
X82780568Y-52112734D01*
X82876739Y-51906496D01*
X82935635Y-51686692D01*
X82955468Y-51460000D01*
X82935635Y-51233308D01*
X82876739Y-51013504D01*
X82780568Y-50807266D01*
X82650047Y-50620861D01*
X82650045Y-50620858D01*
X82489141Y-50459954D01*
X82302734Y-50329432D01*
X82302728Y-50329429D01*
X82275038Y-50316517D01*
X82244724Y-50302381D01*
X82192285Y-50256210D01*
X82173133Y-50189017D01*
X82193348Y-50122135D01*
X82244725Y-50077618D01*
X82302734Y-50050568D01*
X82489139Y-49920047D01*
X82650047Y-49759139D01*
X82780568Y-49572734D01*
X82876739Y-49366496D01*
X82935635Y-49146692D01*
X82955468Y-48920000D01*
X82954467Y-48908563D01*
X82935635Y-48693313D01*
X82935635Y-48693308D01*
X82876739Y-48473504D01*
X82780568Y-48267266D01*
X82650047Y-48080861D01*
X82650045Y-48080858D01*
X82489141Y-47919954D01*
X82302734Y-47789432D01*
X82302732Y-47789431D01*
X82291275Y-47784088D01*
X82244132Y-47762105D01*
X82191694Y-47715934D01*
X82172542Y-47648740D01*
X82192758Y-47581859D01*
X82244134Y-47537341D01*
X82302484Y-47510132D01*
X82488820Y-47379657D01*
X82649657Y-47218820D01*
X82780134Y-47032482D01*
X82876265Y-46826326D01*
X82876269Y-46826317D01*
X82928872Y-46630000D01*
X82033686Y-46630000D01*
X82059493Y-46589844D01*
X82100000Y-46451889D01*
X82100000Y-46308111D01*
X82059493Y-46170156D01*
X82033686Y-46130000D01*
X82928872Y-46130000D01*
X82928872Y-46129999D01*
X82876269Y-45933682D01*
X82876265Y-45933673D01*
X82780134Y-45727517D01*
X82649657Y-45541179D01*
X82488820Y-45380342D01*
X82302482Y-45249865D01*
X82244133Y-45222657D01*
X82191694Y-45176484D01*
X82172542Y-45109291D01*
X82192758Y-45042410D01*
X82244129Y-44997895D01*
X82302734Y-44970568D01*
X82489139Y-44840047D01*
X82650047Y-44679139D01*
X82780568Y-44492734D01*
X82876739Y-44286496D01*
X82935635Y-44066692D01*
X82955468Y-43840000D01*
X82935635Y-43613308D01*
X82876739Y-43393504D01*
X82780568Y-43187266D01*
X82650047Y-43000861D01*
X82650045Y-43000858D01*
X82489141Y-42839954D01*
X82302734Y-42709432D01*
X82302728Y-42709429D01*
X82275038Y-42696517D01*
X82244724Y-42682381D01*
X82192285Y-42636210D01*
X82173133Y-42569017D01*
X82193348Y-42502135D01*
X82244725Y-42457618D01*
X82302734Y-42430568D01*
X82489139Y-42300047D01*
X82650047Y-42139139D01*
X82780568Y-41952734D01*
X82876739Y-41746496D01*
X82935635Y-41526692D01*
X82942345Y-41449999D01*
X86526915Y-41449999D01*
X86526916Y-41450000D01*
X87350000Y-41450000D01*
X87350000Y-41950000D01*
X86526916Y-41950000D01*
X86540058Y-42091830D01*
X86599650Y-42301274D01*
X86599655Y-42301287D01*
X86696715Y-42496208D01*
X86827945Y-42669985D01*
X86988868Y-42816685D01*
X87174012Y-42931322D01*
X87174023Y-42931327D01*
X87377060Y-43009984D01*
X87450000Y-43023619D01*
X87450000Y-42195581D01*
X87505921Y-42247060D01*
X87612892Y-42293982D01*
X87729302Y-42303628D01*
X87842538Y-42274953D01*
X87940327Y-42211064D01*
X87950000Y-42198635D01*
X87950000Y-43023619D01*
X88022939Y-43009984D01*
X88225976Y-42931327D01*
X88225987Y-42931322D01*
X88411130Y-42816685D01*
X88411131Y-42816685D01*
X88572054Y-42669985D01*
X88703284Y-42496208D01*
X88800344Y-42301287D01*
X88800349Y-42301274D01*
X88859941Y-42091830D01*
X88873084Y-41950000D01*
X88050000Y-41950000D01*
X88050000Y-41450000D01*
X88873084Y-41450000D01*
X88873084Y-41449999D01*
X91986915Y-41449999D01*
X91986916Y-41450000D01*
X92810000Y-41450000D01*
X92810000Y-41950000D01*
X91986916Y-41950000D01*
X92000058Y-42091830D01*
X92059650Y-42301274D01*
X92059655Y-42301287D01*
X92156715Y-42496208D01*
X92287945Y-42669985D01*
X92448868Y-42816685D01*
X92634012Y-42931322D01*
X92634023Y-42931327D01*
X92837060Y-43009984D01*
X92910000Y-43023619D01*
X92910000Y-42195581D01*
X92965921Y-42247060D01*
X93072892Y-42293982D01*
X93189302Y-42303628D01*
X93302538Y-42274953D01*
X93400327Y-42211064D01*
X93410000Y-42198635D01*
X93410000Y-43023619D01*
X93482939Y-43009984D01*
X93685976Y-42931327D01*
X93685987Y-42931322D01*
X93871130Y-42816685D01*
X93871131Y-42816685D01*
X94032054Y-42669985D01*
X94163284Y-42496208D01*
X94260344Y-42301287D01*
X94260349Y-42301274D01*
X94319941Y-42091830D01*
X94333084Y-41950000D01*
X93510000Y-41950000D01*
X93510000Y-41450000D01*
X94333084Y-41450000D01*
X94333084Y-41449999D01*
X94319941Y-41308169D01*
X94260349Y-41098725D01*
X94260344Y-41098712D01*
X94163284Y-40903791D01*
X94032054Y-40730014D01*
X93871131Y-40583314D01*
X93685987Y-40468677D01*
X93685985Y-40468676D01*
X93482931Y-40390013D01*
X93482921Y-40390010D01*
X93410001Y-40376378D01*
X93409999Y-40376379D01*
X93409999Y-41204418D01*
X93354079Y-41152940D01*
X93247108Y-41106018D01*
X93130698Y-41096372D01*
X93017462Y-41125047D01*
X92919673Y-41188936D01*
X92909999Y-41201364D01*
X92909999Y-40376379D01*
X92909998Y-40376378D01*
X92837078Y-40390010D01*
X92837068Y-40390013D01*
X92634014Y-40468676D01*
X92634012Y-40468677D01*
X92448869Y-40583314D01*
X92448868Y-40583314D01*
X92287945Y-40730014D01*
X92156715Y-40903791D01*
X92059655Y-41098712D01*
X92059650Y-41098725D01*
X92000058Y-41308169D01*
X91986915Y-41449999D01*
X88873084Y-41449999D01*
X88859941Y-41308169D01*
X88800349Y-41098725D01*
X88800344Y-41098712D01*
X88703284Y-40903791D01*
X88572054Y-40730014D01*
X88411131Y-40583314D01*
X88225987Y-40468677D01*
X88225985Y-40468676D01*
X88022931Y-40390013D01*
X88022921Y-40390010D01*
X87950001Y-40376378D01*
X87950000Y-40376379D01*
X87950000Y-41204418D01*
X87894079Y-41152940D01*
X87787108Y-41106018D01*
X87670698Y-41096372D01*
X87557462Y-41125047D01*
X87459673Y-41188936D01*
X87450000Y-41201364D01*
X87450000Y-40376379D01*
X87449998Y-40376378D01*
X87377078Y-40390010D01*
X87377068Y-40390013D01*
X87174014Y-40468676D01*
X87174012Y-40468677D01*
X86988869Y-40583314D01*
X86988868Y-40583314D01*
X86827945Y-40730014D01*
X86696715Y-40903791D01*
X86599655Y-41098712D01*
X86599650Y-41098725D01*
X86540058Y-41308169D01*
X86526915Y-41449999D01*
X82942345Y-41449999D01*
X82955468Y-41300000D01*
X82935635Y-41073308D01*
X82876739Y-40853504D01*
X82780568Y-40647266D01*
X82650047Y-40460861D01*
X82650045Y-40460858D01*
X82489141Y-40299954D01*
X82383629Y-40226075D01*
X82340004Y-40171499D01*
X82332810Y-40102001D01*
X82364332Y-40039646D01*
X82424562Y-40004231D01*
X82454752Y-40000500D01*
X98545248Y-40000500D01*
X98612287Y-40020185D01*
G37*
%TD.AperFunction*%
%TA.AperFunction,Conductor*%
G36*
X91289670Y-58751530D02*
G01*
X91325000Y-58756182D01*
X91360329Y-58751530D01*
X91368428Y-58751000D01*
X91375500Y-58751000D01*
X91442539Y-58770685D01*
X91488294Y-58823489D01*
X91499500Y-58875000D01*
X91499500Y-59314494D01*
X91497732Y-59330505D01*
X91497974Y-59330528D01*
X91497240Y-59338294D01*
X91499500Y-59410203D01*
X91499499Y-62665954D01*
X91496071Y-62690048D01*
X91496585Y-62690130D01*
X91487766Y-62745808D01*
X91486581Y-62751531D01*
X91474500Y-62798579D01*
X91474500Y-62819805D01*
X91472973Y-62839205D01*
X91470744Y-62853280D01*
X91469653Y-62860166D01*
X91472473Y-62890000D01*
X91474225Y-62908529D01*
X91474500Y-62914367D01*
X91474499Y-63333733D01*
X91472733Y-63349744D01*
X91472974Y-63349767D01*
X91472240Y-63357533D01*
X91474500Y-63429442D01*
X91474500Y-63460159D01*
X91474501Y-63460179D01*
X91475418Y-63467445D01*
X91475876Y-63473263D01*
X91477402Y-63521806D01*
X91477403Y-63521809D01*
X91483323Y-63542187D01*
X91487268Y-63561235D01*
X91489928Y-63582294D01*
X91489931Y-63582303D01*
X91490791Y-63584475D01*
X91491665Y-63589057D01*
X91491870Y-63589855D01*
X91491819Y-63589867D01*
X91499500Y-63630125D01*
X91499500Y-64367070D01*
X91479815Y-64434109D01*
X91441474Y-64472062D01*
X91412922Y-64490002D01*
X91412915Y-64490008D01*
X91285364Y-64617559D01*
X91189391Y-64770298D01*
X91129811Y-64940567D01*
X91129810Y-64940572D01*
X91109615Y-65119818D01*
X91109615Y-65119825D01*
X91129810Y-65299071D01*
X91129811Y-65299076D01*
X91189391Y-65469345D01*
X91192846Y-65474843D01*
X91211846Y-65542079D01*
X91191478Y-65608915D01*
X91138211Y-65654129D01*
X91073969Y-65664035D01*
X90900004Y-65644435D01*
X90899996Y-65644435D01*
X90720750Y-65664630D01*
X90720745Y-65664631D01*
X90550476Y-65724211D01*
X90397737Y-65820184D01*
X90270184Y-65947737D01*
X90174210Y-66100478D01*
X90151120Y-66166467D01*
X90133628Y-66216456D01*
X90092909Y-66273230D01*
X90027956Y-66298978D01*
X90016588Y-66299500D01*
X88024500Y-66299500D01*
X87957461Y-66279815D01*
X87911706Y-66227011D01*
X87900500Y-66175500D01*
X87900500Y-63625095D01*
X87920185Y-63558056D01*
X87936814Y-63537419D01*
X88593922Y-62880311D01*
X88599999Y-62874983D01*
X88628282Y-62853282D01*
X88724536Y-62727841D01*
X88785044Y-62581762D01*
X88789974Y-62544318D01*
X88792190Y-62527483D01*
X88805682Y-62425001D01*
X88805682Y-62424999D01*
X88801031Y-62389673D01*
X88800500Y-62381571D01*
X88800500Y-59300096D01*
X88820185Y-59233057D01*
X88836814Y-59212420D01*
X89261916Y-58787319D01*
X89323239Y-58753834D01*
X89349597Y-58751000D01*
X91281572Y-58751000D01*
X91289670Y-58751530D01*
G37*
%TD.AperFunction*%
%TA.AperFunction,Conductor*%
G36*
X95795759Y-53070185D02*
G01*
X95841514Y-53122989D01*
X95851458Y-53192147D01*
X95822433Y-53255703D01*
X95816401Y-53262181D01*
X93989648Y-55088933D01*
X93928325Y-55122418D01*
X93858633Y-55117434D01*
X93835999Y-55106248D01*
X93689520Y-55014209D01*
X93679395Y-55010666D01*
X93519252Y-54954629D01*
X93519247Y-54954628D01*
X93340002Y-54934433D01*
X93339994Y-54934433D01*
X93160748Y-54954628D01*
X93160740Y-54954630D01*
X93000597Y-55010666D01*
X92930818Y-55014227D01*
X92871962Y-54981305D01*
X91152838Y-53262181D01*
X91119353Y-53200858D01*
X91124337Y-53131166D01*
X91166209Y-53075233D01*
X91231673Y-53050816D01*
X91240519Y-53050500D01*
X95728720Y-53050500D01*
X95795759Y-53070185D01*
G37*
%TD.AperFunction*%
%TD*%
M02*
