%TF.GenerationSoftware,KiCad,Pcbnew,7.0.6*%
%TF.CreationDate,2023-08-11T19:51:35+07:00*%
%TF.ProjectId,Pico2040-Modular-Rev2-MP,5069636f-3230-4343-902d-4d6f64756c61,rev?*%
%TF.SameCoordinates,Original*%
%TF.FileFunction,Soldermask,Top*%
%TF.FilePolarity,Negative*%
%FSLAX46Y46*%
G04 Gerber Fmt 4.6, Leading zero omitted, Abs format (unit mm)*
G04 Created by KiCad (PCBNEW 7.0.6) date 2023-08-11 19:51:35*
%MOMM*%
%LPD*%
G01*
G04 APERTURE LIST*
G04 Aperture macros list*
%AMRoundRect*
0 Rectangle with rounded corners*
0 $1 Rounding radius*
0 $2 $3 $4 $5 $6 $7 $8 $9 X,Y pos of 4 corners*
0 Add a 4 corners polygon primitive as box body*
4,1,4,$2,$3,$4,$5,$6,$7,$8,$9,$2,$3,0*
0 Add four circle primitives for the rounded corners*
1,1,$1+$1,$2,$3*
1,1,$1+$1,$4,$5*
1,1,$1+$1,$6,$7*
1,1,$1+$1,$8,$9*
0 Add four rect primitives between the rounded corners*
20,1,$1+$1,$2,$3,$4,$5,0*
20,1,$1+$1,$4,$5,$6,$7,0*
20,1,$1+$1,$6,$7,$8,$9,0*
20,1,$1+$1,$8,$9,$2,$3,0*%
G04 Aperture macros list end*
%ADD10R,3.200000X1.600000*%
%ADD11O,1.700000X1.600000*%
%ADD12RoundRect,0.100000X-0.130000X-0.100000X0.130000X-0.100000X0.130000X0.100000X-0.130000X0.100000X0*%
%ADD13C,0.500000*%
%ADD14RoundRect,0.100000X0.100000X-0.130000X0.100000X0.130000X-0.100000X0.130000X-0.100000X-0.130000X0*%
%ADD15RoundRect,0.100000X-0.100000X0.130000X-0.100000X-0.130000X0.100000X-0.130000X0.100000X0.130000X0*%
%ADD16R,1.700000X1.700000*%
%ADD17O,1.700000X1.700000*%
%ADD18RoundRect,0.050000X-0.387500X-0.050000X0.387500X-0.050000X0.387500X0.050000X-0.387500X0.050000X0*%
%ADD19RoundRect,0.050000X-0.050000X-0.387500X0.050000X-0.387500X0.050000X0.387500X-0.050000X0.387500X0*%
%ADD20R,3.200000X3.200000*%
%ADD21R,0.750000X1.000000*%
%ADD22RoundRect,0.014000X0.161000X-0.231000X0.161000X0.231000X-0.161000X0.231000X-0.161000X-0.231000X0*%
%ADD23R,1.600000X0.200000*%
%ADD24R,0.400000X1.650000*%
%ADD25R,1.825000X0.700000*%
%ADD26R,2.000000X1.500000*%
%ADD27R,1.350000X2.000000*%
%ADD28O,1.350000X1.700000*%
%ADD29O,1.100000X1.500000*%
%ADD30R,1.430000X2.500000*%
%ADD31R,1.150000X1.000000*%
%ADD32RoundRect,0.150000X-0.150000X0.512500X-0.150000X-0.512500X0.150000X-0.512500X0.150000X0.512500X0*%
G04 APERTURE END LIST*
D10*
%TO.C,J3*%
X170510000Y-28300000D03*
D11*
X168900000Y-28300000D03*
D10*
X170510000Y-30840000D03*
D11*
X168900000Y-30840000D03*
D10*
X170510000Y-33380000D03*
D11*
X168900000Y-33380000D03*
D10*
X170510000Y-35920000D03*
D11*
X168900000Y-35920000D03*
D10*
X170510000Y-38460000D03*
D11*
X168900000Y-38460000D03*
D10*
X170510000Y-41000000D03*
D11*
X168900000Y-41000000D03*
D10*
X170510000Y-43540000D03*
D11*
X168900000Y-43540000D03*
D10*
X170510000Y-46080000D03*
D11*
X168900000Y-46080000D03*
D10*
X170510000Y-48620000D03*
D11*
X168900000Y-48620000D03*
D10*
X170510000Y-51160000D03*
D11*
X168900000Y-51160000D03*
D10*
X170510000Y-53700000D03*
D11*
X168900000Y-53700000D03*
D10*
X170510000Y-56240000D03*
D11*
X168900000Y-56240000D03*
D10*
X170510000Y-58780000D03*
D11*
X168900000Y-58780000D03*
D10*
X170510000Y-61320000D03*
D11*
X168900000Y-61320000D03*
D10*
X170510000Y-63860000D03*
D11*
X168900000Y-63860000D03*
D10*
X170510000Y-66400000D03*
D11*
X168900000Y-66400000D03*
D10*
X170510000Y-68940000D03*
D11*
X168900000Y-68940000D03*
D10*
X170510000Y-71480000D03*
D11*
X168900000Y-71480000D03*
D10*
X170510000Y-74020000D03*
D11*
X168900000Y-74020000D03*
D10*
X170510000Y-76560000D03*
D11*
X168900000Y-76560000D03*
%TD*%
D10*
%TO.C,J3*%
X193510000Y-28300000D03*
D11*
X191900000Y-28300000D03*
D10*
X193510000Y-30840000D03*
D11*
X191900000Y-30840000D03*
D10*
X193510000Y-33380000D03*
D11*
X191900000Y-33380000D03*
D10*
X193510000Y-35920000D03*
D11*
X191900000Y-35920000D03*
D10*
X193510000Y-38460000D03*
D11*
X191900000Y-38460000D03*
D10*
X193510000Y-41000000D03*
D11*
X191900000Y-41000000D03*
D10*
X193510000Y-43540000D03*
D11*
X191900000Y-43540000D03*
D10*
X193510000Y-46080000D03*
D11*
X191900000Y-46080000D03*
D10*
X193510000Y-48620000D03*
D11*
X191900000Y-48620000D03*
D10*
X193510000Y-51160000D03*
D11*
X191900000Y-51160000D03*
D10*
X193510000Y-53700000D03*
D11*
X191900000Y-53700000D03*
D10*
X193510000Y-56240000D03*
D11*
X191900000Y-56240000D03*
D10*
X193510000Y-58780000D03*
D11*
X191900000Y-58780000D03*
D10*
X193510000Y-61320000D03*
D11*
X191900000Y-61320000D03*
D10*
X193510000Y-63860000D03*
D11*
X191900000Y-63860000D03*
D10*
X193510000Y-66400000D03*
D11*
X191900000Y-66400000D03*
D10*
X193510000Y-68940000D03*
D11*
X191900000Y-68940000D03*
D10*
X193510000Y-71480000D03*
D11*
X191900000Y-71480000D03*
D10*
X193510000Y-74020000D03*
D11*
X191900000Y-74020000D03*
D10*
X193510000Y-76560000D03*
D11*
X191900000Y-76560000D03*
%TD*%
D10*
%TO.C,J3*%
X147510000Y-28300000D03*
D11*
X145900000Y-28300000D03*
D10*
X147510000Y-30840000D03*
D11*
X145900000Y-30840000D03*
D10*
X147510000Y-33380000D03*
D11*
X145900000Y-33380000D03*
D10*
X147510000Y-35920000D03*
D11*
X145900000Y-35920000D03*
D10*
X147510000Y-38460000D03*
D11*
X145900000Y-38460000D03*
D10*
X147510000Y-41000000D03*
D11*
X145900000Y-41000000D03*
D10*
X147510000Y-43540000D03*
D11*
X145900000Y-43540000D03*
D10*
X147510000Y-46080000D03*
D11*
X145900000Y-46080000D03*
D10*
X147510000Y-48620000D03*
D11*
X145900000Y-48620000D03*
D10*
X147510000Y-51160000D03*
D11*
X145900000Y-51160000D03*
D10*
X147510000Y-53700000D03*
D11*
X145900000Y-53700000D03*
D10*
X147510000Y-56240000D03*
D11*
X145900000Y-56240000D03*
D10*
X147510000Y-58780000D03*
D11*
X145900000Y-58780000D03*
D10*
X147510000Y-61320000D03*
D11*
X145900000Y-61320000D03*
D10*
X147510000Y-63860000D03*
D11*
X145900000Y-63860000D03*
D10*
X147510000Y-66400000D03*
D11*
X145900000Y-66400000D03*
D10*
X147510000Y-68940000D03*
D11*
X145900000Y-68940000D03*
D10*
X147510000Y-71480000D03*
D11*
X145900000Y-71480000D03*
D10*
X147510000Y-74020000D03*
D11*
X145900000Y-74020000D03*
D10*
X147510000Y-76560000D03*
D11*
X145900000Y-76560000D03*
%TD*%
D10*
%TO.C,J3*%
X124510000Y-28300000D03*
D11*
X122900000Y-28300000D03*
D10*
X124510000Y-30840000D03*
D11*
X122900000Y-30840000D03*
D10*
X124510000Y-33380000D03*
D11*
X122900000Y-33380000D03*
D10*
X124510000Y-35920000D03*
D11*
X122900000Y-35920000D03*
D10*
X124510000Y-38460000D03*
D11*
X122900000Y-38460000D03*
D10*
X124510000Y-41000000D03*
D11*
X122900000Y-41000000D03*
D10*
X124510000Y-43540000D03*
D11*
X122900000Y-43540000D03*
D10*
X124510000Y-46080000D03*
D11*
X122900000Y-46080000D03*
D10*
X124510000Y-48620000D03*
D11*
X122900000Y-48620000D03*
D10*
X124510000Y-51160000D03*
D11*
X122900000Y-51160000D03*
D10*
X124510000Y-53700000D03*
D11*
X122900000Y-53700000D03*
D10*
X124510000Y-56240000D03*
D11*
X122900000Y-56240000D03*
D10*
X124510000Y-58780000D03*
D11*
X122900000Y-58780000D03*
D10*
X124510000Y-61320000D03*
D11*
X122900000Y-61320000D03*
D10*
X124510000Y-63860000D03*
D11*
X122900000Y-63860000D03*
D10*
X124510000Y-66400000D03*
D11*
X122900000Y-66400000D03*
D10*
X124510000Y-68940000D03*
D11*
X122900000Y-68940000D03*
D10*
X124510000Y-71480000D03*
D11*
X122900000Y-71480000D03*
D10*
X124510000Y-74020000D03*
D11*
X122900000Y-74020000D03*
D10*
X124510000Y-76560000D03*
D11*
X122900000Y-76560000D03*
%TD*%
D12*
%TO.C,C8*%
X142210000Y-40750000D03*
X142850000Y-40750000D03*
%TD*%
D13*
%TO.C,REF\u002A\u002A*%
X183000000Y-27000000D03*
%TD*%
%TO.C,REF\u002A\u002A*%
X147500000Y-48900000D03*
%TD*%
D14*
%TO.C,C4*%
X132150000Y-43665000D03*
X132150000Y-43025000D03*
%TD*%
D12*
%TO.C,C8*%
X165210000Y-40750000D03*
X165850000Y-40750000D03*
%TD*%
%TO.C,C8*%
X119210000Y-40750000D03*
X119850000Y-40750000D03*
%TD*%
D15*
%TO.C,R6*%
X108950000Y-41230000D03*
X108950000Y-41870000D03*
%TD*%
D16*
%TO.C,J4*%
X180825000Y-76125000D03*
D17*
X183365000Y-76125000D03*
X185905000Y-76125000D03*
%TD*%
D12*
%TO.C,R3*%
X186940000Y-39150000D03*
X187580000Y-39150000D03*
%TD*%
D13*
%TO.C,REF\u002A\u002A*%
X158500000Y-27000000D03*
%TD*%
D10*
%TO.C,J2*%
X126490000Y-28300000D03*
D11*
X128100000Y-28300000D03*
D10*
X126490000Y-30840000D03*
D11*
X128100000Y-30840000D03*
D10*
X126490000Y-33380000D03*
D11*
X128100000Y-33380000D03*
D10*
X126490000Y-35920000D03*
D11*
X128100000Y-35920000D03*
D10*
X126490000Y-38460000D03*
D11*
X128100000Y-38460000D03*
D10*
X126490000Y-41000000D03*
D11*
X128100000Y-41000000D03*
D10*
X126490000Y-43540000D03*
D11*
X128100000Y-43540000D03*
D10*
X126490000Y-46080000D03*
D11*
X128100000Y-46080000D03*
D10*
X126490000Y-48620000D03*
D11*
X128100000Y-48620000D03*
D10*
X126490000Y-51160000D03*
D11*
X128100000Y-51160000D03*
D10*
X126490000Y-53700000D03*
D11*
X128100000Y-53700000D03*
D10*
X126490000Y-56240000D03*
D11*
X128100000Y-56240000D03*
D10*
X126490000Y-58780000D03*
D11*
X128100000Y-58780000D03*
D10*
X126490000Y-61320000D03*
D11*
X128100000Y-61320000D03*
D10*
X126490000Y-63860000D03*
D11*
X128100000Y-63860000D03*
D10*
X126490000Y-66400000D03*
D11*
X128100000Y-66400000D03*
D10*
X126490000Y-68940000D03*
D11*
X128100000Y-68940000D03*
D10*
X126490000Y-71480000D03*
D11*
X128100000Y-71480000D03*
D10*
X126490000Y-74020000D03*
D11*
X128100000Y-74020000D03*
D10*
X126490000Y-76560000D03*
D11*
X128100000Y-76560000D03*
%TD*%
D13*
%TO.C,REF\u002A\u002A*%
X126500000Y-48900000D03*
%TD*%
%TO.C,REF\u002A\u002A*%
X172500000Y-59100000D03*
%TD*%
%TO.C,REF\u002A\u002A*%
X149500000Y-48900000D03*
%TD*%
D18*
%TO.C,U1*%
X110325000Y-45100000D03*
X110325000Y-45500000D03*
X110325000Y-45900000D03*
X110325000Y-46300000D03*
X110325000Y-46700000D03*
X110325000Y-47100000D03*
X110325000Y-47500000D03*
X110325000Y-47900000D03*
X110325000Y-48300000D03*
X110325000Y-48700000D03*
X110325000Y-49100000D03*
X110325000Y-49500000D03*
X110325000Y-49900000D03*
X110325000Y-50300000D03*
D19*
X111162500Y-51137500D03*
X111562500Y-51137500D03*
X111962500Y-51137500D03*
X112362500Y-51137500D03*
X112762500Y-51137500D03*
X113162500Y-51137500D03*
X113562500Y-51137500D03*
X113962500Y-51137500D03*
X114362500Y-51137500D03*
X114762500Y-51137500D03*
X115162500Y-51137500D03*
X115562500Y-51137500D03*
X115962500Y-51137500D03*
X116362500Y-51137500D03*
D18*
X117200000Y-50300000D03*
X117200000Y-49900000D03*
X117200000Y-49500000D03*
X117200000Y-49100000D03*
X117200000Y-48700000D03*
X117200000Y-48300000D03*
X117200000Y-47900000D03*
X117200000Y-47500000D03*
X117200000Y-47100000D03*
X117200000Y-46700000D03*
X117200000Y-46300000D03*
X117200000Y-45900000D03*
X117200000Y-45500000D03*
X117200000Y-45100000D03*
D19*
X116362500Y-44262500D03*
X115962500Y-44262500D03*
X115562500Y-44262500D03*
X115162500Y-44262500D03*
X114762500Y-44262500D03*
X114362500Y-44262500D03*
X113962500Y-44262500D03*
X113562500Y-44262500D03*
X113162500Y-44262500D03*
X112762500Y-44262500D03*
X112362500Y-44262500D03*
X111962500Y-44262500D03*
X111562500Y-44262500D03*
X111162500Y-44262500D03*
D20*
X113762500Y-47700000D03*
%TD*%
D13*
%TO.C,REF\u002A\u002A*%
X172500000Y-48900000D03*
%TD*%
D21*
%TO.C,S1*%
X181150000Y-38000000D03*
X181150000Y-33500000D03*
X179000000Y-38000000D03*
X179000000Y-33500000D03*
%TD*%
D13*
%TO.C,REF\u002A\u002A*%
X149500000Y-59100000D03*
%TD*%
D15*
%TO.C,C14*%
X162450000Y-55430000D03*
X162450000Y-56070000D03*
%TD*%
D14*
%TO.C,C1*%
X136900000Y-42240000D03*
X136900000Y-41600000D03*
%TD*%
D13*
%TO.C,REF\u002A\u002A*%
X147500000Y-45900000D03*
%TD*%
D12*
%TO.C,C6*%
X117560000Y-41600000D03*
X118200000Y-41600000D03*
%TD*%
D13*
%TO.C,REF\u002A\u002A*%
X135500000Y-27000000D03*
%TD*%
%TO.C,REF\u002A\u002A*%
X126500000Y-69300000D03*
%TD*%
%TO.C,REF\u002A\u002A*%
X126500000Y-45900000D03*
%TD*%
%TO.C,REF\u002A\u002A*%
X170500000Y-45900000D03*
%TD*%
D14*
%TO.C,C15*%
X111600000Y-56665000D03*
X111600000Y-56025000D03*
%TD*%
D18*
%TO.C,U1*%
X179325000Y-45100000D03*
X179325000Y-45500000D03*
X179325000Y-45900000D03*
X179325000Y-46300000D03*
X179325000Y-46700000D03*
X179325000Y-47100000D03*
X179325000Y-47500000D03*
X179325000Y-47900000D03*
X179325000Y-48300000D03*
X179325000Y-48700000D03*
X179325000Y-49100000D03*
X179325000Y-49500000D03*
X179325000Y-49900000D03*
X179325000Y-50300000D03*
D19*
X180162500Y-51137500D03*
X180562500Y-51137500D03*
X180962500Y-51137500D03*
X181362500Y-51137500D03*
X181762500Y-51137500D03*
X182162500Y-51137500D03*
X182562500Y-51137500D03*
X182962500Y-51137500D03*
X183362500Y-51137500D03*
X183762500Y-51137500D03*
X184162500Y-51137500D03*
X184562500Y-51137500D03*
X184962500Y-51137500D03*
X185362500Y-51137500D03*
D18*
X186200000Y-50300000D03*
X186200000Y-49900000D03*
X186200000Y-49500000D03*
X186200000Y-49100000D03*
X186200000Y-48700000D03*
X186200000Y-48300000D03*
X186200000Y-47900000D03*
X186200000Y-47500000D03*
X186200000Y-47100000D03*
X186200000Y-46700000D03*
X186200000Y-46300000D03*
X186200000Y-45900000D03*
X186200000Y-45500000D03*
X186200000Y-45100000D03*
D19*
X185362500Y-44262500D03*
X184962500Y-44262500D03*
X184562500Y-44262500D03*
X184162500Y-44262500D03*
X183762500Y-44262500D03*
X183362500Y-44262500D03*
X182962500Y-44262500D03*
X182562500Y-44262500D03*
X182162500Y-44262500D03*
X181762500Y-44262500D03*
X181362500Y-44262500D03*
X180962500Y-44262500D03*
X180562500Y-44262500D03*
X180162500Y-44262500D03*
D20*
X182762500Y-47700000D03*
%TD*%
D13*
%TO.C,REF\u002A\u002A*%
X172500000Y-38700000D03*
%TD*%
%TO.C,REF\u002A\u002A*%
X126500000Y-56100000D03*
%TD*%
D15*
%TO.C,R6*%
X131950000Y-41230000D03*
X131950000Y-41870000D03*
%TD*%
%TO.C,D1*%
X164975000Y-28747500D03*
X164975000Y-29387500D03*
%TD*%
%TO.C,R2*%
X162025000Y-41635000D03*
X162025000Y-42275000D03*
%TD*%
D13*
%TO.C,REF\u002A\u002A*%
X172500000Y-45900000D03*
%TD*%
%TO.C,REF\u002A\u002A*%
X161500000Y-78000000D03*
%TD*%
D12*
%TO.C,C6*%
X140560000Y-41600000D03*
X141200000Y-41600000D03*
%TD*%
D22*
%TO.C,U3*%
X110100000Y-42450000D03*
X110600000Y-42450000D03*
X111100000Y-42450000D03*
X111600000Y-42450000D03*
X111600000Y-40010000D03*
X111100000Y-40010000D03*
X110600000Y-40010000D03*
X110100000Y-40010000D03*
D23*
X110850000Y-41230000D03*
%TD*%
D13*
%TO.C,REF\u002A\u002A*%
X160000000Y-27000000D03*
%TD*%
D15*
%TO.C,R5*%
X177550000Y-35780000D03*
X177550000Y-36420000D03*
%TD*%
%TO.C,D2*%
X177525000Y-29422500D03*
X177525000Y-30062500D03*
%TD*%
%TO.C,C14*%
X116450000Y-55430000D03*
X116450000Y-56070000D03*
%TD*%
D12*
%TO.C,C10*%
X188210000Y-42450000D03*
X188850000Y-42450000D03*
%TD*%
D13*
%TO.C,REF\u002A\u002A*%
X126500000Y-59100000D03*
%TD*%
D22*
%TO.C,U3*%
X179100000Y-42450000D03*
X179600000Y-42450000D03*
X180100000Y-42450000D03*
X180600000Y-42450000D03*
X180600000Y-40010000D03*
X180100000Y-40010000D03*
X179600000Y-40010000D03*
X179100000Y-40010000D03*
D23*
X179850000Y-41230000D03*
%TD*%
D15*
%TO.C,C14*%
X185450000Y-55430000D03*
X185450000Y-56070000D03*
%TD*%
D22*
%TO.C,U3*%
X133100000Y-42450000D03*
X133600000Y-42450000D03*
X134100000Y-42450000D03*
X134600000Y-42450000D03*
X134600000Y-40010000D03*
X134100000Y-40010000D03*
X133600000Y-40010000D03*
X133100000Y-40010000D03*
D23*
X133850000Y-41230000D03*
%TD*%
D12*
%TO.C,C8*%
X188210000Y-40750000D03*
X188850000Y-40750000D03*
%TD*%
D13*
%TO.C,REF\u002A\u002A*%
X114000000Y-78000000D03*
%TD*%
%TO.C,REF\u002A\u002A*%
X124500000Y-35700000D03*
%TD*%
%TO.C,REF\u002A\u002A*%
X158500000Y-78000000D03*
%TD*%
D12*
%TO.C,C5*%
X163560000Y-40775000D03*
X164200000Y-40775000D03*
%TD*%
D13*
%TO.C,REF\u002A\u002A*%
X170500000Y-59100000D03*
%TD*%
D24*
%TO.C,J1*%
X138230000Y-31580000D03*
X137580000Y-31580000D03*
X136930000Y-31580000D03*
X136280000Y-31580000D03*
X135630000Y-31580000D03*
D25*
X139880000Y-30380000D03*
D26*
X139780000Y-31680000D03*
D27*
X139660000Y-29630000D03*
D28*
X139660000Y-28700000D03*
D29*
X139350000Y-31700000D03*
D30*
X137890000Y-28430000D03*
X135970000Y-28430000D03*
D29*
X134510000Y-31700000D03*
D28*
X134200000Y-28700000D03*
D27*
X134180000Y-29630000D03*
D26*
X134030000Y-31700000D03*
D25*
X133930000Y-30380000D03*
%TD*%
D13*
%TO.C,REF\u002A\u002A*%
X161500000Y-27000000D03*
%TD*%
D14*
%TO.C,C1*%
X159900000Y-42240000D03*
X159900000Y-41600000D03*
%TD*%
D31*
%TO.C,Y1*%
X159100000Y-56400000D03*
X160850000Y-56400000D03*
X160850000Y-55000000D03*
X159100000Y-55000000D03*
%TD*%
D13*
%TO.C,REF\u002A\u002A*%
X181500000Y-27000000D03*
%TD*%
D14*
%TO.C,C12*%
X187875000Y-32050000D03*
X187875000Y-31410000D03*
%TD*%
D12*
%TO.C,C10*%
X142210000Y-42450000D03*
X142850000Y-42450000D03*
%TD*%
D21*
%TO.C,S1*%
X158150000Y-38000000D03*
X158150000Y-33500000D03*
X156000000Y-38000000D03*
X156000000Y-33500000D03*
%TD*%
D16*
%TO.C,J4*%
X134825000Y-76125000D03*
D17*
X137365000Y-76125000D03*
X139905000Y-76125000D03*
%TD*%
D13*
%TO.C,REF\u002A\u002A*%
X147500000Y-38700000D03*
%TD*%
D14*
%TO.C,R4*%
X116700000Y-38625000D03*
X116700000Y-37985000D03*
%TD*%
D10*
%TO.C,J2*%
X103490000Y-28300000D03*
D11*
X105100000Y-28300000D03*
D10*
X103490000Y-30840000D03*
D11*
X105100000Y-30840000D03*
D10*
X103490000Y-33380000D03*
D11*
X105100000Y-33380000D03*
D10*
X103490000Y-35920000D03*
D11*
X105100000Y-35920000D03*
D10*
X103490000Y-38460000D03*
D11*
X105100000Y-38460000D03*
D10*
X103490000Y-41000000D03*
D11*
X105100000Y-41000000D03*
D10*
X103490000Y-43540000D03*
D11*
X105100000Y-43540000D03*
D10*
X103490000Y-46080000D03*
D11*
X105100000Y-46080000D03*
D10*
X103490000Y-48620000D03*
D11*
X105100000Y-48620000D03*
D10*
X103490000Y-51160000D03*
D11*
X105100000Y-51160000D03*
D10*
X103490000Y-53700000D03*
D11*
X105100000Y-53700000D03*
D10*
X103490000Y-56240000D03*
D11*
X105100000Y-56240000D03*
D10*
X103490000Y-58780000D03*
D11*
X105100000Y-58780000D03*
D10*
X103490000Y-61320000D03*
D11*
X105100000Y-61320000D03*
D10*
X103490000Y-63860000D03*
D11*
X105100000Y-63860000D03*
D10*
X103490000Y-66400000D03*
D11*
X105100000Y-66400000D03*
D10*
X103490000Y-68940000D03*
D11*
X105100000Y-68940000D03*
D10*
X103490000Y-71480000D03*
D11*
X105100000Y-71480000D03*
D10*
X103490000Y-74020000D03*
D11*
X105100000Y-74020000D03*
D10*
X103490000Y-76560000D03*
D11*
X105100000Y-76560000D03*
%TD*%
D13*
%TO.C,REF\u002A\u002A*%
X170500000Y-38700000D03*
%TD*%
D24*
%TO.C,J1*%
X161230000Y-31580000D03*
X160580000Y-31580000D03*
X159930000Y-31580000D03*
X159280000Y-31580000D03*
X158630000Y-31580000D03*
D25*
X162880000Y-30380000D03*
D26*
X162780000Y-31680000D03*
D27*
X162660000Y-29630000D03*
D28*
X162660000Y-28700000D03*
D29*
X162350000Y-31700000D03*
D30*
X160890000Y-28430000D03*
X158970000Y-28430000D03*
D29*
X157510000Y-31700000D03*
D28*
X157200000Y-28700000D03*
D27*
X157180000Y-29630000D03*
D26*
X157030000Y-31700000D03*
D25*
X156930000Y-30380000D03*
%TD*%
D24*
%TO.C,J1*%
X115230000Y-31580000D03*
X114580000Y-31580000D03*
X113930000Y-31580000D03*
X113280000Y-31580000D03*
X112630000Y-31580000D03*
D25*
X116880000Y-30380000D03*
D26*
X116780000Y-31680000D03*
D27*
X116660000Y-29630000D03*
D28*
X116660000Y-28700000D03*
D29*
X116350000Y-31700000D03*
D30*
X114890000Y-28430000D03*
X112970000Y-28430000D03*
D29*
X111510000Y-31700000D03*
D28*
X111200000Y-28700000D03*
D27*
X111180000Y-29630000D03*
D26*
X111030000Y-31700000D03*
D25*
X110930000Y-30380000D03*
%TD*%
D15*
%TO.C,R6*%
X154950000Y-41230000D03*
X154950000Y-41870000D03*
%TD*%
D13*
%TO.C,REF\u002A\u002A*%
X172500000Y-56100000D03*
%TD*%
D14*
%TO.C,C1*%
X182900000Y-42240000D03*
X182900000Y-41600000D03*
%TD*%
D12*
%TO.C,C9*%
X142210000Y-41600000D03*
X142850000Y-41600000D03*
%TD*%
D10*
%TO.C,J2*%
X172490000Y-28300000D03*
D11*
X174100000Y-28300000D03*
D10*
X172490000Y-30840000D03*
D11*
X174100000Y-30840000D03*
D10*
X172490000Y-33380000D03*
D11*
X174100000Y-33380000D03*
D10*
X172490000Y-35920000D03*
D11*
X174100000Y-35920000D03*
D10*
X172490000Y-38460000D03*
D11*
X174100000Y-38460000D03*
D10*
X172490000Y-41000000D03*
D11*
X174100000Y-41000000D03*
D10*
X172490000Y-43540000D03*
D11*
X174100000Y-43540000D03*
D10*
X172490000Y-46080000D03*
D11*
X174100000Y-46080000D03*
D10*
X172490000Y-48620000D03*
D11*
X174100000Y-48620000D03*
D10*
X172490000Y-51160000D03*
D11*
X174100000Y-51160000D03*
D10*
X172490000Y-53700000D03*
D11*
X174100000Y-53700000D03*
D10*
X172490000Y-56240000D03*
D11*
X174100000Y-56240000D03*
D10*
X172490000Y-58780000D03*
D11*
X174100000Y-58780000D03*
D10*
X172490000Y-61320000D03*
D11*
X174100000Y-61320000D03*
D10*
X172490000Y-63860000D03*
D11*
X174100000Y-63860000D03*
D10*
X172490000Y-66400000D03*
D11*
X174100000Y-66400000D03*
D10*
X172490000Y-68940000D03*
D11*
X174100000Y-68940000D03*
D10*
X172490000Y-71480000D03*
D11*
X174100000Y-71480000D03*
D10*
X172490000Y-74020000D03*
D11*
X174100000Y-74020000D03*
D10*
X172490000Y-76560000D03*
D11*
X174100000Y-76560000D03*
%TD*%
D31*
%TO.C,Y1*%
X182100000Y-56400000D03*
X183850000Y-56400000D03*
X183850000Y-55000000D03*
X182100000Y-55000000D03*
%TD*%
D15*
%TO.C,R1*%
X114975000Y-41630000D03*
X114975000Y-42270000D03*
%TD*%
D31*
%TO.C,Y1*%
X113100000Y-56400000D03*
X114850000Y-56400000D03*
X114850000Y-55000000D03*
X113100000Y-55000000D03*
%TD*%
D12*
%TO.C,C13*%
X165910000Y-39850000D03*
X166550000Y-39850000D03*
%TD*%
D13*
%TO.C,REF\u002A\u002A*%
X149500000Y-66300000D03*
%TD*%
D15*
%TO.C,R5*%
X131550000Y-35780000D03*
X131550000Y-36420000D03*
%TD*%
D13*
%TO.C,REF\u002A\u002A*%
X147500000Y-56100000D03*
%TD*%
D12*
%TO.C,C6*%
X163560000Y-41600000D03*
X164200000Y-41600000D03*
%TD*%
D18*
%TO.C,U1*%
X156325000Y-45100000D03*
X156325000Y-45500000D03*
X156325000Y-45900000D03*
X156325000Y-46300000D03*
X156325000Y-46700000D03*
X156325000Y-47100000D03*
X156325000Y-47500000D03*
X156325000Y-47900000D03*
X156325000Y-48300000D03*
X156325000Y-48700000D03*
X156325000Y-49100000D03*
X156325000Y-49500000D03*
X156325000Y-49900000D03*
X156325000Y-50300000D03*
D19*
X157162500Y-51137500D03*
X157562500Y-51137500D03*
X157962500Y-51137500D03*
X158362500Y-51137500D03*
X158762500Y-51137500D03*
X159162500Y-51137500D03*
X159562500Y-51137500D03*
X159962500Y-51137500D03*
X160362500Y-51137500D03*
X160762500Y-51137500D03*
X161162500Y-51137500D03*
X161562500Y-51137500D03*
X161962500Y-51137500D03*
X162362500Y-51137500D03*
D18*
X163200000Y-50300000D03*
X163200000Y-49900000D03*
X163200000Y-49500000D03*
X163200000Y-49100000D03*
X163200000Y-48700000D03*
X163200000Y-48300000D03*
X163200000Y-47900000D03*
X163200000Y-47500000D03*
X163200000Y-47100000D03*
X163200000Y-46700000D03*
X163200000Y-46300000D03*
X163200000Y-45900000D03*
X163200000Y-45500000D03*
X163200000Y-45100000D03*
D19*
X162362500Y-44262500D03*
X161962500Y-44262500D03*
X161562500Y-44262500D03*
X161162500Y-44262500D03*
X160762500Y-44262500D03*
X160362500Y-44262500D03*
X159962500Y-44262500D03*
X159562500Y-44262500D03*
X159162500Y-44262500D03*
X158762500Y-44262500D03*
X158362500Y-44262500D03*
X157962500Y-44262500D03*
X157562500Y-44262500D03*
X157162500Y-44262500D03*
D20*
X159762500Y-47700000D03*
%TD*%
D14*
%TO.C,C15*%
X180600000Y-56665000D03*
X180600000Y-56025000D03*
%TD*%
D15*
%TO.C,C14*%
X139450000Y-55430000D03*
X139450000Y-56070000D03*
%TD*%
D14*
%TO.C,C12*%
X164875000Y-32050000D03*
X164875000Y-31410000D03*
%TD*%
D15*
%TO.C,R2*%
X116025000Y-41635000D03*
X116025000Y-42275000D03*
%TD*%
D13*
%TO.C,REF\u002A\u002A*%
X170500000Y-66300000D03*
%TD*%
%TO.C,REF\u002A\u002A*%
X147500000Y-69300000D03*
%TD*%
D15*
%TO.C,D2*%
X131525000Y-29422500D03*
X131525000Y-30062500D03*
%TD*%
D13*
%TO.C,REF\u002A\u002A*%
X115500000Y-78000000D03*
%TD*%
%TO.C,REF\u002A\u002A*%
X181500000Y-78000000D03*
%TD*%
%TO.C,REF\u002A\u002A*%
X149500000Y-38700000D03*
%TD*%
D12*
%TO.C,C6*%
X186560000Y-41600000D03*
X187200000Y-41600000D03*
%TD*%
%TO.C,C9*%
X165210000Y-41600000D03*
X165850000Y-41600000D03*
%TD*%
%TO.C,R3*%
X117940000Y-39150000D03*
X118580000Y-39150000D03*
%TD*%
D14*
%TO.C,C12*%
X118875000Y-32050000D03*
X118875000Y-31410000D03*
%TD*%
D13*
%TO.C,REF\u002A\u002A*%
X149500000Y-45900000D03*
%TD*%
%TO.C,REF\u002A\u002A*%
X170500000Y-56100000D03*
%TD*%
D14*
%TO.C,C15*%
X134600000Y-56665000D03*
X134600000Y-56025000D03*
%TD*%
D13*
%TO.C,REF\u002A\u002A*%
X147500000Y-59100000D03*
%TD*%
%TO.C,REF\u002A\u002A*%
X124500000Y-38700000D03*
%TD*%
D12*
%TO.C,C13*%
X119910000Y-39850000D03*
X120550000Y-39850000D03*
%TD*%
%TO.C,C13*%
X188910000Y-39850000D03*
X189550000Y-39850000D03*
%TD*%
D13*
%TO.C,REF\u002A\u002A*%
X126500000Y-66300000D03*
%TD*%
D12*
%TO.C,R3*%
X163940000Y-39150000D03*
X164580000Y-39150000D03*
%TD*%
D13*
%TO.C,REF\u002A\u002A*%
X149500000Y-56100000D03*
%TD*%
%TO.C,REF\u002A\u002A*%
X138500000Y-27000000D03*
%TD*%
%TO.C,REF\u002A\u002A*%
X112500000Y-27000000D03*
%TD*%
D15*
%TO.C,D2*%
X108525000Y-29422500D03*
X108525000Y-30062500D03*
%TD*%
D12*
%TO.C,C7*%
X186560000Y-42450000D03*
X187200000Y-42450000D03*
%TD*%
D13*
%TO.C,REF\u002A\u002A*%
X114000000Y-27000000D03*
%TD*%
%TO.C,REF\u002A\u002A*%
X137000000Y-78000000D03*
%TD*%
D32*
%TO.C,U2*%
X188850000Y-35375000D03*
X187900000Y-35375000D03*
X186950000Y-35375000D03*
X186950000Y-37650000D03*
X188850000Y-37650000D03*
%TD*%
D15*
%TO.C,D1*%
X187975000Y-28747500D03*
X187975000Y-29387500D03*
%TD*%
D12*
%TO.C,C5*%
X140560000Y-40775000D03*
X141200000Y-40775000D03*
%TD*%
D13*
%TO.C,REF\u002A\u002A*%
X172500000Y-35700000D03*
%TD*%
D12*
%TO.C,C7*%
X163560000Y-42450000D03*
X164200000Y-42450000D03*
%TD*%
D14*
%TO.C,R4*%
X162700000Y-38625000D03*
X162700000Y-37985000D03*
%TD*%
D16*
%TO.C,J4*%
X111825000Y-76125000D03*
D17*
X114365000Y-76125000D03*
X116905000Y-76125000D03*
%TD*%
D12*
%TO.C,C11*%
X142215000Y-43300000D03*
X142855000Y-43300000D03*
%TD*%
D13*
%TO.C,REF\u002A\u002A*%
X126500000Y-38700000D03*
%TD*%
D15*
%TO.C,C2*%
X139200000Y-53475000D03*
X139200000Y-54115000D03*
%TD*%
D12*
%TO.C,C10*%
X119210000Y-42450000D03*
X119850000Y-42450000D03*
%TD*%
D14*
%TO.C,C4*%
X155150000Y-43665000D03*
X155150000Y-43025000D03*
%TD*%
D13*
%TO.C,REF\u002A\u002A*%
X170500000Y-48900000D03*
%TD*%
D15*
%TO.C,D1*%
X118975000Y-28747500D03*
X118975000Y-29387500D03*
%TD*%
D14*
%TO.C,C4*%
X178150000Y-43665000D03*
X178150000Y-43025000D03*
%TD*%
D13*
%TO.C,REF\u002A\u002A*%
X147500000Y-66300000D03*
%TD*%
D16*
%TO.C,J4*%
X157825000Y-76125000D03*
D17*
X160365000Y-76125000D03*
X162905000Y-76125000D03*
%TD*%
D15*
%TO.C,R2*%
X185025000Y-41635000D03*
X185025000Y-42275000D03*
%TD*%
D14*
%TO.C,C4*%
X109150000Y-43665000D03*
X109150000Y-43025000D03*
%TD*%
D13*
%TO.C,REF\u002A\u002A*%
X149500000Y-35700000D03*
%TD*%
%TO.C,REF\u002A\u002A*%
X137000000Y-27000000D03*
%TD*%
%TO.C,REF\u002A\u002A*%
X124500000Y-59100000D03*
%TD*%
%TO.C,REF\u002A\u002A*%
X183000000Y-78000000D03*
%TD*%
D12*
%TO.C,C9*%
X119210000Y-41600000D03*
X119850000Y-41600000D03*
%TD*%
D13*
%TO.C,REF\u002A\u002A*%
X124500000Y-69300000D03*
%TD*%
D14*
%TO.C,C12*%
X141875000Y-32050000D03*
X141875000Y-31410000D03*
%TD*%
%TO.C,C15*%
X157600000Y-56665000D03*
X157600000Y-56025000D03*
%TD*%
D13*
%TO.C,REF\u002A\u002A*%
X124500000Y-48900000D03*
%TD*%
D10*
%TO.C,J2*%
X149490000Y-28300000D03*
D11*
X151100000Y-28300000D03*
D10*
X149490000Y-30840000D03*
D11*
X151100000Y-30840000D03*
D10*
X149490000Y-33380000D03*
D11*
X151100000Y-33380000D03*
D10*
X149490000Y-35920000D03*
D11*
X151100000Y-35920000D03*
D10*
X149490000Y-38460000D03*
D11*
X151100000Y-38460000D03*
D10*
X149490000Y-41000000D03*
D11*
X151100000Y-41000000D03*
D10*
X149490000Y-43540000D03*
D11*
X151100000Y-43540000D03*
D10*
X149490000Y-46080000D03*
D11*
X151100000Y-46080000D03*
D10*
X149490000Y-48620000D03*
D11*
X151100000Y-48620000D03*
D10*
X149490000Y-51160000D03*
D11*
X151100000Y-51160000D03*
D10*
X149490000Y-53700000D03*
D11*
X151100000Y-53700000D03*
D10*
X149490000Y-56240000D03*
D11*
X151100000Y-56240000D03*
D10*
X149490000Y-58780000D03*
D11*
X151100000Y-58780000D03*
D10*
X149490000Y-61320000D03*
D11*
X151100000Y-61320000D03*
D10*
X149490000Y-63860000D03*
D11*
X151100000Y-63860000D03*
D10*
X149490000Y-66400000D03*
D11*
X151100000Y-66400000D03*
D10*
X149490000Y-68940000D03*
D11*
X151100000Y-68940000D03*
D10*
X149490000Y-71480000D03*
D11*
X151100000Y-71480000D03*
D10*
X149490000Y-74020000D03*
D11*
X151100000Y-74020000D03*
D10*
X149490000Y-76560000D03*
D11*
X151100000Y-76560000D03*
%TD*%
D12*
%TO.C,C11*%
X188215000Y-43300000D03*
X188855000Y-43300000D03*
%TD*%
D32*
%TO.C,U2*%
X165850000Y-35375000D03*
X164900000Y-35375000D03*
X163950000Y-35375000D03*
X163950000Y-37650000D03*
X165850000Y-37650000D03*
%TD*%
D15*
%TO.C,D1*%
X141975000Y-28747500D03*
X141975000Y-29387500D03*
%TD*%
D13*
%TO.C,REF\u002A\u002A*%
X170500000Y-35700000D03*
%TD*%
D15*
%TO.C,D2*%
X154525000Y-29422500D03*
X154525000Y-30062500D03*
%TD*%
%TO.C,R1*%
X160975000Y-41630000D03*
X160975000Y-42270000D03*
%TD*%
D14*
%TO.C,C1*%
X113900000Y-42240000D03*
X113900000Y-41600000D03*
%TD*%
D15*
%TO.C,R1*%
X137975000Y-41630000D03*
X137975000Y-42270000D03*
%TD*%
D13*
%TO.C,REF\u002A\u002A*%
X124500000Y-66300000D03*
%TD*%
D15*
%TO.C,R1*%
X183975000Y-41630000D03*
X183975000Y-42270000D03*
%TD*%
D12*
%TO.C,C7*%
X140560000Y-42450000D03*
X141200000Y-42450000D03*
%TD*%
D15*
%TO.C,C3*%
X186450000Y-54475000D03*
X186450000Y-55115000D03*
%TD*%
D21*
%TO.C,S1*%
X135150000Y-38000000D03*
X135150000Y-33500000D03*
X133000000Y-38000000D03*
X133000000Y-33500000D03*
%TD*%
D12*
%TO.C,C9*%
X188210000Y-41600000D03*
X188850000Y-41600000D03*
%TD*%
D14*
%TO.C,R4*%
X185700000Y-38625000D03*
X185700000Y-37985000D03*
%TD*%
D13*
%TO.C,REF\u002A\u002A*%
X172500000Y-66300000D03*
%TD*%
%TO.C,REF\u002A\u002A*%
X147500000Y-35700000D03*
%TD*%
D24*
%TO.C,J1*%
X184230000Y-31580000D03*
X183580000Y-31580000D03*
X182930000Y-31580000D03*
X182280000Y-31580000D03*
X181630000Y-31580000D03*
D25*
X185880000Y-30380000D03*
D26*
X185780000Y-31680000D03*
D27*
X185660000Y-29630000D03*
D28*
X185660000Y-28700000D03*
D29*
X185350000Y-31700000D03*
D30*
X183890000Y-28430000D03*
X181970000Y-28430000D03*
D29*
X180510000Y-31700000D03*
D28*
X180200000Y-28700000D03*
D27*
X180180000Y-29630000D03*
D26*
X180030000Y-31700000D03*
D25*
X179930000Y-30380000D03*
%TD*%
D13*
%TO.C,REF\u002A\u002A*%
X115500000Y-27000000D03*
%TD*%
%TO.C,REF\u002A\u002A*%
X138500000Y-78000000D03*
%TD*%
D12*
%TO.C,C5*%
X186560000Y-40775000D03*
X187200000Y-40775000D03*
%TD*%
D14*
%TO.C,R4*%
X139700000Y-38625000D03*
X139700000Y-37985000D03*
%TD*%
D12*
%TO.C,C5*%
X117560000Y-40775000D03*
X118200000Y-40775000D03*
%TD*%
D31*
%TO.C,Y1*%
X136100000Y-56400000D03*
X137850000Y-56400000D03*
X137850000Y-55000000D03*
X136100000Y-55000000D03*
%TD*%
D13*
%TO.C,REF\u002A\u002A*%
X149500000Y-69300000D03*
%TD*%
D32*
%TO.C,U2*%
X119850000Y-35375000D03*
X118900000Y-35375000D03*
X117950000Y-35375000D03*
X117950000Y-37650000D03*
X119850000Y-37650000D03*
%TD*%
D15*
%TO.C,R5*%
X154550000Y-35780000D03*
X154550000Y-36420000D03*
%TD*%
%TO.C,R2*%
X139025000Y-41635000D03*
X139025000Y-42275000D03*
%TD*%
D12*
%TO.C,C10*%
X165210000Y-42450000D03*
X165850000Y-42450000D03*
%TD*%
%TO.C,R3*%
X140940000Y-39150000D03*
X141580000Y-39150000D03*
%TD*%
D13*
%TO.C,REF\u002A\u002A*%
X124500000Y-45900000D03*
%TD*%
%TO.C,REF\u002A\u002A*%
X160000000Y-78000000D03*
%TD*%
D15*
%TO.C,R6*%
X177950000Y-41230000D03*
X177950000Y-41870000D03*
%TD*%
D12*
%TO.C,C11*%
X165215000Y-43300000D03*
X165855000Y-43300000D03*
%TD*%
%TO.C,C13*%
X142910000Y-39850000D03*
X143550000Y-39850000D03*
%TD*%
D13*
%TO.C,REF\u002A\u002A*%
X124500000Y-56100000D03*
%TD*%
%TO.C,REF\u002A\u002A*%
X170500000Y-69300000D03*
%TD*%
D15*
%TO.C,C2*%
X116200000Y-53475000D03*
X116200000Y-54115000D03*
%TD*%
%TO.C,C3*%
X117450000Y-54475000D03*
X117450000Y-55115000D03*
%TD*%
D13*
%TO.C,REF\u002A\u002A*%
X184500000Y-27000000D03*
%TD*%
D15*
%TO.C,R5*%
X108550000Y-35780000D03*
X108550000Y-36420000D03*
%TD*%
D18*
%TO.C,U1*%
X133325000Y-45100000D03*
X133325000Y-45500000D03*
X133325000Y-45900000D03*
X133325000Y-46300000D03*
X133325000Y-46700000D03*
X133325000Y-47100000D03*
X133325000Y-47500000D03*
X133325000Y-47900000D03*
X133325000Y-48300000D03*
X133325000Y-48700000D03*
X133325000Y-49100000D03*
X133325000Y-49500000D03*
X133325000Y-49900000D03*
X133325000Y-50300000D03*
D19*
X134162500Y-51137500D03*
X134562500Y-51137500D03*
X134962500Y-51137500D03*
X135362500Y-51137500D03*
X135762500Y-51137500D03*
X136162500Y-51137500D03*
X136562500Y-51137500D03*
X136962500Y-51137500D03*
X137362500Y-51137500D03*
X137762500Y-51137500D03*
X138162500Y-51137500D03*
X138562500Y-51137500D03*
X138962500Y-51137500D03*
X139362500Y-51137500D03*
D18*
X140200000Y-50300000D03*
X140200000Y-49900000D03*
X140200000Y-49500000D03*
X140200000Y-49100000D03*
X140200000Y-48700000D03*
X140200000Y-48300000D03*
X140200000Y-47900000D03*
X140200000Y-47500000D03*
X140200000Y-47100000D03*
X140200000Y-46700000D03*
X140200000Y-46300000D03*
X140200000Y-45900000D03*
X140200000Y-45500000D03*
X140200000Y-45100000D03*
D19*
X139362500Y-44262500D03*
X138962500Y-44262500D03*
X138562500Y-44262500D03*
X138162500Y-44262500D03*
X137762500Y-44262500D03*
X137362500Y-44262500D03*
X136962500Y-44262500D03*
X136562500Y-44262500D03*
X136162500Y-44262500D03*
X135762500Y-44262500D03*
X135362500Y-44262500D03*
X134962500Y-44262500D03*
X134562500Y-44262500D03*
X134162500Y-44262500D03*
D20*
X136762500Y-47700000D03*
%TD*%
D15*
%TO.C,C2*%
X162200000Y-53475000D03*
X162200000Y-54115000D03*
%TD*%
D13*
%TO.C,REF\u002A\u002A*%
X126500000Y-35700000D03*
%TD*%
%TO.C,REF\u002A\u002A*%
X135500000Y-78000000D03*
%TD*%
D21*
%TO.C,S1*%
X112150000Y-38000000D03*
X112150000Y-33500000D03*
X110000000Y-38000000D03*
X110000000Y-33500000D03*
%TD*%
D13*
%TO.C,REF\u002A\u002A*%
X112500000Y-78000000D03*
%TD*%
%TO.C,REF\u002A\u002A*%
X172500000Y-69300000D03*
%TD*%
D15*
%TO.C,C3*%
X163450000Y-54475000D03*
X163450000Y-55115000D03*
%TD*%
%TO.C,C3*%
X140450000Y-54475000D03*
X140450000Y-55115000D03*
%TD*%
D13*
%TO.C,REF\u002A\u002A*%
X184500000Y-78000000D03*
%TD*%
D32*
%TO.C,U2*%
X142850000Y-35375000D03*
X141900000Y-35375000D03*
X140950000Y-35375000D03*
X140950000Y-37650000D03*
X142850000Y-37650000D03*
%TD*%
D22*
%TO.C,U3*%
X156100000Y-42450000D03*
X156600000Y-42450000D03*
X157100000Y-42450000D03*
X157600000Y-42450000D03*
X157600000Y-40010000D03*
X157100000Y-40010000D03*
X156600000Y-40010000D03*
X156100000Y-40010000D03*
D23*
X156850000Y-41230000D03*
%TD*%
D15*
%TO.C,C2*%
X185200000Y-53475000D03*
X185200000Y-54115000D03*
%TD*%
D12*
%TO.C,C11*%
X119215000Y-43300000D03*
X119855000Y-43300000D03*
%TD*%
%TO.C,C7*%
X117560000Y-42450000D03*
X118200000Y-42450000D03*
%TD*%
M02*
