%TF.GenerationSoftware,KiCad,Pcbnew,7.0.7*%
%TF.CreationDate,2023-10-12T13:18:40+07:00*%
%TF.ProjectId,Pico2040-Modular-Rev3-W,5069636f-3230-4343-902d-4d6f64756c61,rev?*%
%TF.SameCoordinates,Original*%
%TF.FileFunction,Paste,Top*%
%TF.FilePolarity,Positive*%
%FSLAX46Y46*%
G04 Gerber Fmt 4.6, Leading zero omitted, Abs format (unit mm)*
G04 Created by KiCad (PCBNEW 7.0.7) date 2023-10-12 13:18:40*
%MOMM*%
%LPD*%
G01*
G04 APERTURE LIST*
G04 Aperture macros list*
%AMRoundRect*
0 Rectangle with rounded corners*
0 $1 Rounding radius*
0 $2 $3 $4 $5 $6 $7 $8 $9 X,Y pos of 4 corners*
0 Add a 4 corners polygon primitive as box body*
4,1,4,$2,$3,$4,$5,$6,$7,$8,$9,$2,$3,0*
0 Add four circle primitives for the rounded corners*
1,1,$1+$1,$2,$3*
1,1,$1+$1,$4,$5*
1,1,$1+$1,$6,$7*
1,1,$1+$1,$8,$9*
0 Add four rect primitives between the rounded corners*
20,1,$1+$1,$2,$3,$4,$5,0*
20,1,$1+$1,$4,$5,$6,$7,0*
20,1,$1+$1,$6,$7,$8,$9,0*
20,1,$1+$1,$8,$9,$2,$3,0*%
G04 Aperture macros list end*
%ADD10C,0.010000*%
%ADD11RoundRect,0.079500X0.100500X-0.079500X0.100500X0.079500X-0.100500X0.079500X-0.100500X-0.079500X0*%
%ADD12RoundRect,0.014000X0.161000X-0.231000X0.161000X0.231000X-0.161000X0.231000X-0.161000X-0.231000X0*%
%ADD13RoundRect,0.079500X-0.079500X-0.100500X0.079500X-0.100500X0.079500X0.100500X-0.079500X0.100500X0*%
%ADD14RoundRect,0.232500X0.232500X0.232500X-0.232500X0.232500X-0.232500X-0.232500X0.232500X-0.232500X0*%
%ADD15RoundRect,0.062500X0.375000X0.062500X-0.375000X0.062500X-0.375000X-0.062500X0.375000X-0.062500X0*%
%ADD16RoundRect,0.062500X0.062500X0.375000X-0.062500X0.375000X-0.062500X-0.375000X0.062500X-0.375000X0*%
%ADD17RoundRect,0.079500X0.079500X0.100500X-0.079500X0.100500X-0.079500X-0.100500X0.079500X-0.100500X0*%
%ADD18RoundRect,0.079500X-0.100500X0.079500X-0.100500X-0.079500X0.100500X-0.079500X0.100500X0.079500X0*%
%ADD19R,0.400000X1.650000*%
%ADD20R,1.825000X0.700000*%
%ADD21R,2.000000X1.500000*%
%ADD22R,1.350000X2.000000*%
%ADD23R,1.430000X2.500000*%
%ADD24R,0.200000X0.400000*%
%ADD25RoundRect,0.249999X-0.395001X-0.395001X0.395001X-0.395001X0.395001X0.395001X-0.395001X0.395001X0*%
%ADD26RoundRect,0.050000X-0.387500X-0.050000X0.387500X-0.050000X0.387500X0.050000X-0.387500X0.050000X0*%
%ADD27RoundRect,0.050000X-0.050000X-0.387500X0.050000X-0.387500X0.050000X0.387500X-0.050000X0.387500X0*%
%ADD28R,1.150000X1.000000*%
%ADD29R,0.650000X1.050000*%
%ADD30RoundRect,0.150000X-0.150000X0.512500X-0.150000X-0.512500X0.150000X-0.512500X0.150000X0.512500X0*%
%ADD31R,0.900000X0.800000*%
G04 APERTURE END LIST*
%TO.C,U5*%
D10*
X83960000Y-58980000D02*
X82940000Y-58980000D01*
X82940000Y-58860000D01*
X83960000Y-58860000D01*
X83960000Y-58980000D01*
G36*
X83960000Y-58980000D02*
G01*
X82940000Y-58980000D01*
X82940000Y-58860000D01*
X83960000Y-58860000D01*
X83960000Y-58980000D01*
G37*
%TO.C,U3*%
X77960000Y-33380000D02*
X76940000Y-33380000D01*
X76940000Y-33260000D01*
X77960000Y-33260000D01*
X77960000Y-33380000D01*
G36*
X77960000Y-33380000D02*
G01*
X76940000Y-33380000D01*
X76940000Y-33260000D01*
X77960000Y-33260000D01*
X77960000Y-33380000D01*
G37*
%TD*%
D11*
%TO.C,C3*%
X83300000Y-35845000D03*
X83300000Y-35155000D03*
%TD*%
%TO.C,D2*%
X75800000Y-24065000D03*
X75800000Y-23375000D03*
%TD*%
%TO.C,C1*%
X81800000Y-35845000D03*
X81800000Y-35155000D03*
%TD*%
D12*
%TO.C,U5*%
X82700000Y-60140000D03*
X83200000Y-60140000D03*
X83700000Y-60140000D03*
X84200000Y-60140000D03*
X84200000Y-57700000D03*
X83700000Y-57700000D03*
X83200000Y-57700000D03*
X82700000Y-57700000D03*
%TD*%
%TO.C,U3*%
X76700000Y-34540000D03*
X77200000Y-34540000D03*
X77700000Y-34540000D03*
X78200000Y-34540000D03*
X78200000Y-32100000D03*
X77700000Y-32100000D03*
X77200000Y-32100000D03*
X76700000Y-32100000D03*
%TD*%
D13*
%TO.C,C17*%
X81410000Y-64100000D03*
X82100000Y-64100000D03*
%TD*%
D14*
%TO.C,U4*%
X80112500Y-57200000D03*
X80112500Y-56050000D03*
X80112500Y-54900000D03*
X78962500Y-57200000D03*
X78962500Y-56050000D03*
X78962500Y-54900000D03*
X77812500Y-57200000D03*
X77812500Y-56050000D03*
X77812500Y-54900000D03*
D15*
X81400000Y-57800000D03*
X81400000Y-57300000D03*
X81400000Y-56800000D03*
X81400000Y-56300000D03*
X81400000Y-55800000D03*
X81400000Y-55300000D03*
X81400000Y-54800000D03*
X81400000Y-54300000D03*
D16*
X80712500Y-53612500D03*
X80212500Y-53612500D03*
X79712500Y-53612500D03*
X79212500Y-53612500D03*
X78712500Y-53612500D03*
X78212500Y-53612500D03*
X77712500Y-53612500D03*
X77212500Y-53612500D03*
D15*
X76525000Y-54300000D03*
X76525000Y-54800000D03*
X76525000Y-55300000D03*
X76525000Y-55800000D03*
X76525000Y-56300000D03*
X76525000Y-56800000D03*
X76525000Y-57300000D03*
X76525000Y-57800000D03*
D16*
X77212500Y-58487500D03*
X77712500Y-58487500D03*
X78212500Y-58487500D03*
X78712500Y-58487500D03*
X79212500Y-58487500D03*
X79712500Y-58487500D03*
X80212500Y-58487500D03*
X80712500Y-58487500D03*
%TD*%
D13*
%TO.C,C7*%
X86135000Y-41900000D03*
X86825000Y-41900000D03*
%TD*%
D11*
%TO.C,C18*%
X77890000Y-65140000D03*
X77890000Y-64450000D03*
%TD*%
D17*
%TO.C,D1*%
X86400000Y-23900000D03*
X85710000Y-23900000D03*
%TD*%
D11*
%TO.C,R4*%
X83200000Y-30990000D03*
X83200000Y-30300000D03*
%TD*%
%TO.C,C8*%
X84300000Y-37190000D03*
X84300000Y-36500000D03*
%TD*%
D13*
%TO.C,C11*%
X84310000Y-34600000D03*
X85000000Y-34600000D03*
%TD*%
D18*
%TO.C,R5*%
X75800000Y-35010000D03*
X75800000Y-35700000D03*
%TD*%
D19*
%TO.C,J1*%
X81860000Y-24650000D03*
X81210000Y-24650000D03*
X80560000Y-24650000D03*
X79910000Y-24650000D03*
X79260000Y-24650000D03*
D20*
X83510000Y-23450000D03*
D21*
X83410000Y-24750000D03*
D22*
X83290000Y-22700000D03*
D23*
X81520000Y-21500000D03*
X79600000Y-21500000D03*
D22*
X77810000Y-22700000D03*
D21*
X77660000Y-24770000D03*
D20*
X77560000Y-23450000D03*
%TD*%
D13*
%TO.C,C13*%
X86610000Y-31100000D03*
X87300000Y-31100000D03*
%TD*%
D11*
%TO.C,C10*%
X79300000Y-35890000D03*
X79300000Y-35200000D03*
%TD*%
D13*
%TO.C,C15*%
X76910000Y-51400000D03*
X77600000Y-51400000D03*
%TD*%
D24*
%TO.C,AE1*%
X77265000Y-66940000D03*
X77980000Y-66940000D03*
%TD*%
D25*
%TO.C,U1*%
X79562500Y-41000000D03*
X79562500Y-42600000D03*
X81162500Y-41000000D03*
X81162500Y-42600000D03*
D26*
X76925000Y-39200000D03*
X76925000Y-39600000D03*
X76925000Y-40000000D03*
X76925000Y-40400000D03*
X76925000Y-40800000D03*
X76925000Y-41200000D03*
X76925000Y-41600000D03*
X76925000Y-42000000D03*
X76925000Y-42400000D03*
X76925000Y-42800000D03*
X76925000Y-43200000D03*
X76925000Y-43600000D03*
X76925000Y-44000000D03*
X76925000Y-44400000D03*
D27*
X77762500Y-45237500D03*
X78162500Y-45237500D03*
X78562500Y-45237500D03*
X78962500Y-45237500D03*
X79362500Y-45237500D03*
X79762500Y-45237500D03*
X80162500Y-45237500D03*
X80562500Y-45237500D03*
X80962500Y-45237500D03*
X81362500Y-45237500D03*
X81762500Y-45237500D03*
X82162500Y-45237500D03*
X82562500Y-45237500D03*
X82962500Y-45237500D03*
D26*
X83800000Y-44400000D03*
X83800000Y-44000000D03*
X83800000Y-43600000D03*
X83800000Y-43200000D03*
X83800000Y-42800000D03*
X83800000Y-42400000D03*
X83800000Y-42000000D03*
X83800000Y-41600000D03*
X83800000Y-41200000D03*
X83800000Y-40800000D03*
X83800000Y-40400000D03*
X83800000Y-40000000D03*
X83800000Y-39600000D03*
X83800000Y-39200000D03*
D27*
X82962500Y-38362500D03*
X82562500Y-38362500D03*
X82162500Y-38362500D03*
X81762500Y-38362500D03*
X81362500Y-38362500D03*
X80962500Y-38362500D03*
X80562500Y-38362500D03*
X80162500Y-38362500D03*
X79762500Y-38362500D03*
X79362500Y-38362500D03*
X78962500Y-38362500D03*
X78562500Y-38362500D03*
X78162500Y-38362500D03*
X77762500Y-38362500D03*
%TD*%
D18*
%TO.C,C6*%
X80500000Y-47010000D03*
X80500000Y-47700000D03*
%TD*%
%TO.C,C16*%
X83800000Y-61955000D03*
X83800000Y-62645000D03*
%TD*%
%TO.C,R6*%
X76200000Y-30010000D03*
X76200000Y-30700000D03*
%TD*%
D11*
%TO.C,C9*%
X80000000Y-35890000D03*
X80000000Y-35200000D03*
%TD*%
D13*
%TO.C,C5*%
X82510000Y-32800000D03*
X83200000Y-32800000D03*
%TD*%
D18*
%TO.C,R1*%
X80600000Y-33210000D03*
X80600000Y-33900000D03*
%TD*%
D13*
%TO.C,C12*%
X86010000Y-25400000D03*
X86700000Y-25400000D03*
%TD*%
D11*
%TO.C,R7*%
X80400000Y-60390000D03*
X80400000Y-59700000D03*
%TD*%
D28*
%TO.C,Y1*%
X77050000Y-50100000D03*
X78800000Y-50100000D03*
X78800000Y-48700000D03*
X77050000Y-48700000D03*
%TD*%
D13*
%TO.C,R3*%
X84510000Y-31000000D03*
X85200000Y-31000000D03*
%TD*%
D11*
%TO.C,C4*%
X76400000Y-37545000D03*
X76400000Y-36855000D03*
%TD*%
D18*
%TO.C,R2*%
X81300000Y-33210000D03*
X81300000Y-33900000D03*
%TD*%
D29*
%TO.C,SW1*%
X77350000Y-30725000D03*
X77350000Y-26575000D03*
X79500000Y-30725000D03*
X79500000Y-26600000D03*
%TD*%
D18*
%TO.C,C14*%
X80100000Y-49310000D03*
X80100000Y-50000000D03*
%TD*%
D30*
%TO.C,U2*%
X86500000Y-27425000D03*
X85550000Y-27425000D03*
X84600000Y-27425000D03*
X84600000Y-29700000D03*
X86500000Y-29700000D03*
%TD*%
D31*
%TO.C,Y2*%
X81200000Y-63000000D03*
X82600000Y-63000000D03*
X82600000Y-61900000D03*
X81200000Y-61900000D03*
%TD*%
D11*
%TO.C,C2*%
X82580000Y-35845000D03*
X82580000Y-35155000D03*
%TD*%
M02*
