%TF.GenerationSoftware,KiCad,Pcbnew,7.0.7*%
%TF.CreationDate,2023-10-12T13:18:40+07:00*%
%TF.ProjectId,Pico2040-Modular-Rev3-W,5069636f-3230-4343-902d-4d6f64756c61,rev?*%
%TF.SameCoordinates,Original*%
%TF.FileFunction,Copper,L4,Bot*%
%TF.FilePolarity,Positive*%
%FSLAX46Y46*%
G04 Gerber Fmt 4.6, Leading zero omitted, Abs format (unit mm)*
G04 Created by KiCad (PCBNEW 7.0.7) date 2023-10-12 13:18:40*
%MOMM*%
%LPD*%
G01*
G04 APERTURE LIST*
%TA.AperFunction,ComponentPad*%
%ADD10R,1.700000X1.700000*%
%TD*%
%TA.AperFunction,ComponentPad*%
%ADD11O,1.700000X1.700000*%
%TD*%
%TA.AperFunction,ComponentPad*%
%ADD12R,3.200000X1.600000*%
%TD*%
%TA.AperFunction,ComponentPad*%
%ADD13O,1.700000X1.600000*%
%TD*%
%TA.AperFunction,ComponentPad*%
%ADD14O,1.350000X1.700000*%
%TD*%
%TA.AperFunction,ComponentPad*%
%ADD15O,1.100000X1.500000*%
%TD*%
%TA.AperFunction,SMDPad,CuDef*%
%ADD16C,1.000000*%
%TD*%
%TA.AperFunction,ViaPad*%
%ADD17C,0.500000*%
%TD*%
%TA.AperFunction,ViaPad*%
%ADD18C,0.600000*%
%TD*%
%TA.AperFunction,Conductor*%
%ADD19C,0.250000*%
%TD*%
%TA.AperFunction,Conductor*%
%ADD20C,0.400000*%
%TD*%
%TA.AperFunction,Conductor*%
%ADD21C,0.200000*%
%TD*%
G04 APERTURE END LIST*
D10*
%TO.P,J4,1,Pin_1*%
%TO.N,/SWDIO*%
X84810000Y-49090000D03*
D11*
%TO.P,J4,2,Pin_2*%
%TO.N,GND*%
X84810000Y-51630000D03*
%TO.P,J4,3,Pin_3*%
%TO.N,/SWCLK*%
X84810000Y-54170000D03*
%TD*%
D12*
%TO.P,J2,1,Pin_1*%
%TO.N,/P0*%
X69990000Y-21300000D03*
D13*
X71600000Y-21300000D03*
D12*
%TO.P,J2,2,Pin_2*%
%TO.N,/P1*%
X69990000Y-23840000D03*
D13*
X71600000Y-23840000D03*
D12*
%TO.P,J2,3,Pin_3*%
%TO.N,GND*%
X69990000Y-26380000D03*
D13*
X71600000Y-26380000D03*
D12*
%TO.P,J2,4,Pin_4*%
%TO.N,/P2*%
X69990000Y-28920000D03*
D13*
X71600000Y-28920000D03*
D12*
%TO.P,J2,5,Pin_5*%
%TO.N,/P3*%
X69990000Y-31460000D03*
D13*
X71600000Y-31460000D03*
D12*
%TO.P,J2,6,Pin_6*%
%TO.N,/P4*%
X69990000Y-34000000D03*
D13*
X71600000Y-34000000D03*
D12*
%TO.P,J2,7,Pin_7*%
%TO.N,/P5*%
X69990000Y-36540000D03*
D13*
X71600000Y-36540000D03*
D12*
%TO.P,J2,8,Pin_8*%
%TO.N,GND*%
X69990000Y-39080000D03*
D13*
X71600000Y-39080000D03*
D12*
%TO.P,J2,9,Pin_9*%
%TO.N,/P6*%
X69990000Y-41620000D03*
D13*
X71600000Y-41620000D03*
D12*
%TO.P,J2,10,Pin_10*%
%TO.N,/P7*%
X69990000Y-44160000D03*
D13*
X71600000Y-44160000D03*
D12*
%TO.P,J2,11,Pin_11*%
%TO.N,/P8*%
X69990000Y-46700000D03*
D13*
X71600000Y-46700000D03*
D12*
%TO.P,J2,12,Pin_12*%
%TO.N,/P9*%
X69990000Y-49240000D03*
D13*
X71600000Y-49240000D03*
D12*
%TO.P,J2,13,Pin_13*%
%TO.N,GND*%
X69990000Y-51780000D03*
D13*
X71600000Y-51780000D03*
D12*
%TO.P,J2,14,Pin_14*%
%TO.N,/P10*%
X69990000Y-54320000D03*
D13*
X71600000Y-54320000D03*
D12*
%TO.P,J2,15,Pin_15*%
%TO.N,/P11*%
X69990000Y-56860000D03*
D13*
X71600000Y-56860000D03*
D12*
%TO.P,J2,16,Pin_16*%
%TO.N,/P12*%
X69990000Y-59400000D03*
D13*
X71600000Y-59400000D03*
D12*
%TO.P,J2,17,Pin_17*%
%TO.N,/P13*%
X69990000Y-61940000D03*
D13*
X71600000Y-61940000D03*
D12*
%TO.P,J2,18,Pin_18*%
%TO.N,GND*%
X69990000Y-64480000D03*
D13*
X71600000Y-64480000D03*
D12*
%TO.P,J2,19,Pin_19*%
%TO.N,/P14*%
X69990000Y-67020000D03*
D13*
X71600000Y-67020000D03*
D12*
%TO.P,J2,20,Pin_20*%
%TO.N,/P15*%
X69990000Y-69560000D03*
D13*
X71600000Y-69560000D03*
%TD*%
D14*
%TO.P,J1,6,Shield*%
%TO.N,GND*%
X83290000Y-21770000D03*
D15*
X82980000Y-24770000D03*
X78140000Y-24770000D03*
D14*
X77830000Y-21770000D03*
%TD*%
D16*
%TO.P,TP4,1,1*%
%TO.N,/FLASH_SS*%
X76900000Y-35500000D03*
%TD*%
%TO.P,TP5,1,1*%
%TO.N,Net-(U4-U0RXD)*%
X79900000Y-31400000D03*
%TD*%
D12*
%TO.P,J3,1,Pin_1*%
%TO.N,VBUS*%
X91000000Y-21300000D03*
D13*
X89390000Y-21300000D03*
D12*
%TO.P,J3,2,Pin_2*%
%TO.N,+3.3V*%
X91000000Y-23840000D03*
D13*
X89390000Y-23840000D03*
D12*
%TO.P,J3,3,Pin_3*%
%TO.N,GND*%
X91000000Y-26380000D03*
D13*
X89390000Y-26380000D03*
D12*
%TO.P,J3,4,Pin_4*%
%TO.N,+1V1*%
X91000000Y-28920000D03*
D13*
X89390000Y-28920000D03*
D12*
%TO.P,J3,5,Pin_5*%
%TO.N,/RESET*%
X91000000Y-31460000D03*
D13*
X89390000Y-31460000D03*
D12*
%TO.P,J3,6,Pin_6*%
%TO.N,/P29*%
X91000000Y-34000000D03*
D13*
X89390000Y-34000000D03*
D12*
%TO.P,J3,7,Pin_7*%
%TO.N,/P28*%
X91000000Y-36540000D03*
D13*
X89390000Y-36540000D03*
D12*
%TO.P,J3,8,Pin_8*%
%TO.N,GND*%
X91000000Y-39080000D03*
D13*
X89390000Y-39080000D03*
D12*
%TO.P,J3,9,Pin_9*%
%TO.N,/P27*%
X91000000Y-41620000D03*
D13*
X89390000Y-41620000D03*
D12*
%TO.P,J3,10,Pin_10*%
%TO.N,/P26*%
X91000000Y-44160000D03*
D13*
X89390000Y-44160000D03*
D12*
%TO.P,J3,11,Pin_11*%
%TO.N,/FLASH_SS*%
X91000000Y-46700000D03*
D13*
X89390000Y-46700000D03*
D12*
%TO.P,J3,12,Pin_12*%
%TO.N,unconnected-(J3-Pin_12-Pad12)*%
X91000000Y-49240000D03*
D13*
X89390000Y-49240000D03*
D12*
%TO.P,J3,13,Pin_13*%
%TO.N,GND*%
X91000000Y-51780000D03*
D13*
X89390000Y-51780000D03*
D12*
%TO.P,J3,14,Pin_14*%
%TO.N,/P21*%
X91000000Y-54320000D03*
D13*
X89390000Y-54320000D03*
D12*
%TO.P,J3,15,Pin_15*%
%TO.N,/P20*%
X91000000Y-56860000D03*
D13*
X89390000Y-56860000D03*
D12*
%TO.P,J3,16,Pin_16*%
%TO.N,/P19*%
X91000000Y-59400000D03*
D13*
X89390000Y-59400000D03*
D12*
%TO.P,J3,17,Pin_17*%
%TO.N,/P18*%
X91000000Y-61940000D03*
D13*
X89390000Y-61940000D03*
D12*
%TO.P,J3,18,Pin_18*%
%TO.N,GND*%
X91000000Y-64480000D03*
D13*
X89390000Y-64480000D03*
D12*
%TO.P,J3,19,Pin_19*%
%TO.N,/P17*%
X91000000Y-67020000D03*
D13*
X89390000Y-67020000D03*
D12*
%TO.P,J3,20,Pin_20*%
%TO.N,/P16*%
X91000000Y-69560000D03*
D13*
X89390000Y-69560000D03*
%TD*%
D16*
%TO.P,TP1,1,1*%
%TO.N,/DP*%
X79500000Y-23200000D03*
%TD*%
%TO.P,TP3,1,1*%
%TO.N,/RESET*%
X80200000Y-28500000D03*
%TD*%
%TO.P,TP6,1,1*%
%TO.N,Net-(U4-U0TXD)*%
X82400000Y-31400000D03*
%TD*%
%TO.P,TP2,1,1*%
%TO.N,/DM*%
X81900000Y-23200000D03*
%TD*%
D17*
%TO.N,GND*%
X79400000Y-42800000D03*
X77190000Y-66450000D03*
X78800000Y-23700000D03*
X78962500Y-55050000D03*
X77962500Y-57050000D03*
X84500000Y-59800000D03*
X79962500Y-55050000D03*
D18*
X81500000Y-21500000D03*
D17*
X79540000Y-34220000D03*
X81400000Y-41800000D03*
X77962500Y-56050000D03*
X80400000Y-48200000D03*
X83300000Y-29600000D03*
X80400000Y-40800000D03*
X81200000Y-61900000D03*
X85300000Y-26200000D03*
X81400000Y-40800000D03*
X84300000Y-36000000D03*
X77000000Y-48700000D03*
X79400000Y-40800000D03*
X77990000Y-63950000D03*
X85200000Y-34100000D03*
X84100000Y-63000000D03*
X78800000Y-50100000D03*
X81780000Y-34455000D03*
D18*
X79600000Y-21500000D03*
D17*
X81000000Y-60700000D03*
X87540000Y-42280000D03*
X87500000Y-30500000D03*
X84500000Y-58900000D03*
X75700000Y-24800000D03*
X82975000Y-32400000D03*
X78400000Y-34000000D03*
X86600000Y-24800000D03*
X79962500Y-57050000D03*
X77962500Y-55050000D03*
X80300000Y-50400000D03*
X79962500Y-56050000D03*
X79400000Y-41800000D03*
X78962500Y-56050000D03*
X81400000Y-42800000D03*
X80400000Y-42800000D03*
X80050000Y-34530000D03*
X80400000Y-41800000D03*
X78000000Y-51200000D03*
X78962500Y-57050000D03*
X82600000Y-64000000D03*
X76000000Y-36555000D03*
X78500000Y-33400000D03*
X77300000Y-26600000D03*
X82600000Y-63000000D03*
X77400000Y-30700000D03*
X78400000Y-47300000D03*
X87100000Y-24200000D03*
%TO.N,/ESP_ANT*%
X78490000Y-66250000D03*
X82100000Y-57100000D03*
%TO.N,+1V1*%
X81700000Y-36500000D03*
X83530000Y-36470000D03*
X80963000Y-46240000D03*
X82200000Y-37500000D03*
X80100000Y-37500000D03*
X82280000Y-36580000D03*
%TO.N,VBUS*%
X83800000Y-26800000D03*
X85800000Y-25000000D03*
X82400000Y-26200000D03*
X86200000Y-26400000D03*
X85300000Y-24000000D03*
%TO.N,/ESP_CLKOUT*%
X82200000Y-61200000D03*
X78080000Y-60290000D03*
%TO.N,/ESP_CLKIN*%
X79900000Y-62700000D03*
X78911779Y-60000000D03*
%TO.N,/DM*%
X81200000Y-23700000D03*
%TO.N,/DP*%
X80500000Y-23600000D03*
%TO.N,/RESET*%
X82162500Y-46000000D03*
X78900000Y-28600000D03*
%TO.N,/P29*%
X85200000Y-36700000D03*
X76300000Y-23600000D03*
%TO.N,/P23*%
X84620000Y-41960000D03*
X78990000Y-52500000D03*
%TO.N,/P22*%
X85180000Y-42400000D03*
X81042510Y-53007490D03*
%TO.N,/FLASH_SS*%
X76820000Y-33920000D03*
X76530000Y-45250000D03*
%TO.N,/FLASH_SD3*%
X79700000Y-36610000D03*
X77220000Y-32590000D03*
%TO.N,/FLASH_CLOCK*%
X77820000Y-32610000D03*
X79200000Y-37000000D03*
%TO.N,/FLASH_SD0*%
X78380000Y-36880000D03*
X78430000Y-32610000D03*
%TO.N,Net-(U4-U0RXD)*%
X78000000Y-30500000D03*
X76888221Y-59511779D03*
%TO.N,/ESPFLASH_D2*%
X83820000Y-59530000D03*
X75790000Y-54510000D03*
%TO.N,/ESPFLASH_D3*%
X82900000Y-56500000D03*
X75790000Y-55110000D03*
%TO.N,/ESPFLASH_SS*%
X82480000Y-59440000D03*
X75680000Y-55660000D03*
%TO.N,/ESPFLASH_CLOCK*%
X75662490Y-56242490D03*
X83640000Y-56480000D03*
%TO.N,/ESPFLASH_D0*%
X75839500Y-56780000D03*
X84240000Y-56780000D03*
%TO.N,/ESPFLASH_D1*%
X83220000Y-59480000D03*
X75863304Y-57356196D03*
%TO.N,Net-(U4-U0TXD)*%
X77400000Y-59800000D03*
X82200000Y-30100000D03*
%TO.N,/P24*%
X80324772Y-52802111D03*
X85080000Y-41550000D03*
%TO.N,/P25*%
X85410000Y-40980000D03*
X78450000Y-52740000D03*
%TD*%
D19*
%TO.N,/FLASH_SS*%
X76820000Y-35420000D02*
X76900000Y-35500000D01*
X76820000Y-33920000D02*
X76820000Y-35420000D01*
D20*
%TO.N,/DM*%
X81400000Y-23700000D02*
X81900000Y-23200000D01*
X81200000Y-23700000D02*
X81400000Y-23700000D01*
%TO.N,/DP*%
X79900000Y-23600000D02*
X79500000Y-23200000D01*
X80500000Y-23600000D02*
X79900000Y-23600000D01*
D21*
%TO.N,/RESET*%
X78900000Y-28600000D02*
X80100000Y-28600000D01*
X80100000Y-28600000D02*
X80200000Y-28500000D01*
%TO.N,Net-(U4-U0RXD)*%
X79900000Y-31300000D02*
X79900000Y-31400000D01*
X78000000Y-30500000D02*
X79100000Y-30500000D01*
X79100000Y-30500000D02*
X79900000Y-31300000D01*
%TO.N,Net-(U4-U0TXD)*%
X82400000Y-31400000D02*
X82400000Y-30300000D01*
X82400000Y-30300000D02*
X82200000Y-30100000D01*
%TD*%
%TA.AperFunction,Conductor*%
%TO.N,GND*%
G36*
X90942539Y-20020185D02*
G01*
X90988294Y-20072989D01*
X90999500Y-20124500D01*
X90999500Y-20175500D01*
X90979815Y-20242539D01*
X90927011Y-20288294D01*
X90875500Y-20299500D01*
X89289257Y-20299500D01*
X89137560Y-20314925D01*
X88943420Y-20375837D01*
X88943405Y-20375844D01*
X88765500Y-20474589D01*
X88765495Y-20474592D01*
X88611106Y-20607132D01*
X88611104Y-20607134D01*
X88486554Y-20768037D01*
X88486553Y-20768040D01*
X88396940Y-20950728D01*
X88345937Y-21147714D01*
X88335631Y-21350936D01*
X88366442Y-21552063D01*
X88366445Y-21552075D01*
X88437111Y-21742881D01*
X88437115Y-21742888D01*
X88544745Y-21915567D01*
X88544747Y-21915569D01*
X88544748Y-21915571D01*
X88684941Y-22063053D01*
X88813344Y-22152424D01*
X88851949Y-22179294D01*
X88851950Y-22179294D01*
X88851951Y-22179295D01*
X89038942Y-22259540D01*
X89238259Y-22300500D01*
X89380252Y-22300500D01*
X90875500Y-22300500D01*
X90942539Y-22320185D01*
X90988294Y-22372989D01*
X90999500Y-22424500D01*
X90999500Y-22715500D01*
X90979815Y-22782539D01*
X90927011Y-22828294D01*
X90875500Y-22839500D01*
X89289257Y-22839500D01*
X89137560Y-22854925D01*
X88943420Y-22915837D01*
X88943405Y-22915844D01*
X88765500Y-23014589D01*
X88765495Y-23014592D01*
X88611106Y-23147132D01*
X88611104Y-23147134D01*
X88486554Y-23308037D01*
X88486553Y-23308040D01*
X88396940Y-23490728D01*
X88345937Y-23687714D01*
X88335631Y-23890936D01*
X88366442Y-24092063D01*
X88366445Y-24092075D01*
X88437111Y-24282881D01*
X88437115Y-24282888D01*
X88544745Y-24455567D01*
X88544747Y-24455569D01*
X88544748Y-24455571D01*
X88684941Y-24603053D01*
X88813344Y-24692424D01*
X88851949Y-24719294D01*
X88851950Y-24719294D01*
X88851951Y-24719295D01*
X89038942Y-24799540D01*
X89238259Y-24840500D01*
X89380252Y-24840500D01*
X90875500Y-24840500D01*
X90942539Y-24860185D01*
X90988294Y-24912989D01*
X90999500Y-24964500D01*
X90999500Y-27795500D01*
X90979815Y-27862539D01*
X90927011Y-27908294D01*
X90875500Y-27919500D01*
X89289257Y-27919500D01*
X89137560Y-27934925D01*
X88943420Y-27995837D01*
X88943405Y-27995844D01*
X88765500Y-28094589D01*
X88765495Y-28094592D01*
X88611106Y-28227132D01*
X88611104Y-28227134D01*
X88486554Y-28388037D01*
X88486553Y-28388040D01*
X88396940Y-28570728D01*
X88345937Y-28767714D01*
X88335631Y-28970936D01*
X88366442Y-29172063D01*
X88366445Y-29172075D01*
X88437111Y-29362881D01*
X88437115Y-29362888D01*
X88544745Y-29535567D01*
X88544747Y-29535569D01*
X88544748Y-29535571D01*
X88684941Y-29683053D01*
X88789795Y-29756033D01*
X88851949Y-29799294D01*
X88851950Y-29799294D01*
X88851951Y-29799295D01*
X89038942Y-29879540D01*
X89238259Y-29920500D01*
X89380252Y-29920500D01*
X90875500Y-29920500D01*
X90942539Y-29940185D01*
X90988294Y-29992989D01*
X90999500Y-30044500D01*
X90999500Y-30335500D01*
X90979815Y-30402539D01*
X90927011Y-30448294D01*
X90875500Y-30459500D01*
X89289257Y-30459500D01*
X89137560Y-30474925D01*
X88943420Y-30535837D01*
X88943405Y-30535844D01*
X88765500Y-30634589D01*
X88765495Y-30634592D01*
X88611106Y-30767132D01*
X88611104Y-30767134D01*
X88486554Y-30928037D01*
X88486553Y-30928040D01*
X88396940Y-31110728D01*
X88345937Y-31307714D01*
X88335631Y-31510936D01*
X88366442Y-31712063D01*
X88366445Y-31712075D01*
X88437111Y-31902881D01*
X88437115Y-31902888D01*
X88544745Y-32075567D01*
X88544747Y-32075569D01*
X88544748Y-32075571D01*
X88684941Y-32223053D01*
X88813344Y-32312424D01*
X88851949Y-32339294D01*
X88851950Y-32339294D01*
X88851951Y-32339295D01*
X89038942Y-32419540D01*
X89238259Y-32460500D01*
X89380252Y-32460500D01*
X90875500Y-32460500D01*
X90942539Y-32480185D01*
X90988294Y-32532989D01*
X90999500Y-32584500D01*
X90999500Y-32875500D01*
X90979815Y-32942539D01*
X90927011Y-32988294D01*
X90875500Y-32999500D01*
X89289257Y-32999500D01*
X89137560Y-33014925D01*
X88943420Y-33075837D01*
X88943405Y-33075844D01*
X88765500Y-33174589D01*
X88765495Y-33174592D01*
X88611106Y-33307132D01*
X88611104Y-33307134D01*
X88486554Y-33468037D01*
X88486553Y-33468040D01*
X88396940Y-33650728D01*
X88345937Y-33847714D01*
X88335631Y-34050936D01*
X88366442Y-34252063D01*
X88366445Y-34252075D01*
X88437111Y-34442881D01*
X88437115Y-34442888D01*
X88544745Y-34615567D01*
X88544747Y-34615569D01*
X88544748Y-34615571D01*
X88684941Y-34763053D01*
X88794122Y-34839045D01*
X88851949Y-34879294D01*
X88851950Y-34879294D01*
X88851951Y-34879295D01*
X89038942Y-34959540D01*
X89238259Y-35000500D01*
X89380252Y-35000500D01*
X90875500Y-35000500D01*
X90942539Y-35020185D01*
X90988294Y-35072989D01*
X90999500Y-35124500D01*
X90999500Y-35415500D01*
X90979815Y-35482539D01*
X90927011Y-35528294D01*
X90875500Y-35539500D01*
X89289257Y-35539500D01*
X89137560Y-35554925D01*
X88943420Y-35615837D01*
X88943405Y-35615844D01*
X88765500Y-35714589D01*
X88765495Y-35714592D01*
X88611106Y-35847132D01*
X88611104Y-35847134D01*
X88486554Y-36008037D01*
X88486553Y-36008040D01*
X88396940Y-36190728D01*
X88345937Y-36387714D01*
X88335631Y-36590936D01*
X88366442Y-36792063D01*
X88366445Y-36792075D01*
X88437111Y-36982881D01*
X88437113Y-36982884D01*
X88437114Y-36982887D01*
X88452907Y-37008225D01*
X88544745Y-37155567D01*
X88544747Y-37155569D01*
X88544748Y-37155571D01*
X88684941Y-37303053D01*
X88813344Y-37392424D01*
X88851949Y-37419294D01*
X88851950Y-37419294D01*
X88851951Y-37419295D01*
X89038942Y-37499540D01*
X89238259Y-37540500D01*
X89380252Y-37540500D01*
X90875500Y-37540500D01*
X90942539Y-37560185D01*
X90988294Y-37612989D01*
X90999500Y-37664500D01*
X90999500Y-40495500D01*
X90979815Y-40562539D01*
X90927011Y-40608294D01*
X90875500Y-40619500D01*
X89289257Y-40619500D01*
X89137560Y-40634925D01*
X88943420Y-40695837D01*
X88943405Y-40695844D01*
X88765500Y-40794589D01*
X88765495Y-40794592D01*
X88611106Y-40927132D01*
X88611104Y-40927134D01*
X88486554Y-41088037D01*
X88486553Y-41088040D01*
X88396940Y-41270728D01*
X88345937Y-41467714D01*
X88335631Y-41670936D01*
X88366442Y-41872063D01*
X88366445Y-41872075D01*
X88437111Y-42062881D01*
X88437115Y-42062888D01*
X88544745Y-42235567D01*
X88544747Y-42235569D01*
X88544748Y-42235571D01*
X88684941Y-42383053D01*
X88813344Y-42472424D01*
X88851949Y-42499294D01*
X88851950Y-42499294D01*
X88851951Y-42499295D01*
X89038942Y-42579540D01*
X89238259Y-42620500D01*
X89380252Y-42620500D01*
X90875500Y-42620500D01*
X90942539Y-42640185D01*
X90988294Y-42692989D01*
X90999500Y-42744500D01*
X90999500Y-43035500D01*
X90979815Y-43102539D01*
X90927011Y-43148294D01*
X90875500Y-43159500D01*
X89289257Y-43159500D01*
X89137560Y-43174925D01*
X88943420Y-43235837D01*
X88943405Y-43235844D01*
X88765500Y-43334589D01*
X88765495Y-43334592D01*
X88611106Y-43467132D01*
X88611104Y-43467134D01*
X88486554Y-43628037D01*
X88486553Y-43628040D01*
X88396940Y-43810728D01*
X88345937Y-44007714D01*
X88335631Y-44210936D01*
X88366442Y-44412063D01*
X88366445Y-44412075D01*
X88437111Y-44602881D01*
X88437115Y-44602888D01*
X88544745Y-44775567D01*
X88544747Y-44775569D01*
X88544748Y-44775571D01*
X88684941Y-44923053D01*
X88801151Y-45003937D01*
X88851949Y-45039294D01*
X88851950Y-45039294D01*
X88851951Y-45039295D01*
X89038942Y-45119540D01*
X89238259Y-45160500D01*
X89380252Y-45160500D01*
X90875500Y-45160500D01*
X90942539Y-45180185D01*
X90988294Y-45232989D01*
X90999500Y-45284500D01*
X90999500Y-45575500D01*
X90979815Y-45642539D01*
X90927011Y-45688294D01*
X90875500Y-45699500D01*
X89289257Y-45699500D01*
X89137560Y-45714925D01*
X88943420Y-45775837D01*
X88943405Y-45775844D01*
X88765500Y-45874589D01*
X88765495Y-45874592D01*
X88611106Y-46007132D01*
X88611104Y-46007134D01*
X88486554Y-46168037D01*
X88486553Y-46168040D01*
X88396940Y-46350728D01*
X88345937Y-46547714D01*
X88335631Y-46750936D01*
X88366442Y-46952063D01*
X88366445Y-46952075D01*
X88437111Y-47142881D01*
X88437115Y-47142888D01*
X88544745Y-47315567D01*
X88544747Y-47315569D01*
X88544748Y-47315571D01*
X88684941Y-47463053D01*
X88813344Y-47552424D01*
X88851949Y-47579294D01*
X88851950Y-47579294D01*
X88851951Y-47579295D01*
X89038942Y-47659540D01*
X89238259Y-47700500D01*
X89380252Y-47700500D01*
X90875500Y-47700500D01*
X90942539Y-47720185D01*
X90988294Y-47772989D01*
X90999500Y-47824500D01*
X90999500Y-48115500D01*
X90979815Y-48182539D01*
X90927011Y-48228294D01*
X90875500Y-48239500D01*
X89289257Y-48239500D01*
X89137560Y-48254925D01*
X88943420Y-48315837D01*
X88943405Y-48315844D01*
X88765500Y-48414589D01*
X88765495Y-48414592D01*
X88611106Y-48547132D01*
X88611104Y-48547134D01*
X88486554Y-48708037D01*
X88486553Y-48708040D01*
X88396940Y-48890728D01*
X88345937Y-49087714D01*
X88335631Y-49290936D01*
X88366442Y-49492063D01*
X88366445Y-49492075D01*
X88437111Y-49682881D01*
X88437115Y-49682888D01*
X88544745Y-49855567D01*
X88544747Y-49855569D01*
X88544748Y-49855571D01*
X88684941Y-50003053D01*
X88802034Y-50084552D01*
X88851949Y-50119294D01*
X88851950Y-50119294D01*
X88851951Y-50119295D01*
X89038942Y-50199540D01*
X89238259Y-50240500D01*
X89380252Y-50240500D01*
X90875500Y-50240500D01*
X90942539Y-50260185D01*
X90988294Y-50312989D01*
X90999500Y-50364500D01*
X90999500Y-53195500D01*
X90979815Y-53262539D01*
X90927011Y-53308294D01*
X90875500Y-53319500D01*
X89289257Y-53319500D01*
X89137560Y-53334925D01*
X88943420Y-53395837D01*
X88943405Y-53395844D01*
X88765500Y-53494589D01*
X88765495Y-53494592D01*
X88611106Y-53627132D01*
X88611104Y-53627134D01*
X88486554Y-53788037D01*
X88486553Y-53788040D01*
X88396940Y-53970728D01*
X88345937Y-54167714D01*
X88335631Y-54370936D01*
X88366442Y-54572063D01*
X88366445Y-54572075D01*
X88437111Y-54762881D01*
X88437115Y-54762888D01*
X88544745Y-54935567D01*
X88544749Y-54935572D01*
X88588667Y-54981774D01*
X88684941Y-55083053D01*
X88813344Y-55172424D01*
X88851949Y-55199294D01*
X88851950Y-55199294D01*
X88851951Y-55199295D01*
X89038942Y-55279540D01*
X89238259Y-55320500D01*
X89380252Y-55320500D01*
X90875500Y-55320500D01*
X90942539Y-55340185D01*
X90988294Y-55392989D01*
X90999500Y-55444500D01*
X90999500Y-55735500D01*
X90979815Y-55802539D01*
X90927011Y-55848294D01*
X90875500Y-55859500D01*
X89289257Y-55859500D01*
X89137560Y-55874925D01*
X88943420Y-55935837D01*
X88943405Y-55935844D01*
X88765500Y-56034589D01*
X88765495Y-56034592D01*
X88611106Y-56167132D01*
X88611104Y-56167134D01*
X88486554Y-56328037D01*
X88486553Y-56328040D01*
X88396940Y-56510728D01*
X88345937Y-56707714D01*
X88335631Y-56910936D01*
X88366442Y-57112063D01*
X88366445Y-57112075D01*
X88437111Y-57302881D01*
X88437113Y-57302884D01*
X88437114Y-57302887D01*
X88464025Y-57346062D01*
X88544745Y-57475567D01*
X88544747Y-57475569D01*
X88544748Y-57475571D01*
X88684941Y-57623053D01*
X88813344Y-57712424D01*
X88851949Y-57739294D01*
X88851950Y-57739294D01*
X88851951Y-57739295D01*
X89038942Y-57819540D01*
X89238259Y-57860500D01*
X89380252Y-57860500D01*
X90875500Y-57860500D01*
X90942539Y-57880185D01*
X90988294Y-57932989D01*
X90999500Y-57984500D01*
X90999500Y-58275500D01*
X90979815Y-58342539D01*
X90927011Y-58388294D01*
X90875500Y-58399500D01*
X89289257Y-58399500D01*
X89137560Y-58414925D01*
X88943420Y-58475837D01*
X88943405Y-58475844D01*
X88765500Y-58574589D01*
X88765495Y-58574592D01*
X88611106Y-58707132D01*
X88611104Y-58707134D01*
X88486554Y-58868037D01*
X88486553Y-58868040D01*
X88396940Y-59050728D01*
X88345937Y-59247714D01*
X88335631Y-59450936D01*
X88366442Y-59652063D01*
X88366445Y-59652075D01*
X88437111Y-59842881D01*
X88437113Y-59842884D01*
X88437114Y-59842887D01*
X88456486Y-59873966D01*
X88544745Y-60015567D01*
X88544747Y-60015569D01*
X88544748Y-60015571D01*
X88684941Y-60163053D01*
X88810579Y-60250499D01*
X88851949Y-60279294D01*
X88851950Y-60279294D01*
X88851951Y-60279295D01*
X89038942Y-60359540D01*
X89238259Y-60400500D01*
X89380252Y-60400500D01*
X90875500Y-60400500D01*
X90942539Y-60420185D01*
X90988294Y-60472989D01*
X90999500Y-60524500D01*
X90999500Y-60815500D01*
X90979815Y-60882539D01*
X90927011Y-60928294D01*
X90875500Y-60939500D01*
X89289257Y-60939500D01*
X89137560Y-60954925D01*
X88943420Y-61015837D01*
X88943405Y-61015844D01*
X88765500Y-61114589D01*
X88765495Y-61114592D01*
X88611106Y-61247132D01*
X88611104Y-61247134D01*
X88486554Y-61408037D01*
X88486553Y-61408040D01*
X88396940Y-61590728D01*
X88345937Y-61787714D01*
X88335631Y-61990936D01*
X88366442Y-62192063D01*
X88366445Y-62192075D01*
X88437111Y-62382881D01*
X88437113Y-62382884D01*
X88437114Y-62382887D01*
X88481400Y-62453938D01*
X88544745Y-62555567D01*
X88544747Y-62555569D01*
X88544748Y-62555571D01*
X88684941Y-62703053D01*
X88813344Y-62792424D01*
X88851949Y-62819294D01*
X88851950Y-62819294D01*
X88851951Y-62819295D01*
X89038942Y-62899540D01*
X89238259Y-62940500D01*
X89380252Y-62940500D01*
X90875500Y-62940500D01*
X90942539Y-62960185D01*
X90988294Y-63012989D01*
X90999500Y-63064500D01*
X90999500Y-65895500D01*
X90979815Y-65962539D01*
X90927011Y-66008294D01*
X90875500Y-66019500D01*
X89289257Y-66019500D01*
X89137560Y-66034925D01*
X88943420Y-66095837D01*
X88943405Y-66095844D01*
X88765500Y-66194589D01*
X88765495Y-66194592D01*
X88611106Y-66327132D01*
X88611104Y-66327134D01*
X88486554Y-66488037D01*
X88486553Y-66488040D01*
X88396940Y-66670728D01*
X88345937Y-66867714D01*
X88335631Y-67070936D01*
X88366442Y-67272063D01*
X88366445Y-67272075D01*
X88437111Y-67462881D01*
X88437115Y-67462888D01*
X88544745Y-67635567D01*
X88544747Y-67635569D01*
X88544748Y-67635571D01*
X88684941Y-67783053D01*
X88813344Y-67872424D01*
X88851949Y-67899294D01*
X88851950Y-67899294D01*
X88851951Y-67899295D01*
X89038942Y-67979540D01*
X89238259Y-68020500D01*
X89380252Y-68020500D01*
X90875500Y-68020500D01*
X90942539Y-68040185D01*
X90988294Y-68092989D01*
X90999500Y-68144500D01*
X90999500Y-68435500D01*
X90979815Y-68502539D01*
X90927011Y-68548294D01*
X90875500Y-68559500D01*
X89289257Y-68559500D01*
X89137560Y-68574925D01*
X88943420Y-68635837D01*
X88943405Y-68635844D01*
X88765500Y-68734589D01*
X88765495Y-68734592D01*
X88611106Y-68867132D01*
X88611104Y-68867134D01*
X88486554Y-69028037D01*
X88486553Y-69028040D01*
X88396940Y-69210728D01*
X88345937Y-69407714D01*
X88335631Y-69610936D01*
X88366442Y-69812063D01*
X88366445Y-69812075D01*
X88437111Y-70002881D01*
X88437115Y-70002888D01*
X88544745Y-70175567D01*
X88544747Y-70175569D01*
X88544748Y-70175571D01*
X88684941Y-70323053D01*
X88813344Y-70412424D01*
X88851949Y-70439294D01*
X88851950Y-70439294D01*
X88851951Y-70439295D01*
X89038942Y-70519540D01*
X89238259Y-70560500D01*
X89380252Y-70560500D01*
X90875500Y-70560500D01*
X90942539Y-70580185D01*
X90988294Y-70632989D01*
X90999500Y-70684500D01*
X90999500Y-70875500D01*
X90979815Y-70942539D01*
X90927011Y-70988294D01*
X90875500Y-70999500D01*
X70124500Y-70999500D01*
X70057461Y-70979815D01*
X70011706Y-70927011D01*
X70000500Y-70875500D01*
X70000500Y-70684500D01*
X70020185Y-70617461D01*
X70072989Y-70571706D01*
X70124500Y-70560500D01*
X71700743Y-70560500D01*
X71852439Y-70545074D01*
X72046579Y-70484162D01*
X72046580Y-70484161D01*
X72046588Y-70484159D01*
X72224502Y-70385409D01*
X72378895Y-70252866D01*
X72503448Y-70091958D01*
X72593060Y-69909271D01*
X72644063Y-69712285D01*
X72654369Y-69509064D01*
X72623556Y-69307929D01*
X72552886Y-69117113D01*
X72445252Y-68944429D01*
X72307961Y-68800000D01*
X73543915Y-68800000D01*
X73564207Y-69006034D01*
X73624305Y-69204147D01*
X73721895Y-69386727D01*
X73721897Y-69386730D01*
X73853234Y-69546765D01*
X74013269Y-69678102D01*
X74013272Y-69678104D01*
X74077221Y-69712285D01*
X74195854Y-69775695D01*
X74393968Y-69835793D01*
X74548370Y-69851000D01*
X74548373Y-69851000D01*
X74651627Y-69851000D01*
X74651630Y-69851000D01*
X74806032Y-69835793D01*
X75004146Y-69775695D01*
X75186729Y-69678103D01*
X75346765Y-69546765D01*
X75478103Y-69386729D01*
X75575695Y-69204146D01*
X75635793Y-69006032D01*
X75656085Y-68800000D01*
X85343915Y-68800000D01*
X85364207Y-69006034D01*
X85424305Y-69204147D01*
X85521895Y-69386727D01*
X85521897Y-69386730D01*
X85653234Y-69546765D01*
X85813269Y-69678102D01*
X85813272Y-69678104D01*
X85877221Y-69712285D01*
X85995854Y-69775695D01*
X86193968Y-69835793D01*
X86348370Y-69851000D01*
X86348373Y-69851000D01*
X86451627Y-69851000D01*
X86451630Y-69851000D01*
X86606032Y-69835793D01*
X86804146Y-69775695D01*
X86986729Y-69678103D01*
X87146765Y-69546765D01*
X87278103Y-69386729D01*
X87375695Y-69204146D01*
X87435793Y-69006032D01*
X87456085Y-68800000D01*
X87435793Y-68593968D01*
X87375695Y-68395854D01*
X87278103Y-68213271D01*
X87278102Y-68213269D01*
X87146765Y-68053234D01*
X86986730Y-67921897D01*
X86986727Y-67921895D01*
X86804147Y-67824305D01*
X86606034Y-67764207D01*
X86544271Y-67758124D01*
X86451630Y-67749000D01*
X86348370Y-67749000D01*
X86271169Y-67756603D01*
X86193965Y-67764207D01*
X85995852Y-67824305D01*
X85813272Y-67921895D01*
X85813269Y-67921897D01*
X85653234Y-68053234D01*
X85521897Y-68213269D01*
X85521895Y-68213272D01*
X85424305Y-68395852D01*
X85364207Y-68593965D01*
X85343915Y-68800000D01*
X75656085Y-68800000D01*
X75635793Y-68593968D01*
X75575695Y-68395854D01*
X75478103Y-68213271D01*
X75478102Y-68213269D01*
X75346765Y-68053234D01*
X75186730Y-67921897D01*
X75186727Y-67921895D01*
X75004147Y-67824305D01*
X74806034Y-67764207D01*
X74744271Y-67758124D01*
X74651630Y-67749000D01*
X74548370Y-67749000D01*
X74471168Y-67756603D01*
X74393965Y-67764207D01*
X74195852Y-67824305D01*
X74013272Y-67921895D01*
X74013269Y-67921897D01*
X73853234Y-68053234D01*
X73721897Y-68213269D01*
X73721895Y-68213272D01*
X73624305Y-68395852D01*
X73564207Y-68593965D01*
X73543915Y-68800000D01*
X72307961Y-68800000D01*
X72305059Y-68796947D01*
X72206587Y-68728409D01*
X72138050Y-68680705D01*
X71951056Y-68600459D01*
X71751741Y-68559500D01*
X71609748Y-68559500D01*
X70124500Y-68559500D01*
X70057461Y-68539815D01*
X70011706Y-68487011D01*
X70000500Y-68435500D01*
X70000500Y-68144500D01*
X70020185Y-68077461D01*
X70072989Y-68031706D01*
X70124500Y-68020500D01*
X71700743Y-68020500D01*
X71852439Y-68005074D01*
X72046579Y-67944162D01*
X72046580Y-67944161D01*
X72046588Y-67944159D01*
X72224502Y-67845409D01*
X72378895Y-67712866D01*
X72503448Y-67551958D01*
X72593060Y-67369271D01*
X72644063Y-67172285D01*
X72654369Y-66969064D01*
X72623556Y-66767929D01*
X72552886Y-66577113D01*
X72445252Y-66404429D01*
X72305059Y-66256947D01*
X72295078Y-66250000D01*
X78034867Y-66250000D01*
X78053302Y-66378225D01*
X78103454Y-66488040D01*
X78107118Y-66496063D01*
X78191951Y-66593967D01*
X78300931Y-66664004D01*
X78323835Y-66670729D01*
X78425225Y-66700499D01*
X78425227Y-66700500D01*
X78425228Y-66700500D01*
X78554773Y-66700500D01*
X78554773Y-66700499D01*
X78679069Y-66664004D01*
X78788049Y-66593967D01*
X78872882Y-66496063D01*
X78926697Y-66378226D01*
X78945133Y-66250000D01*
X78926697Y-66121774D01*
X78872882Y-66003937D01*
X78788049Y-65906033D01*
X78679069Y-65835996D01*
X78679065Y-65835994D01*
X78679064Y-65835994D01*
X78554774Y-65799500D01*
X78554772Y-65799500D01*
X78425228Y-65799500D01*
X78425226Y-65799500D01*
X78300935Y-65835994D01*
X78300932Y-65835995D01*
X78300931Y-65835996D01*
X78249677Y-65868934D01*
X78191950Y-65906033D01*
X78107118Y-66003937D01*
X78107117Y-66003938D01*
X78053302Y-66121774D01*
X78034867Y-66250000D01*
X72295078Y-66250000D01*
X72206587Y-66188409D01*
X72138050Y-66140705D01*
X71951056Y-66060459D01*
X71751741Y-66019500D01*
X71609748Y-66019500D01*
X70124500Y-66019500D01*
X70057461Y-65999815D01*
X70011706Y-65947011D01*
X70000500Y-65895500D01*
X70000500Y-63064500D01*
X70020185Y-62997461D01*
X70072989Y-62951706D01*
X70124500Y-62940500D01*
X71700743Y-62940500D01*
X71852439Y-62925074D01*
X72046579Y-62864162D01*
X72046580Y-62864161D01*
X72046588Y-62864159D01*
X72224502Y-62765409D01*
X72300694Y-62700000D01*
X79444867Y-62700000D01*
X79463302Y-62828225D01*
X79509265Y-62928867D01*
X79517118Y-62946063D01*
X79601951Y-63043967D01*
X79710931Y-63114004D01*
X79835225Y-63150499D01*
X79835227Y-63150500D01*
X79835228Y-63150500D01*
X79964773Y-63150500D01*
X79964773Y-63150499D01*
X80089069Y-63114004D01*
X80198049Y-63043967D01*
X80282882Y-62946063D01*
X80336697Y-62828226D01*
X80355133Y-62700000D01*
X80336697Y-62571774D01*
X80282882Y-62453937D01*
X80198049Y-62356033D01*
X80089069Y-62285996D01*
X80089065Y-62285994D01*
X80089064Y-62285994D01*
X79964774Y-62249500D01*
X79964772Y-62249500D01*
X79835228Y-62249500D01*
X79835226Y-62249500D01*
X79710935Y-62285994D01*
X79710932Y-62285995D01*
X79710931Y-62285996D01*
X79659677Y-62318934D01*
X79601950Y-62356033D01*
X79517118Y-62453937D01*
X79517117Y-62453938D01*
X79463302Y-62571774D01*
X79444867Y-62700000D01*
X72300694Y-62700000D01*
X72378895Y-62632866D01*
X72503448Y-62471958D01*
X72593060Y-62289271D01*
X72644063Y-62092285D01*
X72654369Y-61889064D01*
X72623556Y-61687929D01*
X72552886Y-61497113D01*
X72445252Y-61324429D01*
X72326973Y-61200000D01*
X81744867Y-61200000D01*
X81763302Y-61328225D01*
X81799752Y-61408037D01*
X81817118Y-61446063D01*
X81901951Y-61543967D01*
X82010931Y-61614004D01*
X82135225Y-61650499D01*
X82135227Y-61650500D01*
X82135228Y-61650500D01*
X82264773Y-61650500D01*
X82264773Y-61650499D01*
X82389069Y-61614004D01*
X82498049Y-61543967D01*
X82582882Y-61446063D01*
X82636697Y-61328226D01*
X82655133Y-61200000D01*
X82636697Y-61071774D01*
X82582882Y-60953937D01*
X82498049Y-60856033D01*
X82389069Y-60785996D01*
X82389065Y-60785994D01*
X82389064Y-60785994D01*
X82264774Y-60749500D01*
X82264772Y-60749500D01*
X82135228Y-60749500D01*
X82135226Y-60749500D01*
X82010935Y-60785994D01*
X82010932Y-60785995D01*
X82010931Y-60785996D01*
X81965022Y-60815500D01*
X81901950Y-60856033D01*
X81817118Y-60953937D01*
X81817117Y-60953938D01*
X81763302Y-61071774D01*
X81744867Y-61200000D01*
X72326973Y-61200000D01*
X72305059Y-61176947D01*
X72206587Y-61108409D01*
X72138050Y-61060705D01*
X71951056Y-60980459D01*
X71751741Y-60939500D01*
X71609748Y-60939500D01*
X70124500Y-60939500D01*
X70057461Y-60919815D01*
X70011706Y-60867011D01*
X70000500Y-60815500D01*
X70000500Y-60524500D01*
X70020185Y-60457461D01*
X70072989Y-60411706D01*
X70124500Y-60400500D01*
X71700743Y-60400500D01*
X71852439Y-60385074D01*
X72046579Y-60324162D01*
X72046580Y-60324161D01*
X72046588Y-60324159D01*
X72224502Y-60225409D01*
X72378895Y-60092866D01*
X72503448Y-59931958D01*
X72593060Y-59749271D01*
X72644063Y-59552285D01*
X72646117Y-59511778D01*
X76433088Y-59511778D01*
X76451523Y-59640004D01*
X76501425Y-59749271D01*
X76505339Y-59757842D01*
X76559267Y-59820079D01*
X76588662Y-59854004D01*
X76590172Y-59855746D01*
X76699152Y-59925783D01*
X76761209Y-59944004D01*
X76823446Y-59962278D01*
X76823448Y-59962279D01*
X76899165Y-59962279D01*
X76966204Y-59981964D01*
X77011959Y-60034767D01*
X77017116Y-60046061D01*
X77017117Y-60046061D01*
X77017118Y-60046063D01*
X77101951Y-60143967D01*
X77210931Y-60214004D01*
X77335225Y-60250499D01*
X77335227Y-60250500D01*
X77335228Y-60250500D01*
X77464772Y-60250500D01*
X77475622Y-60247313D01*
X77545492Y-60247312D01*
X77604271Y-60285085D01*
X77633297Y-60348640D01*
X77633298Y-60348642D01*
X77643302Y-60418225D01*
X77691837Y-60524500D01*
X77697118Y-60536063D01*
X77781951Y-60633967D01*
X77890931Y-60704004D01*
X78015225Y-60740499D01*
X78015227Y-60740500D01*
X78015228Y-60740500D01*
X78144773Y-60740500D01*
X78144773Y-60740499D01*
X78269069Y-60704004D01*
X78378049Y-60633967D01*
X78462882Y-60536063D01*
X78505486Y-60442772D01*
X78551238Y-60389973D01*
X78618277Y-60370288D01*
X78685314Y-60389971D01*
X78722710Y-60414004D01*
X78722712Y-60414004D01*
X78722713Y-60414005D01*
X78847004Y-60450499D01*
X78847006Y-60450500D01*
X78847007Y-60450500D01*
X78976552Y-60450500D01*
X78976552Y-60450499D01*
X79100848Y-60414004D01*
X79209828Y-60343967D01*
X79294661Y-60246063D01*
X79348476Y-60128226D01*
X79366912Y-60000000D01*
X79348476Y-59871774D01*
X79294661Y-59753937D01*
X79209828Y-59656033D01*
X79100848Y-59585996D01*
X79100844Y-59585994D01*
X79100843Y-59585994D01*
X78976553Y-59549500D01*
X78976551Y-59549500D01*
X78847007Y-59549500D01*
X78847005Y-59549500D01*
X78722714Y-59585994D01*
X78722711Y-59585995D01*
X78722710Y-59585996D01*
X78671456Y-59618934D01*
X78613729Y-59656033D01*
X78528897Y-59753937D01*
X78528896Y-59753938D01*
X78486294Y-59847223D01*
X78440539Y-59900027D01*
X78373499Y-59919711D01*
X78306462Y-59900027D01*
X78269069Y-59875996D01*
X78269065Y-59875994D01*
X78269064Y-59875994D01*
X78144774Y-59839500D01*
X78144772Y-59839500D01*
X78015228Y-59839500D01*
X78015222Y-59839500D01*
X78004369Y-59842687D01*
X77934500Y-59842685D01*
X77875723Y-59804908D01*
X77846701Y-59741355D01*
X77844502Y-59726063D01*
X77836697Y-59671774D01*
X77782882Y-59553937D01*
X77698049Y-59456033D01*
X77673101Y-59440000D01*
X82024867Y-59440000D01*
X82043302Y-59568225D01*
X82084405Y-59658226D01*
X82097118Y-59686063D01*
X82131778Y-59726063D01*
X82175100Y-59776061D01*
X82181951Y-59783967D01*
X82290931Y-59854004D01*
X82365824Y-59875994D01*
X82415225Y-59890499D01*
X82415227Y-59890500D01*
X82415228Y-59890500D01*
X82544773Y-59890500D01*
X82544773Y-59890499D01*
X82601083Y-59873966D01*
X82669064Y-59854006D01*
X82669065Y-59854005D01*
X82669069Y-59854004D01*
X82757829Y-59796961D01*
X82824866Y-59777278D01*
X82891906Y-59796963D01*
X82918582Y-59820079D01*
X82921949Y-59823966D01*
X82921951Y-59823967D01*
X83030931Y-59894004D01*
X83155225Y-59930499D01*
X83155227Y-59930500D01*
X83155228Y-59930500D01*
X83284773Y-59930500D01*
X83284773Y-59930499D01*
X83409069Y-59894004D01*
X83414060Y-59890796D01*
X83481097Y-59871112D01*
X83548137Y-59890796D01*
X83548138Y-59890796D01*
X83630931Y-59944004D01*
X83755225Y-59980499D01*
X83755227Y-59980500D01*
X83755228Y-59980500D01*
X83884773Y-59980500D01*
X83884773Y-59980499D01*
X84009069Y-59944004D01*
X84118049Y-59873967D01*
X84202882Y-59776063D01*
X84256697Y-59658226D01*
X84275133Y-59530000D01*
X84256697Y-59401774D01*
X84202882Y-59283937D01*
X84118049Y-59186033D01*
X84009069Y-59115996D01*
X84009065Y-59115994D01*
X84009064Y-59115994D01*
X83884774Y-59079500D01*
X83884772Y-59079500D01*
X83755228Y-59079500D01*
X83755226Y-59079500D01*
X83630932Y-59115995D01*
X83630923Y-59115999D01*
X83625933Y-59119206D01*
X83558893Y-59138887D01*
X83491861Y-59119203D01*
X83458518Y-59097775D01*
X83409069Y-59065996D01*
X83409065Y-59065994D01*
X83409064Y-59065994D01*
X83284774Y-59029500D01*
X83284772Y-59029500D01*
X83155228Y-59029500D01*
X83155226Y-59029500D01*
X83030935Y-59065994D01*
X83030932Y-59065995D01*
X83030931Y-59065996D01*
X82981485Y-59097773D01*
X82942173Y-59123037D01*
X82875133Y-59142721D01*
X82808094Y-59123036D01*
X82781422Y-59099924D01*
X82778052Y-59096035D01*
X82731310Y-59065996D01*
X82669069Y-59025996D01*
X82669065Y-59025994D01*
X82669064Y-59025994D01*
X82544774Y-58989500D01*
X82544772Y-58989500D01*
X82415228Y-58989500D01*
X82415226Y-58989500D01*
X82290935Y-59025994D01*
X82290932Y-59025995D01*
X82290931Y-59025996D01*
X82285479Y-59029500D01*
X82181950Y-59096033D01*
X82097118Y-59193937D01*
X82097117Y-59193938D01*
X82043302Y-59311774D01*
X82024867Y-59440000D01*
X77673101Y-59440000D01*
X77589069Y-59385996D01*
X77589065Y-59385994D01*
X77589064Y-59385994D01*
X77464774Y-59349500D01*
X77464772Y-59349500D01*
X77389056Y-59349500D01*
X77322017Y-59329815D01*
X77276262Y-59277012D01*
X77271104Y-59265717D01*
X77271103Y-59265716D01*
X77186270Y-59167812D01*
X77077290Y-59097775D01*
X77077286Y-59097773D01*
X77077285Y-59097773D01*
X76952995Y-59061279D01*
X76952993Y-59061279D01*
X76823449Y-59061279D01*
X76823447Y-59061279D01*
X76699156Y-59097773D01*
X76699153Y-59097774D01*
X76699152Y-59097775D01*
X76647898Y-59130713D01*
X76590171Y-59167812D01*
X76505339Y-59265716D01*
X76505338Y-59265717D01*
X76451523Y-59383553D01*
X76433088Y-59511778D01*
X72646117Y-59511778D01*
X72654369Y-59349064D01*
X72623556Y-59147929D01*
X72552886Y-58957113D01*
X72445252Y-58784429D01*
X72305059Y-58636947D01*
X72206587Y-58568409D01*
X72138050Y-58520705D01*
X71951056Y-58440459D01*
X71751741Y-58399500D01*
X71609748Y-58399500D01*
X70124500Y-58399500D01*
X70057461Y-58379815D01*
X70011706Y-58327011D01*
X70000500Y-58275500D01*
X70000500Y-57984500D01*
X70020185Y-57917461D01*
X70072989Y-57871706D01*
X70124500Y-57860500D01*
X71700743Y-57860500D01*
X71852439Y-57845074D01*
X72046579Y-57784162D01*
X72046580Y-57784161D01*
X72046588Y-57784159D01*
X72224502Y-57685409D01*
X72378895Y-57552866D01*
X72503448Y-57391958D01*
X72593060Y-57209271D01*
X72644063Y-57012285D01*
X72654369Y-56809064D01*
X72623556Y-56607929D01*
X72552886Y-56417113D01*
X72445252Y-56244429D01*
X72443409Y-56242490D01*
X75207357Y-56242490D01*
X75225792Y-56370715D01*
X75279607Y-56488551D01*
X75279610Y-56488557D01*
X75368314Y-56590929D01*
X75397338Y-56654485D01*
X75397338Y-56689776D01*
X75384367Y-56779998D01*
X75384367Y-56779999D01*
X75402802Y-56908225D01*
X75460302Y-57034130D01*
X75459024Y-57034713D01*
X75476055Y-57092724D01*
X75464850Y-57144229D01*
X75426606Y-57227971D01*
X75408171Y-57356196D01*
X75426606Y-57484421D01*
X75457865Y-57552867D01*
X75480422Y-57602259D01*
X75565255Y-57700163D01*
X75674235Y-57770200D01*
X75791230Y-57804552D01*
X75798529Y-57806695D01*
X75798531Y-57806696D01*
X75798532Y-57806696D01*
X75928077Y-57806696D01*
X75928077Y-57806695D01*
X76052373Y-57770200D01*
X76161353Y-57700163D01*
X76246186Y-57602259D01*
X76300001Y-57484422D01*
X76318437Y-57356196D01*
X76300001Y-57227970D01*
X76247071Y-57112071D01*
X76242502Y-57102066D01*
X76243779Y-57101482D01*
X76243344Y-57100000D01*
X81644867Y-57100000D01*
X81663302Y-57228225D01*
X81697397Y-57302881D01*
X81717118Y-57346063D01*
X81801951Y-57443967D01*
X81910931Y-57514004D01*
X82035225Y-57550499D01*
X82035227Y-57550500D01*
X82035228Y-57550500D01*
X82164773Y-57550500D01*
X82164773Y-57550499D01*
X82289069Y-57514004D01*
X82398049Y-57443967D01*
X82482882Y-57346063D01*
X82536697Y-57228226D01*
X82555133Y-57100000D01*
X82547804Y-57049026D01*
X82557748Y-56979869D01*
X82603502Y-56927065D01*
X82670542Y-56907380D01*
X82705476Y-56912403D01*
X82835225Y-56950499D01*
X82835227Y-56950500D01*
X82835228Y-56950500D01*
X82964773Y-56950500D01*
X82964773Y-56950499D01*
X83089069Y-56914004D01*
X83198049Y-56843967D01*
X83198052Y-56843962D01*
X83202422Y-56840177D01*
X83265976Y-56811148D01*
X83335135Y-56821088D01*
X83350661Y-56829565D01*
X83450931Y-56894004D01*
X83450932Y-56894004D01*
X83450935Y-56894006D01*
X83575225Y-56930499D01*
X83575227Y-56930500D01*
X83575228Y-56930500D01*
X83704773Y-56930500D01*
X83713551Y-56929238D01*
X83714038Y-56932630D01*
X83767375Y-56932620D01*
X83826160Y-56970383D01*
X83845257Y-57000092D01*
X83857118Y-57026063D01*
X83941951Y-57123967D01*
X84050931Y-57194004D01*
X84175225Y-57230499D01*
X84175227Y-57230500D01*
X84175228Y-57230500D01*
X84304773Y-57230500D01*
X84304773Y-57230499D01*
X84429069Y-57194004D01*
X84538049Y-57123967D01*
X84622882Y-57026063D01*
X84676697Y-56908226D01*
X84695133Y-56780000D01*
X84676697Y-56651774D01*
X84622882Y-56533937D01*
X84538049Y-56436033D01*
X84429069Y-56365996D01*
X84429065Y-56365994D01*
X84429064Y-56365994D01*
X84304774Y-56329500D01*
X84304772Y-56329500D01*
X84175228Y-56329500D01*
X84166450Y-56330762D01*
X84165963Y-56327377D01*
X84112574Y-56327365D01*
X84053804Y-56289577D01*
X84034743Y-56259910D01*
X84022882Y-56233937D01*
X83938049Y-56136033D01*
X83829069Y-56065996D01*
X83829065Y-56065994D01*
X83829064Y-56065994D01*
X83704774Y-56029500D01*
X83704772Y-56029500D01*
X83575228Y-56029500D01*
X83575226Y-56029500D01*
X83450935Y-56065994D01*
X83450932Y-56065995D01*
X83450931Y-56065996D01*
X83419810Y-56085996D01*
X83341946Y-56136035D01*
X83337569Y-56139829D01*
X83274012Y-56168852D01*
X83204854Y-56158907D01*
X83189333Y-56150431D01*
X83089069Y-56085996D01*
X83089065Y-56085994D01*
X83089064Y-56085994D01*
X82964774Y-56049500D01*
X82964772Y-56049500D01*
X82835228Y-56049500D01*
X82835226Y-56049500D01*
X82710935Y-56085994D01*
X82710932Y-56085995D01*
X82710931Y-56085996D01*
X82693888Y-56096949D01*
X82601950Y-56156033D01*
X82517118Y-56253937D01*
X82517117Y-56253938D01*
X82463302Y-56371774D01*
X82444867Y-56500000D01*
X82444867Y-56500001D01*
X82452195Y-56550973D01*
X82442251Y-56620132D01*
X82396495Y-56672935D01*
X82329455Y-56692619D01*
X82294524Y-56687597D01*
X82164772Y-56649500D01*
X82035228Y-56649500D01*
X82035226Y-56649500D01*
X81910935Y-56685994D01*
X81910932Y-56685995D01*
X81910931Y-56685996D01*
X81859677Y-56718934D01*
X81801950Y-56756033D01*
X81717118Y-56853937D01*
X81717117Y-56853938D01*
X81663302Y-56971774D01*
X81644867Y-57100000D01*
X76243344Y-57100000D01*
X76226748Y-57043476D01*
X76237954Y-56991965D01*
X76247175Y-56971774D01*
X76276197Y-56908226D01*
X76294633Y-56780000D01*
X76276197Y-56651774D01*
X76222382Y-56533937D01*
X76137549Y-56436033D01*
X76133675Y-56431562D01*
X76104651Y-56368006D01*
X76104651Y-56332713D01*
X76105420Y-56327365D01*
X76117623Y-56242490D01*
X76099187Y-56114264D01*
X76056648Y-56021119D01*
X76046705Y-55951961D01*
X76060580Y-55914761D01*
X76059198Y-55914130D01*
X76071133Y-55887994D01*
X76116697Y-55788226D01*
X76135133Y-55660000D01*
X76116697Y-55531774D01*
X76116645Y-55531662D01*
X76116628Y-55531542D01*
X76114199Y-55523269D01*
X76115388Y-55522919D01*
X76106699Y-55462505D01*
X76135721Y-55398949D01*
X76172882Y-55356063D01*
X76226697Y-55238226D01*
X76245133Y-55110000D01*
X76226697Y-54981774D01*
X76172882Y-54863937D01*
X76172880Y-54863935D01*
X76171774Y-54861512D01*
X76161830Y-54792354D01*
X76171774Y-54758488D01*
X76172880Y-54756064D01*
X76172882Y-54756063D01*
X76226697Y-54638226D01*
X76245133Y-54510000D01*
X76226697Y-54381774D01*
X76172882Y-54263937D01*
X76091486Y-54170000D01*
X83754417Y-54170000D01*
X83774699Y-54375932D01*
X83803927Y-54472285D01*
X83834768Y-54573954D01*
X83932315Y-54756450D01*
X83966969Y-54798677D01*
X84063589Y-54916410D01*
X84143237Y-54981774D01*
X84223550Y-55047685D01*
X84406046Y-55145232D01*
X84604066Y-55205300D01*
X84604065Y-55205300D01*
X84622529Y-55207118D01*
X84810000Y-55225583D01*
X85015934Y-55205300D01*
X85213954Y-55145232D01*
X85396450Y-55047685D01*
X85556410Y-54916410D01*
X85687685Y-54756450D01*
X85785232Y-54573954D01*
X85845300Y-54375934D01*
X85865583Y-54170000D01*
X85845300Y-53964066D01*
X85785232Y-53766046D01*
X85687685Y-53583550D01*
X85619325Y-53500252D01*
X85556410Y-53423589D01*
X85429575Y-53319500D01*
X85396450Y-53292315D01*
X85226554Y-53201502D01*
X85213956Y-53194769D01*
X85213955Y-53194768D01*
X85213954Y-53194768D01*
X85015934Y-53134700D01*
X85015932Y-53134699D01*
X85015934Y-53134699D01*
X84810000Y-53114417D01*
X84604067Y-53134699D01*
X84406043Y-53194769D01*
X84327670Y-53236661D01*
X84223550Y-53292315D01*
X84223548Y-53292316D01*
X84223547Y-53292317D01*
X84063589Y-53423589D01*
X83932317Y-53583547D01*
X83834769Y-53766043D01*
X83774699Y-53964067D01*
X83754417Y-54170000D01*
X76091486Y-54170000D01*
X76088049Y-54166033D01*
X75979069Y-54095996D01*
X75979065Y-54095994D01*
X75979064Y-54095994D01*
X75854774Y-54059500D01*
X75854772Y-54059500D01*
X75725228Y-54059500D01*
X75725226Y-54059500D01*
X75600935Y-54095994D01*
X75600932Y-54095995D01*
X75600931Y-54095996D01*
X75549677Y-54128934D01*
X75491950Y-54166033D01*
X75407118Y-54263937D01*
X75407117Y-54263938D01*
X75353302Y-54381774D01*
X75334867Y-54510000D01*
X75353302Y-54638225D01*
X75408225Y-54758488D01*
X75418169Y-54827647D01*
X75408225Y-54861512D01*
X75353302Y-54981774D01*
X75334867Y-55110000D01*
X75353302Y-55238222D01*
X75353303Y-55238227D01*
X75353356Y-55238342D01*
X75353373Y-55238466D01*
X75355801Y-55246731D01*
X75354612Y-55247080D01*
X75363299Y-55307501D01*
X75334275Y-55371053D01*
X75297120Y-55413932D01*
X75297117Y-55413938D01*
X75243302Y-55531774D01*
X75224867Y-55660000D01*
X75243302Y-55788225D01*
X75265303Y-55836400D01*
X75285841Y-55881370D01*
X75295785Y-55950527D01*
X75281911Y-55987729D01*
X75283292Y-55988360D01*
X75225792Y-56114264D01*
X75207357Y-56242490D01*
X72443409Y-56242490D01*
X72305059Y-56096947D01*
X72196115Y-56021120D01*
X72138050Y-55980705D01*
X71951056Y-55900459D01*
X71751741Y-55859500D01*
X71609748Y-55859500D01*
X70124500Y-55859500D01*
X70057461Y-55839815D01*
X70011706Y-55787011D01*
X70000500Y-55735500D01*
X70000500Y-55444500D01*
X70020185Y-55377461D01*
X70072989Y-55331706D01*
X70124500Y-55320500D01*
X71700743Y-55320500D01*
X71852439Y-55305074D01*
X72046579Y-55244162D01*
X72046580Y-55244161D01*
X72046588Y-55244159D01*
X72224502Y-55145409D01*
X72378895Y-55012866D01*
X72489670Y-54869757D01*
X72503445Y-54851962D01*
X72503445Y-54851961D01*
X72503448Y-54851958D01*
X72593060Y-54669271D01*
X72644063Y-54472285D01*
X72654369Y-54269064D01*
X72623556Y-54067929D01*
X72552886Y-53877113D01*
X72445252Y-53704429D01*
X72305059Y-53556947D01*
X72206587Y-53488409D01*
X72138050Y-53440705D01*
X71951056Y-53360459D01*
X71751741Y-53319500D01*
X71609748Y-53319500D01*
X70124500Y-53319500D01*
X70057461Y-53299815D01*
X70011706Y-53247011D01*
X70000500Y-53195500D01*
X70000500Y-52740000D01*
X77994867Y-52740000D01*
X78013302Y-52868225D01*
X78067117Y-52986061D01*
X78067118Y-52986063D01*
X78151951Y-53083967D01*
X78260931Y-53154004D01*
X78385225Y-53190499D01*
X78385227Y-53190500D01*
X78385228Y-53190500D01*
X78514773Y-53190500D01*
X78514773Y-53190499D01*
X78639069Y-53154004D01*
X78748049Y-53083967D01*
X78826612Y-52993298D01*
X78885390Y-52955523D01*
X78920326Y-52950500D01*
X79054773Y-52950500D01*
X79054773Y-52950499D01*
X79179069Y-52914004D01*
X79288049Y-52843967D01*
X79324318Y-52802110D01*
X79869639Y-52802110D01*
X79888074Y-52930336D01*
X79916829Y-52993299D01*
X79941890Y-53048174D01*
X80026723Y-53146078D01*
X80135703Y-53216115D01*
X80259997Y-53252610D01*
X80259999Y-53252611D01*
X80260000Y-53252611D01*
X80389545Y-53252611D01*
X80389545Y-53252610D01*
X80443866Y-53236661D01*
X80522351Y-53213617D01*
X80522995Y-53215810D01*
X80579758Y-53207643D01*
X80643317Y-53236661D01*
X80655838Y-53249181D01*
X80744458Y-53351454D01*
X80744461Y-53351457D01*
X80853441Y-53421494D01*
X80922493Y-53441769D01*
X80977735Y-53457989D01*
X80977737Y-53457990D01*
X80977738Y-53457990D01*
X81107283Y-53457990D01*
X81107283Y-53457989D01*
X81231579Y-53421494D01*
X81340559Y-53351457D01*
X81425392Y-53253553D01*
X81479207Y-53135716D01*
X81497643Y-53007490D01*
X81479207Y-52879264D01*
X81425392Y-52761427D01*
X81340559Y-52663523D01*
X81231579Y-52593486D01*
X81231575Y-52593484D01*
X81231574Y-52593484D01*
X81107284Y-52556990D01*
X81107282Y-52556990D01*
X80977738Y-52556990D01*
X80977736Y-52556990D01*
X80844932Y-52595984D01*
X80844288Y-52593793D01*
X80787503Y-52601955D01*
X80723949Y-52572927D01*
X80711442Y-52560420D01*
X80622821Y-52458144D01*
X80513841Y-52388107D01*
X80513837Y-52388105D01*
X80513836Y-52388105D01*
X80389546Y-52351611D01*
X80389544Y-52351611D01*
X80260000Y-52351611D01*
X80259998Y-52351611D01*
X80135707Y-52388105D01*
X80135704Y-52388106D01*
X80135703Y-52388107D01*
X80084449Y-52421045D01*
X80026722Y-52458144D01*
X79941890Y-52556048D01*
X79941889Y-52556049D01*
X79888074Y-52673885D01*
X79869639Y-52802110D01*
X79324318Y-52802110D01*
X79372882Y-52746063D01*
X79426697Y-52628226D01*
X79445133Y-52500000D01*
X79426697Y-52371774D01*
X79372882Y-52253937D01*
X79288049Y-52156033D01*
X79179069Y-52085996D01*
X79179065Y-52085994D01*
X79179064Y-52085994D01*
X79054774Y-52049500D01*
X79054772Y-52049500D01*
X78925228Y-52049500D01*
X78925226Y-52049500D01*
X78800935Y-52085994D01*
X78800932Y-52085995D01*
X78800931Y-52085996D01*
X78749677Y-52118934D01*
X78691950Y-52156033D01*
X78613387Y-52246702D01*
X78554609Y-52284477D01*
X78519673Y-52289500D01*
X78385226Y-52289500D01*
X78260935Y-52325994D01*
X78260932Y-52325995D01*
X78260931Y-52325996D01*
X78221073Y-52351611D01*
X78151950Y-52396033D01*
X78067118Y-52493937D01*
X78067117Y-52493938D01*
X78013302Y-52611774D01*
X77994867Y-52740000D01*
X70000500Y-52740000D01*
X70000500Y-50364500D01*
X70020185Y-50297461D01*
X70072989Y-50251706D01*
X70124500Y-50240500D01*
X71700743Y-50240500D01*
X71852439Y-50225074D01*
X72046579Y-50164162D01*
X72046580Y-50164161D01*
X72046588Y-50164159D01*
X72224502Y-50065409D01*
X72347577Y-49959752D01*
X83759500Y-49959752D01*
X83771131Y-50018229D01*
X83771132Y-50018230D01*
X83815447Y-50084552D01*
X83881769Y-50128867D01*
X83881770Y-50128868D01*
X83940247Y-50140499D01*
X83940250Y-50140500D01*
X83940252Y-50140500D01*
X85679750Y-50140500D01*
X85679751Y-50140499D01*
X85694568Y-50137552D01*
X85738229Y-50128868D01*
X85738229Y-50128867D01*
X85738231Y-50128867D01*
X85804552Y-50084552D01*
X85848867Y-50018231D01*
X85848867Y-50018229D01*
X85848868Y-50018229D01*
X85860499Y-49959752D01*
X85860500Y-49959750D01*
X85860500Y-48220249D01*
X85860499Y-48220247D01*
X85848868Y-48161770D01*
X85848867Y-48161769D01*
X85804552Y-48095447D01*
X85738230Y-48051132D01*
X85738229Y-48051131D01*
X85679752Y-48039500D01*
X85679748Y-48039500D01*
X83940252Y-48039500D01*
X83940247Y-48039500D01*
X83881770Y-48051131D01*
X83881769Y-48051132D01*
X83815447Y-48095447D01*
X83771132Y-48161769D01*
X83771131Y-48161770D01*
X83759500Y-48220247D01*
X83759500Y-49959752D01*
X72347577Y-49959752D01*
X72378895Y-49932866D01*
X72503448Y-49771958D01*
X72593060Y-49589271D01*
X72644063Y-49392285D01*
X72654369Y-49189064D01*
X72623556Y-48987929D01*
X72552886Y-48797113D01*
X72445252Y-48624429D01*
X72305059Y-48476947D01*
X72206587Y-48408409D01*
X72138050Y-48360705D01*
X71951056Y-48280459D01*
X71751741Y-48239500D01*
X71609748Y-48239500D01*
X70124500Y-48239500D01*
X70057461Y-48219815D01*
X70011706Y-48167011D01*
X70000500Y-48115500D01*
X70000500Y-47824500D01*
X70020185Y-47757461D01*
X70072989Y-47711706D01*
X70124500Y-47700500D01*
X71700743Y-47700500D01*
X71852439Y-47685074D01*
X72046579Y-47624162D01*
X72046580Y-47624161D01*
X72046588Y-47624159D01*
X72224502Y-47525409D01*
X72378895Y-47392866D01*
X72503448Y-47231958D01*
X72593060Y-47049271D01*
X72644063Y-46852285D01*
X72654369Y-46649064D01*
X72623556Y-46447929D01*
X72552886Y-46257113D01*
X72542219Y-46240000D01*
X80507867Y-46240000D01*
X80526302Y-46368225D01*
X80562706Y-46447936D01*
X80580118Y-46486063D01*
X80664951Y-46583967D01*
X80773931Y-46654004D01*
X80898225Y-46690499D01*
X80898227Y-46690500D01*
X80898228Y-46690500D01*
X81027773Y-46690500D01*
X81027773Y-46690499D01*
X81152069Y-46654004D01*
X81261049Y-46583967D01*
X81345882Y-46486063D01*
X81399697Y-46368226D01*
X81418133Y-46240000D01*
X81399697Y-46111774D01*
X81348651Y-46000000D01*
X81707367Y-46000000D01*
X81725802Y-46128225D01*
X81776849Y-46240000D01*
X81779618Y-46246063D01*
X81864451Y-46343967D01*
X81973431Y-46414004D01*
X82088955Y-46447924D01*
X82097725Y-46450499D01*
X82097727Y-46450500D01*
X82097728Y-46450500D01*
X82227273Y-46450500D01*
X82227273Y-46450499D01*
X82351569Y-46414004D01*
X82460549Y-46343967D01*
X82545382Y-46246063D01*
X82599197Y-46128226D01*
X82617633Y-46000000D01*
X82599197Y-45871774D01*
X82545382Y-45753937D01*
X82460549Y-45656033D01*
X82351569Y-45585996D01*
X82351565Y-45585994D01*
X82351564Y-45585994D01*
X82227274Y-45549500D01*
X82227272Y-45549500D01*
X82097728Y-45549500D01*
X82097726Y-45549500D01*
X81973435Y-45585994D01*
X81973432Y-45585995D01*
X81973431Y-45585996D01*
X81922177Y-45618934D01*
X81864450Y-45656033D01*
X81779618Y-45753937D01*
X81779617Y-45753938D01*
X81725802Y-45871774D01*
X81707367Y-46000000D01*
X81348651Y-46000000D01*
X81345882Y-45993937D01*
X81261049Y-45896033D01*
X81152069Y-45825996D01*
X81152065Y-45825994D01*
X81152064Y-45825994D01*
X81027774Y-45789500D01*
X81027772Y-45789500D01*
X80898228Y-45789500D01*
X80898226Y-45789500D01*
X80773935Y-45825994D01*
X80773932Y-45825995D01*
X80773931Y-45825996D01*
X80722677Y-45858934D01*
X80664950Y-45896033D01*
X80580118Y-45993937D01*
X80580117Y-45993938D01*
X80526302Y-46111774D01*
X80507867Y-46240000D01*
X72542219Y-46240000D01*
X72445252Y-46084429D01*
X72305059Y-45936947D01*
X72206587Y-45868409D01*
X72138050Y-45820705D01*
X71951056Y-45740459D01*
X71751741Y-45699500D01*
X71609748Y-45699500D01*
X70124500Y-45699500D01*
X70057461Y-45679815D01*
X70011706Y-45627011D01*
X70000500Y-45575500D01*
X70000500Y-45284500D01*
X70010630Y-45250000D01*
X76074867Y-45250000D01*
X76093302Y-45378225D01*
X76147117Y-45496061D01*
X76147118Y-45496063D01*
X76231951Y-45593967D01*
X76340931Y-45664004D01*
X76465225Y-45700499D01*
X76465227Y-45700500D01*
X76465228Y-45700500D01*
X76594773Y-45700500D01*
X76594773Y-45700499D01*
X76719069Y-45664004D01*
X76828049Y-45593967D01*
X76912882Y-45496063D01*
X76966697Y-45378226D01*
X76985133Y-45250000D01*
X76966697Y-45121774D01*
X76912882Y-45003937D01*
X76828049Y-44906033D01*
X76719069Y-44835996D01*
X76719065Y-44835994D01*
X76719064Y-44835994D01*
X76594774Y-44799500D01*
X76594772Y-44799500D01*
X76465228Y-44799500D01*
X76465226Y-44799500D01*
X76340935Y-44835994D01*
X76340932Y-44835995D01*
X76340931Y-44835996D01*
X76289677Y-44868934D01*
X76231950Y-44906033D01*
X76147118Y-45003937D01*
X76147117Y-45003938D01*
X76093302Y-45121774D01*
X76074867Y-45250000D01*
X70010630Y-45250000D01*
X70020185Y-45217461D01*
X70072989Y-45171706D01*
X70124500Y-45160500D01*
X71700743Y-45160500D01*
X71852439Y-45145074D01*
X72046579Y-45084162D01*
X72046580Y-45084161D01*
X72046588Y-45084159D01*
X72224502Y-44985409D01*
X72378895Y-44852866D01*
X72503448Y-44691958D01*
X72593060Y-44509271D01*
X72644063Y-44312285D01*
X72654369Y-44109064D01*
X72623556Y-43907929D01*
X72552886Y-43717113D01*
X72445252Y-43544429D01*
X72305059Y-43396947D01*
X72206587Y-43328409D01*
X72138050Y-43280705D01*
X71951056Y-43200459D01*
X71751741Y-43159500D01*
X71609748Y-43159500D01*
X70124500Y-43159500D01*
X70057461Y-43139815D01*
X70011706Y-43087011D01*
X70000500Y-43035500D01*
X70000500Y-42744500D01*
X70020185Y-42677461D01*
X70072989Y-42631706D01*
X70124500Y-42620500D01*
X71700743Y-42620500D01*
X71852439Y-42605074D01*
X72046579Y-42544162D01*
X72046580Y-42544161D01*
X72046588Y-42544159D01*
X72224502Y-42445409D01*
X72378895Y-42312866D01*
X72503448Y-42151958D01*
X72593060Y-41969271D01*
X72595460Y-41960000D01*
X84164867Y-41960000D01*
X84183302Y-42088225D01*
X84213313Y-42153938D01*
X84237118Y-42206063D01*
X84321951Y-42303967D01*
X84430931Y-42374004D01*
X84555225Y-42410499D01*
X84555227Y-42410500D01*
X84618930Y-42410500D01*
X84685969Y-42430185D01*
X84731724Y-42482989D01*
X84741668Y-42516855D01*
X84743302Y-42528224D01*
X84794434Y-42640185D01*
X84797118Y-42646063D01*
X84881951Y-42743967D01*
X84990931Y-42814004D01*
X85115225Y-42850499D01*
X85115227Y-42850500D01*
X85115228Y-42850500D01*
X85244773Y-42850500D01*
X85244773Y-42850499D01*
X85369069Y-42814004D01*
X85478049Y-42743967D01*
X85562882Y-42646063D01*
X85616697Y-42528226D01*
X85635133Y-42400000D01*
X85616697Y-42271774D01*
X85562882Y-42153937D01*
X85478049Y-42056033D01*
X85478048Y-42056032D01*
X85444002Y-42034152D01*
X85398248Y-41981348D01*
X85388304Y-41912190D01*
X85417328Y-41848635D01*
X85462882Y-41796063D01*
X85516697Y-41678226D01*
X85535133Y-41550000D01*
X85534557Y-41545996D01*
X85531236Y-41522898D01*
X85541178Y-41453739D01*
X85586931Y-41400934D01*
X85595935Y-41396018D01*
X85599069Y-41394004D01*
X85708049Y-41323967D01*
X85792882Y-41226063D01*
X85846697Y-41108226D01*
X85865133Y-40980000D01*
X85846697Y-40851774D01*
X85792882Y-40733937D01*
X85708049Y-40636033D01*
X85599069Y-40565996D01*
X85599065Y-40565994D01*
X85599064Y-40565994D01*
X85474774Y-40529500D01*
X85474772Y-40529500D01*
X85345228Y-40529500D01*
X85345226Y-40529500D01*
X85220935Y-40565994D01*
X85220932Y-40565995D01*
X85220931Y-40565996D01*
X85169677Y-40598934D01*
X85111950Y-40636033D01*
X85027118Y-40733937D01*
X85027117Y-40733938D01*
X84973302Y-40851774D01*
X84954867Y-40979999D01*
X84958764Y-41007104D01*
X84948820Y-41076263D01*
X84903065Y-41129067D01*
X84894070Y-41133979D01*
X84781950Y-41206033D01*
X84697118Y-41303937D01*
X84697117Y-41303938D01*
X84643301Y-41421777D01*
X84642496Y-41424520D01*
X84640952Y-41426921D01*
X84639619Y-41429841D01*
X84639199Y-41429649D01*
X84604716Y-41483295D01*
X84558456Y-41508551D01*
X84430935Y-41545993D01*
X84321950Y-41616033D01*
X84237118Y-41713937D01*
X84237117Y-41713938D01*
X84183302Y-41831774D01*
X84164867Y-41960000D01*
X72595460Y-41960000D01*
X72644063Y-41772285D01*
X72654369Y-41569064D01*
X72623556Y-41367929D01*
X72552886Y-41177113D01*
X72445252Y-41004429D01*
X72305059Y-40856947D01*
X72206587Y-40788409D01*
X72138050Y-40740705D01*
X71951056Y-40660459D01*
X71751741Y-40619500D01*
X71609748Y-40619500D01*
X70124500Y-40619500D01*
X70057461Y-40599815D01*
X70011706Y-40547011D01*
X70000500Y-40495500D01*
X70000500Y-37664500D01*
X70020185Y-37597461D01*
X70072989Y-37551706D01*
X70124500Y-37540500D01*
X71700743Y-37540500D01*
X71852439Y-37525074D01*
X72046579Y-37464162D01*
X72046580Y-37464161D01*
X72046588Y-37464159D01*
X72224502Y-37365409D01*
X72378895Y-37232866D01*
X72503448Y-37071958D01*
X72593060Y-36889271D01*
X72595460Y-36880000D01*
X77924867Y-36880000D01*
X77943302Y-37008225D01*
X77978819Y-37085994D01*
X77997118Y-37126063D01*
X78081951Y-37223967D01*
X78190931Y-37294004D01*
X78221750Y-37303053D01*
X78315225Y-37330499D01*
X78315227Y-37330500D01*
X78315228Y-37330500D01*
X78444773Y-37330500D01*
X78444773Y-37330499D01*
X78569069Y-37294004D01*
X78664688Y-37232553D01*
X78731726Y-37212869D01*
X78798765Y-37232553D01*
X78825439Y-37255666D01*
X78901951Y-37343967D01*
X79010931Y-37414004D01*
X79135225Y-37450499D01*
X79135227Y-37450500D01*
X79135228Y-37450500D01*
X79264773Y-37450500D01*
X79264773Y-37450499D01*
X79389069Y-37414004D01*
X79456115Y-37370915D01*
X79523151Y-37351232D01*
X79590191Y-37370916D01*
X79635946Y-37423720D01*
X79645891Y-37492872D01*
X79644867Y-37499996D01*
X79644867Y-37499999D01*
X79663302Y-37628225D01*
X79679869Y-37664500D01*
X79717118Y-37746063D01*
X79801951Y-37843967D01*
X79910931Y-37914004D01*
X80035225Y-37950499D01*
X80035227Y-37950500D01*
X80035228Y-37950500D01*
X80164773Y-37950500D01*
X80164773Y-37950499D01*
X80289069Y-37914004D01*
X80398049Y-37843967D01*
X80482882Y-37746063D01*
X80536697Y-37628226D01*
X80555133Y-37500000D01*
X80536697Y-37371774D01*
X80482882Y-37253937D01*
X80398049Y-37156033D01*
X80289069Y-37085996D01*
X80289065Y-37085994D01*
X80289064Y-37085994D01*
X80156263Y-37047001D01*
X80156801Y-37045165D01*
X80103434Y-37020791D01*
X80065662Y-36962011D01*
X80065664Y-36892142D01*
X80080327Y-36860038D01*
X80082877Y-36856068D01*
X80082882Y-36856063D01*
X80136697Y-36738226D01*
X80155133Y-36610000D01*
X80139317Y-36500000D01*
X81244867Y-36500000D01*
X81263302Y-36628225D01*
X81276002Y-36656033D01*
X81317118Y-36746063D01*
X81401951Y-36843967D01*
X81510931Y-36914004D01*
X81620117Y-36946063D01*
X81635225Y-36950499D01*
X81635227Y-36950500D01*
X81635228Y-36950500D01*
X81764771Y-36950500D01*
X81764772Y-36950500D01*
X81784103Y-36944824D01*
X81853972Y-36944824D01*
X81912751Y-36982598D01*
X81941776Y-37046153D01*
X81931833Y-37115312D01*
X81906916Y-37148599D01*
X81907759Y-37149330D01*
X81817118Y-37253937D01*
X81817117Y-37253938D01*
X81763302Y-37371774D01*
X81744867Y-37500000D01*
X81763302Y-37628225D01*
X81779869Y-37664500D01*
X81817118Y-37746063D01*
X81901951Y-37843967D01*
X82010931Y-37914004D01*
X82135225Y-37950499D01*
X82135227Y-37950500D01*
X82135228Y-37950500D01*
X82264773Y-37950500D01*
X82264773Y-37950499D01*
X82389069Y-37914004D01*
X82498049Y-37843967D01*
X82582882Y-37746063D01*
X82636697Y-37628226D01*
X82655133Y-37500000D01*
X82636697Y-37371774D01*
X82582882Y-37253937D01*
X82498049Y-37156033D01*
X82492241Y-37149330D01*
X82494764Y-37147143D01*
X82465754Y-37101997D01*
X82465758Y-37032127D01*
X82503536Y-36973351D01*
X82517675Y-36962766D01*
X82578049Y-36923967D01*
X82662882Y-36826063D01*
X82716697Y-36708226D01*
X82735133Y-36580000D01*
X82719317Y-36470000D01*
X83074867Y-36470000D01*
X83093302Y-36598225D01*
X83115781Y-36647446D01*
X83147118Y-36716063D01*
X83231951Y-36813967D01*
X83340931Y-36884004D01*
X83443108Y-36914005D01*
X83465225Y-36920499D01*
X83465227Y-36920500D01*
X83465228Y-36920500D01*
X83594773Y-36920500D01*
X83594773Y-36920499D01*
X83719069Y-36884004D01*
X83828049Y-36813967D01*
X83912882Y-36716063D01*
X83920218Y-36700000D01*
X84744867Y-36700000D01*
X84763302Y-36828225D01*
X84807026Y-36923965D01*
X84817118Y-36946063D01*
X84901951Y-37043967D01*
X85010931Y-37114004D01*
X85135225Y-37150499D01*
X85135227Y-37150500D01*
X85135228Y-37150500D01*
X85264773Y-37150500D01*
X85264773Y-37150499D01*
X85389069Y-37114004D01*
X85498049Y-37043967D01*
X85582882Y-36946063D01*
X85636697Y-36828226D01*
X85655133Y-36700000D01*
X85636697Y-36571774D01*
X85582882Y-36453937D01*
X85498049Y-36356033D01*
X85389069Y-36285996D01*
X85389065Y-36285994D01*
X85389064Y-36285994D01*
X85264774Y-36249500D01*
X85264772Y-36249500D01*
X85135228Y-36249500D01*
X85135226Y-36249500D01*
X85010935Y-36285994D01*
X85010932Y-36285995D01*
X85010931Y-36285996D01*
X84959677Y-36318934D01*
X84901950Y-36356033D01*
X84817118Y-36453937D01*
X84817117Y-36453938D01*
X84763302Y-36571774D01*
X84744867Y-36700000D01*
X83920218Y-36700000D01*
X83966697Y-36598226D01*
X83985133Y-36470000D01*
X83966697Y-36341774D01*
X83912882Y-36223937D01*
X83828049Y-36126033D01*
X83719069Y-36055996D01*
X83719065Y-36055994D01*
X83719064Y-36055994D01*
X83594774Y-36019500D01*
X83594772Y-36019500D01*
X83465228Y-36019500D01*
X83465226Y-36019500D01*
X83340935Y-36055994D01*
X83340932Y-36055995D01*
X83340931Y-36055996D01*
X83302438Y-36080734D01*
X83231950Y-36126033D01*
X83147118Y-36223937D01*
X83147117Y-36223938D01*
X83093302Y-36341774D01*
X83074867Y-36470000D01*
X82719317Y-36470000D01*
X82716697Y-36451774D01*
X82662882Y-36333937D01*
X82578049Y-36236033D01*
X82469069Y-36165996D01*
X82469065Y-36165994D01*
X82469064Y-36165994D01*
X82344774Y-36129500D01*
X82344772Y-36129500D01*
X82215228Y-36129500D01*
X82092151Y-36165637D01*
X82022282Y-36165636D01*
X81990179Y-36150975D01*
X81971658Y-36139072D01*
X81889069Y-36085996D01*
X81889065Y-36085994D01*
X81889064Y-36085994D01*
X81764774Y-36049500D01*
X81764772Y-36049500D01*
X81635228Y-36049500D01*
X81635226Y-36049500D01*
X81510935Y-36085994D01*
X81510932Y-36085995D01*
X81510931Y-36085996D01*
X81493636Y-36097111D01*
X81401950Y-36156033D01*
X81317118Y-36253937D01*
X81317117Y-36253938D01*
X81263302Y-36371774D01*
X81244867Y-36500000D01*
X80139317Y-36500000D01*
X80136697Y-36481774D01*
X80082882Y-36363937D01*
X79998049Y-36266033D01*
X79889069Y-36195996D01*
X79889065Y-36195994D01*
X79889064Y-36195994D01*
X79764774Y-36159500D01*
X79764772Y-36159500D01*
X79635228Y-36159500D01*
X79635226Y-36159500D01*
X79510935Y-36195994D01*
X79510932Y-36195995D01*
X79510931Y-36195996D01*
X79467454Y-36223937D01*
X79401950Y-36266033D01*
X79317118Y-36363937D01*
X79317117Y-36363938D01*
X79265477Y-36477012D01*
X79219722Y-36529816D01*
X79152683Y-36549500D01*
X79135226Y-36549500D01*
X79010933Y-36585994D01*
X79010932Y-36585994D01*
X78915311Y-36647446D01*
X78848272Y-36667130D01*
X78781232Y-36647445D01*
X78754559Y-36624332D01*
X78742140Y-36610000D01*
X78678049Y-36536033D01*
X78569069Y-36465996D01*
X78569065Y-36465994D01*
X78569064Y-36465994D01*
X78444774Y-36429500D01*
X78444772Y-36429500D01*
X78315228Y-36429500D01*
X78315226Y-36429500D01*
X78190935Y-36465994D01*
X78190932Y-36465995D01*
X78190931Y-36465996D01*
X78139677Y-36498934D01*
X78081950Y-36536033D01*
X77997118Y-36633937D01*
X77997117Y-36633938D01*
X77943302Y-36751774D01*
X77924867Y-36880000D01*
X72595460Y-36880000D01*
X72644063Y-36692285D01*
X72654369Y-36489064D01*
X72623556Y-36287929D01*
X72576099Y-36159790D01*
X72552888Y-36097118D01*
X72552887Y-36097117D01*
X72552886Y-36097113D01*
X72445252Y-35924429D01*
X72305059Y-35776947D01*
X72206587Y-35708409D01*
X72138050Y-35660705D01*
X71951056Y-35580459D01*
X71751741Y-35539500D01*
X71609748Y-35539500D01*
X70124500Y-35539500D01*
X70057461Y-35519815D01*
X70040291Y-35500000D01*
X76194355Y-35500000D01*
X76214859Y-35668869D01*
X76214860Y-35668874D01*
X76275182Y-35827931D01*
X76337475Y-35918177D01*
X76371817Y-35967929D01*
X76477505Y-36061560D01*
X76499150Y-36080736D01*
X76642617Y-36156033D01*
X76649775Y-36159790D01*
X76814944Y-36200500D01*
X76985056Y-36200500D01*
X77150225Y-36159790D01*
X77229692Y-36118081D01*
X77300849Y-36080736D01*
X77300850Y-36080734D01*
X77300852Y-36080734D01*
X77428183Y-35967929D01*
X77524818Y-35827930D01*
X77585140Y-35668872D01*
X77605645Y-35500000D01*
X77585140Y-35331128D01*
X77524818Y-35172070D01*
X77428183Y-35032071D01*
X77329394Y-34944552D01*
X77300849Y-34919263D01*
X77211873Y-34872565D01*
X77161660Y-34823980D01*
X77145499Y-34762769D01*
X77145499Y-34615567D01*
X77145499Y-34278531D01*
X77165184Y-34211496D01*
X77175778Y-34197342D01*
X77202882Y-34166063D01*
X77256697Y-34048226D01*
X77275133Y-33920000D01*
X77256697Y-33791774D01*
X77202882Y-33673937D01*
X77118049Y-33576033D01*
X77009069Y-33505996D01*
X77009065Y-33505994D01*
X77009064Y-33505994D01*
X76884774Y-33469500D01*
X76884772Y-33469500D01*
X76755228Y-33469500D01*
X76755226Y-33469500D01*
X76630935Y-33505994D01*
X76630932Y-33505995D01*
X76630931Y-33505996D01*
X76579677Y-33538934D01*
X76521950Y-33576033D01*
X76437118Y-33673937D01*
X76437117Y-33673938D01*
X76383302Y-33791774D01*
X76364867Y-33920000D01*
X76383302Y-34048225D01*
X76430826Y-34152285D01*
X76437118Y-34166063D01*
X76464213Y-34197333D01*
X76493238Y-34260888D01*
X76494500Y-34278535D01*
X76494500Y-34867575D01*
X76474815Y-34934614D01*
X76452728Y-34960390D01*
X76371817Y-35032070D01*
X76371815Y-35032073D01*
X76275182Y-35172068D01*
X76214860Y-35331125D01*
X76214859Y-35331130D01*
X76194355Y-35500000D01*
X70040291Y-35500000D01*
X70011706Y-35467011D01*
X70000500Y-35415500D01*
X70000500Y-35124500D01*
X70020185Y-35057461D01*
X70072989Y-35011706D01*
X70124500Y-35000500D01*
X71700743Y-35000500D01*
X71852439Y-34985074D01*
X72046579Y-34924162D01*
X72046580Y-34924161D01*
X72046588Y-34924159D01*
X72224502Y-34825409D01*
X72378895Y-34692866D01*
X72503448Y-34531958D01*
X72593060Y-34349271D01*
X72644063Y-34152285D01*
X72654369Y-33949064D01*
X72623556Y-33747929D01*
X72552886Y-33557113D01*
X72445252Y-33384429D01*
X72305059Y-33236947D01*
X72206587Y-33168409D01*
X72138050Y-33120705D01*
X71951056Y-33040459D01*
X71751741Y-32999500D01*
X71609748Y-32999500D01*
X70124500Y-32999500D01*
X70057461Y-32979815D01*
X70011706Y-32927011D01*
X70000500Y-32875500D01*
X70000500Y-32590000D01*
X76764867Y-32590000D01*
X76783302Y-32718225D01*
X76837117Y-32836061D01*
X76837118Y-32836063D01*
X76921951Y-32933967D01*
X77030931Y-33004004D01*
X77155092Y-33040460D01*
X77155225Y-33040499D01*
X77155227Y-33040500D01*
X77155228Y-33040500D01*
X77284773Y-33040500D01*
X77284773Y-33040499D01*
X77409069Y-33004004D01*
X77437399Y-32985797D01*
X77504435Y-32966111D01*
X77571475Y-32985794D01*
X77571478Y-32985796D01*
X77630931Y-33024004D01*
X77630933Y-33024005D01*
X77755225Y-33060499D01*
X77755227Y-33060500D01*
X77755228Y-33060500D01*
X77884773Y-33060500D01*
X77884773Y-33060499D01*
X78009069Y-33024004D01*
X78057962Y-32992582D01*
X78125000Y-32972898D01*
X78192035Y-32992581D01*
X78240931Y-33024004D01*
X78240933Y-33024004D01*
X78240934Y-33024005D01*
X78365225Y-33060499D01*
X78365227Y-33060500D01*
X78365228Y-33060500D01*
X78494773Y-33060500D01*
X78494773Y-33060499D01*
X78619069Y-33024004D01*
X78728049Y-32953967D01*
X78812882Y-32856063D01*
X78866697Y-32738226D01*
X78885133Y-32610000D01*
X78866697Y-32481774D01*
X78812882Y-32363937D01*
X78728049Y-32266033D01*
X78619069Y-32195996D01*
X78619065Y-32195994D01*
X78619064Y-32195994D01*
X78494774Y-32159500D01*
X78494772Y-32159500D01*
X78365228Y-32159500D01*
X78365226Y-32159500D01*
X78240934Y-32195994D01*
X78192036Y-32227418D01*
X78124997Y-32247101D01*
X78057962Y-32227417D01*
X78009069Y-32195996D01*
X78009068Y-32195995D01*
X78009064Y-32195993D01*
X77884774Y-32159500D01*
X77884772Y-32159500D01*
X77755228Y-32159500D01*
X77755226Y-32159500D01*
X77630932Y-32195995D01*
X77630928Y-32195997D01*
X77602596Y-32214204D01*
X77535556Y-32233887D01*
X77468520Y-32214203D01*
X77409069Y-32175996D01*
X77409065Y-32175994D01*
X77409064Y-32175994D01*
X77284774Y-32139500D01*
X77284772Y-32139500D01*
X77155228Y-32139500D01*
X77155226Y-32139500D01*
X77030935Y-32175994D01*
X77030932Y-32175995D01*
X77030931Y-32175996D01*
X76999809Y-32195997D01*
X76921950Y-32246033D01*
X76837118Y-32343937D01*
X76837117Y-32343938D01*
X76783302Y-32461774D01*
X76764867Y-32590000D01*
X70000500Y-32590000D01*
X70000500Y-32584500D01*
X70020185Y-32517461D01*
X70072989Y-32471706D01*
X70124500Y-32460500D01*
X71700743Y-32460500D01*
X71852439Y-32445074D01*
X72046579Y-32384162D01*
X72046580Y-32384161D01*
X72046588Y-32384159D01*
X72224502Y-32285409D01*
X72378895Y-32152866D01*
X72503448Y-31991958D01*
X72593060Y-31809271D01*
X72644063Y-31612285D01*
X72654369Y-31409064D01*
X72623556Y-31207929D01*
X72552886Y-31017113D01*
X72445252Y-30844429D01*
X72305059Y-30696947D01*
X72187581Y-30615180D01*
X72138050Y-30580705D01*
X71951056Y-30500459D01*
X71948822Y-30500000D01*
X77544867Y-30500000D01*
X77563302Y-30628225D01*
X77604023Y-30717389D01*
X77617118Y-30746063D01*
X77665094Y-30801431D01*
X77701369Y-30843296D01*
X77701951Y-30843967D01*
X77810931Y-30914004D01*
X77935225Y-30950499D01*
X77935227Y-30950500D01*
X77935228Y-30950500D01*
X78064773Y-30950500D01*
X78064773Y-30950499D01*
X78189069Y-30914004D01*
X78298049Y-30843967D01*
X78298374Y-30843591D01*
X78298631Y-30843296D01*
X78299379Y-30842815D01*
X78304754Y-30838158D01*
X78305423Y-30838930D01*
X78357409Y-30805523D01*
X78392343Y-30800500D01*
X78924167Y-30800500D01*
X78991206Y-30820185D01*
X79011848Y-30836819D01*
X79210770Y-31035741D01*
X79244255Y-31097064D01*
X79239271Y-31166756D01*
X79239031Y-31167392D01*
X79214861Y-31231122D01*
X79214859Y-31231130D01*
X79194355Y-31399999D01*
X79194355Y-31400000D01*
X79195456Y-31409064D01*
X79214859Y-31568869D01*
X79214860Y-31568874D01*
X79275182Y-31727931D01*
X79331328Y-31809271D01*
X79371817Y-31867929D01*
X79411277Y-31902887D01*
X79499150Y-31980736D01*
X79649773Y-32059789D01*
X79649775Y-32059790D01*
X79814944Y-32100500D01*
X79985056Y-32100500D01*
X80150225Y-32059790D01*
X80229692Y-32018081D01*
X80300849Y-31980736D01*
X80300850Y-31980734D01*
X80300852Y-31980734D01*
X80428183Y-31867929D01*
X80524818Y-31727930D01*
X80585140Y-31568872D01*
X80605645Y-31400000D01*
X81694355Y-31400000D01*
X81714859Y-31568869D01*
X81714860Y-31568874D01*
X81775182Y-31727931D01*
X81831328Y-31809271D01*
X81871817Y-31867929D01*
X81911277Y-31902887D01*
X81999150Y-31980736D01*
X82149773Y-32059789D01*
X82149775Y-32059790D01*
X82314944Y-32100500D01*
X82485056Y-32100500D01*
X82650225Y-32059790D01*
X82729692Y-32018081D01*
X82800849Y-31980736D01*
X82800850Y-31980734D01*
X82800852Y-31980734D01*
X82928183Y-31867929D01*
X83024818Y-31727930D01*
X83085140Y-31568872D01*
X83105645Y-31400000D01*
X83085140Y-31231128D01*
X83024818Y-31072070D01*
X82928183Y-30932071D01*
X82800852Y-30819266D01*
X82774668Y-30805523D01*
X82766872Y-30801431D01*
X82716661Y-30752846D01*
X82700500Y-30691636D01*
X82700500Y-30362839D01*
X82701095Y-30354263D01*
X82702771Y-30342240D01*
X82702773Y-30342236D01*
X82700566Y-30294491D01*
X82700500Y-30291628D01*
X82700500Y-30272159D01*
X82700499Y-30272153D01*
X82700009Y-30269533D01*
X82699016Y-30260980D01*
X82699016Y-30260978D01*
X82697585Y-30230009D01*
X82694788Y-30223676D01*
X82686332Y-30196370D01*
X82685061Y-30189567D01*
X82673704Y-30171225D01*
X82655133Y-30105950D01*
X82655133Y-30100001D01*
X82653119Y-30085996D01*
X82636697Y-29971774D01*
X82582882Y-29853937D01*
X82498049Y-29756033D01*
X82389069Y-29685996D01*
X82389065Y-29685994D01*
X82389064Y-29685994D01*
X82264774Y-29649500D01*
X82264772Y-29649500D01*
X82135228Y-29649500D01*
X82135226Y-29649500D01*
X82010935Y-29685994D01*
X82010932Y-29685995D01*
X82010931Y-29685996D01*
X81959677Y-29718934D01*
X81901950Y-29756033D01*
X81817118Y-29853937D01*
X81817117Y-29853938D01*
X81763302Y-29971774D01*
X81744867Y-30100000D01*
X81763302Y-30228225D01*
X81807711Y-30325465D01*
X81817118Y-30346063D01*
X81901951Y-30443967D01*
X82010931Y-30514004D01*
X82010933Y-30514004D01*
X82010934Y-30514005D01*
X82019002Y-30517690D01*
X82018410Y-30518985D01*
X82069208Y-30551627D01*
X82098237Y-30615180D01*
X82099500Y-30632835D01*
X82099500Y-30691636D01*
X82079815Y-30758675D01*
X82033128Y-30801431D01*
X81999151Y-30819264D01*
X81999148Y-30819266D01*
X81876371Y-30928037D01*
X81871816Y-30932072D01*
X81775182Y-31072068D01*
X81714860Y-31231125D01*
X81714859Y-31231130D01*
X81694355Y-31400000D01*
X80605645Y-31400000D01*
X80585140Y-31231128D01*
X80524818Y-31072070D01*
X80428183Y-30932071D01*
X80320665Y-30836819D01*
X80300849Y-30819263D01*
X80150226Y-30740210D01*
X79985056Y-30699500D01*
X79814944Y-30699500D01*
X79814942Y-30699500D01*
X79810256Y-30700655D01*
X79740454Y-30697581D01*
X79692908Y-30667937D01*
X79356922Y-30331951D01*
X79351278Y-30325465D01*
X79343956Y-30315770D01*
X79308624Y-30283560D01*
X79306573Y-30281602D01*
X79292797Y-30267826D01*
X79290586Y-30266311D01*
X79283853Y-30260978D01*
X79260933Y-30240084D01*
X79254470Y-30237580D01*
X79229192Y-30224256D01*
X79223481Y-30220344D01*
X79223478Y-30220343D01*
X79223479Y-30220343D01*
X79193302Y-30213244D01*
X79185094Y-30210703D01*
X79156173Y-30199500D01*
X79149249Y-30199500D01*
X79120858Y-30196206D01*
X79114119Y-30194621D01*
X79083409Y-30198905D01*
X79074834Y-30199500D01*
X78392343Y-30199500D01*
X78325304Y-30179815D01*
X78298631Y-30156704D01*
X78298050Y-30156034D01*
X78298049Y-30156033D01*
X78189069Y-30085996D01*
X78189065Y-30085994D01*
X78189064Y-30085994D01*
X78064774Y-30049500D01*
X78064772Y-30049500D01*
X77935228Y-30049500D01*
X77935226Y-30049500D01*
X77810935Y-30085994D01*
X77810932Y-30085995D01*
X77810931Y-30085996D01*
X77789139Y-30100001D01*
X77701950Y-30156033D01*
X77617118Y-30253937D01*
X77617117Y-30253938D01*
X77563302Y-30371774D01*
X77544867Y-30500000D01*
X71948822Y-30500000D01*
X71751741Y-30459500D01*
X71609748Y-30459500D01*
X70124500Y-30459500D01*
X70057461Y-30439815D01*
X70011706Y-30387011D01*
X70000500Y-30335500D01*
X70000500Y-30044500D01*
X70020185Y-29977461D01*
X70072989Y-29931706D01*
X70124500Y-29920500D01*
X71700743Y-29920500D01*
X71852439Y-29905074D01*
X72046579Y-29844162D01*
X72046580Y-29844161D01*
X72046588Y-29844159D01*
X72224502Y-29745409D01*
X72378895Y-29612866D01*
X72503448Y-29451958D01*
X72593060Y-29269271D01*
X72644063Y-29072285D01*
X72654369Y-28869064D01*
X72623556Y-28667929D01*
X72598398Y-28600000D01*
X78444867Y-28600000D01*
X78463302Y-28728225D01*
X78481337Y-28767715D01*
X78517118Y-28846063D01*
X78568640Y-28905523D01*
X78601369Y-28943296D01*
X78601951Y-28943967D01*
X78710931Y-29014004D01*
X78835225Y-29050499D01*
X78835227Y-29050500D01*
X78835228Y-29050500D01*
X78964773Y-29050500D01*
X78964773Y-29050499D01*
X79089069Y-29014004D01*
X79198049Y-28943967D01*
X79198374Y-28943591D01*
X79198631Y-28943296D01*
X79199379Y-28942815D01*
X79204754Y-28938158D01*
X79205423Y-28938930D01*
X79257409Y-28905523D01*
X79292343Y-28900500D01*
X79560194Y-28900500D01*
X79627233Y-28920185D01*
X79662244Y-28954060D01*
X79671816Y-28967928D01*
X79799150Y-29080736D01*
X79949773Y-29159789D01*
X79949775Y-29159790D01*
X80114944Y-29200500D01*
X80285056Y-29200500D01*
X80450225Y-29159790D01*
X80529692Y-29118081D01*
X80600849Y-29080736D01*
X80600850Y-29080734D01*
X80600852Y-29080734D01*
X80728183Y-28967929D01*
X80824818Y-28827930D01*
X80885140Y-28668872D01*
X80905645Y-28500000D01*
X80885140Y-28331128D01*
X80824818Y-28172070D01*
X80814379Y-28156947D01*
X80771336Y-28094589D01*
X80728183Y-28032071D01*
X80618529Y-27934926D01*
X80600849Y-27919263D01*
X80450226Y-27840210D01*
X80285056Y-27799500D01*
X80114944Y-27799500D01*
X79949773Y-27840210D01*
X79799150Y-27919263D01*
X79671816Y-28032072D01*
X79575182Y-28172068D01*
X79575181Y-28172071D01*
X79557206Y-28219470D01*
X79515029Y-28275173D01*
X79449432Y-28299231D01*
X79441264Y-28299500D01*
X79292343Y-28299500D01*
X79225304Y-28279815D01*
X79198631Y-28256704D01*
X79198050Y-28256034D01*
X79198049Y-28256033D01*
X79089069Y-28185996D01*
X79089065Y-28185994D01*
X79089064Y-28185994D01*
X78964774Y-28149500D01*
X78964772Y-28149500D01*
X78835228Y-28149500D01*
X78835226Y-28149500D01*
X78710935Y-28185994D01*
X78710932Y-28185995D01*
X78710931Y-28185996D01*
X78659677Y-28218934D01*
X78601950Y-28256033D01*
X78517118Y-28353937D01*
X78517117Y-28353938D01*
X78463302Y-28471774D01*
X78444867Y-28600000D01*
X72598398Y-28600000D01*
X72552886Y-28477113D01*
X72445252Y-28304429D01*
X72305059Y-28156947D01*
X72206587Y-28088409D01*
X72138050Y-28040705D01*
X71951056Y-27960459D01*
X71751741Y-27919500D01*
X71609748Y-27919500D01*
X70124500Y-27919500D01*
X70057461Y-27899815D01*
X70011706Y-27847011D01*
X70000500Y-27795500D01*
X70000500Y-26800000D01*
X83344867Y-26800000D01*
X83363302Y-26928225D01*
X83417117Y-27046061D01*
X83417118Y-27046063D01*
X83501951Y-27143967D01*
X83610931Y-27214004D01*
X83735225Y-27250499D01*
X83735227Y-27250500D01*
X83735228Y-27250500D01*
X83864773Y-27250500D01*
X83864773Y-27250499D01*
X83989069Y-27214004D01*
X84098049Y-27143967D01*
X84182882Y-27046063D01*
X84236697Y-26928226D01*
X84255133Y-26800000D01*
X84236697Y-26671774D01*
X84182882Y-26553937D01*
X84098049Y-26456033D01*
X84010860Y-26400000D01*
X85744867Y-26400000D01*
X85763302Y-26528225D01*
X85775045Y-26553937D01*
X85817118Y-26646063D01*
X85901951Y-26743967D01*
X86010931Y-26814004D01*
X86135225Y-26850499D01*
X86135227Y-26850500D01*
X86135228Y-26850500D01*
X86264773Y-26850500D01*
X86264773Y-26850499D01*
X86389069Y-26814004D01*
X86498049Y-26743967D01*
X86582882Y-26646063D01*
X86636697Y-26528226D01*
X86655133Y-26400000D01*
X86636697Y-26271774D01*
X86582882Y-26153937D01*
X86498049Y-26056033D01*
X86389069Y-25985996D01*
X86389065Y-25985994D01*
X86389064Y-25985994D01*
X86264774Y-25949500D01*
X86264772Y-25949500D01*
X86135228Y-25949500D01*
X86135226Y-25949500D01*
X86010935Y-25985994D01*
X86010932Y-25985995D01*
X86010931Y-25985996D01*
X85959677Y-26018934D01*
X85901950Y-26056033D01*
X85817118Y-26153937D01*
X85817117Y-26153938D01*
X85763302Y-26271774D01*
X85744867Y-26400000D01*
X84010860Y-26400000D01*
X83989069Y-26385996D01*
X83989065Y-26385994D01*
X83989064Y-26385994D01*
X83864774Y-26349500D01*
X83864772Y-26349500D01*
X83735228Y-26349500D01*
X83735226Y-26349500D01*
X83610935Y-26385994D01*
X83610932Y-26385995D01*
X83610931Y-26385996D01*
X83559677Y-26418934D01*
X83501950Y-26456033D01*
X83417118Y-26553937D01*
X83417117Y-26553938D01*
X83363302Y-26671774D01*
X83344867Y-26800000D01*
X70000500Y-26800000D01*
X70000500Y-26200000D01*
X81944867Y-26200000D01*
X81963302Y-26328225D01*
X81989685Y-26385994D01*
X82017118Y-26446063D01*
X82101951Y-26543967D01*
X82210931Y-26614004D01*
X82320117Y-26646063D01*
X82335225Y-26650499D01*
X82335227Y-26650500D01*
X82335228Y-26650500D01*
X82464773Y-26650500D01*
X82464773Y-26650499D01*
X82589069Y-26614004D01*
X82698049Y-26543967D01*
X82782882Y-26446063D01*
X82836697Y-26328226D01*
X82855133Y-26200000D01*
X82836697Y-26071774D01*
X82782882Y-25953937D01*
X82698049Y-25856033D01*
X82589069Y-25785996D01*
X82589065Y-25785994D01*
X82589064Y-25785994D01*
X82464774Y-25749500D01*
X82464772Y-25749500D01*
X82335228Y-25749500D01*
X82335226Y-25749500D01*
X82210935Y-25785994D01*
X82210932Y-25785995D01*
X82210931Y-25785996D01*
X82159677Y-25818934D01*
X82101950Y-25856033D01*
X82017118Y-25953937D01*
X82017117Y-25953938D01*
X81963302Y-26071774D01*
X81944867Y-26200000D01*
X70000500Y-26200000D01*
X70000500Y-24964500D01*
X70020185Y-24897461D01*
X70072989Y-24851706D01*
X70124500Y-24840500D01*
X71700743Y-24840500D01*
X71852439Y-24825074D01*
X72046579Y-24764162D01*
X72046580Y-24764161D01*
X72046588Y-24764159D01*
X72224502Y-24665409D01*
X72378895Y-24532866D01*
X72503448Y-24371958D01*
X72593060Y-24189271D01*
X72644063Y-23992285D01*
X72654369Y-23789064D01*
X72625405Y-23600000D01*
X75844867Y-23600000D01*
X75863302Y-23728225D01*
X75891087Y-23789064D01*
X75917118Y-23846063D01*
X76001951Y-23943967D01*
X76110931Y-24014004D01*
X76227654Y-24048276D01*
X76235225Y-24050499D01*
X76235227Y-24050500D01*
X76235228Y-24050500D01*
X76364773Y-24050500D01*
X76364773Y-24050499D01*
X76489069Y-24014004D01*
X76598049Y-23943967D01*
X76682882Y-23846063D01*
X76736697Y-23728226D01*
X76755133Y-23600000D01*
X76736697Y-23471774D01*
X76682882Y-23353937D01*
X76598049Y-23256033D01*
X76510860Y-23200000D01*
X78794355Y-23200000D01*
X78814859Y-23368869D01*
X78814860Y-23368874D01*
X78875182Y-23527931D01*
X78916601Y-23587936D01*
X78971817Y-23667929D01*
X79077505Y-23761560D01*
X79099150Y-23780736D01*
X79249773Y-23859789D01*
X79249775Y-23859790D01*
X79414944Y-23900500D01*
X79583449Y-23900500D01*
X79650488Y-23920185D01*
X79656336Y-23924183D01*
X79661658Y-23928050D01*
X79681395Y-23938106D01*
X79697981Y-23948269D01*
X79715910Y-23961296D01*
X79715912Y-23961296D01*
X79715913Y-23961297D01*
X79736974Y-23968140D01*
X79754953Y-23975586D01*
X79774696Y-23985646D01*
X79796585Y-23989112D01*
X79815501Y-23993653D01*
X79836567Y-24000499D01*
X79865924Y-24000499D01*
X79865948Y-24000500D01*
X79868481Y-24000500D01*
X80254386Y-24000500D01*
X80305894Y-24011704D01*
X80310928Y-24014002D01*
X80310931Y-24014004D01*
X80427654Y-24048276D01*
X80435225Y-24050499D01*
X80435227Y-24050500D01*
X80435228Y-24050500D01*
X80564773Y-24050500D01*
X80564773Y-24050499D01*
X80675293Y-24018049D01*
X80689063Y-24014006D01*
X80689063Y-24014005D01*
X80689069Y-24014004D01*
X80718743Y-23994933D01*
X80785777Y-23975250D01*
X80852817Y-23994934D01*
X80879491Y-24018046D01*
X80901951Y-24043967D01*
X81010931Y-24114004D01*
X81059368Y-24128226D01*
X81135225Y-24150499D01*
X81135227Y-24150500D01*
X81135228Y-24150500D01*
X81264773Y-24150500D01*
X81264773Y-24150499D01*
X81389069Y-24114004D01*
X81389073Y-24114000D01*
X81394106Y-24111704D01*
X81445614Y-24100500D01*
X81463431Y-24100500D01*
X81463433Y-24100500D01*
X81484501Y-24093654D01*
X81503417Y-24089112D01*
X81525304Y-24085646D01*
X81545044Y-24075586D01*
X81563011Y-24068144D01*
X81584090Y-24061296D01*
X81602026Y-24048263D01*
X81618588Y-24038114D01*
X81638342Y-24028050D01*
X81653834Y-24012557D01*
X81653841Y-24012552D01*
X81666393Y-24000000D01*
X84844867Y-24000000D01*
X84863302Y-24128225D01*
X84917117Y-24246061D01*
X84917118Y-24246063D01*
X85001951Y-24343967D01*
X85110931Y-24414004D01*
X85215897Y-24444824D01*
X85235225Y-24450499D01*
X85235227Y-24450500D01*
X85235228Y-24450500D01*
X85364771Y-24450500D01*
X85364772Y-24450500D01*
X85384103Y-24444824D01*
X85453972Y-24444824D01*
X85512751Y-24482598D01*
X85541776Y-24546153D01*
X85531833Y-24615312D01*
X85506916Y-24648599D01*
X85507759Y-24649330D01*
X85417118Y-24753937D01*
X85417117Y-24753938D01*
X85363302Y-24871774D01*
X85344867Y-25000000D01*
X85363302Y-25128225D01*
X85417117Y-25246061D01*
X85417118Y-25246063D01*
X85501951Y-25343967D01*
X85610931Y-25414004D01*
X85735225Y-25450499D01*
X85735227Y-25450500D01*
X85735228Y-25450500D01*
X85864773Y-25450500D01*
X85864773Y-25450499D01*
X85989069Y-25414004D01*
X86098049Y-25343967D01*
X86182882Y-25246063D01*
X86236697Y-25128226D01*
X86255133Y-25000000D01*
X86236697Y-24871774D01*
X86182882Y-24753937D01*
X86098049Y-24656033D01*
X85989069Y-24585996D01*
X85989065Y-24585994D01*
X85989064Y-24585994D01*
X85864774Y-24549500D01*
X85864772Y-24549500D01*
X85735228Y-24549500D01*
X85735222Y-24549500D01*
X85715891Y-24555176D01*
X85646022Y-24555174D01*
X85587245Y-24517397D01*
X85558222Y-24453840D01*
X85568169Y-24384682D01*
X85593086Y-24351402D01*
X85592241Y-24350670D01*
X85598050Y-24343966D01*
X85682882Y-24246063D01*
X85736697Y-24128226D01*
X85755133Y-24000000D01*
X85736697Y-23871774D01*
X85682882Y-23753937D01*
X85598049Y-23656033D01*
X85489069Y-23585996D01*
X85489065Y-23585994D01*
X85489064Y-23585994D01*
X85364774Y-23549500D01*
X85364772Y-23549500D01*
X85235228Y-23549500D01*
X85235226Y-23549500D01*
X85110935Y-23585994D01*
X85110932Y-23585995D01*
X85110931Y-23585996D01*
X85059677Y-23618934D01*
X85001950Y-23656033D01*
X84917118Y-23753937D01*
X84917117Y-23753938D01*
X84863302Y-23871774D01*
X84844867Y-24000000D01*
X81666393Y-24000000D01*
X81729574Y-23936819D01*
X81790897Y-23903334D01*
X81817255Y-23900500D01*
X81985056Y-23900500D01*
X82150225Y-23859790D01*
X82284983Y-23789063D01*
X82300849Y-23780736D01*
X82300850Y-23780734D01*
X82300852Y-23780734D01*
X82428183Y-23667929D01*
X82524818Y-23527930D01*
X82585140Y-23368872D01*
X82605645Y-23200000D01*
X82585140Y-23031128D01*
X82578868Y-23014591D01*
X82524817Y-22872068D01*
X82488749Y-22819815D01*
X82428183Y-22732071D01*
X82300852Y-22619266D01*
X82300849Y-22619263D01*
X82150226Y-22540210D01*
X81985056Y-22499500D01*
X81814944Y-22499500D01*
X81649773Y-22540210D01*
X81499150Y-22619263D01*
X81371816Y-22732072D01*
X81275182Y-22872068D01*
X81214860Y-23031125D01*
X81214859Y-23031131D01*
X81200147Y-23152293D01*
X81172525Y-23216471D01*
X81114590Y-23255527D01*
X81111986Y-23256323D01*
X81010935Y-23285994D01*
X81010932Y-23285995D01*
X81010931Y-23285996D01*
X80981256Y-23305066D01*
X80914218Y-23324749D01*
X80847179Y-23305063D01*
X80820508Y-23281953D01*
X80798049Y-23256033D01*
X80689069Y-23185996D01*
X80689065Y-23185994D01*
X80689064Y-23185994D01*
X80564774Y-23149500D01*
X80564772Y-23149500D01*
X80435228Y-23149500D01*
X80435226Y-23149500D01*
X80348020Y-23175105D01*
X80278150Y-23175105D01*
X80219372Y-23137330D01*
X80190348Y-23073774D01*
X80189990Y-23071073D01*
X80185140Y-23031132D01*
X80185140Y-23031130D01*
X80185140Y-23031128D01*
X80178868Y-23014591D01*
X80124817Y-22872068D01*
X80088749Y-22819815D01*
X80028183Y-22732071D01*
X79900852Y-22619266D01*
X79900849Y-22619263D01*
X79750226Y-22540210D01*
X79585056Y-22499500D01*
X79414944Y-22499500D01*
X79249773Y-22540210D01*
X79099150Y-22619263D01*
X78971816Y-22732072D01*
X78875182Y-22872068D01*
X78814860Y-23031125D01*
X78814859Y-23031130D01*
X78794355Y-23200000D01*
X76510860Y-23200000D01*
X76489069Y-23185996D01*
X76489065Y-23185994D01*
X76489064Y-23185994D01*
X76364774Y-23149500D01*
X76364772Y-23149500D01*
X76235228Y-23149500D01*
X76235226Y-23149500D01*
X76110935Y-23185994D01*
X76110932Y-23185995D01*
X76110931Y-23185996D01*
X76063511Y-23216471D01*
X76001950Y-23256033D01*
X75917118Y-23353937D01*
X75917117Y-23353938D01*
X75863302Y-23471774D01*
X75844867Y-23600000D01*
X72625405Y-23600000D01*
X72623556Y-23587929D01*
X72552886Y-23397113D01*
X72445252Y-23224429D01*
X72305059Y-23076947D01*
X72206587Y-23008409D01*
X72138050Y-22960705D01*
X71951056Y-22880459D01*
X71751741Y-22839500D01*
X71609748Y-22839500D01*
X70124500Y-22839500D01*
X70057461Y-22819815D01*
X70011706Y-22767011D01*
X70000500Y-22715500D01*
X70000500Y-22424500D01*
X70020185Y-22357461D01*
X70072989Y-22311706D01*
X70124500Y-22300500D01*
X71700743Y-22300500D01*
X71852439Y-22285074D01*
X72046579Y-22224162D01*
X72046580Y-22224161D01*
X72046588Y-22224159D01*
X72224502Y-22125409D01*
X72254100Y-22100000D01*
X73643915Y-22100000D01*
X73664207Y-22306034D01*
X73724305Y-22504147D01*
X73821895Y-22686727D01*
X73821897Y-22686730D01*
X73953234Y-22846765D01*
X74113269Y-22978102D01*
X74113272Y-22978104D01*
X74287207Y-23071073D01*
X74295854Y-23075695D01*
X74493968Y-23135793D01*
X74648370Y-23151000D01*
X74648373Y-23151000D01*
X74751627Y-23151000D01*
X74751630Y-23151000D01*
X74906032Y-23135793D01*
X75104146Y-23075695D01*
X75286729Y-22978103D01*
X75446765Y-22846765D01*
X75578103Y-22686729D01*
X75675695Y-22504146D01*
X75735793Y-22306032D01*
X75756085Y-22100000D01*
X85343915Y-22100000D01*
X85364207Y-22306034D01*
X85424305Y-22504147D01*
X85521895Y-22686727D01*
X85521897Y-22686730D01*
X85653234Y-22846765D01*
X85813269Y-22978102D01*
X85813272Y-22978104D01*
X85987207Y-23071073D01*
X85995854Y-23075695D01*
X86193968Y-23135793D01*
X86348370Y-23151000D01*
X86348373Y-23151000D01*
X86451627Y-23151000D01*
X86451630Y-23151000D01*
X86606032Y-23135793D01*
X86804146Y-23075695D01*
X86986729Y-22978103D01*
X87146765Y-22846765D01*
X87278103Y-22686729D01*
X87375695Y-22504146D01*
X87435793Y-22306032D01*
X87456085Y-22100000D01*
X87435793Y-21893968D01*
X87375695Y-21695854D01*
X87278103Y-21513271D01*
X87278102Y-21513269D01*
X87146765Y-21353234D01*
X86986730Y-21221897D01*
X86986727Y-21221895D01*
X86804147Y-21124305D01*
X86606034Y-21064207D01*
X86544271Y-21058124D01*
X86451630Y-21049000D01*
X86348370Y-21049000D01*
X86271168Y-21056603D01*
X86193965Y-21064207D01*
X85995852Y-21124305D01*
X85813272Y-21221895D01*
X85813269Y-21221897D01*
X85653234Y-21353234D01*
X85521897Y-21513269D01*
X85521895Y-21513272D01*
X85424305Y-21695852D01*
X85364207Y-21893965D01*
X85343915Y-22100000D01*
X75756085Y-22100000D01*
X75735793Y-21893968D01*
X75675695Y-21695854D01*
X75578103Y-21513271D01*
X75578102Y-21513269D01*
X75446765Y-21353234D01*
X75286730Y-21221897D01*
X75286727Y-21221895D01*
X75104147Y-21124305D01*
X74906034Y-21064207D01*
X74844271Y-21058124D01*
X74751630Y-21049000D01*
X74648370Y-21049000D01*
X74571168Y-21056603D01*
X74493965Y-21064207D01*
X74295852Y-21124305D01*
X74113272Y-21221895D01*
X74113269Y-21221897D01*
X73953234Y-21353234D01*
X73821897Y-21513269D01*
X73821895Y-21513272D01*
X73724305Y-21695852D01*
X73664207Y-21893965D01*
X73643915Y-22100000D01*
X72254100Y-22100000D01*
X72378895Y-21992866D01*
X72503448Y-21831958D01*
X72593060Y-21649271D01*
X72644063Y-21452285D01*
X72654369Y-21249064D01*
X72623556Y-21047929D01*
X72552886Y-20857113D01*
X72445252Y-20684429D01*
X72305059Y-20536947D01*
X72206587Y-20468409D01*
X72138050Y-20420705D01*
X71951056Y-20340459D01*
X71751741Y-20299500D01*
X71609748Y-20299500D01*
X70124500Y-20299500D01*
X70057461Y-20279815D01*
X70011706Y-20227011D01*
X70000500Y-20175500D01*
X70000500Y-20124500D01*
X70020185Y-20057461D01*
X70072989Y-20011706D01*
X70124500Y-20000500D01*
X90875500Y-20000500D01*
X90942539Y-20020185D01*
G37*
%TD.AperFunction*%
%TD*%
M02*
