M48
INCH,TZ
T1C0.0118
T2C0.0157
T3C0.0256
T4C0.0276
T5C0.0394
%
G90
G05
T1
X29788Y-22143
X29795Y-21913
X29803Y-9764
X29839Y-21461
X29839Y-21697
X29858Y-22354
X29867Y-22581
X29921Y-14392
X30039Y-9291
X30130Y-17815
X30244Y-13354
X30271Y-23430
X30315Y-19173
X30390Y-26161
X30402Y-12831
X30433Y-10472
X30472Y-12087
X30472Y-23543
X30638Y-12839
X30694Y-21673
X30694Y-22067
X30694Y-22461
X30705Y-25177
X30709Y-12008
X30709Y-20157
X30740Y-23736
X30858Y-14520
X30866Y-13386
X30866Y-18622
X30878Y-12839
X30886Y-20764
X30902Y-26083
X30906Y-13150
X31024Y-9331
X31024Y-19724
X31063Y-11260
X31068Y-23622
X31088Y-21673
X31088Y-22067
X31088Y-22461
X31098Y-20669
X31181Y-14567
X31260Y-16063
X31260Y-16457
X31260Y-16850
X31315Y-13472
X31378Y-14413
X31457Y-24685
X31481Y-21673
X31481Y-22067
X31481Y-22461
X31516Y-13594
X31535Y-14764
X31614Y-19843
X31624Y-20788
X31654Y-16063
X31654Y-16457
X31654Y-16850
X31654Y-18976
X31693Y-9291
X31875Y-18205
X31890Y-23898
X31907Y-20869
X31969Y-9331
X31969Y-24370
X32047Y-16063
X32047Y-16457
X32047Y-16850
X32165Y-14370
X32197Y-13565
X32323Y-22480
X32347Y-18110
X32362Y-11850
X32362Y-14764
X32362Y-24094
X32394Y-14402
X32441Y-10315
X32472Y-23402
X32520Y-24803
X32520Y-25197
X32638Y-22244
X32667Y-12756
X32764Y-23417
X32795Y-11654
X32886Y-14358
X32929Y-22236
X32992Y-10551
X33000Y-23437
X33110Y-24803
X33165Y-22354
X33189Y-14173
X33268Y-23189
X33268Y-23543
X33315Y-16520
X33496Y-16358
X33535Y-16693
X33543Y-13425
X33543Y-14449
X33583Y-9449
X33583Y-10315
X33626Y-16134
X33780Y-9843
X33937Y-10394
X34094Y-9764
X34291Y-9528
X34449Y-12008
X34465Y-16646
T2
X31339Y-8465
X32087Y-8465
T5
X27555Y-8386
X27555Y-9386
X27555Y-10386
X27555Y-11386
X27555Y-12386
X27555Y-13386
X27555Y-14386
X27555Y-15386
X27555Y-16386
X27555Y-17386
X27555Y-18386
X27555Y-19386
X27555Y-20386
X27555Y-21386
X27555Y-22386
X27555Y-23386
X27555Y-24386
X27555Y-25386
X27555Y-26386
X27555Y-27386
X28189Y-8386
X28189Y-9386
X28189Y-10386
X28189Y-11386
X28189Y-12386
X28189Y-13386
X28189Y-14386
X28189Y-15386
X28189Y-16386
X28189Y-17386
X28189Y-18386
X28189Y-19386
X28189Y-20386
X28189Y-21386
X28189Y-22386
X28189Y-23386
X28189Y-24386
X28189Y-25386
X28189Y-26386
X28189Y-27386
X33390Y-19327
X33390Y-20327
X33390Y-21327
X35193Y-8386
X35193Y-9386
X35193Y-10386
X35193Y-11386
X35193Y-12386
X35193Y-13386
X35193Y-14386
X35193Y-15386
X35193Y-16386
X35193Y-17386
X35193Y-18386
X35193Y-19386
X35193Y-20386
X35193Y-21386
X35193Y-22386
X35193Y-23386
X35193Y-24386
X35193Y-25386
X35193Y-26386
X35193Y-27386
X35827Y-8386
X35827Y-9386
X35827Y-10386
X35827Y-11386
X35827Y-12386
X35827Y-13386
X35827Y-14386
X35827Y-15386
X35827Y-16386
X35827Y-17386
X35827Y-18386
X35827Y-19386
X35827Y-20386
X35827Y-21386
X35827Y-22386
X35827Y-23386
X35827Y-24386
X35827Y-25386
X35827Y-26386
X35827Y-27386
T3
G00X30764Y-9673
M15
G01X30764Y-9831
M16
G05
G00X32669Y-9673
M15
G01X32669Y-9831
M16
G05
T4
G00X30642Y-8472
M15
G01X30642Y-8669
M16
G05
G00X32791Y-8472
M15
G01X32791Y-8669
M16
G05
T0
M30
