%TF.GenerationSoftware,KiCad,Pcbnew,7.0.7*%
%TF.CreationDate,2023-10-12T13:18:40+07:00*%
%TF.ProjectId,Pico2040-Modular-Rev3-W,5069636f-3230-4343-902d-4d6f64756c61,rev?*%
%TF.SameCoordinates,Original*%
%TF.FileFunction,Copper,L3,Inr*%
%TF.FilePolarity,Positive*%
%FSLAX46Y46*%
G04 Gerber Fmt 4.6, Leading zero omitted, Abs format (unit mm)*
G04 Created by KiCad (PCBNEW 7.0.7) date 2023-10-12 13:18:40*
%MOMM*%
%LPD*%
G01*
G04 APERTURE LIST*
%TA.AperFunction,ComponentPad*%
%ADD10R,1.700000X1.700000*%
%TD*%
%TA.AperFunction,ComponentPad*%
%ADD11O,1.700000X1.700000*%
%TD*%
%TA.AperFunction,ComponentPad*%
%ADD12R,3.200000X1.600000*%
%TD*%
%TA.AperFunction,ComponentPad*%
%ADD13O,1.700000X1.600000*%
%TD*%
%TA.AperFunction,ComponentPad*%
%ADD14O,1.350000X1.700000*%
%TD*%
%TA.AperFunction,ComponentPad*%
%ADD15O,1.100000X1.500000*%
%TD*%
%TA.AperFunction,ViaPad*%
%ADD16C,0.500000*%
%TD*%
%TA.AperFunction,ViaPad*%
%ADD17C,0.600000*%
%TD*%
%TA.AperFunction,Conductor*%
%ADD18C,0.200000*%
%TD*%
%TA.AperFunction,Conductor*%
%ADD19C,0.250000*%
%TD*%
G04 APERTURE END LIST*
D10*
%TO.N,/SWDIO*%
%TO.C,J4*%
X84810000Y-49090000D03*
D11*
%TO.N,GND*%
X84810000Y-51630000D03*
%TO.N,/SWCLK*%
X84810000Y-54170000D03*
%TD*%
D12*
%TO.N,/P0*%
%TO.C,J2*%
X69990000Y-21300000D03*
D13*
X71600000Y-21300000D03*
D12*
%TO.N,/P1*%
X69990000Y-23840000D03*
D13*
X71600000Y-23840000D03*
D12*
%TO.N,GND*%
X69990000Y-26380000D03*
D13*
X71600000Y-26380000D03*
D12*
%TO.N,/P2*%
X69990000Y-28920000D03*
D13*
X71600000Y-28920000D03*
D12*
%TO.N,/P3*%
X69990000Y-31460000D03*
D13*
X71600000Y-31460000D03*
D12*
%TO.N,/P4*%
X69990000Y-34000000D03*
D13*
X71600000Y-34000000D03*
D12*
%TO.N,/P5*%
X69990000Y-36540000D03*
D13*
X71600000Y-36540000D03*
D12*
%TO.N,GND*%
X69990000Y-39080000D03*
D13*
X71600000Y-39080000D03*
D12*
%TO.N,/P6*%
X69990000Y-41620000D03*
D13*
X71600000Y-41620000D03*
D12*
%TO.N,/P7*%
X69990000Y-44160000D03*
D13*
X71600000Y-44160000D03*
D12*
%TO.N,/P8*%
X69990000Y-46700000D03*
D13*
X71600000Y-46700000D03*
D12*
%TO.N,/P9*%
X69990000Y-49240000D03*
D13*
X71600000Y-49240000D03*
D12*
%TO.N,GND*%
X69990000Y-51780000D03*
D13*
X71600000Y-51780000D03*
D12*
%TO.N,/P10*%
X69990000Y-54320000D03*
D13*
X71600000Y-54320000D03*
D12*
%TO.N,/P11*%
X69990000Y-56860000D03*
D13*
X71600000Y-56860000D03*
D12*
%TO.N,/P12*%
X69990000Y-59400000D03*
D13*
X71600000Y-59400000D03*
D12*
%TO.N,/P13*%
X69990000Y-61940000D03*
D13*
X71600000Y-61940000D03*
D12*
%TO.N,GND*%
X69990000Y-64480000D03*
D13*
X71600000Y-64480000D03*
D12*
%TO.N,/P14*%
X69990000Y-67020000D03*
D13*
X71600000Y-67020000D03*
D12*
%TO.N,/P15*%
X69990000Y-69560000D03*
D13*
X71600000Y-69560000D03*
%TD*%
D14*
%TO.N,GND*%
%TO.C,J1*%
X83290000Y-21770000D03*
D15*
X82980000Y-24770000D03*
X78140000Y-24770000D03*
D14*
X77830000Y-21770000D03*
%TD*%
D12*
%TO.N,VBUS*%
%TO.C,J3*%
X91000000Y-21300000D03*
D13*
X89390000Y-21300000D03*
D12*
%TO.N,+3.3V*%
X91000000Y-23840000D03*
D13*
X89390000Y-23840000D03*
D12*
%TO.N,GND*%
X91000000Y-26380000D03*
D13*
X89390000Y-26380000D03*
D12*
%TO.N,+1V1*%
X91000000Y-28920000D03*
D13*
X89390000Y-28920000D03*
D12*
%TO.N,/RESET*%
X91000000Y-31460000D03*
D13*
X89390000Y-31460000D03*
D12*
%TO.N,/P29*%
X91000000Y-34000000D03*
D13*
X89390000Y-34000000D03*
D12*
%TO.N,/P28*%
X91000000Y-36540000D03*
D13*
X89390000Y-36540000D03*
D12*
%TO.N,GND*%
X91000000Y-39080000D03*
D13*
X89390000Y-39080000D03*
D12*
%TO.N,/P27*%
X91000000Y-41620000D03*
D13*
X89390000Y-41620000D03*
D12*
%TO.N,/P26*%
X91000000Y-44160000D03*
D13*
X89390000Y-44160000D03*
D12*
%TO.N,/FLASH_SS*%
X91000000Y-46700000D03*
D13*
X89390000Y-46700000D03*
D12*
%TO.N,unconnected-(J3-Pin_12-Pad12)*%
X91000000Y-49240000D03*
D13*
X89390000Y-49240000D03*
D12*
%TO.N,GND*%
X91000000Y-51780000D03*
D13*
X89390000Y-51780000D03*
D12*
%TO.N,/P21*%
X91000000Y-54320000D03*
D13*
X89390000Y-54320000D03*
D12*
%TO.N,/P20*%
X91000000Y-56860000D03*
D13*
X89390000Y-56860000D03*
D12*
%TO.N,/P19*%
X91000000Y-59400000D03*
D13*
X89390000Y-59400000D03*
D12*
%TO.N,/P18*%
X91000000Y-61940000D03*
D13*
X89390000Y-61940000D03*
D12*
%TO.N,GND*%
X91000000Y-64480000D03*
D13*
X89390000Y-64480000D03*
D12*
%TO.N,/P17*%
X91000000Y-67020000D03*
D13*
X89390000Y-67020000D03*
D12*
%TO.N,/P16*%
X91000000Y-69560000D03*
D13*
X89390000Y-69560000D03*
%TD*%
D16*
%TO.N,GND*%
X79400000Y-42800000D03*
X77190000Y-66450000D03*
X78800000Y-23700000D03*
X78962500Y-55050000D03*
X77962500Y-57050000D03*
X84500000Y-59800000D03*
X79962500Y-55050000D03*
D17*
X81500000Y-21500000D03*
D16*
X79540000Y-34220000D03*
X81400000Y-41800000D03*
X77962500Y-56050000D03*
X80400000Y-48200000D03*
X83300000Y-29600000D03*
X80400000Y-40800000D03*
X81200000Y-61900000D03*
X85300000Y-26200000D03*
X81400000Y-40800000D03*
X84300000Y-36000000D03*
X77000000Y-48700000D03*
X79400000Y-40800000D03*
X77990000Y-63950000D03*
X85200000Y-34100000D03*
X84100000Y-63000000D03*
X78800000Y-50100000D03*
X81780000Y-34455000D03*
D17*
X79600000Y-21500000D03*
D16*
X81000000Y-60700000D03*
X87540000Y-42280000D03*
X87500000Y-30500000D03*
X84500000Y-58900000D03*
X75700000Y-24800000D03*
X82975000Y-32400000D03*
X78400000Y-34000000D03*
X86600000Y-24800000D03*
X79962500Y-57050000D03*
X77962500Y-55050000D03*
X80300000Y-50400000D03*
X79962500Y-56050000D03*
X79400000Y-41800000D03*
X78962500Y-56050000D03*
X81400000Y-42800000D03*
X80400000Y-42800000D03*
X80050000Y-34530000D03*
X80400000Y-41800000D03*
X78000000Y-51200000D03*
X78962500Y-57050000D03*
X82600000Y-64000000D03*
X76000000Y-36555000D03*
X78500000Y-33400000D03*
X77300000Y-26600000D03*
X82600000Y-63000000D03*
X77400000Y-30700000D03*
X78400000Y-47300000D03*
X87100000Y-24200000D03*
%TO.N,/ESP_ANT*%
X78490000Y-66250000D03*
X82100000Y-57100000D03*
%TO.N,+1V1*%
X81700000Y-36500000D03*
X83530000Y-36470000D03*
X80963000Y-46240000D03*
X82200000Y-37500000D03*
X80100000Y-37500000D03*
X82280000Y-36580000D03*
%TO.N,VBUS*%
X83800000Y-26800000D03*
X85800000Y-25000000D03*
X82400000Y-26200000D03*
X86200000Y-26400000D03*
X85300000Y-24000000D03*
%TO.N,/ESP_CLKOUT*%
X82200000Y-61200000D03*
X78080000Y-60290000D03*
%TO.N,/ESP_CLKIN*%
X79900000Y-62700000D03*
X78911779Y-60000000D03*
%TO.N,/DM*%
X81200000Y-23700000D03*
%TO.N,/DP*%
X80500000Y-23600000D03*
%TO.N,/RESET*%
X82162500Y-46000000D03*
X78900000Y-28600000D03*
%TO.N,/P29*%
X85200000Y-36700000D03*
X76300000Y-23600000D03*
%TO.N,/P23*%
X84620000Y-41960000D03*
X78990000Y-52500000D03*
%TO.N,/P22*%
X85180000Y-42400000D03*
X81042510Y-53007490D03*
%TO.N,/FLASH_SS*%
X76820000Y-33920000D03*
X76530000Y-45250000D03*
%TO.N,/FLASH_SD3*%
X79700000Y-36610000D03*
X77220000Y-32590000D03*
%TO.N,/FLASH_CLOCK*%
X77820000Y-32610000D03*
X79200000Y-37000000D03*
%TO.N,/FLASH_SD0*%
X78380000Y-36880000D03*
X78430000Y-32610000D03*
%TO.N,Net-(U4-U0RXD)*%
X78000000Y-30500000D03*
X76888221Y-59511779D03*
%TO.N,/ESPFLASH_D2*%
X83820000Y-59530000D03*
X75790000Y-54510000D03*
%TO.N,/ESPFLASH_D3*%
X82900000Y-56500000D03*
X75790000Y-55110000D03*
%TO.N,/ESPFLASH_SS*%
X82480000Y-59440000D03*
X75680000Y-55660000D03*
%TO.N,/ESPFLASH_CLOCK*%
X75662490Y-56242490D03*
X83640000Y-56480000D03*
%TO.N,/ESPFLASH_D0*%
X75839500Y-56780000D03*
X84240000Y-56780000D03*
%TO.N,/ESPFLASH_D1*%
X83220000Y-59480000D03*
X75863304Y-57356196D03*
%TO.N,Net-(U4-U0TXD)*%
X77400000Y-59800000D03*
X82200000Y-30100000D03*
%TO.N,/P24*%
X80324772Y-52802111D03*
X85080000Y-41550000D03*
%TO.N,/P25*%
X85410000Y-40980000D03*
X78450000Y-52740000D03*
%TD*%
D18*
%TO.N,/ESPFLASH_CLOCK*%
X76442490Y-56242490D02*
X75662490Y-56242490D01*
X76800000Y-57200000D02*
X76800000Y-56600000D01*
X77500000Y-57900000D02*
X76800000Y-57200000D01*
X82900000Y-57900000D02*
X77500000Y-57900000D01*
X76800000Y-56600000D02*
X76442490Y-56242490D01*
X83640000Y-57160000D02*
X82900000Y-57900000D01*
X83640000Y-56480000D02*
X83640000Y-57160000D01*
%TO.N,/ESPFLASH_D0*%
X76280000Y-56780000D02*
X75839500Y-56780000D01*
X76400000Y-56900000D02*
X76280000Y-56780000D01*
X76400000Y-57400000D02*
X76400000Y-56900000D01*
X77400000Y-58400000D02*
X76400000Y-57400000D01*
X84240000Y-56780000D02*
X84240000Y-57613553D01*
X83453553Y-58400000D02*
X77400000Y-58400000D01*
X84240000Y-57613553D02*
X83453553Y-58400000D01*
%TO.N,/FLASH_SS*%
X76800000Y-33940000D02*
X76800000Y-44980000D01*
X76820000Y-33920000D02*
X76800000Y-33940000D01*
X76800000Y-44980000D02*
X76530000Y-45250000D01*
%TO.N,/ESPFLASH_D3*%
X82500000Y-56500000D02*
X82900000Y-56500000D01*
X80100000Y-54100000D02*
X82500000Y-56500000D01*
X76890000Y-55110000D02*
X77900000Y-54100000D01*
X77900000Y-54100000D02*
X80100000Y-54100000D01*
X75790000Y-55110000D02*
X76890000Y-55110000D01*
%TO.N,/P23*%
X84540000Y-41960000D02*
X84620000Y-41960000D01*
X83900000Y-42600000D02*
X84540000Y-41960000D01*
X78990000Y-52500000D02*
X78990000Y-50510000D01*
X83900000Y-45600000D02*
X83900000Y-42600000D01*
X78990000Y-50510000D02*
X83900000Y-45600000D01*
%TO.N,/P22*%
X85180000Y-44720000D02*
X85180000Y-42400000D01*
X80700000Y-49200000D02*
X85180000Y-44720000D01*
X81042510Y-53007490D02*
X80700000Y-52664980D01*
X80700000Y-52664980D02*
X80700000Y-49200000D01*
%TO.N,/ESP_CLKOUT*%
X79100000Y-61200000D02*
X82200000Y-61200000D01*
X78080000Y-60290000D02*
X78190000Y-60290000D01*
X78190000Y-60290000D02*
X79100000Y-61200000D01*
%TO.N,Net-(U4-U0RXD)*%
X77570000Y-31480000D02*
X78000000Y-31050000D01*
X74700000Y-33100000D02*
X76320000Y-31480000D01*
X76320000Y-31480000D02*
X77570000Y-31480000D01*
X78000000Y-31050000D02*
X78000000Y-30500000D01*
X74700000Y-58500000D02*
X74700000Y-33100000D01*
X75700000Y-59500000D02*
X74700000Y-58500000D01*
X76876442Y-59500000D02*
X75700000Y-59500000D01*
X76888221Y-59511779D02*
X76876442Y-59500000D01*
D19*
%TO.N,/FLASH_CLOCK*%
X77820000Y-35620000D02*
X79200000Y-37000000D01*
X77820000Y-32610000D02*
X77820000Y-35620000D01*
D18*
%TO.N,/RESET*%
X82200000Y-32800000D02*
X82200000Y-31900000D01*
X82200000Y-31900000D02*
X78900000Y-28600000D01*
X82780000Y-33380000D02*
X82200000Y-32800000D01*
X82162500Y-46000000D02*
X82780000Y-45382500D01*
X82780000Y-45382500D02*
X82780000Y-33380000D01*
%TD*%
%TA.AperFunction,Conductor*%
%TO.N,+1V1*%
G36*
X90973066Y-20017813D02*
G01*
X90998376Y-20061650D01*
X90999500Y-20074500D01*
X90999500Y-20275500D01*
X90982187Y-20323066D01*
X90938350Y-20348376D01*
X90925500Y-20349500D01*
X89291786Y-20349500D01*
X89147682Y-20364153D01*
X89147677Y-20364154D01*
X88963237Y-20422023D01*
X88963232Y-20422025D01*
X88794209Y-20515841D01*
X88794206Y-20515843D01*
X88647530Y-20641761D01*
X88529206Y-20794623D01*
X88529203Y-20794626D01*
X88444069Y-20968186D01*
X88395614Y-21155329D01*
X88386763Y-21329865D01*
X88385824Y-21348390D01*
X88415097Y-21539474D01*
X88482236Y-21720753D01*
X88512801Y-21769791D01*
X88584487Y-21884802D01*
X88584491Y-21884807D01*
X88717674Y-22024917D01*
X88717677Y-22024919D01*
X88876342Y-22135353D01*
X88975661Y-22177974D01*
X89046803Y-22208504D01*
X89053988Y-22211587D01*
X89053993Y-22211588D01*
X89243337Y-22250499D01*
X89243342Y-22250499D01*
X89243344Y-22250500D01*
X89385180Y-22250500D01*
X90925500Y-22250500D01*
X90973066Y-22267813D01*
X90998376Y-22311650D01*
X90999500Y-22324500D01*
X90999500Y-22815500D01*
X90982187Y-22863066D01*
X90938350Y-22888376D01*
X90925500Y-22889500D01*
X89291786Y-22889500D01*
X89147682Y-22904153D01*
X89147677Y-22904154D01*
X88963237Y-22962023D01*
X88963232Y-22962025D01*
X88794209Y-23055841D01*
X88794206Y-23055843D01*
X88647530Y-23181761D01*
X88529206Y-23334623D01*
X88529203Y-23334626D01*
X88444069Y-23508186D01*
X88395614Y-23695329D01*
X88386782Y-23869500D01*
X88385824Y-23888390D01*
X88415097Y-24079474D01*
X88482236Y-24260753D01*
X88482237Y-24260754D01*
X88584487Y-24424802D01*
X88584491Y-24424807D01*
X88717674Y-24564917D01*
X88717677Y-24564919D01*
X88876342Y-24675353D01*
X88975661Y-24717974D01*
X89046803Y-24748504D01*
X89053988Y-24751587D01*
X89053993Y-24751588D01*
X89243337Y-24790499D01*
X89243342Y-24790499D01*
X89243344Y-24790500D01*
X89385180Y-24790500D01*
X90925500Y-24790500D01*
X90973066Y-24807813D01*
X90998376Y-24851650D01*
X90999500Y-24864500D01*
X90999500Y-25355500D01*
X90982187Y-25403066D01*
X90938350Y-25428376D01*
X90925500Y-25429500D01*
X89291786Y-25429500D01*
X89147682Y-25444153D01*
X89147677Y-25444154D01*
X88963237Y-25502023D01*
X88963232Y-25502025D01*
X88794209Y-25595841D01*
X88794206Y-25595843D01*
X88647530Y-25721761D01*
X88529206Y-25874623D01*
X88529203Y-25874626D01*
X88444069Y-26048186D01*
X88395614Y-26235329D01*
X88386536Y-26414353D01*
X88385824Y-26428390D01*
X88415097Y-26619474D01*
X88482236Y-26800753D01*
X88485190Y-26805492D01*
X88584487Y-26964802D01*
X88584491Y-26964807D01*
X88717674Y-27104917D01*
X88717677Y-27104919D01*
X88876342Y-27215353D01*
X88975661Y-27257974D01*
X89046803Y-27288504D01*
X89053988Y-27291587D01*
X89053993Y-27291588D01*
X89243337Y-27330499D01*
X89243342Y-27330499D01*
X89243344Y-27330500D01*
X89385180Y-27330500D01*
X90925500Y-27330500D01*
X90973066Y-27347813D01*
X90998376Y-27391650D01*
X90999500Y-27404500D01*
X90999500Y-30435500D01*
X90982187Y-30483066D01*
X90938350Y-30508376D01*
X90925500Y-30509500D01*
X89291786Y-30509500D01*
X89147682Y-30524153D01*
X89147677Y-30524154D01*
X88963237Y-30582023D01*
X88963232Y-30582025D01*
X88794209Y-30675841D01*
X88794206Y-30675843D01*
X88647530Y-30801761D01*
X88529206Y-30954623D01*
X88529203Y-30954626D01*
X88444069Y-31128186D01*
X88395614Y-31315329D01*
X88395100Y-31325472D01*
X88385824Y-31508390D01*
X88415097Y-31699474D01*
X88482236Y-31880753D01*
X88482237Y-31880754D01*
X88584487Y-32044802D01*
X88584491Y-32044807D01*
X88717674Y-32184917D01*
X88717677Y-32184919D01*
X88876342Y-32295353D01*
X88965487Y-32333608D01*
X89046803Y-32368504D01*
X89053988Y-32371587D01*
X89065169Y-32373884D01*
X89243337Y-32410499D01*
X89243342Y-32410499D01*
X89243344Y-32410500D01*
X89385180Y-32410500D01*
X90925500Y-32410500D01*
X90973066Y-32427813D01*
X90998376Y-32471650D01*
X90999500Y-32484500D01*
X90999500Y-32975500D01*
X90982187Y-33023066D01*
X90938350Y-33048376D01*
X90925500Y-33049500D01*
X89291786Y-33049500D01*
X89147682Y-33064153D01*
X89147677Y-33064154D01*
X88963237Y-33122023D01*
X88963232Y-33122025D01*
X88794209Y-33215841D01*
X88794206Y-33215843D01*
X88735345Y-33266373D01*
X88647532Y-33341760D01*
X88647531Y-33341760D01*
X88529206Y-33494623D01*
X88529203Y-33494626D01*
X88444069Y-33668186D01*
X88395614Y-33855329D01*
X88385824Y-34048388D01*
X88385824Y-34048390D01*
X88415097Y-34239474D01*
X88482236Y-34420753D01*
X88503582Y-34455000D01*
X88584487Y-34584802D01*
X88584491Y-34584807D01*
X88717674Y-34724917D01*
X88717677Y-34724919D01*
X88876342Y-34835353D01*
X88934923Y-34860492D01*
X89046803Y-34908504D01*
X89053988Y-34911587D01*
X89053993Y-34911588D01*
X89243337Y-34950499D01*
X89243342Y-34950499D01*
X89243344Y-34950500D01*
X89385180Y-34950500D01*
X90925500Y-34950500D01*
X90973066Y-34967813D01*
X90998376Y-35011650D01*
X90999500Y-35024500D01*
X90999500Y-35515500D01*
X90982187Y-35563066D01*
X90938350Y-35588376D01*
X90925500Y-35589500D01*
X89291786Y-35589500D01*
X89147682Y-35604153D01*
X89147677Y-35604154D01*
X88963237Y-35662023D01*
X88963232Y-35662025D01*
X88794209Y-35755841D01*
X88794206Y-35755843D01*
X88647530Y-35881761D01*
X88529206Y-36034623D01*
X88529203Y-36034626D01*
X88444069Y-36208186D01*
X88395614Y-36395329D01*
X88386518Y-36574696D01*
X88385824Y-36588390D01*
X88415097Y-36779474D01*
X88482236Y-36960753D01*
X88482237Y-36960754D01*
X88584487Y-37124802D01*
X88584491Y-37124807D01*
X88717674Y-37264917D01*
X88729554Y-37273185D01*
X88876342Y-37375353D01*
X88946572Y-37405491D01*
X89046803Y-37448504D01*
X89053988Y-37451587D01*
X89053993Y-37451588D01*
X89243337Y-37490499D01*
X89243342Y-37490499D01*
X89243344Y-37490500D01*
X89385180Y-37490500D01*
X90925500Y-37490500D01*
X90973066Y-37507813D01*
X90998376Y-37551650D01*
X90999500Y-37564500D01*
X90999500Y-38055500D01*
X90982187Y-38103066D01*
X90938350Y-38128376D01*
X90925500Y-38129500D01*
X89291786Y-38129500D01*
X89147682Y-38144153D01*
X89147677Y-38144154D01*
X88963237Y-38202023D01*
X88963232Y-38202025D01*
X88794209Y-38295841D01*
X88794206Y-38295843D01*
X88647530Y-38421761D01*
X88529206Y-38574623D01*
X88529203Y-38574626D01*
X88444069Y-38748186D01*
X88395614Y-38935329D01*
X88390732Y-39031610D01*
X88385824Y-39128390D01*
X88415097Y-39319474D01*
X88482236Y-39500753D01*
X88482237Y-39500754D01*
X88584487Y-39664802D01*
X88584491Y-39664807D01*
X88717674Y-39804917D01*
X88717677Y-39804919D01*
X88876342Y-39915353D01*
X88975661Y-39957974D01*
X89046803Y-39988504D01*
X89053988Y-39991587D01*
X89053993Y-39991588D01*
X89243337Y-40030499D01*
X89243342Y-40030499D01*
X89243344Y-40030500D01*
X89385180Y-40030500D01*
X90925500Y-40030500D01*
X90973066Y-40047813D01*
X90998376Y-40091650D01*
X90999500Y-40104500D01*
X90999500Y-40595500D01*
X90982187Y-40643066D01*
X90938350Y-40668376D01*
X90925500Y-40669500D01*
X89291786Y-40669500D01*
X89147682Y-40684153D01*
X89147677Y-40684154D01*
X88963237Y-40742023D01*
X88963232Y-40742025D01*
X88794209Y-40835841D01*
X88794206Y-40835843D01*
X88647530Y-40961761D01*
X88529206Y-41114623D01*
X88529203Y-41114626D01*
X88444069Y-41288186D01*
X88395614Y-41475329D01*
X88387672Y-41631950D01*
X88385824Y-41668390D01*
X88415097Y-41859474D01*
X88482236Y-42040753D01*
X88482237Y-42040754D01*
X88584487Y-42204802D01*
X88584491Y-42204807D01*
X88717674Y-42344917D01*
X88730780Y-42354039D01*
X88876342Y-42455353D01*
X88975661Y-42497974D01*
X89046803Y-42528504D01*
X89053988Y-42531587D01*
X89053993Y-42531588D01*
X89243337Y-42570499D01*
X89243342Y-42570499D01*
X89243344Y-42570500D01*
X89385180Y-42570500D01*
X90925500Y-42570500D01*
X90973066Y-42587813D01*
X90998376Y-42631650D01*
X90999500Y-42644500D01*
X90999500Y-43135500D01*
X90982187Y-43183066D01*
X90938350Y-43208376D01*
X90925500Y-43209500D01*
X89291786Y-43209500D01*
X89147682Y-43224153D01*
X89147677Y-43224154D01*
X88963237Y-43282023D01*
X88963232Y-43282025D01*
X88794209Y-43375841D01*
X88794206Y-43375843D01*
X88647530Y-43501761D01*
X88529206Y-43654623D01*
X88529203Y-43654626D01*
X88444069Y-43828186D01*
X88395614Y-44015329D01*
X88390732Y-44111610D01*
X88385824Y-44208390D01*
X88415097Y-44399474D01*
X88482236Y-44580753D01*
X88512801Y-44629791D01*
X88584487Y-44744802D01*
X88584491Y-44744807D01*
X88717674Y-44884917D01*
X88717677Y-44884919D01*
X88876342Y-44995353D01*
X88975661Y-45037974D01*
X89046803Y-45068504D01*
X89053988Y-45071587D01*
X89053993Y-45071588D01*
X89243337Y-45110499D01*
X89243342Y-45110499D01*
X89243344Y-45110500D01*
X89385180Y-45110500D01*
X90925500Y-45110500D01*
X90973066Y-45127813D01*
X90998376Y-45171650D01*
X90999500Y-45184500D01*
X90999500Y-45675500D01*
X90982187Y-45723066D01*
X90938350Y-45748376D01*
X90925500Y-45749500D01*
X89291786Y-45749500D01*
X89147682Y-45764153D01*
X89147677Y-45764154D01*
X88963237Y-45822023D01*
X88963232Y-45822025D01*
X88794209Y-45915841D01*
X88794206Y-45915843D01*
X88647530Y-46041761D01*
X88529206Y-46194623D01*
X88529203Y-46194626D01*
X88444069Y-46368186D01*
X88395614Y-46555329D01*
X88390732Y-46651610D01*
X88385824Y-46748390D01*
X88415097Y-46939474D01*
X88482236Y-47120753D01*
X88482237Y-47120754D01*
X88584487Y-47284802D01*
X88584491Y-47284807D01*
X88717674Y-47424917D01*
X88717677Y-47424919D01*
X88876342Y-47535353D01*
X88975661Y-47577974D01*
X89046803Y-47608504D01*
X89053988Y-47611587D01*
X89053993Y-47611588D01*
X89243337Y-47650499D01*
X89243342Y-47650499D01*
X89243344Y-47650500D01*
X89385180Y-47650500D01*
X90925500Y-47650500D01*
X90973066Y-47667813D01*
X90998376Y-47711650D01*
X90999500Y-47724500D01*
X90999500Y-48215500D01*
X90982187Y-48263066D01*
X90938350Y-48288376D01*
X90925500Y-48289500D01*
X89291786Y-48289500D01*
X89147682Y-48304153D01*
X89147677Y-48304154D01*
X88963237Y-48362023D01*
X88963232Y-48362025D01*
X88794209Y-48455841D01*
X88794206Y-48455843D01*
X88647530Y-48581761D01*
X88529206Y-48734623D01*
X88529203Y-48734626D01*
X88444069Y-48908186D01*
X88395614Y-49095329D01*
X88395099Y-49105491D01*
X88385824Y-49288390D01*
X88415097Y-49479474D01*
X88482236Y-49660753D01*
X88482237Y-49660754D01*
X88584487Y-49824802D01*
X88584491Y-49824807D01*
X88717674Y-49964917D01*
X88717677Y-49964919D01*
X88876342Y-50075353D01*
X88975661Y-50117974D01*
X89046803Y-50148504D01*
X89053988Y-50151587D01*
X89053993Y-50151588D01*
X89243337Y-50190499D01*
X89243342Y-50190499D01*
X89243344Y-50190500D01*
X89385180Y-50190500D01*
X90925500Y-50190500D01*
X90973066Y-50207813D01*
X90998376Y-50251650D01*
X90999500Y-50264500D01*
X90999500Y-50755500D01*
X90982187Y-50803066D01*
X90938350Y-50828376D01*
X90925500Y-50829500D01*
X89291786Y-50829500D01*
X89147682Y-50844153D01*
X89147677Y-50844154D01*
X88963237Y-50902023D01*
X88963232Y-50902025D01*
X88794209Y-50995841D01*
X88794206Y-50995843D01*
X88647530Y-51121761D01*
X88529206Y-51274623D01*
X88529203Y-51274626D01*
X88444069Y-51448186D01*
X88395614Y-51635329D01*
X88385938Y-51826133D01*
X88385824Y-51828390D01*
X88415097Y-52019474D01*
X88482236Y-52200753D01*
X88482237Y-52200754D01*
X88584487Y-52364802D01*
X88584491Y-52364807D01*
X88717674Y-52504917D01*
X88717677Y-52504919D01*
X88876342Y-52615353D01*
X88975661Y-52657974D01*
X89046803Y-52688504D01*
X89053988Y-52691587D01*
X89053993Y-52691588D01*
X89243337Y-52730499D01*
X89243342Y-52730499D01*
X89243344Y-52730500D01*
X89385180Y-52730500D01*
X90925500Y-52730500D01*
X90973066Y-52747813D01*
X90998376Y-52791650D01*
X90999500Y-52804500D01*
X90999500Y-53295500D01*
X90982187Y-53343066D01*
X90938350Y-53368376D01*
X90925500Y-53369500D01*
X89291786Y-53369500D01*
X89147682Y-53384153D01*
X89147677Y-53384154D01*
X88963237Y-53442023D01*
X88963232Y-53442025D01*
X88794209Y-53535841D01*
X88794206Y-53535843D01*
X88647530Y-53661761D01*
X88529206Y-53814623D01*
X88529203Y-53814626D01*
X88444069Y-53988186D01*
X88395614Y-54175329D01*
X88385938Y-54366133D01*
X88385824Y-54368390D01*
X88415097Y-54559474D01*
X88482236Y-54740753D01*
X88486967Y-54748343D01*
X88584487Y-54904802D01*
X88584491Y-54904807D01*
X88717674Y-55044917D01*
X88717677Y-55044919D01*
X88876342Y-55155353D01*
X88975661Y-55197974D01*
X89046803Y-55228504D01*
X89053988Y-55231587D01*
X89053993Y-55231588D01*
X89243337Y-55270499D01*
X89243342Y-55270499D01*
X89243344Y-55270500D01*
X89385180Y-55270500D01*
X90925500Y-55270500D01*
X90973066Y-55287813D01*
X90998376Y-55331650D01*
X90999500Y-55344500D01*
X90999500Y-55835500D01*
X90982187Y-55883066D01*
X90938350Y-55908376D01*
X90925500Y-55909500D01*
X89291786Y-55909500D01*
X89147682Y-55924153D01*
X89147677Y-55924154D01*
X88963237Y-55982023D01*
X88963232Y-55982025D01*
X88794209Y-56075841D01*
X88794206Y-56075843D01*
X88647530Y-56201761D01*
X88529206Y-56354623D01*
X88529203Y-56354626D01*
X88444069Y-56528186D01*
X88395614Y-56715329D01*
X88385971Y-56905491D01*
X88385824Y-56908390D01*
X88415097Y-57099474D01*
X88482236Y-57280753D01*
X88512801Y-57329791D01*
X88584487Y-57444802D01*
X88584491Y-57444807D01*
X88717674Y-57584917D01*
X88717677Y-57584919D01*
X88876342Y-57695353D01*
X88932376Y-57719399D01*
X89046803Y-57768504D01*
X89053988Y-57771587D01*
X89053993Y-57771588D01*
X89243337Y-57810499D01*
X89243342Y-57810499D01*
X89243344Y-57810500D01*
X89385180Y-57810500D01*
X90925500Y-57810500D01*
X90973066Y-57827813D01*
X90998376Y-57871650D01*
X90999500Y-57884500D01*
X90999500Y-58375500D01*
X90982187Y-58423066D01*
X90938350Y-58448376D01*
X90925500Y-58449500D01*
X89291786Y-58449500D01*
X89147682Y-58464153D01*
X89147677Y-58464154D01*
X88963237Y-58522023D01*
X88963232Y-58522025D01*
X88794209Y-58615841D01*
X88794206Y-58615843D01*
X88647530Y-58741761D01*
X88529206Y-58894623D01*
X88529203Y-58894626D01*
X88444069Y-59068186D01*
X88395614Y-59255329D01*
X88387666Y-59412061D01*
X88385824Y-59448390D01*
X88415097Y-59639474D01*
X88482236Y-59820753D01*
X88482237Y-59820754D01*
X88584487Y-59984802D01*
X88584491Y-59984807D01*
X88717674Y-60124917D01*
X88722175Y-60128050D01*
X88876342Y-60235353D01*
X88975661Y-60277974D01*
X89046803Y-60308504D01*
X89053988Y-60311587D01*
X89053993Y-60311588D01*
X89243337Y-60350499D01*
X89243342Y-60350499D01*
X89243344Y-60350500D01*
X89385180Y-60350500D01*
X90925500Y-60350500D01*
X90973066Y-60367813D01*
X90998376Y-60411650D01*
X90999500Y-60424500D01*
X90999500Y-60915500D01*
X90982187Y-60963066D01*
X90938350Y-60988376D01*
X90925500Y-60989500D01*
X89291786Y-60989500D01*
X89147682Y-61004153D01*
X89147677Y-61004154D01*
X88963237Y-61062023D01*
X88963232Y-61062025D01*
X88794209Y-61155841D01*
X88794206Y-61155843D01*
X88647530Y-61281761D01*
X88529206Y-61434623D01*
X88529203Y-61434626D01*
X88444069Y-61608186D01*
X88395614Y-61795329D01*
X88385824Y-61988388D01*
X88385824Y-61988390D01*
X88415097Y-62179474D01*
X88482236Y-62360753D01*
X88482237Y-62360754D01*
X88584487Y-62524802D01*
X88584491Y-62524807D01*
X88717674Y-62664917D01*
X88717677Y-62664919D01*
X88876342Y-62775353D01*
X88975661Y-62817974D01*
X89046803Y-62848504D01*
X89053988Y-62851587D01*
X89053993Y-62851588D01*
X89243337Y-62890499D01*
X89243342Y-62890499D01*
X89243344Y-62890500D01*
X89385180Y-62890500D01*
X90925500Y-62890500D01*
X90973066Y-62907813D01*
X90998376Y-62951650D01*
X90999500Y-62964500D01*
X90999500Y-63455500D01*
X90982187Y-63503066D01*
X90938350Y-63528376D01*
X90925500Y-63529500D01*
X89291786Y-63529500D01*
X89147682Y-63544153D01*
X89147677Y-63544154D01*
X88963237Y-63602023D01*
X88963232Y-63602025D01*
X88794209Y-63695841D01*
X88794206Y-63695843D01*
X88647530Y-63821761D01*
X88529206Y-63974623D01*
X88529203Y-63974626D01*
X88444069Y-64148186D01*
X88395614Y-64335329D01*
X88390732Y-64431610D01*
X88385824Y-64528390D01*
X88415097Y-64719474D01*
X88482236Y-64900753D01*
X88482237Y-64900754D01*
X88584487Y-65064802D01*
X88584491Y-65064807D01*
X88717674Y-65204917D01*
X88717677Y-65204919D01*
X88876342Y-65315353D01*
X88975661Y-65357974D01*
X89046803Y-65388504D01*
X89053988Y-65391587D01*
X89053993Y-65391588D01*
X89243337Y-65430499D01*
X89243342Y-65430499D01*
X89243344Y-65430500D01*
X89385180Y-65430500D01*
X90925500Y-65430500D01*
X90973066Y-65447813D01*
X90998376Y-65491650D01*
X90999500Y-65504500D01*
X90999500Y-65995500D01*
X90982187Y-66043066D01*
X90938350Y-66068376D01*
X90925500Y-66069500D01*
X89291786Y-66069500D01*
X89147682Y-66084153D01*
X89147677Y-66084154D01*
X88963237Y-66142023D01*
X88963232Y-66142025D01*
X88794209Y-66235841D01*
X88794206Y-66235843D01*
X88647530Y-66361761D01*
X88529206Y-66514623D01*
X88529203Y-66514626D01*
X88444069Y-66688186D01*
X88395614Y-66875329D01*
X88390732Y-66971610D01*
X88385824Y-67068390D01*
X88415097Y-67259474D01*
X88482236Y-67440753D01*
X88482237Y-67440754D01*
X88584487Y-67604802D01*
X88584491Y-67604807D01*
X88717674Y-67744917D01*
X88717677Y-67744919D01*
X88876342Y-67855353D01*
X88975661Y-67897974D01*
X89046803Y-67928504D01*
X89053988Y-67931587D01*
X89053993Y-67931588D01*
X89243337Y-67970499D01*
X89243342Y-67970499D01*
X89243344Y-67970500D01*
X89385180Y-67970500D01*
X90925500Y-67970500D01*
X90973066Y-67987813D01*
X90998376Y-68031650D01*
X90999500Y-68044500D01*
X90999500Y-68535500D01*
X90982187Y-68583066D01*
X90938350Y-68608376D01*
X90925500Y-68609500D01*
X89291786Y-68609500D01*
X89147682Y-68624153D01*
X89147677Y-68624154D01*
X88963237Y-68682023D01*
X88963232Y-68682025D01*
X88794209Y-68775841D01*
X88794206Y-68775843D01*
X88647530Y-68901761D01*
X88529206Y-69054623D01*
X88529203Y-69054626D01*
X88444069Y-69228186D01*
X88395614Y-69415329D01*
X88390732Y-69511610D01*
X88385824Y-69608390D01*
X88415097Y-69799474D01*
X88482236Y-69980753D01*
X88482237Y-69980754D01*
X88584487Y-70144802D01*
X88584491Y-70144807D01*
X88717674Y-70284917D01*
X88717677Y-70284919D01*
X88876342Y-70395353D01*
X88975661Y-70437974D01*
X89046803Y-70468504D01*
X89053988Y-70471587D01*
X89053993Y-70471588D01*
X89243337Y-70510499D01*
X89243342Y-70510499D01*
X89243344Y-70510500D01*
X89385180Y-70510500D01*
X90925500Y-70510500D01*
X90973066Y-70527813D01*
X90998376Y-70571650D01*
X90999500Y-70584500D01*
X90999500Y-70925500D01*
X90982187Y-70973066D01*
X90938350Y-70998376D01*
X90925500Y-70999500D01*
X70074500Y-70999500D01*
X70026934Y-70982187D01*
X70001624Y-70938350D01*
X70000500Y-70925500D01*
X70000500Y-70584500D01*
X70017813Y-70536934D01*
X70061650Y-70511624D01*
X70074500Y-70510500D01*
X71698205Y-70510500D01*
X71698206Y-70510500D01*
X71745326Y-70505708D01*
X71842317Y-70495846D01*
X71842322Y-70495845D01*
X72026762Y-70437976D01*
X72026763Y-70437975D01*
X72026768Y-70437974D01*
X72195791Y-70344159D01*
X72342468Y-70218240D01*
X72460796Y-70065373D01*
X72545930Y-69891816D01*
X72594385Y-69704674D01*
X72604176Y-69511610D01*
X72574903Y-69320526D01*
X72507764Y-69139247D01*
X72446632Y-69041170D01*
X72405512Y-68975197D01*
X72405508Y-68975192D01*
X72272325Y-68835082D01*
X72221921Y-68800000D01*
X73543915Y-68800000D01*
X73564207Y-69006032D01*
X73564207Y-69006034D01*
X73564208Y-69006037D01*
X73564208Y-69006039D01*
X73624303Y-69204143D01*
X73624306Y-69204148D01*
X73721892Y-69386721D01*
X73721895Y-69386726D01*
X73721897Y-69386729D01*
X73853235Y-69546765D01*
X74013271Y-69678103D01*
X74195854Y-69775695D01*
X74195856Y-69775696D01*
X74393961Y-69835791D01*
X74393968Y-69835793D01*
X74548370Y-69851000D01*
X74548371Y-69851000D01*
X74651629Y-69851000D01*
X74651630Y-69851000D01*
X74806032Y-69835793D01*
X75004146Y-69775695D01*
X75186729Y-69678103D01*
X75346765Y-69546765D01*
X75478103Y-69386729D01*
X75575695Y-69204146D01*
X75635793Y-69006032D01*
X75656085Y-68800000D01*
X85343915Y-68800000D01*
X85364207Y-69006032D01*
X85364207Y-69006034D01*
X85364208Y-69006037D01*
X85364208Y-69006039D01*
X85424303Y-69204143D01*
X85424306Y-69204148D01*
X85521892Y-69386721D01*
X85521895Y-69386726D01*
X85521897Y-69386729D01*
X85653235Y-69546765D01*
X85813271Y-69678103D01*
X85995854Y-69775695D01*
X85995856Y-69775696D01*
X86193961Y-69835791D01*
X86193968Y-69835793D01*
X86348370Y-69851000D01*
X86348371Y-69851000D01*
X86451629Y-69851000D01*
X86451630Y-69851000D01*
X86606032Y-69835793D01*
X86804146Y-69775695D01*
X86986729Y-69678103D01*
X87146765Y-69546765D01*
X87278103Y-69386729D01*
X87375695Y-69204146D01*
X87435793Y-69006032D01*
X87456085Y-68800000D01*
X87435793Y-68593968D01*
X87375695Y-68395854D01*
X87278103Y-68213271D01*
X87146765Y-68053235D01*
X87136121Y-68044500D01*
X87028095Y-67955845D01*
X86986729Y-67921897D01*
X86986726Y-67921895D01*
X86986721Y-67921892D01*
X86804148Y-67824306D01*
X86804143Y-67824303D01*
X86606038Y-67764208D01*
X86606033Y-67764207D01*
X86606032Y-67764207D01*
X86451630Y-67749000D01*
X86348370Y-67749000D01*
X86193968Y-67764207D01*
X86193966Y-67764207D01*
X86193962Y-67764208D01*
X86193960Y-67764208D01*
X85995856Y-67824303D01*
X85995851Y-67824306D01*
X85813278Y-67921892D01*
X85813269Y-67921898D01*
X85653235Y-68053234D01*
X85653234Y-68053235D01*
X85521898Y-68213269D01*
X85521892Y-68213278D01*
X85424306Y-68395851D01*
X85424303Y-68395856D01*
X85364208Y-68593960D01*
X85364208Y-68593962D01*
X85364207Y-68593966D01*
X85364207Y-68593968D01*
X85343915Y-68800000D01*
X75656085Y-68800000D01*
X75635793Y-68593968D01*
X75575695Y-68395854D01*
X75478103Y-68213271D01*
X75346765Y-68053235D01*
X75336121Y-68044500D01*
X75228095Y-67955845D01*
X75186729Y-67921897D01*
X75186726Y-67921895D01*
X75186721Y-67921892D01*
X75004148Y-67824306D01*
X75004143Y-67824303D01*
X74806038Y-67764208D01*
X74806033Y-67764207D01*
X74806032Y-67764207D01*
X74651630Y-67749000D01*
X74548370Y-67749000D01*
X74393968Y-67764207D01*
X74393966Y-67764207D01*
X74393962Y-67764208D01*
X74393960Y-67764208D01*
X74195856Y-67824303D01*
X74195851Y-67824306D01*
X74013278Y-67921892D01*
X74013269Y-67921898D01*
X73853235Y-68053234D01*
X73853234Y-68053235D01*
X73721898Y-68213269D01*
X73721892Y-68213278D01*
X73624306Y-68395851D01*
X73624303Y-68395856D01*
X73564208Y-68593960D01*
X73564208Y-68593962D01*
X73564207Y-68593966D01*
X73564207Y-68593968D01*
X73543915Y-68800000D01*
X72221921Y-68800000D01*
X72187210Y-68775841D01*
X72113658Y-68724647D01*
X72113655Y-68724645D01*
X72113654Y-68724645D01*
X71936016Y-68648414D01*
X71936006Y-68648411D01*
X71746662Y-68609500D01*
X71746656Y-68609500D01*
X71604820Y-68609500D01*
X70074500Y-68609500D01*
X70026934Y-68592187D01*
X70001624Y-68548350D01*
X70000500Y-68535500D01*
X70000500Y-68044500D01*
X70017813Y-67996934D01*
X70061650Y-67971624D01*
X70074500Y-67970500D01*
X71698205Y-67970500D01*
X71698206Y-67970500D01*
X71745326Y-67965708D01*
X71842317Y-67955846D01*
X71842322Y-67955845D01*
X72026762Y-67897976D01*
X72026763Y-67897975D01*
X72026768Y-67897974D01*
X72195791Y-67804159D01*
X72342468Y-67678240D01*
X72460796Y-67525373D01*
X72545930Y-67351816D01*
X72594385Y-67164674D01*
X72604176Y-66971610D01*
X72574903Y-66780526D01*
X72507764Y-66599247D01*
X72446632Y-66501170D01*
X72414738Y-66450000D01*
X76784508Y-66450000D01*
X76804353Y-66575301D01*
X76804353Y-66575302D01*
X76804354Y-66575304D01*
X76861950Y-66688342D01*
X76951658Y-66778050D01*
X77064696Y-66835646D01*
X77190000Y-66855492D01*
X77315304Y-66835646D01*
X77428342Y-66778050D01*
X77518050Y-66688342D01*
X77575646Y-66575304D01*
X77595492Y-66450000D01*
X77575646Y-66324696D01*
X77537586Y-66250000D01*
X78084508Y-66250000D01*
X78104353Y-66375301D01*
X78104353Y-66375302D01*
X78104354Y-66375304D01*
X78161950Y-66488342D01*
X78251658Y-66578050D01*
X78364696Y-66635646D01*
X78490000Y-66655492D01*
X78615304Y-66635646D01*
X78728342Y-66578050D01*
X78818050Y-66488342D01*
X78875646Y-66375304D01*
X78895492Y-66250000D01*
X78875646Y-66124696D01*
X78818050Y-66011658D01*
X78728342Y-65921950D01*
X78615304Y-65864354D01*
X78615302Y-65864353D01*
X78615301Y-65864353D01*
X78490000Y-65844508D01*
X78364698Y-65864353D01*
X78251656Y-65921951D01*
X78161951Y-66011656D01*
X78104353Y-66124698D01*
X78084508Y-66250000D01*
X77537586Y-66250000D01*
X77518050Y-66211658D01*
X77428342Y-66121950D01*
X77315304Y-66064354D01*
X77315302Y-66064353D01*
X77315301Y-66064353D01*
X77190000Y-66044508D01*
X77064698Y-66064353D01*
X77064696Y-66064353D01*
X77064696Y-66064354D01*
X77025835Y-66084155D01*
X76951656Y-66121951D01*
X76861951Y-66211656D01*
X76804353Y-66324698D01*
X76784508Y-66450000D01*
X72414738Y-66450000D01*
X72405512Y-66435197D01*
X72405508Y-66435192D01*
X72272325Y-66295082D01*
X72187210Y-66235841D01*
X72113658Y-66184647D01*
X72113655Y-66184645D01*
X72113654Y-66184645D01*
X71936016Y-66108414D01*
X71936006Y-66108411D01*
X71746662Y-66069500D01*
X71746656Y-66069500D01*
X71604820Y-66069500D01*
X70074500Y-66069500D01*
X70026934Y-66052187D01*
X70001624Y-66008350D01*
X70000500Y-65995500D01*
X70000500Y-65504500D01*
X70017813Y-65456934D01*
X70061650Y-65431624D01*
X70074500Y-65430500D01*
X71698205Y-65430500D01*
X71698206Y-65430500D01*
X71745326Y-65425708D01*
X71842317Y-65415846D01*
X71842322Y-65415845D01*
X72026762Y-65357976D01*
X72026763Y-65357975D01*
X72026768Y-65357974D01*
X72195791Y-65264159D01*
X72342468Y-65138240D01*
X72460796Y-64985373D01*
X72545930Y-64811816D01*
X72594385Y-64624674D01*
X72604176Y-64431610D01*
X72574903Y-64240526D01*
X72507764Y-64059247D01*
X72439670Y-63950000D01*
X77584508Y-63950000D01*
X77604353Y-64075301D01*
X77604353Y-64075302D01*
X77604354Y-64075304D01*
X77661950Y-64188342D01*
X77751658Y-64278050D01*
X77864696Y-64335646D01*
X77990000Y-64355492D01*
X78115304Y-64335646D01*
X78228342Y-64278050D01*
X78318050Y-64188342D01*
X78375646Y-64075304D01*
X78387573Y-64000000D01*
X82194508Y-64000000D01*
X82214353Y-64125301D01*
X82214353Y-64125302D01*
X82214354Y-64125304D01*
X82271950Y-64238342D01*
X82361658Y-64328050D01*
X82474696Y-64385646D01*
X82600000Y-64405492D01*
X82725304Y-64385646D01*
X82838342Y-64328050D01*
X82928050Y-64238342D01*
X82985646Y-64125304D01*
X83005492Y-64000000D01*
X82985646Y-63874696D01*
X82928050Y-63761658D01*
X82838342Y-63671950D01*
X82725304Y-63614354D01*
X82725302Y-63614353D01*
X82725301Y-63614353D01*
X82600000Y-63594508D01*
X82474698Y-63614353D01*
X82361656Y-63671951D01*
X82271951Y-63761656D01*
X82214353Y-63874698D01*
X82194508Y-64000000D01*
X78387573Y-64000000D01*
X78395492Y-63950000D01*
X78375646Y-63824696D01*
X78318050Y-63711658D01*
X78228342Y-63621950D01*
X78115304Y-63564354D01*
X78115302Y-63564353D01*
X78115301Y-63564353D01*
X77990000Y-63544508D01*
X77864698Y-63564353D01*
X77751656Y-63621951D01*
X77661951Y-63711656D01*
X77604353Y-63824698D01*
X77584508Y-63950000D01*
X72439670Y-63950000D01*
X72405512Y-63895197D01*
X72405508Y-63895192D01*
X72272325Y-63755082D01*
X72209935Y-63711658D01*
X72113658Y-63644647D01*
X72113655Y-63644645D01*
X72113654Y-63644645D01*
X71936016Y-63568414D01*
X71936006Y-63568411D01*
X71746662Y-63529500D01*
X71746656Y-63529500D01*
X71604820Y-63529500D01*
X70074500Y-63529500D01*
X70026934Y-63512187D01*
X70001624Y-63468350D01*
X70000500Y-63455500D01*
X70000500Y-62964500D01*
X70017813Y-62916934D01*
X70061650Y-62891624D01*
X70074500Y-62890500D01*
X71698205Y-62890500D01*
X71698206Y-62890500D01*
X71745326Y-62885708D01*
X71842317Y-62875846D01*
X71842322Y-62875845D01*
X72026762Y-62817976D01*
X72026763Y-62817975D01*
X72026768Y-62817974D01*
X72195791Y-62724159D01*
X72223933Y-62700000D01*
X79494508Y-62700000D01*
X79514353Y-62825301D01*
X79514353Y-62825302D01*
X79514354Y-62825304D01*
X79571950Y-62938342D01*
X79661658Y-63028050D01*
X79774696Y-63085646D01*
X79900000Y-63105492D01*
X80025304Y-63085646D01*
X80138342Y-63028050D01*
X80166392Y-63000000D01*
X82194508Y-63000000D01*
X82214353Y-63125301D01*
X82214353Y-63125302D01*
X82214354Y-63125304D01*
X82271950Y-63238342D01*
X82361658Y-63328050D01*
X82474696Y-63385646D01*
X82600000Y-63405492D01*
X82725304Y-63385646D01*
X82838342Y-63328050D01*
X82928050Y-63238342D01*
X82985646Y-63125304D01*
X83005492Y-63000000D01*
X83694508Y-63000000D01*
X83714353Y-63125301D01*
X83714353Y-63125302D01*
X83714354Y-63125304D01*
X83771950Y-63238342D01*
X83861658Y-63328050D01*
X83974696Y-63385646D01*
X84100000Y-63405492D01*
X84225304Y-63385646D01*
X84338342Y-63328050D01*
X84428050Y-63238342D01*
X84485646Y-63125304D01*
X84505492Y-63000000D01*
X84485646Y-62874696D01*
X84428050Y-62761658D01*
X84338342Y-62671950D01*
X84225304Y-62614354D01*
X84225302Y-62614353D01*
X84225301Y-62614353D01*
X84100000Y-62594508D01*
X83974698Y-62614353D01*
X83861656Y-62671951D01*
X83771951Y-62761656D01*
X83714353Y-62874698D01*
X83694508Y-63000000D01*
X83005492Y-63000000D01*
X82985646Y-62874696D01*
X82928050Y-62761658D01*
X82838342Y-62671950D01*
X82725304Y-62614354D01*
X82725302Y-62614353D01*
X82725301Y-62614353D01*
X82600000Y-62594508D01*
X82474698Y-62614353D01*
X82361656Y-62671951D01*
X82271951Y-62761656D01*
X82214353Y-62874698D01*
X82194508Y-63000000D01*
X80166392Y-63000000D01*
X80228050Y-62938342D01*
X80285646Y-62825304D01*
X80305492Y-62700000D01*
X80285646Y-62574696D01*
X80228050Y-62461658D01*
X80138342Y-62371950D01*
X80025304Y-62314354D01*
X80025302Y-62314353D01*
X80025301Y-62314353D01*
X79900000Y-62294508D01*
X79774698Y-62314353D01*
X79661656Y-62371951D01*
X79571951Y-62461656D01*
X79514353Y-62574698D01*
X79494508Y-62700000D01*
X72223933Y-62700000D01*
X72342468Y-62598240D01*
X72460796Y-62445373D01*
X72545930Y-62271816D01*
X72594385Y-62084674D01*
X72604176Y-61891610D01*
X72574903Y-61700526D01*
X72507764Y-61519247D01*
X72439391Y-61409552D01*
X72405512Y-61355197D01*
X72405508Y-61355192D01*
X72272325Y-61215082D01*
X72187210Y-61155841D01*
X72113658Y-61104647D01*
X72113655Y-61104645D01*
X72113654Y-61104645D01*
X71936016Y-61028414D01*
X71936006Y-61028411D01*
X71746662Y-60989500D01*
X71746656Y-60989500D01*
X71604820Y-60989500D01*
X70074500Y-60989500D01*
X70026934Y-60972187D01*
X70001624Y-60928350D01*
X70000500Y-60915500D01*
X70000500Y-60424500D01*
X70017813Y-60376934D01*
X70061650Y-60351624D01*
X70074500Y-60350500D01*
X71698205Y-60350500D01*
X71698206Y-60350500D01*
X71745326Y-60345708D01*
X71842317Y-60335846D01*
X71842322Y-60335845D01*
X72026762Y-60277976D01*
X72026763Y-60277975D01*
X72026768Y-60277974D01*
X72195791Y-60184159D01*
X72342468Y-60058240D01*
X72460796Y-59905373D01*
X72545930Y-59731816D01*
X72594385Y-59544674D01*
X72604176Y-59351610D01*
X72574903Y-59160526D01*
X72507764Y-58979247D01*
X72446632Y-58881170D01*
X72405512Y-58815197D01*
X72405508Y-58815192D01*
X72272325Y-58675082D01*
X72161205Y-58597741D01*
X72113658Y-58564647D01*
X72113655Y-58564645D01*
X72113654Y-58564645D01*
X71963014Y-58500000D01*
X74444592Y-58500000D01*
X74464034Y-58597741D01*
X74476128Y-58615841D01*
X74515710Y-58675081D01*
X74519399Y-58680601D01*
X74534260Y-58690531D01*
X74545472Y-58699732D01*
X75500269Y-59654530D01*
X75509468Y-59665738D01*
X75519399Y-59680601D01*
X75519400Y-59680601D01*
X75519401Y-59680603D01*
X75540279Y-59694553D01*
X75540294Y-59694562D01*
X75540316Y-59694577D01*
X75540317Y-59694578D01*
X75602260Y-59735966D01*
X75700000Y-59755409D01*
X75715868Y-59752252D01*
X75717530Y-59751922D01*
X75731967Y-59750500D01*
X76529898Y-59750500D01*
X76577464Y-59767813D01*
X76582224Y-59772174D01*
X76649879Y-59839829D01*
X76762917Y-59897425D01*
X76888221Y-59917271D01*
X76948047Y-59907795D01*
X76997734Y-59917453D01*
X77025554Y-59947286D01*
X77071950Y-60038342D01*
X77161658Y-60128050D01*
X77274696Y-60185646D01*
X77400000Y-60205492D01*
X77525304Y-60185646D01*
X77576183Y-60159721D01*
X77626421Y-60153552D01*
X77668874Y-60181121D01*
X77683675Y-60229528D01*
X77682865Y-60237231D01*
X77674508Y-60289998D01*
X77674508Y-60289999D01*
X77694353Y-60415301D01*
X77694353Y-60415302D01*
X77694354Y-60415304D01*
X77751950Y-60528342D01*
X77841658Y-60618050D01*
X77954696Y-60675646D01*
X78080000Y-60695492D01*
X78181947Y-60679345D01*
X78231635Y-60689004D01*
X78245848Y-60700108D01*
X78900267Y-61354527D01*
X78909466Y-61365735D01*
X78919399Y-61380601D01*
X78962728Y-61409552D01*
X79002259Y-61435966D01*
X79100000Y-61455408D01*
X79117525Y-61451921D01*
X79131962Y-61450500D01*
X80904456Y-61450500D01*
X80952022Y-61467813D01*
X80977332Y-61511650D01*
X80968542Y-61561500D01*
X80956782Y-61576826D01*
X80871951Y-61661656D01*
X80814353Y-61774698D01*
X80794508Y-61900000D01*
X80814353Y-62025301D01*
X80814353Y-62025302D01*
X80814354Y-62025304D01*
X80871950Y-62138342D01*
X80961658Y-62228050D01*
X81074696Y-62285646D01*
X81200000Y-62305492D01*
X81325304Y-62285646D01*
X81438342Y-62228050D01*
X81528050Y-62138342D01*
X81585646Y-62025304D01*
X81605492Y-61900000D01*
X81585646Y-61774696D01*
X81528050Y-61661658D01*
X81443218Y-61576826D01*
X81421826Y-61530950D01*
X81434927Y-61482055D01*
X81476391Y-61453021D01*
X81495544Y-61450500D01*
X81853456Y-61450500D01*
X81901022Y-61467813D01*
X81905782Y-61472174D01*
X81961658Y-61528050D01*
X82074696Y-61585646D01*
X82200000Y-61605492D01*
X82325304Y-61585646D01*
X82438342Y-61528050D01*
X82528050Y-61438342D01*
X82585646Y-61325304D01*
X82605492Y-61200000D01*
X82585646Y-61074696D01*
X82528050Y-60961658D01*
X82438342Y-60871950D01*
X82325304Y-60814354D01*
X82325302Y-60814353D01*
X82325301Y-60814353D01*
X82200000Y-60794508D01*
X82074698Y-60814353D01*
X81961656Y-60871951D01*
X81905782Y-60927826D01*
X81859906Y-60949218D01*
X81853456Y-60949500D01*
X81443121Y-60949500D01*
X81395555Y-60932187D01*
X81370245Y-60888350D01*
X81377186Y-60841906D01*
X81385646Y-60825304D01*
X81405492Y-60700000D01*
X81385646Y-60574696D01*
X81328050Y-60461658D01*
X81238342Y-60371950D01*
X81125304Y-60314354D01*
X81125302Y-60314353D01*
X81125301Y-60314353D01*
X81000000Y-60294508D01*
X80874698Y-60314353D01*
X80761656Y-60371951D01*
X80671951Y-60461656D01*
X80614353Y-60574698D01*
X80594508Y-60700000D01*
X80614353Y-60825302D01*
X80614353Y-60825303D01*
X80614354Y-60825304D01*
X80622813Y-60841906D01*
X80628983Y-60892145D01*
X80601414Y-60934598D01*
X80556879Y-60949500D01*
X79234412Y-60949500D01*
X79186846Y-60932187D01*
X79182086Y-60927826D01*
X78773365Y-60519105D01*
X78751973Y-60473229D01*
X78765074Y-60424334D01*
X78806538Y-60395300D01*
X78837264Y-60393690D01*
X78911779Y-60405492D01*
X79037083Y-60385646D01*
X79150121Y-60328050D01*
X79239829Y-60238342D01*
X79297425Y-60125304D01*
X79317271Y-60000000D01*
X79297425Y-59874696D01*
X79239829Y-59761658D01*
X79150121Y-59671950D01*
X79037083Y-59614354D01*
X79037081Y-59614353D01*
X79037080Y-59614353D01*
X78911779Y-59594508D01*
X78786477Y-59614353D01*
X78673435Y-59671951D01*
X78583730Y-59761656D01*
X78526132Y-59874698D01*
X78508511Y-59985954D01*
X78483970Y-60030227D01*
X78436713Y-60048367D01*
X78388852Y-60031887D01*
X78383096Y-60026704D01*
X78318343Y-59961951D01*
X78318342Y-59961950D01*
X78205304Y-59904354D01*
X78205302Y-59904353D01*
X78205301Y-59904353D01*
X78080000Y-59884508D01*
X77954698Y-59904353D01*
X77954696Y-59904353D01*
X77954696Y-59904354D01*
X77913580Y-59925304D01*
X77903818Y-59930278D01*
X77853576Y-59936446D01*
X77811124Y-59908877D01*
X77796324Y-59860470D01*
X77797132Y-59852780D01*
X77805492Y-59800000D01*
X77785646Y-59674696D01*
X77728050Y-59561658D01*
X77638342Y-59471950D01*
X77575637Y-59440000D01*
X82074508Y-59440000D01*
X82094353Y-59565301D01*
X82094353Y-59565302D01*
X82094354Y-59565304D01*
X82151950Y-59678342D01*
X82241658Y-59768050D01*
X82354696Y-59825646D01*
X82480000Y-59845492D01*
X82605304Y-59825646D01*
X82718342Y-59768050D01*
X82778546Y-59707846D01*
X82824422Y-59686453D01*
X82873316Y-59699553D01*
X82890742Y-59716679D01*
X82891950Y-59718342D01*
X82981658Y-59808050D01*
X83094696Y-59865646D01*
X83220000Y-59885492D01*
X83345304Y-59865646D01*
X83458342Y-59808050D01*
X83458344Y-59808047D01*
X83459005Y-59807711D01*
X83509247Y-59801542D01*
X83544927Y-59821319D01*
X83581658Y-59858050D01*
X83694696Y-59915646D01*
X83820000Y-59935492D01*
X83945304Y-59915646D01*
X84010451Y-59882451D01*
X84060691Y-59876283D01*
X84103144Y-59903851D01*
X84111633Y-59920154D01*
X84111711Y-59920115D01*
X84114353Y-59925301D01*
X84114354Y-59925304D01*
X84171950Y-60038342D01*
X84261658Y-60128050D01*
X84374696Y-60185646D01*
X84500000Y-60205492D01*
X84625304Y-60185646D01*
X84738342Y-60128050D01*
X84828050Y-60038342D01*
X84885646Y-59925304D01*
X84905492Y-59800000D01*
X84885646Y-59674696D01*
X84828050Y-59561658D01*
X84738342Y-59471950D01*
X84628403Y-59415933D01*
X84593883Y-59378914D01*
X84591233Y-59328365D01*
X84621697Y-59287938D01*
X84628390Y-59284073D01*
X84738342Y-59228050D01*
X84828050Y-59138342D01*
X84885646Y-59025304D01*
X84905492Y-58900000D01*
X84885646Y-58774696D01*
X84828050Y-58661658D01*
X84738342Y-58571950D01*
X84625304Y-58514354D01*
X84625302Y-58514353D01*
X84625301Y-58514353D01*
X84500000Y-58494508D01*
X84374698Y-58514353D01*
X84261656Y-58571951D01*
X84171951Y-58661656D01*
X84114353Y-58774698D01*
X84094508Y-58900000D01*
X84114353Y-59025301D01*
X84114353Y-59025302D01*
X84114354Y-59025304D01*
X84149537Y-59094354D01*
X84152166Y-59099513D01*
X84158334Y-59149755D01*
X84130765Y-59192207D01*
X84082358Y-59207007D01*
X84052637Y-59199043D01*
X83945304Y-59144354D01*
X83945302Y-59144353D01*
X83945301Y-59144353D01*
X83820000Y-59124508D01*
X83694698Y-59144353D01*
X83694696Y-59144353D01*
X83694696Y-59144354D01*
X83587364Y-59199043D01*
X83580993Y-59202289D01*
X83530751Y-59208457D01*
X83495072Y-59188680D01*
X83458343Y-59151951D01*
X83458342Y-59151950D01*
X83345304Y-59094354D01*
X83345302Y-59094353D01*
X83345301Y-59094353D01*
X83220000Y-59074508D01*
X83094698Y-59094353D01*
X82981654Y-59151952D01*
X82921452Y-59212154D01*
X82875576Y-59233546D01*
X82826682Y-59220445D01*
X82809256Y-59203319D01*
X82808051Y-59201661D01*
X82808050Y-59201658D01*
X82718342Y-59111950D01*
X82605304Y-59054354D01*
X82605302Y-59054353D01*
X82605301Y-59054353D01*
X82480000Y-59034508D01*
X82354698Y-59054353D01*
X82241656Y-59111951D01*
X82151951Y-59201656D01*
X82094353Y-59314698D01*
X82074508Y-59440000D01*
X77575637Y-59440000D01*
X77525304Y-59414354D01*
X77525302Y-59414353D01*
X77525301Y-59414353D01*
X77400000Y-59394508D01*
X77399998Y-59394508D01*
X77340173Y-59403982D01*
X77290485Y-59394323D01*
X77262665Y-59364489D01*
X77225555Y-59291658D01*
X77216271Y-59273437D01*
X77126563Y-59183729D01*
X77013525Y-59126133D01*
X77013523Y-59126132D01*
X77013522Y-59126132D01*
X76888221Y-59106287D01*
X76762919Y-59126132D01*
X76649877Y-59183730D01*
X76605782Y-59227826D01*
X76559906Y-59249218D01*
X76553456Y-59249500D01*
X75834413Y-59249500D01*
X75786847Y-59232187D01*
X75782087Y-59227826D01*
X74972174Y-58417913D01*
X74950782Y-58372037D01*
X74950500Y-58365587D01*
X74950500Y-56242490D01*
X75256998Y-56242490D01*
X75276843Y-56367791D01*
X75276843Y-56367792D01*
X75276844Y-56367794D01*
X75321529Y-56455492D01*
X75334441Y-56480833D01*
X75424147Y-56570539D01*
X75426806Y-56572471D01*
X75455111Y-56614436D01*
X75453914Y-56648809D01*
X75454765Y-56648944D01*
X75434008Y-56780000D01*
X75453854Y-56905304D01*
X75504485Y-57004674D01*
X75511450Y-57018342D01*
X75522792Y-57029684D01*
X75544183Y-57075558D01*
X75536400Y-57115603D01*
X75477657Y-57230894D01*
X75457812Y-57356196D01*
X75477657Y-57481497D01*
X75477657Y-57481498D01*
X75477658Y-57481500D01*
X75535254Y-57594538D01*
X75624962Y-57684246D01*
X75738000Y-57741842D01*
X75863304Y-57761688D01*
X75988608Y-57741842D01*
X76101646Y-57684246D01*
X76163490Y-57622401D01*
X76209365Y-57601010D01*
X76258259Y-57614110D01*
X76268141Y-57622402D01*
X77200269Y-58554530D01*
X77209468Y-58565738D01*
X77219399Y-58580601D01*
X77219400Y-58580601D01*
X77219401Y-58580603D01*
X77240279Y-58594553D01*
X77240294Y-58594562D01*
X77240316Y-58594577D01*
X77240317Y-58594578D01*
X77302260Y-58635966D01*
X77400000Y-58655409D01*
X77415868Y-58652252D01*
X77417530Y-58651922D01*
X77431967Y-58650500D01*
X83421591Y-58650500D01*
X83436027Y-58651921D01*
X83453553Y-58655408D01*
X83551294Y-58635966D01*
X83581413Y-58615841D01*
X83634154Y-58580601D01*
X83644086Y-58565734D01*
X83653282Y-58554530D01*
X84394531Y-57813280D01*
X84405734Y-57804086D01*
X84420601Y-57794154D01*
X84470550Y-57719399D01*
X84475966Y-57711294D01*
X84495408Y-57613553D01*
X84491922Y-57596026D01*
X84490500Y-57581590D01*
X84490500Y-57126544D01*
X84507813Y-57078978D01*
X84512174Y-57074218D01*
X84536392Y-57050000D01*
X84568050Y-57018342D01*
X84625646Y-56905304D01*
X84645492Y-56780000D01*
X84625646Y-56654696D01*
X84568050Y-56541658D01*
X84478342Y-56451950D01*
X84365304Y-56394354D01*
X84365302Y-56394353D01*
X84365301Y-56394353D01*
X84240000Y-56374508D01*
X84108944Y-56395265D01*
X84108707Y-56393771D01*
X84065140Y-56392243D01*
X84027528Y-56358366D01*
X84026938Y-56357231D01*
X83968051Y-56241659D01*
X83878343Y-56151951D01*
X83878342Y-56151950D01*
X83765304Y-56094354D01*
X83765302Y-56094353D01*
X83765301Y-56094353D01*
X83640000Y-56074508D01*
X83514698Y-56094353D01*
X83401656Y-56151951D01*
X83312326Y-56241282D01*
X83266450Y-56262674D01*
X83217555Y-56249573D01*
X83207674Y-56241282D01*
X83138343Y-56171951D01*
X83138342Y-56171950D01*
X83025304Y-56114354D01*
X83025302Y-56114353D01*
X83025301Y-56114353D01*
X82900000Y-56094508D01*
X82774695Y-56114353D01*
X82774695Y-56114354D01*
X82661660Y-56171948D01*
X82661657Y-56171950D01*
X82646257Y-56187350D01*
X82600380Y-56208740D01*
X82551486Y-56195636D01*
X82541608Y-56187347D01*
X80524260Y-54170000D01*
X83804659Y-54170000D01*
X83823976Y-54366133D01*
X83881187Y-54554731D01*
X83937283Y-54659677D01*
X83974090Y-54728538D01*
X84099117Y-54880883D01*
X84251462Y-55005910D01*
X84324439Y-55044917D01*
X84425268Y-55098812D01*
X84425270Y-55098812D01*
X84425273Y-55098814D01*
X84613868Y-55156024D01*
X84810000Y-55175341D01*
X85006132Y-55156024D01*
X85194727Y-55098814D01*
X85368538Y-55005910D01*
X85520883Y-54880883D01*
X85645910Y-54728538D01*
X85738814Y-54554727D01*
X85796024Y-54366132D01*
X85815341Y-54170000D01*
X85796024Y-53973868D01*
X85738814Y-53785273D01*
X85738812Y-53785270D01*
X85738812Y-53785268D01*
X85672795Y-53661760D01*
X85645910Y-53611462D01*
X85520883Y-53459117D01*
X85368538Y-53334090D01*
X85320382Y-53308350D01*
X85194731Y-53241187D01*
X85006133Y-53183976D01*
X84810000Y-53164659D01*
X84613866Y-53183976D01*
X84425268Y-53241187D01*
X84251463Y-53334089D01*
X84099117Y-53459117D01*
X83974089Y-53611463D01*
X83881187Y-53785268D01*
X83823976Y-53973866D01*
X83804659Y-54170000D01*
X80524260Y-54170000D01*
X80299732Y-53945472D01*
X80290530Y-53934259D01*
X80280601Y-53919399D01*
X80227536Y-53883942D01*
X80197741Y-53864034D01*
X80100000Y-53844592D01*
X80082475Y-53848078D01*
X80068038Y-53849500D01*
X77931967Y-53849500D01*
X77917530Y-53848078D01*
X77900001Y-53844591D01*
X77900000Y-53844591D01*
X77802260Y-53864033D01*
X77802260Y-53864034D01*
X77762158Y-53890829D01*
X77719397Y-53919400D01*
X77709468Y-53934259D01*
X77700268Y-53945469D01*
X76807914Y-54837826D01*
X76762038Y-54859218D01*
X76755588Y-54859500D01*
X76182169Y-54859500D01*
X76134603Y-54842187D01*
X76109293Y-54798350D01*
X76116234Y-54751905D01*
X76118048Y-54748343D01*
X76118050Y-54748342D01*
X76175646Y-54635304D01*
X76195492Y-54510000D01*
X76175646Y-54384696D01*
X76118050Y-54271658D01*
X76028342Y-54181950D01*
X75915304Y-54124354D01*
X75915302Y-54124353D01*
X75915301Y-54124353D01*
X75790000Y-54104508D01*
X75664698Y-54124353D01*
X75551656Y-54181951D01*
X75461951Y-54271656D01*
X75404353Y-54384698D01*
X75384508Y-54510000D01*
X75404353Y-54635301D01*
X75404353Y-54635302D01*
X75404354Y-54635304D01*
X75458084Y-54740754D01*
X75461951Y-54748343D01*
X75471282Y-54757674D01*
X75492674Y-54803550D01*
X75479573Y-54852445D01*
X75471282Y-54862326D01*
X75461951Y-54871656D01*
X75404353Y-54984698D01*
X75384508Y-55110000D01*
X75404354Y-55235304D01*
X75404355Y-55235308D01*
X75425158Y-55276136D01*
X75431327Y-55326377D01*
X75411550Y-55362056D01*
X75351952Y-55421654D01*
X75294353Y-55534698D01*
X75274508Y-55660000D01*
X75294353Y-55785301D01*
X75294353Y-55785302D01*
X75294354Y-55785304D01*
X75351950Y-55898342D01*
X75351954Y-55898346D01*
X75351955Y-55898352D01*
X75354595Y-55903532D01*
X75353588Y-55904044D01*
X75365909Y-55947003D01*
X75345323Y-55993247D01*
X75344417Y-55994170D01*
X75334441Y-56004146D01*
X75334439Y-56004148D01*
X75334440Y-56004148D01*
X75278288Y-56114353D01*
X75276843Y-56117188D01*
X75256998Y-56242490D01*
X74950500Y-56242490D01*
X74950500Y-52740000D01*
X78044508Y-52740000D01*
X78064353Y-52865301D01*
X78064353Y-52865302D01*
X78064354Y-52865304D01*
X78121950Y-52978342D01*
X78211658Y-53068050D01*
X78324696Y-53125646D01*
X78450000Y-53145492D01*
X78575304Y-53125646D01*
X78688342Y-53068050D01*
X78778050Y-52978342D01*
X78803815Y-52927773D01*
X78840835Y-52893251D01*
X78881323Y-52888279D01*
X78990000Y-52905492D01*
X79115304Y-52885646D01*
X79228342Y-52828050D01*
X79318050Y-52738342D01*
X79375646Y-52625304D01*
X79395492Y-52500000D01*
X79375646Y-52374696D01*
X79318050Y-52261658D01*
X79262173Y-52205781D01*
X79240782Y-52159906D01*
X79240500Y-52153456D01*
X79240500Y-50644412D01*
X79257813Y-50596846D01*
X79262174Y-50592086D01*
X80323174Y-49531086D01*
X80369050Y-49509694D01*
X80417945Y-49522795D01*
X80446979Y-49564259D01*
X80449500Y-49583412D01*
X80449500Y-49931543D01*
X80432187Y-49979109D01*
X80388350Y-50004419D01*
X80363924Y-50004632D01*
X80300000Y-49994508D01*
X80174698Y-50014353D01*
X80061656Y-50071951D01*
X79971951Y-50161656D01*
X79914353Y-50274698D01*
X79894508Y-50400000D01*
X79914353Y-50525301D01*
X79914353Y-50525302D01*
X79914354Y-50525304D01*
X79971950Y-50638342D01*
X80061658Y-50728050D01*
X80174696Y-50785646D01*
X80300000Y-50805492D01*
X80363924Y-50795367D01*
X80413612Y-50805025D01*
X80445468Y-50844364D01*
X80449500Y-50868456D01*
X80449500Y-52329730D01*
X80432187Y-52377296D01*
X80388350Y-52402606D01*
X80363926Y-52402819D01*
X80324775Y-52396619D01*
X80324772Y-52396619D01*
X80199470Y-52416464D01*
X80086428Y-52474062D01*
X79996723Y-52563767D01*
X79939125Y-52676809D01*
X79919280Y-52802111D01*
X79939125Y-52927412D01*
X79939125Y-52927413D01*
X79939126Y-52927415D01*
X79996722Y-53040453D01*
X80086430Y-53130161D01*
X80199468Y-53187757D01*
X80324772Y-53207603D01*
X80450076Y-53187757D01*
X80563114Y-53130161D01*
X80563115Y-53130159D01*
X80568304Y-53127516D01*
X80569340Y-53129549D01*
X80609083Y-53118133D01*
X80655335Y-53138699D01*
X80669890Y-53158360D01*
X80714458Y-53245830D01*
X80714460Y-53245832D01*
X80804168Y-53335540D01*
X80917206Y-53393136D01*
X81042510Y-53412982D01*
X81167814Y-53393136D01*
X81280852Y-53335540D01*
X81370560Y-53245832D01*
X81428156Y-53132794D01*
X81448002Y-53007490D01*
X81428156Y-52882186D01*
X81370560Y-52769148D01*
X81280852Y-52679440D01*
X81167814Y-52621844D01*
X81167812Y-52621843D01*
X81167811Y-52621843D01*
X81042510Y-52601998D01*
X81042509Y-52601998D01*
X81036075Y-52603017D01*
X80986386Y-52593358D01*
X80954531Y-52554019D01*
X80950500Y-52529928D01*
X80950500Y-51630000D01*
X83804659Y-51630000D01*
X83823976Y-51826133D01*
X83881187Y-52014731D01*
X83933081Y-52111816D01*
X83974090Y-52188538D01*
X84099117Y-52340883D01*
X84251462Y-52465910D01*
X84315240Y-52500000D01*
X84425268Y-52558812D01*
X84425270Y-52558812D01*
X84425273Y-52558814D01*
X84613868Y-52616024D01*
X84810000Y-52635341D01*
X85006132Y-52616024D01*
X85194727Y-52558814D01*
X85368538Y-52465910D01*
X85520883Y-52340883D01*
X85645910Y-52188538D01*
X85738814Y-52014727D01*
X85796024Y-51826132D01*
X85815341Y-51630000D01*
X85796024Y-51433868D01*
X85738814Y-51245273D01*
X85738812Y-51245270D01*
X85738812Y-51245268D01*
X85672795Y-51121760D01*
X85645910Y-51071462D01*
X85520883Y-50919117D01*
X85368538Y-50794090D01*
X85352740Y-50785646D01*
X85194731Y-50701187D01*
X85006133Y-50643976D01*
X84810000Y-50624659D01*
X84613866Y-50643976D01*
X84425268Y-50701187D01*
X84251463Y-50794089D01*
X84099117Y-50919117D01*
X83974089Y-51071463D01*
X83881187Y-51245268D01*
X83823976Y-51433866D01*
X83804659Y-51630000D01*
X80950500Y-51630000D01*
X80950500Y-49954820D01*
X83809500Y-49954820D01*
X83813454Y-49974696D01*
X83818233Y-49998722D01*
X83835228Y-50024158D01*
X83851496Y-50048504D01*
X83901278Y-50081767D01*
X83945180Y-50090500D01*
X83945181Y-50090500D01*
X85674819Y-50090500D01*
X85674820Y-50090500D01*
X85718722Y-50081767D01*
X85768504Y-50048504D01*
X85801767Y-49998722D01*
X85810500Y-49954820D01*
X85810500Y-48225180D01*
X85801767Y-48181278D01*
X85768504Y-48131496D01*
X85718722Y-48098233D01*
X85674820Y-48089500D01*
X83945180Y-48089500D01*
X83923228Y-48093866D01*
X83901277Y-48098233D01*
X83851496Y-48131495D01*
X83851495Y-48131496D01*
X83818233Y-48181277D01*
X83814509Y-48200000D01*
X83809500Y-48225180D01*
X83809500Y-49954820D01*
X80950500Y-49954820D01*
X80950500Y-49334412D01*
X80967813Y-49286846D01*
X80972174Y-49282086D01*
X83133507Y-47120753D01*
X85334534Y-44919725D01*
X85345737Y-44910531D01*
X85360601Y-44900601D01*
X85415966Y-44817740D01*
X85422395Y-44785422D01*
X85435409Y-44720000D01*
X85431922Y-44702470D01*
X85430500Y-44688033D01*
X85430500Y-42746543D01*
X85447813Y-42698977D01*
X85452175Y-42694217D01*
X85508047Y-42638345D01*
X85508047Y-42638344D01*
X85508050Y-42638342D01*
X85565646Y-42525304D01*
X85585492Y-42400000D01*
X85566486Y-42280000D01*
X87134508Y-42280000D01*
X87154353Y-42405301D01*
X87154353Y-42405302D01*
X87154354Y-42405304D01*
X87211950Y-42518342D01*
X87301658Y-42608050D01*
X87414696Y-42665646D01*
X87540000Y-42685492D01*
X87665304Y-42665646D01*
X87778342Y-42608050D01*
X87868050Y-42518342D01*
X87925646Y-42405304D01*
X87945492Y-42280000D01*
X87925646Y-42154696D01*
X87868050Y-42041658D01*
X87778342Y-41951950D01*
X87665304Y-41894354D01*
X87665302Y-41894353D01*
X87665301Y-41894353D01*
X87540000Y-41874508D01*
X87414698Y-41894353D01*
X87301656Y-41951951D01*
X87211951Y-42041656D01*
X87154353Y-42154698D01*
X87134508Y-42280000D01*
X85566486Y-42280000D01*
X85565646Y-42274696D01*
X85508050Y-42161658D01*
X85418342Y-42071950D01*
X85307469Y-42015457D01*
X85272948Y-41978437D01*
X85270299Y-41927887D01*
X85300762Y-41887461D01*
X85307457Y-41883596D01*
X85318342Y-41878050D01*
X85408050Y-41788342D01*
X85465646Y-41675304D01*
X85485492Y-41550000D01*
X85469802Y-41450942D01*
X85479462Y-41401253D01*
X85518800Y-41369398D01*
X85531311Y-41366278D01*
X85535304Y-41365646D01*
X85648342Y-41308050D01*
X85738050Y-41218342D01*
X85795646Y-41105304D01*
X85815492Y-40980000D01*
X85795646Y-40854696D01*
X85738050Y-40741658D01*
X85648342Y-40651950D01*
X85535304Y-40594354D01*
X85535302Y-40594353D01*
X85535301Y-40594353D01*
X85410000Y-40574508D01*
X85284698Y-40594353D01*
X85171656Y-40651951D01*
X85081951Y-40741656D01*
X85024353Y-40854698D01*
X85004508Y-40980000D01*
X85004508Y-40980001D01*
X85020196Y-41079058D01*
X85010537Y-41128746D01*
X84971198Y-41160602D01*
X84958686Y-41163722D01*
X84954698Y-41164353D01*
X84841656Y-41221951D01*
X84751951Y-41311656D01*
X84694353Y-41424698D01*
X84683588Y-41492667D01*
X84659047Y-41536939D01*
X84622075Y-41554179D01*
X84494698Y-41574353D01*
X84381656Y-41631951D01*
X84291951Y-41721656D01*
X84234353Y-41834698D01*
X84234353Y-41834699D01*
X84223682Y-41902069D01*
X84202919Y-41942818D01*
X83745472Y-42400266D01*
X83734262Y-42409466D01*
X83719400Y-42419397D01*
X83695376Y-42455353D01*
X83664034Y-42502259D01*
X83644592Y-42599999D01*
X83648078Y-42617528D01*
X83649499Y-42631962D01*
X83649499Y-45465586D01*
X83632186Y-45513152D01*
X83627825Y-45517912D01*
X80927363Y-48218374D01*
X80881487Y-48239766D01*
X80832592Y-48226665D01*
X80803558Y-48185201D01*
X80801948Y-48177624D01*
X80789374Y-48098233D01*
X80785646Y-48074696D01*
X80728050Y-47961658D01*
X80638342Y-47871950D01*
X80525304Y-47814354D01*
X80525302Y-47814353D01*
X80525301Y-47814353D01*
X80400000Y-47794508D01*
X80274698Y-47814353D01*
X80161656Y-47871951D01*
X80071951Y-47961656D01*
X80014353Y-48074698D01*
X79994508Y-48200000D01*
X80014353Y-48325301D01*
X80014353Y-48325302D01*
X80014354Y-48325304D01*
X80071950Y-48438342D01*
X80161658Y-48528050D01*
X80274696Y-48585646D01*
X80377624Y-48601948D01*
X80421896Y-48626489D01*
X80440037Y-48673745D01*
X80423557Y-48721607D01*
X80418374Y-48727363D01*
X79252737Y-49893001D01*
X79206861Y-49914393D01*
X79157966Y-49901292D01*
X79134477Y-49874272D01*
X79128049Y-49861657D01*
X79038343Y-49771951D01*
X79038342Y-49771950D01*
X78925304Y-49714354D01*
X78925302Y-49714353D01*
X78925301Y-49714353D01*
X78800000Y-49694508D01*
X78674698Y-49714353D01*
X78561656Y-49771951D01*
X78471951Y-49861656D01*
X78414353Y-49974698D01*
X78394508Y-50100000D01*
X78414353Y-50225301D01*
X78414353Y-50225302D01*
X78414354Y-50225304D01*
X78471950Y-50338342D01*
X78561658Y-50428050D01*
X78616061Y-50455770D01*
X78674693Y-50485645D01*
X78674694Y-50485645D01*
X78674696Y-50485646D01*
X78677069Y-50486021D01*
X78678794Y-50486977D01*
X78680233Y-50487445D01*
X78680142Y-50487724D01*
X78721343Y-50510556D01*
X78739489Y-50557811D01*
X78739500Y-50559111D01*
X78739500Y-52153456D01*
X78722187Y-52201022D01*
X78717826Y-52205782D01*
X78661949Y-52261658D01*
X78636183Y-52312227D01*
X78599162Y-52346749D01*
X78558673Y-52351720D01*
X78490250Y-52340883D01*
X78450000Y-52334508D01*
X78324698Y-52354353D01*
X78211656Y-52411951D01*
X78121951Y-52501656D01*
X78064353Y-52614698D01*
X78044508Y-52740000D01*
X74950500Y-52740000D01*
X74950500Y-51200000D01*
X77594508Y-51200000D01*
X77614353Y-51325301D01*
X77614353Y-51325302D01*
X77614354Y-51325304D01*
X77671950Y-51438342D01*
X77761658Y-51528050D01*
X77874696Y-51585646D01*
X78000000Y-51605492D01*
X78125304Y-51585646D01*
X78238342Y-51528050D01*
X78328050Y-51438342D01*
X78385646Y-51325304D01*
X78405492Y-51200000D01*
X78385646Y-51074696D01*
X78328050Y-50961658D01*
X78238342Y-50871950D01*
X78125304Y-50814354D01*
X78125302Y-50814353D01*
X78125301Y-50814353D01*
X78000000Y-50794508D01*
X77874698Y-50814353D01*
X77761656Y-50871951D01*
X77671951Y-50961656D01*
X77614353Y-51074698D01*
X77594508Y-51200000D01*
X74950500Y-51200000D01*
X74950500Y-48700000D01*
X76594508Y-48700000D01*
X76614353Y-48825301D01*
X76614353Y-48825302D01*
X76614354Y-48825304D01*
X76671950Y-48938342D01*
X76761658Y-49028050D01*
X76874696Y-49085646D01*
X77000000Y-49105492D01*
X77125304Y-49085646D01*
X77238342Y-49028050D01*
X77328050Y-48938342D01*
X77385646Y-48825304D01*
X77405492Y-48700000D01*
X77385646Y-48574696D01*
X77328050Y-48461658D01*
X77238342Y-48371950D01*
X77125304Y-48314354D01*
X77125302Y-48314353D01*
X77125301Y-48314353D01*
X77000000Y-48294508D01*
X76874698Y-48314353D01*
X76761656Y-48371951D01*
X76671951Y-48461656D01*
X76614353Y-48574698D01*
X76594508Y-48700000D01*
X74950500Y-48700000D01*
X74950500Y-47300000D01*
X77994508Y-47300000D01*
X78014353Y-47425301D01*
X78014353Y-47425302D01*
X78014354Y-47425304D01*
X78071950Y-47538342D01*
X78161658Y-47628050D01*
X78274696Y-47685646D01*
X78400000Y-47705492D01*
X78525304Y-47685646D01*
X78638342Y-47628050D01*
X78728050Y-47538342D01*
X78785646Y-47425304D01*
X78805492Y-47300000D01*
X78785646Y-47174696D01*
X78728050Y-47061658D01*
X78638342Y-46971950D01*
X78525304Y-46914354D01*
X78525302Y-46914353D01*
X78525301Y-46914353D01*
X78400000Y-46894508D01*
X78274698Y-46914353D01*
X78161656Y-46971951D01*
X78071951Y-47061656D01*
X78014353Y-47174698D01*
X77994508Y-47300000D01*
X74950500Y-47300000D01*
X74950500Y-45250000D01*
X76124508Y-45250000D01*
X76144353Y-45375301D01*
X76144353Y-45375302D01*
X76144354Y-45375304D01*
X76201950Y-45488342D01*
X76291658Y-45578050D01*
X76404696Y-45635646D01*
X76530000Y-45655492D01*
X76655304Y-45635646D01*
X76768342Y-45578050D01*
X76858050Y-45488342D01*
X76915646Y-45375304D01*
X76935492Y-45250000D01*
X76934415Y-45243202D01*
X76944070Y-45193514D01*
X76966393Y-45170093D01*
X76980601Y-45160601D01*
X77027563Y-45090317D01*
X77035966Y-45077740D01*
X77055409Y-44980000D01*
X77051922Y-44962470D01*
X77050500Y-44948033D01*
X77050500Y-42800000D01*
X78994508Y-42800000D01*
X79014353Y-42925301D01*
X79014353Y-42925302D01*
X79014354Y-42925304D01*
X79071950Y-43038342D01*
X79161658Y-43128050D01*
X79274696Y-43185646D01*
X79400000Y-43205492D01*
X79525304Y-43185646D01*
X79638342Y-43128050D01*
X79728050Y-43038342D01*
X79785646Y-42925304D01*
X79805492Y-42800000D01*
X79994508Y-42800000D01*
X80014353Y-42925301D01*
X80014353Y-42925302D01*
X80014354Y-42925304D01*
X80071950Y-43038342D01*
X80161658Y-43128050D01*
X80274696Y-43185646D01*
X80400000Y-43205492D01*
X80525304Y-43185646D01*
X80638342Y-43128050D01*
X80728050Y-43038342D01*
X80785646Y-42925304D01*
X80805492Y-42800000D01*
X80994508Y-42800000D01*
X81014353Y-42925301D01*
X81014353Y-42925302D01*
X81014354Y-42925304D01*
X81071950Y-43038342D01*
X81161658Y-43128050D01*
X81274696Y-43185646D01*
X81400000Y-43205492D01*
X81525304Y-43185646D01*
X81638342Y-43128050D01*
X81728050Y-43038342D01*
X81785646Y-42925304D01*
X81805492Y-42800000D01*
X81785646Y-42674696D01*
X81728050Y-42561658D01*
X81638342Y-42471950D01*
X81525304Y-42414354D01*
X81525302Y-42414353D01*
X81525301Y-42414353D01*
X81400000Y-42394508D01*
X81274698Y-42414353D01*
X81161656Y-42471951D01*
X81071951Y-42561656D01*
X81014353Y-42674698D01*
X80994508Y-42800000D01*
X80805492Y-42800000D01*
X80785646Y-42674696D01*
X80728050Y-42561658D01*
X80638342Y-42471950D01*
X80525304Y-42414354D01*
X80525302Y-42414353D01*
X80525301Y-42414353D01*
X80400000Y-42394508D01*
X80274698Y-42414353D01*
X80161656Y-42471951D01*
X80071951Y-42561656D01*
X80014353Y-42674698D01*
X79994508Y-42800000D01*
X79805492Y-42800000D01*
X79785646Y-42674696D01*
X79728050Y-42561658D01*
X79638342Y-42471950D01*
X79525304Y-42414354D01*
X79525302Y-42414353D01*
X79525301Y-42414353D01*
X79400000Y-42394508D01*
X79274698Y-42414353D01*
X79161656Y-42471951D01*
X79071951Y-42561656D01*
X79014353Y-42674698D01*
X78994508Y-42800000D01*
X77050500Y-42800000D01*
X77050500Y-41800000D01*
X78994508Y-41800000D01*
X79014353Y-41925301D01*
X79014353Y-41925302D01*
X79014354Y-41925304D01*
X79071950Y-42038342D01*
X79161658Y-42128050D01*
X79274696Y-42185646D01*
X79400000Y-42205492D01*
X79525304Y-42185646D01*
X79638342Y-42128050D01*
X79728050Y-42038342D01*
X79785646Y-41925304D01*
X79805492Y-41800000D01*
X79994508Y-41800000D01*
X80014353Y-41925301D01*
X80014353Y-41925302D01*
X80014354Y-41925304D01*
X80071950Y-42038342D01*
X80161658Y-42128050D01*
X80274696Y-42185646D01*
X80400000Y-42205492D01*
X80525304Y-42185646D01*
X80638342Y-42128050D01*
X80728050Y-42038342D01*
X80785646Y-41925304D01*
X80805492Y-41800000D01*
X80994508Y-41800000D01*
X81014353Y-41925301D01*
X81014353Y-41925302D01*
X81014354Y-41925304D01*
X81071950Y-42038342D01*
X81161658Y-42128050D01*
X81274696Y-42185646D01*
X81400000Y-42205492D01*
X81525304Y-42185646D01*
X81638342Y-42128050D01*
X81728050Y-42038342D01*
X81785646Y-41925304D01*
X81805492Y-41800000D01*
X81785646Y-41674696D01*
X81728050Y-41561658D01*
X81638342Y-41471950D01*
X81525304Y-41414354D01*
X81525302Y-41414353D01*
X81525301Y-41414353D01*
X81400000Y-41394508D01*
X81274698Y-41414353D01*
X81161656Y-41471951D01*
X81071951Y-41561656D01*
X81014353Y-41674698D01*
X80994508Y-41800000D01*
X80805492Y-41800000D01*
X80785646Y-41674696D01*
X80728050Y-41561658D01*
X80638342Y-41471950D01*
X80525304Y-41414354D01*
X80525302Y-41414353D01*
X80525301Y-41414353D01*
X80400000Y-41394508D01*
X80274698Y-41414353D01*
X80161656Y-41471951D01*
X80071951Y-41561656D01*
X80014353Y-41674698D01*
X79994508Y-41800000D01*
X79805492Y-41800000D01*
X79785646Y-41674696D01*
X79728050Y-41561658D01*
X79638342Y-41471950D01*
X79525304Y-41414354D01*
X79525302Y-41414353D01*
X79525301Y-41414353D01*
X79400000Y-41394508D01*
X79274698Y-41414353D01*
X79161656Y-41471951D01*
X79071951Y-41561656D01*
X79014353Y-41674698D01*
X78994508Y-41800000D01*
X77050500Y-41800000D01*
X77050500Y-40800000D01*
X78994508Y-40800000D01*
X79014353Y-40925301D01*
X79014353Y-40925302D01*
X79014354Y-40925304D01*
X79071950Y-41038342D01*
X79161658Y-41128050D01*
X79274696Y-41185646D01*
X79400000Y-41205492D01*
X79525304Y-41185646D01*
X79638342Y-41128050D01*
X79728050Y-41038342D01*
X79785646Y-40925304D01*
X79805492Y-40800000D01*
X79994508Y-40800000D01*
X80014353Y-40925301D01*
X80014353Y-40925302D01*
X80014354Y-40925304D01*
X80071950Y-41038342D01*
X80161658Y-41128050D01*
X80274696Y-41185646D01*
X80400000Y-41205492D01*
X80525304Y-41185646D01*
X80638342Y-41128050D01*
X80728050Y-41038342D01*
X80785646Y-40925304D01*
X80805492Y-40800000D01*
X80994508Y-40800000D01*
X81014353Y-40925301D01*
X81014353Y-40925302D01*
X81014354Y-40925304D01*
X81071950Y-41038342D01*
X81161658Y-41128050D01*
X81274696Y-41185646D01*
X81400000Y-41205492D01*
X81525304Y-41185646D01*
X81638342Y-41128050D01*
X81728050Y-41038342D01*
X81785646Y-40925304D01*
X81805492Y-40800000D01*
X81785646Y-40674696D01*
X81728050Y-40561658D01*
X81638342Y-40471950D01*
X81525304Y-40414354D01*
X81525302Y-40414353D01*
X81525301Y-40414353D01*
X81400000Y-40394508D01*
X81274698Y-40414353D01*
X81161656Y-40471951D01*
X81071951Y-40561656D01*
X81014353Y-40674698D01*
X80994508Y-40800000D01*
X80805492Y-40800000D01*
X80785646Y-40674696D01*
X80728050Y-40561658D01*
X80638342Y-40471950D01*
X80525304Y-40414354D01*
X80525302Y-40414353D01*
X80525301Y-40414353D01*
X80400000Y-40394508D01*
X80274698Y-40414353D01*
X80161656Y-40471951D01*
X80071951Y-40561656D01*
X80014353Y-40674698D01*
X79994508Y-40800000D01*
X79805492Y-40800000D01*
X79785646Y-40674696D01*
X79728050Y-40561658D01*
X79638342Y-40471950D01*
X79525304Y-40414354D01*
X79525302Y-40414353D01*
X79525301Y-40414353D01*
X79400000Y-40394508D01*
X79274698Y-40414353D01*
X79161656Y-40471951D01*
X79071951Y-40561656D01*
X79014353Y-40674698D01*
X78994508Y-40800000D01*
X77050500Y-40800000D01*
X77050500Y-34286543D01*
X77067813Y-34238977D01*
X77072163Y-34234228D01*
X77148050Y-34158342D01*
X77205646Y-34045304D01*
X77225492Y-33920000D01*
X77205646Y-33794696D01*
X77148050Y-33681658D01*
X77058342Y-33591950D01*
X76945304Y-33534354D01*
X76945302Y-33534353D01*
X76945301Y-33534353D01*
X76820000Y-33514508D01*
X76694698Y-33534353D01*
X76581656Y-33591951D01*
X76491951Y-33681656D01*
X76434353Y-33794698D01*
X76414508Y-33920000D01*
X76434353Y-34045301D01*
X76434353Y-34045302D01*
X76434354Y-34045304D01*
X76484823Y-34144354D01*
X76491951Y-34158343D01*
X76527826Y-34194218D01*
X76549218Y-34240094D01*
X76549500Y-34246544D01*
X76549500Y-36523971D01*
X76538121Y-36555233D01*
X76548140Y-36571908D01*
X76549500Y-36586028D01*
X76549500Y-44778217D01*
X76532187Y-44825783D01*
X76488350Y-44851093D01*
X76487076Y-44851306D01*
X76404698Y-44864353D01*
X76291656Y-44921951D01*
X76201951Y-45011656D01*
X76144353Y-45124698D01*
X76124508Y-45250000D01*
X74950500Y-45250000D01*
X74950500Y-36555000D01*
X75594508Y-36555000D01*
X75614353Y-36680301D01*
X75614353Y-36680302D01*
X75614354Y-36680304D01*
X75671950Y-36793342D01*
X75761658Y-36883050D01*
X75874696Y-36940646D01*
X76000000Y-36960492D01*
X76125304Y-36940646D01*
X76238342Y-36883050D01*
X76328050Y-36793342D01*
X76385646Y-36680304D01*
X76402411Y-36574451D01*
X76412226Y-36556744D01*
X76405963Y-36549280D01*
X76402411Y-36535547D01*
X76394803Y-36487511D01*
X76385646Y-36429696D01*
X76328050Y-36316658D01*
X76238342Y-36226950D01*
X76125304Y-36169354D01*
X76125302Y-36169353D01*
X76125301Y-36169353D01*
X76000000Y-36149508D01*
X75874698Y-36169353D01*
X75761656Y-36226951D01*
X75671951Y-36316656D01*
X75614353Y-36429698D01*
X75594508Y-36555000D01*
X74950500Y-36555000D01*
X74950500Y-33234412D01*
X74967813Y-33186846D01*
X74972174Y-33182086D01*
X75564260Y-32590000D01*
X76814508Y-32590000D01*
X76834353Y-32715301D01*
X76834353Y-32715302D01*
X76834354Y-32715304D01*
X76891950Y-32828342D01*
X76981658Y-32918050D01*
X77094696Y-32975646D01*
X77220000Y-32995492D01*
X77345304Y-32975646D01*
X77419090Y-32938050D01*
X77436905Y-32928973D01*
X77487146Y-32922804D01*
X77529599Y-32950373D01*
X77544500Y-32994907D01*
X77544500Y-35585579D01*
X77543078Y-35600015D01*
X77539103Y-35620000D01*
X77544500Y-35647132D01*
X77544500Y-35647133D01*
X77560485Y-35727495D01*
X77619009Y-35815082D01*
X77621377Y-35818625D01*
X77638314Y-35829942D01*
X77649529Y-35839145D01*
X78215826Y-36405442D01*
X78237218Y-36451318D01*
X78224117Y-36500213D01*
X78197096Y-36523702D01*
X78141658Y-36551949D01*
X78051951Y-36641656D01*
X77994353Y-36754698D01*
X77974508Y-36880000D01*
X77994353Y-37005301D01*
X77994353Y-37005302D01*
X77994354Y-37005304D01*
X78051950Y-37118342D01*
X78141658Y-37208050D01*
X78254696Y-37265646D01*
X78380000Y-37285492D01*
X78505304Y-37265646D01*
X78618342Y-37208050D01*
X78704103Y-37122288D01*
X78749978Y-37100897D01*
X78798872Y-37113998D01*
X78822359Y-37141016D01*
X78871950Y-37238342D01*
X78961658Y-37328050D01*
X79074696Y-37385646D01*
X79200000Y-37405492D01*
X79325304Y-37385646D01*
X79438342Y-37328050D01*
X79528050Y-37238342D01*
X79585646Y-37125304D01*
X79593835Y-37073597D01*
X79618373Y-37029328D01*
X79665630Y-37011186D01*
X79678492Y-37012085D01*
X79700000Y-37015492D01*
X79825304Y-36995646D01*
X79938342Y-36938050D01*
X80028050Y-36848342D01*
X80085646Y-36735304D01*
X80105492Y-36610000D01*
X80085646Y-36484696D01*
X80028050Y-36371658D01*
X79938342Y-36281950D01*
X79825304Y-36224354D01*
X79825302Y-36224353D01*
X79825301Y-36224353D01*
X79700000Y-36204508D01*
X79574698Y-36224353D01*
X79461656Y-36281951D01*
X79371951Y-36371656D01*
X79314353Y-36484698D01*
X79314353Y-36484699D01*
X79306164Y-36536401D01*
X79281623Y-36580673D01*
X79234366Y-36598813D01*
X79221500Y-36597913D01*
X79212316Y-36596458D01*
X79204882Y-36595281D01*
X79164134Y-36574518D01*
X78117174Y-35527558D01*
X78095782Y-35481682D01*
X78095500Y-35475232D01*
X78095500Y-34415097D01*
X78112813Y-34367531D01*
X78156650Y-34342221D01*
X78203093Y-34349162D01*
X78274696Y-34385646D01*
X78274695Y-34385646D01*
X78291827Y-34388359D01*
X78400000Y-34405492D01*
X78525304Y-34385646D01*
X78638342Y-34328050D01*
X78728050Y-34238342D01*
X78737396Y-34220000D01*
X79134508Y-34220000D01*
X79154353Y-34345301D01*
X79154353Y-34345302D01*
X79154354Y-34345304D01*
X79211950Y-34458342D01*
X79301658Y-34548050D01*
X79414696Y-34605646D01*
X79540000Y-34625492D01*
X79587910Y-34617903D01*
X79637598Y-34627561D01*
X79665420Y-34657397D01*
X79721948Y-34768340D01*
X79721950Y-34768342D01*
X79811658Y-34858050D01*
X79924696Y-34915646D01*
X80050000Y-34935492D01*
X80175304Y-34915646D01*
X80288342Y-34858050D01*
X80378050Y-34768342D01*
X80435646Y-34655304D01*
X80455492Y-34530000D01*
X80443613Y-34455000D01*
X81374508Y-34455000D01*
X81394353Y-34580301D01*
X81394353Y-34580302D01*
X81394354Y-34580304D01*
X81451950Y-34693342D01*
X81541658Y-34783050D01*
X81654696Y-34840646D01*
X81780000Y-34860492D01*
X81905304Y-34840646D01*
X82018342Y-34783050D01*
X82108050Y-34693342D01*
X82165646Y-34580304D01*
X82185492Y-34455000D01*
X82165646Y-34329696D01*
X82108050Y-34216658D01*
X82018342Y-34126950D01*
X81905304Y-34069354D01*
X81905302Y-34069353D01*
X81905301Y-34069353D01*
X81780000Y-34049508D01*
X81654698Y-34069353D01*
X81541656Y-34126951D01*
X81451951Y-34216656D01*
X81394353Y-34329698D01*
X81374508Y-34455000D01*
X80443613Y-34455000D01*
X80435646Y-34404696D01*
X80378050Y-34291658D01*
X80288342Y-34201950D01*
X80175304Y-34144354D01*
X80175302Y-34144353D01*
X80175301Y-34144353D01*
X80050000Y-34124508D01*
X80002090Y-34132096D01*
X79952401Y-34122437D01*
X79924580Y-34092603D01*
X79897795Y-34040037D01*
X79868050Y-33981658D01*
X79778342Y-33891950D01*
X79665304Y-33834354D01*
X79665302Y-33834353D01*
X79665301Y-33834353D01*
X79540000Y-33814508D01*
X79414698Y-33834353D01*
X79301656Y-33891951D01*
X79211951Y-33981656D01*
X79154353Y-34094698D01*
X79134508Y-34220000D01*
X78737396Y-34220000D01*
X78785646Y-34125304D01*
X78805492Y-34000000D01*
X78785646Y-33874696D01*
X78744587Y-33794115D01*
X78738419Y-33743875D01*
X78758194Y-33708197D01*
X78828050Y-33638342D01*
X78885646Y-33525304D01*
X78905492Y-33400000D01*
X78885646Y-33274696D01*
X78828050Y-33161658D01*
X78738342Y-33071950D01*
X78694015Y-33049364D01*
X78659495Y-33012345D01*
X78656845Y-32961796D01*
X78675284Y-32931107D01*
X78758050Y-32848342D01*
X78815646Y-32735304D01*
X78835492Y-32610000D01*
X78815646Y-32484696D01*
X78758050Y-32371658D01*
X78668342Y-32281950D01*
X78555304Y-32224354D01*
X78555302Y-32224353D01*
X78555301Y-32224353D01*
X78430000Y-32204508D01*
X78304698Y-32224353D01*
X78191656Y-32281951D01*
X78177326Y-32296282D01*
X78131450Y-32317674D01*
X78082555Y-32304573D01*
X78072674Y-32296282D01*
X78058343Y-32281951D01*
X78058342Y-32281950D01*
X77945304Y-32224354D01*
X77945302Y-32224353D01*
X77945301Y-32224353D01*
X77820000Y-32204508D01*
X77694698Y-32224353D01*
X77581654Y-32281952D01*
X77576945Y-32285374D01*
X77576086Y-32284191D01*
X77536450Y-32302674D01*
X77487555Y-32289573D01*
X77477674Y-32281282D01*
X77458343Y-32261951D01*
X77458342Y-32261951D01*
X77458342Y-32261950D01*
X77345304Y-32204354D01*
X77345302Y-32204353D01*
X77345301Y-32204353D01*
X77220000Y-32184508D01*
X77094698Y-32204353D01*
X76981656Y-32261951D01*
X76891951Y-32351656D01*
X76834353Y-32464698D01*
X76814508Y-32590000D01*
X75564260Y-32590000D01*
X76402086Y-31752174D01*
X76447962Y-31730782D01*
X76454412Y-31730500D01*
X77538038Y-31730500D01*
X77552474Y-31731921D01*
X77570000Y-31735408D01*
X77667741Y-31715966D01*
X77697536Y-31696057D01*
X77750601Y-31660601D01*
X77760535Y-31645732D01*
X77769727Y-31634532D01*
X78154534Y-31249725D01*
X78165737Y-31240531D01*
X78180601Y-31230601D01*
X78235966Y-31147740D01*
X78244370Y-31105492D01*
X78255409Y-31050000D01*
X78251922Y-31032470D01*
X78250500Y-31018033D01*
X78250500Y-30846543D01*
X78267813Y-30798977D01*
X78272175Y-30794217D01*
X78328047Y-30738345D01*
X78328047Y-30738344D01*
X78328050Y-30738342D01*
X78385646Y-30625304D01*
X78405492Y-30500000D01*
X78385646Y-30374696D01*
X78328050Y-30261658D01*
X78238342Y-30171950D01*
X78125304Y-30114354D01*
X78125302Y-30114353D01*
X78125301Y-30114353D01*
X78000000Y-30094508D01*
X77874698Y-30114353D01*
X77761656Y-30171951D01*
X77671950Y-30261657D01*
X77654003Y-30296880D01*
X77616982Y-30331401D01*
X77566432Y-30334049D01*
X77554478Y-30329219D01*
X77525304Y-30314354D01*
X77525302Y-30314353D01*
X77525304Y-30314353D01*
X77400000Y-30294508D01*
X77274698Y-30314353D01*
X77161656Y-30371951D01*
X77071951Y-30461656D01*
X77014353Y-30574698D01*
X76994508Y-30700000D01*
X77014353Y-30825301D01*
X77014353Y-30825302D01*
X77014354Y-30825304D01*
X77071950Y-30938342D01*
X77161658Y-31028050D01*
X77274696Y-31085646D01*
X77274698Y-31085646D01*
X77279885Y-31088289D01*
X77279102Y-31089823D01*
X77312973Y-31116287D01*
X77323497Y-31165799D01*
X77299732Y-31210493D01*
X77252799Y-31229455D01*
X77250217Y-31229500D01*
X76351962Y-31229500D01*
X76337525Y-31228078D01*
X76320000Y-31224592D01*
X76222258Y-31244034D01*
X76202275Y-31257387D01*
X76139399Y-31299398D01*
X76139397Y-31299400D01*
X76129466Y-31314262D01*
X76120266Y-31325472D01*
X74545472Y-32900266D01*
X74534262Y-32909466D01*
X74519400Y-32919397D01*
X74519398Y-32919399D01*
X74519399Y-32919399D01*
X74492483Y-32959683D01*
X74482999Y-32973875D01*
X74464034Y-33002257D01*
X74444592Y-33100000D01*
X74448078Y-33117525D01*
X74449500Y-33131962D01*
X74449500Y-58468037D01*
X74448078Y-58482473D01*
X74444592Y-58499998D01*
X74444592Y-58500000D01*
X71963014Y-58500000D01*
X71936016Y-58488414D01*
X71936006Y-58488411D01*
X71746662Y-58449500D01*
X71746656Y-58449500D01*
X71604820Y-58449500D01*
X70074500Y-58449500D01*
X70026934Y-58432187D01*
X70001624Y-58388350D01*
X70000500Y-58375500D01*
X70000500Y-57884500D01*
X70017813Y-57836934D01*
X70061650Y-57811624D01*
X70074500Y-57810500D01*
X71698205Y-57810500D01*
X71698206Y-57810500D01*
X71745326Y-57805708D01*
X71842317Y-57795846D01*
X71842322Y-57795845D01*
X72026762Y-57737976D01*
X72026763Y-57737975D01*
X72026768Y-57737974D01*
X72195791Y-57644159D01*
X72342468Y-57518240D01*
X72460796Y-57365373D01*
X72545930Y-57191816D01*
X72594385Y-57004674D01*
X72604176Y-56811610D01*
X72574903Y-56620526D01*
X72507764Y-56439247D01*
X72442157Y-56333989D01*
X72405512Y-56275197D01*
X72405508Y-56275192D01*
X72272325Y-56135082D01*
X72204625Y-56087962D01*
X72113658Y-56024647D01*
X72113655Y-56024645D01*
X72113654Y-56024645D01*
X71936016Y-55948414D01*
X71936006Y-55948411D01*
X71746662Y-55909500D01*
X71746656Y-55909500D01*
X71604820Y-55909500D01*
X70074500Y-55909500D01*
X70026934Y-55892187D01*
X70001624Y-55848350D01*
X70000500Y-55835500D01*
X70000500Y-55344500D01*
X70017813Y-55296934D01*
X70061650Y-55271624D01*
X70074500Y-55270500D01*
X71698205Y-55270500D01*
X71698206Y-55270500D01*
X71745326Y-55265708D01*
X71842317Y-55255846D01*
X71842322Y-55255845D01*
X72026762Y-55197976D01*
X72026763Y-55197975D01*
X72026768Y-55197974D01*
X72195791Y-55104159D01*
X72342468Y-54978240D01*
X72460796Y-54825373D01*
X72545930Y-54651816D01*
X72594385Y-54464674D01*
X72604176Y-54271610D01*
X72574903Y-54080526D01*
X72507764Y-53899247D01*
X72436721Y-53785268D01*
X72405512Y-53735197D01*
X72405508Y-53735192D01*
X72272325Y-53595082D01*
X72187210Y-53535841D01*
X72113658Y-53484647D01*
X72113655Y-53484645D01*
X72113654Y-53484645D01*
X71936016Y-53408414D01*
X71936006Y-53408411D01*
X71746662Y-53369500D01*
X71746656Y-53369500D01*
X71604820Y-53369500D01*
X70074500Y-53369500D01*
X70026934Y-53352187D01*
X70001624Y-53308350D01*
X70000500Y-53295500D01*
X70000500Y-52804500D01*
X70017813Y-52756934D01*
X70061650Y-52731624D01*
X70074500Y-52730500D01*
X71698205Y-52730500D01*
X71698206Y-52730500D01*
X71745326Y-52725708D01*
X71842317Y-52715846D01*
X71842322Y-52715845D01*
X72026762Y-52657976D01*
X72026763Y-52657975D01*
X72026768Y-52657974D01*
X72195791Y-52564159D01*
X72342468Y-52438240D01*
X72460796Y-52285373D01*
X72545930Y-52111816D01*
X72594385Y-51924674D01*
X72604176Y-51731610D01*
X72574903Y-51540526D01*
X72507764Y-51359247D01*
X72436721Y-51245268D01*
X72405512Y-51195197D01*
X72405508Y-51195192D01*
X72272325Y-51055082D01*
X72187210Y-50995841D01*
X72113658Y-50944647D01*
X72113655Y-50944645D01*
X72113654Y-50944645D01*
X71936016Y-50868414D01*
X71936006Y-50868411D01*
X71746662Y-50829500D01*
X71746656Y-50829500D01*
X71604820Y-50829500D01*
X70074500Y-50829500D01*
X70026934Y-50812187D01*
X70001624Y-50768350D01*
X70000500Y-50755500D01*
X70000500Y-50264500D01*
X70017813Y-50216934D01*
X70061650Y-50191624D01*
X70074500Y-50190500D01*
X71698205Y-50190500D01*
X71698206Y-50190500D01*
X71745326Y-50185708D01*
X71842317Y-50175846D01*
X71842322Y-50175845D01*
X72026762Y-50117976D01*
X72026763Y-50117975D01*
X72026768Y-50117974D01*
X72195791Y-50024159D01*
X72342468Y-49898240D01*
X72460796Y-49745373D01*
X72545930Y-49571816D01*
X72594385Y-49384674D01*
X72604176Y-49191610D01*
X72574903Y-49000526D01*
X72507764Y-48819247D01*
X72433437Y-48700000D01*
X72405512Y-48655197D01*
X72405508Y-48655192D01*
X72272325Y-48515082D01*
X72162070Y-48438343D01*
X72113658Y-48404647D01*
X72113655Y-48404645D01*
X72113654Y-48404645D01*
X71936016Y-48328414D01*
X71936006Y-48328411D01*
X71746662Y-48289500D01*
X71746656Y-48289500D01*
X71604820Y-48289500D01*
X70074500Y-48289500D01*
X70026934Y-48272187D01*
X70001624Y-48228350D01*
X70000500Y-48215500D01*
X70000500Y-47724500D01*
X70017813Y-47676934D01*
X70061650Y-47651624D01*
X70074500Y-47650500D01*
X71698205Y-47650500D01*
X71698206Y-47650500D01*
X71745326Y-47645708D01*
X71842317Y-47635846D01*
X71842322Y-47635845D01*
X72026762Y-47577976D01*
X72026763Y-47577975D01*
X72026768Y-47577974D01*
X72195791Y-47484159D01*
X72342468Y-47358240D01*
X72460796Y-47205373D01*
X72545930Y-47031816D01*
X72594385Y-46844674D01*
X72604176Y-46651610D01*
X72574903Y-46460526D01*
X72507764Y-46279247D01*
X72446632Y-46181170D01*
X72405512Y-46115197D01*
X72405508Y-46115192D01*
X72272325Y-45975082D01*
X72219434Y-45938269D01*
X72113658Y-45864647D01*
X72113655Y-45864645D01*
X72113654Y-45864645D01*
X71936016Y-45788414D01*
X71936006Y-45788411D01*
X71746662Y-45749500D01*
X71746656Y-45749500D01*
X71604820Y-45749500D01*
X70074500Y-45749500D01*
X70026934Y-45732187D01*
X70001624Y-45688350D01*
X70000500Y-45675500D01*
X70000500Y-45184500D01*
X70017813Y-45136934D01*
X70061650Y-45111624D01*
X70074500Y-45110500D01*
X71698205Y-45110500D01*
X71698206Y-45110500D01*
X71745326Y-45105708D01*
X71842317Y-45095846D01*
X71842322Y-45095845D01*
X72026762Y-45037976D01*
X72026763Y-45037975D01*
X72026768Y-45037974D01*
X72195791Y-44944159D01*
X72342468Y-44818240D01*
X72460796Y-44665373D01*
X72545930Y-44491816D01*
X72594385Y-44304674D01*
X72604176Y-44111610D01*
X72574903Y-43920526D01*
X72507764Y-43739247D01*
X72446632Y-43641170D01*
X72405512Y-43575197D01*
X72405508Y-43575192D01*
X72272325Y-43435082D01*
X72187210Y-43375841D01*
X72113658Y-43324647D01*
X72113655Y-43324645D01*
X72113654Y-43324645D01*
X71936016Y-43248414D01*
X71936006Y-43248411D01*
X71746662Y-43209500D01*
X71746656Y-43209500D01*
X71604820Y-43209500D01*
X70074500Y-43209500D01*
X70026934Y-43192187D01*
X70001624Y-43148350D01*
X70000500Y-43135500D01*
X70000500Y-42644500D01*
X70017813Y-42596934D01*
X70061650Y-42571624D01*
X70074500Y-42570500D01*
X71698205Y-42570500D01*
X71698206Y-42570500D01*
X71745326Y-42565708D01*
X71842317Y-42555846D01*
X71842322Y-42555845D01*
X72026762Y-42497976D01*
X72026763Y-42497975D01*
X72026768Y-42497974D01*
X72195791Y-42404159D01*
X72342468Y-42278240D01*
X72460796Y-42125373D01*
X72545930Y-41951816D01*
X72594385Y-41764674D01*
X72604176Y-41571610D01*
X72574903Y-41380526D01*
X72507764Y-41199247D01*
X72432850Y-41079058D01*
X72405512Y-41035197D01*
X72405508Y-41035192D01*
X72272325Y-40895082D01*
X72187210Y-40835841D01*
X72113658Y-40784647D01*
X72113655Y-40784645D01*
X72113654Y-40784645D01*
X71936016Y-40708414D01*
X71936006Y-40708411D01*
X71746662Y-40669500D01*
X71746656Y-40669500D01*
X71604820Y-40669500D01*
X70074500Y-40669500D01*
X70026934Y-40652187D01*
X70001624Y-40608350D01*
X70000500Y-40595500D01*
X70000500Y-40104500D01*
X70017813Y-40056934D01*
X70061650Y-40031624D01*
X70074500Y-40030500D01*
X71698205Y-40030500D01*
X71698206Y-40030500D01*
X71745326Y-40025708D01*
X71842317Y-40015846D01*
X71842322Y-40015845D01*
X72026762Y-39957976D01*
X72026763Y-39957975D01*
X72026768Y-39957974D01*
X72195791Y-39864159D01*
X72342468Y-39738240D01*
X72460796Y-39585373D01*
X72545930Y-39411816D01*
X72594385Y-39224674D01*
X72604176Y-39031610D01*
X72574903Y-38840526D01*
X72507764Y-38659247D01*
X72446632Y-38561170D01*
X72405512Y-38495197D01*
X72405508Y-38495192D01*
X72272325Y-38355082D01*
X72187210Y-38295841D01*
X72113658Y-38244647D01*
X72113655Y-38244645D01*
X72113654Y-38244645D01*
X71936016Y-38168414D01*
X71936006Y-38168411D01*
X71746662Y-38129500D01*
X71746656Y-38129500D01*
X71604820Y-38129500D01*
X70074500Y-38129500D01*
X70026934Y-38112187D01*
X70001624Y-38068350D01*
X70000500Y-38055500D01*
X70000500Y-37564500D01*
X70017813Y-37516934D01*
X70061650Y-37491624D01*
X70074500Y-37490500D01*
X71698205Y-37490500D01*
X71698206Y-37490500D01*
X71745326Y-37485708D01*
X71842317Y-37475846D01*
X71842322Y-37475845D01*
X72026762Y-37417976D01*
X72026763Y-37417975D01*
X72026768Y-37417974D01*
X72195791Y-37324159D01*
X72342468Y-37198240D01*
X72460796Y-37045373D01*
X72545930Y-36871816D01*
X72594385Y-36684674D01*
X72604176Y-36491610D01*
X72574903Y-36300526D01*
X72507764Y-36119247D01*
X72433437Y-36000000D01*
X72405512Y-35955197D01*
X72405508Y-35955192D01*
X72272325Y-35815082D01*
X72187210Y-35755841D01*
X72113658Y-35704647D01*
X72113655Y-35704645D01*
X72113654Y-35704645D01*
X71936016Y-35628414D01*
X71936006Y-35628411D01*
X71746662Y-35589500D01*
X71746656Y-35589500D01*
X71604820Y-35589500D01*
X70074500Y-35589500D01*
X70026934Y-35572187D01*
X70001624Y-35528350D01*
X70000500Y-35515500D01*
X70000500Y-35024500D01*
X70017813Y-34976934D01*
X70061650Y-34951624D01*
X70074500Y-34950500D01*
X71698205Y-34950500D01*
X71698206Y-34950500D01*
X71745326Y-34945708D01*
X71842317Y-34935846D01*
X71842322Y-34935845D01*
X72026762Y-34877976D01*
X72026763Y-34877975D01*
X72026768Y-34877974D01*
X72195791Y-34784159D01*
X72342468Y-34658240D01*
X72460796Y-34505373D01*
X72545930Y-34331816D01*
X72594385Y-34144674D01*
X72604176Y-33951610D01*
X72574903Y-33760526D01*
X72507764Y-33579247D01*
X72434737Y-33462085D01*
X72405512Y-33415197D01*
X72405508Y-33415192D01*
X72272325Y-33275082D01*
X72169853Y-33203760D01*
X72113658Y-33164647D01*
X72113655Y-33164645D01*
X72113654Y-33164645D01*
X71936016Y-33088414D01*
X71936006Y-33088411D01*
X71746662Y-33049500D01*
X71746656Y-33049500D01*
X71604820Y-33049500D01*
X70074500Y-33049500D01*
X70026934Y-33032187D01*
X70001624Y-32988350D01*
X70000500Y-32975500D01*
X70000500Y-32484500D01*
X70017813Y-32436934D01*
X70061650Y-32411624D01*
X70074500Y-32410500D01*
X71698205Y-32410500D01*
X71698206Y-32410500D01*
X71745326Y-32405708D01*
X71842317Y-32395846D01*
X71842322Y-32395845D01*
X72026762Y-32337976D01*
X72026763Y-32337975D01*
X72026768Y-32337974D01*
X72195791Y-32244159D01*
X72342468Y-32118240D01*
X72460796Y-31965373D01*
X72545930Y-31791816D01*
X72594385Y-31604674D01*
X72604176Y-31411610D01*
X72574903Y-31220526D01*
X72507764Y-31039247D01*
X72444870Y-30938342D01*
X72405512Y-30875197D01*
X72405508Y-30875192D01*
X72272325Y-30735082D01*
X72187210Y-30675841D01*
X72113658Y-30624647D01*
X72113655Y-30624645D01*
X72113654Y-30624645D01*
X71936016Y-30548414D01*
X71936006Y-30548411D01*
X71746662Y-30509500D01*
X71746656Y-30509500D01*
X71604820Y-30509500D01*
X70074500Y-30509500D01*
X70026934Y-30492187D01*
X70001624Y-30448350D01*
X70000500Y-30435500D01*
X70000500Y-29944500D01*
X70017813Y-29896934D01*
X70061650Y-29871624D01*
X70074500Y-29870500D01*
X71698205Y-29870500D01*
X71698206Y-29870500D01*
X71745326Y-29865708D01*
X71842317Y-29855846D01*
X71842322Y-29855845D01*
X72026762Y-29797976D01*
X72026763Y-29797975D01*
X72026768Y-29797974D01*
X72195791Y-29704159D01*
X72342468Y-29578240D01*
X72460796Y-29425373D01*
X72545930Y-29251816D01*
X72594385Y-29064674D01*
X72604176Y-28871610D01*
X72574903Y-28680526D01*
X72545079Y-28600000D01*
X78494508Y-28600000D01*
X78514353Y-28725301D01*
X78514353Y-28725302D01*
X78514354Y-28725304D01*
X78571950Y-28838342D01*
X78661658Y-28928050D01*
X78774696Y-28985646D01*
X78900000Y-29005492D01*
X78900002Y-29005492D01*
X78906983Y-29004386D01*
X78956672Y-29014042D01*
X78970888Y-29025148D01*
X81927826Y-31982086D01*
X81949218Y-32027962D01*
X81949500Y-32034412D01*
X81949500Y-32768037D01*
X81948078Y-32782473D01*
X81944592Y-32799998D01*
X81944592Y-32800000D01*
X81964034Y-32897741D01*
X81977604Y-32918050D01*
X82016087Y-32975645D01*
X82019399Y-32980601D01*
X82034260Y-32990531D01*
X82045472Y-32999732D01*
X82280152Y-33234412D01*
X82507826Y-33462085D01*
X82529218Y-33507961D01*
X82529500Y-33514411D01*
X82529500Y-45248087D01*
X82512187Y-45295653D01*
X82507826Y-45300413D01*
X82233387Y-45574851D01*
X82187510Y-45596243D01*
X82169488Y-45595614D01*
X82162503Y-45594508D01*
X82162500Y-45594508D01*
X82037198Y-45614353D01*
X81924156Y-45671951D01*
X81834451Y-45761656D01*
X81776853Y-45874698D01*
X81757008Y-46000000D01*
X81776853Y-46125301D01*
X81776853Y-46125302D01*
X81776854Y-46125304D01*
X81834450Y-46238342D01*
X81924158Y-46328050D01*
X82037196Y-46385646D01*
X82162500Y-46405492D01*
X82287804Y-46385646D01*
X82400842Y-46328050D01*
X82490550Y-46238342D01*
X82548146Y-46125304D01*
X82567992Y-46000000D01*
X82566885Y-45993011D01*
X82576543Y-45943324D01*
X82587644Y-45929114D01*
X82934531Y-45582227D01*
X82945734Y-45573033D01*
X82960601Y-45563101D01*
X83015966Y-45480240D01*
X83030500Y-45407174D01*
X83030500Y-45407173D01*
X83035408Y-45382500D01*
X83031922Y-45364973D01*
X83030500Y-45350537D01*
X83030500Y-36700000D01*
X84794508Y-36700000D01*
X84814353Y-36825301D01*
X84814353Y-36825302D01*
X84814354Y-36825304D01*
X84871950Y-36938342D01*
X84961658Y-37028050D01*
X85074696Y-37085646D01*
X85200000Y-37105492D01*
X85325304Y-37085646D01*
X85438342Y-37028050D01*
X85528050Y-36938342D01*
X85585646Y-36825304D01*
X85605492Y-36700000D01*
X85585646Y-36574696D01*
X85528050Y-36461658D01*
X85438342Y-36371950D01*
X85325304Y-36314354D01*
X85325302Y-36314353D01*
X85325301Y-36314353D01*
X85200000Y-36294508D01*
X85074698Y-36314353D01*
X84961656Y-36371951D01*
X84871951Y-36461656D01*
X84814353Y-36574698D01*
X84794508Y-36700000D01*
X83030500Y-36700000D01*
X83030500Y-36000000D01*
X83894508Y-36000000D01*
X83914353Y-36125301D01*
X83914353Y-36125302D01*
X83914354Y-36125304D01*
X83971950Y-36238342D01*
X84061658Y-36328050D01*
X84174696Y-36385646D01*
X84300000Y-36405492D01*
X84425304Y-36385646D01*
X84538342Y-36328050D01*
X84628050Y-36238342D01*
X84685646Y-36125304D01*
X84705492Y-36000000D01*
X84685646Y-35874696D01*
X84628050Y-35761658D01*
X84538342Y-35671950D01*
X84425304Y-35614354D01*
X84425302Y-35614353D01*
X84425301Y-35614353D01*
X84300000Y-35594508D01*
X84174698Y-35614353D01*
X84061656Y-35671951D01*
X83971951Y-35761656D01*
X83914353Y-35874698D01*
X83894508Y-36000000D01*
X83030500Y-36000000D01*
X83030500Y-34100000D01*
X84794508Y-34100000D01*
X84814353Y-34225301D01*
X84814353Y-34225302D01*
X84814354Y-34225304D01*
X84871950Y-34338342D01*
X84961658Y-34428050D01*
X85074696Y-34485646D01*
X85200000Y-34505492D01*
X85325304Y-34485646D01*
X85438342Y-34428050D01*
X85528050Y-34338342D01*
X85585646Y-34225304D01*
X85605492Y-34100000D01*
X85585646Y-33974696D01*
X85528050Y-33861658D01*
X85438342Y-33771950D01*
X85325304Y-33714354D01*
X85325302Y-33714353D01*
X85325301Y-33714353D01*
X85200000Y-33694508D01*
X85074698Y-33714353D01*
X84961656Y-33771951D01*
X84871951Y-33861656D01*
X84814353Y-33974698D01*
X84794508Y-34100000D01*
X83030500Y-34100000D01*
X83030500Y-33411962D01*
X83031922Y-33397525D01*
X83035408Y-33380000D01*
X83027801Y-33341760D01*
X83015966Y-33282260D01*
X82983996Y-33234412D01*
X82960602Y-33199400D01*
X82960601Y-33199399D01*
X82945735Y-33189466D01*
X82934527Y-33180267D01*
X82472174Y-32717914D01*
X82450782Y-32672038D01*
X82450500Y-32665588D01*
X82450500Y-32561018D01*
X82467813Y-32513452D01*
X82511650Y-32488142D01*
X82561500Y-32496932D01*
X82590432Y-32527420D01*
X82646950Y-32638342D01*
X82736658Y-32728050D01*
X82849696Y-32785646D01*
X82975000Y-32805492D01*
X83100304Y-32785646D01*
X83213342Y-32728050D01*
X83303050Y-32638342D01*
X83360646Y-32525304D01*
X83380492Y-32400000D01*
X83360646Y-32274696D01*
X83303050Y-32161658D01*
X83213342Y-32071950D01*
X83100304Y-32014354D01*
X83100302Y-32014353D01*
X83100301Y-32014353D01*
X82975000Y-31994508D01*
X82849698Y-32014353D01*
X82736656Y-32071951D01*
X82646948Y-32161659D01*
X82590434Y-32272576D01*
X82553414Y-32307098D01*
X82502864Y-32309748D01*
X82462438Y-32279284D01*
X82450500Y-32238981D01*
X82450500Y-31931966D01*
X82451922Y-31917528D01*
X82455409Y-31900000D01*
X82435966Y-31802260D01*
X82394578Y-31740317D01*
X82394577Y-31740316D01*
X82380601Y-31719399D01*
X82365738Y-31709468D01*
X82354530Y-31700269D01*
X80754260Y-30100000D01*
X81794508Y-30100000D01*
X81814353Y-30225301D01*
X81814353Y-30225302D01*
X81814354Y-30225304D01*
X81871950Y-30338342D01*
X81961658Y-30428050D01*
X82074696Y-30485646D01*
X82200000Y-30505492D01*
X82234675Y-30500000D01*
X87094508Y-30500000D01*
X87114353Y-30625301D01*
X87114353Y-30625302D01*
X87114354Y-30625304D01*
X87171950Y-30738342D01*
X87261658Y-30828050D01*
X87374696Y-30885646D01*
X87500000Y-30905492D01*
X87625304Y-30885646D01*
X87738342Y-30828050D01*
X87828050Y-30738342D01*
X87885646Y-30625304D01*
X87905492Y-30500000D01*
X87885646Y-30374696D01*
X87828050Y-30261658D01*
X87738342Y-30171950D01*
X87625304Y-30114354D01*
X87625302Y-30114353D01*
X87625301Y-30114353D01*
X87500000Y-30094508D01*
X87374698Y-30114353D01*
X87261656Y-30171951D01*
X87171951Y-30261656D01*
X87114353Y-30374698D01*
X87094508Y-30500000D01*
X82234675Y-30500000D01*
X82325304Y-30485646D01*
X82438342Y-30428050D01*
X82528050Y-30338342D01*
X82585646Y-30225304D01*
X82605492Y-30100000D01*
X82585646Y-29974696D01*
X82528050Y-29861658D01*
X82438342Y-29771950D01*
X82325304Y-29714354D01*
X82325302Y-29714353D01*
X82325301Y-29714353D01*
X82200000Y-29694508D01*
X82074698Y-29714353D01*
X81961656Y-29771951D01*
X81871951Y-29861656D01*
X81814353Y-29974698D01*
X81794508Y-30100000D01*
X80754260Y-30100000D01*
X80254260Y-29600000D01*
X82894508Y-29600000D01*
X82914353Y-29725301D01*
X82914353Y-29725302D01*
X82914354Y-29725304D01*
X82971950Y-29838342D01*
X83061658Y-29928050D01*
X83174696Y-29985646D01*
X83300000Y-30005492D01*
X83425304Y-29985646D01*
X83538342Y-29928050D01*
X83628050Y-29838342D01*
X83685646Y-29725304D01*
X83705492Y-29600000D01*
X83685646Y-29474696D01*
X83628050Y-29361658D01*
X83538342Y-29271950D01*
X83425304Y-29214354D01*
X83425302Y-29214353D01*
X83425301Y-29214353D01*
X83300000Y-29194508D01*
X83174698Y-29214353D01*
X83061656Y-29271951D01*
X82971951Y-29361656D01*
X82914353Y-29474698D01*
X82894508Y-29600000D01*
X80254260Y-29600000D01*
X79325148Y-28670888D01*
X79303756Y-28625012D01*
X79304386Y-28606983D01*
X79305492Y-28600001D01*
X79305492Y-28600000D01*
X79285646Y-28474698D01*
X79285646Y-28474696D01*
X79228050Y-28361658D01*
X79138342Y-28271950D01*
X79025304Y-28214354D01*
X79025302Y-28214353D01*
X79025301Y-28214353D01*
X78900000Y-28194508D01*
X78774698Y-28214353D01*
X78661656Y-28271951D01*
X78571951Y-28361656D01*
X78514353Y-28474698D01*
X78494508Y-28600000D01*
X72545079Y-28600000D01*
X72507764Y-28499247D01*
X72422005Y-28361658D01*
X72405512Y-28335197D01*
X72405508Y-28335192D01*
X72272325Y-28195082D01*
X72219434Y-28158269D01*
X72113658Y-28084647D01*
X72113655Y-28084645D01*
X72113654Y-28084645D01*
X71936016Y-28008414D01*
X71936006Y-28008411D01*
X71746662Y-27969500D01*
X71746656Y-27969500D01*
X71604820Y-27969500D01*
X70074500Y-27969500D01*
X70026934Y-27952187D01*
X70001624Y-27908350D01*
X70000500Y-27895500D01*
X70000500Y-27404500D01*
X70017813Y-27356934D01*
X70061650Y-27331624D01*
X70074500Y-27330500D01*
X71698205Y-27330500D01*
X71698206Y-27330500D01*
X71745326Y-27325708D01*
X71842317Y-27315846D01*
X71842322Y-27315845D01*
X72026762Y-27257976D01*
X72026763Y-27257975D01*
X72026768Y-27257974D01*
X72195791Y-27164159D01*
X72342468Y-27038240D01*
X72460796Y-26885373D01*
X72545930Y-26711816D01*
X72574882Y-26600000D01*
X76894508Y-26600000D01*
X76914353Y-26725301D01*
X76914353Y-26725302D01*
X76914354Y-26725304D01*
X76971950Y-26838342D01*
X77061658Y-26928050D01*
X77174696Y-26985646D01*
X77300000Y-27005492D01*
X77425304Y-26985646D01*
X77538342Y-26928050D01*
X77628050Y-26838342D01*
X77647586Y-26800000D01*
X83394508Y-26800000D01*
X83414353Y-26925301D01*
X83414353Y-26925302D01*
X83414354Y-26925304D01*
X83471950Y-27038342D01*
X83561658Y-27128050D01*
X83674696Y-27185646D01*
X83800000Y-27205492D01*
X83925304Y-27185646D01*
X84038342Y-27128050D01*
X84128050Y-27038342D01*
X84185646Y-26925304D01*
X84205492Y-26800000D01*
X84185646Y-26674696D01*
X84128050Y-26561658D01*
X84038342Y-26471950D01*
X83925304Y-26414354D01*
X83925302Y-26414353D01*
X83925301Y-26414353D01*
X83800000Y-26394508D01*
X83674698Y-26414353D01*
X83561656Y-26471951D01*
X83471951Y-26561656D01*
X83414353Y-26674698D01*
X83394508Y-26800000D01*
X77647586Y-26800000D01*
X77685646Y-26725304D01*
X77705492Y-26600000D01*
X77685646Y-26474696D01*
X77628050Y-26361658D01*
X77538342Y-26271950D01*
X77425304Y-26214354D01*
X77425302Y-26214353D01*
X77425301Y-26214353D01*
X77334676Y-26200000D01*
X81994508Y-26200000D01*
X82014353Y-26325301D01*
X82014353Y-26325302D01*
X82014354Y-26325304D01*
X82071950Y-26438342D01*
X82161658Y-26528050D01*
X82274696Y-26585646D01*
X82400000Y-26605492D01*
X82525304Y-26585646D01*
X82638342Y-26528050D01*
X82728050Y-26438342D01*
X82785646Y-26325304D01*
X82805492Y-26200000D01*
X84894508Y-26200000D01*
X84914353Y-26325301D01*
X84914353Y-26325302D01*
X84914354Y-26325304D01*
X84971950Y-26438342D01*
X85061658Y-26528050D01*
X85174696Y-26585646D01*
X85300000Y-26605492D01*
X85425304Y-26585646D01*
X85538342Y-26528050D01*
X85628050Y-26438342D01*
X85656273Y-26382950D01*
X85693291Y-26348430D01*
X85743841Y-26345780D01*
X85784267Y-26376243D01*
X85795295Y-26404971D01*
X85814353Y-26525301D01*
X85814353Y-26525302D01*
X85814354Y-26525304D01*
X85871950Y-26638342D01*
X85961658Y-26728050D01*
X86074696Y-26785646D01*
X86200000Y-26805492D01*
X86325304Y-26785646D01*
X86438342Y-26728050D01*
X86528050Y-26638342D01*
X86585646Y-26525304D01*
X86605492Y-26400000D01*
X86585646Y-26274696D01*
X86528050Y-26161658D01*
X86438342Y-26071950D01*
X86325304Y-26014354D01*
X86325302Y-26014353D01*
X86325301Y-26014353D01*
X86200000Y-25994508D01*
X86074698Y-26014353D01*
X85961656Y-26071951D01*
X85871950Y-26161657D01*
X85843727Y-26217048D01*
X85806707Y-26251570D01*
X85756157Y-26254218D01*
X85715731Y-26223755D01*
X85704704Y-26195030D01*
X85685646Y-26074696D01*
X85628050Y-25961658D01*
X85538342Y-25871950D01*
X85425304Y-25814354D01*
X85425302Y-25814353D01*
X85425301Y-25814353D01*
X85300000Y-25794508D01*
X85174698Y-25814353D01*
X85061656Y-25871951D01*
X84971951Y-25961656D01*
X84914353Y-26074698D01*
X84894508Y-26200000D01*
X82805492Y-26200000D01*
X82785646Y-26074696D01*
X82728050Y-25961658D01*
X82638342Y-25871950D01*
X82525304Y-25814354D01*
X82525302Y-25814353D01*
X82525301Y-25814353D01*
X82400000Y-25794508D01*
X82274698Y-25814353D01*
X82161656Y-25871951D01*
X82071951Y-25961656D01*
X82014353Y-26074698D01*
X81994508Y-26200000D01*
X77334676Y-26200000D01*
X77300000Y-26194508D01*
X77174698Y-26214353D01*
X77061656Y-26271951D01*
X76971951Y-26361656D01*
X76914353Y-26474698D01*
X76894508Y-26600000D01*
X72574882Y-26600000D01*
X72594385Y-26524674D01*
X72604176Y-26331610D01*
X72574903Y-26140526D01*
X72507764Y-25959247D01*
X72417452Y-25814354D01*
X72405512Y-25795197D01*
X72405508Y-25795192D01*
X72272325Y-25655082D01*
X72187210Y-25595841D01*
X72113658Y-25544647D01*
X72113655Y-25544645D01*
X72113654Y-25544645D01*
X71936016Y-25468414D01*
X71936006Y-25468411D01*
X71746662Y-25429500D01*
X71746656Y-25429500D01*
X71604820Y-25429500D01*
X70074500Y-25429500D01*
X70026934Y-25412187D01*
X70001624Y-25368350D01*
X70000500Y-25355500D01*
X70000500Y-24864500D01*
X70017813Y-24816934D01*
X70047143Y-24800000D01*
X75294508Y-24800000D01*
X75314353Y-24925301D01*
X75314353Y-24925302D01*
X75314354Y-24925304D01*
X75371950Y-25038342D01*
X75461658Y-25128050D01*
X75574696Y-25185646D01*
X75700000Y-25205492D01*
X75825304Y-25185646D01*
X75938342Y-25128050D01*
X76028050Y-25038342D01*
X76041279Y-25012379D01*
X77439500Y-25012379D01*
X77454859Y-25138871D01*
X77515181Y-25297929D01*
X77589427Y-25405491D01*
X77611817Y-25437929D01*
X77618844Y-25444154D01*
X77732274Y-25544645D01*
X77739148Y-25550734D01*
X77889775Y-25629790D01*
X78054944Y-25670500D01*
X78054948Y-25670500D01*
X78225052Y-25670500D01*
X78225056Y-25670500D01*
X78390225Y-25629790D01*
X78540852Y-25550734D01*
X78668183Y-25437929D01*
X78764818Y-25297930D01*
X78825140Y-25138872D01*
X78840499Y-25012379D01*
X82279500Y-25012379D01*
X82294859Y-25138871D01*
X82355181Y-25297929D01*
X82429427Y-25405491D01*
X82451817Y-25437929D01*
X82458844Y-25444154D01*
X82572274Y-25544645D01*
X82579148Y-25550734D01*
X82729775Y-25629790D01*
X82894944Y-25670500D01*
X82894948Y-25670500D01*
X83065052Y-25670500D01*
X83065056Y-25670500D01*
X83230225Y-25629790D01*
X83380852Y-25550734D01*
X83508183Y-25437929D01*
X83604818Y-25297930D01*
X83665140Y-25138872D01*
X83680500Y-25012372D01*
X83680500Y-25000000D01*
X85394508Y-25000000D01*
X85414353Y-25125301D01*
X85414353Y-25125302D01*
X85414354Y-25125304D01*
X85471950Y-25238342D01*
X85561658Y-25328050D01*
X85674696Y-25385646D01*
X85800000Y-25405492D01*
X85925304Y-25385646D01*
X86038342Y-25328050D01*
X86128050Y-25238342D01*
X86185646Y-25125304D01*
X86186616Y-25119176D01*
X86211152Y-25074905D01*
X86258407Y-25056760D01*
X86306270Y-25073236D01*
X86312031Y-25078423D01*
X86361658Y-25128050D01*
X86474696Y-25185646D01*
X86600000Y-25205492D01*
X86725304Y-25185646D01*
X86838342Y-25128050D01*
X86928050Y-25038342D01*
X86985646Y-24925304D01*
X87005492Y-24800000D01*
X86987393Y-24685728D01*
X86997051Y-24636042D01*
X87036390Y-24604187D01*
X87072056Y-24601066D01*
X87100000Y-24605492D01*
X87225304Y-24585646D01*
X87338342Y-24528050D01*
X87428050Y-24438342D01*
X87485646Y-24325304D01*
X87505492Y-24200000D01*
X87485646Y-24074696D01*
X87428050Y-23961658D01*
X87338342Y-23871950D01*
X87225304Y-23814354D01*
X87225302Y-23814353D01*
X87225301Y-23814353D01*
X87100000Y-23794508D01*
X86974698Y-23814353D01*
X86861656Y-23871951D01*
X86771951Y-23961656D01*
X86714353Y-24074698D01*
X86694508Y-24200000D01*
X86712606Y-24314268D01*
X86702947Y-24363957D01*
X86663609Y-24395812D01*
X86627942Y-24398933D01*
X86600001Y-24394508D01*
X86600000Y-24394508D01*
X86474698Y-24414353D01*
X86361656Y-24471951D01*
X86271951Y-24561656D01*
X86214353Y-24674698D01*
X86213383Y-24680827D01*
X86188842Y-24725099D01*
X86141585Y-24743239D01*
X86093724Y-24726759D01*
X86087968Y-24721576D01*
X86038343Y-24671951D01*
X86038342Y-24671950D01*
X85925304Y-24614354D01*
X85925302Y-24614353D01*
X85925301Y-24614353D01*
X85800000Y-24594508D01*
X85674698Y-24614353D01*
X85561656Y-24671951D01*
X85471951Y-24761656D01*
X85414353Y-24874698D01*
X85394508Y-25000000D01*
X83680500Y-25000000D01*
X83680500Y-24527628D01*
X83665140Y-24401128D01*
X83604818Y-24242070D01*
X83508183Y-24102071D01*
X83489643Y-24085646D01*
X83392969Y-24000000D01*
X84894508Y-24000000D01*
X84914353Y-24125301D01*
X84914353Y-24125302D01*
X84914354Y-24125304D01*
X84971950Y-24238342D01*
X85061658Y-24328050D01*
X85174696Y-24385646D01*
X85300000Y-24405492D01*
X85425304Y-24385646D01*
X85538342Y-24328050D01*
X85628050Y-24238342D01*
X85685646Y-24125304D01*
X85705492Y-24000000D01*
X85685646Y-23874696D01*
X85628050Y-23761658D01*
X85538342Y-23671950D01*
X85425304Y-23614354D01*
X85425302Y-23614353D01*
X85425301Y-23614353D01*
X85300000Y-23594508D01*
X85174698Y-23614353D01*
X85061656Y-23671951D01*
X84971951Y-23761656D01*
X84914353Y-23874698D01*
X84894508Y-24000000D01*
X83392969Y-24000000D01*
X83380856Y-23989269D01*
X83380853Y-23989267D01*
X83380852Y-23989266D01*
X83230225Y-23910210D01*
X83230222Y-23910209D01*
X83065058Y-23869500D01*
X83065056Y-23869500D01*
X82894944Y-23869500D01*
X82894941Y-23869500D01*
X82729777Y-23910209D01*
X82579146Y-23989267D01*
X82579143Y-23989269D01*
X82451816Y-24102071D01*
X82355181Y-24242070D01*
X82294859Y-24401128D01*
X82279500Y-24527620D01*
X82279500Y-25012379D01*
X78840499Y-25012379D01*
X78840500Y-25012372D01*
X78840500Y-24527628D01*
X78825140Y-24401128D01*
X78764818Y-24242070D01*
X78764817Y-24242068D01*
X78764816Y-24242066D01*
X78750076Y-24220711D01*
X78737304Y-24171730D01*
X78759004Y-24125999D01*
X78799401Y-24105586D01*
X78799997Y-24105491D01*
X78800000Y-24105492D01*
X78925304Y-24085646D01*
X79038342Y-24028050D01*
X79128050Y-23938342D01*
X79185646Y-23825304D01*
X79205492Y-23700000D01*
X79189654Y-23600000D01*
X80094508Y-23600000D01*
X80114353Y-23725301D01*
X80114353Y-23725302D01*
X80114354Y-23725304D01*
X80171950Y-23838342D01*
X80261658Y-23928050D01*
X80374696Y-23985646D01*
X80500000Y-24005492D01*
X80625304Y-23985646D01*
X80738342Y-23928050D01*
X80751355Y-23915036D01*
X80797231Y-23893642D01*
X80846126Y-23906742D01*
X80869616Y-23933762D01*
X80871950Y-23938342D01*
X80961658Y-24028050D01*
X81074696Y-24085646D01*
X81200000Y-24105492D01*
X81325304Y-24085646D01*
X81438342Y-24028050D01*
X81528050Y-23938342D01*
X81585646Y-23825304D01*
X81605492Y-23700000D01*
X81585646Y-23574696D01*
X81528050Y-23461658D01*
X81438342Y-23371950D01*
X81325304Y-23314354D01*
X81325302Y-23314353D01*
X81325301Y-23314353D01*
X81200000Y-23294508D01*
X81074695Y-23314353D01*
X81074695Y-23314354D01*
X80961658Y-23371949D01*
X80961653Y-23371953D01*
X80948640Y-23384966D01*
X80902763Y-23406358D01*
X80853870Y-23393255D01*
X80830382Y-23366235D01*
X80828050Y-23361658D01*
X80738342Y-23271950D01*
X80625304Y-23214354D01*
X80625302Y-23214353D01*
X80625301Y-23214353D01*
X80500000Y-23194508D01*
X80374698Y-23214353D01*
X80261656Y-23271951D01*
X80171951Y-23361656D01*
X80114353Y-23474698D01*
X80094508Y-23600000D01*
X79189654Y-23600000D01*
X79185646Y-23574696D01*
X79128050Y-23461658D01*
X79038342Y-23371950D01*
X78925304Y-23314354D01*
X78925302Y-23314353D01*
X78925301Y-23314353D01*
X78800000Y-23294508D01*
X78674698Y-23314353D01*
X78561656Y-23371951D01*
X78471951Y-23461656D01*
X78414353Y-23574698D01*
X78394508Y-23700000D01*
X78411889Y-23809744D01*
X78402230Y-23859433D01*
X78362892Y-23891289D01*
X78321091Y-23893170D01*
X78225058Y-23869500D01*
X78225056Y-23869500D01*
X78054944Y-23869500D01*
X78054941Y-23869500D01*
X77889777Y-23910209D01*
X77739146Y-23989267D01*
X77739143Y-23989269D01*
X77611816Y-24102071D01*
X77515181Y-24242070D01*
X77454859Y-24401128D01*
X77439500Y-24527620D01*
X77439500Y-25012379D01*
X76041279Y-25012379D01*
X76085646Y-24925304D01*
X76105492Y-24800000D01*
X76085646Y-24674696D01*
X76028050Y-24561658D01*
X75938342Y-24471950D01*
X75825304Y-24414354D01*
X75825302Y-24414353D01*
X75825301Y-24414353D01*
X75700000Y-24394508D01*
X75574698Y-24414353D01*
X75461656Y-24471951D01*
X75371951Y-24561656D01*
X75314353Y-24674698D01*
X75294508Y-24800000D01*
X70047143Y-24800000D01*
X70061650Y-24791624D01*
X70074500Y-24790500D01*
X71698205Y-24790500D01*
X71698206Y-24790500D01*
X71745326Y-24785708D01*
X71842317Y-24775846D01*
X71842322Y-24775845D01*
X72026762Y-24717976D01*
X72026763Y-24717975D01*
X72026768Y-24717974D01*
X72195791Y-24624159D01*
X72342468Y-24498240D01*
X72460796Y-24345373D01*
X72545930Y-24171816D01*
X72594385Y-23984674D01*
X72604176Y-23791610D01*
X72574903Y-23600526D01*
X72574708Y-23600000D01*
X75894508Y-23600000D01*
X75914353Y-23725301D01*
X75914353Y-23725302D01*
X75914354Y-23725304D01*
X75971950Y-23838342D01*
X76061658Y-23928050D01*
X76174696Y-23985646D01*
X76300000Y-24005492D01*
X76425304Y-23985646D01*
X76538342Y-23928050D01*
X76628050Y-23838342D01*
X76685646Y-23725304D01*
X76705492Y-23600000D01*
X76685646Y-23474696D01*
X76628050Y-23361658D01*
X76538342Y-23271950D01*
X76425304Y-23214354D01*
X76425302Y-23214353D01*
X76425301Y-23214353D01*
X76300000Y-23194508D01*
X76174698Y-23214353D01*
X76061656Y-23271951D01*
X75971951Y-23361656D01*
X75914353Y-23474698D01*
X75894508Y-23600000D01*
X72574708Y-23600000D01*
X72507764Y-23419247D01*
X72442384Y-23314354D01*
X72405512Y-23255197D01*
X72405508Y-23255192D01*
X72272325Y-23115082D01*
X72215737Y-23075696D01*
X72113658Y-23004647D01*
X72113655Y-23004645D01*
X72113654Y-23004645D01*
X71936016Y-22928414D01*
X71936006Y-22928411D01*
X71746662Y-22889500D01*
X71746656Y-22889500D01*
X71604820Y-22889500D01*
X70074500Y-22889500D01*
X70026934Y-22872187D01*
X70001624Y-22828350D01*
X70000500Y-22815500D01*
X70000500Y-22324500D01*
X70017813Y-22276934D01*
X70061650Y-22251624D01*
X70074500Y-22250500D01*
X71698205Y-22250500D01*
X71698206Y-22250500D01*
X71745326Y-22245708D01*
X71842317Y-22235846D01*
X71842322Y-22235845D01*
X72026762Y-22177976D01*
X72026763Y-22177975D01*
X72026768Y-22177974D01*
X72167251Y-22100000D01*
X73643915Y-22100000D01*
X73664207Y-22306032D01*
X73664207Y-22306034D01*
X73664208Y-22306037D01*
X73664208Y-22306039D01*
X73724303Y-22504143D01*
X73724306Y-22504148D01*
X73821892Y-22686721D01*
X73821898Y-22686730D01*
X73927576Y-22815500D01*
X73953235Y-22846765D01*
X74113271Y-22978103D01*
X74295854Y-23075695D01*
X74295856Y-23075696D01*
X74493961Y-23135791D01*
X74493968Y-23135793D01*
X74648370Y-23151000D01*
X74648371Y-23151000D01*
X74751629Y-23151000D01*
X74751630Y-23151000D01*
X74906032Y-23135793D01*
X74974307Y-23115082D01*
X75104143Y-23075696D01*
X75104143Y-23075695D01*
X75104146Y-23075695D01*
X75286729Y-22978103D01*
X75446765Y-22846765D01*
X75578103Y-22686729D01*
X75675695Y-22504146D01*
X75692873Y-22447520D01*
X75735791Y-22306039D01*
X75735791Y-22306037D01*
X75735793Y-22306032D01*
X75756085Y-22100000D01*
X75745227Y-21989751D01*
X77004500Y-21989751D01*
X77004501Y-21989773D01*
X77018101Y-22114820D01*
X77019046Y-22123505D01*
X77048236Y-22210138D01*
X77076378Y-22293662D01*
X77076378Y-22293664D01*
X77168947Y-22447513D01*
X77168952Y-22447520D01*
X77292426Y-22577871D01*
X77292429Y-22577873D01*
X77292431Y-22577875D01*
X77441048Y-22678639D01*
X77441049Y-22678640D01*
X77607853Y-22745101D01*
X77785045Y-22774150D01*
X77785047Y-22774149D01*
X77785048Y-22774150D01*
X77829868Y-22771719D01*
X77964339Y-22764429D01*
X78137351Y-22716393D01*
X78295992Y-22632286D01*
X78432843Y-22516044D01*
X78541507Y-22373099D01*
X78616901Y-22210138D01*
X78655500Y-22034779D01*
X78655500Y-21989751D01*
X82464500Y-21989751D01*
X82464501Y-21989773D01*
X82478101Y-22114820D01*
X82479046Y-22123505D01*
X82508236Y-22210138D01*
X82536378Y-22293662D01*
X82536378Y-22293664D01*
X82628947Y-22447513D01*
X82628952Y-22447520D01*
X82752426Y-22577871D01*
X82752429Y-22577873D01*
X82752431Y-22577875D01*
X82901048Y-22678639D01*
X82901049Y-22678640D01*
X83067853Y-22745101D01*
X83245045Y-22774150D01*
X83245047Y-22774149D01*
X83245048Y-22774150D01*
X83289868Y-22771719D01*
X83424339Y-22764429D01*
X83597351Y-22716393D01*
X83755992Y-22632286D01*
X83892843Y-22516044D01*
X84001507Y-22373099D01*
X84076901Y-22210138D01*
X84101144Y-22100000D01*
X85343915Y-22100000D01*
X85364207Y-22306032D01*
X85364207Y-22306034D01*
X85364208Y-22306037D01*
X85364208Y-22306039D01*
X85424303Y-22504143D01*
X85424306Y-22504148D01*
X85521892Y-22686721D01*
X85521898Y-22686730D01*
X85627576Y-22815500D01*
X85653235Y-22846765D01*
X85813271Y-22978103D01*
X85995854Y-23075695D01*
X85995856Y-23075696D01*
X86193961Y-23135791D01*
X86193968Y-23135793D01*
X86348370Y-23151000D01*
X86348371Y-23151000D01*
X86451629Y-23151000D01*
X86451630Y-23151000D01*
X86606032Y-23135793D01*
X86674307Y-23115082D01*
X86804143Y-23075696D01*
X86804143Y-23075695D01*
X86804146Y-23075695D01*
X86986729Y-22978103D01*
X87146765Y-22846765D01*
X87278103Y-22686729D01*
X87375695Y-22504146D01*
X87392873Y-22447520D01*
X87435791Y-22306039D01*
X87435791Y-22306037D01*
X87435793Y-22306032D01*
X87456085Y-22100000D01*
X87435793Y-21893968D01*
X87433012Y-21884802D01*
X87375696Y-21695856D01*
X87375693Y-21695851D01*
X87341464Y-21631813D01*
X87316616Y-21585325D01*
X87278107Y-21513278D01*
X87278105Y-21513276D01*
X87278103Y-21513271D01*
X87146765Y-21353235D01*
X87140861Y-21348390D01*
X86986730Y-21221898D01*
X86986731Y-21221898D01*
X86986729Y-21221897D01*
X86986726Y-21221895D01*
X86986721Y-21221892D01*
X86804148Y-21124306D01*
X86804143Y-21124303D01*
X86606038Y-21064208D01*
X86606033Y-21064207D01*
X86606032Y-21064207D01*
X86451630Y-21049000D01*
X86348370Y-21049000D01*
X86193968Y-21064207D01*
X86193966Y-21064207D01*
X86193962Y-21064208D01*
X86193960Y-21064208D01*
X85995856Y-21124303D01*
X85995851Y-21124306D01*
X85813278Y-21221892D01*
X85813269Y-21221898D01*
X85653235Y-21353234D01*
X85653234Y-21353235D01*
X85521898Y-21513269D01*
X85521892Y-21513278D01*
X85424306Y-21695851D01*
X85424303Y-21695856D01*
X85364208Y-21893960D01*
X85364208Y-21893962D01*
X85364207Y-21893966D01*
X85364207Y-21893968D01*
X85343915Y-22100000D01*
X84101144Y-22100000D01*
X84115500Y-22034779D01*
X84115500Y-21550240D01*
X84100954Y-21416495D01*
X84043622Y-21246338D01*
X84043621Y-21246336D01*
X84043621Y-21246335D01*
X83951052Y-21092486D01*
X83951047Y-21092479D01*
X83827573Y-20962128D01*
X83705329Y-20879245D01*
X83678951Y-20861360D01*
X83678952Y-20861360D01*
X83512147Y-20794899D01*
X83512146Y-20794898D01*
X83334951Y-20765849D01*
X83155669Y-20775570D01*
X83155663Y-20775570D01*
X83155661Y-20775571D01*
X83155657Y-20775571D01*
X83155657Y-20775572D01*
X82982648Y-20823607D01*
X82911440Y-20861360D01*
X82824008Y-20907714D01*
X82824006Y-20907714D01*
X82824003Y-20907717D01*
X82687157Y-21023954D01*
X82578494Y-21166899D01*
X82578493Y-21166900D01*
X82578493Y-21166901D01*
X82503099Y-21329862D01*
X82503098Y-21329863D01*
X82503098Y-21329865D01*
X82493873Y-21371776D01*
X82465650Y-21499999D01*
X82464500Y-21505222D01*
X82464500Y-21989751D01*
X78655500Y-21989751D01*
X78655500Y-21550240D01*
X78650036Y-21499999D01*
X79144867Y-21499999D01*
X79163302Y-21628223D01*
X79163302Y-21628224D01*
X79163303Y-21628226D01*
X79217118Y-21746063D01*
X79301951Y-21843967D01*
X79410931Y-21914004D01*
X79535228Y-21950500D01*
X79664772Y-21950500D01*
X79789069Y-21914004D01*
X79898049Y-21843967D01*
X79982882Y-21746063D01*
X80036697Y-21628226D01*
X80055133Y-21500000D01*
X80055133Y-21499999D01*
X81044867Y-21499999D01*
X81063302Y-21628223D01*
X81063302Y-21628224D01*
X81063303Y-21628226D01*
X81117118Y-21746063D01*
X81201951Y-21843967D01*
X81310931Y-21914004D01*
X81435228Y-21950500D01*
X81564772Y-21950500D01*
X81689069Y-21914004D01*
X81798049Y-21843967D01*
X81882882Y-21746063D01*
X81936697Y-21628226D01*
X81955133Y-21500000D01*
X81936697Y-21371774D01*
X81882882Y-21253937D01*
X81798049Y-21156033D01*
X81699157Y-21092479D01*
X81689068Y-21085995D01*
X81564772Y-21049500D01*
X81435228Y-21049500D01*
X81310931Y-21085995D01*
X81201954Y-21156031D01*
X81201950Y-21156034D01*
X81117119Y-21253935D01*
X81063302Y-21371776D01*
X81044867Y-21499999D01*
X80055133Y-21499999D01*
X80036697Y-21371774D01*
X79982882Y-21253937D01*
X79898049Y-21156033D01*
X79799157Y-21092479D01*
X79789068Y-21085995D01*
X79664772Y-21049500D01*
X79535228Y-21049500D01*
X79410931Y-21085995D01*
X79301954Y-21156031D01*
X79301950Y-21156034D01*
X79217119Y-21253935D01*
X79163302Y-21371776D01*
X79144867Y-21499999D01*
X78650036Y-21499999D01*
X78640954Y-21416495D01*
X78583622Y-21246338D01*
X78583621Y-21246336D01*
X78583621Y-21246335D01*
X78491052Y-21092486D01*
X78491047Y-21092479D01*
X78367573Y-20962128D01*
X78245329Y-20879245D01*
X78218951Y-20861360D01*
X78218952Y-20861360D01*
X78052147Y-20794899D01*
X78052146Y-20794898D01*
X77874951Y-20765849D01*
X77695669Y-20775570D01*
X77695663Y-20775570D01*
X77695661Y-20775571D01*
X77695657Y-20775571D01*
X77695657Y-20775572D01*
X77522648Y-20823607D01*
X77451440Y-20861360D01*
X77364008Y-20907714D01*
X77364006Y-20907714D01*
X77364003Y-20907717D01*
X77227157Y-21023954D01*
X77118494Y-21166899D01*
X77118493Y-21166900D01*
X77118493Y-21166901D01*
X77043099Y-21329862D01*
X77043098Y-21329863D01*
X77043098Y-21329865D01*
X77033873Y-21371776D01*
X77005650Y-21499999D01*
X77004500Y-21505222D01*
X77004500Y-21989751D01*
X75745227Y-21989751D01*
X75735793Y-21893968D01*
X75733012Y-21884802D01*
X75675696Y-21695856D01*
X75675693Y-21695851D01*
X75641464Y-21631813D01*
X75616616Y-21585325D01*
X75578107Y-21513278D01*
X75578105Y-21513276D01*
X75578103Y-21513271D01*
X75446765Y-21353235D01*
X75440861Y-21348390D01*
X75286730Y-21221898D01*
X75286731Y-21221898D01*
X75286729Y-21221897D01*
X75286726Y-21221895D01*
X75286721Y-21221892D01*
X75104148Y-21124306D01*
X75104143Y-21124303D01*
X74906038Y-21064208D01*
X74906033Y-21064207D01*
X74906032Y-21064207D01*
X74751630Y-21049000D01*
X74648370Y-21049000D01*
X74493968Y-21064207D01*
X74493966Y-21064207D01*
X74493962Y-21064208D01*
X74493960Y-21064208D01*
X74295856Y-21124303D01*
X74295851Y-21124306D01*
X74113278Y-21221892D01*
X74113269Y-21221898D01*
X73953235Y-21353234D01*
X73953234Y-21353235D01*
X73821898Y-21513269D01*
X73821892Y-21513278D01*
X73724306Y-21695851D01*
X73724303Y-21695856D01*
X73664208Y-21893960D01*
X73664208Y-21893962D01*
X73664207Y-21893966D01*
X73664207Y-21893968D01*
X73643915Y-22100000D01*
X72167251Y-22100000D01*
X72195791Y-22084159D01*
X72342468Y-21958240D01*
X72460796Y-21805373D01*
X72545930Y-21631816D01*
X72594385Y-21444674D01*
X72604176Y-21251610D01*
X72574903Y-21060526D01*
X72507764Y-20879247D01*
X72437083Y-20765849D01*
X72405512Y-20715197D01*
X72405508Y-20715192D01*
X72272325Y-20575082D01*
X72187210Y-20515841D01*
X72113658Y-20464647D01*
X72113655Y-20464645D01*
X72113654Y-20464645D01*
X71936016Y-20388414D01*
X71936006Y-20388411D01*
X71746662Y-20349500D01*
X71746656Y-20349500D01*
X71604820Y-20349500D01*
X70074500Y-20349500D01*
X70026934Y-20332187D01*
X70001624Y-20288350D01*
X70000500Y-20275500D01*
X70000500Y-20074500D01*
X70017813Y-20026934D01*
X70061650Y-20001624D01*
X70074500Y-20000500D01*
X90925500Y-20000500D01*
X90973066Y-20017813D01*
G37*
%TD.AperFunction*%
%TD*%
M02*
