%TF.GenerationSoftware,KiCad,Pcbnew,7.0.7*%
%TF.CreationDate,2023-10-12T13:18:42+07:00*%
%TF.ProjectId,Pico2040-Modular-Rev3-W,5069636f-3230-4343-902d-4d6f64756c61,rev?*%
%TF.SameCoordinates,Original*%
%TF.FileFunction,Soldermask,Top*%
%TF.FilePolarity,Negative*%
%FSLAX46Y46*%
G04 Gerber Fmt 4.6, Leading zero omitted, Abs format (unit mm)*
G04 Created by KiCad (PCBNEW 7.0.7) date 2023-10-12 13:18:42*
%MOMM*%
%LPD*%
G01*
G04 APERTURE LIST*
G04 Aperture macros list*
%AMRoundRect*
0 Rectangle with rounded corners*
0 $1 Rounding radius*
0 $2 $3 $4 $5 $6 $7 $8 $9 X,Y pos of 4 corners*
0 Add a 4 corners polygon primitive as box body*
4,1,4,$2,$3,$4,$5,$6,$7,$8,$9,$2,$3,0*
0 Add four circle primitives for the rounded corners*
1,1,$1+$1,$2,$3*
1,1,$1+$1,$4,$5*
1,1,$1+$1,$6,$7*
1,1,$1+$1,$8,$9*
0 Add four rect primitives between the rounded corners*
20,1,$1+$1,$2,$3,$4,$5,0*
20,1,$1+$1,$4,$5,$6,$7,0*
20,1,$1+$1,$6,$7,$8,$9,0*
20,1,$1+$1,$8,$9,$2,$3,0*%
G04 Aperture macros list end*
%ADD10C,0.200000*%
%ADD11RoundRect,0.100000X0.100000X-0.130000X0.100000X0.130000X-0.100000X0.130000X-0.100000X-0.130000X0*%
%ADD12RoundRect,0.014000X0.161000X-0.231000X0.161000X0.231000X-0.161000X0.231000X-0.161000X-0.231000X0*%
%ADD13R,1.600000X0.200000*%
%ADD14RoundRect,0.100000X-0.130000X-0.100000X0.130000X-0.100000X0.130000X0.100000X-0.130000X0.100000X0*%
%ADD15R,1.700000X1.700000*%
%ADD16O,1.700000X1.700000*%
%ADD17RoundRect,0.062500X0.375000X0.062500X-0.375000X0.062500X-0.375000X-0.062500X0.375000X-0.062500X0*%
%ADD18RoundRect,0.062500X0.062500X0.375000X-0.062500X0.375000X-0.062500X-0.375000X0.062500X-0.375000X0*%
%ADD19R,3.450000X3.450000*%
%ADD20RoundRect,0.100000X0.130000X0.100000X-0.130000X0.100000X-0.130000X-0.100000X0.130000X-0.100000X0*%
%ADD21C,2.100000*%
%ADD22R,3.200000X1.600000*%
%ADD23O,1.700000X1.600000*%
%ADD24RoundRect,0.100000X-0.100000X0.130000X-0.100000X-0.130000X0.100000X-0.130000X0.100000X0.130000X0*%
%ADD25R,0.400000X1.650000*%
%ADD26R,1.825000X0.700000*%
%ADD27R,2.000000X1.500000*%
%ADD28R,1.350000X2.000000*%
%ADD29O,1.350000X1.700000*%
%ADD30O,1.100000X1.500000*%
%ADD31R,1.430000X2.500000*%
%ADD32R,0.200000X0.400000*%
%ADD33RoundRect,0.050000X-0.387500X-0.050000X0.387500X-0.050000X0.387500X0.050000X-0.387500X0.050000X0*%
%ADD34RoundRect,0.050000X-0.050000X-0.387500X0.050000X-0.387500X0.050000X0.387500X-0.050000X0.387500X0*%
%ADD35R,3.200000X3.200000*%
%ADD36R,1.150000X1.000000*%
%ADD37R,0.650000X1.050000*%
%ADD38RoundRect,0.150000X-0.150000X0.512500X-0.150000X-0.512500X0.150000X-0.512500X0.150000X0.512500X0*%
%ADD39R,0.900000X0.800000*%
G04 APERTURE END LIST*
D10*
%TO.C,AE1*%
X77265000Y-67142500D02*
X77265000Y-69592500D01*
X77265000Y-69592500D02*
X78380000Y-69592500D01*
X77980000Y-67142500D02*
X77980000Y-69592500D01*
X78830000Y-67392500D02*
X78830000Y-69142500D01*
X79480000Y-69267500D02*
X79480000Y-67392500D01*
X80130000Y-67392500D02*
X80130000Y-69267500D01*
X80780000Y-69267500D02*
X80780000Y-67392500D01*
X81430000Y-67392500D02*
X81430000Y-69267500D01*
X82080000Y-69267500D02*
X82080000Y-67392500D01*
X82730000Y-67392500D02*
X82730000Y-69267500D01*
X83380000Y-69267500D02*
X83380000Y-67392500D01*
X84030000Y-69267500D02*
X84030000Y-67092500D01*
X79480000Y-67392500D02*
G75*
G03*
X78830000Y-67392500I-325000J0D01*
G01*
X78380000Y-69592500D02*
G75*
G03*
X78830000Y-69142500I0J450000D01*
G01*
X80780000Y-67392500D02*
G75*
G03*
X80130000Y-67392500I-325000J0D01*
G01*
X79480000Y-69267500D02*
G75*
G03*
X80130000Y-69267500I325000J0D01*
G01*
X82080000Y-67392500D02*
G75*
G03*
X81430000Y-67392500I-325000J0D01*
G01*
X80780000Y-69267500D02*
G75*
G03*
X81430000Y-69267500I325000J0D01*
G01*
X83380000Y-67392500D02*
G75*
G03*
X82730000Y-67392500I-325000J0D01*
G01*
X82080000Y-69267500D02*
G75*
G03*
X82730000Y-69267500I325000J0D01*
G01*
X83380000Y-69267500D02*
G75*
G03*
X84030000Y-69267500I325000J0D01*
G01*
%TD*%
D11*
%TO.C,C3*%
X83300000Y-35820000D03*
X83300000Y-35180000D03*
%TD*%
%TO.C,D2*%
X75800000Y-24040000D03*
X75800000Y-23400000D03*
%TD*%
%TO.C,C1*%
X81800000Y-35820000D03*
X81800000Y-35180000D03*
%TD*%
D12*
%TO.C,U5*%
X82700000Y-60140000D03*
X83200000Y-60140000D03*
X83700000Y-60140000D03*
X84200000Y-60140000D03*
X84200000Y-57700000D03*
X83700000Y-57700000D03*
X83200000Y-57700000D03*
X82700000Y-57700000D03*
D13*
X83450000Y-58920000D03*
%TD*%
D12*
%TO.C,U3*%
X76700000Y-34540000D03*
X77200000Y-34540000D03*
X77700000Y-34540000D03*
X78200000Y-34540000D03*
X78200000Y-32100000D03*
X77700000Y-32100000D03*
X77200000Y-32100000D03*
X76700000Y-32100000D03*
D13*
X77450000Y-33320000D03*
%TD*%
D14*
%TO.C,C17*%
X81435000Y-64100000D03*
X82075000Y-64100000D03*
%TD*%
D15*
%TO.C,J4*%
X84810000Y-49090000D03*
D16*
X84810000Y-51630000D03*
X84810000Y-54170000D03*
%TD*%
D17*
%TO.C,U4*%
X81400000Y-57800000D03*
X81400000Y-57300000D03*
X81400000Y-56800000D03*
X81400000Y-56300000D03*
X81400000Y-55800000D03*
X81400000Y-55300000D03*
X81400000Y-54800000D03*
X81400000Y-54300000D03*
D18*
X80712500Y-53612500D03*
X80212500Y-53612500D03*
X79712500Y-53612500D03*
X79212500Y-53612500D03*
X78712500Y-53612500D03*
X78212500Y-53612500D03*
X77712500Y-53612500D03*
X77212500Y-53612500D03*
D17*
X76525000Y-54300000D03*
X76525000Y-54800000D03*
X76525000Y-55300000D03*
X76525000Y-55800000D03*
X76525000Y-56300000D03*
X76525000Y-56800000D03*
X76525000Y-57300000D03*
X76525000Y-57800000D03*
D18*
X77212500Y-58487500D03*
X77712500Y-58487500D03*
X78212500Y-58487500D03*
X78712500Y-58487500D03*
X79212500Y-58487500D03*
X79712500Y-58487500D03*
X80212500Y-58487500D03*
X80712500Y-58487500D03*
D19*
X78962500Y-56050000D03*
%TD*%
D14*
%TO.C,C7*%
X86160000Y-41900000D03*
X86800000Y-41900000D03*
%TD*%
D11*
%TO.C,C18*%
X77890000Y-65115000D03*
X77890000Y-64475000D03*
%TD*%
D20*
%TO.C,D1*%
X86375000Y-23900000D03*
X85735000Y-23900000D03*
%TD*%
D11*
%TO.C,R4*%
X83200000Y-30965000D03*
X83200000Y-30325000D03*
%TD*%
%TO.C,C8*%
X84300000Y-37165000D03*
X84300000Y-36525000D03*
%TD*%
D21*
%TO.C,REF\u002A\u002A*%
X74600000Y-68800000D03*
%TD*%
D22*
%TO.C,J2*%
X69990000Y-21300000D03*
D23*
X71600000Y-21300000D03*
D22*
X69990000Y-23840000D03*
D23*
X71600000Y-23840000D03*
D22*
X69990000Y-26380000D03*
D23*
X71600000Y-26380000D03*
D22*
X69990000Y-28920000D03*
D23*
X71600000Y-28920000D03*
D22*
X69990000Y-31460000D03*
D23*
X71600000Y-31460000D03*
D22*
X69990000Y-34000000D03*
D23*
X71600000Y-34000000D03*
D22*
X69990000Y-36540000D03*
D23*
X71600000Y-36540000D03*
D22*
X69990000Y-39080000D03*
D23*
X71600000Y-39080000D03*
D22*
X69990000Y-41620000D03*
D23*
X71600000Y-41620000D03*
D22*
X69990000Y-44160000D03*
D23*
X71600000Y-44160000D03*
D22*
X69990000Y-46700000D03*
D23*
X71600000Y-46700000D03*
D22*
X69990000Y-49240000D03*
D23*
X71600000Y-49240000D03*
D22*
X69990000Y-51780000D03*
D23*
X71600000Y-51780000D03*
D22*
X69990000Y-54320000D03*
D23*
X71600000Y-54320000D03*
D22*
X69990000Y-56860000D03*
D23*
X71600000Y-56860000D03*
D22*
X69990000Y-59400000D03*
D23*
X71600000Y-59400000D03*
D22*
X69990000Y-61940000D03*
D23*
X71600000Y-61940000D03*
D22*
X69990000Y-64480000D03*
D23*
X71600000Y-64480000D03*
D22*
X69990000Y-67020000D03*
D23*
X71600000Y-67020000D03*
D22*
X69990000Y-69560000D03*
D23*
X71600000Y-69560000D03*
%TD*%
D14*
%TO.C,C11*%
X84335000Y-34600000D03*
X84975000Y-34600000D03*
%TD*%
D24*
%TO.C,R5*%
X75800000Y-35035000D03*
X75800000Y-35675000D03*
%TD*%
D25*
%TO.C,J1*%
X81860000Y-24650000D03*
X81210000Y-24650000D03*
X80560000Y-24650000D03*
X79910000Y-24650000D03*
X79260000Y-24650000D03*
D26*
X83510000Y-23450000D03*
D27*
X83410000Y-24750000D03*
D28*
X83290000Y-22700000D03*
D29*
X83290000Y-21770000D03*
D30*
X82980000Y-24770000D03*
D31*
X81520000Y-21500000D03*
X79600000Y-21500000D03*
D30*
X78140000Y-24770000D03*
D29*
X77830000Y-21770000D03*
D28*
X77810000Y-22700000D03*
D27*
X77660000Y-24770000D03*
D26*
X77560000Y-23450000D03*
%TD*%
D14*
%TO.C,C13*%
X86635000Y-31100000D03*
X87275000Y-31100000D03*
%TD*%
D11*
%TO.C,C10*%
X79300000Y-35865000D03*
X79300000Y-35225000D03*
%TD*%
D14*
%TO.C,C15*%
X76935000Y-51400000D03*
X77575000Y-51400000D03*
%TD*%
D32*
%TO.C,AE1*%
X77265000Y-66940000D03*
X77980000Y-66940000D03*
%TD*%
D33*
%TO.C,U1*%
X76925000Y-39200000D03*
X76925000Y-39600000D03*
X76925000Y-40000000D03*
X76925000Y-40400000D03*
X76925000Y-40800000D03*
X76925000Y-41200000D03*
X76925000Y-41600000D03*
X76925000Y-42000000D03*
X76925000Y-42400000D03*
X76925000Y-42800000D03*
X76925000Y-43200000D03*
X76925000Y-43600000D03*
X76925000Y-44000000D03*
X76925000Y-44400000D03*
D34*
X77762500Y-45237500D03*
X78162500Y-45237500D03*
X78562500Y-45237500D03*
X78962500Y-45237500D03*
X79362500Y-45237500D03*
X79762500Y-45237500D03*
X80162500Y-45237500D03*
X80562500Y-45237500D03*
X80962500Y-45237500D03*
X81362500Y-45237500D03*
X81762500Y-45237500D03*
X82162500Y-45237500D03*
X82562500Y-45237500D03*
X82962500Y-45237500D03*
D33*
X83800000Y-44400000D03*
X83800000Y-44000000D03*
X83800000Y-43600000D03*
X83800000Y-43200000D03*
X83800000Y-42800000D03*
X83800000Y-42400000D03*
X83800000Y-42000000D03*
X83800000Y-41600000D03*
X83800000Y-41200000D03*
X83800000Y-40800000D03*
X83800000Y-40400000D03*
X83800000Y-40000000D03*
X83800000Y-39600000D03*
X83800000Y-39200000D03*
D34*
X82962500Y-38362500D03*
X82562500Y-38362500D03*
X82162500Y-38362500D03*
X81762500Y-38362500D03*
X81362500Y-38362500D03*
X80962500Y-38362500D03*
X80562500Y-38362500D03*
X80162500Y-38362500D03*
X79762500Y-38362500D03*
X79362500Y-38362500D03*
X78962500Y-38362500D03*
X78562500Y-38362500D03*
X78162500Y-38362500D03*
X77762500Y-38362500D03*
D35*
X80362500Y-41800000D03*
%TD*%
D24*
%TO.C,C6*%
X80500000Y-47035000D03*
X80500000Y-47675000D03*
%TD*%
%TO.C,C16*%
X83800000Y-61980000D03*
X83800000Y-62620000D03*
%TD*%
%TO.C,R6*%
X76200000Y-30035000D03*
X76200000Y-30675000D03*
%TD*%
D11*
%TO.C,C9*%
X80000000Y-35865000D03*
X80000000Y-35225000D03*
%TD*%
D14*
%TO.C,C5*%
X82535000Y-32800000D03*
X83175000Y-32800000D03*
%TD*%
D24*
%TO.C,R1*%
X80600000Y-33235000D03*
X80600000Y-33875000D03*
%TD*%
D14*
%TO.C,C12*%
X86035000Y-25400000D03*
X86675000Y-25400000D03*
%TD*%
D11*
%TO.C,R7*%
X80400000Y-60365000D03*
X80400000Y-59725000D03*
%TD*%
D36*
%TO.C,Y1*%
X77050000Y-50100000D03*
X78800000Y-50100000D03*
X78800000Y-48700000D03*
X77050000Y-48700000D03*
%TD*%
D14*
%TO.C,R3*%
X84535000Y-31000000D03*
X85175000Y-31000000D03*
%TD*%
D11*
%TO.C,C4*%
X76400000Y-37520000D03*
X76400000Y-36880000D03*
%TD*%
D24*
%TO.C,R2*%
X81300000Y-33235000D03*
X81300000Y-33875000D03*
%TD*%
D21*
%TO.C,REF\u002A\u002A*%
X86400000Y-68800000D03*
%TD*%
%TO.C,REF\u002A\u002A*%
X74700000Y-22100000D03*
%TD*%
D37*
%TO.C,SW1*%
X77350000Y-30725000D03*
X77350000Y-26575000D03*
X79500000Y-30725000D03*
X79500000Y-26600000D03*
%TD*%
D24*
%TO.C,C14*%
X80100000Y-49335000D03*
X80100000Y-49975000D03*
%TD*%
D38*
%TO.C,U2*%
X86500000Y-27425000D03*
X85550000Y-27425000D03*
X84600000Y-27425000D03*
X84600000Y-29700000D03*
X86500000Y-29700000D03*
%TD*%
D39*
%TO.C,Y2*%
X81200000Y-63000000D03*
X82600000Y-63000000D03*
X82600000Y-61900000D03*
X81200000Y-61900000D03*
%TD*%
D11*
%TO.C,C2*%
X82580000Y-35820000D03*
X82580000Y-35180000D03*
%TD*%
D21*
%TO.C,REF\u002A\u002A*%
X86400000Y-22100000D03*
%TD*%
D22*
%TO.C,J3*%
X91000000Y-21300000D03*
D23*
X89390000Y-21300000D03*
D22*
X91000000Y-23840000D03*
D23*
X89390000Y-23840000D03*
D22*
X91000000Y-26380000D03*
D23*
X89390000Y-26380000D03*
D22*
X91000000Y-28920000D03*
D23*
X89390000Y-28920000D03*
D22*
X91000000Y-31460000D03*
D23*
X89390000Y-31460000D03*
D22*
X91000000Y-34000000D03*
D23*
X89390000Y-34000000D03*
D22*
X91000000Y-36540000D03*
D23*
X89390000Y-36540000D03*
D22*
X91000000Y-39080000D03*
D23*
X89390000Y-39080000D03*
D22*
X91000000Y-41620000D03*
D23*
X89390000Y-41620000D03*
D22*
X91000000Y-44160000D03*
D23*
X89390000Y-44160000D03*
D22*
X91000000Y-46700000D03*
D23*
X89390000Y-46700000D03*
D22*
X91000000Y-49240000D03*
D23*
X89390000Y-49240000D03*
D22*
X91000000Y-51780000D03*
D23*
X89390000Y-51780000D03*
D22*
X91000000Y-54320000D03*
D23*
X89390000Y-54320000D03*
D22*
X91000000Y-56860000D03*
D23*
X89390000Y-56860000D03*
D22*
X91000000Y-59400000D03*
D23*
X89390000Y-59400000D03*
D22*
X91000000Y-61940000D03*
D23*
X89390000Y-61940000D03*
D22*
X91000000Y-64480000D03*
D23*
X89390000Y-64480000D03*
D22*
X91000000Y-67020000D03*
D23*
X89390000Y-67020000D03*
D22*
X91000000Y-69560000D03*
D23*
X89390000Y-69560000D03*
%TD*%
M02*
