M48
INCH,TZ
T1C0.0197
%
G90
G05
T1
X44291Y-10630
X44291Y-30709
X44882Y-10630
X44882Y-30709
X45472Y-10630
X45472Y-30709
X49016Y-14055
X49016Y-15236
X49016Y-18071
X49016Y-19252
X49016Y-22087
X49016Y-23268
X49016Y-26102
X49016Y-27283
X49803Y-14055
X49803Y-15236
X49803Y-18071
X49803Y-19252
X49803Y-22087
X49803Y-23268
X49803Y-26102
X49803Y-27283
X53346Y-10630
X53346Y-30709
X53937Y-10630
X53937Y-30709
X54528Y-10630
X54528Y-30709
X58071Y-14055
X58071Y-15236
X58071Y-18071
X58071Y-19252
X58071Y-22087
X58071Y-23268
X58071Y-26102
X58071Y-27283
X58858Y-14055
X58858Y-15236
X58858Y-18071
X58858Y-19252
X58858Y-22087
X58858Y-23268
X58858Y-26102
X58858Y-27283
X62402Y-10630
X62402Y-30709
X62992Y-10630
X62992Y-30709
X63583Y-10630
X63583Y-30709
X67126Y-14055
X67126Y-15236
X67126Y-18071
X67126Y-19252
X67126Y-22087
X67126Y-23268
X67126Y-26102
X67126Y-27283
X67913Y-14055
X67913Y-15236
X67913Y-18071
X67913Y-19252
X67913Y-22087
X67913Y-23268
X67913Y-26102
X67913Y-27283
X71457Y-10630
X71457Y-30709
X72047Y-10630
X72047Y-30709
X72638Y-10630
X72638Y-30709
T0
M30
