M48
INCH,TZ
T1C0.0118
T2C0.0256
T3C0.0276
T4C0.0394
%
G90
G05
T1
X42260Y-11039
X42736Y-13858
X42795Y-12559
X42795Y-16850
X42835Y-14646
X43055Y-11028
X43079Y-30169
X43228Y-15492
X43242Y-16449
X43465Y-27992
X43484Y-16063
X43504Y-24094
X43547Y-23469
X43740Y-25197
X43799Y-14331
X44291Y-18287
X44291Y-18799
X44291Y-19272
X44301Y-20827
X44409Y-11862
X44516Y-11232
X44528Y-21673
X44654Y-23850
X44803Y-16339
X44823Y-18287
X44823Y-18799
X44823Y-19272
X44921Y-16772
X45039Y-21043
X45181Y-11220
X45197Y-11862
X45266Y-28199
X45354Y-20866
X45439Y-20520
X45576Y-17064
X45777Y-19738
X45945Y-14734
X45955Y-15856
X46000Y-16827
X46555Y-23350
X46571Y-27319
X46654Y-15906
X46821Y-14035
X46890Y-18819
X47185Y-15354
X47598Y-15039
X47795Y-16476
X51315Y-11039
X51791Y-13858
X51850Y-12559
X51850Y-16850
X51890Y-14646
X52110Y-11028
X52134Y-30169
X52283Y-15492
X52297Y-16449
X52520Y-27992
X52539Y-16063
X52559Y-24094
X52602Y-23469
X52795Y-25197
X52854Y-14331
X53346Y-18287
X53346Y-18799
X53346Y-19272
X53356Y-20827
X53465Y-11862
X53571Y-11232
X53583Y-21673
X53709Y-23850
X53858Y-16339
X53878Y-18287
X53878Y-18799
X53878Y-19272
X53976Y-16772
X54094Y-21043
X54236Y-11220
X54252Y-11862
X54321Y-28199
X54409Y-20866
X54494Y-20520
X54631Y-17064
X54832Y-19738
X55000Y-14734
X55010Y-15856
X55055Y-16827
X55610Y-23350
X55626Y-27319
X55709Y-15906
X55876Y-14035
X55945Y-18819
X56240Y-15354
X56654Y-15039
X56850Y-16476
X60370Y-11039
X60846Y-13858
X60906Y-12559
X60906Y-16850
X60945Y-14646
X61165Y-11028
X61189Y-30169
X61339Y-15492
X61352Y-16449
X61575Y-27992
X61594Y-16063
X61614Y-24094
X61657Y-23469
X61850Y-25197
X61909Y-14331
X62402Y-18287
X62402Y-18799
X62402Y-19272
X62411Y-20827
X62520Y-11862
X62626Y-11232
X62638Y-21673
X62764Y-23850
X62913Y-16339
X62933Y-18287
X62933Y-18799
X62933Y-19272
X63031Y-16772
X63150Y-21043
X63291Y-11220
X63307Y-11862
X63376Y-28199
X63465Y-20866
X63549Y-20520
X63686Y-17064
X63888Y-19738
X64055Y-14734
X64065Y-15856
X64110Y-16827
X64665Y-23350
X64681Y-27319
X64764Y-15906
X64931Y-14035
X65000Y-18819
X65295Y-15354
X65709Y-15039
X65906Y-16476
X69425Y-11039
X69902Y-13858
X69961Y-12559
X69961Y-16850
X70000Y-14646
X70220Y-11028
X70244Y-30169
X70394Y-15492
X70407Y-16449
X70630Y-27992
X70650Y-16063
X70669Y-24094
X70713Y-23469
X70906Y-25197
X70965Y-14331
X71457Y-18287
X71457Y-18799
X71457Y-19272
X71467Y-20827
X71575Y-11862
X71681Y-11232
X71693Y-21673
X71819Y-23850
X71969Y-16339
X71988Y-18287
X71988Y-18799
X71988Y-19272
X72087Y-16772
X72205Y-21043
X72346Y-11220
X72362Y-11862
X72431Y-28199
X72520Y-20866
X72604Y-20520
X72741Y-17064
X72943Y-19738
X73110Y-14734
X73120Y-15856
X73165Y-16827
X73720Y-23350
X73736Y-27319
X73819Y-15906
X73986Y-14035
X74055Y-18819
X74350Y-15354
X74764Y-15039
X74961Y-16476
T4
X40744Y-11142
X40744Y-12142
X40744Y-13142
X40744Y-14142
X40744Y-15142
X40744Y-16142
X40744Y-17142
X40744Y-18142
X40744Y-19142
X40744Y-20142
X40744Y-21142
X40744Y-22142
X40744Y-23142
X40744Y-24142
X40744Y-25142
X40744Y-26142
X40744Y-27142
X40744Y-28142
X40744Y-29142
X40744Y-30142
X41378Y-11142
X41378Y-12142
X41378Y-13142
X41378Y-14142
X41378Y-15142
X41378Y-16142
X41378Y-17142
X41378Y-18142
X41378Y-19142
X41378Y-20142
X41378Y-21142
X41378Y-22142
X41378Y-23142
X41378Y-24142
X41378Y-25142
X41378Y-26142
X41378Y-27142
X41378Y-28142
X41378Y-29142
X41378Y-30142
X44026Y-29970
X45026Y-29970
X46026Y-29970
X48386Y-11142
X48386Y-12142
X48386Y-13142
X48386Y-14142
X48386Y-15142
X48386Y-16142
X48386Y-17142
X48386Y-18142
X48386Y-19142
X48386Y-20142
X48386Y-21142
X48386Y-22142
X48386Y-23142
X48386Y-24142
X48386Y-25142
X48386Y-26142
X48386Y-27142
X48386Y-28142
X48386Y-29142
X48386Y-30142
X49020Y-11142
X49020Y-12142
X49020Y-13142
X49020Y-14142
X49020Y-15142
X49020Y-16142
X49020Y-17142
X49020Y-18142
X49020Y-19142
X49020Y-20142
X49020Y-21142
X49020Y-22142
X49020Y-23142
X49020Y-24142
X49020Y-25142
X49020Y-26142
X49020Y-27142
X49020Y-28142
X49020Y-29142
X49020Y-30142
X49799Y-11142
X49799Y-12142
X49799Y-13142
X49799Y-14142
X49799Y-15142
X49799Y-16142
X49799Y-17142
X49799Y-18142
X49799Y-19142
X49799Y-20142
X49799Y-21142
X49799Y-22142
X49799Y-23142
X49799Y-24142
X49799Y-25142
X49799Y-26142
X49799Y-27142
X49799Y-28142
X49799Y-29142
X49799Y-30142
X50433Y-11142
X50433Y-12142
X50433Y-13142
X50433Y-14142
X50433Y-15142
X50433Y-16142
X50433Y-17142
X50433Y-18142
X50433Y-19142
X50433Y-20142
X50433Y-21142
X50433Y-22142
X50433Y-23142
X50433Y-24142
X50433Y-25142
X50433Y-26142
X50433Y-27142
X50433Y-28142
X50433Y-29142
X50433Y-30142
X53081Y-29970
X54081Y-29970
X55081Y-29970
X57441Y-11142
X57441Y-12142
X57441Y-13142
X57441Y-14142
X57441Y-15142
X57441Y-16142
X57441Y-17142
X57441Y-18142
X57441Y-19142
X57441Y-20142
X57441Y-21142
X57441Y-22142
X57441Y-23142
X57441Y-24142
X57441Y-25142
X57441Y-26142
X57441Y-27142
X57441Y-28142
X57441Y-29142
X57441Y-30142
X58075Y-11142
X58075Y-12142
X58075Y-13142
X58075Y-14142
X58075Y-15142
X58075Y-16142
X58075Y-17142
X58075Y-18142
X58075Y-19142
X58075Y-20142
X58075Y-21142
X58075Y-22142
X58075Y-23142
X58075Y-24142
X58075Y-25142
X58075Y-26142
X58075Y-27142
X58075Y-28142
X58075Y-29142
X58075Y-30142
X58854Y-11142
X58854Y-12142
X58854Y-13142
X58854Y-14142
X58854Y-15142
X58854Y-16142
X58854Y-17142
X58854Y-18142
X58854Y-19142
X58854Y-20142
X58854Y-21142
X58854Y-22142
X58854Y-23142
X58854Y-24142
X58854Y-25142
X58854Y-26142
X58854Y-27142
X58854Y-28142
X58854Y-29142
X58854Y-30142
X59488Y-11142
X59488Y-12142
X59488Y-13142
X59488Y-14142
X59488Y-15142
X59488Y-16142
X59488Y-17142
X59488Y-18142
X59488Y-19142
X59488Y-20142
X59488Y-21142
X59488Y-22142
X59488Y-23142
X59488Y-24142
X59488Y-25142
X59488Y-26142
X59488Y-27142
X59488Y-28142
X59488Y-29142
X59488Y-30142
X62136Y-29970
X63136Y-29970
X64136Y-29970
X66496Y-11142
X66496Y-12142
X66496Y-13142
X66496Y-14142
X66496Y-15142
X66496Y-16142
X66496Y-17142
X66496Y-18142
X66496Y-19142
X66496Y-20142
X66496Y-21142
X66496Y-22142
X66496Y-23142
X66496Y-24142
X66496Y-25142
X66496Y-26142
X66496Y-27142
X66496Y-28142
X66496Y-29142
X66496Y-30142
X67130Y-11142
X67130Y-12142
X67130Y-13142
X67130Y-14142
X67130Y-15142
X67130Y-16142
X67130Y-17142
X67130Y-18142
X67130Y-19142
X67130Y-20142
X67130Y-21142
X67130Y-22142
X67130Y-23142
X67130Y-24142
X67130Y-25142
X67130Y-26142
X67130Y-27142
X67130Y-28142
X67130Y-29142
X67130Y-30142
X67909Y-11142
X67909Y-12142
X67909Y-13142
X67909Y-14142
X67909Y-15142
X67909Y-16142
X67909Y-17142
X67909Y-18142
X67909Y-19142
X67909Y-20142
X67909Y-21142
X67909Y-22142
X67909Y-23142
X67909Y-24142
X67909Y-25142
X67909Y-26142
X67909Y-27142
X67909Y-28142
X67909Y-29142
X67909Y-30142
X68543Y-11142
X68543Y-12142
X68543Y-13142
X68543Y-14142
X68543Y-15142
X68543Y-16142
X68543Y-17142
X68543Y-18142
X68543Y-19142
X68543Y-20142
X68543Y-21142
X68543Y-22142
X68543Y-23142
X68543Y-24142
X68543Y-25142
X68543Y-26142
X68543Y-27142
X68543Y-28142
X68543Y-29142
X68543Y-30142
X71191Y-29970
X72191Y-29970
X73191Y-29970
X75551Y-11142
X75551Y-12142
X75551Y-13142
X75551Y-14142
X75551Y-15142
X75551Y-16142
X75551Y-17142
X75551Y-18142
X75551Y-19142
X75551Y-20142
X75551Y-21142
X75551Y-22142
X75551Y-23142
X75551Y-24142
X75551Y-25142
X75551Y-26142
X75551Y-27142
X75551Y-28142
X75551Y-29142
X75551Y-30142
X76185Y-11142
X76185Y-12142
X76185Y-13142
X76185Y-14142
X76185Y-15142
X76185Y-16142
X76185Y-17142
X76185Y-18142
X76185Y-19142
X76185Y-20142
X76185Y-21142
X76185Y-22142
X76185Y-23142
X76185Y-24142
X76185Y-25142
X76185Y-26142
X76185Y-27142
X76185Y-28142
X76185Y-29142
X76185Y-30142
T2
G00X43902Y-12402
M15
G01X43902Y-12559
M16
G05
G00X45807Y-12402
M15
G01X45807Y-12559
M16
G05
G00X52957Y-12402
M15
G01X52957Y-12559
M16
G05
G00X54862Y-12402
M15
G01X54862Y-12559
M16
G05
G00X62012Y-12402
M15
G01X62012Y-12559
M16
G05
G00X63917Y-12402
M15
G01X63917Y-12559
M16
G05
G00X71067Y-12402
M15
G01X71067Y-12559
M16
G05
G00X72972Y-12402
M15
G01X72972Y-12559
M16
G05
T3
G00X43780Y-11201
M15
G01X43780Y-11398
M16
G05
G00X45929Y-11201
M15
G01X45929Y-11398
M16
G05
G00X52835Y-11201
M15
G01X52835Y-11398
M16
G05
G00X54984Y-11201
M15
G01X54984Y-11398
M16
G05
G00X61890Y-11201
M15
G01X61890Y-11398
M16
G05
G00X64039Y-11201
M15
G01X64039Y-11398
M16
G05
G00X70945Y-11201
M15
G01X70945Y-11398
M16
G05
G00X73094Y-11201
M15
G01X73094Y-11398
M16
G05
T0
M30
