%TF.GenerationSoftware,KiCad,Pcbnew,7.0.6*%
%TF.CreationDate,2023-08-11T19:51:35+07:00*%
%TF.ProjectId,Pico2040-Modular-Rev2-MP,5069636f-3230-4343-902d-4d6f64756c61,rev?*%
%TF.SameCoordinates,Original*%
%TF.FileFunction,Profile,NP*%
%FSLAX46Y46*%
G04 Gerber Fmt 4.6, Leading zero omitted, Abs format (unit mm)*
G04 Created by KiCad (PCBNEW 7.0.6) date 2023-08-11 19:51:35*
%MOMM*%
%LPD*%
G01*
G04 APERTURE LIST*
%TA.AperFunction,Profile*%
%ADD10C,0.100000*%
%TD*%
G04 APERTURE END LIST*
D10*
X124500000Y-78000000D02*
X124500000Y-27000000D01*
X126500000Y-78000000D02*
X126500000Y-27000000D01*
X147500000Y-78000000D02*
X147500000Y-27000000D01*
X149500000Y-78000000D02*
X149500000Y-27000000D01*
X170500000Y-78000000D02*
X170500000Y-27000000D01*
X172500000Y-78000000D02*
X172500000Y-27000000D01*
X103500000Y-27000000D02*
X103500000Y-78000000D01*
X124500000Y-27000000D02*
X115500000Y-27000000D01*
X115500000Y-78000000D02*
X124500000Y-78000000D01*
X126500000Y-78000000D02*
X135500000Y-78000000D01*
X138500000Y-80000000D02*
X138500000Y-78000000D01*
X193500000Y-25000000D02*
X193500000Y-20000000D01*
X112500000Y-25000000D02*
X112500000Y-27000000D01*
X115500000Y-27000000D02*
X115500000Y-25000000D01*
X112500000Y-78000000D02*
X112500000Y-80000000D01*
X103500000Y-78000000D02*
X112500000Y-78000000D01*
X161500000Y-78000000D02*
X170500000Y-78000000D01*
X181500000Y-25000000D02*
X181500000Y-27000000D01*
X158500000Y-25000000D02*
X158500000Y-25000000D01*
X158500000Y-27000000D02*
X149500000Y-27000000D01*
X181500000Y-27000000D02*
X172500000Y-27000000D01*
X184500000Y-27000000D02*
X184500000Y-25000000D01*
X172500000Y-78000000D02*
X181500000Y-78000000D01*
X135500000Y-27000000D02*
X126500000Y-27000000D01*
X170500000Y-78000000D02*
X170500000Y-78000000D01*
X193500000Y-27000000D02*
X184500000Y-27000000D01*
X147500000Y-78000000D02*
X147500000Y-78000000D01*
X103500000Y-25000000D02*
X112500000Y-25000000D01*
X135500000Y-80000000D02*
X115500000Y-80000000D01*
X147500000Y-27000000D02*
X138500000Y-27000000D01*
X161500000Y-25000000D02*
X181500000Y-25000000D01*
X103500000Y-80000000D02*
X103500000Y-85000000D01*
X193500000Y-78000000D02*
X193500000Y-27000000D01*
X161500000Y-80000000D02*
X161500000Y-78000000D01*
X103500000Y-85000000D02*
X193500000Y-85000000D01*
X138500000Y-78000000D02*
X147500000Y-78000000D01*
X184500000Y-78000000D02*
X193500000Y-78000000D01*
X193500000Y-20000000D02*
X193500000Y-20000000D01*
X181500000Y-80000000D02*
X161500000Y-80000000D01*
X135500000Y-25000000D02*
X135500000Y-25000000D01*
X112500000Y-27000000D02*
X103500000Y-27000000D01*
X112500000Y-80000000D02*
X103500000Y-80000000D01*
X170500000Y-27000000D02*
X161500000Y-27000000D01*
X138500000Y-27000000D02*
X138500000Y-25000000D01*
X181500000Y-78000000D02*
X181500000Y-80000000D01*
X161500000Y-27000000D02*
X161500000Y-25000000D01*
X103500000Y-20000000D02*
X103500000Y-25000000D01*
X193500000Y-20000000D02*
X103500000Y-20000000D01*
X181500000Y-25000000D02*
X181500000Y-25000000D01*
X184500000Y-25000000D02*
X193500000Y-25000000D01*
X158500000Y-78000000D02*
X158500000Y-80000000D01*
X158500000Y-80000000D02*
X138500000Y-80000000D01*
X135500000Y-25000000D02*
X135500000Y-27000000D01*
X115500000Y-80000000D02*
X115500000Y-78000000D01*
X115500000Y-25000000D02*
X135500000Y-25000000D01*
X193500000Y-80000000D02*
X184500000Y-80000000D01*
X135500000Y-78000000D02*
X135500000Y-80000000D01*
X193500000Y-85000000D02*
X193500000Y-80000000D01*
X138500000Y-25000000D02*
X158500000Y-25000000D01*
X124500000Y-78000000D02*
X124500000Y-78000000D01*
X158500000Y-25000000D02*
X158500000Y-27000000D01*
X149500000Y-78000000D02*
X158500000Y-78000000D01*
X184500000Y-80000000D02*
X184500000Y-78000000D01*
M02*
