%TF.GenerationSoftware,KiCad,Pcbnew,7.0.6*%
%TF.CreationDate,2023-08-11T11:38:24+07:00*%
%TF.ProjectId,Pico2040-Modular-Rev2,5069636f-3230-4343-902d-4d6f64756c61,rev?*%
%TF.SameCoordinates,Original*%
%TF.FileFunction,Soldermask,Top*%
%TF.FilePolarity,Negative*%
%FSLAX46Y46*%
G04 Gerber Fmt 4.6, Leading zero omitted, Abs format (unit mm)*
G04 Created by KiCad (PCBNEW 7.0.6) date 2023-08-11 11:38:24*
%MOMM*%
%LPD*%
G01*
G04 APERTURE LIST*
G04 Aperture macros list*
%AMRoundRect*
0 Rectangle with rounded corners*
0 $1 Rounding radius*
0 $2 $3 $4 $5 $6 $7 $8 $9 X,Y pos of 4 corners*
0 Add a 4 corners polygon primitive as box body*
4,1,4,$2,$3,$4,$5,$6,$7,$8,$9,$2,$3,0*
0 Add four circle primitives for the rounded corners*
1,1,$1+$1,$2,$3*
1,1,$1+$1,$4,$5*
1,1,$1+$1,$6,$7*
1,1,$1+$1,$8,$9*
0 Add four rect primitives between the rounded corners*
20,1,$1+$1,$2,$3,$4,$5,0*
20,1,$1+$1,$4,$5,$6,$7,0*
20,1,$1+$1,$6,$7,$8,$9,0*
20,1,$1+$1,$8,$9,$2,$3,0*%
G04 Aperture macros list end*
%ADD10RoundRect,0.100000X-0.130000X-0.100000X0.130000X-0.100000X0.130000X0.100000X-0.130000X0.100000X0*%
%ADD11R,1.700000X1.700000*%
%ADD12O,1.700000X1.700000*%
%ADD13R,0.400000X1.650000*%
%ADD14R,1.825000X0.700000*%
%ADD15R,2.000000X1.500000*%
%ADD16R,1.350000X2.000000*%
%ADD17O,1.350000X1.700000*%
%ADD18O,1.100000X1.500000*%
%ADD19R,1.430000X2.500000*%
%ADD20RoundRect,0.100000X-0.100000X0.130000X-0.100000X-0.130000X0.100000X-0.130000X0.100000X0.130000X0*%
%ADD21R,0.750000X1.000000*%
%ADD22RoundRect,0.150000X-0.150000X0.512500X-0.150000X-0.512500X0.150000X-0.512500X0.150000X0.512500X0*%
%ADD23RoundRect,0.050000X-0.387500X-0.050000X0.387500X-0.050000X0.387500X0.050000X-0.387500X0.050000X0*%
%ADD24RoundRect,0.050000X-0.050000X-0.387500X0.050000X-0.387500X0.050000X0.387500X-0.050000X0.387500X0*%
%ADD25R,3.200000X3.200000*%
%ADD26RoundRect,0.100000X0.100000X-0.130000X0.100000X0.130000X-0.100000X0.130000X-0.100000X-0.130000X0*%
%ADD27R,3.200000X1.600000*%
%ADD28O,1.700000X1.600000*%
%ADD29R,1.150000X1.000000*%
%ADD30RoundRect,0.014000X0.161000X-0.231000X0.161000X0.231000X-0.161000X0.231000X-0.161000X-0.231000X0*%
%ADD31R,1.600000X0.200000*%
G04 APERTURE END LIST*
D10*
%TO.C,R3*%
X94440000Y-52150000D03*
X95080000Y-52150000D03*
%TD*%
D11*
%TO.C,J4*%
X88325000Y-89125000D03*
D12*
X90865000Y-89125000D03*
X93405000Y-89125000D03*
%TD*%
D13*
%TO.C,J1*%
X91730000Y-44580000D03*
X91080000Y-44580000D03*
X90430000Y-44580000D03*
X89780000Y-44580000D03*
X89130000Y-44580000D03*
D14*
X93380000Y-43380000D03*
D15*
X93280000Y-44680000D03*
D16*
X93160000Y-42630000D03*
D17*
X93160000Y-41700000D03*
D18*
X92850000Y-44700000D03*
D19*
X91390000Y-41430000D03*
X89470000Y-41430000D03*
D18*
X88010000Y-44700000D03*
D17*
X87700000Y-41700000D03*
D16*
X87680000Y-42630000D03*
D15*
X87530000Y-44700000D03*
D14*
X87430000Y-43380000D03*
%TD*%
D20*
%TO.C,C3*%
X93950000Y-67475000D03*
X93950000Y-68115000D03*
%TD*%
D21*
%TO.C,S1*%
X88650000Y-51000000D03*
X88650000Y-46500000D03*
X86500000Y-51000000D03*
X86500000Y-46500000D03*
%TD*%
D22*
%TO.C,U2*%
X96350000Y-48375000D03*
X95400000Y-48375000D03*
X94450000Y-48375000D03*
X94450000Y-50650000D03*
X96350000Y-50650000D03*
%TD*%
D23*
%TO.C,U1*%
X86825000Y-58100000D03*
X86825000Y-58500000D03*
X86825000Y-58900000D03*
X86825000Y-59300000D03*
X86825000Y-59700000D03*
X86825000Y-60100000D03*
X86825000Y-60500000D03*
X86825000Y-60900000D03*
X86825000Y-61300000D03*
X86825000Y-61700000D03*
X86825000Y-62100000D03*
X86825000Y-62500000D03*
X86825000Y-62900000D03*
X86825000Y-63300000D03*
D24*
X87662500Y-64137500D03*
X88062500Y-64137500D03*
X88462500Y-64137500D03*
X88862500Y-64137500D03*
X89262500Y-64137500D03*
X89662500Y-64137500D03*
X90062500Y-64137500D03*
X90462500Y-64137500D03*
X90862500Y-64137500D03*
X91262500Y-64137500D03*
X91662500Y-64137500D03*
X92062500Y-64137500D03*
X92462500Y-64137500D03*
X92862500Y-64137500D03*
D23*
X93700000Y-63300000D03*
X93700000Y-62900000D03*
X93700000Y-62500000D03*
X93700000Y-62100000D03*
X93700000Y-61700000D03*
X93700000Y-61300000D03*
X93700000Y-60900000D03*
X93700000Y-60500000D03*
X93700000Y-60100000D03*
X93700000Y-59700000D03*
X93700000Y-59300000D03*
X93700000Y-58900000D03*
X93700000Y-58500000D03*
X93700000Y-58100000D03*
D24*
X92862500Y-57262500D03*
X92462500Y-57262500D03*
X92062500Y-57262500D03*
X91662500Y-57262500D03*
X91262500Y-57262500D03*
X90862500Y-57262500D03*
X90462500Y-57262500D03*
X90062500Y-57262500D03*
X89662500Y-57262500D03*
X89262500Y-57262500D03*
X88862500Y-57262500D03*
X88462500Y-57262500D03*
X88062500Y-57262500D03*
X87662500Y-57262500D03*
D25*
X90262500Y-60700000D03*
%TD*%
D26*
%TO.C,C1*%
X90400000Y-55240000D03*
X90400000Y-54600000D03*
%TD*%
D20*
%TO.C,R5*%
X85050000Y-48780000D03*
X85050000Y-49420000D03*
%TD*%
D27*
%TO.C,J2*%
X79990000Y-41300000D03*
D28*
X81600000Y-41300000D03*
D27*
X79990000Y-43840000D03*
D28*
X81600000Y-43840000D03*
D27*
X79990000Y-46380000D03*
D28*
X81600000Y-46380000D03*
D27*
X79990000Y-48920000D03*
D28*
X81600000Y-48920000D03*
D27*
X79990000Y-51460000D03*
D28*
X81600000Y-51460000D03*
D27*
X79990000Y-54000000D03*
D28*
X81600000Y-54000000D03*
D27*
X79990000Y-56540000D03*
D28*
X81600000Y-56540000D03*
D27*
X79990000Y-59080000D03*
D28*
X81600000Y-59080000D03*
D27*
X79990000Y-61620000D03*
D28*
X81600000Y-61620000D03*
D27*
X79990000Y-64160000D03*
D28*
X81600000Y-64160000D03*
D27*
X79990000Y-66700000D03*
D28*
X81600000Y-66700000D03*
D27*
X79990000Y-69240000D03*
D28*
X81600000Y-69240000D03*
D27*
X79990000Y-71780000D03*
D28*
X81600000Y-71780000D03*
D27*
X79990000Y-74320000D03*
D28*
X81600000Y-74320000D03*
D27*
X79990000Y-76860000D03*
D28*
X81600000Y-76860000D03*
D27*
X79990000Y-79400000D03*
D28*
X81600000Y-79400000D03*
D27*
X79990000Y-81940000D03*
D28*
X81600000Y-81940000D03*
D27*
X79990000Y-84480000D03*
D28*
X81600000Y-84480000D03*
D27*
X79990000Y-87020000D03*
D28*
X81600000Y-87020000D03*
D27*
X79990000Y-89560000D03*
D28*
X81600000Y-89560000D03*
%TD*%
D20*
%TO.C,R1*%
X91475000Y-54630000D03*
X91475000Y-55270000D03*
%TD*%
D29*
%TO.C,Y1*%
X89600000Y-69400000D03*
X91350000Y-69400000D03*
X91350000Y-68000000D03*
X89600000Y-68000000D03*
%TD*%
D20*
%TO.C,C2*%
X92700000Y-66475000D03*
X92700000Y-67115000D03*
%TD*%
D10*
%TO.C,C10*%
X95710000Y-55450000D03*
X96350000Y-55450000D03*
%TD*%
%TO.C,C11*%
X95715000Y-56300000D03*
X96355000Y-56300000D03*
%TD*%
%TO.C,C9*%
X95710000Y-54600000D03*
X96350000Y-54600000D03*
%TD*%
D20*
%TO.C,R2*%
X92525000Y-54635000D03*
X92525000Y-55275000D03*
%TD*%
D10*
%TO.C,C6*%
X94060000Y-54600000D03*
X94700000Y-54600000D03*
%TD*%
D26*
%TO.C,C15*%
X88100000Y-69665000D03*
X88100000Y-69025000D03*
%TD*%
D10*
%TO.C,C5*%
X94060000Y-53775000D03*
X94700000Y-53775000D03*
%TD*%
%TO.C,C8*%
X95710000Y-53750000D03*
X96350000Y-53750000D03*
%TD*%
D20*
%TO.C,D2*%
X85025000Y-42422500D03*
X85025000Y-43062500D03*
%TD*%
D26*
%TO.C,C12*%
X95375000Y-45050000D03*
X95375000Y-44410000D03*
%TD*%
D20*
%TO.C,D1*%
X95475000Y-41747500D03*
X95475000Y-42387500D03*
%TD*%
D26*
%TO.C,R4*%
X93200000Y-51625000D03*
X93200000Y-50985000D03*
%TD*%
D20*
%TO.C,C14*%
X92950000Y-68430000D03*
X92950000Y-69070000D03*
%TD*%
D10*
%TO.C,C13*%
X96410000Y-52850000D03*
X97050000Y-52850000D03*
%TD*%
D20*
%TO.C,R6*%
X85450000Y-54230000D03*
X85450000Y-54870000D03*
%TD*%
D30*
%TO.C,U3*%
X86600000Y-55450000D03*
X87100000Y-55450000D03*
X87600000Y-55450000D03*
X88100000Y-55450000D03*
X88100000Y-53010000D03*
X87600000Y-53010000D03*
X87100000Y-53010000D03*
X86600000Y-53010000D03*
D31*
X87350000Y-54230000D03*
%TD*%
D10*
%TO.C,C7*%
X94060000Y-55450000D03*
X94700000Y-55450000D03*
%TD*%
D26*
%TO.C,C4*%
X85650000Y-56665000D03*
X85650000Y-56025000D03*
%TD*%
D27*
%TO.C,J3*%
X101010000Y-41300000D03*
D28*
X99400000Y-41300000D03*
D27*
X101010000Y-43840000D03*
D28*
X99400000Y-43840000D03*
D27*
X101010000Y-46380000D03*
D28*
X99400000Y-46380000D03*
D27*
X101010000Y-48920000D03*
D28*
X99400000Y-48920000D03*
D27*
X101010000Y-51460000D03*
D28*
X99400000Y-51460000D03*
D27*
X101010000Y-54000000D03*
D28*
X99400000Y-54000000D03*
D27*
X101010000Y-56540000D03*
D28*
X99400000Y-56540000D03*
D27*
X101010000Y-59080000D03*
D28*
X99400000Y-59080000D03*
D27*
X101010000Y-61620000D03*
D28*
X99400000Y-61620000D03*
D27*
X101010000Y-64160000D03*
D28*
X99400000Y-64160000D03*
D27*
X101010000Y-66700000D03*
D28*
X99400000Y-66700000D03*
D27*
X101010000Y-69240000D03*
D28*
X99400000Y-69240000D03*
D27*
X101010000Y-71780000D03*
D28*
X99400000Y-71780000D03*
D27*
X101010000Y-74320000D03*
D28*
X99400000Y-74320000D03*
D27*
X101010000Y-76860000D03*
D28*
X99400000Y-76860000D03*
D27*
X101010000Y-79400000D03*
D28*
X99400000Y-79400000D03*
D27*
X101010000Y-81940000D03*
D28*
X99400000Y-81940000D03*
D27*
X101010000Y-84480000D03*
D28*
X99400000Y-84480000D03*
D27*
X101010000Y-87020000D03*
D28*
X99400000Y-87020000D03*
D27*
X101010000Y-89560000D03*
D28*
X99400000Y-89560000D03*
%TD*%
M02*
