%TF.GenerationSoftware,KiCad,Pcbnew,7.0.6*%
%TF.CreationDate,2023-08-11T11:38:21+07:00*%
%TF.ProjectId,Pico2040-Modular-Rev2,5069636f-3230-4343-902d-4d6f64756c61,rev?*%
%TF.SameCoordinates,Original*%
%TF.FileFunction,Legend,Bot*%
%TF.FilePolarity,Positive*%
%FSLAX46Y46*%
G04 Gerber Fmt 4.6, Leading zero omitted, Abs format (unit mm)*
G04 Created by KiCad (PCBNEW 7.0.6) date 2023-08-11 11:38:21*
%MOMM*%
%LPD*%
G01*
G04 APERTURE LIST*
%ADD10C,0.160000*%
%ADD11C,0.150000*%
%ADD12C,0.120000*%
G04 APERTURE END LIST*
D10*
X93049999Y-63512346D02*
X92783332Y-63512346D01*
X92949999Y-63279013D02*
X92949999Y-63879013D01*
X92949999Y-63879013D02*
X92916666Y-63945680D01*
X92916666Y-63945680D02*
X92849999Y-63979013D01*
X92849999Y-63979013D02*
X92783332Y-63979013D01*
X92549999Y-63979013D02*
X92549999Y-63279013D01*
X92249999Y-63979013D02*
X92249999Y-63612346D01*
X92249999Y-63612346D02*
X92283332Y-63545680D01*
X92283332Y-63545680D02*
X92349999Y-63512346D01*
X92349999Y-63512346D02*
X92449999Y-63512346D01*
X92449999Y-63512346D02*
X92516666Y-63545680D01*
X92516666Y-63545680D02*
X92549999Y-63579013D01*
X91616666Y-63979013D02*
X91616666Y-63612346D01*
X91616666Y-63612346D02*
X91649999Y-63545680D01*
X91649999Y-63545680D02*
X91716666Y-63512346D01*
X91716666Y-63512346D02*
X91849999Y-63512346D01*
X91849999Y-63512346D02*
X91916666Y-63545680D01*
X91616666Y-63945680D02*
X91683333Y-63979013D01*
X91683333Y-63979013D02*
X91849999Y-63979013D01*
X91849999Y-63979013D02*
X91916666Y-63945680D01*
X91916666Y-63945680D02*
X91949999Y-63879013D01*
X91949999Y-63879013D02*
X91949999Y-63812346D01*
X91949999Y-63812346D02*
X91916666Y-63745680D01*
X91916666Y-63745680D02*
X91849999Y-63712346D01*
X91849999Y-63712346D02*
X91683333Y-63712346D01*
X91683333Y-63712346D02*
X91616666Y-63679013D01*
X91283333Y-63512346D02*
X91283333Y-63979013D01*
X91283333Y-63579013D02*
X91250000Y-63545680D01*
X91250000Y-63545680D02*
X91183333Y-63512346D01*
X91183333Y-63512346D02*
X91083333Y-63512346D01*
X91083333Y-63512346D02*
X91016666Y-63545680D01*
X91016666Y-63545680D02*
X90983333Y-63612346D01*
X90983333Y-63612346D02*
X90983333Y-63979013D01*
X90650000Y-63979013D02*
X90650000Y-63279013D01*
X90583333Y-63712346D02*
X90383333Y-63979013D01*
X90383333Y-63512346D02*
X90650000Y-63779013D01*
X90116666Y-63945680D02*
X90050000Y-63979013D01*
X90050000Y-63979013D02*
X89916666Y-63979013D01*
X89916666Y-63979013D02*
X89850000Y-63945680D01*
X89850000Y-63945680D02*
X89816666Y-63879013D01*
X89816666Y-63879013D02*
X89816666Y-63845680D01*
X89816666Y-63845680D02*
X89850000Y-63779013D01*
X89850000Y-63779013D02*
X89916666Y-63745680D01*
X89916666Y-63745680D02*
X90016666Y-63745680D01*
X90016666Y-63745680D02*
X90083333Y-63712346D01*
X90083333Y-63712346D02*
X90116666Y-63645680D01*
X90116666Y-63645680D02*
X90116666Y-63612346D01*
X90116666Y-63612346D02*
X90083333Y-63545680D01*
X90083333Y-63545680D02*
X90016666Y-63512346D01*
X90016666Y-63512346D02*
X89916666Y-63512346D01*
X89916666Y-63512346D02*
X89850000Y-63545680D01*
X89083333Y-63512346D02*
X88816666Y-63512346D01*
X88983333Y-63979013D02*
X88983333Y-63379013D01*
X88983333Y-63379013D02*
X88950000Y-63312346D01*
X88950000Y-63312346D02*
X88883333Y-63279013D01*
X88883333Y-63279013D02*
X88816666Y-63279013D01*
X88483333Y-63979013D02*
X88550000Y-63945680D01*
X88550000Y-63945680D02*
X88583333Y-63912346D01*
X88583333Y-63912346D02*
X88616666Y-63845680D01*
X88616666Y-63845680D02*
X88616666Y-63645680D01*
X88616666Y-63645680D02*
X88583333Y-63579013D01*
X88583333Y-63579013D02*
X88550000Y-63545680D01*
X88550000Y-63545680D02*
X88483333Y-63512346D01*
X88483333Y-63512346D02*
X88383333Y-63512346D01*
X88383333Y-63512346D02*
X88316666Y-63545680D01*
X88316666Y-63545680D02*
X88283333Y-63579013D01*
X88283333Y-63579013D02*
X88250000Y-63645680D01*
X88250000Y-63645680D02*
X88250000Y-63845680D01*
X88250000Y-63845680D02*
X88283333Y-63912346D01*
X88283333Y-63912346D02*
X88316666Y-63945680D01*
X88316666Y-63945680D02*
X88383333Y-63979013D01*
X88383333Y-63979013D02*
X88483333Y-63979013D01*
X87950000Y-63979013D02*
X87950000Y-63512346D01*
X87950000Y-63645680D02*
X87916667Y-63579013D01*
X87916667Y-63579013D02*
X87883333Y-63545680D01*
X87883333Y-63545680D02*
X87816667Y-63512346D01*
X87816667Y-63512346D02*
X87750000Y-63512346D01*
X94566664Y-65106013D02*
X94566664Y-64406013D01*
X94566664Y-64672680D02*
X94499997Y-64639346D01*
X94499997Y-64639346D02*
X94366664Y-64639346D01*
X94366664Y-64639346D02*
X94299997Y-64672680D01*
X94299997Y-64672680D02*
X94266664Y-64706013D01*
X94266664Y-64706013D02*
X94233331Y-64772680D01*
X94233331Y-64772680D02*
X94233331Y-64972680D01*
X94233331Y-64972680D02*
X94266664Y-65039346D01*
X94266664Y-65039346D02*
X94299997Y-65072680D01*
X94299997Y-65072680D02*
X94366664Y-65106013D01*
X94366664Y-65106013D02*
X94499997Y-65106013D01*
X94499997Y-65106013D02*
X94566664Y-65072680D01*
X93633331Y-64639346D02*
X93633331Y-65106013D01*
X93933331Y-64639346D02*
X93933331Y-65006013D01*
X93933331Y-65006013D02*
X93899998Y-65072680D01*
X93899998Y-65072680D02*
X93833331Y-65106013D01*
X93833331Y-65106013D02*
X93733331Y-65106013D01*
X93733331Y-65106013D02*
X93666664Y-65072680D01*
X93666664Y-65072680D02*
X93633331Y-65039346D01*
X93366665Y-64639346D02*
X93199998Y-65106013D01*
X93033331Y-64639346D02*
X93199998Y-65106013D01*
X93199998Y-65106013D02*
X93266665Y-65272680D01*
X93266665Y-65272680D02*
X93299998Y-65306013D01*
X93299998Y-65306013D02*
X93366665Y-65339346D01*
X92766665Y-65106013D02*
X92766665Y-64639346D01*
X92766665Y-64406013D02*
X92799998Y-64439346D01*
X92799998Y-64439346D02*
X92766665Y-64472680D01*
X92766665Y-64472680D02*
X92733332Y-64439346D01*
X92733332Y-64439346D02*
X92766665Y-64406013D01*
X92766665Y-64406013D02*
X92766665Y-64472680D01*
X92433332Y-64639346D02*
X92433332Y-65106013D01*
X92433332Y-64706013D02*
X92399999Y-64672680D01*
X92399999Y-64672680D02*
X92333332Y-64639346D01*
X92333332Y-64639346D02*
X92233332Y-64639346D01*
X92233332Y-64639346D02*
X92166665Y-64672680D01*
X92166665Y-64672680D02*
X92133332Y-64739346D01*
X92133332Y-64739346D02*
X92133332Y-65106013D01*
X91499999Y-64639346D02*
X91499999Y-65206013D01*
X91499999Y-65206013D02*
X91533332Y-65272680D01*
X91533332Y-65272680D02*
X91566666Y-65306013D01*
X91566666Y-65306013D02*
X91633332Y-65339346D01*
X91633332Y-65339346D02*
X91733332Y-65339346D01*
X91733332Y-65339346D02*
X91799999Y-65306013D01*
X91499999Y-65072680D02*
X91566666Y-65106013D01*
X91566666Y-65106013D02*
X91699999Y-65106013D01*
X91699999Y-65106013D02*
X91766666Y-65072680D01*
X91766666Y-65072680D02*
X91799999Y-65039346D01*
X91799999Y-65039346D02*
X91833332Y-64972680D01*
X91833332Y-64972680D02*
X91833332Y-64772680D01*
X91833332Y-64772680D02*
X91799999Y-64706013D01*
X91799999Y-64706013D02*
X91766666Y-64672680D01*
X91766666Y-64672680D02*
X91699999Y-64639346D01*
X91699999Y-64639346D02*
X91566666Y-64639346D01*
X91566666Y-64639346D02*
X91499999Y-64672680D01*
X90633333Y-65106013D02*
X90633333Y-64639346D01*
X90633333Y-64706013D02*
X90600000Y-64672680D01*
X90600000Y-64672680D02*
X90533333Y-64639346D01*
X90533333Y-64639346D02*
X90433333Y-64639346D01*
X90433333Y-64639346D02*
X90366666Y-64672680D01*
X90366666Y-64672680D02*
X90333333Y-64739346D01*
X90333333Y-64739346D02*
X90333333Y-65106013D01*
X90333333Y-64739346D02*
X90300000Y-64672680D01*
X90300000Y-64672680D02*
X90233333Y-64639346D01*
X90233333Y-64639346D02*
X90133333Y-64639346D01*
X90133333Y-64639346D02*
X90066666Y-64672680D01*
X90066666Y-64672680D02*
X90033333Y-64739346D01*
X90033333Y-64739346D02*
X90033333Y-65106013D01*
X89766667Y-64639346D02*
X89600000Y-65106013D01*
X89433333Y-64639346D02*
X89600000Y-65106013D01*
X89600000Y-65106013D02*
X89666667Y-65272680D01*
X89666667Y-65272680D02*
X89700000Y-65306013D01*
X89700000Y-65306013D02*
X89766667Y-65339346D01*
X88666667Y-65072680D02*
X88600001Y-65106013D01*
X88600001Y-65106013D02*
X88466667Y-65106013D01*
X88466667Y-65106013D02*
X88400001Y-65072680D01*
X88400001Y-65072680D02*
X88366667Y-65006013D01*
X88366667Y-65006013D02*
X88366667Y-64972680D01*
X88366667Y-64972680D02*
X88400001Y-64906013D01*
X88400001Y-64906013D02*
X88466667Y-64872680D01*
X88466667Y-64872680D02*
X88566667Y-64872680D01*
X88566667Y-64872680D02*
X88633334Y-64839346D01*
X88633334Y-64839346D02*
X88666667Y-64772680D01*
X88666667Y-64772680D02*
X88666667Y-64739346D01*
X88666667Y-64739346D02*
X88633334Y-64672680D01*
X88633334Y-64672680D02*
X88566667Y-64639346D01*
X88566667Y-64639346D02*
X88466667Y-64639346D01*
X88466667Y-64639346D02*
X88400001Y-64672680D01*
X88166667Y-64639346D02*
X87900000Y-64639346D01*
X88066667Y-64406013D02*
X88066667Y-65006013D01*
X88066667Y-65006013D02*
X88033334Y-65072680D01*
X88033334Y-65072680D02*
X87966667Y-65106013D01*
X87966667Y-65106013D02*
X87900000Y-65106013D01*
X87366667Y-64639346D02*
X87366667Y-65106013D01*
X87666667Y-64639346D02*
X87666667Y-65006013D01*
X87666667Y-65006013D02*
X87633334Y-65072680D01*
X87633334Y-65072680D02*
X87566667Y-65106013D01*
X87566667Y-65106013D02*
X87466667Y-65106013D01*
X87466667Y-65106013D02*
X87400000Y-65072680D01*
X87400000Y-65072680D02*
X87366667Y-65039346D01*
X87133334Y-64639346D02*
X86866667Y-64639346D01*
X87033334Y-65106013D02*
X87033334Y-64506013D01*
X87033334Y-64506013D02*
X87000001Y-64439346D01*
X87000001Y-64439346D02*
X86933334Y-64406013D01*
X86933334Y-64406013D02*
X86866667Y-64406013D01*
X86733334Y-64639346D02*
X86466667Y-64639346D01*
X86633334Y-65106013D02*
X86633334Y-64506013D01*
X86633334Y-64506013D02*
X86600001Y-64439346D01*
X86600001Y-64439346D02*
X86533334Y-64406013D01*
X86533334Y-64406013D02*
X86466667Y-64406013D01*
X86233334Y-65039346D02*
X86200001Y-65072680D01*
X86200001Y-65072680D02*
X86233334Y-65106013D01*
X86233334Y-65106013D02*
X86266667Y-65072680D01*
X86266667Y-65072680D02*
X86233334Y-65039346D01*
X86233334Y-65039346D02*
X86233334Y-65106013D01*
X86233334Y-64839346D02*
X86266667Y-64439346D01*
X86266667Y-64439346D02*
X86233334Y-64406013D01*
X86233334Y-64406013D02*
X86200001Y-64439346D01*
X86200001Y-64439346D02*
X86233334Y-64839346D01*
X86233334Y-64839346D02*
X86233334Y-64406013D01*
D11*
X97434649Y-82306533D02*
X97434649Y-81606533D01*
X97434649Y-81606533D02*
X97167982Y-81606533D01*
X97167982Y-81606533D02*
X97101316Y-81639866D01*
X97101316Y-81639866D02*
X97067982Y-81673200D01*
X97067982Y-81673200D02*
X97034649Y-81739866D01*
X97034649Y-81739866D02*
X97034649Y-81839866D01*
X97034649Y-81839866D02*
X97067982Y-81906533D01*
X97067982Y-81906533D02*
X97101316Y-81939866D01*
X97101316Y-81939866D02*
X97167982Y-81973200D01*
X97167982Y-81973200D02*
X97434649Y-81973200D01*
X96367982Y-82306533D02*
X96767982Y-82306533D01*
X96567982Y-82306533D02*
X96567982Y-81606533D01*
X96567982Y-81606533D02*
X96634649Y-81706533D01*
X96634649Y-81706533D02*
X96701316Y-81773200D01*
X96701316Y-81773200D02*
X96767982Y-81806533D01*
X95967982Y-81906533D02*
X96034649Y-81873200D01*
X96034649Y-81873200D02*
X96067982Y-81839866D01*
X96067982Y-81839866D02*
X96101315Y-81773200D01*
X96101315Y-81773200D02*
X96101315Y-81739866D01*
X96101315Y-81739866D02*
X96067982Y-81673200D01*
X96067982Y-81673200D02*
X96034649Y-81639866D01*
X96034649Y-81639866D02*
X95967982Y-81606533D01*
X95967982Y-81606533D02*
X95834649Y-81606533D01*
X95834649Y-81606533D02*
X95767982Y-81639866D01*
X95767982Y-81639866D02*
X95734649Y-81673200D01*
X95734649Y-81673200D02*
X95701315Y-81739866D01*
X95701315Y-81739866D02*
X95701315Y-81773200D01*
X95701315Y-81773200D02*
X95734649Y-81839866D01*
X95734649Y-81839866D02*
X95767982Y-81873200D01*
X95767982Y-81873200D02*
X95834649Y-81906533D01*
X95834649Y-81906533D02*
X95967982Y-81906533D01*
X95967982Y-81906533D02*
X96034649Y-81939866D01*
X96034649Y-81939866D02*
X96067982Y-81973200D01*
X96067982Y-81973200D02*
X96101315Y-82039866D01*
X96101315Y-82039866D02*
X96101315Y-82173200D01*
X96101315Y-82173200D02*
X96067982Y-82239866D01*
X96067982Y-82239866D02*
X96034649Y-82273200D01*
X96034649Y-82273200D02*
X95967982Y-82306533D01*
X95967982Y-82306533D02*
X95834649Y-82306533D01*
X95834649Y-82306533D02*
X95767982Y-82273200D01*
X95767982Y-82273200D02*
X95734649Y-82239866D01*
X95734649Y-82239866D02*
X95701315Y-82173200D01*
X95701315Y-82173200D02*
X95701315Y-82039866D01*
X95701315Y-82039866D02*
X95734649Y-81973200D01*
X95734649Y-81973200D02*
X95767982Y-81939866D01*
X95767982Y-81939866D02*
X95834649Y-81906533D01*
X84967982Y-84139866D02*
X85034649Y-84106533D01*
X85034649Y-84106533D02*
X85134649Y-84106533D01*
X85134649Y-84106533D02*
X85234649Y-84139866D01*
X85234649Y-84139866D02*
X85301316Y-84206533D01*
X85301316Y-84206533D02*
X85334649Y-84273200D01*
X85334649Y-84273200D02*
X85367982Y-84406533D01*
X85367982Y-84406533D02*
X85367982Y-84506533D01*
X85367982Y-84506533D02*
X85334649Y-84639866D01*
X85334649Y-84639866D02*
X85301316Y-84706533D01*
X85301316Y-84706533D02*
X85234649Y-84773200D01*
X85234649Y-84773200D02*
X85134649Y-84806533D01*
X85134649Y-84806533D02*
X85067982Y-84806533D01*
X85067982Y-84806533D02*
X84967982Y-84773200D01*
X84967982Y-84773200D02*
X84934649Y-84739866D01*
X84934649Y-84739866D02*
X84934649Y-84506533D01*
X84934649Y-84506533D02*
X85067982Y-84506533D01*
X84634649Y-84806533D02*
X84634649Y-84106533D01*
X84634649Y-84106533D02*
X84234649Y-84806533D01*
X84234649Y-84806533D02*
X84234649Y-84106533D01*
X83901316Y-84806533D02*
X83901316Y-84106533D01*
X83901316Y-84106533D02*
X83734649Y-84106533D01*
X83734649Y-84106533D02*
X83634649Y-84139866D01*
X83634649Y-84139866D02*
X83567983Y-84206533D01*
X83567983Y-84206533D02*
X83534649Y-84273200D01*
X83534649Y-84273200D02*
X83501316Y-84406533D01*
X83501316Y-84406533D02*
X83501316Y-84506533D01*
X83501316Y-84506533D02*
X83534649Y-84639866D01*
X83534649Y-84639866D02*
X83567983Y-84706533D01*
X83567983Y-84706533D02*
X83634649Y-84773200D01*
X83634649Y-84773200D02*
X83734649Y-84806533D01*
X83734649Y-84806533D02*
X83901316Y-84806533D01*
X96967982Y-46039866D02*
X97034649Y-46006533D01*
X97034649Y-46006533D02*
X97134649Y-46006533D01*
X97134649Y-46006533D02*
X97234649Y-46039866D01*
X97234649Y-46039866D02*
X97301316Y-46106533D01*
X97301316Y-46106533D02*
X97334649Y-46173200D01*
X97334649Y-46173200D02*
X97367982Y-46306533D01*
X97367982Y-46306533D02*
X97367982Y-46406533D01*
X97367982Y-46406533D02*
X97334649Y-46539866D01*
X97334649Y-46539866D02*
X97301316Y-46606533D01*
X97301316Y-46606533D02*
X97234649Y-46673200D01*
X97234649Y-46673200D02*
X97134649Y-46706533D01*
X97134649Y-46706533D02*
X97067982Y-46706533D01*
X97067982Y-46706533D02*
X96967982Y-46673200D01*
X96967982Y-46673200D02*
X96934649Y-46639866D01*
X96934649Y-46639866D02*
X96934649Y-46406533D01*
X96934649Y-46406533D02*
X97067982Y-46406533D01*
X96634649Y-46706533D02*
X96634649Y-46006533D01*
X96634649Y-46006533D02*
X96234649Y-46706533D01*
X96234649Y-46706533D02*
X96234649Y-46006533D01*
X95901316Y-46706533D02*
X95901316Y-46006533D01*
X95901316Y-46006533D02*
X95734649Y-46006533D01*
X95734649Y-46006533D02*
X95634649Y-46039866D01*
X95634649Y-46039866D02*
X95567983Y-46106533D01*
X95567983Y-46106533D02*
X95534649Y-46173200D01*
X95534649Y-46173200D02*
X95501316Y-46306533D01*
X95501316Y-46306533D02*
X95501316Y-46406533D01*
X95501316Y-46406533D02*
X95534649Y-46539866D01*
X95534649Y-46539866D02*
X95567983Y-46606533D01*
X95567983Y-46606533D02*
X95634649Y-46673200D01*
X95634649Y-46673200D02*
X95734649Y-46706533D01*
X95734649Y-46706533D02*
X95901316Y-46706533D01*
X84534649Y-69606533D02*
X84534649Y-68906533D01*
X84534649Y-68906533D02*
X84267982Y-68906533D01*
X84267982Y-68906533D02*
X84201316Y-68939866D01*
X84201316Y-68939866D02*
X84167982Y-68973200D01*
X84167982Y-68973200D02*
X84134649Y-69039866D01*
X84134649Y-69039866D02*
X84134649Y-69139866D01*
X84134649Y-69139866D02*
X84167982Y-69206533D01*
X84167982Y-69206533D02*
X84201316Y-69239866D01*
X84201316Y-69239866D02*
X84267982Y-69273200D01*
X84267982Y-69273200D02*
X84534649Y-69273200D01*
X83801316Y-69606533D02*
X83667982Y-69606533D01*
X83667982Y-69606533D02*
X83601316Y-69573200D01*
X83601316Y-69573200D02*
X83567982Y-69539866D01*
X83567982Y-69539866D02*
X83501316Y-69439866D01*
X83501316Y-69439866D02*
X83467982Y-69306533D01*
X83467982Y-69306533D02*
X83467982Y-69039866D01*
X83467982Y-69039866D02*
X83501316Y-68973200D01*
X83501316Y-68973200D02*
X83534649Y-68939866D01*
X83534649Y-68939866D02*
X83601316Y-68906533D01*
X83601316Y-68906533D02*
X83734649Y-68906533D01*
X83734649Y-68906533D02*
X83801316Y-68939866D01*
X83801316Y-68939866D02*
X83834649Y-68973200D01*
X83834649Y-68973200D02*
X83867982Y-69039866D01*
X83867982Y-69039866D02*
X83867982Y-69206533D01*
X83867982Y-69206533D02*
X83834649Y-69273200D01*
X83834649Y-69273200D02*
X83801316Y-69306533D01*
X83801316Y-69306533D02*
X83734649Y-69339866D01*
X83734649Y-69339866D02*
X83601316Y-69339866D01*
X83601316Y-69339866D02*
X83534649Y-69306533D01*
X83534649Y-69306533D02*
X83501316Y-69273200D01*
X83501316Y-69273200D02*
X83467982Y-69206533D01*
X85234649Y-77206533D02*
X85234649Y-76506533D01*
X85234649Y-76506533D02*
X84967982Y-76506533D01*
X84967982Y-76506533D02*
X84901316Y-76539866D01*
X84901316Y-76539866D02*
X84867982Y-76573200D01*
X84867982Y-76573200D02*
X84834649Y-76639866D01*
X84834649Y-76639866D02*
X84834649Y-76739866D01*
X84834649Y-76739866D02*
X84867982Y-76806533D01*
X84867982Y-76806533D02*
X84901316Y-76839866D01*
X84901316Y-76839866D02*
X84967982Y-76873200D01*
X84967982Y-76873200D02*
X85234649Y-76873200D01*
X84167982Y-77206533D02*
X84567982Y-77206533D01*
X84367982Y-77206533D02*
X84367982Y-76506533D01*
X84367982Y-76506533D02*
X84434649Y-76606533D01*
X84434649Y-76606533D02*
X84501316Y-76673200D01*
X84501316Y-76673200D02*
X84567982Y-76706533D01*
X83501315Y-77206533D02*
X83901315Y-77206533D01*
X83701315Y-77206533D02*
X83701315Y-76506533D01*
X83701315Y-76506533D02*
X83767982Y-76606533D01*
X83767982Y-76606533D02*
X83834649Y-76673200D01*
X83834649Y-76673200D02*
X83901315Y-76706533D01*
X85234649Y-87306533D02*
X85234649Y-86606533D01*
X85234649Y-86606533D02*
X84967982Y-86606533D01*
X84967982Y-86606533D02*
X84901316Y-86639866D01*
X84901316Y-86639866D02*
X84867982Y-86673200D01*
X84867982Y-86673200D02*
X84834649Y-86739866D01*
X84834649Y-86739866D02*
X84834649Y-86839866D01*
X84834649Y-86839866D02*
X84867982Y-86906533D01*
X84867982Y-86906533D02*
X84901316Y-86939866D01*
X84901316Y-86939866D02*
X84967982Y-86973200D01*
X84967982Y-86973200D02*
X85234649Y-86973200D01*
X84167982Y-87306533D02*
X84567982Y-87306533D01*
X84367982Y-87306533D02*
X84367982Y-86606533D01*
X84367982Y-86606533D02*
X84434649Y-86706533D01*
X84434649Y-86706533D02*
X84501316Y-86773200D01*
X84501316Y-86773200D02*
X84567982Y-86806533D01*
X83567982Y-86839866D02*
X83567982Y-87306533D01*
X83734649Y-86573200D02*
X83901315Y-87073200D01*
X83901315Y-87073200D02*
X83467982Y-87073200D01*
X84434649Y-56906533D02*
X84434649Y-56206533D01*
X84434649Y-56206533D02*
X84167982Y-56206533D01*
X84167982Y-56206533D02*
X84101316Y-56239866D01*
X84101316Y-56239866D02*
X84067982Y-56273200D01*
X84067982Y-56273200D02*
X84034649Y-56339866D01*
X84034649Y-56339866D02*
X84034649Y-56439866D01*
X84034649Y-56439866D02*
X84067982Y-56506533D01*
X84067982Y-56506533D02*
X84101316Y-56539866D01*
X84101316Y-56539866D02*
X84167982Y-56573200D01*
X84167982Y-56573200D02*
X84434649Y-56573200D01*
X83401316Y-56206533D02*
X83734649Y-56206533D01*
X83734649Y-56206533D02*
X83767982Y-56539866D01*
X83767982Y-56539866D02*
X83734649Y-56506533D01*
X83734649Y-56506533D02*
X83667982Y-56473200D01*
X83667982Y-56473200D02*
X83501316Y-56473200D01*
X83501316Y-56473200D02*
X83434649Y-56506533D01*
X83434649Y-56506533D02*
X83401316Y-56539866D01*
X83401316Y-56539866D02*
X83367982Y-56606533D01*
X83367982Y-56606533D02*
X83367982Y-56773200D01*
X83367982Y-56773200D02*
X83401316Y-56839866D01*
X83401316Y-56839866D02*
X83434649Y-56873200D01*
X83434649Y-56873200D02*
X83501316Y-56906533D01*
X83501316Y-56906533D02*
X83667982Y-56906533D01*
X83667982Y-56906533D02*
X83734649Y-56873200D01*
X83734649Y-56873200D02*
X83767982Y-56839866D01*
X96934649Y-51906533D02*
X97167982Y-51573200D01*
X97334649Y-51906533D02*
X97334649Y-51206533D01*
X97334649Y-51206533D02*
X97067982Y-51206533D01*
X97067982Y-51206533D02*
X97001316Y-51239866D01*
X97001316Y-51239866D02*
X96967982Y-51273200D01*
X96967982Y-51273200D02*
X96934649Y-51339866D01*
X96934649Y-51339866D02*
X96934649Y-51439866D01*
X96934649Y-51439866D02*
X96967982Y-51506533D01*
X96967982Y-51506533D02*
X97001316Y-51539866D01*
X97001316Y-51539866D02*
X97067982Y-51573200D01*
X97067982Y-51573200D02*
X97334649Y-51573200D01*
X96634649Y-51539866D02*
X96401316Y-51539866D01*
X96301316Y-51906533D02*
X96634649Y-51906533D01*
X96634649Y-51906533D02*
X96634649Y-51206533D01*
X96634649Y-51206533D02*
X96301316Y-51206533D01*
X96034649Y-51873200D02*
X95934649Y-51906533D01*
X95934649Y-51906533D02*
X95767983Y-51906533D01*
X95767983Y-51906533D02*
X95701316Y-51873200D01*
X95701316Y-51873200D02*
X95667983Y-51839866D01*
X95667983Y-51839866D02*
X95634649Y-51773200D01*
X95634649Y-51773200D02*
X95634649Y-51706533D01*
X95634649Y-51706533D02*
X95667983Y-51639866D01*
X95667983Y-51639866D02*
X95701316Y-51606533D01*
X95701316Y-51606533D02*
X95767983Y-51573200D01*
X95767983Y-51573200D02*
X95901316Y-51539866D01*
X95901316Y-51539866D02*
X95967983Y-51506533D01*
X95967983Y-51506533D02*
X96001316Y-51473200D01*
X96001316Y-51473200D02*
X96034649Y-51406533D01*
X96034649Y-51406533D02*
X96034649Y-51339866D01*
X96034649Y-51339866D02*
X96001316Y-51273200D01*
X96001316Y-51273200D02*
X95967983Y-51239866D01*
X95967983Y-51239866D02*
X95901316Y-51206533D01*
X95901316Y-51206533D02*
X95734649Y-51206533D01*
X95734649Y-51206533D02*
X95634649Y-51239866D01*
X95334649Y-51539866D02*
X95101316Y-51539866D01*
X95001316Y-51906533D02*
X95334649Y-51906533D01*
X95334649Y-51906533D02*
X95334649Y-51206533D01*
X95334649Y-51206533D02*
X95001316Y-51206533D01*
X94801316Y-51206533D02*
X94401316Y-51206533D01*
X94601316Y-51906533D02*
X94601316Y-51206533D01*
X84434649Y-54306533D02*
X84434649Y-53606533D01*
X84434649Y-53606533D02*
X84167982Y-53606533D01*
X84167982Y-53606533D02*
X84101316Y-53639866D01*
X84101316Y-53639866D02*
X84067982Y-53673200D01*
X84067982Y-53673200D02*
X84034649Y-53739866D01*
X84034649Y-53739866D02*
X84034649Y-53839866D01*
X84034649Y-53839866D02*
X84067982Y-53906533D01*
X84067982Y-53906533D02*
X84101316Y-53939866D01*
X84101316Y-53939866D02*
X84167982Y-53973200D01*
X84167982Y-53973200D02*
X84434649Y-53973200D01*
X83434649Y-53839866D02*
X83434649Y-54306533D01*
X83601316Y-53573200D02*
X83767982Y-54073200D01*
X83767982Y-54073200D02*
X83334649Y-54073200D01*
X85234649Y-82206533D02*
X85234649Y-81506533D01*
X85234649Y-81506533D02*
X84967982Y-81506533D01*
X84967982Y-81506533D02*
X84901316Y-81539866D01*
X84901316Y-81539866D02*
X84867982Y-81573200D01*
X84867982Y-81573200D02*
X84834649Y-81639866D01*
X84834649Y-81639866D02*
X84834649Y-81739866D01*
X84834649Y-81739866D02*
X84867982Y-81806533D01*
X84867982Y-81806533D02*
X84901316Y-81839866D01*
X84901316Y-81839866D02*
X84967982Y-81873200D01*
X84967982Y-81873200D02*
X85234649Y-81873200D01*
X84167982Y-82206533D02*
X84567982Y-82206533D01*
X84367982Y-82206533D02*
X84367982Y-81506533D01*
X84367982Y-81506533D02*
X84434649Y-81606533D01*
X84434649Y-81606533D02*
X84501316Y-81673200D01*
X84501316Y-81673200D02*
X84567982Y-81706533D01*
X83934649Y-81506533D02*
X83501315Y-81506533D01*
X83501315Y-81506533D02*
X83734649Y-81773200D01*
X83734649Y-81773200D02*
X83634649Y-81773200D01*
X83634649Y-81773200D02*
X83567982Y-81806533D01*
X83567982Y-81806533D02*
X83534649Y-81839866D01*
X83534649Y-81839866D02*
X83501315Y-81906533D01*
X83501315Y-81906533D02*
X83501315Y-82073200D01*
X83501315Y-82073200D02*
X83534649Y-82139866D01*
X83534649Y-82139866D02*
X83567982Y-82173200D01*
X83567982Y-82173200D02*
X83634649Y-82206533D01*
X83634649Y-82206533D02*
X83834649Y-82206533D01*
X83834649Y-82206533D02*
X83901315Y-82173200D01*
X83901315Y-82173200D02*
X83934649Y-82139866D01*
D10*
X92949998Y-74979013D02*
X92949998Y-74512346D01*
X92949998Y-74579013D02*
X92916665Y-74545680D01*
X92916665Y-74545680D02*
X92849998Y-74512346D01*
X92849998Y-74512346D02*
X92749998Y-74512346D01*
X92749998Y-74512346D02*
X92683331Y-74545680D01*
X92683331Y-74545680D02*
X92649998Y-74612346D01*
X92649998Y-74612346D02*
X92649998Y-74979013D01*
X92649998Y-74612346D02*
X92616665Y-74545680D01*
X92616665Y-74545680D02*
X92549998Y-74512346D01*
X92549998Y-74512346D02*
X92449998Y-74512346D01*
X92449998Y-74512346D02*
X92383331Y-74545680D01*
X92383331Y-74545680D02*
X92349998Y-74612346D01*
X92349998Y-74612346D02*
X92349998Y-74979013D01*
X91716665Y-74979013D02*
X91716665Y-74612346D01*
X91716665Y-74612346D02*
X91749998Y-74545680D01*
X91749998Y-74545680D02*
X91816665Y-74512346D01*
X91816665Y-74512346D02*
X91949998Y-74512346D01*
X91949998Y-74512346D02*
X92016665Y-74545680D01*
X91716665Y-74945680D02*
X91783332Y-74979013D01*
X91783332Y-74979013D02*
X91949998Y-74979013D01*
X91949998Y-74979013D02*
X92016665Y-74945680D01*
X92016665Y-74945680D02*
X92049998Y-74879013D01*
X92049998Y-74879013D02*
X92049998Y-74812346D01*
X92049998Y-74812346D02*
X92016665Y-74745680D01*
X92016665Y-74745680D02*
X91949998Y-74712346D01*
X91949998Y-74712346D02*
X91783332Y-74712346D01*
X91783332Y-74712346D02*
X91716665Y-74679013D01*
X91083332Y-74979013D02*
X91083332Y-74279013D01*
X91083332Y-74945680D02*
X91149999Y-74979013D01*
X91149999Y-74979013D02*
X91283332Y-74979013D01*
X91283332Y-74979013D02*
X91349999Y-74945680D01*
X91349999Y-74945680D02*
X91383332Y-74912346D01*
X91383332Y-74912346D02*
X91416665Y-74845680D01*
X91416665Y-74845680D02*
X91416665Y-74645680D01*
X91416665Y-74645680D02*
X91383332Y-74579013D01*
X91383332Y-74579013D02*
X91349999Y-74545680D01*
X91349999Y-74545680D02*
X91283332Y-74512346D01*
X91283332Y-74512346D02*
X91149999Y-74512346D01*
X91149999Y-74512346D02*
X91083332Y-74545680D01*
X90483332Y-74945680D02*
X90549999Y-74979013D01*
X90549999Y-74979013D02*
X90683332Y-74979013D01*
X90683332Y-74979013D02*
X90749999Y-74945680D01*
X90749999Y-74945680D02*
X90783332Y-74879013D01*
X90783332Y-74879013D02*
X90783332Y-74612346D01*
X90783332Y-74612346D02*
X90749999Y-74545680D01*
X90749999Y-74545680D02*
X90683332Y-74512346D01*
X90683332Y-74512346D02*
X90549999Y-74512346D01*
X90549999Y-74512346D02*
X90483332Y-74545680D01*
X90483332Y-74545680D02*
X90449999Y-74612346D01*
X90449999Y-74612346D02*
X90449999Y-74679013D01*
X90449999Y-74679013D02*
X90783332Y-74745680D01*
X89683333Y-74512346D02*
X89549999Y-74979013D01*
X89549999Y-74979013D02*
X89416666Y-74645680D01*
X89416666Y-74645680D02*
X89283333Y-74979013D01*
X89283333Y-74979013D02*
X89149999Y-74512346D01*
X88883333Y-74979013D02*
X88883333Y-74512346D01*
X88883333Y-74279013D02*
X88916666Y-74312346D01*
X88916666Y-74312346D02*
X88883333Y-74345680D01*
X88883333Y-74345680D02*
X88850000Y-74312346D01*
X88850000Y-74312346D02*
X88883333Y-74279013D01*
X88883333Y-74279013D02*
X88883333Y-74345680D01*
X88650000Y-74512346D02*
X88383333Y-74512346D01*
X88550000Y-74279013D02*
X88550000Y-74879013D01*
X88550000Y-74879013D02*
X88516667Y-74945680D01*
X88516667Y-74945680D02*
X88450000Y-74979013D01*
X88450000Y-74979013D02*
X88383333Y-74979013D01*
X88150000Y-74979013D02*
X88150000Y-74279013D01*
X87850000Y-74979013D02*
X87850000Y-74612346D01*
X87850000Y-74612346D02*
X87883333Y-74545680D01*
X87883333Y-74545680D02*
X87950000Y-74512346D01*
X87950000Y-74512346D02*
X88050000Y-74512346D01*
X88050000Y-74512346D02*
X88116667Y-74545680D01*
X88116667Y-74545680D02*
X88150000Y-74579013D01*
X93749998Y-76106013D02*
X93816665Y-76072680D01*
X93816665Y-76072680D02*
X93849998Y-76006013D01*
X93849998Y-76006013D02*
X93849998Y-75406013D01*
X93383331Y-76106013D02*
X93449998Y-76072680D01*
X93449998Y-76072680D02*
X93483331Y-76039346D01*
X93483331Y-76039346D02*
X93516664Y-75972680D01*
X93516664Y-75972680D02*
X93516664Y-75772680D01*
X93516664Y-75772680D02*
X93483331Y-75706013D01*
X93483331Y-75706013D02*
X93449998Y-75672680D01*
X93449998Y-75672680D02*
X93383331Y-75639346D01*
X93383331Y-75639346D02*
X93283331Y-75639346D01*
X93283331Y-75639346D02*
X93216664Y-75672680D01*
X93216664Y-75672680D02*
X93183331Y-75706013D01*
X93183331Y-75706013D02*
X93149998Y-75772680D01*
X93149998Y-75772680D02*
X93149998Y-75972680D01*
X93149998Y-75972680D02*
X93183331Y-76039346D01*
X93183331Y-76039346D02*
X93216664Y-76072680D01*
X93216664Y-76072680D02*
X93283331Y-76106013D01*
X93283331Y-76106013D02*
X93383331Y-76106013D01*
X92916665Y-75639346D02*
X92749998Y-76106013D01*
X92749998Y-76106013D02*
X92583331Y-75639346D01*
X92049998Y-76072680D02*
X92116665Y-76106013D01*
X92116665Y-76106013D02*
X92249998Y-76106013D01*
X92249998Y-76106013D02*
X92316665Y-76072680D01*
X92316665Y-76072680D02*
X92349998Y-76006013D01*
X92349998Y-76006013D02*
X92349998Y-75739346D01*
X92349998Y-75739346D02*
X92316665Y-75672680D01*
X92316665Y-75672680D02*
X92249998Y-75639346D01*
X92249998Y-75639346D02*
X92116665Y-75639346D01*
X92116665Y-75639346D02*
X92049998Y-75672680D01*
X92049998Y-75672680D02*
X92016665Y-75739346D01*
X92016665Y-75739346D02*
X92016665Y-75806013D01*
X92016665Y-75806013D02*
X92349998Y-75872680D01*
X91083332Y-76106013D02*
X91149999Y-76072680D01*
X91149999Y-76072680D02*
X91183332Y-76039346D01*
X91183332Y-76039346D02*
X91216665Y-75972680D01*
X91216665Y-75972680D02*
X91216665Y-75772680D01*
X91216665Y-75772680D02*
X91183332Y-75706013D01*
X91183332Y-75706013D02*
X91149999Y-75672680D01*
X91149999Y-75672680D02*
X91083332Y-75639346D01*
X91083332Y-75639346D02*
X90983332Y-75639346D01*
X90983332Y-75639346D02*
X90916665Y-75672680D01*
X90916665Y-75672680D02*
X90883332Y-75706013D01*
X90883332Y-75706013D02*
X90849999Y-75772680D01*
X90849999Y-75772680D02*
X90849999Y-75972680D01*
X90849999Y-75972680D02*
X90883332Y-76039346D01*
X90883332Y-76039346D02*
X90916665Y-76072680D01*
X90916665Y-76072680D02*
X90983332Y-76106013D01*
X90983332Y-76106013D02*
X91083332Y-76106013D01*
X90549999Y-75639346D02*
X90549999Y-76106013D01*
X90549999Y-75706013D02*
X90516666Y-75672680D01*
X90516666Y-75672680D02*
X90449999Y-75639346D01*
X90449999Y-75639346D02*
X90349999Y-75639346D01*
X90349999Y-75639346D02*
X90283332Y-75672680D01*
X90283332Y-75672680D02*
X90249999Y-75739346D01*
X90249999Y-75739346D02*
X90249999Y-76106013D01*
X89383333Y-76106013D02*
X89383333Y-75406013D01*
X89316666Y-75839346D02*
X89116666Y-76106013D01*
X89116666Y-75639346D02*
X89383333Y-75906013D01*
X88816666Y-76106013D02*
X88816666Y-75639346D01*
X88816666Y-75406013D02*
X88849999Y-75439346D01*
X88849999Y-75439346D02*
X88816666Y-75472680D01*
X88816666Y-75472680D02*
X88783333Y-75439346D01*
X88783333Y-75439346D02*
X88816666Y-75406013D01*
X88816666Y-75406013D02*
X88816666Y-75472680D01*
X88183333Y-76072680D02*
X88250000Y-76106013D01*
X88250000Y-76106013D02*
X88383333Y-76106013D01*
X88383333Y-76106013D02*
X88450000Y-76072680D01*
X88450000Y-76072680D02*
X88483333Y-76039346D01*
X88483333Y-76039346D02*
X88516666Y-75972680D01*
X88516666Y-75972680D02*
X88516666Y-75772680D01*
X88516666Y-75772680D02*
X88483333Y-75706013D01*
X88483333Y-75706013D02*
X88450000Y-75672680D01*
X88450000Y-75672680D02*
X88383333Y-75639346D01*
X88383333Y-75639346D02*
X88250000Y-75639346D01*
X88250000Y-75639346D02*
X88183333Y-75672680D01*
X87583333Y-76106013D02*
X87583333Y-75739346D01*
X87583333Y-75739346D02*
X87616666Y-75672680D01*
X87616666Y-75672680D02*
X87683333Y-75639346D01*
X87683333Y-75639346D02*
X87816666Y-75639346D01*
X87816666Y-75639346D02*
X87883333Y-75672680D01*
X87583333Y-76072680D02*
X87650000Y-76106013D01*
X87650000Y-76106013D02*
X87816666Y-76106013D01*
X87816666Y-76106013D02*
X87883333Y-76072680D01*
X87883333Y-76072680D02*
X87916666Y-76006013D01*
X87916666Y-76006013D02*
X87916666Y-75939346D01*
X87916666Y-75939346D02*
X87883333Y-75872680D01*
X87883333Y-75872680D02*
X87816666Y-75839346D01*
X87816666Y-75839346D02*
X87650000Y-75839346D01*
X87650000Y-75839346D02*
X87583333Y-75806013D01*
X86950000Y-76106013D02*
X86950000Y-75406013D01*
X86950000Y-76072680D02*
X87016667Y-76106013D01*
X87016667Y-76106013D02*
X87150000Y-76106013D01*
X87150000Y-76106013D02*
X87216667Y-76072680D01*
X87216667Y-76072680D02*
X87250000Y-76039346D01*
X87250000Y-76039346D02*
X87283333Y-75972680D01*
X87283333Y-75972680D02*
X87283333Y-75772680D01*
X87283333Y-75772680D02*
X87250000Y-75706013D01*
X87250000Y-75706013D02*
X87216667Y-75672680D01*
X87216667Y-75672680D02*
X87150000Y-75639346D01*
X87150000Y-75639346D02*
X87016667Y-75639346D01*
X87016667Y-75639346D02*
X86950000Y-75672680D01*
D11*
X97434649Y-77206533D02*
X97434649Y-76506533D01*
X97434649Y-76506533D02*
X97167982Y-76506533D01*
X97167982Y-76506533D02*
X97101316Y-76539866D01*
X97101316Y-76539866D02*
X97067982Y-76573200D01*
X97067982Y-76573200D02*
X97034649Y-76639866D01*
X97034649Y-76639866D02*
X97034649Y-76739866D01*
X97034649Y-76739866D02*
X97067982Y-76806533D01*
X97067982Y-76806533D02*
X97101316Y-76839866D01*
X97101316Y-76839866D02*
X97167982Y-76873200D01*
X97167982Y-76873200D02*
X97434649Y-76873200D01*
X96767982Y-76573200D02*
X96734649Y-76539866D01*
X96734649Y-76539866D02*
X96667982Y-76506533D01*
X96667982Y-76506533D02*
X96501316Y-76506533D01*
X96501316Y-76506533D02*
X96434649Y-76539866D01*
X96434649Y-76539866D02*
X96401316Y-76573200D01*
X96401316Y-76573200D02*
X96367982Y-76639866D01*
X96367982Y-76639866D02*
X96367982Y-76706533D01*
X96367982Y-76706533D02*
X96401316Y-76806533D01*
X96401316Y-76806533D02*
X96801316Y-77206533D01*
X96801316Y-77206533D02*
X96367982Y-77206533D01*
X95934649Y-76506533D02*
X95867982Y-76506533D01*
X95867982Y-76506533D02*
X95801315Y-76539866D01*
X95801315Y-76539866D02*
X95767982Y-76573200D01*
X95767982Y-76573200D02*
X95734649Y-76639866D01*
X95734649Y-76639866D02*
X95701315Y-76773200D01*
X95701315Y-76773200D02*
X95701315Y-76939866D01*
X95701315Y-76939866D02*
X95734649Y-77073200D01*
X95734649Y-77073200D02*
X95767982Y-77139866D01*
X95767982Y-77139866D02*
X95801315Y-77173200D01*
X95801315Y-77173200D02*
X95867982Y-77206533D01*
X95867982Y-77206533D02*
X95934649Y-77206533D01*
X95934649Y-77206533D02*
X96001315Y-77173200D01*
X96001315Y-77173200D02*
X96034649Y-77139866D01*
X96034649Y-77139866D02*
X96067982Y-77073200D01*
X96067982Y-77073200D02*
X96101315Y-76939866D01*
X96101315Y-76939866D02*
X96101315Y-76773200D01*
X96101315Y-76773200D02*
X96067982Y-76639866D01*
X96067982Y-76639866D02*
X96034649Y-76573200D01*
X96034649Y-76573200D02*
X96001315Y-76539866D01*
X96001315Y-76539866D02*
X95934649Y-76506533D01*
X84767982Y-58739866D02*
X84834649Y-58706533D01*
X84834649Y-58706533D02*
X84934649Y-58706533D01*
X84934649Y-58706533D02*
X85034649Y-58739866D01*
X85034649Y-58739866D02*
X85101316Y-58806533D01*
X85101316Y-58806533D02*
X85134649Y-58873200D01*
X85134649Y-58873200D02*
X85167982Y-59006533D01*
X85167982Y-59006533D02*
X85167982Y-59106533D01*
X85167982Y-59106533D02*
X85134649Y-59239866D01*
X85134649Y-59239866D02*
X85101316Y-59306533D01*
X85101316Y-59306533D02*
X85034649Y-59373200D01*
X85034649Y-59373200D02*
X84934649Y-59406533D01*
X84934649Y-59406533D02*
X84867982Y-59406533D01*
X84867982Y-59406533D02*
X84767982Y-59373200D01*
X84767982Y-59373200D02*
X84734649Y-59339866D01*
X84734649Y-59339866D02*
X84734649Y-59106533D01*
X84734649Y-59106533D02*
X84867982Y-59106533D01*
X84434649Y-59406533D02*
X84434649Y-58706533D01*
X84434649Y-58706533D02*
X84034649Y-59406533D01*
X84034649Y-59406533D02*
X84034649Y-58706533D01*
X83701316Y-59406533D02*
X83701316Y-58706533D01*
X83701316Y-58706533D02*
X83534649Y-58706533D01*
X83534649Y-58706533D02*
X83434649Y-58739866D01*
X83434649Y-58739866D02*
X83367983Y-58806533D01*
X83367983Y-58806533D02*
X83334649Y-58873200D01*
X83334649Y-58873200D02*
X83301316Y-59006533D01*
X83301316Y-59006533D02*
X83301316Y-59106533D01*
X83301316Y-59106533D02*
X83334649Y-59239866D01*
X83334649Y-59239866D02*
X83367983Y-59306533D01*
X83367983Y-59306533D02*
X83434649Y-59373200D01*
X83434649Y-59373200D02*
X83534649Y-59406533D01*
X83534649Y-59406533D02*
X83701316Y-59406533D01*
X97334649Y-64606533D02*
X97334649Y-63906533D01*
X97334649Y-63906533D02*
X97067982Y-63906533D01*
X97067982Y-63906533D02*
X97001316Y-63939866D01*
X97001316Y-63939866D02*
X96967982Y-63973200D01*
X96967982Y-63973200D02*
X96934649Y-64039866D01*
X96934649Y-64039866D02*
X96934649Y-64139866D01*
X96934649Y-64139866D02*
X96967982Y-64206533D01*
X96967982Y-64206533D02*
X97001316Y-64239866D01*
X97001316Y-64239866D02*
X97067982Y-64273200D01*
X97067982Y-64273200D02*
X97334649Y-64273200D01*
X96667982Y-63973200D02*
X96634649Y-63939866D01*
X96634649Y-63939866D02*
X96567982Y-63906533D01*
X96567982Y-63906533D02*
X96401316Y-63906533D01*
X96401316Y-63906533D02*
X96334649Y-63939866D01*
X96334649Y-63939866D02*
X96301316Y-63973200D01*
X96301316Y-63973200D02*
X96267982Y-64039866D01*
X96267982Y-64039866D02*
X96267982Y-64106533D01*
X96267982Y-64106533D02*
X96301316Y-64206533D01*
X96301316Y-64206533D02*
X96701316Y-64606533D01*
X96701316Y-64606533D02*
X96267982Y-64606533D01*
X95667982Y-63906533D02*
X95801315Y-63906533D01*
X95801315Y-63906533D02*
X95867982Y-63939866D01*
X95867982Y-63939866D02*
X95901315Y-63973200D01*
X95901315Y-63973200D02*
X95967982Y-64073200D01*
X95967982Y-64073200D02*
X96001315Y-64206533D01*
X96001315Y-64206533D02*
X96001315Y-64473200D01*
X96001315Y-64473200D02*
X95967982Y-64539866D01*
X95967982Y-64539866D02*
X95934649Y-64573200D01*
X95934649Y-64573200D02*
X95867982Y-64606533D01*
X95867982Y-64606533D02*
X95734649Y-64606533D01*
X95734649Y-64606533D02*
X95667982Y-64573200D01*
X95667982Y-64573200D02*
X95634649Y-64539866D01*
X95634649Y-64539866D02*
X95601315Y-64473200D01*
X95601315Y-64473200D02*
X95601315Y-64306533D01*
X95601315Y-64306533D02*
X95634649Y-64239866D01*
X95634649Y-64239866D02*
X95667982Y-64206533D01*
X95667982Y-64206533D02*
X95734649Y-64173200D01*
X95734649Y-64173200D02*
X95867982Y-64173200D01*
X95867982Y-64173200D02*
X95934649Y-64206533D01*
X95934649Y-64206533D02*
X95967982Y-64239866D01*
X95967982Y-64239866D02*
X96001315Y-64306533D01*
X97334649Y-57006533D02*
X97334649Y-56306533D01*
X97334649Y-56306533D02*
X97067982Y-56306533D01*
X97067982Y-56306533D02*
X97001316Y-56339866D01*
X97001316Y-56339866D02*
X96967982Y-56373200D01*
X96967982Y-56373200D02*
X96934649Y-56439866D01*
X96934649Y-56439866D02*
X96934649Y-56539866D01*
X96934649Y-56539866D02*
X96967982Y-56606533D01*
X96967982Y-56606533D02*
X97001316Y-56639866D01*
X97001316Y-56639866D02*
X97067982Y-56673200D01*
X97067982Y-56673200D02*
X97334649Y-56673200D01*
X96667982Y-56373200D02*
X96634649Y-56339866D01*
X96634649Y-56339866D02*
X96567982Y-56306533D01*
X96567982Y-56306533D02*
X96401316Y-56306533D01*
X96401316Y-56306533D02*
X96334649Y-56339866D01*
X96334649Y-56339866D02*
X96301316Y-56373200D01*
X96301316Y-56373200D02*
X96267982Y-56439866D01*
X96267982Y-56439866D02*
X96267982Y-56506533D01*
X96267982Y-56506533D02*
X96301316Y-56606533D01*
X96301316Y-56606533D02*
X96701316Y-57006533D01*
X96701316Y-57006533D02*
X96267982Y-57006533D01*
X95867982Y-56606533D02*
X95934649Y-56573200D01*
X95934649Y-56573200D02*
X95967982Y-56539866D01*
X95967982Y-56539866D02*
X96001315Y-56473200D01*
X96001315Y-56473200D02*
X96001315Y-56439866D01*
X96001315Y-56439866D02*
X95967982Y-56373200D01*
X95967982Y-56373200D02*
X95934649Y-56339866D01*
X95934649Y-56339866D02*
X95867982Y-56306533D01*
X95867982Y-56306533D02*
X95734649Y-56306533D01*
X95734649Y-56306533D02*
X95667982Y-56339866D01*
X95667982Y-56339866D02*
X95634649Y-56373200D01*
X95634649Y-56373200D02*
X95601315Y-56439866D01*
X95601315Y-56439866D02*
X95601315Y-56473200D01*
X95601315Y-56473200D02*
X95634649Y-56539866D01*
X95634649Y-56539866D02*
X95667982Y-56573200D01*
X95667982Y-56573200D02*
X95734649Y-56606533D01*
X95734649Y-56606533D02*
X95867982Y-56606533D01*
X95867982Y-56606533D02*
X95934649Y-56639866D01*
X95934649Y-56639866D02*
X95967982Y-56673200D01*
X95967982Y-56673200D02*
X96001315Y-56739866D01*
X96001315Y-56739866D02*
X96001315Y-56873200D01*
X96001315Y-56873200D02*
X95967982Y-56939866D01*
X95967982Y-56939866D02*
X95934649Y-56973200D01*
X95934649Y-56973200D02*
X95867982Y-57006533D01*
X95867982Y-57006533D02*
X95734649Y-57006533D01*
X95734649Y-57006533D02*
X95667982Y-56973200D01*
X95667982Y-56973200D02*
X95634649Y-56939866D01*
X95634649Y-56939866D02*
X95601315Y-56873200D01*
X95601315Y-56873200D02*
X95601315Y-56739866D01*
X95601315Y-56739866D02*
X95634649Y-56673200D01*
X95634649Y-56673200D02*
X95667982Y-56639866D01*
X95667982Y-56639866D02*
X95734649Y-56606533D01*
X97434649Y-69606533D02*
X97434649Y-68906533D01*
X97434649Y-68906533D02*
X97167982Y-68906533D01*
X97167982Y-68906533D02*
X97101316Y-68939866D01*
X97101316Y-68939866D02*
X97067982Y-68973200D01*
X97067982Y-68973200D02*
X97034649Y-69039866D01*
X97034649Y-69039866D02*
X97034649Y-69139866D01*
X97034649Y-69139866D02*
X97067982Y-69206533D01*
X97067982Y-69206533D02*
X97101316Y-69239866D01*
X97101316Y-69239866D02*
X97167982Y-69273200D01*
X97167982Y-69273200D02*
X97434649Y-69273200D01*
X96767982Y-68973200D02*
X96734649Y-68939866D01*
X96734649Y-68939866D02*
X96667982Y-68906533D01*
X96667982Y-68906533D02*
X96501316Y-68906533D01*
X96501316Y-68906533D02*
X96434649Y-68939866D01*
X96434649Y-68939866D02*
X96401316Y-68973200D01*
X96401316Y-68973200D02*
X96367982Y-69039866D01*
X96367982Y-69039866D02*
X96367982Y-69106533D01*
X96367982Y-69106533D02*
X96401316Y-69206533D01*
X96401316Y-69206533D02*
X96801316Y-69606533D01*
X96801316Y-69606533D02*
X96367982Y-69606533D01*
X96101315Y-68973200D02*
X96067982Y-68939866D01*
X96067982Y-68939866D02*
X96001315Y-68906533D01*
X96001315Y-68906533D02*
X95834649Y-68906533D01*
X95834649Y-68906533D02*
X95767982Y-68939866D01*
X95767982Y-68939866D02*
X95734649Y-68973200D01*
X95734649Y-68973200D02*
X95701315Y-69039866D01*
X95701315Y-69039866D02*
X95701315Y-69106533D01*
X95701315Y-69106533D02*
X95734649Y-69206533D01*
X95734649Y-69206533D02*
X96134649Y-69606533D01*
X96134649Y-69606533D02*
X95701315Y-69606533D01*
X93971427Y-85352771D02*
X93971427Y-84752771D01*
X93971427Y-84752771D02*
X93771427Y-85181342D01*
X93771427Y-85181342D02*
X93571427Y-84752771D01*
X93571427Y-84752771D02*
X93571427Y-85352771D01*
X93314285Y-85181342D02*
X93028571Y-85181342D01*
X93371428Y-85352771D02*
X93171428Y-84752771D01*
X93171428Y-84752771D02*
X92971428Y-85352771D01*
X92771427Y-85352771D02*
X92771427Y-84752771D01*
X92771427Y-84752771D02*
X92628570Y-84752771D01*
X92628570Y-84752771D02*
X92542856Y-84781342D01*
X92542856Y-84781342D02*
X92485713Y-84838485D01*
X92485713Y-84838485D02*
X92457142Y-84895628D01*
X92457142Y-84895628D02*
X92428570Y-85009914D01*
X92428570Y-85009914D02*
X92428570Y-85095628D01*
X92428570Y-85095628D02*
X92457142Y-85209914D01*
X92457142Y-85209914D02*
X92485713Y-85267057D01*
X92485713Y-85267057D02*
X92542856Y-85324200D01*
X92542856Y-85324200D02*
X92628570Y-85352771D01*
X92628570Y-85352771D02*
X92771427Y-85352771D01*
X92171427Y-85038485D02*
X91971427Y-85038485D01*
X91885713Y-85352771D02*
X92171427Y-85352771D01*
X92171427Y-85352771D02*
X92171427Y-84752771D01*
X92171427Y-84752771D02*
X91885713Y-84752771D01*
X91171427Y-85352771D02*
X91171427Y-84752771D01*
X90885713Y-85352771D02*
X90885713Y-84752771D01*
X90885713Y-84752771D02*
X90542856Y-85352771D01*
X90542856Y-85352771D02*
X90542856Y-84752771D01*
X89457142Y-85295628D02*
X89485714Y-85324200D01*
X89485714Y-85324200D02*
X89571428Y-85352771D01*
X89571428Y-85352771D02*
X89628571Y-85352771D01*
X89628571Y-85352771D02*
X89714285Y-85324200D01*
X89714285Y-85324200D02*
X89771428Y-85267057D01*
X89771428Y-85267057D02*
X89799999Y-85209914D01*
X89799999Y-85209914D02*
X89828571Y-85095628D01*
X89828571Y-85095628D02*
X89828571Y-85009914D01*
X89828571Y-85009914D02*
X89799999Y-84895628D01*
X89799999Y-84895628D02*
X89771428Y-84838485D01*
X89771428Y-84838485D02*
X89714285Y-84781342D01*
X89714285Y-84781342D02*
X89628571Y-84752771D01*
X89628571Y-84752771D02*
X89571428Y-84752771D01*
X89571428Y-84752771D02*
X89485714Y-84781342D01*
X89485714Y-84781342D02*
X89457142Y-84809914D01*
X89199999Y-85352771D02*
X89199999Y-84752771D01*
X89199999Y-85038485D02*
X88857142Y-85038485D01*
X88857142Y-85352771D02*
X88857142Y-84752771D01*
X88571428Y-85352771D02*
X88571428Y-84752771D01*
X88285714Y-85352771D02*
X88285714Y-84752771D01*
X88285714Y-84752771D02*
X87942857Y-85352771D01*
X87942857Y-85352771D02*
X87942857Y-84752771D01*
X87685715Y-85181342D02*
X87400001Y-85181342D01*
X87742858Y-85352771D02*
X87542858Y-84752771D01*
X87542858Y-84752771D02*
X87342858Y-85352771D01*
X94028570Y-86147342D02*
X93742856Y-86147342D01*
X94085713Y-86318771D02*
X93885713Y-85718771D01*
X93885713Y-85718771D02*
X93685713Y-86318771D01*
X93485712Y-86318771D02*
X93485712Y-85718771D01*
X93485712Y-85718771D02*
X93142855Y-86318771D01*
X93142855Y-86318771D02*
X93142855Y-85718771D01*
X92857141Y-86318771D02*
X92857141Y-85718771D01*
X92857141Y-85718771D02*
X92714284Y-85718771D01*
X92714284Y-85718771D02*
X92628570Y-85747342D01*
X92628570Y-85747342D02*
X92571427Y-85804485D01*
X92571427Y-85804485D02*
X92542856Y-85861628D01*
X92542856Y-85861628D02*
X92514284Y-85975914D01*
X92514284Y-85975914D02*
X92514284Y-86061628D01*
X92514284Y-86061628D02*
X92542856Y-86175914D01*
X92542856Y-86175914D02*
X92571427Y-86233057D01*
X92571427Y-86233057D02*
X92628570Y-86290200D01*
X92628570Y-86290200D02*
X92714284Y-86318771D01*
X92714284Y-86318771D02*
X92857141Y-86318771D01*
X91799998Y-86318771D02*
X91799998Y-85718771D01*
X91514284Y-86318771D02*
X91514284Y-85718771D01*
X91514284Y-85718771D02*
X91171427Y-86318771D01*
X91171427Y-86318771D02*
X91171427Y-85718771D01*
X90885713Y-86318771D02*
X90885713Y-85718771D01*
X90885713Y-85718771D02*
X90742856Y-85718771D01*
X90742856Y-85718771D02*
X90657142Y-85747342D01*
X90657142Y-85747342D02*
X90599999Y-85804485D01*
X90599999Y-85804485D02*
X90571428Y-85861628D01*
X90571428Y-85861628D02*
X90542856Y-85975914D01*
X90542856Y-85975914D02*
X90542856Y-86061628D01*
X90542856Y-86061628D02*
X90571428Y-86175914D01*
X90571428Y-86175914D02*
X90599999Y-86233057D01*
X90599999Y-86233057D02*
X90657142Y-86290200D01*
X90657142Y-86290200D02*
X90742856Y-86318771D01*
X90742856Y-86318771D02*
X90885713Y-86318771D01*
X90171428Y-85718771D02*
X90057142Y-85718771D01*
X90057142Y-85718771D02*
X89999999Y-85747342D01*
X89999999Y-85747342D02*
X89942856Y-85804485D01*
X89942856Y-85804485D02*
X89914285Y-85918771D01*
X89914285Y-85918771D02*
X89914285Y-86118771D01*
X89914285Y-86118771D02*
X89942856Y-86233057D01*
X89942856Y-86233057D02*
X89999999Y-86290200D01*
X89999999Y-86290200D02*
X90057142Y-86318771D01*
X90057142Y-86318771D02*
X90171428Y-86318771D01*
X90171428Y-86318771D02*
X90228571Y-86290200D01*
X90228571Y-86290200D02*
X90285713Y-86233057D01*
X90285713Y-86233057D02*
X90314285Y-86118771D01*
X90314285Y-86118771D02*
X90314285Y-85918771D01*
X90314285Y-85918771D02*
X90285713Y-85804485D01*
X90285713Y-85804485D02*
X90228571Y-85747342D01*
X90228571Y-85747342D02*
X90171428Y-85718771D01*
X89657142Y-86318771D02*
X89657142Y-85718771D01*
X89657142Y-85718771D02*
X89314285Y-86318771D01*
X89314285Y-86318771D02*
X89314285Y-85718771D01*
X89028571Y-86004485D02*
X88828571Y-86004485D01*
X88742857Y-86318771D02*
X89028571Y-86318771D01*
X89028571Y-86318771D02*
X89028571Y-85718771D01*
X89028571Y-85718771D02*
X88742857Y-85718771D01*
X88514286Y-86290200D02*
X88428572Y-86318771D01*
X88428572Y-86318771D02*
X88285714Y-86318771D01*
X88285714Y-86318771D02*
X88228572Y-86290200D01*
X88228572Y-86290200D02*
X88200000Y-86261628D01*
X88200000Y-86261628D02*
X88171429Y-86204485D01*
X88171429Y-86204485D02*
X88171429Y-86147342D01*
X88171429Y-86147342D02*
X88200000Y-86090200D01*
X88200000Y-86090200D02*
X88228572Y-86061628D01*
X88228572Y-86061628D02*
X88285714Y-86033057D01*
X88285714Y-86033057D02*
X88400000Y-86004485D01*
X88400000Y-86004485D02*
X88457143Y-85975914D01*
X88457143Y-85975914D02*
X88485714Y-85947342D01*
X88485714Y-85947342D02*
X88514286Y-85890200D01*
X88514286Y-85890200D02*
X88514286Y-85833057D01*
X88514286Y-85833057D02*
X88485714Y-85775914D01*
X88485714Y-85775914D02*
X88457143Y-85747342D01*
X88457143Y-85747342D02*
X88400000Y-85718771D01*
X88400000Y-85718771D02*
X88257143Y-85718771D01*
X88257143Y-85718771D02*
X88171429Y-85747342D01*
X87914285Y-86318771D02*
X87914285Y-85718771D01*
X87657143Y-86147342D02*
X87371429Y-86147342D01*
X87714286Y-86318771D02*
X87514286Y-85718771D01*
X87514286Y-85718771D02*
X87314286Y-86318771D01*
X84667982Y-46039866D02*
X84734649Y-46006533D01*
X84734649Y-46006533D02*
X84834649Y-46006533D01*
X84834649Y-46006533D02*
X84934649Y-46039866D01*
X84934649Y-46039866D02*
X85001316Y-46106533D01*
X85001316Y-46106533D02*
X85034649Y-46173200D01*
X85034649Y-46173200D02*
X85067982Y-46306533D01*
X85067982Y-46306533D02*
X85067982Y-46406533D01*
X85067982Y-46406533D02*
X85034649Y-46539866D01*
X85034649Y-46539866D02*
X85001316Y-46606533D01*
X85001316Y-46606533D02*
X84934649Y-46673200D01*
X84934649Y-46673200D02*
X84834649Y-46706533D01*
X84834649Y-46706533D02*
X84767982Y-46706533D01*
X84767982Y-46706533D02*
X84667982Y-46673200D01*
X84667982Y-46673200D02*
X84634649Y-46639866D01*
X84634649Y-46639866D02*
X84634649Y-46406533D01*
X84634649Y-46406533D02*
X84767982Y-46406533D01*
X84334649Y-46706533D02*
X84334649Y-46006533D01*
X84334649Y-46006533D02*
X83934649Y-46706533D01*
X83934649Y-46706533D02*
X83934649Y-46006533D01*
X83601316Y-46706533D02*
X83601316Y-46006533D01*
X83601316Y-46006533D02*
X83434649Y-46006533D01*
X83434649Y-46006533D02*
X83334649Y-46039866D01*
X83334649Y-46039866D02*
X83267983Y-46106533D01*
X83267983Y-46106533D02*
X83234649Y-46173200D01*
X83234649Y-46173200D02*
X83201316Y-46306533D01*
X83201316Y-46306533D02*
X83201316Y-46406533D01*
X83201316Y-46406533D02*
X83234649Y-46539866D01*
X83234649Y-46539866D02*
X83267983Y-46606533D01*
X83267983Y-46606533D02*
X83334649Y-46673200D01*
X83334649Y-46673200D02*
X83434649Y-46706533D01*
X83434649Y-46706533D02*
X83601316Y-46706533D01*
X84334649Y-49306533D02*
X84334649Y-48606533D01*
X84334649Y-48606533D02*
X84067982Y-48606533D01*
X84067982Y-48606533D02*
X84001316Y-48639866D01*
X84001316Y-48639866D02*
X83967982Y-48673200D01*
X83967982Y-48673200D02*
X83934649Y-48739866D01*
X83934649Y-48739866D02*
X83934649Y-48839866D01*
X83934649Y-48839866D02*
X83967982Y-48906533D01*
X83967982Y-48906533D02*
X84001316Y-48939866D01*
X84001316Y-48939866D02*
X84067982Y-48973200D01*
X84067982Y-48973200D02*
X84334649Y-48973200D01*
X83667982Y-48673200D02*
X83634649Y-48639866D01*
X83634649Y-48639866D02*
X83567982Y-48606533D01*
X83567982Y-48606533D02*
X83401316Y-48606533D01*
X83401316Y-48606533D02*
X83334649Y-48639866D01*
X83334649Y-48639866D02*
X83301316Y-48673200D01*
X83301316Y-48673200D02*
X83267982Y-48739866D01*
X83267982Y-48739866D02*
X83267982Y-48806533D01*
X83267982Y-48806533D02*
X83301316Y-48906533D01*
X83301316Y-48906533D02*
X83701316Y-49306533D01*
X83701316Y-49306533D02*
X83267982Y-49306533D01*
X97401316Y-43506533D02*
X96967982Y-43506533D01*
X96967982Y-43506533D02*
X97201316Y-43773200D01*
X97201316Y-43773200D02*
X97101316Y-43773200D01*
X97101316Y-43773200D02*
X97034649Y-43806533D01*
X97034649Y-43806533D02*
X97001316Y-43839866D01*
X97001316Y-43839866D02*
X96967982Y-43906533D01*
X96967982Y-43906533D02*
X96967982Y-44073200D01*
X96967982Y-44073200D02*
X97001316Y-44139866D01*
X97001316Y-44139866D02*
X97034649Y-44173200D01*
X97034649Y-44173200D02*
X97101316Y-44206533D01*
X97101316Y-44206533D02*
X97301316Y-44206533D01*
X97301316Y-44206533D02*
X97367982Y-44173200D01*
X97367982Y-44173200D02*
X97401316Y-44139866D01*
X96767982Y-43506533D02*
X96534649Y-44206533D01*
X96534649Y-44206533D02*
X96301315Y-43506533D01*
X96134649Y-43506533D02*
X95701315Y-43506533D01*
X95701315Y-43506533D02*
X95934649Y-43773200D01*
X95934649Y-43773200D02*
X95834649Y-43773200D01*
X95834649Y-43773200D02*
X95767982Y-43806533D01*
X95767982Y-43806533D02*
X95734649Y-43839866D01*
X95734649Y-43839866D02*
X95701315Y-43906533D01*
X95701315Y-43906533D02*
X95701315Y-44073200D01*
X95701315Y-44073200D02*
X95734649Y-44139866D01*
X95734649Y-44139866D02*
X95767982Y-44173200D01*
X95767982Y-44173200D02*
X95834649Y-44206533D01*
X95834649Y-44206533D02*
X96034649Y-44206533D01*
X96034649Y-44206533D02*
X96101315Y-44173200D01*
X96101315Y-44173200D02*
X96134649Y-44139866D01*
X97334649Y-54506533D02*
X97334649Y-53806533D01*
X97334649Y-53806533D02*
X97067982Y-53806533D01*
X97067982Y-53806533D02*
X97001316Y-53839866D01*
X97001316Y-53839866D02*
X96967982Y-53873200D01*
X96967982Y-53873200D02*
X96934649Y-53939866D01*
X96934649Y-53939866D02*
X96934649Y-54039866D01*
X96934649Y-54039866D02*
X96967982Y-54106533D01*
X96967982Y-54106533D02*
X97001316Y-54139866D01*
X97001316Y-54139866D02*
X97067982Y-54173200D01*
X97067982Y-54173200D02*
X97334649Y-54173200D01*
X96667982Y-53873200D02*
X96634649Y-53839866D01*
X96634649Y-53839866D02*
X96567982Y-53806533D01*
X96567982Y-53806533D02*
X96401316Y-53806533D01*
X96401316Y-53806533D02*
X96334649Y-53839866D01*
X96334649Y-53839866D02*
X96301316Y-53873200D01*
X96301316Y-53873200D02*
X96267982Y-53939866D01*
X96267982Y-53939866D02*
X96267982Y-54006533D01*
X96267982Y-54006533D02*
X96301316Y-54106533D01*
X96301316Y-54106533D02*
X96701316Y-54506533D01*
X96701316Y-54506533D02*
X96267982Y-54506533D01*
X95934649Y-54506533D02*
X95801315Y-54506533D01*
X95801315Y-54506533D02*
X95734649Y-54473200D01*
X95734649Y-54473200D02*
X95701315Y-54439866D01*
X95701315Y-54439866D02*
X95634649Y-54339866D01*
X95634649Y-54339866D02*
X95601315Y-54206533D01*
X95601315Y-54206533D02*
X95601315Y-53939866D01*
X95601315Y-53939866D02*
X95634649Y-53873200D01*
X95634649Y-53873200D02*
X95667982Y-53839866D01*
X95667982Y-53839866D02*
X95734649Y-53806533D01*
X95734649Y-53806533D02*
X95867982Y-53806533D01*
X95867982Y-53806533D02*
X95934649Y-53839866D01*
X95934649Y-53839866D02*
X95967982Y-53873200D01*
X95967982Y-53873200D02*
X96001315Y-53939866D01*
X96001315Y-53939866D02*
X96001315Y-54106533D01*
X96001315Y-54106533D02*
X95967982Y-54173200D01*
X95967982Y-54173200D02*
X95934649Y-54206533D01*
X95934649Y-54206533D02*
X95867982Y-54239866D01*
X95867982Y-54239866D02*
X95734649Y-54239866D01*
X95734649Y-54239866D02*
X95667982Y-54206533D01*
X95667982Y-54206533D02*
X95634649Y-54173200D01*
X95634649Y-54173200D02*
X95601315Y-54106533D01*
X97434649Y-67106533D02*
X97434649Y-66406533D01*
X97434649Y-66406533D02*
X97167982Y-66406533D01*
X97167982Y-66406533D02*
X97101316Y-66439866D01*
X97101316Y-66439866D02*
X97067982Y-66473200D01*
X97067982Y-66473200D02*
X97034649Y-66539866D01*
X97034649Y-66539866D02*
X97034649Y-66639866D01*
X97034649Y-66639866D02*
X97067982Y-66706533D01*
X97067982Y-66706533D02*
X97101316Y-66739866D01*
X97101316Y-66739866D02*
X97167982Y-66773200D01*
X97167982Y-66773200D02*
X97434649Y-66773200D01*
X96767982Y-66473200D02*
X96734649Y-66439866D01*
X96734649Y-66439866D02*
X96667982Y-66406533D01*
X96667982Y-66406533D02*
X96501316Y-66406533D01*
X96501316Y-66406533D02*
X96434649Y-66439866D01*
X96434649Y-66439866D02*
X96401316Y-66473200D01*
X96401316Y-66473200D02*
X96367982Y-66539866D01*
X96367982Y-66539866D02*
X96367982Y-66606533D01*
X96367982Y-66606533D02*
X96401316Y-66706533D01*
X96401316Y-66706533D02*
X96801316Y-67106533D01*
X96801316Y-67106533D02*
X96367982Y-67106533D01*
X96134649Y-66406533D02*
X95701315Y-66406533D01*
X95701315Y-66406533D02*
X95934649Y-66673200D01*
X95934649Y-66673200D02*
X95834649Y-66673200D01*
X95834649Y-66673200D02*
X95767982Y-66706533D01*
X95767982Y-66706533D02*
X95734649Y-66739866D01*
X95734649Y-66739866D02*
X95701315Y-66806533D01*
X95701315Y-66806533D02*
X95701315Y-66973200D01*
X95701315Y-66973200D02*
X95734649Y-67039866D01*
X95734649Y-67039866D02*
X95767982Y-67073200D01*
X95767982Y-67073200D02*
X95834649Y-67106533D01*
X95834649Y-67106533D02*
X96034649Y-67106533D01*
X96034649Y-67106533D02*
X96101315Y-67073200D01*
X96101315Y-67073200D02*
X96134649Y-67039866D01*
X84534649Y-61906533D02*
X84534649Y-61206533D01*
X84534649Y-61206533D02*
X84267982Y-61206533D01*
X84267982Y-61206533D02*
X84201316Y-61239866D01*
X84201316Y-61239866D02*
X84167982Y-61273200D01*
X84167982Y-61273200D02*
X84134649Y-61339866D01*
X84134649Y-61339866D02*
X84134649Y-61439866D01*
X84134649Y-61439866D02*
X84167982Y-61506533D01*
X84167982Y-61506533D02*
X84201316Y-61539866D01*
X84201316Y-61539866D02*
X84267982Y-61573200D01*
X84267982Y-61573200D02*
X84534649Y-61573200D01*
X83534649Y-61206533D02*
X83667982Y-61206533D01*
X83667982Y-61206533D02*
X83734649Y-61239866D01*
X83734649Y-61239866D02*
X83767982Y-61273200D01*
X83767982Y-61273200D02*
X83834649Y-61373200D01*
X83834649Y-61373200D02*
X83867982Y-61506533D01*
X83867982Y-61506533D02*
X83867982Y-61773200D01*
X83867982Y-61773200D02*
X83834649Y-61839866D01*
X83834649Y-61839866D02*
X83801316Y-61873200D01*
X83801316Y-61873200D02*
X83734649Y-61906533D01*
X83734649Y-61906533D02*
X83601316Y-61906533D01*
X83601316Y-61906533D02*
X83534649Y-61873200D01*
X83534649Y-61873200D02*
X83501316Y-61839866D01*
X83501316Y-61839866D02*
X83467982Y-61773200D01*
X83467982Y-61773200D02*
X83467982Y-61606533D01*
X83467982Y-61606533D02*
X83501316Y-61539866D01*
X83501316Y-61539866D02*
X83534649Y-61506533D01*
X83534649Y-61506533D02*
X83601316Y-61473200D01*
X83601316Y-61473200D02*
X83734649Y-61473200D01*
X83734649Y-61473200D02*
X83801316Y-61506533D01*
X83801316Y-61506533D02*
X83834649Y-61539866D01*
X83834649Y-61539866D02*
X83867982Y-61606533D01*
X96967982Y-49406533D02*
X97367982Y-49406533D01*
X97167982Y-49406533D02*
X97167982Y-48706533D01*
X97167982Y-48706533D02*
X97234649Y-48806533D01*
X97234649Y-48806533D02*
X97301316Y-48873200D01*
X97301316Y-48873200D02*
X97367982Y-48906533D01*
X96767982Y-48706533D02*
X96534649Y-49406533D01*
X96534649Y-49406533D02*
X96301315Y-48706533D01*
X95701315Y-49406533D02*
X96101315Y-49406533D01*
X95901315Y-49406533D02*
X95901315Y-48706533D01*
X95901315Y-48706533D02*
X95967982Y-48806533D01*
X95967982Y-48806533D02*
X96034649Y-48873200D01*
X96034649Y-48873200D02*
X96101315Y-48906533D01*
X85234649Y-79706533D02*
X85234649Y-79006533D01*
X85234649Y-79006533D02*
X84967982Y-79006533D01*
X84967982Y-79006533D02*
X84901316Y-79039866D01*
X84901316Y-79039866D02*
X84867982Y-79073200D01*
X84867982Y-79073200D02*
X84834649Y-79139866D01*
X84834649Y-79139866D02*
X84834649Y-79239866D01*
X84834649Y-79239866D02*
X84867982Y-79306533D01*
X84867982Y-79306533D02*
X84901316Y-79339866D01*
X84901316Y-79339866D02*
X84967982Y-79373200D01*
X84967982Y-79373200D02*
X85234649Y-79373200D01*
X84167982Y-79706533D02*
X84567982Y-79706533D01*
X84367982Y-79706533D02*
X84367982Y-79006533D01*
X84367982Y-79006533D02*
X84434649Y-79106533D01*
X84434649Y-79106533D02*
X84501316Y-79173200D01*
X84501316Y-79173200D02*
X84567982Y-79206533D01*
X83901315Y-79073200D02*
X83867982Y-79039866D01*
X83867982Y-79039866D02*
X83801315Y-79006533D01*
X83801315Y-79006533D02*
X83634649Y-79006533D01*
X83634649Y-79006533D02*
X83567982Y-79039866D01*
X83567982Y-79039866D02*
X83534649Y-79073200D01*
X83534649Y-79073200D02*
X83501315Y-79139866D01*
X83501315Y-79139866D02*
X83501315Y-79206533D01*
X83501315Y-79206533D02*
X83534649Y-79306533D01*
X83534649Y-79306533D02*
X83934649Y-79706533D01*
X83934649Y-79706533D02*
X83501315Y-79706533D01*
X97434649Y-89906533D02*
X97434649Y-89206533D01*
X97434649Y-89206533D02*
X97167982Y-89206533D01*
X97167982Y-89206533D02*
X97101316Y-89239866D01*
X97101316Y-89239866D02*
X97067982Y-89273200D01*
X97067982Y-89273200D02*
X97034649Y-89339866D01*
X97034649Y-89339866D02*
X97034649Y-89439866D01*
X97034649Y-89439866D02*
X97067982Y-89506533D01*
X97067982Y-89506533D02*
X97101316Y-89539866D01*
X97101316Y-89539866D02*
X97167982Y-89573200D01*
X97167982Y-89573200D02*
X97434649Y-89573200D01*
X96367982Y-89906533D02*
X96767982Y-89906533D01*
X96567982Y-89906533D02*
X96567982Y-89206533D01*
X96567982Y-89206533D02*
X96634649Y-89306533D01*
X96634649Y-89306533D02*
X96701316Y-89373200D01*
X96701316Y-89373200D02*
X96767982Y-89406533D01*
X95767982Y-89206533D02*
X95901315Y-89206533D01*
X95901315Y-89206533D02*
X95967982Y-89239866D01*
X95967982Y-89239866D02*
X96001315Y-89273200D01*
X96001315Y-89273200D02*
X96067982Y-89373200D01*
X96067982Y-89373200D02*
X96101315Y-89506533D01*
X96101315Y-89506533D02*
X96101315Y-89773200D01*
X96101315Y-89773200D02*
X96067982Y-89839866D01*
X96067982Y-89839866D02*
X96034649Y-89873200D01*
X96034649Y-89873200D02*
X95967982Y-89906533D01*
X95967982Y-89906533D02*
X95834649Y-89906533D01*
X95834649Y-89906533D02*
X95767982Y-89873200D01*
X95767982Y-89873200D02*
X95734649Y-89839866D01*
X95734649Y-89839866D02*
X95701315Y-89773200D01*
X95701315Y-89773200D02*
X95701315Y-89606533D01*
X95701315Y-89606533D02*
X95734649Y-89539866D01*
X95734649Y-89539866D02*
X95767982Y-89506533D01*
X95767982Y-89506533D02*
X95834649Y-89473200D01*
X95834649Y-89473200D02*
X95967982Y-89473200D01*
X95967982Y-89473200D02*
X96034649Y-89506533D01*
X96034649Y-89506533D02*
X96067982Y-89539866D01*
X96067982Y-89539866D02*
X96101315Y-89606533D01*
X97434649Y-74806533D02*
X97434649Y-74106533D01*
X97434649Y-74106533D02*
X97167982Y-74106533D01*
X97167982Y-74106533D02*
X97101316Y-74139866D01*
X97101316Y-74139866D02*
X97067982Y-74173200D01*
X97067982Y-74173200D02*
X97034649Y-74239866D01*
X97034649Y-74239866D02*
X97034649Y-74339866D01*
X97034649Y-74339866D02*
X97067982Y-74406533D01*
X97067982Y-74406533D02*
X97101316Y-74439866D01*
X97101316Y-74439866D02*
X97167982Y-74473200D01*
X97167982Y-74473200D02*
X97434649Y-74473200D01*
X96767982Y-74173200D02*
X96734649Y-74139866D01*
X96734649Y-74139866D02*
X96667982Y-74106533D01*
X96667982Y-74106533D02*
X96501316Y-74106533D01*
X96501316Y-74106533D02*
X96434649Y-74139866D01*
X96434649Y-74139866D02*
X96401316Y-74173200D01*
X96401316Y-74173200D02*
X96367982Y-74239866D01*
X96367982Y-74239866D02*
X96367982Y-74306533D01*
X96367982Y-74306533D02*
X96401316Y-74406533D01*
X96401316Y-74406533D02*
X96801316Y-74806533D01*
X96801316Y-74806533D02*
X96367982Y-74806533D01*
X95701315Y-74806533D02*
X96101315Y-74806533D01*
X95901315Y-74806533D02*
X95901315Y-74106533D01*
X95901315Y-74106533D02*
X95967982Y-74206533D01*
X95967982Y-74206533D02*
X96034649Y-74273200D01*
X96034649Y-74273200D02*
X96101315Y-74306533D01*
X84334649Y-44206533D02*
X84334649Y-43506533D01*
X84334649Y-43506533D02*
X84067982Y-43506533D01*
X84067982Y-43506533D02*
X84001316Y-43539866D01*
X84001316Y-43539866D02*
X83967982Y-43573200D01*
X83967982Y-43573200D02*
X83934649Y-43639866D01*
X83934649Y-43639866D02*
X83934649Y-43739866D01*
X83934649Y-43739866D02*
X83967982Y-43806533D01*
X83967982Y-43806533D02*
X84001316Y-43839866D01*
X84001316Y-43839866D02*
X84067982Y-43873200D01*
X84067982Y-43873200D02*
X84334649Y-43873200D01*
X83267982Y-44206533D02*
X83667982Y-44206533D01*
X83467982Y-44206533D02*
X83467982Y-43506533D01*
X83467982Y-43506533D02*
X83534649Y-43606533D01*
X83534649Y-43606533D02*
X83601316Y-43673200D01*
X83601316Y-43673200D02*
X83667982Y-43706533D01*
X92934649Y-50106533D02*
X92934649Y-49406533D01*
X92934649Y-49406533D02*
X92767982Y-49406533D01*
X92767982Y-49406533D02*
X92667982Y-49439866D01*
X92667982Y-49439866D02*
X92601316Y-49506533D01*
X92601316Y-49506533D02*
X92567982Y-49573200D01*
X92567982Y-49573200D02*
X92534649Y-49706533D01*
X92534649Y-49706533D02*
X92534649Y-49806533D01*
X92534649Y-49806533D02*
X92567982Y-49939866D01*
X92567982Y-49939866D02*
X92601316Y-50006533D01*
X92601316Y-50006533D02*
X92667982Y-50073200D01*
X92667982Y-50073200D02*
X92767982Y-50106533D01*
X92767982Y-50106533D02*
X92934649Y-50106533D01*
X92234649Y-49839866D02*
X91701316Y-49839866D01*
X97434649Y-79906533D02*
X97434649Y-79206533D01*
X97434649Y-79206533D02*
X97167982Y-79206533D01*
X97167982Y-79206533D02*
X97101316Y-79239866D01*
X97101316Y-79239866D02*
X97067982Y-79273200D01*
X97067982Y-79273200D02*
X97034649Y-79339866D01*
X97034649Y-79339866D02*
X97034649Y-79439866D01*
X97034649Y-79439866D02*
X97067982Y-79506533D01*
X97067982Y-79506533D02*
X97101316Y-79539866D01*
X97101316Y-79539866D02*
X97167982Y-79573200D01*
X97167982Y-79573200D02*
X97434649Y-79573200D01*
X96367982Y-79906533D02*
X96767982Y-79906533D01*
X96567982Y-79906533D02*
X96567982Y-79206533D01*
X96567982Y-79206533D02*
X96634649Y-79306533D01*
X96634649Y-79306533D02*
X96701316Y-79373200D01*
X96701316Y-79373200D02*
X96767982Y-79406533D01*
X96034649Y-79906533D02*
X95901315Y-79906533D01*
X95901315Y-79906533D02*
X95834649Y-79873200D01*
X95834649Y-79873200D02*
X95801315Y-79839866D01*
X95801315Y-79839866D02*
X95734649Y-79739866D01*
X95734649Y-79739866D02*
X95701315Y-79606533D01*
X95701315Y-79606533D02*
X95701315Y-79339866D01*
X95701315Y-79339866D02*
X95734649Y-79273200D01*
X95734649Y-79273200D02*
X95767982Y-79239866D01*
X95767982Y-79239866D02*
X95834649Y-79206533D01*
X95834649Y-79206533D02*
X95967982Y-79206533D01*
X95967982Y-79206533D02*
X96034649Y-79239866D01*
X96034649Y-79239866D02*
X96067982Y-79273200D01*
X96067982Y-79273200D02*
X96101315Y-79339866D01*
X96101315Y-79339866D02*
X96101315Y-79506533D01*
X96101315Y-79506533D02*
X96067982Y-79573200D01*
X96067982Y-79573200D02*
X96034649Y-79606533D01*
X96034649Y-79606533D02*
X95967982Y-79639866D01*
X95967982Y-79639866D02*
X95834649Y-79639866D01*
X95834649Y-79639866D02*
X95767982Y-79606533D01*
X95767982Y-79606533D02*
X95734649Y-79573200D01*
X95734649Y-79573200D02*
X95701315Y-79506533D01*
X84967982Y-71539866D02*
X85034649Y-71506533D01*
X85034649Y-71506533D02*
X85134649Y-71506533D01*
X85134649Y-71506533D02*
X85234649Y-71539866D01*
X85234649Y-71539866D02*
X85301316Y-71606533D01*
X85301316Y-71606533D02*
X85334649Y-71673200D01*
X85334649Y-71673200D02*
X85367982Y-71806533D01*
X85367982Y-71806533D02*
X85367982Y-71906533D01*
X85367982Y-71906533D02*
X85334649Y-72039866D01*
X85334649Y-72039866D02*
X85301316Y-72106533D01*
X85301316Y-72106533D02*
X85234649Y-72173200D01*
X85234649Y-72173200D02*
X85134649Y-72206533D01*
X85134649Y-72206533D02*
X85067982Y-72206533D01*
X85067982Y-72206533D02*
X84967982Y-72173200D01*
X84967982Y-72173200D02*
X84934649Y-72139866D01*
X84934649Y-72139866D02*
X84934649Y-71906533D01*
X84934649Y-71906533D02*
X85067982Y-71906533D01*
X84634649Y-72206533D02*
X84634649Y-71506533D01*
X84634649Y-71506533D02*
X84234649Y-72206533D01*
X84234649Y-72206533D02*
X84234649Y-71506533D01*
X83901316Y-72206533D02*
X83901316Y-71506533D01*
X83901316Y-71506533D02*
X83734649Y-71506533D01*
X83734649Y-71506533D02*
X83634649Y-71539866D01*
X83634649Y-71539866D02*
X83567983Y-71606533D01*
X83567983Y-71606533D02*
X83534649Y-71673200D01*
X83534649Y-71673200D02*
X83501316Y-71806533D01*
X83501316Y-71806533D02*
X83501316Y-71906533D01*
X83501316Y-71906533D02*
X83534649Y-72039866D01*
X83534649Y-72039866D02*
X83567983Y-72106533D01*
X83567983Y-72106533D02*
X83634649Y-72173200D01*
X83634649Y-72173200D02*
X83734649Y-72206533D01*
X83734649Y-72206533D02*
X83901316Y-72206533D01*
X97434649Y-87506533D02*
X97434649Y-86806533D01*
X97434649Y-86806533D02*
X97167982Y-86806533D01*
X97167982Y-86806533D02*
X97101316Y-86839866D01*
X97101316Y-86839866D02*
X97067982Y-86873200D01*
X97067982Y-86873200D02*
X97034649Y-86939866D01*
X97034649Y-86939866D02*
X97034649Y-87039866D01*
X97034649Y-87039866D02*
X97067982Y-87106533D01*
X97067982Y-87106533D02*
X97101316Y-87139866D01*
X97101316Y-87139866D02*
X97167982Y-87173200D01*
X97167982Y-87173200D02*
X97434649Y-87173200D01*
X96367982Y-87506533D02*
X96767982Y-87506533D01*
X96567982Y-87506533D02*
X96567982Y-86806533D01*
X96567982Y-86806533D02*
X96634649Y-86906533D01*
X96634649Y-86906533D02*
X96701316Y-86973200D01*
X96701316Y-86973200D02*
X96767982Y-87006533D01*
X96134649Y-86806533D02*
X95667982Y-86806533D01*
X95667982Y-86806533D02*
X95967982Y-87506533D01*
X89734649Y-50106533D02*
X89734649Y-49406533D01*
X89734649Y-49406533D02*
X89567982Y-49406533D01*
X89567982Y-49406533D02*
X89467982Y-49439866D01*
X89467982Y-49439866D02*
X89401316Y-49506533D01*
X89401316Y-49506533D02*
X89367982Y-49573200D01*
X89367982Y-49573200D02*
X89334649Y-49706533D01*
X89334649Y-49706533D02*
X89334649Y-49806533D01*
X89334649Y-49806533D02*
X89367982Y-49939866D01*
X89367982Y-49939866D02*
X89401316Y-50006533D01*
X89401316Y-50006533D02*
X89467982Y-50073200D01*
X89467982Y-50073200D02*
X89567982Y-50106533D01*
X89567982Y-50106533D02*
X89734649Y-50106533D01*
X89034649Y-49839866D02*
X88501316Y-49839866D01*
X88767982Y-50106533D02*
X88767982Y-49573200D01*
X85234649Y-89906533D02*
X85234649Y-89206533D01*
X85234649Y-89206533D02*
X84967982Y-89206533D01*
X84967982Y-89206533D02*
X84901316Y-89239866D01*
X84901316Y-89239866D02*
X84867982Y-89273200D01*
X84867982Y-89273200D02*
X84834649Y-89339866D01*
X84834649Y-89339866D02*
X84834649Y-89439866D01*
X84834649Y-89439866D02*
X84867982Y-89506533D01*
X84867982Y-89506533D02*
X84901316Y-89539866D01*
X84901316Y-89539866D02*
X84967982Y-89573200D01*
X84967982Y-89573200D02*
X85234649Y-89573200D01*
X84167982Y-89906533D02*
X84567982Y-89906533D01*
X84367982Y-89906533D02*
X84367982Y-89206533D01*
X84367982Y-89206533D02*
X84434649Y-89306533D01*
X84434649Y-89306533D02*
X84501316Y-89373200D01*
X84501316Y-89373200D02*
X84567982Y-89406533D01*
X83534649Y-89206533D02*
X83867982Y-89206533D01*
X83867982Y-89206533D02*
X83901315Y-89539866D01*
X83901315Y-89539866D02*
X83867982Y-89506533D01*
X83867982Y-89506533D02*
X83801315Y-89473200D01*
X83801315Y-89473200D02*
X83634649Y-89473200D01*
X83634649Y-89473200D02*
X83567982Y-89506533D01*
X83567982Y-89506533D02*
X83534649Y-89539866D01*
X83534649Y-89539866D02*
X83501315Y-89606533D01*
X83501315Y-89606533D02*
X83501315Y-89773200D01*
X83501315Y-89773200D02*
X83534649Y-89839866D01*
X83534649Y-89839866D02*
X83567982Y-89873200D01*
X83567982Y-89873200D02*
X83634649Y-89906533D01*
X83634649Y-89906533D02*
X83801315Y-89906533D01*
X83801315Y-89906533D02*
X83867982Y-89873200D01*
X83867982Y-89873200D02*
X83901315Y-89839866D01*
X97067982Y-84139866D02*
X97134649Y-84106533D01*
X97134649Y-84106533D02*
X97234649Y-84106533D01*
X97234649Y-84106533D02*
X97334649Y-84139866D01*
X97334649Y-84139866D02*
X97401316Y-84206533D01*
X97401316Y-84206533D02*
X97434649Y-84273200D01*
X97434649Y-84273200D02*
X97467982Y-84406533D01*
X97467982Y-84406533D02*
X97467982Y-84506533D01*
X97467982Y-84506533D02*
X97434649Y-84639866D01*
X97434649Y-84639866D02*
X97401316Y-84706533D01*
X97401316Y-84706533D02*
X97334649Y-84773200D01*
X97334649Y-84773200D02*
X97234649Y-84806533D01*
X97234649Y-84806533D02*
X97167982Y-84806533D01*
X97167982Y-84806533D02*
X97067982Y-84773200D01*
X97067982Y-84773200D02*
X97034649Y-84739866D01*
X97034649Y-84739866D02*
X97034649Y-84506533D01*
X97034649Y-84506533D02*
X97167982Y-84506533D01*
X96734649Y-84806533D02*
X96734649Y-84106533D01*
X96734649Y-84106533D02*
X96334649Y-84806533D01*
X96334649Y-84806533D02*
X96334649Y-84106533D01*
X96001316Y-84806533D02*
X96001316Y-84106533D01*
X96001316Y-84106533D02*
X95834649Y-84106533D01*
X95834649Y-84106533D02*
X95734649Y-84139866D01*
X95734649Y-84139866D02*
X95667983Y-84206533D01*
X95667983Y-84206533D02*
X95634649Y-84273200D01*
X95634649Y-84273200D02*
X95601316Y-84406533D01*
X95601316Y-84406533D02*
X95601316Y-84506533D01*
X95601316Y-84506533D02*
X95634649Y-84639866D01*
X95634649Y-84639866D02*
X95667983Y-84706533D01*
X95667983Y-84706533D02*
X95734649Y-84773200D01*
X95734649Y-84773200D02*
X95834649Y-84806533D01*
X95834649Y-84806533D02*
X96001316Y-84806533D01*
X84434649Y-51806533D02*
X84434649Y-51106533D01*
X84434649Y-51106533D02*
X84167982Y-51106533D01*
X84167982Y-51106533D02*
X84101316Y-51139866D01*
X84101316Y-51139866D02*
X84067982Y-51173200D01*
X84067982Y-51173200D02*
X84034649Y-51239866D01*
X84034649Y-51239866D02*
X84034649Y-51339866D01*
X84034649Y-51339866D02*
X84067982Y-51406533D01*
X84067982Y-51406533D02*
X84101316Y-51439866D01*
X84101316Y-51439866D02*
X84167982Y-51473200D01*
X84167982Y-51473200D02*
X84434649Y-51473200D01*
X83801316Y-51106533D02*
X83367982Y-51106533D01*
X83367982Y-51106533D02*
X83601316Y-51373200D01*
X83601316Y-51373200D02*
X83501316Y-51373200D01*
X83501316Y-51373200D02*
X83434649Y-51406533D01*
X83434649Y-51406533D02*
X83401316Y-51439866D01*
X83401316Y-51439866D02*
X83367982Y-51506533D01*
X83367982Y-51506533D02*
X83367982Y-51673200D01*
X83367982Y-51673200D02*
X83401316Y-51739866D01*
X83401316Y-51739866D02*
X83434649Y-51773200D01*
X83434649Y-51773200D02*
X83501316Y-51806533D01*
X83501316Y-51806533D02*
X83701316Y-51806533D01*
X83701316Y-51806533D02*
X83767982Y-51773200D01*
X83767982Y-51773200D02*
X83801316Y-51739866D01*
X84534649Y-64506533D02*
X84534649Y-63806533D01*
X84534649Y-63806533D02*
X84267982Y-63806533D01*
X84267982Y-63806533D02*
X84201316Y-63839866D01*
X84201316Y-63839866D02*
X84167982Y-63873200D01*
X84167982Y-63873200D02*
X84134649Y-63939866D01*
X84134649Y-63939866D02*
X84134649Y-64039866D01*
X84134649Y-64039866D02*
X84167982Y-64106533D01*
X84167982Y-64106533D02*
X84201316Y-64139866D01*
X84201316Y-64139866D02*
X84267982Y-64173200D01*
X84267982Y-64173200D02*
X84534649Y-64173200D01*
X83901316Y-63806533D02*
X83434649Y-63806533D01*
X83434649Y-63806533D02*
X83734649Y-64506533D01*
X93201316Y-53739866D02*
X93434649Y-53739866D01*
X93434649Y-54106533D02*
X93434649Y-53406533D01*
X93434649Y-53406533D02*
X93101316Y-53406533D01*
X92501316Y-54106533D02*
X92834649Y-54106533D01*
X92834649Y-54106533D02*
X92834649Y-53406533D01*
X92301315Y-53906533D02*
X91967982Y-53906533D01*
X92367982Y-54106533D02*
X92134649Y-53406533D01*
X92134649Y-53406533D02*
X91901315Y-54106533D01*
X91701315Y-54073200D02*
X91601315Y-54106533D01*
X91601315Y-54106533D02*
X91434649Y-54106533D01*
X91434649Y-54106533D02*
X91367982Y-54073200D01*
X91367982Y-54073200D02*
X91334649Y-54039866D01*
X91334649Y-54039866D02*
X91301315Y-53973200D01*
X91301315Y-53973200D02*
X91301315Y-53906533D01*
X91301315Y-53906533D02*
X91334649Y-53839866D01*
X91334649Y-53839866D02*
X91367982Y-53806533D01*
X91367982Y-53806533D02*
X91434649Y-53773200D01*
X91434649Y-53773200D02*
X91567982Y-53739866D01*
X91567982Y-53739866D02*
X91634649Y-53706533D01*
X91634649Y-53706533D02*
X91667982Y-53673200D01*
X91667982Y-53673200D02*
X91701315Y-53606533D01*
X91701315Y-53606533D02*
X91701315Y-53539866D01*
X91701315Y-53539866D02*
X91667982Y-53473200D01*
X91667982Y-53473200D02*
X91634649Y-53439866D01*
X91634649Y-53439866D02*
X91567982Y-53406533D01*
X91567982Y-53406533D02*
X91401315Y-53406533D01*
X91401315Y-53406533D02*
X91301315Y-53439866D01*
X91001315Y-54106533D02*
X91001315Y-53406533D01*
X91001315Y-53739866D02*
X90601315Y-53739866D01*
X90601315Y-54106533D02*
X90601315Y-53406533D01*
X90434649Y-54173200D02*
X89901315Y-54173200D01*
X89767982Y-54073200D02*
X89667982Y-54106533D01*
X89667982Y-54106533D02*
X89501316Y-54106533D01*
X89501316Y-54106533D02*
X89434649Y-54073200D01*
X89434649Y-54073200D02*
X89401316Y-54039866D01*
X89401316Y-54039866D02*
X89367982Y-53973200D01*
X89367982Y-53973200D02*
X89367982Y-53906533D01*
X89367982Y-53906533D02*
X89401316Y-53839866D01*
X89401316Y-53839866D02*
X89434649Y-53806533D01*
X89434649Y-53806533D02*
X89501316Y-53773200D01*
X89501316Y-53773200D02*
X89634649Y-53739866D01*
X89634649Y-53739866D02*
X89701316Y-53706533D01*
X89701316Y-53706533D02*
X89734649Y-53673200D01*
X89734649Y-53673200D02*
X89767982Y-53606533D01*
X89767982Y-53606533D02*
X89767982Y-53539866D01*
X89767982Y-53539866D02*
X89734649Y-53473200D01*
X89734649Y-53473200D02*
X89701316Y-53439866D01*
X89701316Y-53439866D02*
X89634649Y-53406533D01*
X89634649Y-53406533D02*
X89467982Y-53406533D01*
X89467982Y-53406533D02*
X89367982Y-53439866D01*
X89101315Y-54073200D02*
X89001315Y-54106533D01*
X89001315Y-54106533D02*
X88834649Y-54106533D01*
X88834649Y-54106533D02*
X88767982Y-54073200D01*
X88767982Y-54073200D02*
X88734649Y-54039866D01*
X88734649Y-54039866D02*
X88701315Y-53973200D01*
X88701315Y-53973200D02*
X88701315Y-53906533D01*
X88701315Y-53906533D02*
X88734649Y-53839866D01*
X88734649Y-53839866D02*
X88767982Y-53806533D01*
X88767982Y-53806533D02*
X88834649Y-53773200D01*
X88834649Y-53773200D02*
X88967982Y-53739866D01*
X88967982Y-53739866D02*
X89034649Y-53706533D01*
X89034649Y-53706533D02*
X89067982Y-53673200D01*
X89067982Y-53673200D02*
X89101315Y-53606533D01*
X89101315Y-53606533D02*
X89101315Y-53539866D01*
X89101315Y-53539866D02*
X89067982Y-53473200D01*
X89067982Y-53473200D02*
X89034649Y-53439866D01*
X89034649Y-53439866D02*
X88967982Y-53406533D01*
X88967982Y-53406533D02*
X88801315Y-53406533D01*
X88801315Y-53406533D02*
X88701315Y-53439866D01*
X85234649Y-74606533D02*
X85234649Y-73906533D01*
X85234649Y-73906533D02*
X84967982Y-73906533D01*
X84967982Y-73906533D02*
X84901316Y-73939866D01*
X84901316Y-73939866D02*
X84867982Y-73973200D01*
X84867982Y-73973200D02*
X84834649Y-74039866D01*
X84834649Y-74039866D02*
X84834649Y-74139866D01*
X84834649Y-74139866D02*
X84867982Y-74206533D01*
X84867982Y-74206533D02*
X84901316Y-74239866D01*
X84901316Y-74239866D02*
X84967982Y-74273200D01*
X84967982Y-74273200D02*
X85234649Y-74273200D01*
X84167982Y-74606533D02*
X84567982Y-74606533D01*
X84367982Y-74606533D02*
X84367982Y-73906533D01*
X84367982Y-73906533D02*
X84434649Y-74006533D01*
X84434649Y-74006533D02*
X84501316Y-74073200D01*
X84501316Y-74073200D02*
X84567982Y-74106533D01*
X83734649Y-73906533D02*
X83667982Y-73906533D01*
X83667982Y-73906533D02*
X83601315Y-73939866D01*
X83601315Y-73939866D02*
X83567982Y-73973200D01*
X83567982Y-73973200D02*
X83534649Y-74039866D01*
X83534649Y-74039866D02*
X83501315Y-74173200D01*
X83501315Y-74173200D02*
X83501315Y-74339866D01*
X83501315Y-74339866D02*
X83534649Y-74473200D01*
X83534649Y-74473200D02*
X83567982Y-74539866D01*
X83567982Y-74539866D02*
X83601315Y-74573200D01*
X83601315Y-74573200D02*
X83667982Y-74606533D01*
X83667982Y-74606533D02*
X83734649Y-74606533D01*
X83734649Y-74606533D02*
X83801315Y-74573200D01*
X83801315Y-74573200D02*
X83834649Y-74539866D01*
X83834649Y-74539866D02*
X83867982Y-74473200D01*
X83867982Y-74473200D02*
X83901315Y-74339866D01*
X83901315Y-74339866D02*
X83901315Y-74173200D01*
X83901315Y-74173200D02*
X83867982Y-74039866D01*
X83867982Y-74039866D02*
X83834649Y-73973200D01*
X83834649Y-73973200D02*
X83801315Y-73939866D01*
X83801315Y-73939866D02*
X83734649Y-73906533D01*
X92134649Y-59206533D02*
X92367982Y-58873200D01*
X92534649Y-59206533D02*
X92534649Y-58506533D01*
X92534649Y-58506533D02*
X92267982Y-58506533D01*
X92267982Y-58506533D02*
X92201316Y-58539866D01*
X92201316Y-58539866D02*
X92167982Y-58573200D01*
X92167982Y-58573200D02*
X92134649Y-58639866D01*
X92134649Y-58639866D02*
X92134649Y-58739866D01*
X92134649Y-58739866D02*
X92167982Y-58806533D01*
X92167982Y-58806533D02*
X92201316Y-58839866D01*
X92201316Y-58839866D02*
X92267982Y-58873200D01*
X92267982Y-58873200D02*
X92534649Y-58873200D01*
X91834649Y-58506533D02*
X91834649Y-59073200D01*
X91834649Y-59073200D02*
X91801316Y-59139866D01*
X91801316Y-59139866D02*
X91767982Y-59173200D01*
X91767982Y-59173200D02*
X91701316Y-59206533D01*
X91701316Y-59206533D02*
X91567982Y-59206533D01*
X91567982Y-59206533D02*
X91501316Y-59173200D01*
X91501316Y-59173200D02*
X91467982Y-59139866D01*
X91467982Y-59139866D02*
X91434649Y-59073200D01*
X91434649Y-59073200D02*
X91434649Y-58506533D01*
X91101316Y-59206533D02*
X91101316Y-58506533D01*
X91101316Y-58506533D02*
X90701316Y-59206533D01*
X90701316Y-59206533D02*
X90701316Y-58506533D01*
X89867983Y-58473200D02*
X90467983Y-59373200D01*
X89234650Y-59206533D02*
X89467983Y-58873200D01*
X89634650Y-59206533D02*
X89634650Y-58506533D01*
X89634650Y-58506533D02*
X89367983Y-58506533D01*
X89367983Y-58506533D02*
X89301317Y-58539866D01*
X89301317Y-58539866D02*
X89267983Y-58573200D01*
X89267983Y-58573200D02*
X89234650Y-58639866D01*
X89234650Y-58639866D02*
X89234650Y-58739866D01*
X89234650Y-58739866D02*
X89267983Y-58806533D01*
X89267983Y-58806533D02*
X89301317Y-58839866D01*
X89301317Y-58839866D02*
X89367983Y-58873200D01*
X89367983Y-58873200D02*
X89634650Y-58873200D01*
X88934650Y-58839866D02*
X88701317Y-58839866D01*
X88601317Y-59206533D02*
X88934650Y-59206533D01*
X88934650Y-59206533D02*
X88934650Y-58506533D01*
X88934650Y-58506533D02*
X88601317Y-58506533D01*
X88334650Y-59173200D02*
X88234650Y-59206533D01*
X88234650Y-59206533D02*
X88067984Y-59206533D01*
X88067984Y-59206533D02*
X88001317Y-59173200D01*
X88001317Y-59173200D02*
X87967984Y-59139866D01*
X87967984Y-59139866D02*
X87934650Y-59073200D01*
X87934650Y-59073200D02*
X87934650Y-59006533D01*
X87934650Y-59006533D02*
X87967984Y-58939866D01*
X87967984Y-58939866D02*
X88001317Y-58906533D01*
X88001317Y-58906533D02*
X88067984Y-58873200D01*
X88067984Y-58873200D02*
X88201317Y-58839866D01*
X88201317Y-58839866D02*
X88267984Y-58806533D01*
X88267984Y-58806533D02*
X88301317Y-58773200D01*
X88301317Y-58773200D02*
X88334650Y-58706533D01*
X88334650Y-58706533D02*
X88334650Y-58639866D01*
X88334650Y-58639866D02*
X88301317Y-58573200D01*
X88301317Y-58573200D02*
X88267984Y-58539866D01*
X88267984Y-58539866D02*
X88201317Y-58506533D01*
X88201317Y-58506533D02*
X88034650Y-58506533D01*
X88034650Y-58506533D02*
X87934650Y-58539866D01*
X87634650Y-58839866D02*
X87401317Y-58839866D01*
X87301317Y-59206533D02*
X87634650Y-59206533D01*
X87634650Y-59206533D02*
X87634650Y-58506533D01*
X87634650Y-58506533D02*
X87301317Y-58506533D01*
X87101317Y-58506533D02*
X86701317Y-58506533D01*
X86901317Y-59206533D02*
X86901317Y-58506533D01*
X97434649Y-41106533D02*
X97201316Y-41806533D01*
X97201316Y-41806533D02*
X96967982Y-41106533D01*
X96501316Y-41439866D02*
X96401316Y-41473200D01*
X96401316Y-41473200D02*
X96367982Y-41506533D01*
X96367982Y-41506533D02*
X96334649Y-41573200D01*
X96334649Y-41573200D02*
X96334649Y-41673200D01*
X96334649Y-41673200D02*
X96367982Y-41739866D01*
X96367982Y-41739866D02*
X96401316Y-41773200D01*
X96401316Y-41773200D02*
X96467982Y-41806533D01*
X96467982Y-41806533D02*
X96734649Y-41806533D01*
X96734649Y-41806533D02*
X96734649Y-41106533D01*
X96734649Y-41106533D02*
X96501316Y-41106533D01*
X96501316Y-41106533D02*
X96434649Y-41139866D01*
X96434649Y-41139866D02*
X96401316Y-41173200D01*
X96401316Y-41173200D02*
X96367982Y-41239866D01*
X96367982Y-41239866D02*
X96367982Y-41306533D01*
X96367982Y-41306533D02*
X96401316Y-41373200D01*
X96401316Y-41373200D02*
X96434649Y-41406533D01*
X96434649Y-41406533D02*
X96501316Y-41439866D01*
X96501316Y-41439866D02*
X96734649Y-41439866D01*
X96034649Y-41106533D02*
X96034649Y-41673200D01*
X96034649Y-41673200D02*
X96001316Y-41739866D01*
X96001316Y-41739866D02*
X95967982Y-41773200D01*
X95967982Y-41773200D02*
X95901316Y-41806533D01*
X95901316Y-41806533D02*
X95767982Y-41806533D01*
X95767982Y-41806533D02*
X95701316Y-41773200D01*
X95701316Y-41773200D02*
X95667982Y-41739866D01*
X95667982Y-41739866D02*
X95634649Y-41673200D01*
X95634649Y-41673200D02*
X95634649Y-41106533D01*
X95334649Y-41773200D02*
X95234649Y-41806533D01*
X95234649Y-41806533D02*
X95067983Y-41806533D01*
X95067983Y-41806533D02*
X95001316Y-41773200D01*
X95001316Y-41773200D02*
X94967983Y-41739866D01*
X94967983Y-41739866D02*
X94934649Y-41673200D01*
X94934649Y-41673200D02*
X94934649Y-41606533D01*
X94934649Y-41606533D02*
X94967983Y-41539866D01*
X94967983Y-41539866D02*
X95001316Y-41506533D01*
X95001316Y-41506533D02*
X95067983Y-41473200D01*
X95067983Y-41473200D02*
X95201316Y-41439866D01*
X95201316Y-41439866D02*
X95267983Y-41406533D01*
X95267983Y-41406533D02*
X95301316Y-41373200D01*
X95301316Y-41373200D02*
X95334649Y-41306533D01*
X95334649Y-41306533D02*
X95334649Y-41239866D01*
X95334649Y-41239866D02*
X95301316Y-41173200D01*
X95301316Y-41173200D02*
X95267983Y-41139866D01*
X95267983Y-41139866D02*
X95201316Y-41106533D01*
X95201316Y-41106533D02*
X95034649Y-41106533D01*
X95034649Y-41106533D02*
X94934649Y-41139866D01*
X97334649Y-62006533D02*
X97334649Y-61306533D01*
X97334649Y-61306533D02*
X97067982Y-61306533D01*
X97067982Y-61306533D02*
X97001316Y-61339866D01*
X97001316Y-61339866D02*
X96967982Y-61373200D01*
X96967982Y-61373200D02*
X96934649Y-61439866D01*
X96934649Y-61439866D02*
X96934649Y-61539866D01*
X96934649Y-61539866D02*
X96967982Y-61606533D01*
X96967982Y-61606533D02*
X97001316Y-61639866D01*
X97001316Y-61639866D02*
X97067982Y-61673200D01*
X97067982Y-61673200D02*
X97334649Y-61673200D01*
X96667982Y-61373200D02*
X96634649Y-61339866D01*
X96634649Y-61339866D02*
X96567982Y-61306533D01*
X96567982Y-61306533D02*
X96401316Y-61306533D01*
X96401316Y-61306533D02*
X96334649Y-61339866D01*
X96334649Y-61339866D02*
X96301316Y-61373200D01*
X96301316Y-61373200D02*
X96267982Y-61439866D01*
X96267982Y-61439866D02*
X96267982Y-61506533D01*
X96267982Y-61506533D02*
X96301316Y-61606533D01*
X96301316Y-61606533D02*
X96701316Y-62006533D01*
X96701316Y-62006533D02*
X96267982Y-62006533D01*
X96034649Y-61306533D02*
X95567982Y-61306533D01*
X95567982Y-61306533D02*
X95867982Y-62006533D01*
X84434649Y-41606533D02*
X84434649Y-40906533D01*
X84434649Y-40906533D02*
X84167982Y-40906533D01*
X84167982Y-40906533D02*
X84101316Y-40939866D01*
X84101316Y-40939866D02*
X84067982Y-40973200D01*
X84067982Y-40973200D02*
X84034649Y-41039866D01*
X84034649Y-41039866D02*
X84034649Y-41139866D01*
X84034649Y-41139866D02*
X84067982Y-41206533D01*
X84067982Y-41206533D02*
X84101316Y-41239866D01*
X84101316Y-41239866D02*
X84167982Y-41273200D01*
X84167982Y-41273200D02*
X84434649Y-41273200D01*
X83601316Y-40906533D02*
X83534649Y-40906533D01*
X83534649Y-40906533D02*
X83467982Y-40939866D01*
X83467982Y-40939866D02*
X83434649Y-40973200D01*
X83434649Y-40973200D02*
X83401316Y-41039866D01*
X83401316Y-41039866D02*
X83367982Y-41173200D01*
X83367982Y-41173200D02*
X83367982Y-41339866D01*
X83367982Y-41339866D02*
X83401316Y-41473200D01*
X83401316Y-41473200D02*
X83434649Y-41539866D01*
X83434649Y-41539866D02*
X83467982Y-41573200D01*
X83467982Y-41573200D02*
X83534649Y-41606533D01*
X83534649Y-41606533D02*
X83601316Y-41606533D01*
X83601316Y-41606533D02*
X83667982Y-41573200D01*
X83667982Y-41573200D02*
X83701316Y-41539866D01*
X83701316Y-41539866D02*
X83734649Y-41473200D01*
X83734649Y-41473200D02*
X83767982Y-41339866D01*
X83767982Y-41339866D02*
X83767982Y-41173200D01*
X83767982Y-41173200D02*
X83734649Y-41039866D01*
X83734649Y-41039866D02*
X83701316Y-40973200D01*
X83701316Y-40973200D02*
X83667982Y-40939866D01*
X83667982Y-40939866D02*
X83601316Y-40906533D01*
X97067982Y-71439866D02*
X97134649Y-71406533D01*
X97134649Y-71406533D02*
X97234649Y-71406533D01*
X97234649Y-71406533D02*
X97334649Y-71439866D01*
X97334649Y-71439866D02*
X97401316Y-71506533D01*
X97401316Y-71506533D02*
X97434649Y-71573200D01*
X97434649Y-71573200D02*
X97467982Y-71706533D01*
X97467982Y-71706533D02*
X97467982Y-71806533D01*
X97467982Y-71806533D02*
X97434649Y-71939866D01*
X97434649Y-71939866D02*
X97401316Y-72006533D01*
X97401316Y-72006533D02*
X97334649Y-72073200D01*
X97334649Y-72073200D02*
X97234649Y-72106533D01*
X97234649Y-72106533D02*
X97167982Y-72106533D01*
X97167982Y-72106533D02*
X97067982Y-72073200D01*
X97067982Y-72073200D02*
X97034649Y-72039866D01*
X97034649Y-72039866D02*
X97034649Y-71806533D01*
X97034649Y-71806533D02*
X97167982Y-71806533D01*
X96734649Y-72106533D02*
X96734649Y-71406533D01*
X96734649Y-71406533D02*
X96334649Y-72106533D01*
X96334649Y-72106533D02*
X96334649Y-71406533D01*
X96001316Y-72106533D02*
X96001316Y-71406533D01*
X96001316Y-71406533D02*
X95834649Y-71406533D01*
X95834649Y-71406533D02*
X95734649Y-71439866D01*
X95734649Y-71439866D02*
X95667983Y-71506533D01*
X95667983Y-71506533D02*
X95634649Y-71573200D01*
X95634649Y-71573200D02*
X95601316Y-71706533D01*
X95601316Y-71706533D02*
X95601316Y-71806533D01*
X95601316Y-71806533D02*
X95634649Y-71939866D01*
X95634649Y-71939866D02*
X95667983Y-72006533D01*
X95667983Y-72006533D02*
X95734649Y-72073200D01*
X95734649Y-72073200D02*
X95834649Y-72106533D01*
X95834649Y-72106533D02*
X96001316Y-72106533D01*
X84534649Y-67106533D02*
X84534649Y-66406533D01*
X84534649Y-66406533D02*
X84267982Y-66406533D01*
X84267982Y-66406533D02*
X84201316Y-66439866D01*
X84201316Y-66439866D02*
X84167982Y-66473200D01*
X84167982Y-66473200D02*
X84134649Y-66539866D01*
X84134649Y-66539866D02*
X84134649Y-66639866D01*
X84134649Y-66639866D02*
X84167982Y-66706533D01*
X84167982Y-66706533D02*
X84201316Y-66739866D01*
X84201316Y-66739866D02*
X84267982Y-66773200D01*
X84267982Y-66773200D02*
X84534649Y-66773200D01*
X83734649Y-66706533D02*
X83801316Y-66673200D01*
X83801316Y-66673200D02*
X83834649Y-66639866D01*
X83834649Y-66639866D02*
X83867982Y-66573200D01*
X83867982Y-66573200D02*
X83867982Y-66539866D01*
X83867982Y-66539866D02*
X83834649Y-66473200D01*
X83834649Y-66473200D02*
X83801316Y-66439866D01*
X83801316Y-66439866D02*
X83734649Y-66406533D01*
X83734649Y-66406533D02*
X83601316Y-66406533D01*
X83601316Y-66406533D02*
X83534649Y-66439866D01*
X83534649Y-66439866D02*
X83501316Y-66473200D01*
X83501316Y-66473200D02*
X83467982Y-66539866D01*
X83467982Y-66539866D02*
X83467982Y-66573200D01*
X83467982Y-66573200D02*
X83501316Y-66639866D01*
X83501316Y-66639866D02*
X83534649Y-66673200D01*
X83534649Y-66673200D02*
X83601316Y-66706533D01*
X83601316Y-66706533D02*
X83734649Y-66706533D01*
X83734649Y-66706533D02*
X83801316Y-66739866D01*
X83801316Y-66739866D02*
X83834649Y-66773200D01*
X83834649Y-66773200D02*
X83867982Y-66839866D01*
X83867982Y-66839866D02*
X83867982Y-66973200D01*
X83867982Y-66973200D02*
X83834649Y-67039866D01*
X83834649Y-67039866D02*
X83801316Y-67073200D01*
X83801316Y-67073200D02*
X83734649Y-67106533D01*
X83734649Y-67106533D02*
X83601316Y-67106533D01*
X83601316Y-67106533D02*
X83534649Y-67073200D01*
X83534649Y-67073200D02*
X83501316Y-67039866D01*
X83501316Y-67039866D02*
X83467982Y-66973200D01*
X83467982Y-66973200D02*
X83467982Y-66839866D01*
X83467982Y-66839866D02*
X83501316Y-66773200D01*
X83501316Y-66773200D02*
X83534649Y-66739866D01*
X83534649Y-66739866D02*
X83601316Y-66706533D01*
X96967982Y-58739866D02*
X97034649Y-58706533D01*
X97034649Y-58706533D02*
X97134649Y-58706533D01*
X97134649Y-58706533D02*
X97234649Y-58739866D01*
X97234649Y-58739866D02*
X97301316Y-58806533D01*
X97301316Y-58806533D02*
X97334649Y-58873200D01*
X97334649Y-58873200D02*
X97367982Y-59006533D01*
X97367982Y-59006533D02*
X97367982Y-59106533D01*
X97367982Y-59106533D02*
X97334649Y-59239866D01*
X97334649Y-59239866D02*
X97301316Y-59306533D01*
X97301316Y-59306533D02*
X97234649Y-59373200D01*
X97234649Y-59373200D02*
X97134649Y-59406533D01*
X97134649Y-59406533D02*
X97067982Y-59406533D01*
X97067982Y-59406533D02*
X96967982Y-59373200D01*
X96967982Y-59373200D02*
X96934649Y-59339866D01*
X96934649Y-59339866D02*
X96934649Y-59106533D01*
X96934649Y-59106533D02*
X97067982Y-59106533D01*
X96634649Y-59406533D02*
X96634649Y-58706533D01*
X96634649Y-58706533D02*
X96234649Y-59406533D01*
X96234649Y-59406533D02*
X96234649Y-58706533D01*
X95901316Y-59406533D02*
X95901316Y-58706533D01*
X95901316Y-58706533D02*
X95734649Y-58706533D01*
X95734649Y-58706533D02*
X95634649Y-58739866D01*
X95634649Y-58739866D02*
X95567983Y-58806533D01*
X95567983Y-58806533D02*
X95534649Y-58873200D01*
X95534649Y-58873200D02*
X95501316Y-59006533D01*
X95501316Y-59006533D02*
X95501316Y-59106533D01*
X95501316Y-59106533D02*
X95534649Y-59239866D01*
X95534649Y-59239866D02*
X95567983Y-59306533D01*
X95567983Y-59306533D02*
X95634649Y-59373200D01*
X95634649Y-59373200D02*
X95734649Y-59406533D01*
X95734649Y-59406533D02*
X95901316Y-59406533D01*
%TO.C,G\u002A\u002A\u002A*%
G36*
X93302857Y-80900591D02*
G01*
X93302857Y-81000690D01*
X93202759Y-81000690D01*
X93102660Y-81000690D01*
X93102660Y-80900591D01*
X93102660Y-80800493D01*
X93202759Y-80800493D01*
X93302857Y-80800493D01*
X93302857Y-80900591D01*
G37*
G36*
X92902463Y-82502168D02*
G01*
X92902463Y-82802463D01*
X92602167Y-82802463D01*
X92301872Y-82802463D01*
X92301872Y-82502168D01*
X92301872Y-82201872D01*
X92602167Y-82201872D01*
X92902463Y-82201872D01*
X92902463Y-82502168D01*
G37*
G36*
X92902463Y-78097833D02*
G01*
X92902463Y-78398128D01*
X92602167Y-78398128D01*
X92301872Y-78398128D01*
X92301872Y-78097833D01*
X92301872Y-77797537D01*
X92602167Y-77797537D01*
X92902463Y-77797537D01*
X92902463Y-78097833D01*
G37*
G36*
X92101675Y-79899606D02*
G01*
X92101675Y-79999705D01*
X92001576Y-79999705D01*
X91901478Y-79999705D01*
X91901478Y-79899606D01*
X91901478Y-79799507D01*
X92001576Y-79799507D01*
X92101675Y-79799507D01*
X92101675Y-79899606D01*
G37*
G36*
X90900493Y-80700394D02*
G01*
X90900493Y-80800493D01*
X90800394Y-80800493D01*
X90700295Y-80800493D01*
X90700295Y-80700394D01*
X90700295Y-80600296D01*
X90800394Y-80600296D01*
X90900493Y-80600296D01*
X90900493Y-80700394D01*
G37*
G36*
X90900493Y-79098818D02*
G01*
X90900493Y-79198916D01*
X90800394Y-79198916D01*
X90700295Y-79198916D01*
X90700295Y-79098818D01*
X90700295Y-78998719D01*
X90800394Y-78998719D01*
X90900493Y-78998719D01*
X90900493Y-79098818D01*
G37*
G36*
X90500098Y-83102759D02*
G01*
X90500098Y-83202857D01*
X90400000Y-83202857D01*
X90299901Y-83202857D01*
X90299901Y-83102759D01*
X90299901Y-83002660D01*
X90400000Y-83002660D01*
X90500098Y-83002660D01*
X90500098Y-83102759D01*
G37*
G36*
X90500098Y-80400099D02*
G01*
X90500098Y-80600296D01*
X90400000Y-80600296D01*
X90299901Y-80600296D01*
X90299901Y-80400099D01*
X90299901Y-80199902D01*
X90400000Y-80199902D01*
X90500098Y-80199902D01*
X90500098Y-80400099D01*
G37*
G36*
X89699310Y-81100788D02*
G01*
X89699310Y-81200887D01*
X89599212Y-81200887D01*
X89499113Y-81200887D01*
X89499113Y-81100788D01*
X89499113Y-81000690D01*
X89599212Y-81000690D01*
X89699310Y-81000690D01*
X89699310Y-81100788D01*
G37*
G36*
X88898522Y-81901576D02*
G01*
X88898522Y-82001675D01*
X88798424Y-82001675D01*
X88698325Y-82001675D01*
X88698325Y-81901576D01*
X88698325Y-81801478D01*
X88798424Y-81801478D01*
X88898522Y-81801478D01*
X88898522Y-81901576D01*
G37*
G36*
X88498128Y-78097833D02*
G01*
X88498128Y-78398128D01*
X88197832Y-78398128D01*
X87897537Y-78398128D01*
X87897537Y-78097833D01*
X87897537Y-77797537D01*
X88197832Y-77797537D01*
X88498128Y-77797537D01*
X88498128Y-78097833D01*
G37*
G36*
X87897537Y-83102759D02*
G01*
X87897537Y-83202857D01*
X87797438Y-83202857D01*
X87697340Y-83202857D01*
X87697340Y-83102759D01*
X87697340Y-83002660D01*
X87797438Y-83002660D01*
X87897537Y-83002660D01*
X87897537Y-83102759D01*
G37*
G36*
X87697340Y-79499212D02*
G01*
X87697340Y-79599310D01*
X87597241Y-79599310D01*
X87497143Y-79599310D01*
X87497143Y-79499212D01*
X87497143Y-79399113D01*
X87597241Y-79399113D01*
X87697340Y-79399113D01*
X87697340Y-79499212D01*
G37*
G36*
X90099704Y-79999705D02*
G01*
X90099704Y-80199902D01*
X89999606Y-80199902D01*
X89899507Y-80199902D01*
X89899507Y-80099803D01*
X89899507Y-79999705D01*
X89799409Y-79999705D01*
X89699310Y-79999705D01*
X89699310Y-79899606D01*
X89699310Y-79799507D01*
X89899507Y-79799507D01*
X90099704Y-79799507D01*
X90099704Y-79999705D01*
G37*
G36*
X93302857Y-82502168D02*
G01*
X93302857Y-83202857D01*
X92602167Y-83202857D01*
X91901478Y-83202857D01*
X91901478Y-83002660D01*
X92101675Y-83002660D01*
X92589655Y-83002660D01*
X93077635Y-83002660D01*
X93077635Y-82502168D01*
X93077635Y-82001675D01*
X92589655Y-82001675D01*
X92101675Y-82001675D01*
X92101675Y-82502168D01*
X92101675Y-83002660D01*
X91901478Y-83002660D01*
X91901478Y-82502168D01*
X91901478Y-81801478D01*
X92602167Y-81801478D01*
X93302857Y-81801478D01*
X93302857Y-82001675D01*
X93302857Y-82502168D01*
G37*
G36*
X93302857Y-78097833D02*
G01*
X93302857Y-78798522D01*
X92602167Y-78798522D01*
X91901478Y-78798522D01*
X91901478Y-78598325D01*
X92101675Y-78598325D01*
X92589655Y-78598325D01*
X93077635Y-78598325D01*
X93077635Y-78097833D01*
X93077635Y-77597340D01*
X92589655Y-77597340D01*
X92101675Y-77597340D01*
X92101675Y-78097833D01*
X92101675Y-78598325D01*
X91901478Y-78598325D01*
X91901478Y-78097833D01*
X91901478Y-77397143D01*
X92602167Y-77397143D01*
X93302857Y-77397143D01*
X93302857Y-77597340D01*
X93302857Y-78097833D01*
G37*
G36*
X88898522Y-78097833D02*
G01*
X88898522Y-78798522D01*
X88197832Y-78798522D01*
X87497143Y-78798522D01*
X87497143Y-78598325D01*
X87697340Y-78598325D01*
X88185320Y-78598325D01*
X88673300Y-78598325D01*
X88673300Y-78097833D01*
X88673300Y-77597340D01*
X88185320Y-77597340D01*
X87697340Y-77597340D01*
X87697340Y-78097833D01*
X87697340Y-78598325D01*
X87497143Y-78598325D01*
X87497143Y-78097833D01*
X87497143Y-77397143D01*
X88197832Y-77397143D01*
X88898522Y-77397143D01*
X88898522Y-77597340D01*
X88898522Y-78097833D01*
G37*
G36*
X89599212Y-77997734D02*
G01*
X89699310Y-77997734D01*
X89699310Y-78097833D01*
X89699310Y-78197931D01*
X89599212Y-78197931D01*
X89499113Y-78197931D01*
X89499113Y-78097833D01*
X89499113Y-77997734D01*
X89599212Y-77997734D01*
G37*
G36*
X89298916Y-77497241D02*
G01*
X89298916Y-77597340D01*
X89399015Y-77597340D01*
X89499113Y-77597340D01*
X89499113Y-77797537D01*
X89499113Y-77997734D01*
X89298916Y-77997734D01*
X89098719Y-77997734D01*
X89098719Y-77697439D01*
X89098719Y-77397143D01*
X89198818Y-77397143D01*
X89298916Y-77397143D01*
X89298916Y-77497241D01*
G37*
G36*
X90099704Y-78598325D02*
G01*
X90099704Y-78798522D01*
X90199803Y-78798522D01*
X90299901Y-78798522D01*
X90299901Y-78698424D01*
X90299901Y-78598325D01*
X90400000Y-78598325D01*
X90500098Y-78598325D01*
X90500098Y-78798522D01*
X90500098Y-78998719D01*
X90299901Y-78998719D01*
X90099704Y-78998719D01*
X90099704Y-78898621D01*
X90099704Y-78798522D01*
X89999606Y-78798522D01*
X89899507Y-78798522D01*
X89899507Y-78698424D01*
X89899507Y-78598325D01*
X89799409Y-78598325D01*
X89699310Y-78598325D01*
X89699310Y-78498227D01*
X89699310Y-78398128D01*
X89899507Y-78398128D01*
X90099704Y-78398128D01*
X90099704Y-78598325D01*
G37*
G36*
X89298916Y-78598325D02*
G01*
X89298916Y-78798522D01*
X89399015Y-78798522D01*
X89499113Y-78798522D01*
X89499113Y-78698424D01*
X89499113Y-78598325D01*
X89599212Y-78598325D01*
X89699310Y-78598325D01*
X89699310Y-78698424D01*
X89699310Y-78798522D01*
X89599212Y-78798522D01*
X89499113Y-78798522D01*
X89499113Y-79098818D01*
X89499113Y-79399113D01*
X89399015Y-79399113D01*
X89298916Y-79399113D01*
X89298916Y-79098818D01*
X89298916Y-78798522D01*
X89198818Y-78798522D01*
X89098719Y-78798522D01*
X89098719Y-78598325D01*
X89098719Y-78398128D01*
X89198818Y-78398128D01*
X89298916Y-78398128D01*
X89298916Y-78598325D01*
G37*
G36*
X91701281Y-77797537D02*
G01*
X91701281Y-78197931D01*
X91601182Y-78197931D01*
X91501084Y-78197931D01*
X91501084Y-78298030D01*
X91501084Y-78398128D01*
X91601182Y-78398128D01*
X91701281Y-78398128D01*
X91701281Y-78598325D01*
X91701281Y-78798522D01*
X91601182Y-78798522D01*
X91501084Y-78798522D01*
X91501084Y-78698424D01*
X91501084Y-78598325D01*
X91400985Y-78598325D01*
X91300887Y-78598325D01*
X91300887Y-78898621D01*
X91300887Y-79198916D01*
X91200788Y-79198916D01*
X91100690Y-79198916D01*
X91100690Y-79098818D01*
X91100690Y-78998719D01*
X91000591Y-78998719D01*
X90900493Y-78998719D01*
X90900493Y-78898621D01*
X90900493Y-78798522D01*
X90800394Y-78798522D01*
X90700295Y-78798522D01*
X90700295Y-78698424D01*
X90700295Y-78598325D01*
X90800394Y-78598325D01*
X90900493Y-78598325D01*
X90900493Y-78698424D01*
X90900493Y-78798522D01*
X91000591Y-78798522D01*
X91100690Y-78798522D01*
X91100690Y-78398128D01*
X91100690Y-77997734D01*
X91200788Y-77997734D01*
X91300887Y-77997734D01*
X91300887Y-77897636D01*
X91300887Y-77797537D01*
X91400985Y-77797537D01*
X91501084Y-77797537D01*
X91501084Y-77597340D01*
X91501084Y-77397143D01*
X91601182Y-77397143D01*
X91701281Y-77397143D01*
X91701281Y-77797537D01*
G37*
G36*
X90299901Y-77497241D02*
G01*
X90299901Y-77597340D01*
X90400000Y-77597340D01*
X90500098Y-77597340D01*
X90500098Y-77497241D01*
X90500098Y-77397143D01*
X90600197Y-77397143D01*
X90700295Y-77397143D01*
X90700295Y-77497241D01*
X90700295Y-77597340D01*
X90600197Y-77597340D01*
X90500098Y-77597340D01*
X90500098Y-77897636D01*
X90500098Y-78197931D01*
X90600197Y-78197931D01*
X90700295Y-78197931D01*
X90700295Y-77897636D01*
X90700295Y-77597340D01*
X90900493Y-77597340D01*
X91100690Y-77597340D01*
X91100690Y-77697439D01*
X91100690Y-77797537D01*
X91000591Y-77797537D01*
X90900493Y-77797537D01*
X90900493Y-78097833D01*
X90900493Y-78398128D01*
X90600197Y-78398128D01*
X90299901Y-78398128D01*
X90299901Y-78298030D01*
X90299901Y-78197931D01*
X90199803Y-78197931D01*
X90099704Y-78197931D01*
X90099704Y-78097833D01*
X90099704Y-77997734D01*
X90199803Y-77997734D01*
X90299901Y-77997734D01*
X90299901Y-77797537D01*
X90299901Y-77597340D01*
X90199803Y-77597340D01*
X90099704Y-77597340D01*
X90099704Y-77697439D01*
X90099704Y-77797537D01*
X89899507Y-77797537D01*
X89699310Y-77797537D01*
X89699310Y-77697439D01*
X89699310Y-77597340D01*
X89799409Y-77597340D01*
X89899507Y-77597340D01*
X89899507Y-77497241D01*
X89899507Y-77397143D01*
X90099704Y-77397143D01*
X90299901Y-77397143D01*
X90299901Y-77497241D01*
G37*
G36*
X92101675Y-80700394D02*
G01*
X92101675Y-80800493D01*
X92001576Y-80800493D01*
X91901478Y-80800493D01*
X91901478Y-80900591D01*
X91901478Y-81000690D01*
X92001576Y-81000690D01*
X92101675Y-81000690D01*
X92101675Y-80900591D01*
X92101675Y-80800493D01*
X92502069Y-80800493D01*
X92902463Y-80800493D01*
X92902463Y-80900591D01*
X92902463Y-81000690D01*
X92702266Y-81000690D01*
X92502069Y-81000690D01*
X92502069Y-81200887D01*
X92502069Y-81401084D01*
X92602167Y-81401084D01*
X92702266Y-81401084D01*
X92702266Y-81300985D01*
X92702266Y-81200887D01*
X92802364Y-81200887D01*
X92902463Y-81200887D01*
X92902463Y-81300985D01*
X92902463Y-81401084D01*
X92802364Y-81401084D01*
X92702266Y-81401084D01*
X92702266Y-81501182D01*
X92702266Y-81601281D01*
X92502069Y-81601281D01*
X92301872Y-81601281D01*
X92301872Y-81300985D01*
X92301872Y-81000690D01*
X92201773Y-81000690D01*
X92101675Y-81000690D01*
X92101675Y-81100788D01*
X92101675Y-81200887D01*
X92001576Y-81200887D01*
X91901478Y-81200887D01*
X91901478Y-81100788D01*
X91901478Y-81000690D01*
X91801379Y-81000690D01*
X91701281Y-81000690D01*
X91701281Y-81100788D01*
X91701281Y-81200887D01*
X91601182Y-81200887D01*
X91501084Y-81200887D01*
X91501084Y-81000690D01*
X91501084Y-80800493D01*
X91601182Y-80800493D01*
X91701281Y-80800493D01*
X91701281Y-80700394D01*
X91701281Y-80600296D01*
X91901478Y-80600296D01*
X92101675Y-80600296D01*
X92101675Y-80700394D01*
G37*
G36*
X93102660Y-81401084D02*
G01*
X93302857Y-81401084D01*
X93302857Y-81501182D01*
X93302857Y-81601281D01*
X93102660Y-81601281D01*
X92902463Y-81601281D01*
X92902463Y-81501182D01*
X92902463Y-81401084D01*
X93102660Y-81401084D01*
G37*
G36*
X93302857Y-79399113D02*
G01*
X93202759Y-79399113D01*
X93102660Y-79399113D01*
X93102660Y-79499212D01*
X93102660Y-79599310D01*
X92902463Y-79599310D01*
X92702266Y-79599310D01*
X92702266Y-79699409D01*
X92702266Y-79799507D01*
X92602167Y-79799507D01*
X92502069Y-79799507D01*
X92502069Y-79899606D01*
X92502069Y-79999705D01*
X92602167Y-79999705D01*
X92702266Y-79999705D01*
X92702266Y-79899606D01*
X92702266Y-79799507D01*
X92802364Y-79799507D01*
X92902463Y-79799507D01*
X92902463Y-79899606D01*
X92902463Y-79999705D01*
X92802364Y-79999705D01*
X92702266Y-79999705D01*
X92702266Y-80099803D01*
X92702266Y-80199902D01*
X92802364Y-80199902D01*
X92902463Y-80199902D01*
X92902463Y-80400099D01*
X92902463Y-80600296D01*
X92802364Y-80600296D01*
X92702266Y-80600296D01*
X92702266Y-80500197D01*
X92702266Y-80400099D01*
X92602167Y-80400099D01*
X92502069Y-80400099D01*
X92502069Y-80300000D01*
X92502069Y-80199902D01*
X92401970Y-80199902D01*
X92301872Y-80199902D01*
X92301872Y-80400099D01*
X92301872Y-80600296D01*
X92201773Y-80600296D01*
X92101675Y-80600296D01*
X92101675Y-80500197D01*
X92101675Y-80400099D01*
X91801379Y-80400099D01*
X91501084Y-80400099D01*
X91501084Y-80500197D01*
X91501084Y-80600296D01*
X91400985Y-80600296D01*
X91300887Y-80600296D01*
X91300887Y-80700394D01*
X91300887Y-80800493D01*
X91200788Y-80800493D01*
X91100690Y-80800493D01*
X91100690Y-80700394D01*
X91100690Y-80600296D01*
X91000591Y-80600296D01*
X90900493Y-80600296D01*
X90900493Y-80500197D01*
X90900493Y-80400099D01*
X90800394Y-80400099D01*
X90700295Y-80400099D01*
X90700295Y-80300000D01*
X90700295Y-80199902D01*
X90600197Y-80199902D01*
X90500098Y-80199902D01*
X90500098Y-80099803D01*
X90500098Y-79999705D01*
X90400000Y-79999705D01*
X90299901Y-79999705D01*
X90299901Y-79799507D01*
X90299901Y-79599310D01*
X90099704Y-79599310D01*
X89899507Y-79599310D01*
X89899507Y-79399113D01*
X89899507Y-79198916D01*
X89999606Y-79198916D01*
X90099704Y-79198916D01*
X90099704Y-79299015D01*
X90099704Y-79399113D01*
X90199803Y-79399113D01*
X90299901Y-79399113D01*
X90299901Y-79499212D01*
X90299901Y-79599310D01*
X90400000Y-79599310D01*
X90500098Y-79599310D01*
X90500098Y-79399113D01*
X90500098Y-79198916D01*
X90600197Y-79198916D01*
X90700295Y-79198916D01*
X90700295Y-79399113D01*
X90700295Y-79599310D01*
X90800394Y-79599310D01*
X90900493Y-79599310D01*
X90900493Y-79699409D01*
X90900493Y-79799507D01*
X90800394Y-79799507D01*
X90700295Y-79799507D01*
X90700295Y-79899606D01*
X90700295Y-79999705D01*
X90800394Y-79999705D01*
X90900493Y-79999705D01*
X90900493Y-79899606D01*
X90900493Y-79799507D01*
X91000591Y-79799507D01*
X91100690Y-79799507D01*
X91100690Y-79899606D01*
X91100690Y-79999705D01*
X91000591Y-79999705D01*
X90900493Y-79999705D01*
X90900493Y-80099803D01*
X90900493Y-80199902D01*
X91000591Y-80199902D01*
X91100690Y-80199902D01*
X91100690Y-80099803D01*
X91100690Y-79999705D01*
X91300887Y-79999705D01*
X91501084Y-79999705D01*
X91501084Y-80099803D01*
X91501084Y-80199902D01*
X91601182Y-80199902D01*
X91701281Y-80199902D01*
X91701281Y-80099803D01*
X91701281Y-79999705D01*
X91801379Y-79999705D01*
X91901478Y-79999705D01*
X91901478Y-80099803D01*
X91901478Y-80199902D01*
X92101675Y-80199902D01*
X92301872Y-80199902D01*
X92301872Y-79999705D01*
X92301872Y-79799507D01*
X92201773Y-79799507D01*
X92101675Y-79799507D01*
X92101675Y-79699409D01*
X92101675Y-79599310D01*
X92301872Y-79599310D01*
X92502069Y-79599310D01*
X92502069Y-79499212D01*
X92502069Y-79399113D01*
X92902463Y-79399113D01*
X93002561Y-79399113D01*
X93102660Y-79399113D01*
X93102660Y-79299015D01*
X93102660Y-79198916D01*
X93002561Y-79198916D01*
X92902463Y-79198916D01*
X92902463Y-79299015D01*
X92902463Y-79399113D01*
X92502069Y-79399113D01*
X92301872Y-79399113D01*
X92101675Y-79399113D01*
X92101675Y-79499212D01*
X92101675Y-79599310D01*
X91901478Y-79599310D01*
X91701281Y-79599310D01*
X91701281Y-79699409D01*
X91701281Y-79799507D01*
X91501084Y-79799507D01*
X91300887Y-79799507D01*
X91300887Y-79699409D01*
X91300887Y-79599310D01*
X91200788Y-79599310D01*
X91100690Y-79599310D01*
X91100690Y-79499212D01*
X91100690Y-79399113D01*
X91300887Y-79399113D01*
X91501084Y-79399113D01*
X91501084Y-79499212D01*
X91501084Y-79599310D01*
X91601182Y-79599310D01*
X91701281Y-79599310D01*
X91701281Y-79499212D01*
X91701281Y-79399113D01*
X91601182Y-79399113D01*
X91501084Y-79399113D01*
X91501084Y-79299015D01*
X91501084Y-79198916D01*
X91601182Y-79198916D01*
X91701281Y-79198916D01*
X91701281Y-79299015D01*
X91701281Y-79399113D01*
X91901478Y-79399113D01*
X92101675Y-79399113D01*
X92101675Y-79299015D01*
X92101675Y-79198916D01*
X92001576Y-79198916D01*
X91901478Y-79198916D01*
X91901478Y-79098818D01*
X91901478Y-78998719D01*
X92201773Y-78998719D01*
X92502069Y-78998719D01*
X92502069Y-79098818D01*
X92502069Y-79198916D01*
X92702266Y-79198916D01*
X92902463Y-79198916D01*
X92902463Y-79098818D01*
X92902463Y-78998719D01*
X93102660Y-78998719D01*
X93302857Y-78998719D01*
X93302857Y-79198916D01*
X93302857Y-79399113D01*
G37*
G36*
X93002561Y-79999705D02*
G01*
X93102660Y-79999705D01*
X93102660Y-80099803D01*
X93102660Y-80199902D01*
X93002561Y-80199902D01*
X92902463Y-80199902D01*
X92902463Y-80099803D01*
X92902463Y-79999705D01*
X93002561Y-79999705D01*
G37*
G36*
X93202759Y-79599310D02*
G01*
X93302857Y-79599310D01*
X93302857Y-79699409D01*
X93302857Y-79799507D01*
X93202759Y-79799507D01*
X93102660Y-79799507D01*
X93102660Y-79699409D01*
X93102660Y-79599310D01*
X93202759Y-79599310D01*
G37*
G36*
X89499113Y-81701379D02*
G01*
X89499113Y-81801478D01*
X89399015Y-81801478D01*
X89298916Y-81801478D01*
X89298916Y-81901576D01*
X89298916Y-82001675D01*
X89399015Y-82001675D01*
X89499113Y-82001675D01*
X89499113Y-81901576D01*
X89499113Y-81801478D01*
X89599212Y-81801478D01*
X89699310Y-81801478D01*
X89699310Y-81901576D01*
X89699310Y-82001675D01*
X89899507Y-82001675D01*
X90099704Y-82001675D01*
X90099704Y-82101773D01*
X90099704Y-82201872D01*
X89799409Y-82201872D01*
X89499113Y-82201872D01*
X89499113Y-82301971D01*
X89499113Y-82402069D01*
X89298916Y-82402069D01*
X89098719Y-82402069D01*
X89098719Y-82502168D01*
X89098719Y-82602266D01*
X88798424Y-82602266D01*
X88498128Y-82602266D01*
X88498128Y-82502168D01*
X88498128Y-82402069D01*
X88398029Y-82402069D01*
X88297931Y-82402069D01*
X88297931Y-82502168D01*
X88297931Y-82602266D01*
X88197832Y-82602266D01*
X88097734Y-82602266D01*
X88097734Y-82702365D01*
X88097734Y-82802463D01*
X88197832Y-82802463D01*
X88297931Y-82802463D01*
X88297931Y-82702365D01*
X88297931Y-82602266D01*
X88398029Y-82602266D01*
X88498128Y-82602266D01*
X88498128Y-82702365D01*
X88498128Y-82802463D01*
X88698325Y-82802463D01*
X88898522Y-82802463D01*
X88898522Y-82902562D01*
X88898522Y-83002660D01*
X89098719Y-83002660D01*
X89298916Y-83002660D01*
X89298916Y-82802463D01*
X89298916Y-82602266D01*
X89399015Y-82602266D01*
X89499113Y-82602266D01*
X89499113Y-82502168D01*
X89499113Y-82402069D01*
X89599212Y-82402069D01*
X89699310Y-82402069D01*
X89699310Y-82602266D01*
X89699310Y-82802463D01*
X89599212Y-82802463D01*
X89499113Y-82802463D01*
X89499113Y-82902562D01*
X89499113Y-83002660D01*
X89599212Y-83002660D01*
X89699310Y-83002660D01*
X89699310Y-82902562D01*
X89699310Y-82802463D01*
X89799409Y-82802463D01*
X89899507Y-82802463D01*
X89899507Y-82702365D01*
X89899507Y-82602266D01*
X89999606Y-82602266D01*
X90099704Y-82602266D01*
X90099704Y-82702365D01*
X90099704Y-82802463D01*
X89999606Y-82802463D01*
X89899507Y-82802463D01*
X89899507Y-82902562D01*
X89899507Y-83002660D01*
X89999606Y-83002660D01*
X90099704Y-83002660D01*
X90099704Y-83102759D01*
X90099704Y-83202857D01*
X89799409Y-83202857D01*
X89499113Y-83202857D01*
X89499113Y-83102759D01*
X89499113Y-83002660D01*
X89399015Y-83002660D01*
X89298916Y-83002660D01*
X89298916Y-83102759D01*
X89298916Y-83202857D01*
X88998621Y-83202857D01*
X88698325Y-83202857D01*
X88698325Y-83102759D01*
X88698325Y-83002660D01*
X88598227Y-83002660D01*
X88498128Y-83002660D01*
X88498128Y-83102759D01*
X88498128Y-83202857D01*
X88398029Y-83202857D01*
X88297931Y-83202857D01*
X88297931Y-83102759D01*
X88297931Y-83002660D01*
X88097734Y-83002660D01*
X87897537Y-83002660D01*
X87897537Y-82902562D01*
X87897537Y-82802463D01*
X87697340Y-82802463D01*
X87497143Y-82802463D01*
X87497143Y-82702365D01*
X87497143Y-82602266D01*
X87597241Y-82602266D01*
X87697340Y-82602266D01*
X87697340Y-82502168D01*
X87697340Y-82402069D01*
X87597241Y-82402069D01*
X87497143Y-82402069D01*
X87497143Y-82301971D01*
X87497143Y-82201872D01*
X87597241Y-82201872D01*
X87697340Y-82201872D01*
X87697340Y-82301971D01*
X87697340Y-82402069D01*
X87897537Y-82402069D01*
X88097734Y-82402069D01*
X88097734Y-82301971D01*
X88097734Y-82201872D01*
X88197832Y-82201872D01*
X88297931Y-82201872D01*
X88297931Y-82101773D01*
X88297931Y-82001675D01*
X88498128Y-82001675D01*
X88498128Y-82201872D01*
X88798424Y-82201872D01*
X89098719Y-82201872D01*
X89098719Y-81901576D01*
X89098719Y-81601281D01*
X88798424Y-81601281D01*
X88498128Y-81601281D01*
X88498128Y-81901576D01*
X88498128Y-82001675D01*
X88297931Y-82001675D01*
X88197832Y-82001675D01*
X88097734Y-82001675D01*
X88097734Y-82101773D01*
X88097734Y-82201872D01*
X87897537Y-82201872D01*
X87697340Y-82201872D01*
X87697340Y-82101773D01*
X87697340Y-82001675D01*
X87597241Y-82001675D01*
X87497143Y-82001675D01*
X87497143Y-81901576D01*
X87497143Y-81801478D01*
X87597241Y-81801478D01*
X87697340Y-81801478D01*
X87697340Y-81901576D01*
X87697340Y-82001675D01*
X87797438Y-82001675D01*
X87897537Y-82001675D01*
X87897537Y-81801478D01*
X87897537Y-81601281D01*
X88097734Y-81601281D01*
X88297931Y-81601281D01*
X88297931Y-81501182D01*
X88297931Y-81401084D01*
X88598227Y-81401084D01*
X88898522Y-81401084D01*
X88898522Y-81300985D01*
X88898522Y-81200887D01*
X88998621Y-81200887D01*
X89098719Y-81200887D01*
X89098719Y-81100788D01*
X89098719Y-81000690D01*
X88998621Y-81000690D01*
X88898522Y-81000690D01*
X88898522Y-81100788D01*
X88898522Y-81200887D01*
X88798424Y-81200887D01*
X88698325Y-81200887D01*
X88698325Y-81100788D01*
X88698325Y-81000690D01*
X88798424Y-81000690D01*
X88898522Y-81000690D01*
X88898522Y-80900591D01*
X88898522Y-80800493D01*
X88998621Y-80800493D01*
X89098719Y-80800493D01*
X89098719Y-80900591D01*
X89098719Y-81000690D01*
X89198818Y-81000690D01*
X89298916Y-81000690D01*
X89298916Y-80800493D01*
X89298916Y-80600296D01*
X89198818Y-80600296D01*
X89098719Y-80600296D01*
X89098719Y-80500197D01*
X89098719Y-80400099D01*
X89298916Y-80400099D01*
X89499113Y-80400099D01*
X89499113Y-80300000D01*
X89499113Y-80199902D01*
X89599212Y-80199902D01*
X89699310Y-80199902D01*
X89699310Y-80300000D01*
X89699310Y-80400099D01*
X89899507Y-80400099D01*
X90099704Y-80400099D01*
X90099704Y-80500197D01*
X90099704Y-80600296D01*
X89999606Y-80600296D01*
X89899507Y-80600296D01*
X89899507Y-80700394D01*
X89899507Y-80800493D01*
X89799409Y-80800493D01*
X89699310Y-80800493D01*
X89699310Y-80700394D01*
X89699310Y-80600296D01*
X89599212Y-80600296D01*
X89499113Y-80600296D01*
X89499113Y-80800493D01*
X89499113Y-81000690D01*
X89399015Y-81000690D01*
X89298916Y-81000690D01*
X89298916Y-81100788D01*
X89298916Y-81200887D01*
X89399015Y-81200887D01*
X89499113Y-81200887D01*
X89499113Y-81300985D01*
X89499113Y-81401084D01*
X89599212Y-81401084D01*
X89699310Y-81401084D01*
X89699310Y-81300985D01*
X89699310Y-81200887D01*
X89799409Y-81200887D01*
X89899507Y-81200887D01*
X89899507Y-81300985D01*
X89899507Y-81401084D01*
X89799409Y-81401084D01*
X89699310Y-81401084D01*
X89699310Y-81501182D01*
X89699310Y-81601281D01*
X89599212Y-81601281D01*
X89499113Y-81601281D01*
X89499113Y-81701379D01*
G37*
G36*
X91601182Y-82802463D02*
G01*
X91701281Y-82802463D01*
X91701281Y-83002660D01*
X91701281Y-83202857D01*
X91601182Y-83202857D01*
X91501084Y-83202857D01*
X91501084Y-83002660D01*
X91501084Y-82802463D01*
X91601182Y-82802463D01*
G37*
G36*
X90900493Y-81300985D02*
G01*
X90900493Y-81401084D01*
X91100690Y-81401084D01*
X91300887Y-81401084D01*
X91300887Y-81300985D01*
X91300887Y-81200887D01*
X91400985Y-81200887D01*
X91501084Y-81200887D01*
X91501084Y-81401084D01*
X91501084Y-81601281D01*
X91601182Y-81601281D01*
X91701281Y-81601281D01*
X91701281Y-81501182D01*
X91701281Y-81401084D01*
X91901478Y-81401084D01*
X92101675Y-81401084D01*
X92101675Y-81501182D01*
X92101675Y-81601281D01*
X91901478Y-81601281D01*
X91701281Y-81601281D01*
X91701281Y-81701379D01*
X91701281Y-81801478D01*
X91601182Y-81801478D01*
X91501084Y-81801478D01*
X91501084Y-81701379D01*
X91501084Y-81601281D01*
X91200788Y-81601281D01*
X90900493Y-81601281D01*
X90900493Y-81701379D01*
X90900493Y-81801478D01*
X90700295Y-81801478D01*
X90500098Y-81801478D01*
X90500098Y-81901576D01*
X90500098Y-82001675D01*
X90600197Y-82001675D01*
X90700295Y-82001675D01*
X90700295Y-82201872D01*
X90700295Y-82402069D01*
X90800394Y-82402069D01*
X90900493Y-82402069D01*
X90900493Y-82502168D01*
X90900493Y-82602266D01*
X91000591Y-82602266D01*
X91100690Y-82602266D01*
X91100690Y-82802463D01*
X91100690Y-83002660D01*
X90900493Y-83002660D01*
X90700295Y-83002660D01*
X90700295Y-82902562D01*
X90700295Y-82802463D01*
X90500098Y-82802463D01*
X90299901Y-82802463D01*
X90299901Y-82301971D01*
X90299901Y-81801478D01*
X90099704Y-81801478D01*
X89899507Y-81801478D01*
X89899507Y-81601281D01*
X89899507Y-81401084D01*
X89999606Y-81401084D01*
X90099704Y-81401084D01*
X90099704Y-81501182D01*
X90099704Y-81601281D01*
X90199803Y-81601281D01*
X90299901Y-81601281D01*
X90299901Y-81701379D01*
X90299901Y-81801478D01*
X90400000Y-81801478D01*
X90500098Y-81801478D01*
X90500098Y-81701379D01*
X90500098Y-81601281D01*
X90600197Y-81601281D01*
X90700295Y-81601281D01*
X90700295Y-81401084D01*
X90700295Y-81200887D01*
X90800394Y-81200887D01*
X90900493Y-81200887D01*
X90900493Y-81300985D01*
G37*
G36*
X91100690Y-81801478D02*
G01*
X91300887Y-81801478D01*
X91300887Y-81901576D01*
X91300887Y-82001675D01*
X91501084Y-82001675D01*
X91701281Y-82001675D01*
X91701281Y-82201872D01*
X91701281Y-82402069D01*
X91601182Y-82402069D01*
X91501084Y-82402069D01*
X91501084Y-82602266D01*
X91501084Y-82802463D01*
X91400985Y-82802463D01*
X91300887Y-82802463D01*
X91300887Y-82602266D01*
X91300887Y-82402069D01*
X91200788Y-82402069D01*
X91100690Y-82402069D01*
X91100690Y-82301971D01*
X91100690Y-82201872D01*
X91000591Y-82201872D01*
X90900493Y-82201872D01*
X90900493Y-82001675D01*
X90900493Y-81801478D01*
X91100690Y-81801478D01*
G37*
G36*
X89499113Y-79999705D02*
G01*
X89399015Y-79999705D01*
X89298916Y-79999705D01*
X89298916Y-80099803D01*
X89298916Y-80199902D01*
X89198818Y-80199902D01*
X89098719Y-80199902D01*
X89098719Y-80099803D01*
X89098719Y-79999705D01*
X88998621Y-79999705D01*
X88898522Y-79999705D01*
X88898522Y-80199902D01*
X88898522Y-80400099D01*
X88798424Y-80400099D01*
X88698325Y-80400099D01*
X88698325Y-80300000D01*
X88698325Y-80199902D01*
X88598227Y-80199902D01*
X88498128Y-80199902D01*
X88498128Y-80300000D01*
X88498128Y-80400099D01*
X88197832Y-80400099D01*
X87897537Y-80400099D01*
X87897537Y-80500197D01*
X87897537Y-80600296D01*
X88097734Y-80600296D01*
X88297931Y-80600296D01*
X88297931Y-80700394D01*
X88297931Y-80800493D01*
X88197832Y-80800493D01*
X88097734Y-80800493D01*
X88097734Y-80900591D01*
X88097734Y-81000690D01*
X88197832Y-81000690D01*
X88297931Y-81000690D01*
X88297931Y-80900591D01*
X88297931Y-80800493D01*
X88398029Y-80800493D01*
X88498128Y-80800493D01*
X88498128Y-80700394D01*
X88498128Y-80600296D01*
X88698325Y-80600296D01*
X88898522Y-80600296D01*
X88898522Y-80700394D01*
X88898522Y-80800493D01*
X88798424Y-80800493D01*
X88698325Y-80800493D01*
X88698325Y-80900591D01*
X88698325Y-81000690D01*
X88598227Y-81000690D01*
X88498128Y-81000690D01*
X88498128Y-81100788D01*
X88498128Y-81200887D01*
X88197832Y-81200887D01*
X87897537Y-81200887D01*
X87897537Y-81300985D01*
X87897537Y-81401084D01*
X87797438Y-81401084D01*
X87697340Y-81401084D01*
X87697340Y-81200887D01*
X87697340Y-81000690D01*
X87597241Y-81000690D01*
X87497143Y-81000690D01*
X87497143Y-80900591D01*
X87497143Y-80800493D01*
X87597241Y-80800493D01*
X87697340Y-80800493D01*
X87697340Y-80500197D01*
X87697340Y-80199902D01*
X87797438Y-80199902D01*
X87897537Y-80199902D01*
X88097734Y-80199902D01*
X88197832Y-80199902D01*
X88297931Y-80199902D01*
X88297931Y-80099803D01*
X88297931Y-79999705D01*
X88398029Y-79999705D01*
X88498128Y-79999705D01*
X88498128Y-79899606D01*
X88498128Y-79799507D01*
X88698325Y-79799507D01*
X88898522Y-79799507D01*
X88898522Y-79699409D01*
X88898522Y-79599310D01*
X88798424Y-79599310D01*
X88698325Y-79599310D01*
X88698325Y-79499212D01*
X88698325Y-79399113D01*
X88598227Y-79399113D01*
X88498128Y-79399113D01*
X88498128Y-79499212D01*
X88498128Y-79599310D01*
X88398029Y-79599310D01*
X88297931Y-79599310D01*
X88297931Y-79799507D01*
X88297931Y-79999705D01*
X88197832Y-79999705D01*
X88097734Y-79999705D01*
X88097734Y-80099803D01*
X88097734Y-80199902D01*
X87897537Y-80199902D01*
X87897537Y-80099803D01*
X87897537Y-79999705D01*
X87797438Y-79999705D01*
X87697340Y-79999705D01*
X87697340Y-79899606D01*
X87697340Y-79799507D01*
X87897537Y-79799507D01*
X88097734Y-79799507D01*
X88097734Y-79699409D01*
X88097734Y-79599310D01*
X87997635Y-79599310D01*
X87897537Y-79599310D01*
X87897537Y-79399113D01*
X87897537Y-79198916D01*
X87697340Y-79198916D01*
X87497143Y-79198916D01*
X87497143Y-79098818D01*
X87497143Y-78998719D01*
X87897537Y-78998719D01*
X88297931Y-78998719D01*
X88297931Y-79098818D01*
X88297931Y-79198916D01*
X88197832Y-79198916D01*
X88097734Y-79198916D01*
X88097734Y-79299015D01*
X88097734Y-79399113D01*
X88197832Y-79399113D01*
X88297931Y-79399113D01*
X88297931Y-79299015D01*
X88297931Y-79198916D01*
X88398029Y-79198916D01*
X88498128Y-79198916D01*
X88498128Y-79098818D01*
X88498128Y-78998719D01*
X88598227Y-78998719D01*
X88698325Y-78998719D01*
X88698325Y-79098818D01*
X88698325Y-79198916D01*
X88898522Y-79198916D01*
X89098719Y-79198916D01*
X89098719Y-79399113D01*
X89098719Y-79599310D01*
X89298916Y-79599310D01*
X89499113Y-79599310D01*
X89499113Y-79799507D01*
X89499113Y-79999705D01*
G37*
G36*
X90099704Y-80800493D02*
G01*
X90299901Y-80800493D01*
X90299901Y-80900591D01*
X90299901Y-81000690D01*
X90400000Y-81000690D01*
X90500098Y-81000690D01*
X90500098Y-80900591D01*
X90500098Y-80800493D01*
X90600197Y-80800493D01*
X90700295Y-80800493D01*
X90700295Y-81000690D01*
X90700295Y-81200887D01*
X90400000Y-81200887D01*
X90099704Y-81200887D01*
X90099704Y-81100788D01*
X90099704Y-81000690D01*
X89999606Y-81000690D01*
X89899507Y-81000690D01*
X89899507Y-80900591D01*
X89899507Y-80800493D01*
X90099704Y-80800493D01*
G37*
D12*
%TO.C,TP2*%
X93150000Y-48025000D02*
G75*
G03*
X93150000Y-48025000I-700000J0D01*
G01*
%TO.C,TP1*%
X89875000Y-48075000D02*
G75*
G03*
X89875000Y-48075000I-700000J0D01*
G01*
%TO.C,TP4*%
X88650000Y-54925000D02*
G75*
G03*
X88650000Y-54925000I-700000J0D01*
G01*
%TO.C,G\u002A\u002A\u002A*%
G36*
X87451547Y-70072822D02*
G01*
X87509425Y-70078206D01*
X87741967Y-70132279D01*
X87944363Y-70241193D01*
X88132053Y-70412655D01*
X88199971Y-70494085D01*
X88351801Y-70741390D01*
X88450948Y-71012155D01*
X88498889Y-71296304D01*
X88497101Y-71583759D01*
X88447064Y-71864442D01*
X88350254Y-72128276D01*
X88208149Y-72365182D01*
X88022229Y-72565084D01*
X87793970Y-72717903D01*
X87724303Y-72751225D01*
X87621891Y-72786648D01*
X87513163Y-72800010D01*
X87366529Y-72797170D01*
X87287201Y-72790883D01*
X87114211Y-72761497D01*
X86980083Y-72716553D01*
X86897224Y-72669665D01*
X86717238Y-72522880D01*
X86554379Y-72330545D01*
X86424108Y-72109541D01*
X86386080Y-72027287D01*
X86351579Y-71939869D01*
X86329995Y-71855176D01*
X86318313Y-71754963D01*
X86313515Y-71620984D01*
X86312587Y-71434993D01*
X86312858Y-71326532D01*
X86315874Y-71168609D01*
X86324426Y-71053566D01*
X86341199Y-70963583D01*
X86368879Y-70880840D01*
X86410152Y-70787516D01*
X86466585Y-70675291D01*
X86608749Y-70458999D01*
X86776193Y-70293974D01*
X86980821Y-70167278D01*
X86982487Y-70166458D01*
X87111284Y-70107028D01*
X87211174Y-70075870D01*
X87313985Y-70066597D01*
X87451547Y-70072822D01*
G37*
G36*
X90039146Y-66525468D02*
G01*
X90328898Y-66547812D01*
X90600814Y-66583926D01*
X90835735Y-66633044D01*
X90973011Y-66671814D01*
X91443306Y-66843069D01*
X91896746Y-67065967D01*
X92317113Y-67331764D01*
X92688192Y-67631718D01*
X92915802Y-67841368D01*
X92617929Y-67843518D01*
X92456039Y-67849236D01*
X92196763Y-67870413D01*
X91898639Y-67905167D01*
X91572541Y-67951417D01*
X91229343Y-68007082D01*
X90879918Y-68070083D01*
X90535141Y-68138340D01*
X90205885Y-68209771D01*
X89903024Y-68282297D01*
X89637431Y-68353837D01*
X89419982Y-68422311D01*
X89261548Y-68485638D01*
X89245683Y-68493586D01*
X89118104Y-68574879D01*
X88973072Y-68690306D01*
X88825750Y-68825218D01*
X88691305Y-68964965D01*
X88584899Y-69094898D01*
X88521699Y-69200367D01*
X88516682Y-69212374D01*
X88467785Y-69307016D01*
X88409158Y-69358556D01*
X88316030Y-69389813D01*
X88287103Y-69396325D01*
X88064053Y-69423875D01*
X87788410Y-69426271D01*
X87471176Y-69404220D01*
X87123355Y-69358427D01*
X86755948Y-69289601D01*
X86576072Y-69251024D01*
X86576072Y-69102768D01*
X86576292Y-69092015D01*
X86601664Y-68956845D01*
X86665519Y-68779495D01*
X86762639Y-68571258D01*
X86887811Y-68343430D01*
X87035816Y-68107303D01*
X87121164Y-67989092D01*
X87279201Y-67797915D01*
X87465067Y-67596069D01*
X87664983Y-67397088D01*
X87865167Y-67214510D01*
X88051842Y-67061870D01*
X88211225Y-66952703D01*
X88338725Y-66881320D01*
X88748102Y-66694705D01*
X89163379Y-66566227D01*
X89254448Y-66548711D01*
X89482763Y-66525152D01*
X89750714Y-66517660D01*
X90039146Y-66525468D01*
G37*
G36*
X92689542Y-68169690D02*
G01*
X92823710Y-68181469D01*
X92942210Y-68209237D01*
X93055525Y-68259001D01*
X93174139Y-68336763D01*
X93308536Y-68448529D01*
X93469200Y-68600302D01*
X93666616Y-68798087D01*
X93834583Y-68969637D01*
X93993203Y-69135279D01*
X94111924Y-69265893D01*
X94196392Y-69369117D01*
X94252257Y-69452588D01*
X94285167Y-69523944D01*
X94300771Y-69590821D01*
X94304717Y-69660857D01*
X94302406Y-69725870D01*
X94280589Y-69834293D01*
X94228037Y-69922912D01*
X94135378Y-70000881D01*
X93993242Y-70077356D01*
X93792256Y-70161493D01*
X93758998Y-70174396D01*
X93277056Y-70346271D01*
X92827199Y-70475627D01*
X92390934Y-70567117D01*
X91949770Y-70625399D01*
X91747564Y-70638787D01*
X91498094Y-70645843D01*
X91218853Y-70646896D01*
X90926498Y-70642355D01*
X90637687Y-70632630D01*
X90369078Y-70618131D01*
X90137327Y-70599267D01*
X89959092Y-70576448D01*
X89804214Y-70547912D01*
X89564332Y-70489374D01*
X89377994Y-70419953D01*
X89234402Y-70335185D01*
X89122757Y-70230604D01*
X89063956Y-70157442D01*
X88937338Y-69959741D01*
X88848937Y-69758295D01*
X88802312Y-69565728D01*
X88801020Y-69394666D01*
X88848619Y-69257734D01*
X88862274Y-69237754D01*
X88951137Y-69135630D01*
X89075139Y-69017999D01*
X89214168Y-68901902D01*
X89348108Y-68804378D01*
X89456847Y-68742466D01*
X89540310Y-68710445D01*
X89729338Y-68651713D01*
X89969916Y-68588511D01*
X90250595Y-68522957D01*
X90559929Y-68457165D01*
X90886469Y-68393253D01*
X91218768Y-68333336D01*
X91545378Y-68279530D01*
X91854851Y-68233952D01*
X92135741Y-68198717D01*
X92376598Y-68175942D01*
X92565975Y-68167742D01*
X92689542Y-68169690D01*
G37*
G36*
X86792445Y-69621616D02*
G01*
X86898251Y-69640850D01*
X87028657Y-69666404D01*
X87338659Y-69715492D01*
X87629804Y-69745796D01*
X87886239Y-69755940D01*
X88092109Y-69744545D01*
X88102649Y-69743185D01*
X88237136Y-69725895D01*
X88348205Y-69711720D01*
X88412723Y-69703612D01*
X88456786Y-69718437D01*
X88504219Y-69782240D01*
X88560870Y-69904787D01*
X88636445Y-70066673D01*
X88758912Y-70272940D01*
X88893713Y-70450363D01*
X89027102Y-70579060D01*
X89160291Y-70660889D01*
X89357468Y-70747373D01*
X89586107Y-70821431D01*
X89825760Y-70875474D01*
X90058896Y-70916073D01*
X90040387Y-71043790D01*
X90033055Y-71096232D01*
X90015779Y-71227501D01*
X89998729Y-71364730D01*
X89987551Y-71438373D01*
X89959267Y-71562731D01*
X89927250Y-71652339D01*
X89900951Y-71723889D01*
X89910899Y-71821333D01*
X89985406Y-71892551D01*
X90058970Y-71912839D01*
X90138032Y-71877409D01*
X90207450Y-71773729D01*
X90231132Y-71712323D01*
X90269108Y-71571433D01*
X90302257Y-71402355D01*
X90325775Y-71231100D01*
X90334861Y-71083679D01*
X90335121Y-70960719D01*
X91046537Y-70973023D01*
X91096759Y-70973904D01*
X91307157Y-70977892D01*
X91489438Y-70981812D01*
X91633067Y-70985408D01*
X91727511Y-70988419D01*
X91762234Y-70990588D01*
X91764934Y-71009274D01*
X91759315Y-71083636D01*
X91744100Y-71195553D01*
X91722572Y-71325719D01*
X91698019Y-71454826D01*
X91673726Y-71563566D01*
X91652977Y-71632633D01*
X91646563Y-71648492D01*
X91619932Y-71762593D01*
X91647862Y-71837326D01*
X91732624Y-71879735D01*
X91819083Y-71876915D01*
X91899089Y-71811927D01*
X91962893Y-71681016D01*
X92010926Y-71483271D01*
X92043616Y-71217777D01*
X92066279Y-70947864D01*
X92316127Y-70907216D01*
X92498603Y-70873493D01*
X92744467Y-70819821D01*
X93000199Y-70757026D01*
X93239351Y-70691651D01*
X93435477Y-70630241D01*
X93637483Y-70560492D01*
X93637483Y-70658375D01*
X93636619Y-70682558D01*
X93617856Y-70812323D01*
X93578445Y-70983689D01*
X93523505Y-71178138D01*
X93458159Y-71377153D01*
X93387527Y-71562216D01*
X93372115Y-71598352D01*
X93201365Y-71926779D01*
X92979523Y-72256914D01*
X92720867Y-72571215D01*
X92439676Y-72852143D01*
X92150229Y-73082157D01*
X92063724Y-73139346D01*
X91694825Y-73341876D01*
X91286089Y-73508724D01*
X90858134Y-73631132D01*
X90737435Y-73651977D01*
X90566530Y-73666664D01*
X90348360Y-73672429D01*
X90071646Y-73669826D01*
X89932302Y-73666418D01*
X89736440Y-73658683D01*
X89583016Y-73646802D01*
X89454396Y-73628652D01*
X89332944Y-73602112D01*
X89201026Y-73565060D01*
X88888589Y-73453905D01*
X88533185Y-73289164D01*
X88199718Y-73095498D01*
X87912310Y-72885623D01*
X87923024Y-72863781D01*
X87975110Y-72808514D01*
X88057392Y-72734051D01*
X88192612Y-72600262D01*
X88373967Y-72346582D01*
X88513672Y-72046956D01*
X88526165Y-72009922D01*
X88571598Y-71799643D01*
X88593066Y-71553966D01*
X88590567Y-71298251D01*
X88564102Y-71057862D01*
X88513672Y-70858161D01*
X88501019Y-70824475D01*
X88364756Y-70544670D01*
X88194377Y-70313100D01*
X87996550Y-70132751D01*
X87777940Y-70006608D01*
X87545214Y-69937657D01*
X87305040Y-69928883D01*
X87064084Y-69983270D01*
X86829014Y-70103805D01*
X86771989Y-70141164D01*
X86695746Y-70187353D01*
X86657088Y-70205394D01*
X86651314Y-70175152D01*
X86651485Y-70094215D01*
X86656477Y-69982179D01*
X86664942Y-69858661D01*
X86675529Y-69743276D01*
X86686890Y-69655641D01*
X86697676Y-69615372D01*
X86718677Y-69613290D01*
X86792445Y-69621616D01*
G37*
%TO.C,TP3*%
X94300000Y-60100000D02*
G75*
G03*
X94300000Y-60100000I-700000J0D01*
G01*
%TD*%
M02*
