M48
INCH,TZ
T1C0.0079
T2C0.0256
T3C0.0276
T4C0.0394
%
G90
G05
T1
X41417Y-22126
X41417Y-38543
X41484Y-20795
X41630Y-26004
X41764Y-32402
X41772Y-31154
X41960Y-25993
X42008Y-35630
X42154Y-37067
X42181Y-32236
X42185Y-25240
X42185Y-25606
X42244Y-24567
X42244Y-33287
X42283Y-22323
X42323Y-34035
X42354Y-30713
X42480Y-36516
X42638Y-25630
X42795Y-23661
X42870Y-29579
X42874Y-34016
X42913Y-33209
X42933Y-28091
X42933Y-28484
X42933Y-28878
X42933Y-33484
X42938Y-35113
X42938Y-35507
X42938Y-35901
X43031Y-36949
X43110Y-22756
X43169Y-24835
X43209Y-24114
X43228Y-34094
X43244Y-32244
X43244Y-32996
X43303Y-32606
X43307Y-21024
X43327Y-28091
X43327Y-28484
X43327Y-28878
X43332Y-35113
X43332Y-35507
X43332Y-35901
X43366Y-30406
X43402Y-27453
X43583Y-21024
X43622Y-29469
X43622Y-34035
X43720Y-28091
X43720Y-28484
X43720Y-28878
X43725Y-35113
X43725Y-35507
X43725Y-35901
X43850Y-37043
X43858Y-30807
X43917Y-30433
X44055Y-33071
X44134Y-26772
X44161Y-24724
X44213Y-29173
X44232Y-34252
X44331Y-25189
X44591Y-23193
X44685Y-35235
X44685Y-35433
X44685Y-36024
X44685Y-36222
X44764Y-27244
X44862Y-25193
X44874Y-24795
X44878Y-25583
X44886Y-24366
X44961Y-25866
X45079Y-37500
X45157Y-37205
X45197Y-24094
X45417Y-28606
X45669Y-25984
X45866Y-27657
X45933Y-25213
X45945Y-24614
X45965Y-25492
X46000Y-23142
T4
X39370Y-20394
X39370Y-21394
X39370Y-22394
X39370Y-23394
X39370Y-24394
X39370Y-25394
X39370Y-26394
X39370Y-27394
X39370Y-28394
X39370Y-29394
X39370Y-30394
X39370Y-31394
X39370Y-32394
X39370Y-33394
X39370Y-34394
X39370Y-35394
X39370Y-36394
X39370Y-37394
X39370Y-38394
X39370Y-39394
X40004Y-20394
X40004Y-21394
X40004Y-22394
X40004Y-23394
X40004Y-24394
X40004Y-25394
X40004Y-26394
X40004Y-27394
X40004Y-28394
X40004Y-29394
X40004Y-30394
X40004Y-31394
X40004Y-32394
X40004Y-33394
X40004Y-34394
X40004Y-35394
X40004Y-36394
X40004Y-37394
X40004Y-38394
X40004Y-39394
X42252Y-39075
X43252Y-39075
X44252Y-39075
X46610Y-20394
X46610Y-21394
X46610Y-22394
X46610Y-23394
X46610Y-24394
X46610Y-25394
X46610Y-26394
X46610Y-27394
X46610Y-28394
X46610Y-29394
X46610Y-30394
X46610Y-31394
X46610Y-32394
X46610Y-33394
X46610Y-34394
X46610Y-35394
X46610Y-36394
X46610Y-37394
X46610Y-38394
X46610Y-39394
X47244Y-20394
X47244Y-21394
X47244Y-22394
X47244Y-23394
X47244Y-24394
X47244Y-25394
X47244Y-26394
X47244Y-27394
X47244Y-28394
X47244Y-29394
X47244Y-30394
X47244Y-31394
X47244Y-32394
X47244Y-33394
X47244Y-34394
X47244Y-35394
X47244Y-36394
X47244Y-37394
X47244Y-38394
X47244Y-39394
T2
G00X42374Y-21575
M15
G01X42374Y-21732
M16
G05
G00X44280Y-21575
M15
G01X44280Y-21732
M16
G05
T3
G00X42252Y-20374
M15
G01X42252Y-20571
M16
G05
G00X44402Y-20374
M15
G01X44402Y-20571
M16
G05
T0
M30
